<?xml version="1.0" encoding="utf-8"?>
<!-- Generator: Adobe Illustrator 24.0.1, SVG Export Plug-In . SVG Version: 6.00 Build 0)  -->
<!-- SVG made by yourforcesupport.com -  Powerful Websites for the Modern Force Support Squadron US Forces -->
<svg version="1.1" id="VERT_FULL_COLOR" xmlns="http://www.w3.org/2000/svg" xmlns:xlink="http://www.w3.org/1999/xlink" x="0px"
	 y="0px" viewBox="0 0 101.7 130.5" style="enable-background:new 0 0 101.7 130.5;" xml:space="preserve">
<style type="text/css">
	.st0{clip-path:url(#SVGID_2_);}
	.st1{fill:#0082CA;}
	.st2{clip-path:url(#SVGID_2_);fill:#0082CA;}
	.st3{clip-path:url(#SVGID_2_);fill:#FFFFFF;}
	.st4{clip-path:url(#SVGID_4_);fill:#FFFFFF;}
	.st5{clip-path:url(#SVGID_4_);fill:#410099;}
	.st6{clip-path:url(#SVGID_4_);fill:#76BC21;}
	.st7{clip-path:url(#SVGID_4_);fill:#E50695;}
	.st8{clip-path:url(#SVGID_4_);fill:#0082CA;}
	.st9{fill:none;stroke:#0082CA;stroke-width:0.9993;stroke-miterlimit:10;}
</style>
<g>
	<g>
		<defs>
			<path id="SVGID_1_" d="M93.7,130.2H7.9c-4.1,0-7.5-3.3-7.5-7.5V8.1c0-4.1,3.3-7.5,7.5-7.5h85.8c4.1,0,7.5,3.3,7.5,7.5v114.6
				C101.2,126.8,97.8,130.2,93.7,130.2z"/>
		</defs>
		<clipPath id="SVGID_2_">
			<use xlink:href="#SVGID_1_"  style="overflow:visible;"/>
		</clipPath>
		<g class="st0">
			<path class="st1" d="M33.2,119.9h-7.5l-1,3H21l5.6-17h5.7l5.6,17h-3.7L33.2,119.9z M29.5,109.2l-2.6,7.3H32L29.5,109.2z"/>
			<path class="st1" d="M57.4,115.7h-1.8v2.7c0,2.6-2,4.5-4.5,4.5h-5c-2.5,0-4.5-1.8-4.5-4.4v-1.7c0-1,0.4-2,1-2.7
				c-0.6-0.7-1-1.7-1-2.7v-1.2c0-2.5,2-4.4,4.5-4.4h6.8v3.2h-6.8c-0.4,0-0.7,0.4-0.7,1v1.6c0,0.6,0.3,1,0.7,1h5.8v-1.9h3.7v1.9h1.8
				V115.7z M51.9,115.7h-5.8c-0.4,0-0.7,0.4-0.7,1v2c0,0.6,0.3,1,0.8,1h5c0.5,0,0.7-0.4,0.7-1V115.7z"/>
			<path class="st1" d="M61.3,117.3v-5.9c0-3.6,2.9-5.9,7.8-5.9s7.8,2.3,7.8,5.9v1.1h-4v-0.7c0-1.8-1.3-2.9-3.9-2.9
				c-2.7,0-4.1,1.1-4.1,2.9v5.3c0,1.8,1.4,2.9,4.1,2.9c2.6,0,3.9-1.1,3.9-2.9v-0.7h4v1.1c0,3.6-2.9,5.9-7.8,5.9
				C64.2,123.2,61.3,120.9,61.3,117.3z"/>
		</g>
		<path class="st2" d="M-39.2,50l16.5,11.2l73.2,9.6l73.2-9.6L140.4,50l-89.8,9.5L-39.2,50z M-9.7,66.5L7,78.1l43.7,7.2l43.7-7.2
			L111,66.5l-60.4,8.7L-9.7,66.5z M50.6,44L-69,32.2l13.4,11.5L50.6,55.6l106.2-11.9l13.4-11.5L50.6,44z"/>
		
			<ellipse transform="matrix(0.2298 -0.9732 0.9732 0.2298 -22.7607 98.1335)" class="st3" cx="50.6" cy="63.4" rx="35.9" ry="35.9"/>
		<g class="st0">
			<defs>
				<path id="SVGID_3_" d="M84,60.3c0.8,9.2-2.2,17.9-7.7,24.5c-5.5,6.6-13.5,11.1-22.7,12l0,0c-9.2,0.9-17.8-2.1-24.4-7.5
					c-6.6-5.5-11-13.4-11.9-22.6l0,0c-0.8-9.2,2.2-17.9,7.7-24.5c5.5-6.6,13.5-11.1,22.7-12l0,0c9.2-0.9,17.9,2.1,24.4,7.5
					C78.7,43.1,83.2,51,84,60.3L84,60.3z M48.5,67.2c-0.3,0-0.8,0.7-0.8,0.7l-1.2-0.3c-0.3-0.1-0.6-0.1-0.8-0.3
					c-0.7-0.6-1.3-1.4-1.8-2.3c-0.3-0.4-1,0-1.4-0.3c-1.1-0.6-2.2-1.3-3.6-1.3c-0.3,0-0.7,0-1-0.4c-0.5-0.2-1-0.5-1-0.5l-1.3-0.3
					l-0.5-0.9l-0.3-0.9l0.1-0.2l-0.2-0.7l-0.5-0.9l-0.2-0.3l-0.2-0.4l-0.2-0.3c0,0,0.1-0.2,0-0.4C33.5,57.1,33,57,33,56.8
					c0-0.2-0.2-0.6-0.2-0.6s-0.3-0.2-0.3-0.5c0-0.2,0-0.8,0-0.8l-0.1-0.4c0,0-0.3-0.4-0.5-0.3c-0.2,0.1-0.1,0.8-0.1,0.8l0.2,0.5
					l0.3,0.3l0.1,0.7l0.3,1.2l0.4,0.8c0,0,0.1,0.3,0,0.5c-0.1,0.2-0.4,0-0.4,0l-0.7-1l0-0.7c0,0-0.7-0.6-0.9-0.9
					c-0.1-0.3,0.5-0.2,0.4-0.4c-0.1-0.2-0.3-0.6-0.3-0.9c0-0.3,0-0.9-0.1-1.2c0-0.3-0.1-0.8-0.1-1c0-0.2-0.8-0.8-1-0.8
					c-0.3-0.1,0-0.4,0-0.7c0-1.9,0.7-3.7,1.7-5.2c0.2-0.3,0.4-0.5,0.6-0.8c0.2-0.2,0.5-0.5,0.5-0.7c0-0.3-0.4-0.6-0.4-1
					c0.1-0.2,0.3-0.6,0.2-0.8c0.1-1.1,0.6-2.2,0.8-3.2c0.1-0.3,0-0.8-0.2-0.9c-1.1-0.8-2.1,0.3-3.3,0.5c-1.4,1.2-2.7,2.5-3.9,3.9
					c-5.2,6.2-8,14.4-7.3,23.1l0,0c0.8,8.7,5,16.2,11.2,21.3c6.2,5.2,14.4,7.9,23.1,7.1l0,0c8.7-0.8,16.3-5.1,21.5-11.4
					c5.2-6.2,8-14.4,7.3-23.1l0,0c0-0.5-0.1-0.9-0.2-1.4c-0.5,1-0.7,2.5-1.2,2.2c-3.7-1.8-5.2-5.9-5.8-10.1c0-0.4-0.1-0.7-0.1-1
					c0-0.3,0-0.5,0-0.8c0.1-2.1-0.6-5-3.2-5.1c-0.2,0-0.4-0.4-0.4-0.7c-0.1-1-0.2-2.2-1.3-2.5c-0.3-0.2-0.5-0.3-0.6-0.6
					c-0.5-1.4-1.1-2.6-1.9-3.7c-0.9-0.5-1.8-1.1-2.7-1.5c0.1,0.4,0.1,0.8-0.1,0.8c-0.3,0.1-2.3-1.3-3.9-2.5c-4.1-1.4-8.5-2-13.1-1.5
					l0,0c-4.2,0.4-8.2,1.6-11.7,3.5c0.5,0,0.9,0,1.3-0.1c0.6-0.1-0.2,0.5,0.8,1.2c0.6,0.1,1,0,1.2-0.1c0.2-0.1,0.1-0.1,0.3-0.1
					c0.4-0.1,0.9,1.1,1,1.2c0.2,0.2,0.6-0.1,0.6-0.1s0.6,0.1,0.3,0c-0.4-0.1-0.7-0.5-0.7-0.5l0.4-0.4l0.1-0.5c0,0-0.8,0.2-0.8,0
					c0-0.2,0.4-0.4,0.5-0.4c0.2,0-0.1-0.4,0.4-0.5c0.5,0,0.7,0.2,0.7,0.4c0,0.2,0.3,0.5,0.3,0.5c0.5-0.2,1.5-0.6,1.4-0.4
					c-0.1,0.1-0.1,1.6-1.1,1.9c0.3,0.3,0.8,0.3,1.1,0.2c0.2-0.1,0-0.5,0.3-0.7c0.5-0.2,0.8-0.8,1-0.8c0.2,0,0.2,1,0.6,1.3
					c0.4,0.2,0.6-0.1,0.8-0.4c-0.4-0.1-1.3-0.4-0.7-0.9c1.9-1.3,4.6,0.6,6,1.5c-0.3,0.4-0.8,0.3-1.2,0.4c0.5,0.2,1.3,1,0.9,1.2
					c-0.3,0.2-0.8-0.6-1.3-0.5c-0.3,0,1.1,1.2,0.1,0.7c-1-0.6-2.2-0.4-2.1-0.7c0.1-0.3,0.8-0.7,0.8-1.1c-0.1-0.7-0.9-0.7-1.5-1
					c0.4,1.3-0.7,1.2-1.4,1.9c0.6,0.3,1.6-0.3,1.4,0.4c-0.2,0.3-1.1,0.3-1.7,0.1c-0.9-0.2-2.3,0.5-2.3,1.5c0,1.3,1.9,1.6,3.1,2.1
					c0,0,0.2,0.2,0.2,0.4c0,0.2,0.2,0.9,0.5,0.9c0.3,0,0.8,0.2,0.7-0.2c-0.1-0.3-0.1-0.8-0.3-1.1c0.5-0.2,0.8-0.6,1.2-1
					c-0.9-0.6-1.3-1.4-0.6-2.2c0.5-0.4,1.3,0.2,2,0.7c0.3,0.3,1,0.5,1.2,0.1c0.1-0.2-0.2-0.6,0-0.7c0.3-0.1,0.5,0.2,0.9,0.4
					c0.2,0.1,0.4,0.2,0.5,0.4c0.1,0.4,0.8,1.1,1,1.2c0.2,0,1.6,0.3,1.7,0.6c0.1,0.2-0.1,0.8-0.1,0.8s0.8,0,0.6,0.2
					c-0.2,0.2,0.2,0.5,1,0.8c0.8,0.3,1.1,0.7,1.1,0.7l-1,0.2l-1.4-0.4c0,0-0.1,0.3-0.2,0.3c-0.1,0,0-1.3,0-1.3L55,43.4l-0.6,0.5
					l-1.3,0.2c0,0-0.7,0.2-1,0.4c-0.2,0.2-0.7,0.9-0.6,0.9c0.1,0,0.7-0.7,0.8-0.6c0.2,0,0.6-0.2,0.6,0c0,0.2-0.1,0.5-0.1,0.5l-0.2,0
					c0,0,0.8,0.9,0.9,0.8c0.2,0,0.3,0.1,0.6-0.1c0.3-0.1,0.6-0.6,0.7-0.5c0.1,0.1-0.4,0.3-0.4,0.3s0.4-0.1,0.5,0.1
					c0.1,0.2-0.7,0.3-0.7,0.3L53.6,47c0,0-0.2,0.4-0.4,0.3c-0.2-0.1-0.5-0.1-0.4-0.2c0-0.2,0.3-0.6,0.3-0.6L52.1,47l-0.8,0.7
					l0.1,0.8c-0.1,0.3-0.4,0.2-0.3,0.5c0.1,0.3-0.8,0.1-0.9,0.3c-0.7,1.6-1.9,2.8-2.9,4.1c-0.9,1.3,0.1,3.8,0.1,4.2
					c0,0.4-0.3,0.1-0.4,0.1c-0.6-0.8-1.1-1.6-1.8-2.1c-0.2-0.2-0.4-0.3-0.7-0.4c-0.6-0.4-1.6-0.3-1.7-0.2c-0.1,0.2-0.1,1.1-0.7,0.9
					c-1.1-0.4-2.4-0.5-2.9,0.8c-0.2,0.3-0.3,0.6-0.3,0.6l-0.3,1l0.1,1.5l0.3,1.2c0.8,0.7,1.9,1.1,2.9,0.5c0.3-0.2,0.1-0.8,0.4-1
					c0.6-0.3,1.6-0.8,1.7-0.1c0.1,0.8-0.7,1.9-0.5,2.6c0.3,0.7,1.9-0.1,2.4,0.7c0.5,0.8,0.2,2.2,1,3c0.2,0.1,0.6,0.2,1,0.1
					c0.4,0,0.6-0.3,1-0.3c0.5,0.1,0.9,0.4,0.9,0.4l0.7-0.5c0.2-1.1,2.3-1.8,2.6-1.8c0.3,0,0,0.3,0,0.4c0.6,0.3,0.8-0.6,1.3-0.5
					c0.9,0.2,1.8,0.7,2.8,0.2c0.6-0.3,1.9-0.3,1.9-0.1c0,0.2-0.3,0.4-0.4,0.5c0.7,0.4,1.3,0.8,1.9,1.2l0.9,0.4
					c0.9-0.4,1.8,0.2,2.7,0.7c0.7,0.4,1.3,1.3,0.9,2.2c0.1-0.3,0.5-0.3,0.5-0.3s1.3,0.2,2,0.4c0.3,0.1,0.2,0.3,0.2,0.4
					c0.7,0.4,1.5-0.3,2.2-0.1c0.2,0,0.5,0.1,0.8,0.2c0.3,0.1,0.5,0.2,0.5,0.2l0.5,0l0.6,0.9L72.1,73l-0.8,1.5c0,0-0.7,0.5-0.7,0.9
					c0,0.5,0.1,0.8,0.1,1.2c-0.1,0.4-0.7,1.6-0.7,1.6l-0.7,1.2c0,0-0.2,0.4-0.5,0.8c-0.2,0.4-0.8-0.1-1,0.4
					c-0.1,0.5-0.6,0.5-0.6,0.5l-0.8,0.6c0,0-0.8,0.2-0.6,0.6c0.1,0.4-0.4,1.1-0.4,1.1l-1.2,1.5l-1,1.1l-1,0.8c0,0-0.5-0.1-0.9-0.2
					c-0.4-0.1-0.8-0.1-0.6,0.1c0.4,0.3,0.5,0.2,0.4,0.3c-0.1,0.1,0,0.5,0,0.5l-0.3,0.6c-0.5,0.7-1.8,0.5-1.9,0.8
					c-0.5,0.8-1.6,0.5-1.6,0.8c-0.1,0.3-0.1,1.3-0.7,1.7c0.1,0.2,0.5,0.2,0.6,0.4c0,0.2-1.3,0.2-1.6,0.8c0.5,0.3,1.1,0.1,1.4,0.5
					c0.4,0.4-2.4,0.7-3,0c-1.2-1.5-0.6-3.8,0.6-5.6c0.4-0.5,0-1.3,0.1-2c0,0,0.1-0.5,0.1-1.1c-0.2-1.4,1.2-3.7-0.9-4.1
					c-0.5-0.2-1-0.5-1-0.5l-1.5-1c0,0-0.1-0.3-0.3-0.6c-1-1.4-3-3.5-3-3.8c0-0.3,1.2-0.6,0.9-1.1c-0.1-0.2-0.7-0.3-0.6-0.7
					c0.2-0.9,0.8-1.4,1.5-2c0.6-0.5,0-1.2,0.2-1.8c0-0.4-0.1-0.8-0.2-0.9c-0.2-0.2-0.5-0.7-0.5-0.7S48.9,67.2,48.5,67.2z M75.1,43.2
					c-0.8-0.9-1.6-1.8-2.5-2.6c0.2,1.3,1.2,2.3,2,3.2C75,44.2,74.9,43.5,75.1,43.2z M49.3,34.9l1.2-0.1l1.7,0.8l1.3,1.6
					c0,0,1.7,1.9,2.1,1.9c0.4,0,1.7,0.5,2-0.1c0.3-0.6-0.5-1.3-0.4-2.1c0.1-0.8,0.4-1.4,0.4-1.8c0-0.4-1.7-1.5-1.7-1.5l-2.9-0.9
					l-2.2,0l-1.9,0.4l-2.3,1.1c-1,0.2-3.5,0.4-3,0.7l1.5,0l1.2,0.2c0,0,1.2,0.4,1.6-0.2C48,34.4,49.3,34.9,49.3,34.9z"/>
			</defs>
			<clipPath id="SVGID_4_">
				<use xlink:href="#SVGID_3_"  style="overflow:visible;"/>
			</clipPath>
			
				<ellipse transform="matrix(2.573650e-03 -1 1 2.573650e-03 -12.9585 113.9012)" class="st4" cx="50.6" cy="63.4" rx="36.1" ry="36.1"/>
			<path class="st5" d="M82.3,47L82.3,47l0.1-0.1C82.5,46.8,82.4,47,82.3,47z"/>
			<path class="st5" d="M139.8,25c-1.3,1.2-2.7,2.1-2.9,2.3c-0.8,0.5-1.6,1.1-2.4,1.6c-0.8,0.5-1.6,1.1-2.4,1.6
				c-1.6,1.1-3.2,2.3-4.8,3.5c-1.6,1.2-3.2,2.4-4.8,3.6c-0.8,0.6-1.6,1.2-2.4,1.8c-0.8,0.6-1.6,1.2-2.4,1.7
				c-6.7,4.7-13.1,7.7-19.7,12.7c-2.1,1.6-2,1.9,0,0.6c1.2-0.8,2.5-1.3,3.5-2c0.5-0.3,2.4-1.6,4.2-2.7c1.8-1.1,3.4-1.9,3.2-1.4
				c-0.1,0.5-3.2,2.8-6.5,4.9c-3.2,2.1-6.6,4.1-7.2,4.5c-2.3,1.3-4.6,2.8-7,4.3c-2.4,1.5-4.7,3-7.1,4.4c-4.8,2.9-9.7,6-14.5,8.8
				c-0.5,0.3-2.2,1.3-2,0.5c0.2-1.1,2.5-2.4,3.1-2.8c0.7-0.4,5.7-3,5.9-4c-1.5,0.2-3.7,1.9-5.4,2.9c-1.6,0.9-3.2,2.1-4.8,3
				c-0.6,0.4-1.3,0.7-2,1.1c-0.3,0.2-0.7,0.4-1,0.6l-1,0.6c-1.4,0.8-2.7,1.7-4,2.7c-1.6,1.3-3.1,1.2-4.8,2.5
				c-0.9,0.7-1.8,1.7-2.7,2.2c-1.1,0.7-2.2,1.3-3.4,2c-2.6,1.7-5.3,3.3-7.9,5c-1.3,0.9-2.7,1.7-4,2.7c-0.7,0.5-1.3,1-2,1.4
				c-0.7,0.5-1.4,1-2,1.5c-1.6,1.2-3,1.6-4.1,1.5c-4.2,2-8.2,3.2-11.1,4.1c-1.5,0.4-2.8,0.8-3.7,1c-0.9,0.2-1.6,0.4-1.8,0.5
				c-0.4,0.1-1.7,0.7-3.5,1.6c-1.7,0.9-3.9,2-5.9,3c-2.1,1-4,1.8-5.4,2.1c-1.4,0.3-2.1,0-1.8-0.8c0.3-0.7,0.7-1.4,1.3-2
				c0.6-0.6,1.3-1.3,1.9-1.8c1.4-1.2,2.9-2.2,3.7-2.9c1.6-1.4,3.6-2.7,5.3-3.7c1.4-0.8,3-0.9,4.1-1.6c1.1-0.7,2.3-1.8,3.6-2.5
				c1.2-0.6,3.9-1.5,5.1-2.9c-0.2,0.1-1.8,0.6-3.3,1.1c-1.5,0.5-3,0.9-2.9,0.7c0.3-0.2,0.5-0.3,0.8-0.5c-0.3-0.7-1,0.5-1.5,0.5
				c-0.5,0-1.5-0.1-2,0c-0.7,0.2-5.9,3.6-4.5,1.6c0.8-1.1,2.6-2.3,4.4-3.3c1.8-1,3.6-1.7,4.4-2.2c2-1,4.6-2.7,4.6-0.8
				c0.4-0.2,2.9-2,2.9-3c0-1.1-1.8-0.1-2.6,0.2c-1.1,0.3-2.3,0.6-3.1,0.8c-0.7,0.2-1.5,0.6-2.3,1c-0.2,0.1-0.4,0.2-0.6,0.3
				c-0.2,0.1-0.4,0.2-0.6,0.4c-0.4,0.2-0.8,0.5-1.3,0.8c-1.7,1-3.4,2.1-4.9,2.8c-2.6,1.2-5,1.7-7,2.4c-0.2,0.1-0.7,0.3-1.3,0.6
				c-0.3,0.1-0.7,0.3-1.1,0.5c-0.2,0.1-0.4,0.2-0.6,0.2c-0.2,0.1-0.4,0.2-0.6,0.2c-1.6,0.6-3.1,1-2.8,0.4c0.1-0.3,0.6-0.3,0.7-0.5
				c0.2-0.7-2.3,1.4-2.2,1.6c-0.1-0.3,0.5-2.2-0.9-0.6c-0.5,1.2-1,1.6-1.6,1.9c-0.3,0.1-0.6,0.2-1,0.4c-0.4,0.1-0.8,0.3-1.3,0.6
				c0,0-0.1,0.1-0.2,0.1c-0.1,0-0.2,0.1-0.3,0.2l-0.2,0.1l-0.1,0l0,0c-0.2,0.1-0.5,0.2-0.8,0.4c-0.3,0.2-0.6,0.3-1,0.6
				c-0.4,0.3-0.8,0.6-1.3,1.2c-0.3,0.3-0.6,0.8-1,1.5c-0.2,0.3-0.5,0.9-0.7,1.3c-0.1,0.3-0.3,0.6-0.4,0.9c0,0.1-0.1,0.1-0.1,0.2
				c0,0.1,0,0.1-0.1,0.3c-0.1,0.2-0.2,0.5-0.3,0.7c-0.2,0.5-0.3,0.9-0.4,1.4l0,0.2c0,0.1,0,0,0,0l0,0l0,0l-0.1,0.1c0,0,0,0,0-0.2
				l0-0.1l0,0l0,0l0.1-0.2c0.1-0.5,0.3-1.1,0.5-1.7c0.1-0.2,0.1-0.3,0.2-0.5c0-0.1,0.1-0.3,0.1-0.4c0.1-0.2,0.1-0.4,0.2-0.6
				c0.1-0.4,0.3-0.8,0.5-1.2c0.6-1.5,1.2-2.5,1.6-3.2c0.8-1.3,1.3-1.8,1.8-2.2c0.5-0.4,0.9-0.6,1.2-0.6c0.1,0,0.2,0,0.2,0
				c0.1,0,0.1,0,0.2,0l0,0l0,0l0,0h0h0l0,0l0,0l0.1,0l0.1,0c0.1,0,0.1,0,0.2,0c0.1,0,0.3-0.1,0.4-0.1c0.1,0,0.2-0.1,0.3-0.1
				c1.1-0.5,3.2-2.3,4.2-2.7C-10,96-8.3,96-7.3,95.2c1.9-1.7,0.6-2,1.6-3.3c0.2-0.3,0.4-0.5,0.6-0.7l0,0l0,0l0,0l0,0l0,0l0,0l0,0
				L-5,91l0.2-0.1c0.1-0.1,0.2-0.2,0.3-0.2c0.2-0.1,0.4-0.3,0.6-0.4c0.2-0.1,0.4-0.2,0.5-0.2c0.7-0.1,1.2,0.1,1.2,0.8
				c0.4-0.3,2-0.9,2.2-1.1c0.7-0.7-0.1-0.7,1.1-1.4c0.8-0.5,1.6-0.7,2.4-1.1c1.7-0.9,3.9-1.6,5.6-2.6c0.7-0.4,1.4-0.9,2.1-1.4
				c0.2-0.1,0.4-0.2,0.5-0.3c0.2-0.1,0.4-0.2,0.5-0.3c0.4-0.2,0.7-0.4,1.1-0.5c0.9-0.4,5-1.4,5.8-2.3c-0.2-0.3-3.1,0.7-5.2,1.4
				c-1,0.3-1.8,0.6-2,0.5c0,0,0-0.1,0-0.1l0-0.1l0,0l0,0l0,0c0.1,0,0.1-0.1,0.2-0.2c0.3-0.2,0.8-0.6,1.6-1c1.2-0.7,2.5-1.1,3.7-1.6
				c0.8-0.4,1.6-0.6,2.3-0.8c0.3,0.2,0.3,0.5,0,0.9c-0.1,0,0.6,0.3,1,0.2c0.5,0,2.2-0.6,2.7-1.4c-0.7,0.4-2.9,1.2-2.2-0.7
				c0.4-1,3-1.9,3.7-2.3c1.8-1.1,3.4-2,5.2-3c1.8-1,3.6-2.1,5.3-3.2c0.3-0.3,0.6-0.5,0.6-0.5c0.2-0.2,0.4-0.3,0.6-0.4
				c0.1-0.1,0.2-0.1,0.3-0.2c0.1-0.1,0.2-0.1,0.4-0.2c0.5-0.3,0.9-0.5,1.3-0.8c0.7-0.5,1.5-1,2.2-1.4c4.4-2.8,8.9-5.4,13.3-7.9
				c0.7-0.4,1.4-0.8,2.1-1.2l0,0.1c1.8-1.1,3.6-2.1,5.4-3l1.8-0.9l1.8-1c1.2-0.6,2.4-1.3,3.6-2c3.1-1.8,6.3-3.6,9.3-5.2
				c0.4-0.2,0.9,0,1,0.4c0.3,1.1-0.8,1.5-1.6,2.1c-1,0.6-6.4,3.2-7.1,4.9c0.1,0.6,6.3-3.5,7.4-4.1c3.1-1.7,6.6-4,9.7-5.7
				c3.4-1.8,6.8-3.8,10.1-5.4c1-0.5,10.7-6.3,10.5-5.3c0,0-0.2,0.2-0.4,0.4c-0.3,0.2-0.6,0.5-1,0.7c-0.9,0.6-2,1.4-3.2,2.2
				c-2.3,1.6-4.7,3.2-5,3.7c0,3.6,2.6,0.9,4.8-0.4c2.4-1.4,4.9-2.4,7.2-3.8c2.2-1.3,4.6-2.7,6.9-4.2c1.4-0.9,2.4-1.6,3.6-2.2
				c0.5-0.2,1.1-0.5,1.6-0.9c0.7-0.4,2.1-1.5,2.7-1.5c0.9,0,1.1,1-0.2,2.7c-0.4,0.6-1.8,1.4-2.3,1.9c-0.8,0.7-1.4,1.3-2.2,2.1
				c-1.1,1-2.6,2-3.7,2.9c-1,0.7-1.9,1-2.8,1.7c-0.4,0.3-0.9,1-1.4,1.3c-0.3,0.2-0.8,0.1-1.3,0.4c-0.5,0.3-6.1,4.5-6,4.9
				c0,0.1,1.4-0.1,1.6-0.1c0.5,0,0.4,0.3,1.2-0.2c1.8-1.1,3.4-2.3,5.3-3.6c1.3-0.8,2.5-1.8,3.6-2.4c0.3-0.1,0.6-0.2,0.9-0.4
				c0.4-0.3,0.8-0.8,1.1-1c0.6-0.4,1.2-0.2,2-1.4c-0.2,0.1-2.3,1.2-2.4,1.4c0,0.1,0,0.3-0.1,0.5c-0.3,0.4-1.8,0.1,0-1.4
				c0.4-0.3,1.2-0.4,1.5-0.6c0.6-0.4,1.3-0.9,2-1.2c0.6-0.3,1.3-0.7,1.9-1c0.4-0.1,0.8-0.5,1.1-0.6c0.1,0,0,0.6,0.1,0.6
				c1.4-0.4,3.4-2,4.8-2.9c1.3-0.8,2.5-1.3,3.7-1.8c1.2-0.5,2.4-1,3.7-1.8c1-0.6,1.3-1.1,2.3-1.5c0.1,0,0.6-0.3,1.1-0.5
				c0.5-0.2,1-0.5,1-0.5C142.3,22.3,141.1,23.8,139.8,25z M36.6,70.5c0.2-0.1,0.3-0.2,0.3-0.3c0-0.1,0-0.1-0.1-0.1
				c-1.2,0.8-2.5,1.2-3.7,2.4C33.2,72.9,35.2,71.7,36.6,70.5z M93.1,40.6c-0.7,0.3-1.6,1-2.3,1.4c-0.7,0.4-1.4,0.7-2.1,1.1
				c-1.9,1.1-4.3,2-6.3,3.8l-0.1,0.1l0,0c0.3,0.3,5-2.7,5.5-3c2.1-1.3,4-2,6.2-3.6C94.3,40.1,93,40.6,93.1,40.6z M95.1,39.4
				c-0.1,0.7,1.3-0.4,1.8-1l0.1-0.1C96.4,38.7,95.8,38.7,95.1,39.4z"/>
			<path class="st5" d="M128,14.4c-1.1,1-2.1,1.8-3.2,2.7c-1,0.8-2.1,1.7-3.1,2.5c-1.7,1.3-3,2.7-4.6,3.7c-1.2,0.7-4.4,1.9-5.5,3.7
				c-0.4-0.5-2.5,1.3-3.3,1.8c-1.3,0.7-2.5,1.3-3.8,2.1c-1.8,1-3.7,2.3-5.5,3.3c-2.4,1.3-4.7,2.6-7.1,3.9c-2.3,1.3-4.7,2.5-6.9,3.6
				c-0.8,0.4-4.4,2.7-3.4,0.6c0.3-0.6,3.2-1.8,4-2.5c2.6-2.1,5.6-4.1,8.1-5.6c0.1-0.1,0.1,0.4,0.4,0.2c0.2-0.1,0.2-0.4,0.2-0.4
				c0,0,0.2-0.2,0.5-0.4c0.3-0.2,0.6-0.5,0.8-0.6c1-0.5,1.6-0.6,2.7-1.4c0.8-0.5,1.5-1,2.2-1.5c1.8-1,3.4-1.7,5.2-2.6
				c1.6-0.7,2.9-2.2,4.5-3.2c2.7-1.8,5.2-2.8,7.8-4.4c1.4-0.9,2.9-2.2,4.3-2.9c0.3-0.2,0.6-0.4,0.9-0.6c0.3-0.2,0.7-0.4,1-0.6
				c0.7-0.4,1.4-0.8,2.1-1.2c0.3-0.2,2.9-1.8,3.1-1.7C129.8,13.2,128.5,14,128,14.4z"/>
			<path class="st5" d="M58.6,53.4c-0.3,0-0.7,0.2-1,0.3c-0.5,0.3-1.1,0.4-1.6,0.8c-0.6,0.4-1.3,0.8-1.8,1.1
				c-0.4,0.2-0.9,0.6-1.3,0.6c-0.3,0.1-0.5-0.2-0.5-0.7c0-0.2,0.1-0.4,0.3-0.6c0.5-0.5,0.9-1,1.4-1.2l0.5-0.3c1-0.5,2-1.1,3-1.5
				c0.2-0.1,0.3-0.1,0.5-0.2c0.4-0.3,0.7-0.3,0.9,0c0.1,0.1,0.4,0,0.4,0.2c0,0.2-0.2,0.6-0.3,0.9C59,53.3,58.9,53.4,58.6,53.4z"/>
			<path class="st5" d="M23,101.3c-0.1,0.5-0.7,0.2-0.7,0.7c-0.1,0.8,3.6-1.1,7.4-3.6c0.5-0.3,1-0.6,1.5-1c0.5-0.3,1-0.6,1.4-1
				c0.9-0.6,1.8-1.2,2.6-1.8c1.6-1.1,2.7-1.9,3-2c4.2-2.5,7.9-4.2,12.2-7.6c1-0.8,3.5-3.6,4.1-3.1c1.2,1.2-3.2,4.9-2.6,5.2
				c-0.1-0.7-3.7,2.3-4.1,2.6c-3.6,2.5-7,4.5-10.5,6.4c-3.4,1.9-6.9,3.7-10.2,5.5c-4.5,2.4-9,4.8-13.3,6.8c-1.5,0.7-3.8,1.5-4.8,0.6
				c0.8-1.3,4.3-3.3,7.6-5c1.7-0.8,3.3-1.6,4.5-2.1c0.6-0.3,1.1-0.5,1.4-0.6C22.8,101.3,23,101.2,23,101.3z"/>
			<path class="st5" d="M28.2,98.6c0.1-0.2,0.2-0.3,0.3-0.5c0.1-0.2,0.2-0.2,0.3-0.2c0.1,0,0.1,0.1,0.1,0.2c0,0.1-0.1,0.2-0.2,0.3
				C28.4,98.5,28.3,98.6,28.2,98.6z"/>
			<path class="st6" d="M36.5,68L36.5,68L36.5,68C36.4,68.2,36.5,68,36.5,68z"/>
			<path class="st6" d="M-10.2,80.4c4.2-3.2,8.4-6.7,12.8-9.3c4.7-2.8,9.6-4.7,14-8.1c1.4-1,1-1.2-0.3-0.4c-0.9,0.5-1.9,0.8-2.6,1.3
				c-0.7,0.4-5.3,3.3-5.6,2.6c-0.2-0.4,1.9-1.8,4.2-3.2c1.1-0.7,2.3-1.4,3.2-1.9c0.9-0.5,1.6-0.9,1.9-1c0.8-0.4,1.6-0.9,2.5-1.3
				c0.8-0.5,1.6-0.9,2.4-1.4c1.6-1,3.2-2,4.9-3c3.4-2,6.7-4.2,10.2-6.3c0.4-0.2,1.5-1,1.9-0.4c0.4,0.8-1.4,1.7-1.7,2
				c-0.5,0.3-4.3,2.2-4,2.9c1.4-0.2,2.8-1.4,4.1-2.1c1.2-0.6,2.2-1.5,3.5-2.2c0.5-0.3,0.9-0.5,1.4-0.8c0.3-0.1,0.5-0.3,0.8-0.4
				l0.7-0.4c1-0.5,1.9-1.1,2.7-1.9c1-0.9,2.5-0.8,3.5-1.7c0.5-0.5,0.9-1.1,1.6-1.5c0.8-0.5,1.6-0.9,2.3-1.4c1.7-1.2,3.5-2.3,5.2-3.5
				c1.6-1.1,3.4-2.6,4.9-4.1c0.9-0.9,2-1.3,3.2-1.4c3-1.8,6.1-3.2,8.5-4.2c2.4-1,4.1-1.6,4.5-1.7c0.7-0.2,3.8-2.2,6.6-3.9
				c0.4-0.2,0.7-0.4,1.1-0.6c0.4-0.2,0.7-0.4,1.1-0.6c0.2-0.1,0.3-0.2,0.5-0.3l0.1-0.1l0,0l0,0l0,0l0,0l0,0l0.1,0
				c0.1-0.1,0.2-0.1,0.3-0.2c0.4-0.2,0.8-0.4,1.2-0.5c0.7-0.2,1.2-0.3,1.5-0.2c0.4,0.1,0.6,0.2,0.7,0.5c0.2,0.5,0.1,1-0.1,1.5
				c-0.2,0.5-0.6,1-1,1.5c-0.2,0.3-0.4,0.5-0.6,0.8c-0.2,0.2-0.4,0.4-0.5,0.6c-0.4,0.4-0.7,0.8-0.9,1c-0.4,0.5-0.9,1.1-1.5,1.6
				c-0.5,0.5-1.1,1-1.7,1.4c-0.9,0.7-2.4,0.9-3.2,1.5c-0.7,0.6-1.2,1.5-2.1,2.1c-0.8,0.5-3,1.5-3.3,2.6c0.3-0.2,4.9-2.4,5-2.1
				c-0.1,0.2-0.3,0.3-0.5,0.4c0.7,0.4,0.6-0.5,1.2-0.6c0.5-0.1,1.5-0.1,1.9-0.2c0.6-0.2,3.9-2.9,3.6-1.6c-0.2,0.8-1.3,1.8-2.5,2.6
				c-1.2,0.8-2.6,1.6-3.2,2c-1.4,0.9-3,2.4-4.1,1.2c-0.3,0.2-1.8,1.7-1.2,2.4c0.6,0.7,1.8-0.2,2.5-0.5c0.9-0.3,2-0.7,2.6-1
				c2.4-1,4.4-3.4,6.7-4.6c0.5-0.3,1-0.5,1.5-0.7c0.5-0.2,1-0.4,1.5-0.6c0.5-0.2,1-0.4,1.4-0.6c0.4-0.2,0.9-0.4,1.1-0.5
				c0.1,0,0.3-0.2,0.8-0.5c0.5-0.3,1.2-0.7,1.8-1c0.2-0.1,0.4-0.2,0.6-0.3c0.1-0.1,0.2-0.1,0.3-0.2c0.1,0,0.1-0.1,0.2-0.1
				c0.2-0.1,0.4-0.3,0.6-0.4c0.2-0.1,0.3-0.2,0.5-0.3c0.5-0.3,0.8-0.4,0.9-0.2c0,0.1-0.1,0.2-0.2,0.3c-0.1,0.1-0.2,0.2-0.2,0.3
				c0.1,0.2,0.5-0.3,0.8-0.7c0.2-0.5,0.3-0.9,0.2-0.9c0.1,0.1,0.4,0.4,0.6,0.6c0.1,0.1,0.2,0.2,0.3,0.1l0.1-0.1c0-0.1,0-0.1-0.1-0.2
				l0-0.1l0-0.1c0-0.1,0-0.2-0.1-0.2v-0.1l0,0v0v0c0,0.1,0.1,0,0,0l0,0l0,0l0,0l0-0.1l0-0.1c0-0.1,0-0.2,0.2-0.3
				c0.2-0.1,0.4-0.1,0.8-0.3c0.2-0.1,0.4-0.2,0.7-0.3c0.1-0.1,0.3-0.1,0.4-0.2l0.1-0.1l0.2-0.1c0.1-0.1,0.2-0.1,0.3-0.2l0,0
				c0,0,0.1-0.1,0.2-0.2c0.1-0.1,0.3-0.2,0.4-0.3c0.2-0.1,0.3-0.2,0.5-0.3c0.1-0.1,0.3-0.1,0.3-0.1s0.2,0,0.3,0.1l0,0.1l0,0.1l0.1,0
				l0.1,0c0.1,0.1,0.2,0.2,0.2,0.4c0,0.1,0,0.2,0.2,0.3v0.1l-0.1,0.1l0.1,0.1c0.1,0.4,0.1,0.2-0.4,0.4c-0.2,0.1-0.6,0.2-0.9,0.3
				l-0.1,0l0,0l0,0c-0.2,0.2-0.1,0-0.1,0.1l0,0l0,0l0,0l0,0l0,0c-0.1,0-0.1,0-0.2,0.1c-0.1,0.1-0.3,0.1-0.4,0.2
				c-0.1,0-0.2,0.1-0.2,0.1c-0.4,0.2-0.8,0.4-1.1,0.6c-0.3,0.2-0.6,0.4-0.7,0.5l-0.1,0.1l0,0l0,0l0,0c0,0-0.1,0.1,0.1-0.1l0,0l0,0
				l0,0l0,0l-0.1,0.1c-0.1,0.1,0,0,0,0l0,0l0,0l-0.1,0.1c-0.1,0.1-0.5,0.2-1,0.6c-0.3,0.2-0.6,0.4-0.9,0.7c-0.1,0.1-0.3,0.3-0.4,0.4
				c-0.1,0.1-0.1,0.1-0.2,0.2l-0.1,0.1l0,0.1l0,0l-0.1,0l0,0l0,0l0,0l0,0l0,0c0,0.1-0.1,0.2-0.1,0.3c0,0.1-0.1,0.2-0.2,0.3
				c-0.1,0.1-0.1,0.2-0.1,0.2c0,0.1,0,0.1,0,0.2c0,0.2,0.1,0.4,0.2,0.5c0.2,0.3,0.6,0.5,0.4,1.1c-0.3,1-1,1.6-1.6,1.7
				c-0.5,0.1-0.9-0.1-1.3-0.6l-0.1,0.1c-0.1,0.1-0.3,0.2-0.5,0.3c-0.3,0.2-0.7,0.4-0.7,0.5c-0.3,0.5,0.5,0.4-0.3,1.1
				c-0.6,0.4-1.3,0.7-1.9,1.1c-1.3,0.8-3.1,1.5-4.2,2.4c-1,0.7-1.7,1.6-2.8,2.2c-0.7,0.4-4.2,1.6-4.4,2.4c0.4,0.1,2.7-0.9,4.3-1.7
				c1.7-0.7,2.7-1.1,0.6,0.6c-0.8,0.6-1.9,1.1-2.7,1.6c-0.6,0.4-1.2,0.6-1.8,0.9c-0.4-0.1-0.5-0.3-0.5-0.6c0.1,0-0.7-0.1-1.2,0
				c-0.5,0.1-1.8,0.7-1.9,1.3c0.5-0.3,2.2-1.2,2.5,0.1c0.2,0.7-1.9,1.7-2.4,2.1c-1.2,1-2.3,1.8-3.5,2.6c-1.2,0.9-2.4,1.8-3.6,2.6
				c-0.2,0.2-0.3,0.4-0.3,0.4c-0.2,0.2-0.5,0.4-0.9,0.6c-0.2,0.1-0.3,0.2-0.5,0.3c-0.2,0.1-0.3,0.2-0.5,0.3c-0.5,0.4-1,0.8-1.5,1.1
				c-3.1,2.2-6.5,4-9.7,5.8c-0.5,0.3-1,0.6-1.5,0.9l0-0.1c-1.3,0.7-2.6,1.4-4,2.1c-0.9,0.4-1.8,0.8-2.6,1.3l-0.6,0.3L50,66
				c-0.4,0.2-0.8,0.5-1.2,0.7c-0.8,0.5-1.6,0.9-2.4,1.4c-0.8,0.5-1.6,0.9-2.5,1.4c-0.5,0.3-2.1,1.2-2.8,0.6c-1-0.8-0.1-1.1,0.4-1.5
				c0.3-0.2,1.5-0.8,2.6-1.4c1.1-0.7,2-1.4,1.9-2c-0.2-0.2-1.3,0.4-2.5,1.1c-1.2,0.7-2.4,1.6-2.8,1.8c-2.3,1.2-4.5,2.8-6.8,4
				c-2.5,1.3-5.1,2.6-7.7,3.6c-0.8,0.3-7.7,4.1-8.1,3.4c-0.1-0.3,6.2-3.9,6.3-4.5c-1.9-2.5-3.2-0.7-4.8,0.1
				c-1.8,0.9-3.7,1.5-5.5,2.4c-1.7,0.8-3.4,1.7-5,2.5c-1,0.5-1.7,0.9-2.7,1.2c-0.4,0.1-0.9,0.3-1.3,0.5c-0.5,0.2-1.4,0.9-2,0.9
				c-1-0.1-1.8-0.8-1.2-1.9c0.2-0.4,1.1-0.9,1.5-1.2c0.5-0.4,0.8-0.8,1.3-1.3c0.6-0.6,1.7-1.2,2.4-1.7c0.7-0.5,1.4-0.6,2.1-1
				c0.3-0.2,0.4-0.7,0.7-0.9c0.2-0.1,0.8-0.1,1.1-0.2c0.4-0.2,4-2.9,3.7-3.2c-0.1-0.1-1.4,0-1.6,0c-0.5,0-0.6-0.2-1.2,0.1
				c-1.3,0.7-2.3,1.5-3.7,2.2c-0.9,0.5-1.7,1.1-2.5,1.4c-0.2,0.1-0.5,0.1-0.7,0.2c-0.3,0.1-0.4,0.5-0.7,0.6c-0.4,0.2-1.2,0-1.4,0.8
				c0.2-0.1,1.9-0.6,1.9-0.7c-0.1-0.1-0.2-0.2-0.2-0.3c0.1-0.3,1.8,0.1,0.8,1c-0.2,0.2-1,0.2-1.2,0.3c-0.5,0.2-0.9,0.5-1.4,0.7
				c-0.5,0.2-1,0.4-1.5,0.5C1,77.7,0.7,78,0.4,78c-0.1,0-0.3-0.4-0.5-0.4c-1.3,0.2-2.5,1.2-3.6,1.9c-1.9,1.1-3.9,1.5-5.7,2.7
				c-0.7,0.4-0.8,0.7-1.5,1c-0.1,0.1-1.6,0.5-1.8,0.4C-13.6,83.1-10.5,80.6-10.2,80.4z M70.8,51.2c-0.1,0.1-0.1,0.2-0.1,0.2
				c0,0,0.1,0.1,0.2,0.1c0.8-0.6,1.9-1,2.4-1.9C72.9,49.4,71.6,50.4,70.8,51.2z M28.8,72.4c0.6-0.2,1.1-0.7,1.7-1
				c0.5-0.2,1.1-0.4,1.6-0.7c1.4-0.7,3.4-1.4,4.4-2.6l0.1-0.1l0,0c-0.5-0.2-3.7,1.9-4.1,2.1c-1.5,0.9-3.2,1.3-4.5,2.4
				C27.7,72.7,28.8,72.4,28.8,72.4z M27.3,73.2c-0.3-0.5-1.1,0.3-1.3,0.7L25.9,74C26.3,73.7,26.9,73.7,27.3,73.2z"/>
			<path class="st6" d="M25.9,74L25.9,74C26,73.7,26.2,73.7,25.9,74z"/>
			<path class="st6" d="M6.3,89c1.2-1.2,2.5-2.1,3.8-3.1c1.1-0.8,1.7-1.7,2.9-2.2c0.9-0.4,3.6-1.1,3.8-2.3c0.7,0.4,1.9-0.8,2.5-1.1
				c0.9-0.5,1.9-0.9,2.8-1.3c1.3-0.7,2.6-1.5,3.9-2.1c3.6-1.7,7.1-3.5,10.6-5.1c0.6-0.3,3.1-1.9,3.1-0.4c0,0.4-2.3,1.3-2.7,1.8
				c-1.5,1.5-3.6,2.9-5.4,3.9c-0.1,0.1-0.3-0.3-0.5-0.2c-0.1,0.1,0,0.3,0,0.3c0,0-0.1,0.1-0.2,0.3c-0.1,0.2-0.3,0.3-0.5,0.4
				c-0.8,0.3-1.3,0.4-2.1,0.9c-0.5,0.4-1,0.7-1.5,1c-1.3,0.7-2.6,1.1-4,1.6c-1.2,0.5-1.9,1.4-2.9,2.1c-1.8,1.2-3.9,1.7-5.8,2.7
				c-1,0.5-1.9,1.3-2.9,1.7c-0.9,0.4-2,0.9-2.9,1.3c-0.2,0.1-2.1,1-2.3,0.9C5.1,89.7,6,89.2,6.3,89z"/>
			<path class="st6" d="M57,63.6c0.3,0,0.6-0.1,0.9-0.2c0.4-0.2,0.9-0.3,1.3-0.6c0.4-0.3,0.9-0.6,1.4-0.8c0.3-0.1,0.6-0.4,1-0.5
				c0.3,0,0.7,0.2,0.8,0.5c0.1,0.1,0.1,0.3,0,0.4c-0.2,0.4-0.5,0.7-0.8,0.9c-0.1,0.1-0.2,0.1-0.3,0.2c-0.8,0.4-1.5,0.8-2.3,1
				c-0.1,0-0.3,0.1-0.4,0.2c-0.3,0.2-0.6,0.2-0.9,0c-0.2-0.1-0.4,0-0.5-0.1c-0.1-0.2-0.1-0.4-0.2-0.6C56.7,63.7,56.8,63.6,57,63.6z"
				/>
			<path class="st6" d="M67.3,29.5c-0.2-0.3,0.5-0.2,0.3-0.5c-0.4-0.5-2.8,1.2-5.3,3.1c-0.6,0.5-1.2,1-1.8,1.4
				c-0.6,0.5-1.1,0.9-1.6,1.3c-0.2,0.2-0.4,0.4-0.6,0.5c-0.2,0.2-0.4,0.3-0.5,0.4c-0.3,0.2-0.5,0.4-0.6,0.5
				c-2.8,1.8-5.6,2.9-8.2,5.2c-0.6,0.5-1.7,2.5-2.5,2.1c-1.8-0.8,0.6-3.4-0.1-3.7c0.5,0.5,2.5-1.5,2.8-1.7c2.2-1.7,4.6-3.1,7-4.4
				c0.6-0.3,1.2-0.6,1.7-1c0.3-0.2,0.6-0.3,0.9-0.5c0.3-0.2,0.6-0.3,0.9-0.5c1.2-0.7,2.4-1.4,3.6-2.1c3.1-2,6.1-4.2,9.1-6
				c1.1-0.6,2.8-1.5,4.3-1.1c0,0.9-2.3,2.7-4.5,4.3C69.7,28.4,67.4,29.7,67.3,29.5z"/>
			<path class="st6" d="M63.7,31.8c0,0.2,0,0.2,0,0.3c0,0.1-0.1,0.2-0.2,0.2c-0.1,0-0.2,0-0.2-0.1c0-0.1,0-0.2,0.1-0.2
				C63.5,31.9,63.6,31.8,63.7,31.8z"/>
			<path class="st7" d="M94.1,77.7c-0.1,0.2-0.3,0.4-0.6,0.6c-0.3,0.2-0.7,0.4-1.1,0.6c-0.2,0.1-0.4,0.2-0.7,0.3
				c-0.1,0-0.1,0.1-0.2,0.1l-0.2,0.1c-0.1,0.1-0.2,0.1-0.4,0.2c-0.5,0.2-1,0.4-1.6,0.6c-2.1,0.7-4.1,1.3-4,1c0,0,0.5-0.4,1.2-0.9
				c0.7-0.5,1.7-1.1,2.7-1.8c2-1.3,4.1-2.6,4.4-2.8c2.3-1.5,2.7-2,4.5-3.7c0.7-0.6,1.3-1,2.3-1.7c0.5-0.3,1.2-0.4,1.6-0.7
				c0.3-0.2,0.4-1.2,0.8-1.5c0.8-0.7,2.3-1.4,3-2c0.4-0.4,0.8-0.7,1.2-1.2c0.4-0.6,0.8-2.1,1.1-2.3c0,0,0.3,0.9,1.1,0.6
				c0.5-0.3,0.8-0.6,1.6-1.1c0.2-0.1,0.3-0.2,0.5-0.3c0.2-0.1,0.3-0.2,0.5-0.4c0.4-0.2,0.7-0.5,1.1-0.8c0.7-0.6,1.5-1.2,2-1.8
				c0.8-1,0.1-1.2,1.4-2.4c0.6-0.6,2.8-1.5,3.6-2c0.6-0.3,2.1-1.5,3.3-2.6c1.2-1.1,2.2-2.1,1.8-2.1c-0.7,0.1-2.2,0.8-3.9,1.6
				c-1.6,0.8-3.3,1.6-4.2,2.1c-0.3,0.1-2.8,1.1-5.3,2c-2.4,1-4.8,2-4.8,2.3c-0.1-0.5,0.6-0.3,0.7-0.7c0-0.3-2.9,1.5-3.1,1.5
				c-0.7,0.4-0.6,0-1.1,0.2c-0.5,0.2-0.6,0.8-0.9,1c-0.2,0.1-0.5-0.6-0.9-0.2c-0.6,0.6,0.1,0.8,0.1,1.1c-0.9,0.8-0.4-0.8-1.2-0.2
				c-1,0.6-1.8,1.6-3,2.2c-0.6,0.3-1,0.1-1.7,0.5c-0.9,0.5-1.6,1.5-2.3,1.8c-0.9,0.5-1.5,0.7-2.2,1c-0.7,0.3-1.4,0.6-2.4,1.3
				c-2.5,1.6-6.3,4.1-8.7,4.8c0-0.7,3.3-2.7,6.7-4.6c0.9-0.5,1.7-1,2.6-1.4c0.8-0.4,1.6-0.9,2.4-1.2c1.4-0.8,2.5-1.4,2.9-1.6
				c0.5-0.3,3.3-1.9,5.8-3.6c2.6-1.7,5-3.3,4.6-3.5c-0.2-0.1-2.5,1.1-4.7,2.1c-2.2,1.1-4.3,2-4.3,1.6c0.1-0.4,4.6-2.8,8.8-5.4
				c2.1-1.3,4.1-2.7,5.4-3.8c1.3-1.1,2-2,1.3-2.5c-0.1,0-0.3,0-0.6,0.2c-0.3,0.2-0.7,0.4-1.1,0.6c-0.4,0.2-0.8,0.5-1.1,0.7
				c-0.3,0.2-0.6,0.4-0.7,0.4c-0.7,0.3-0.6-0.4-1.4-0.1c-1.7,0.6-3.7,2.2-5.4,3.2c-3.5,2-7,4.2-10.5,6.2c-1,0.6-2,1.1-3,1.7
				c-1,0.6-2.1,1.1-3.1,1.7c-2.1,1.2-4.1,2.3-6.2,3.5c-2,1.2-4.1,2.4-6.1,3.5l-3.1,1.8l-1.5,0.9l-1.5,0.9c-4,2.3-8.1,4.5-12.3,6.8
				c-1,0.6-2.1,1.2-3.1,1.8c-1,0.6-2,1.2-3.1,1.8c-2,1.2-4.1,2.4-6.1,3.6c-2.7,1.6-5.6,3.6-8.3,5.9c-0.7,0.6-1.4,1.2-2,1.8
				c-0.3,0.3-0.6,0.6-0.9,0.9c-0.3,0.3-0.7,0.7-1,1c-1.3,1.4-2.4,2.8-3.3,4.1c-0.2,0.4-0.5,0.7-0.7,1.1c-0.1,0.2-0.2,0.4-0.3,0.6
				c-0.1,0.1-0.1,0.2-0.1,0.3l0,0h0l0,0l0,0l0,0.1l-0.1,0.1c0,0.1-0.1,0.1-0.1,0.2c-0.4,0.5-0.6,1-0.8,1.5c-0.2,0.5-0.3,0.9-0.4,1.3
				c-0.2,0.8-0.2,1.5-0.2,2.2c0,0.4,0,0.7,0,1c0,0.2,0,0.3,0,0.5c0,0.1,0,0.2,0,0.3c0,0.1,0,0.2,0,0.3c-0.1,0.7,0,1.5,0,2.2
				c0,0.3,0.1,0.7,0.2,1c0,0.2,0.1,0.3,0.1,0.5c0.1,0.2,0.1,0.3,0.2,0.4c0,0.1,0.1,0.1,0.2,0.2l0.1,0.2c0.1,0.1,0.2,0.2,0.3,0.3
				c0.1,0.1,0.3,0.2,0.4,0.3c0.1,0.1,0.3,0.2,0.4,0.2c0.3,0.1,0.6,0.2,0.9,0.3c0.3,0.1,0.6,0.2,0.8,0.3c0.2,0.1,0.3,0.2,0.4,0.4
				l0,0.1l0,0l0,0l0,0l0,0l0-0.2l-0.1-0.3l0-0.1l0,0c0.3,1.4,0.1,0.4,0.1,0.7l0,0l0.1,0c0.1,0,0.2,0,0.3,0.1c0.5,0,1,0,1.5-0.1
				c1-0.1,2-0.5,3-0.9c0.2-0.1,0.5-0.2,0.7-0.3c0.1-0.1,0.2-0.1,0.4-0.2c0.1-0.1,0.3-0.1,0.4-0.2c0.3-0.2,0.6-0.3,0.8-0.5
				c0.3-0.2,0.6-0.3,0.8-0.5c1.1-0.7,2.3-1.5,3.4-2.4c4.6-3.5,9.4-7.9,13.3-9.8c0.8-0.4,1.3-0.5,1.9-0.6c0.3,0,0.5-0.1,0.8-0.1l0,0
				l0,0l0,0l0,0h0l0,0l0,0l0.1,0l0.1,0c0.1,0,0.2,0,0.2-0.1c0.2,0,0.3-0.1,0.5-0.1c1.8-0.5,4.3-2.5,6.2-3.6c1.9-1.2,3.9-2.4,5.9-3.7
				c1-0.7,2-1.3,3-1.9c1-0.6,2-1.3,2.9-1.9c3.6-2.2,6.4-3.2,9.6-5.1c1.6-0.9,3.1-1.8,4.7-2.6c1.6-0.9,3.2-1.7,4.7-2.5
				c0.9-0.5,3-1.5,4.9-2.6c1.9-1.1,3.7-2.3,4-3.1c0.3-0.8-1.5,0.3-3.5,1.6C96.6,76.6,94.4,77.9,94.1,77.7C94,78,94.4,77.9,94.1,77.7
				z M71.3,67c0.8-0.4,5.2-3.3,9.6-5.8c2.2-1.3,4.3-2.4,5.9-3.2c0.8-0.4,1.4-0.7,1.9-0.8l0,0l0,0l0,0l0,0l0,0l0,0l0.1,0l0.1,0
				c0.1,0,0.2,0,0.2,0c0.1,0,0.2,0.1,0.2,0.2c0,0-0.1,0.1-0.3,0.3c-0.1,0.1-0.2,0.2-0.3,0.3c-0.1,0.1-0.3,0.2-0.4,0.3
				c-0.6,0.5-1.4,1.1-2.2,1.7c-1.7,1.2-3.4,2.5-3.8,2.8c-2.2,1.4-4.4,2.6-6.7,3.9c-2.2,1.3-4.5,2.5-6.8,4c-0.1,0.1-0.3,0.2-0.5,0.3
				c-0.2,0.1-0.3,0.2-0.5,0.2c-0.3,0.2-0.6,0.3-0.9,0.4c-0.6,0.3-1.3,0.5-1.8,0.8c0,0-0.3,0.1-0.7,0.3c-0.4,0.2-1,0.4-1.6,0.6
				c-1.1,0.4-2.2,0.7-1.7,0.2c1.3-1.2,3.1-2.4,4.9-3.5c0.5-0.3,0.9-0.5,1.4-0.8c0.5-0.3,0.9-0.5,1.4-0.8
				C69.7,67.9,70.5,67.4,71.3,67C71.6,66.9,69.9,67.8,71.3,67z M112.5,47.5c0.1-0.1,0.2-0.1,0.2,0c0,0.2-0.1,0.3-0.3,0.4
				c-0.1,0.1-0.2,0.1-0.3,0C112.2,47.7,112.3,47.6,112.5,47.5z"/>
			<path class="st8" d="M42,28.3L42,28.3L42,28.3C42.1,28.2,42.1,28.3,42,28.3z"/>
			<path class="st8" d="M94.1,9c-5,4.2-10,8.4-15.1,11.9c-5.4,3.6-11.1,6.4-16.1,10.7c-1.6,1.4-1.3,1.5,0.3,0.4c1-0.7,2.1-1.2,3-1.8
				c0.9-0.6,6.1-4.4,6.4-3.6c0.1,0.4-2.3,2.3-4.9,4.1c-1.3,0.9-2.6,1.8-3.7,2.5c-1.1,0.7-1.9,1.3-2.2,1.4c-3.9,2.5-7.8,5.2-11.8,7.7
				c-4.1,2.6-8.1,5.3-12.2,7.8c-0.5,0.3-1.8,1.2-2.1,0.5c-0.3-0.8,1.7-2,2.2-2.3c0.3-0.2,1.5-0.9,2.7-1.6c1.2-0.7,2.2-1.5,2.1-1.9
				c-1.5,0.3-3.3,1.7-4.8,2.6c-1.4,0.8-2.7,1.8-4.1,2.6c-2.2,1.3-4.7,2.6-6.7,4.2c-1.2,1.1-3,1.1-4.2,2.2c-0.7,0.6-1.3,1.3-2.1,1.8
				c-1,0.6-1.9,1.1-2.9,1.7c-1.1,0.7-2.2,1.4-3.3,2c-0.6,0.3-1.1,0.7-1.7,1l-1.7,1c-2.2,1.4-4.4,2.8-6.5,4.4c-1.3,1-2.5,1.4-3.8,1.4
				c-3.8,1.8-7.5,3.2-10.5,4.1c-2.9,0.9-5,1.4-5.5,1.5c-0.4,0.1-1.7,0.6-3.3,1.3c-1.6,0.7-3.6,1.5-5.5,2.1c-1.9,0.7-3.7,1.2-5.1,1.4
				c-1.3,0.2-2.2,0.1-2.2-0.6c0-1.1,0.9-2.2,1.9-3.1c1.1-0.9,2.3-1.6,2.9-2.1c1.3-1,2.9-1.9,4.4-2.6c1.2-0.6,2.9-0.6,3.9-1.2
				c1-0.5,1.8-1.5,2.9-2c1-0.5,3.7-1.4,4.3-2.6c-0.2,0.1-1.7,0.6-3.1,1.1c-1.5,0.5-2.9,0.9-2.8,0.7c0.2-0.1,0.4-0.3,0.6-0.4
				c-0.6-0.5-0.8,0.5-1.4,0.5c-0.6,0-1.6-0.1-2.1,0c-0.3,0.1-1.6,0.7-2.7,1.2c-1.1,0.4-2,0.7-1.6,0c0.5-0.9,2-1.7,3.5-2.4
				c1.5-0.7,3.2-1.3,4-1.7c1.7-0.8,3.9-2.3,4.7-0.9c0.4-0.2,2.4-1.7,1.9-2.5c-0.5-0.8-1.9,0.1-2.8,0.3c-1,0.3-2.3,0.6-3,0.8
				c-2.8,0.8-5.6,3.1-8.4,4c-2.4,0.8-4.9,1-6.8,1.6c-0.3,0.1-1.9,0.8-3.4,1.4c-1.5,0.6-3,1.1-2.9,0.6c0-0.2,0.6-0.3,0.6-0.4
				c0-0.3-0.5,0.1-1,0.5c-0.5,0.4-0.9,0.9-0.8,1c-0.1-0.1-0.2-0.5-0.4-0.7c-0.1-0.1-0.2-0.2-0.3-0.1c-0.1,0-0.1,0.1-0.2,0.2
				l-0.1,0.2l-0.1,0.1l0,0l0,0l0,0l0,0l0,0l0,0l0,0l0,0.1c-0.1,0.9-0.4,1.3-1,1.6c-0.5,0.3-1.3,0.4-2.1,0.8c0,0-0.1,0-0.2,0.1
				c-0.1,0.1-0.3,0.1-0.5,0.2c-0.4,0.2-0.8,0.4-1.3,0.5c-0.1,0-0.2,0-0.3,0c-0.1,0-0.2,0-0.2,0c-0.1,0-0.2,0-0.2,0
				c-0.1,0-0.2,0-0.2-0.1c-0.1-0.1-0.2-0.2-0.2-0.4c0-0.1,0-0.2,0.1-0.3c0-0.1,0-0.1,0.1-0.2c0-0.1,0.1-0.2,0.1-0.2
				c0-0.1,0.1-0.2,0.2-0.3c0.1-0.1,0.2-0.2,0.3-0.2c0.2-0.1,0.5-0.2,0.8-0.2c0.6-0.1,1.2-0.1,1.5-0.2c0.4-0.2,1.1-0.7,1.7-1.2
				c0.7-0.5,1.4-1,1.8-1.2c0.8-0.4,2.7-0.6,3.4-1.4c1.4-1.5-0.1-1.5,0.5-2.7c0.9-1.8,3.2-2.1,3.6-1c0.4-0.3,1.9-0.7,2-0.8
				c0.5-0.5-0.3-0.6,0.7-1.1c0.1,0,0.2-0.1,0.3-0.1l0.1-0.1l0,0l0,0h0l0,0l0,0l0,0l0,0l0,0l0.1,0c0.2-0.1,0.4-0.1,0.6-0.2
				c0.4-0.1,0.8-0.2,1.1-0.3c0.2-0.1,0.4-0.1,0.6-0.2c0.2-0.1,0.4-0.1,0.6-0.2c0.4-0.1,0.9-0.3,1.3-0.4c0.9-0.3,1.7-0.6,2.5-0.9
				c1.2-0.6,2.2-1.5,3.5-2c0.8-0.3,4.8-1.3,5.2-2.1c-0.4-0.2-3,0.8-4.9,1.3c-1.9,0.6-3,0.8-0.4-0.7c1-0.6,2.2-1,3.3-1.4
				c0.7-0.3,1.4-0.6,2.1-0.8c0.4,0.1,0.5,0.3,0.4,0.7c-0.1,0,0.8,0.1,1.2,0.1c0.6-0.1,2.1-0.6,2.3-1.2c-0.7,0.4-2.6,1.2-2.6-0.3
				c0-0.8,2.5-1.6,3-2c1.5-1,2.9-1.8,4.4-2.7c1.5-0.9,3-1.8,4.5-2.7c0.2-0.2,0.4-0.4,0.5-0.4c0.6-0.5,1.5-0.9,2.2-1.3
				c0.6-0.4,1.2-0.8,1.8-1.1c0.9-0.6,1.8-1.1,2.8-1.6c0.5-0.3,0.9-0.5,1.4-0.8c0.5-0.3,1-0.5,1.4-0.8c1.9-1,3.7-2,5.6-3
				c0.6-0.3,1.2-0.6,1.7-1l0,0.1c1.5-0.9,3-1.7,4.6-2.5c4.1-2,8-4.6,12-6.8c0.7-0.4,2.5-1.5,3.1-0.9c0.9,0.8-0.1,1.2-0.8,1.7
				c-0.8,0.5-5.6,2.8-5.6,4.1c0.4,0.5,5.3-3,6.2-3.6c2.7-1.5,5.4-3.4,8-4.9c2.8-1.6,5.8-3.3,8.7-4.8c0.4-0.2,2.7-1.6,4.9-2.9
				c2.2-1.3,4.3-2.4,4.4-2c0.1,0.3-7.3,5.2-7.5,6c1.7,2.5,3.4,0.3,5.2-0.8c2.1-1.3,4.3-2.2,6.3-3.4c1.9-1.1,4-2.3,5.8-3.5
				c1.1-0.7,2-1.3,3.1-1.7c0.5-0.2,1-0.4,1.4-0.7c0.6-0.3,1.7-1.2,2.3-1.2c1,0,1.8,0.6,1,1.9c-0.2,0.4-1.3,1.1-1.8,1.5
				c-0.6,0.5-1,1-1.6,1.6c-0.8,0.8-2,1.5-2.8,2.2c-0.8,0.6-1.6,0.8-2.4,1.4c-0.3,0.2-0.6,0.8-0.9,1c-0.3,0.2-0.9,0.2-1.2,0.4
				c-0.5,0.3-4.8,3.7-4.4,4c0.1,0.1,1.6-0.2,1.7-0.2c0.5,0,0.6,0.2,1.3-0.2c1.5-0.9,2.7-1.9,4.3-3c1-0.7,2-1.4,2.9-1.9
				c0.2-0.1,0.6-0.2,0.8-0.3c0.4-0.2,0.6-0.6,0.8-0.8c0.5-0.3,1.2-0.2,1.6-1.1c-0.2,0.1-2.1,0.9-2.1,1c0.1,0.1,0.1,0.2,0.2,0.3
				c-0.2,0.3-2,0.2-0.7-1c0.3-0.2,1.1-0.3,1.4-0.5c0.5-0.3,1.1-0.7,1.7-0.9c0.5-0.2,1.1-0.6,1.7-0.8c0.3-0.1,0.7-0.4,1-0.5
				c0.1,0,0.3,0.4,0.4,0.4c1.4-0.4,2.9-1.7,4.1-2.5c2.2-1.4,4.4-2.1,6.5-3.7c0.8-0.6,0.9-0.9,1.8-1.3C95.3,5.7,97,5,97.1,5.1
				C98.2,5.5,94.5,8.7,94.1,9z M2.1,48.2C2.2,48.1,2.3,48,2.3,48c0,0-0.1-0.1-0.2-0.1c-1,0.6-2.3,1-3.1,1.9
				C-0.7,50.1,1,49.1,2.1,48.2z M51,22.8c-0.7,0.3-1.3,0.9-1.9,1.2c-0.6,0.3-1.2,0.6-1.8,1c-1.6,0.9-3.9,1.8-5.2,3.3L42,28.3l0,0
				c0.2,0.1,1.3-0.5,2.4-1.1c1.1-0.7,2.1-1.4,2.4-1.5c1.8-1.1,3.6-1.7,5.2-3.1C52.1,22.3,50.9,22.8,51,22.8z M52.7,21.8
				c0.2,0.5,1.2-0.4,1.5-0.9l0.1-0.1C53.8,21.2,53.1,21.2,52.7,21.8z"/>
			<path class="st8" d="M19,34.8c-0.3,0-0.7,0.2-1,0.3c-0.5,0.2-1,0.4-1.4,0.7c-0.5,0.4-1,0.6-1.6,0.9c-0.4,0.2-0.7,0.4-1.2,0.5
				c-0.3,0.1-0.7-0.2-0.8-0.5c0-0.2,0-0.3,0.1-0.5c0.3-0.4,0.6-0.7,1-0.9c0.1-0.1,0.3-0.1,0.4-0.2c0.9-0.4,1.7-0.9,2.6-1.2
				c0.1-0.1,0.3-0.1,0.4-0.2c0.3-0.2,0.7-0.2,0.9,0c0.2,0.1,0.4,0,0.5,0.1c0.1,0.2,0,0.5,0.1,0.7C19.3,34.6,19.2,34.7,19,34.8z"/>
			<path class="st8" d="M0.3,71.9c0.1,0.4-0.6,0.2-0.5,0.6c0.2,0.6,3.4-1.2,6.6-3.2c3.2-2,6.4-4.3,6.9-4.6c1.8-1,3.5-1.9,5.3-2.8
				c1.8-1,3.5-2,5.1-3.4c0.8-0.7,2.4-2.9,3.2-2.5c1.9,0.8-1.4,3.8-0.6,4c-0.4-0.5-3.2,1.9-3.5,2.1c-1.4,1-3,2-4.5,2.8
				c-0.7,0.4-1.5,0.8-2.2,1.2l-1.1,0.6l-1.1,0.6c-3,1.5-6,2.9-8.9,4.4c-3.9,2.1-7.8,4.4-11.8,6.3c-1.4,0.7-3.7,1.5-5.1,0.9
				c0.4-1,3.4-2.8,6.4-4.4C-2.7,73.1,0.2,71.8,0.3,71.9z"/>
		</g>
		<g class="st0">
			<path class="st1" d="M13.8,16.1H8.3l-1,2.6H5.3l4.2-12h3.2l4.2,12h-2.1L13.8,16.1z M9,14.1h4.1l-2-5.6L9,14.1z"/>
			<path class="st1" d="M18.3,6.6h2.1v12h-2.1V6.6z"/>
			<path class="st1" d="M30.5,13.7l2.2,4.9h-2.2L28.4,14h-3.4v4.6h-2.1v-12h5.8c2.6,0,4.1,1.3,4.1,3.5v0.5
				C32.7,12.1,31.9,13.3,30.5,13.7z M30.6,10c0-1-0.6-1.5-1.8-1.5h-3.8v3.5h3.8c1.2,0,1.8-0.5,1.8-1.5V10z"/>
			<path class="st1" d="M41.2,8.6v3.6h6.1v1.9h-6.1v4.5h-2.1v-12h8.8v1.9H41.2z"/>
			<path class="st1" d="M49.3,14.7v-4.1c0-2.6,1.9-4.2,5.4-4.2s5.5,1.6,5.5,4.2v4.1c0,2.6-1.9,4.2-5.4,4.2
				C51.2,18.9,49.3,17.3,49.3,14.7z M58.1,14.5v-3.7c0-1.5-1-2.5-3.3-2.5c-2.4,0-3.4,0.9-3.4,2.5v3.7c0,1.5,1,2.4,3.3,2.4
				C57.2,17,58.1,16.1,58.1,14.5z"/>
			<path class="st1" d="M70.1,13.7l2.2,4.9h-2.2L67.9,14h-3.4v4.6h-2.1v-12h5.8c2.6,0,4.1,1.3,4.1,3.5v0.5
				C72.2,12.1,71.5,13.3,70.1,13.7z M70.2,10c0-1-0.6-1.5-1.8-1.5h-3.8v3.5h3.8c1.2,0,1.8-0.5,1.8-1.5V10z"/>
			<path class="st1" d="M73.9,14.7v-4.2c0-2.6,1.9-4.2,5.4-4.2c3.5,0,5.4,1.6,5.4,4.2v0.6h-2.2v-0.4c0-1.5-1-2.4-3.1-2.4
				C77,8.3,76,9.2,76,10.8v3.8c0,1.5,1,2.4,3.3,2.4c2.2,0,3.1-0.9,3.1-2.4v-0.4h2.2v0.6c0,2.6-1.9,4.2-5.4,4.2S73.9,17.3,73.9,14.7z
				"/>
			<path class="st1" d="M88.9,8.6v3.2h5.9v1.9h-5.9v3h6.7v1.9h-8.8v-12h8.8v1.9H88.9z"/>
		</g>
	</g>
	<path class="st9" d="M93.8,130H8c-4.1,0-7.5-3.3-7.5-7.5V8c0-4.1,3.3-7.5,7.5-7.5h85.8c4.1,0,7.5,3.3,7.5,7.5v114.6
		C101.2,126.7,97.9,130,93.8,130z"/>
</g>
</svg>
