<?xml version="1.0" encoding="utf-8"?>
<!-- Generator: Adobe Illustrator 20.1.0, SVG Export Plug-In . SVG Version: 6.00 Build 0)  -->
<svg version="1.1" id="Layer_1" xmlns="http://www.w3.org/2000/svg" xmlns:xlink="http://www.w3.org/1999/xlink" x="0px" y="0px"
	 viewBox="0 0 224.4 211.2" style="enable-background:new 0 0 224.4 211.2;" xml:space="preserve">
<style type="text/css">
	.st0{fill-rule:evenodd;clip-rule:evenodd;fill:#0052A0;}
	.st1{fill-rule:evenodd;clip-rule:evenodd;fill:#A1AFD5;}
	.st2{fill-rule:evenodd;clip-rule:evenodd;fill:#E31837;}
	.st3{fill-rule:evenodd;clip-rule:evenodd;fill:#E31837;stroke:#FFFFFF;stroke-width:0.216;stroke-miterlimit:2.6131;}
	.st4{fill-rule:evenodd;clip-rule:evenodd;fill:#B0B7BB;}
	.st5{fill:#B0B7BB;}
</style>
<path class="st0" d="M88.1,24.9h35.5L101.9,56H65.4L88.1,24.9L88.1,24.9z M35.5,24.9L57.8,56H22.5L0,24.9H35.5L35.5,24.9z
	 M32.9,71.3h58.3L77.3,93.6v54.8H46.2V93.6L32.9,71.3L32.9,71.3z"/>
<path class="st0" d="M185.2,25c10.1,0,18.8,3.9,26.1,11.6c7.3,7.7,11,16.8,11,27.1c0,10.4-3.7,19.5-11.1,27.1
	c-7.4,7.6-16.1,11.4-26,11.4h-25v46.4h-30.8V71.4h55.7c1.8,0,3.2-0.8,4.4-2.3c1.2-1.5,1.8-3.3,1.8-5.4c0-2.2-0.6-4.1-1.7-5.5
	c-1.1-1.5-2.6-2.2-4.5-2.2h-55.7V25H185.2L185.2,25z"/>
<polygon class="st1" points="6.4,157.3 221.2,157.3 221.2,165.7 6.4,165.7 6.4,157.3 "/>
<path class="st2" d="M31.7,175.1l-6.7,18h-4.4l2-5.1l-4.9-12.9h4.3l2.8,8.3l2.6-8.3H31.7L31.7,175.1z M46,181.7
	c0,2.2-0.6,3.9-1.8,5.1c-1.2,1.2-2.9,1.9-5,1.9c-2.2,0-3.8-0.6-5-1.9c-1.2-1.2-1.8-3-1.8-5.1c0-2.2,0.6-3.9,1.8-5.1
	c1.2-1.2,2.9-1.9,5-1.9c2.2,0,3.8,0.6,5,1.9C45.4,177.8,46,179.5,46,181.7L46,181.7z M41.7,181.7c0-0.8-0.1-1.4-0.2-2
	c-0.1-0.5-0.3-0.9-0.5-1.2c-0.2-0.3-0.5-0.6-0.8-0.7c-0.3-0.1-0.7-0.2-1-0.2c-0.4,0-0.7,0.1-1,0.2c-0.3,0.1-0.6,0.3-0.8,0.6
	c-0.2,0.3-0.4,0.7-0.6,1.3c-0.1,0.5-0.2,1.2-0.2,2c0,0.8,0.1,1.5,0.2,2c0.1,0.5,0.3,0.9,0.5,1.2c0.2,0.3,0.5,0.5,0.8,0.7
	c0.3,0.1,0.7,0.2,1.1,0.2c0.3,0,0.7-0.1,1-0.2c0.3-0.1,0.6-0.4,0.8-0.6c0.2-0.3,0.4-0.7,0.6-1.2C41.7,183.2,41.7,182.6,41.7,181.7
	L41.7,181.7z M60.4,188.3h-4.1v-1.5c-0.7,0.6-1.4,1-2,1.4c-0.6,0.3-1.3,0.5-2.1,0.5c-1.3,0-2.3-0.4-3.1-1.2
	c-0.7-0.8-1.1-2.1-1.1-3.7v-8.6h4.1v6.5c0,0.7,0,1.2,0.1,1.7c0,0.4,0.1,0.8,0.3,1.1c0.1,0.3,0.3,0.5,0.6,0.6
	c0.3,0.1,0.6,0.2,1.1,0.2c0.3,0,0.6-0.1,1-0.2c0.4-0.1,0.8-0.3,1.1-0.6v-9.3h4.1V188.3L60.4,188.3z M68.6,188.5
	c-1.7,0-2.9-0.3-3.7-1c-0.8-0.7-1.1-1.8-1.1-3.4V178h-1.6v-2.9h1.6v-3.8h4.1v3.8h4v2.9h-4v4.7c0,0.5,0,0.9,0,1.2
	c0,0.3,0.1,0.7,0.2,0.9c0.1,0.3,0.3,0.5,0.6,0.7c0.3,0.2,0.7,0.2,1.2,0.2c0.2,0,0.5,0,0.9-0.1c0.4-0.1,0.6-0.2,0.7-0.3h0.4v2.9
	c-0.4,0.1-0.9,0.2-1.4,0.3C70,188.5,69.4,188.5,68.6,188.5L68.6,188.5z M86,188.3h-4.1v-6.5c0-0.5,0-1.1-0.1-1.6
	c0-0.5-0.1-0.9-0.2-1.2c-0.1-0.3-0.3-0.5-0.6-0.6c-0.3-0.1-0.6-0.2-1.1-0.2c-0.3,0-0.7,0.1-1,0.2c-0.3,0.1-0.7,0.3-1.1,0.6v9.3h-4.1
	V170h4.1v6.5c0.7-0.6,1.3-1,2-1.3c0.6-0.3,1.3-0.5,2.1-0.5c1.4,0,2.4,0.4,3.1,1.3c0.7,0.8,1.1,2.1,1.1,3.7V188.3L86,188.3z
	 M109.1,181.5c0,2.1-0.5,3.8-1.6,5.1c-1.1,1.3-2.4,1.9-4,1.9c-0.7,0-1.2-0.1-1.7-0.2c-0.5-0.1-1-0.4-1.6-0.7v5.5h-4.1v-18h4.1v1.4
	c0.6-0.5,1.2-0.9,1.8-1.3c0.6-0.3,1.4-0.5,2.2-0.5c1.5,0,2.7,0.6,3.6,1.8C108.7,177.8,109.1,179.4,109.1,181.5L109.1,181.5z
	 M104.9,181.6c0-1.3-0.2-2.2-0.6-2.8c-0.4-0.6-1-0.9-1.9-0.9c-0.4,0-0.7,0.1-1.1,0.2c-0.4,0.1-0.7,0.3-1.1,0.5v6.6
	c0.2,0.1,0.5,0.2,0.7,0.2c0.3,0,0.6,0.1,0.9,0.1c1,0,1.7-0.3,2.2-1C104.6,183.9,104.9,182.9,104.9,181.6L104.9,181.6z M120.2,179
	h-0.3c-0.2-0.1-0.4-0.1-0.7-0.1c-0.3,0-0.6,0-1,0c-0.4,0-0.9,0.1-1.4,0.2c-0.5,0.1-0.9,0.3-1.4,0.4v8.8h-4.1v-13.2h4.1v1.9
	c0.2-0.2,0.5-0.4,0.8-0.6c0.3-0.3,0.6-0.5,0.9-0.6c0.3-0.2,0.6-0.3,1-0.5c0.4-0.1,0.8-0.2,1.1-0.2c0.1,0,0.3,0,0.5,0
	c0.2,0,0.3,0,0.4,0V179L120.2,179z M134.4,181.7c0,2.2-0.6,3.9-1.8,5.1c-1.2,1.2-2.9,1.9-5,1.9c-2.2,0-3.8-0.6-5-1.9
	c-1.2-1.2-1.8-3-1.8-5.1c0-2.2,0.6-3.9,1.8-5.1c1.2-1.2,2.9-1.9,5-1.9c2.2,0,3.8,0.6,5,1.9C133.8,177.8,134.4,179.5,134.4,181.7
	L134.4,181.7z M130.2,181.7c0-0.8-0.1-1.4-0.2-2c-0.1-0.5-0.3-0.9-0.5-1.2c-0.2-0.3-0.5-0.6-0.8-0.7c-0.3-0.1-0.7-0.2-1-0.2
	c-0.4,0-0.7,0.1-1,0.2c-0.3,0.1-0.6,0.3-0.8,0.6c-0.2,0.3-0.4,0.7-0.6,1.3c-0.1,0.5-0.2,1.2-0.2,2c0,0.8,0.1,1.5,0.2,2
	c0.1,0.5,0.3,0.9,0.5,1.2c0.2,0.3,0.5,0.5,0.8,0.7c0.3,0.1,0.7,0.2,1.1,0.2c0.3,0,0.7-0.1,1-0.2c0.3-0.1,0.6-0.4,0.8-0.6
	c0.2-0.3,0.4-0.7,0.6-1.2C130.1,183.2,130.2,182.6,130.2,181.7L130.2,181.7z M144.5,184.1v-6c-0.2-0.1-0.5-0.2-0.8-0.2
	c-0.3-0.1-0.6-0.1-0.9-0.1c-1,0-1.7,0.3-2.2,1c-0.5,0.6-0.7,1.5-0.7,2.7c0,0.6,0,1.1,0.1,1.4c0.1,0.4,0.2,0.7,0.4,1.1
	c0.2,0.3,0.5,0.5,0.8,0.7c0.3,0.2,0.7,0.2,1.2,0.2c0.4,0,0.7-0.1,1.1-0.2C143.9,184.5,144.2,184.4,144.5,184.1L144.5,184.1z
	 M148.7,186.8c0,1.2-0.2,2.3-0.5,3.1c-0.4,0.9-0.8,1.5-1.4,2c-0.6,0.5-1.3,0.8-2.2,1c-0.9,0.2-1.8,0.3-2.8,0.3
	c-0.9,0-1.7-0.1-2.5-0.2c-0.8-0.1-1.5-0.2-2.1-0.4v-3.3h0.5c0.2,0.1,0.4,0.2,0.7,0.3c0.3,0.1,0.6,0.2,0.8,0.3c0.3,0.1,0.7,0.2,1,0.2
	c0.3,0.1,0.7,0.1,1,0.1c0.7,0,1.3-0.1,1.7-0.2c0.5-0.1,0.8-0.3,1.1-0.6c0.2-0.3,0.4-0.6,0.5-1c0.1-0.4,0.1-0.8,0.1-1.4v-0.2
	c-0.5,0.4-1,0.7-1.6,1c-0.6,0.2-1.2,0.4-1.9,0.4c-1.7,0-3-0.6-4-1.7c-0.9-1.1-1.4-2.8-1.4-5.1c0-1,0.1-2,0.4-2.8
	c0.3-0.8,0.7-1.5,1.2-2.1c0.5-0.6,1.1-1,1.8-1.3c0.7-0.3,1.4-0.5,2.2-0.5c0.7,0,1.3,0.1,1.8,0.3c0.5,0.2,1,0.4,1.5,0.7l0.2-0.6h4
	V186.8L148.7,186.8z M160.7,179h-0.3c-0.2-0.1-0.4-0.1-0.7-0.1c-0.3,0-0.6,0-1,0c-0.4,0-0.9,0.1-1.4,0.2c-0.5,0.1-0.9,0.3-1.4,0.4
	v8.8h-4.1v-13.2h4.1v1.9c0.2-0.2,0.5-0.4,0.8-0.6c0.3-0.3,0.6-0.5,0.9-0.6c0.3-0.2,0.6-0.3,1-0.5c0.4-0.1,0.8-0.2,1.1-0.2
	c0.1,0,0.3,0,0.5,0c0.2,0,0.3,0,0.4,0V179L160.7,179z M169.6,184.8v-2.7c-0.7,0.1-1.3,0.1-1.7,0.2c-0.4,0.1-0.9,0.2-1.3,0.3
	c-0.4,0.1-0.6,0.3-0.8,0.6c-0.2,0.3-0.3,0.6-0.3,1c0,0.6,0.2,1,0.5,1.3c0.3,0.2,0.8,0.3,1.5,0.3c0.4,0,0.7-0.1,1.1-0.2
	C168.9,185.4,169.3,185.1,169.6,184.8L169.6,184.8z M169.6,186.9c-0.3,0.2-0.5,0.4-0.8,0.6c-0.2,0.2-0.5,0.4-0.9,0.6
	c-0.4,0.2-0.7,0.3-1.1,0.4c-0.3,0.1-0.8,0.1-1.5,0.1c-1.2,0-2.1-0.4-2.9-1.2c-0.8-0.8-1.2-1.8-1.2-3c0-1,0.2-1.8,0.6-2.4
	c0.4-0.6,1-1.1,1.7-1.4c0.7-0.4,1.6-0.6,2.7-0.8c1-0.1,2.2-0.2,3.3-0.3v-0.1c0-0.7-0.3-1.2-0.8-1.5c-0.5-0.3-1.3-0.4-2.4-0.4
	c-0.5,0-1.1,0.1-1.7,0.3c-0.7,0.2-1.3,0.4-1.9,0.7h-0.4v-3.2c0.4-0.1,1.1-0.3,2-0.4c0.9-0.2,1.8-0.2,2.8-0.2c2.3,0,3.9,0.4,5,1.1
	c1,0.8,1.6,1.9,1.6,3.5v9h-4.1V186.9L169.6,186.9z M192.5,188.3v-6.6c0-0.6,0-1.2,0-1.6c0-0.4-0.1-0.8-0.2-1.1
	c-0.1-0.3-0.3-0.5-0.5-0.6c-0.2-0.1-0.6-0.2-1-0.2c-0.3,0-0.6,0.1-0.9,0.2c-0.3,0.1-0.6,0.3-1,0.6v9.3h-4.1v-6.6c0-0.6,0-1.2,0-1.6
	c0-0.4-0.1-0.8-0.2-1.1c-0.1-0.3-0.3-0.5-0.6-0.6c-0.2-0.1-0.6-0.2-1-0.2c-0.3,0-0.7,0.1-1,0.2c-0.3,0.2-0.6,0.3-0.9,0.5v9.3h-4.1
	v-13.2h4.1v1.5c0.7-0.6,1.3-1,1.9-1.3c0.6-0.3,1.3-0.5,2-0.5c0.8,0,1.5,0.2,2.1,0.6c0.6,0.4,1.1,1,1.4,1.7c0.8-0.7,1.5-1.3,2.2-1.7
	c0.7-0.4,1.4-0.6,2.1-0.6c0.6,0,1.2,0.1,1.6,0.3s0.9,0.5,1.2,0.9c0.4,0.4,0.6,0.9,0.8,1.5c0.2,0.6,0.3,1.3,0.3,2.3v8.6H192.5
	L192.5,188.3z M203.7,188.6c-1,0-1.9-0.1-2.8-0.3c-0.9-0.2-1.6-0.5-2.2-0.7v-3.5h0.3c0.2,0.1,0.4,0.3,0.7,0.5c0.2,0.2,0.6,0.4,1,0.6
	c0.4,0.2,0.8,0.3,1.3,0.5c0.5,0.1,1,0.2,1.6,0.2c0.6,0,1.1-0.1,1.5-0.3c0.4-0.2,0.7-0.5,0.7-0.9c0-0.3-0.1-0.5-0.3-0.7
	c-0.2-0.2-0.6-0.3-1.2-0.4c-0.3-0.1-0.7-0.2-1.2-0.3c-0.5-0.1-0.9-0.2-1.3-0.3c-1-0.3-1.8-0.8-2.3-1.4c-0.5-0.6-0.8-1.5-0.8-2.5
	c0-0.6,0.1-1.1,0.4-1.7c0.3-0.5,0.7-1,1.2-1.4c0.5-0.4,1.2-0.7,2-0.9c0.8-0.2,1.6-0.4,2.6-0.4c0.9,0,1.8,0.1,2.6,0.3
	c0.8,0.2,1.4,0.4,2,0.7v3.3h-0.3c-0.1-0.1-0.4-0.3-0.7-0.4c-0.3-0.2-0.6-0.3-0.9-0.5c-0.3-0.2-0.7-0.3-1.2-0.4
	c-0.4-0.1-0.9-0.2-1.3-0.2c-0.6,0-1.1,0.1-1.5,0.3c-0.4,0.2-0.6,0.5-0.6,0.8c0,0.3,0.1,0.5,0.3,0.7c0.2,0.2,0.6,0.3,1.3,0.5
	c0.4,0.1,0.8,0.2,1.2,0.3c0.5,0.1,0.9,0.2,1.3,0.3c0.9,0.3,1.7,0.8,2.2,1.3c0.5,0.6,0.7,1.4,0.7,2.4c0,0.6-0.1,1.2-0.4,1.8
	c-0.3,0.6-0.7,1-1.2,1.4c-0.6,0.4-1.2,0.7-2,1C205.7,188.5,204.8,188.6,203.7,188.6L203.7,188.6z"/>
<path class="st3" d="M35,67.4c1.8,0.3,3.4,0.5,4.8,0.6c1.4,0.1,2.6,0.2,3.7,0.2c1.7,0,2.9-0.1,3.5-0.3c0.6-0.2,0.9-0.6,0.9-1.1
	c0-0.3-0.1-0.6-0.3-0.8c-0.2-0.2-0.6-0.2-1-0.2c-0.7,0-1.4,0-2.2,0c-0.2,0-0.4,0-0.4,0c-2.7,0-4.6-0.4-5.7-1.1
	c-1.1-0.7-1.6-2-1.6-3.8c0-1.4,0.3-2.7,0.8-4c0.5-1.3,1.2-2.4,2.1-3.3c0.8-0.8,2-1.4,3.6-1.8c1.5-0.4,3.7-0.5,6.6-0.5
	c1.8,0,3.7,0.1,5.7,0.2c2,0.2,4,0.4,6,0.7L59.7,59c-1.3-0.3-2.6-0.5-3.7-0.6c-1.2-0.1-2.2-0.2-3.2-0.2c-2.3,0-3.8,0.1-4.6,0.3
	c-0.8,0.2-1.2,0.6-1.2,1.2c0,0.3,0.1,0.6,0.4,0.7c0.2,0.1,0.9,0.2,1.9,0.2h3.5c2,0,3.5,0.3,4.4,1c0.9,0.7,1.4,1.8,1.4,3.3
	c0,1.4-0.2,2.7-0.7,3.9c-0.4,1.2-1.1,2.1-1.8,2.9c-0.9,0.8-2,1.4-3.5,1.8c-1.5,0.4-3.4,0.6-5.8,0.6c-2.1,0-4.2-0.1-6.4-0.3
	c-2.2-0.2-4.4-0.5-6.6-0.8L35,67.4L35,67.4z M73.4,61.7c-0.7,0-1.2,0.1-1.7,0.4c-0.4,0.2-0.8,0.6-1.2,1.2c-0.3,0.4-0.5,0.9-0.7,1.5
	c-0.2,0.6-0.3,1.1-0.3,1.5c0,0.6,0.2,1,0.6,1.3c0.4,0.3,0.9,0.5,1.6,0.5c1.1,0,2-0.4,2.7-1.3c0.7-0.9,1-2,1-3.4
	c0-0.5-0.2-0.9-0.6-1.2C74.6,61.9,74,61.7,73.4,61.7L73.4,61.7z M57.9,77.7l6-22.5h8.5c-0.2,0.6-0.4,1.2-0.6,1.9
	c-0.2,0.7-0.4,1.5-0.6,2.3c0.9-1.7,2-3,3.3-3.7c1.2-0.8,2.8-1.2,4.6-1.2c1.9,0,3.3,0.5,4.2,1.4c1,0.9,1.4,2.3,1.4,4.1
	c0,0.4,0,0.9-0.1,1.4c-0.1,0.5-0.1,1-0.2,1.6C84.3,64,84,65,83.8,66c-0.3,0.9-0.6,1.8-0.9,2.4c-0.9,2-2,3.4-3.3,4.2
	c-1.3,0.8-2.9,1.3-4.8,1.3c-1.9,0-3.2-0.3-4.2-0.9c-0.9-0.6-1.5-1.6-1.8-3.1l-0.5,1.8c-0.3,1.1-0.4,1.7-0.4,1.8l-1.2,4.2H57.9
	L57.9,77.7z M98.1,61.3c-0.6,0-1.2,0.1-1.6,0.3c-0.4,0.2-0.8,0.5-1.2,1c-0.3,0.4-0.6,1-0.9,1.7c-0.2,0.7-0.4,1.4-0.4,2
	c0,0.7,0.2,1.2,0.6,1.6c0.4,0.3,1,0.5,1.8,0.5c0.7,0,1.2-0.1,1.6-0.3c0.4-0.2,0.8-0.6,1.2-1.1c0.3-0.4,0.6-1,0.8-1.7
	c0.2-0.7,0.3-1.3,0.3-1.9c0-0.7-0.2-1.2-0.6-1.5C99.5,61.4,98.9,61.3,98.1,61.3L98.1,61.3z M85.6,66.8c0-0.6,0.1-1.2,0.2-1.9
	c0.1-0.7,0.3-1.5,0.6-2.3c0.4-1.3,0.9-2.4,1.4-3.3c0.5-0.9,1.1-1.7,1.8-2.4c0.9-0.8,2-1.5,3.5-1.8c1.4-0.4,3.4-0.5,5.8-0.5
	c3.9,0,6.6,0.5,8.2,1.5c1.6,1,2.4,2.6,2.4,5c0,0.5-0.1,1.1-0.2,1.8c-0.1,0.7-0.3,1.4-0.5,2.2c-0.4,1.4-0.8,2.5-1.3,3.5
	c-0.5,1-1.1,1.9-1.9,2.6c-1,1-2.2,1.7-3.7,2.2c-1.5,0.5-3.5,0.7-5.9,0.7c-3.7,0-6.4-0.6-8-1.7C86.4,71.2,85.6,69.4,85.6,66.8
	L85.6,66.8z M108.8,73.3l4.9-18.1h8.3c-0.2,0.7-0.4,1.5-0.6,2.2c-0.2,0.8-0.5,1.6-0.8,2.5h0.1c0.8-1.8,1.7-3.1,2.8-4
	c1.1-0.8,2.4-1.3,4-1.3c0.5,0,0.9,0,1.4,0.1c0.5,0.1,1,0.2,1.5,0.4l-2.6,9.7c-0.7-0.1-1.4-0.2-2-0.3c-0.6-0.1-1.2-0.1-1.8-0.1
	c-1.4,0-2.5,0.3-3.3,1c-0.8,0.6-1.4,1.8-1.8,3.4l-1.2,4.5H108.8L108.8,73.3z M143.7,73c-1.6,0.3-3.1,0.5-4.6,0.6
	c-1.5,0.1-2.9,0.2-4.2,0.2c-1.7,0-3-0.3-3.7-0.8c-0.7-0.5-1.1-1.4-1.1-2.5c0-0.3,0-0.5,0-0.8c0-0.2,0.1-0.5,0.1-0.7l1.8-7h-2.9
	l0.9-3.5c2.3-1.7,4.1-3,5.3-3.9c1.2-1,2.3-1.9,3.1-2.8h5.1l-0.9,3.4h7.1L148,62H141l-1.2,4.2c0,0.1-0.1,0.3-0.1,0.4
	c0,0.2,0,0.3,0,0.5c0,0.4,0.1,0.7,0.4,0.9c0.3,0.2,0.7,0.3,1.4,0.3c0.5,0,1.1,0,1.8-0.1c0.8-0.1,1.7-0.2,2.7-0.4L143.7,73L143.7,73z
	 M147.3,73.1l1.2-4.8c1.3,0.2,2.5,0.3,3.6,0.4c1,0.1,2,0.1,2.8,0.1c1.6,0,2.7-0.1,3.4-0.3c0.6-0.2,1-0.5,1-1c0-0.2-0.1-0.4-0.2-0.5
	c-0.1-0.1-0.4-0.2-0.7-0.2c-0.1,0-0.5,0-1.3,0.1c-0.8,0-1.6,0.1-2.3,0.1c-1.8,0-3.1-0.3-3.9-0.9c-0.8-0.6-1.2-1.6-1.2-3
	c0-1.1,0.2-2.2,0.6-3.3c0.4-1.1,1-2,1.7-2.7c0.8-0.8,1.9-1.4,3.3-1.8c1.4-0.4,3.3-0.5,5.8-0.5c1.5,0,3.2,0.1,4.9,0.2
	c1.8,0.1,3.6,0.3,5.5,0.6l-1.4,5.3c-1.4-0.2-2.6-0.3-3.6-0.4c-1-0.1-2-0.1-2.8-0.1c-1.6,0-2.7,0.1-3.4,0.3c-0.6,0.2-1,0.5-1,1
	c0,0.3,0.1,0.5,0.3,0.6c0.2,0.1,0.6,0.2,1.1,0.2c0.2,0,0.7,0,1.6-0.1c0.8,0,1.5-0.1,2.1-0.1c1.6,0,2.8,0.3,3.5,0.9
	c0.7,0.6,1.1,1.6,1.1,2.9c0,1.1-0.2,2.1-0.6,3.1c-0.4,1-0.9,1.8-1.6,2.4c-0.8,0.8-1.9,1.3-3.3,1.7c-1.3,0.3-3.2,0.5-5.5,0.5
	c-1.6,0-3.3-0.1-5.1-0.2C151.1,73.5,149.2,73.3,147.3,73.1L147.3,73.1z"/>
<path class="st4" d="M61.2,0c10.4,0,18.9,8.5,18.9,18.9s-8.5,18.9-18.9,18.9s-18.9-8.5-18.9-18.9S50.8,0,61.2,0L61.2,0z"/>
<g>
	<path class="st5" d="M3.9,210.8l7.6-12.6h9.1l-0.1,12.6h-5.3l0-1.8h-4.3l-1.1,1.8H3.9z M12.7,205.9h2.8l0-4.7L12.7,205.9z"/>
	<path class="st5" d="M21.5,210.8l2.9-10.6c0.5,0.1,0.9,0.1,1.3,0.2c0.4,0,0.8,0.1,1.2,0.1c0.4,0,0.8,0,1.3-0.1c0.5,0,1-0.1,1.5-0.2
		l-2.9,10.6H21.5z M29.5,197.2c0.2,0,0.4,0,0.5,0.1c0.1,0.1,0.2,0.2,0.2,0.4c0,0.2,0,0.4-0.1,0.6c-0.1,0.2-0.1,0.5-0.2,0.7
		c-0.1,0.2-0.2,0.4-0.4,0.4c-0.2,0.1-0.4,0.1-0.8,0.1h-3.4c-0.2,0-0.4,0-0.5-0.1c-0.1-0.1-0.2-0.2-0.2-0.4c0-0.2,0-0.4,0.1-0.6
		c0.1-0.2,0.1-0.5,0.2-0.7c0.1-0.2,0.2-0.4,0.4-0.5c0.2-0.1,0.4-0.1,0.8-0.1H29.5z"/>
	<path class="st5" d="M28.6,210.8l2.9-10.6h4.9c-0.1,0.4-0.2,0.9-0.4,1.3c-0.1,0.4-0.3,0.9-0.4,1.5h0.1c0.4-1.1,1-1.8,1.6-2.3
		c0.6-0.5,1.4-0.7,2.4-0.7c0.3,0,0.5,0,0.8,0.1c0.3,0,0.6,0.1,0.9,0.2l-1.5,5.7c-0.4-0.1-0.8-0.1-1.2-0.2c-0.4,0-0.7-0.1-1.1-0.1
		c-0.9,0-1.5,0.2-2,0.6c-0.5,0.4-0.8,1.1-1.1,2l-0.7,2.6H28.6z"/>
	<path class="st5" d="M47.7,210.8l3.4-12.6h12.7l-1.2,4.2h-7.2l-0.3,1.3h7.2l-1,3.8h-7.2l-0.9,3.3H47.7z"/>
	<path class="st5" d="M61.4,207c0-0.3,0-0.7,0.1-1.1c0.1-0.4,0.2-0.9,0.3-1.3c0.2-0.8,0.5-1.4,0.8-1.9c0.3-0.5,0.7-1,1.1-1.4
		c0.5-0.5,1.2-0.9,2.1-1.1c0.8-0.2,2-0.3,3.5-0.3c2.3,0,3.9,0.3,4.9,0.9c0.9,0.6,1.4,1.5,1.4,2.9c0,0.3,0,0.7-0.1,1.1
		c-0.1,0.4-0.2,0.8-0.3,1.3c-0.2,0.8-0.5,1.5-0.8,2.1c-0.3,0.6-0.7,1.1-1.1,1.5c-0.6,0.6-1.3,1-2.2,1.3c-0.9,0.3-2.1,0.4-3.5,0.4
		c-2.2,0-3.8-0.3-4.8-1C61.9,209.6,61.4,208.5,61.4,207z M68.9,203.8c-0.4,0-0.7,0.1-1,0.2c-0.3,0.1-0.5,0.3-0.7,0.6
		c-0.2,0.3-0.4,0.6-0.5,1c-0.1,0.4-0.2,0.8-0.2,1.2c0,0.4,0.1,0.7,0.4,0.9c0.2,0.2,0.6,0.3,1.1,0.3c0.4,0,0.7-0.1,1-0.2
		c0.2-0.1,0.5-0.3,0.7-0.7c0.2-0.3,0.3-0.6,0.5-1c0.1-0.4,0.2-0.8,0.2-1.1c0-0.4-0.1-0.7-0.3-0.9C69.7,203.9,69.3,203.8,68.9,203.8z
		"/>
	<path class="st5" d="M75.2,210.8l2.9-10.6h4.9c-0.1,0.4-0.2,0.9-0.4,1.3c-0.1,0.4-0.3,0.9-0.4,1.5h0.1c0.4-1.1,1-1.8,1.6-2.3
		c0.6-0.5,1.4-0.7,2.4-0.7c0.3,0,0.5,0,0.8,0.1c0.3,0,0.6,0.1,0.9,0.2l-1.5,5.7c-0.4-0.1-0.8-0.1-1.2-0.2c-0.4,0-0.7-0.1-1.1-0.1
		c-0.9,0-1.5,0.2-2,0.6c-0.5,0.4-0.8,1.1-1.1,2l-0.7,2.6H75.2z"/>
	<path class="st5" d="M97.5,210.5c-1.1,0.2-2.1,0.4-3.1,0.5c-0.9,0.1-1.8,0.2-2.6,0.2c-1.7,0-2.9-0.3-3.6-0.8
		c-0.7-0.5-1.1-1.4-1.1-2.5c0-0.3,0-0.6,0.1-0.9c0-0.3,0.1-0.6,0.2-1c0.2-0.8,0.4-1.5,0.6-2.1c0.3-0.6,0.5-1.2,0.8-1.6
		c0.3-0.4,0.6-0.8,0.9-1c0.3-0.3,0.6-0.5,0.9-0.7c0.4-0.2,1-0.4,1.6-0.5c0.7-0.1,1.5-0.2,2.4-0.2c1,0,2,0.1,2.9,0.2
		c0.9,0.1,1.8,0.3,2.7,0.5l-1,3.8c-0.6-0.1-1.1-0.1-1.6-0.2c-0.5,0-0.9-0.1-1.4-0.1c-0.6,0-1.2,0-1.6,0.1c-0.4,0.1-0.8,0.2-1,0.4
		c-0.3,0.2-0.5,0.5-0.7,0.9c-0.2,0.4-0.3,0.8-0.3,1.1c0,0.4,0.2,0.7,0.5,0.8c0.3,0.2,0.9,0.3,1.6,0.3c0.6,0,1.2,0,1.8-0.1
		c0.6-0.1,1.3-0.2,1.9-0.3L97.5,210.5z"/>
	<path class="st5" d="M111,210.4c-1,0.3-2,0.5-3,0.6c-1,0.1-2,0.2-3,0.2c-1.8,0-3.2-0.3-4-0.8c-0.8-0.6-1.2-1.5-1.2-2.7
		c0-0.3,0-0.5,0-0.8c0-0.3,0.1-0.6,0.1-0.8c0.2-0.8,0.4-1.5,0.6-2.1c0.2-0.6,0.5-1.2,0.8-1.6c0.4-0.6,0.8-1.1,1.3-1.4
		c0.5-0.3,1-0.6,1.5-0.7c0.5-0.1,1-0.2,1.6-0.3c0.6-0.1,1.2-0.1,1.9-0.1c2.1,0,3.7,0.3,4.7,0.8c1,0.5,1.5,1.4,1.5,2.5
		c0,0.3,0,0.6-0.1,0.9c-0.1,0.3-0.2,0.7-0.3,1.1c-0.1,0.2-0.1,0.5-0.2,0.7c-0.1,0.2-0.2,0.5-0.3,0.8h-7.9c0,0.1,0,0.2-0.1,0.3
		c0,0.1,0,0.2,0,0.2c0,0.4,0.2,0.6,0.5,0.8c0.3,0.2,0.8,0.3,1.5,0.3c0.7,0,1.5-0.1,2.4-0.2c0.9-0.1,1.8-0.3,2.9-0.5L111,210.4z
		 M105.7,204.3h3.8c0-0.1,0.1-0.2,0.1-0.3c0-0.1,0-0.2,0-0.3c0-0.4-0.1-0.6-0.4-0.8c-0.3-0.2-0.6-0.3-1.1-0.3
		c-0.7,0-1.2,0.1-1.5,0.4C106.3,203.3,106,203.7,105.7,204.3z"/>
	<path class="st5" d="M122,207.3c1.1,0.2,2,0.3,2.9,0.3c0.8,0.1,1.5,0.1,2.2,0.1c1,0,1.7-0.1,2.1-0.2c0.4-0.1,0.6-0.3,0.6-0.6
		c0-0.2-0.1-0.4-0.2-0.4c-0.1-0.1-0.3-0.1-0.6-0.1c-0.4,0-0.8,0-1.3,0c-0.1,0-0.2,0-0.2,0c-1.6,0-2.7-0.2-3.4-0.6
		c-0.6-0.4-1-1.2-1-2.2c0-0.8,0.2-1.6,0.5-2.4c0.3-0.8,0.7-1.4,1.3-1.9c0.5-0.5,1.2-0.8,2.1-1.1c0.9-0.2,2.2-0.3,3.9-0.3
		c1.1,0,2.2,0,3.4,0.1c1.2,0.1,2.4,0.2,3.6,0.4l-1.1,4c-0.8-0.2-1.5-0.3-2.2-0.4c-0.7-0.1-1.3-0.1-1.9-0.1c-1.3,0-2.3,0.1-2.8,0.2
		c-0.5,0.1-0.7,0.4-0.7,0.7c0,0.2,0.1,0.3,0.2,0.4c0.1,0.1,0.5,0.1,1.1,0.1h2.1c1.2,0,2.1,0.2,2.6,0.6c0.5,0.4,0.8,1,0.8,1.9
		c0,0.8-0.1,1.6-0.4,2.3c-0.3,0.7-0.6,1.2-1.1,1.7c-0.5,0.5-1.2,0.8-2.1,1.1c-0.9,0.2-2,0.3-3.4,0.3c-1.2,0-2.5-0.1-3.8-0.2
		c-1.3-0.1-2.6-0.3-3.9-0.5L122,207.3z"/>
	<path class="st5" d="M148.3,210.4c-1,0.3-2,0.5-3,0.6c-1,0.1-2,0.2-3,0.2c-1.8,0-3.2-0.3-4-0.8c-0.8-0.6-1.2-1.5-1.2-2.7
		c0-0.3,0-0.5,0-0.8c0-0.3,0.1-0.6,0.1-0.8c0.2-0.8,0.4-1.5,0.6-2.1c0.3-0.6,0.5-1.2,0.8-1.6c0.4-0.6,0.8-1.1,1.3-1.4
		c0.5-0.3,1-0.6,1.5-0.7c0.5-0.1,1-0.2,1.6-0.3c0.6-0.1,1.2-0.1,1.9-0.1c2.1,0,3.7,0.3,4.7,0.8c1,0.5,1.5,1.4,1.5,2.5
		c0,0.3,0,0.6-0.1,0.9c-0.1,0.3-0.2,0.7-0.3,1.1c-0.1,0.2-0.1,0.5-0.2,0.7c-0.1,0.2-0.2,0.5-0.3,0.8h-7.9c0,0.1,0,0.2-0.1,0.3
		c0,0.1,0,0.2,0,0.2c0,0.4,0.2,0.6,0.5,0.8c0.3,0.2,0.8,0.3,1.5,0.3c0.7,0,1.5-0.1,2.4-0.2c0.9-0.1,1.8-0.3,2.9-0.5L148.3,210.4z
		 M142.9,204.3h3.8c0-0.1,0.1-0.2,0.1-0.3c0-0.1,0-0.2,0-0.3c0-0.4-0.1-0.6-0.4-0.8c-0.3-0.2-0.6-0.3-1.1-0.3
		c-0.7,0-1.2,0.1-1.5,0.4C143.5,203.3,143.2,203.7,142.9,204.3z"/>
	<path class="st5" d="M150.8,210.8l2.9-10.6h4.9c-0.1,0.4-0.2,0.9-0.4,1.3c-0.1,0.4-0.3,0.9-0.4,1.5h0.1c0.4-1.1,1-1.8,1.6-2.3
		c0.7-0.5,1.4-0.7,2.4-0.7c0.3,0,0.5,0,0.8,0.1c0.3,0,0.6,0.1,0.9,0.2l-1.5,5.7c-0.4-0.1-0.8-0.1-1.2-0.2c-0.4,0-0.7-0.1-1.1-0.1
		c-0.9,0-1.5,0.2-2,0.6c-0.5,0.4-0.8,1.1-1.1,2l-0.7,2.6H150.8z"/>
	<path class="st5" d="M163.8,210.8l-0.2-10.6h5.1l-0.1,4.2c0,0.4,0,0.9-0.1,1.4c0,0.6-0.1,1.2-0.1,1.9c0.2-0.6,0.5-1.4,1-2.4
		c0.1-0.2,0.2-0.4,0.2-0.5l2-4.7h5.7l-5.7,10.6H163.8z"/>
	<path class="st5" d="M175.6,210.8l2.9-10.6c0.5,0.1,0.9,0.1,1.3,0.2c0.4,0,0.8,0.1,1.2,0.1c0.4,0,0.8,0,1.3-0.1
		c0.5,0,1-0.1,1.5-0.2l-2.9,10.6H175.6z M183.6,197.2c0.2,0,0.4,0,0.5,0.1c0.1,0.1,0.2,0.2,0.2,0.4c0,0.2,0,0.4-0.1,0.6
		c-0.1,0.2-0.1,0.5-0.2,0.7c-0.1,0.2-0.2,0.4-0.4,0.4c-0.2,0.1-0.4,0.1-0.8,0.1h-3.4c-0.2,0-0.4,0-0.5-0.1c-0.1-0.1-0.2-0.2-0.2-0.4
		c0-0.2,0-0.4,0.1-0.6c0.1-0.2,0.1-0.5,0.2-0.7c0.1-0.2,0.2-0.4,0.4-0.5c0.2-0.1,0.4-0.1,0.8-0.1H183.6z"/>
	<path class="st5" d="M193.8,210.5c-1.1,0.2-2.1,0.4-3.1,0.5c-0.9,0.1-1.8,0.2-2.6,0.2c-1.7,0-2.9-0.3-3.6-0.8
		c-0.7-0.5-1.1-1.4-1.1-2.5c0-0.3,0-0.6,0.1-0.9c0-0.3,0.1-0.6,0.2-1c0.2-0.8,0.4-1.5,0.6-2.1c0.2-0.6,0.5-1.2,0.8-1.6
		c0.3-0.4,0.6-0.8,0.9-1c0.3-0.3,0.6-0.5,0.9-0.7c0.4-0.2,1-0.4,1.6-0.5c0.7-0.1,1.5-0.2,2.4-0.2c1,0,2,0.1,2.9,0.2
		c0.9,0.1,1.8,0.3,2.7,0.5l-1,3.8c-0.6-0.1-1.1-0.1-1.6-0.2c-0.5,0-0.9-0.1-1.3-0.1c-0.6,0-1.2,0-1.6,0.1c-0.4,0.1-0.8,0.2-1,0.4
		c-0.3,0.2-0.5,0.5-0.7,0.9c-0.2,0.4-0.3,0.8-0.3,1.1c0,0.4,0.2,0.7,0.5,0.8c0.3,0.2,0.9,0.3,1.6,0.3c0.6,0,1.2,0,1.8-0.1
		c0.6-0.1,1.3-0.2,1.9-0.3L193.8,210.5z"/>
	<path class="st5" d="M207.3,210.4c-1,0.3-2,0.5-3,0.6c-1,0.1-2,0.2-3,0.2c-1.8,0-3.2-0.3-4-0.8c-0.8-0.6-1.2-1.5-1.2-2.7
		c0-0.3,0-0.5,0-0.8c0-0.3,0.1-0.6,0.1-0.8c0.2-0.8,0.4-1.5,0.6-2.1c0.2-0.6,0.5-1.2,0.8-1.6c0.4-0.6,0.8-1.1,1.3-1.4
		c0.5-0.3,1-0.6,1.5-0.7c0.5-0.1,1-0.2,1.6-0.3c0.6-0.1,1.2-0.1,1.9-0.1c2.1,0,3.7,0.3,4.7,0.8c1,0.5,1.5,1.4,1.5,2.5
		c0,0.3,0,0.6-0.1,0.9c-0.1,0.3-0.2,0.7-0.3,1.1c-0.1,0.2-0.1,0.5-0.2,0.7c-0.1,0.2-0.2,0.5-0.3,0.8h-7.9c0,0.1,0,0.2-0.1,0.3
		c0,0.1,0,0.2,0,0.2c0,0.4,0.2,0.6,0.5,0.8c0.3,0.2,0.8,0.3,1.5,0.3c0.7,0,1.5-0.1,2.4-0.2c0.9-0.1,1.8-0.3,2.9-0.5L207.3,210.4z
		 M202,204.3h3.8c0-0.1,0.1-0.2,0.1-0.3c0-0.1,0-0.2,0-0.3c0-0.4-0.1-0.6-0.4-0.8s-0.6-0.3-1.1-0.3c-0.7,0-1.2,0.1-1.5,0.4
		C202.6,203.3,202.2,203.7,202,204.3z"/>
	<path class="st5" d="M210,210.7l0.8-2.8c0.8,0.1,1.5,0.2,2.1,0.2c0.6,0,1.2,0.1,1.7,0.1c1,0,1.6-0.1,2-0.2c0.4-0.1,0.6-0.3,0.6-0.6
		c0-0.1,0-0.2-0.1-0.3c-0.1-0.1-0.2-0.1-0.4-0.1c0,0-0.3,0-0.8,0c-0.5,0-0.9,0-1.4,0c-1.1,0-1.8-0.2-2.3-0.6c-0.5-0.4-0.7-1-0.7-1.8
		c0-0.6,0.1-1.3,0.4-1.9c0.3-0.6,0.6-1.2,1-1.6c0.5-0.5,1.1-0.8,2-1c0.8-0.2,2-0.3,3.5-0.3c0.9,0,1.9,0,2.9,0.1
		c1,0.1,2.1,0.2,3.3,0.3l-0.9,3.1c-0.8-0.1-1.5-0.2-2.2-0.2c-0.6-0.1-1.2-0.1-1.6-0.1c-1,0-1.6,0.1-2,0.2c-0.4,0.1-0.6,0.3-0.6,0.6
		c0,0.2,0.1,0.3,0.2,0.4c0.1,0.1,0.3,0.1,0.7,0.1c0.1,0,0.4,0,0.9,0c0.5,0,0.9,0,1.3,0c1,0,1.7,0.2,2.1,0.5c0.4,0.4,0.6,0.9,0.6,1.7
		c0,0.6-0.1,1.3-0.3,1.8c-0.2,0.6-0.5,1-0.9,1.4c-0.5,0.5-1.1,0.8-1.9,1c-0.8,0.2-1.9,0.3-3.3,0.3c-1,0-2,0-3.1-0.1
		C212.2,210.9,211.1,210.8,210,210.7z"/>
</g>
</svg>
