<?xml version="1.0" encoding="utf-8"?>
<!-- Generator: Adobe Illustrator 25.2.0, SVG Export Plug-In . SVG Version: 6.00 Build 0)  -->
<!-- SVG made by yourforcesupport.com -  Powerful Websites for the Modern Force Support Squadron US Forces -->
<svg version="1.1" xmlns="http://www.w3.org/2000/svg" xmlns:xlink="http://www.w3.org/1999/xlink" x="0px" y="0px"
	 viewBox="0 0 101.8 130.6" style="enable-background:new 0 0 101.8 130.6;" xml:space="preserve">
<style type="text/css">
	.st0{fill:none;stroke:#12100B;stroke-miterlimit:10;}
	.st1{fill:#12100B;}
	.st2{clip-path:url(#SVGID_2_);}
	.st3{fill:#2A7DE1;}
	.st4{fill:#322E2A;}
	.st5{fill:#FFFFFF;}
	.st6{fill:none;stroke:#322E2A;stroke-width:0;stroke-linecap:round;stroke-linejoin:round;}
	.st7{fill:none;}
	.st8{fill:#848484;}
	.st9{fill:#002F87;}
	.st10{fill:none;stroke:#242758;stroke-miterlimit:10;}
	.st11{clip-path:url(#SVGID_4_);}
	.st12{fill:#DEDEDF;}
	.st13{fill:none;stroke:#FFFFFF;stroke-width:0;stroke-linecap:round;stroke-linejoin:round;}
</style>
<g id="VERT_1_COLOR_BLK">
</g>
<g id="VERT_FULL_COLOR">
	<g>
		<path class="st0" d="M253.9,130.1h-84c-4.6,0-8.4-3.8-8.4-8.4V8.9c0-4.6,3.8-8.4,8.4-8.4h84c4.6,0,8.4,3.8,8.4,8.4v112.8
			C262.3,126.3,258.5,130.1,253.9,130.1z"/>
		<g id="AF_2_">
			<path class="st1" d="M167.7,18.1l1.2-2.9h5.4l1.2,2.9h1.4l-4.2-11.3h-2.1l-4.2,11.3H167.7z M171.5,8.1l2.2,5.7h-4.3L171.5,8.1z"
				/>
			<rect x="179.3" y="6.8" class="st1" width="1.4" height="11.3"/>
			<path class="st1" d="M193.2,10.4V9.9c0-1.9-1.3-3.1-3.7-3.1h-5.3v11.3h1.4v-4.7h3.9l2.2,4.7h1.5l-2.2-4.9
				C192.4,12.9,193.2,11.9,193.2,10.4z M191.8,10.4c0,1.2-0.7,1.7-2.2,1.7h-4V8.2h4c1.5,0,2.2,0.6,2.2,1.7V10.4z"/>
			<polygon class="st1" points="209.3,8.2 209.3,6.8 201.3,6.8 201.3,18.1 202.7,18.1 202.7,13.6 208.7,13.6 208.7,12.2 202.7,12.2 
				202.7,8.2 			"/>
			<path class="st1" d="M211.8,10.6v3.9c0,2.4,1.6,3.9,4.9,3.9s4.9-1.5,4.9-3.9v-3.9c0-2.5-1.6-4-4.9-4S211.8,8.1,211.8,10.6z
				 M220.3,10.7v3.5c0,1.7-1,2.7-3.5,2.7c-2.5,0-3.5-1-3.5-2.7v-3.5c0-1.8,1-2.8,3.5-2.8C219.3,8,220.3,8.9,220.3,10.7z"/>
			<path class="st1" d="M233.9,10.4V9.9c0-1.9-1.3-3.1-3.7-3.1h-5.3v11.3h1.4v-4.7h3.9l2.2,4.7h1.5l-2.2-4.9
				C233.1,12.9,233.9,11.9,233.9,10.4z M232.5,10.4c0,1.2-0.7,1.7-2.2,1.7h-4V8.2h4c1.5,0,2.2,0.6,2.2,1.7V10.4z"/>
			<path class="st1" d="M246.3,10.9v-0.4c0-2.4-1.6-3.9-4.9-3.9c-3.3,0-4.9,1.5-4.9,3.9v3.9c0,2.4,1.6,3.9,4.9,3.9
				c3.3,0,4.9-1.5,4.9-3.9V14h-1.5v0.3c0,1.8-1,2.7-3.4,2.7c-2.5,0-3.5-0.9-3.5-2.7v-3.6c0-1.8,1-2.7,3.5-2.7c2.4,0,3.4,0.9,3.4,2.7
				v0.3H246.3z"/>
			<polygon class="st1" points="257.5,8.2 257.5,6.8 249.5,6.8 249.5,18.1 257.5,18.1 257.5,16.8 250.9,16.8 250.9,13.2 256.8,13.2 
				256.8,11.9 250.9,11.9 250.9,8.2 			"/>
		</g>
		<g>
			<defs>
				<path id="SVGID_1_" d="M253.9,130.1h-84c-4.6,0-8.4-3.8-8.4-8.4V8.9c0-4.6,3.8-8.4,8.4-8.4h84c4.6,0,8.4,3.8,8.4,8.4v112.8
					C262.3,126.3,258.5,130.1,253.9,130.1z"/>
			</defs>
			<clipPath id="SVGID_2_">
				<use xlink:href="#SVGID_1_"  style="overflow:visible;"/>
			</clipPath>
			<g class="st2">
				<g>
					<path class="st1" d="M324.5,44.9l14.2-12.1l-86,8.5c0,2.8,0.1,7.4,0.1,11.7L324.5,44.9z"/>
					<path class="st1" d="M258.7,81.7l17.6-12.2L252,73c-0.5,3.5-1.3,6.9-2.6,10.2L258.7,81.7z"/>
					<path class="st1" d="M252.7,63.9c-0.1,1.6-0.1,3.3-0.3,4.9l37.4-4.9l17.4-11.8l-54.5,5.8C252.7,60.8,252.7,63.1,252.7,63.9z"/>
				</g>
				<g>
					<polygon class="st1" points="86.7,32.8 100.8,44.9 172.7,52.9 173,41.3 					"/>
					<path class="st1" d="M149.1,69.5l17.6,12.2l9.6,1.6c-1.3-3.2-2.2-6.6-2.8-10.3L149.1,69.5z"/>
					<path class="st1" d="M172.6,57.9l-54.5-5.8l17.4,11.8l37.5,4.9C172.7,65.5,172.6,61.8,172.6,57.9z"/>
				</g>
				<path class="st3" d="M238.2,40.2c1.9,0.7,3.8,1.6,5.6,2.7C242.1,41.9,240.6,41.1,238.2,40.2z"/>
				<path class="st4" d="M188.5,92.3c-0.1-0.1-0.2-0.2-0.3-0.3c0,0,0,0,0,0C188.3,92.2,188.4,92.3,188.5,92.3z"/>
				<path class="st4" d="M188,91.9c0.1,0.1,0.1,0.1,0.2,0.2c0,0,0,0,0,0C188.1,92,188.1,91.9,188,91.9z"/>
				<path class="st5" d="M212.6,106.4c0.1,0,0.1,0,0.2,0c0,0,0,0,0,0C212.7,106.4,212.6,106.4,212.6,106.4z"/>
				<line class="st6" x1="210.2" y1="105.8" x2="210.2" y2="105.8"/>
				<path class="st7" d="M214.3,64.8c-1-0.5-2-1-3.3-1.5C212.1,63.8,213.2,64.2,214.3,64.8z"/>
				<path class="st7" d="M212.2,42.4c0.3,0.3,0.6,0.7,0.9,1.1C213.1,43.5,212.5,42.8,212.2,42.4z"/>
				<path class="st7" d="M212.9,75.6c-0.2,0-0.3,0-0.5,0c0,0,0.1,0,0.1,0C212.7,75.6,212.8,75.6,212.9,75.6z"/>
				<path class="st7" d="M215.5,41.6c0,0-4.9,1.7-5.6,2.2C211.8,45.8,213.8,43.2,215.5,41.6z"/>
				<path class="st8" d="M212.5,36.9C212.5,36.9,212.5,36.9,212.5,36.9c0.1,0,0.3,0,0.4,0C212.8,37,212.6,36.9,212.5,36.9
					C212.5,36.9,212.5,36.9,212.5,36.9z"/>
				<path class="st7" d="M214.5,41.7c0,0-4.7,1.7-5.3,2.2C211,45.8,213,43.2,214.5,41.7z"/>
				<path class="st7" d="M224.3,63.4c-3.9-5.6-10.3-9.1-16.8-9.1c-0.7,0-1.3,0-1.9,0.1c3.4,0.8,6.6,3.2,9.1,6.8
					c2.5,3.7,4,8.2,4,12.1c0,11.3-9.2,20.5-20.5,20.5c-3.3,0-6.5-0.8-9.3-2.2c2.1,2,4.6,3.9,7.5,5.8c3.9,2.6,8.4,5,13.8,7.5
					c4-2,11.1-7.3,16.1-20.6C229.2,76.9,228.5,69.4,224.3,63.4z"/>
				<path class="st1" d="M248.4,42.3c-8.3-17-40.8-21.3-57.8-10.4c17.3-8.8,46.6-4.2,54.4,11.7c-0.2-0.1-0.5-0.3-0.7-0.4
					c-0.1-0.1-0.3-0.2-0.4-0.2c-1.8-1.1-3.8-2-5.6-2.7c-3.4-1.3-6.6-2.1-8.6-2.5c-1.1-0.2-2.1-0.4-3.2-0.5c-0.4-0.1-0.9-0.1-1.3-0.1
					c-0.1,0-0.2,0-0.4,0c-3.2-0.3-6.2-0.1-9,0.5c0,0,0,0,0,0c-0.3,0.1-0.6,0.1-0.9,0.2c0,0-0.1,0-0.1,0c-0.3,0.1-0.5,0.2-0.8,0.2
					c0,0-0.1,0-0.1,0c-0.3,0.1-0.5,0.2-0.8,0.3c0,0-0.1,0-0.1,0.1c-0.2,0.1-0.5,0.2-0.7,0.3c0,0-0.1,0-0.1,0.1
					c-0.2,0.1-0.5,0.2-0.7,0.4c0,0-0.1,0-0.1,0.1c-0.3,0.1-0.5,0.3-0.8,0.5c-0.3,0.2-0.7,0.4-1,0.7c-0.1,0.1-0.2,0.2-0.4,0.3
					c-0.2,0.1-0.3,0.3-0.4,0.4c-0.9,0.9-1.5,1.8-1.7,2.6c-0.1,0.3-0.1,0.7,0,1c0,0-1,0.4-2.3,1.1c-0.3,0.2-0.7,0.4-1.1,0.7
					c-0.1,0.1-0.2,0.1-0.3,0.2c-0.4,0.2-0.7,0.5-1.1,0.8c-0.1,0.1-0.2,0.2-0.3,0.3c-2,1.7-3.9,4.3-4,7.6c0,0.4,0,0.7,0,1.1v0
					c0,0,0,0,0,0c0.1-0.1,0.1-0.1,0.2-0.2c5-4.7,13.1-4.6,18.6-2.7c21.5,7.3,20.4,39.4-6.3,52.2c30.8-11.4,37.6-22.1,38.4-45.1
					C248.8,55.3,248.4,42.3,248.4,42.3z M209.2,43.8c0.6-0.4,0.5-0.8,6-2.9C213.7,42.5,211,45.8,209.2,43.8z"/>
				<path class="st3" d="M225,37.1c-0.1,0-0.2,0-0.4,0c0,0,0,0,0,0c0,0,0,0,0,0C224.8,37,224.9,37.1,225,37.1z"/>
				<path class="st4" d="M204.2,54.9c0.1,0,0.2,0,0.3,0C204.4,55,204.3,55,204.2,54.9C204.2,54.9,204.2,54.9,204.2,54.9
					C204.2,54.9,204.2,54.9,204.2,54.9z"/>
				<path class="st4" d="M196,98.1c-0.1-0.1-0.2-0.1-0.3-0.2c3.5,2.3,7.6,4.6,12.3,6.8c0.1,0,0.2,0.1,0.3,0.1
					c0.6,0.3,1.3,0.6,1.9,0.9C204.6,103.3,199.9,100.7,196,98.1C196,98.1,196,98.1,196,98.1z"/>
				<path class="st1" d="M196.6,92c10.9,0,19.7-8.8,19.7-19.7c0-4.7-2.1-10.3-5.8-14.1c-0.1-0.1-0.1-0.1-0.2-0.2
					c1.7,1.8,2.7,4.1,2.7,6.7c0,1.5-0.3,2.9-0.9,4.2c-0.2,0.5-0.5,0.9-0.8,1.4c-5,7.4-15.9,4.1-21.8-0.2c-3.5-2.5-6.4-5.8-8.8-9.5
					c-2.2-3.4-3.8-7.2-5-10.9c-0.4,15.1,0.6,26.3,6.7,35.5C185.3,89,191.3,92,196.6,92z"/>
				<path class="st9" d="M201.9,54.9c-0.1,0-0.1,0-0.2,0c0.1,0,0.3,0,0.4,0C202.1,54.9,202,54.9,201.9,54.9z"/>
				<path class="st9" d="M200.5,55.2c0,0,0,0.1,0,0.1c0.4-0.1,0.7-0.3,1.1-0.4C201.2,55.1,200.8,55.1,200.5,55.2z"/>
				<path class="st1" d="M227.1,84.7c6.6-17.4-6.4-31.1-19.5-31.1c-3.3,0-6.7,0.9-9.7,2.8c0.2-0.2,0.5-0.3,0.8-0.4
					c0.1,0,0.1-0.1,0.2-0.1c0.3-0.1,0.6-0.3,0.9-0.4c0.1,0,0.1,0,0.2-0.1c0.2-0.1,0.4-0.1,0.6-0.2c0.4-0.1,0.7-0.2,1.1-0.2
					c0.1,0,0.2,0,0.2,0c0.1,0,0.1,0,0.2,0c0.1,0,0.2,0,0.3,0c0.1,0,0.2,0,0.2,0c0.2,0,0.4,0,0.6,0c0.3,0,0.7,0,1,0.1
					c0,0,0.1,0,0.1,0c0,0,0,0,0,0c0,0,0,0,0.1,0c0,0,0,0,0,0c8,0.9,13.7,10.9,13.7,18.4c0,10.9-8.8,19.7-19.7,19.7
					c-6.5,0-12.2-3.1-15.8-7.9c1.3,1.9,2.7,3.8,4.5,5.5c0,0,0,0,0.1,0.1c0.4,0.4,0.9,0.9,1.3,1.3c0,0,0,0,0,0c0,0,0,0,0,0
					c0,0,0,0,0,0c0,0,0,0,0,0c0,0,0,0,0,0c0,0,0,0,0,0c2.2,2.1,4.8,4.1,7.7,6c0,0,0,0,0,0c4,2.6,8.7,5.2,14.2,7.7c0,0,0,0,0,0
					C218.3,102,223.9,93.1,227.1,84.7z M210.2,105c-5.4-2.5-10-4.9-13.8-7.5c-2.9-1.9-5.4-3.8-7.5-5.8c2.8,1.5,6,2.2,9.3,2.2
					c11.3,0,20.5-9.2,20.5-20.5c0-3.9-1.5-8.4-4-12.1c-2.5-3.6-5.7-6-9.1-6.8c0.6-0.1,1.3-0.1,1.9-0.1c6.5,0,12.9,3.5,16.8,9.1
					c4.1,6,4.9,13.4,2,21C221.3,97.7,214.2,103,210.2,105z"/>
				<path class="st1" d="M224.6,37C224.6,37,224.6,37,224.6,37c-3.2-0.3-6.3-0.1-9,0.5C218.4,36.9,221.5,36.8,224.6,37z"/>
				<path class="st1" d="M204.8,32.8c-11.3,0.5-22.1,5.8-28.7,13.6c6.6-6.2,20.7-8.5,30.1-6.6c-0.1,0-0.2,0-0.3-0.1
					c0.2-0.3,0.5-0.5,0.8-0.8c0.3-0.3,0.6-0.6,1-0.9c0.4-0.3,0.8-0.6,1.2-0.8c2.7-1.7,5.9-2.6,9.2-3C214,33.1,209.6,32.6,204.8,32.8
					z"/>
				<path class="st1" d="M209,40.6C209,40.6,209,40.6,209,40.6c0.1-0.1,0.2-0.2,0.4-0.3C209.2,40.4,209.1,40.5,209,40.6z"/>
			</g>
		</g>
		<g>
			<path class="st1" d="M179.7,119.8v-10h3.3v9.8c0,1.5,1.2,2.5,3.5,2.5s3.5-1,3.5-2.5v-9.8h3.3v10c0,3.2-2.5,5.2-6.7,5.2
				C182.2,125,179.7,122.9,179.7,119.8z"/>
			<path class="st1" d="M208.8,109.7v14.9h-3.2l-6.1-9.2v9.2h-3.2v-14.9h3.2l6.1,9.2v-9.2H208.8z"/>
			<path class="st1" d="M212.3,109.7h3.3v14.9h-3.3V109.7z"/>
			<path class="st1" d="M230.6,112.7h-4.7v12h-3.3v-12H218v-2.9h12.6V112.7z"/>
			<path class="st1" d="M236.3,112.7v3.3h7v2.9h-7v2.8h7.9v2.9H233v-14.9h11.1v2.9H236.3z"/>
		</g>
	</g>
	<g>
		<path class="st10" d="M92.9,130.1h-84c-4.6,0-8.4-3.8-8.4-8.4V8.9c0-4.6,3.8-8.4,8.4-8.4h84c4.6,0,8.4,3.8,8.4,8.4v112.8
			C101.3,126.3,97.5,130.1,92.9,130.1z"/>
		<g id="AF_3_">
			<path class="st9" d="M6.7,18.1l1.2-2.9h5.4l1.2,2.9h1.4L11.5,6.8H9.5L5.3,18.1H6.7z M10.5,8.1l2.2,5.7H8.3L10.5,8.1z"/>
			<rect x="18.3" y="6.8" class="st9" width="1.4" height="11.3"/>
			<path class="st9" d="M32.2,10.3V9.9c0-1.9-1.3-3.1-3.7-3.1h-5.3v11.3h1.4v-4.7h3.9l2.2,4.7h1.5L30,13.2
				C31.4,12.9,32.2,11.8,32.2,10.3z M30.8,10.3c0,1.2-0.7,1.7-2.2,1.7h-4V8.2h4c1.5,0,2.2,0.6,2.2,1.7V10.3z"/>
			<polygon class="st9" points="48.3,8.2 48.3,6.8 40.3,6.8 40.3,18.1 41.7,18.1 41.7,13.6 47.7,13.6 47.7,12.2 41.7,12.2 41.7,8.2 
							"/>
			<path class="st9" d="M50.8,10.6v3.9c0,2.4,1.6,3.9,4.9,3.9s4.9-1.5,4.9-3.9v-3.9c0-2.5-1.6-4-4.9-4S50.8,8.1,50.8,10.6z
				 M59.3,10.7v3.5c0,1.7-1,2.7-3.5,2.7c-2.5,0-3.5-1-3.5-2.7v-3.5c0-1.8,1-2.8,3.5-2.8C58.3,8,59.3,8.9,59.3,10.7z"/>
			<path class="st9" d="M72.9,10.3V9.9c0-1.9-1.3-3.1-3.7-3.1h-5.3v11.3h1.4v-4.7h3.9l2.2,4.7h1.5l-2.2-4.9
				C72.1,12.9,72.9,11.8,72.9,10.3z M71.5,10.3c0,1.2-0.7,1.7-2.2,1.7h-4V8.2h4c1.5,0,2.2,0.6,2.2,1.7V10.3z"/>
			<path class="st9" d="M85.3,10.9v-0.4c0-2.4-1.6-3.9-4.9-3.9c-3.3,0-4.9,1.5-4.9,3.9v3.9c0,2.4,1.6,3.9,4.9,3.9
				c3.3,0,4.9-1.5,4.9-3.9V14h-1.5v0.3c0,1.8-1,2.7-3.4,2.7C78,17,77,16,77,14.2v-3.6C77,8.9,78,8,80.4,8c2.4,0,3.4,0.9,3.4,2.7v0.3
				H85.3z"/>
			<polygon class="st9" points="96.5,8.2 96.5,6.8 88.5,6.8 88.5,18.1 96.5,18.1 96.5,16.8 89.9,16.8 89.9,13.2 95.8,13.2 
				95.8,11.9 89.9,11.9 89.9,8.2 			"/>
		</g>
		<g>
			<path class="st9" d="M18.7,119.8v-10h3.3v9.8c0,1.5,1.2,2.5,3.5,2.5s3.5-1,3.5-2.5v-9.8h3.3v10c0,3.2-2.5,5.2-6.7,5.2
				C21.2,124.9,18.7,122.9,18.7,119.8z"/>
			<path class="st9" d="M47.8,109.7v14.9h-3.2l-6.1-9.2v9.2h-3.2v-14.9h3.2l6.1,9.2v-9.2H47.8z"/>
			<path class="st9" d="M51.3,109.7h3.3v14.9h-3.3V109.7z"/>
			<path class="st9" d="M69.6,112.7h-4.7v12h-3.3v-12H57v-2.9h12.6V112.7z"/>
			<path class="st9" d="M75.3,112.7v3.3h7v2.9h-7v2.8h7.9v2.9H72v-14.9h11.1v2.9H75.3z"/>
		</g>
		<g>
			<defs>
				<path id="SVGID_3_" d="M92.9,130.1h-84c-4.6,0-8.4-3.8-8.4-8.4V8.9c0-4.6,3.8-8.4,8.4-8.4h84c4.6,0,8.4,3.8,8.4,8.4v112.8
					C101.3,126.3,97.5,130.1,92.9,130.1z"/>
			</defs>
			<clipPath id="SVGID_4_">
				<use xlink:href="#SVGID_3_"  style="overflow:visible;"/>
			</clipPath>
			<g class="st11">
				<polygon class="st9" points="-68.8,30.8 -55.4,42.3 13.5,50 13.7,38.9 				"/>
				<path class="st9" d="M157.2,42.3l13.4-11.5l-81.2,8c0,2.7,0.1,7,0.1,11.1L157.2,42.3z"/>
				<path class="st9" d="M94.6,77.3l16.7-11.6l-22.6,3.3c-0.5,3.3-1.2,6.6-2.5,9.7L94.6,77.3z"/>
				<path class="st9" d="M-9.5,65.7L7.2,77.3l9.7,1.6c-1.3-3.1-2.1-6.3-2.7-9.8L-9.5,65.7z"/>
				<path class="st9" d="M13.3,54.7l-52.3-5.5l16.5,11.2l36.1,4.8C13.4,61.9,13.3,58.4,13.3,54.7z"/>
				<path class="st9" d="M89.4,60.3c-0.1,1.5-0.1,3.1-0.3,4.6l35-4.6l16.5-11.2l-51.3,5.4C89.5,57.3,89.5,59.5,89.4,60.3z"/>
				<g>
					<path class="st12" d="M52.1,93c-0.1-0.1-0.2-0.2-0.3-0.3c0,0,0,0,0,0c-0.1-0.1-0.1-0.1-0.2-0.2C51.8,92.7,52,92.9,52.1,93z"/>
					<path class="st9" d="M86.2,41.1C78.3,25,47.5,20.9,31.3,31.2c16.4-8.4,44.2-4,51.6,11.1c-0.2-0.1-0.4-0.3-0.7-0.4
						c-0.1-0.1-0.2-0.1-0.4-0.2c-1.7-1-3.6-1.9-5.4-2.6c-3.2-1.3-6.3-2-8.2-2.4c-1-0.2-2-0.4-3-0.5c-0.4-0.1-0.8-0.1-1.3-0.1
						c-0.1,0-0.2,0-0.4,0c-3-0.2-5.9-0.1-8.6,0.5c0,0,0,0,0,0c-0.3,0.1-0.6,0.1-0.8,0.2c0,0-0.1,0-0.1,0c-0.3,0.1-0.5,0.2-0.8,0.2
						c0,0-0.1,0-0.1,0c-0.2,0.1-0.5,0.2-0.7,0.3c0,0-0.1,0-0.1,0.1c-0.2,0.1-0.5,0.2-0.7,0.3c0,0-0.1,0-0.1,0.1
						c-0.2,0.1-0.4,0.2-0.7,0.3c0,0-0.1,0-0.1,0.1c-0.3,0.1-0.5,0.3-0.7,0.4c-0.3,0.2-0.6,0.4-0.9,0.6c-0.1,0.1-0.2,0.2-0.3,0.3
						c-0.1,0.1-0.3,0.2-0.4,0.4c-0.9,0.8-1.4,1.7-1.6,2.5c-0.1,0.3-0.1,0.6,0,0.9c0,0-0.9,0.3-2.1,1c-0.3,0.2-0.7,0.4-1,0.6
						c-0.1,0.1-0.2,0.1-0.3,0.2c-0.3,0.2-0.7,0.5-1,0.8c-0.1,0.1-0.2,0.2-0.3,0.3c-1.9,1.6-3.7,4-3.8,7.3c0,0.3,0,0.7,0,1
						c0.1-0.1,0.1-0.1,0.2-0.2C43,50,50.7,50.1,56,51.9c20.4,7,19.4,37.5-6,49.6c29.2-10.8,35.7-21,36.5-42.8
						C86.6,53.5,86.2,41.1,86.2,41.1z M49,42.6c0.6-0.4,5.1-2,5.1-2C52.6,42,50.7,44.5,49,42.6z"/>
					<path class="st9" d="M30.2,67.5c5.7,4.1,16,7.2,20.7,0.2c0.3-0.4,0.5-0.9,0.7-1.3c-0.9,1.1-2.2,2.1-3.9,2.8
						c-11.8,4.5-26.4-11.8-30.6-21.1c1.1,3.5,2.7,7.1,4.7,10.3C24.1,62,26.9,65.1,30.2,67.5z"/>
					<path class="st9" d="M43.6,45C43.6,45,43.6,45,43.6,45c-0.1-0.1-0.1-0.1-0.2-0.1c-0.2-0.2-0.4-0.3-0.6-0.5c0,0-0.1,0-0.1-0.1
						c-0.1,0-0.1-0.1-0.2-0.1c-0.2-0.1-0.4-0.2-0.5-0.3c-0.1-0.1-0.2-0.1-0.3-0.2c-0.2-0.1-0.4-0.2-0.6-0.3c-0.1,0-0.2-0.1-0.3-0.1
						c-0.2-0.1-0.4-0.2-0.6-0.3c-0.1,0-0.2-0.1-0.3-0.1c-0.2-0.1-0.5-0.2-0.7-0.3c-0.1,0-0.1,0-0.2-0.1c-0.7-0.2-1.4-0.4-2.1-0.6
						c0,0,0,0-0.1,0c-0.3-0.1-0.7-0.1-1-0.2c-0.1,0-0.2,0-0.3,0c-0.3,0-0.5-0.1-0.8-0.1c-0.1,0-0.2,0-0.3,0c-0.3,0-0.5-0.1-0.8-0.1
						c-0.1,0-0.3,0-0.4,0c-0.3,0-0.5,0-0.8,0c-0.1,0-0.3,0-0.4,0c-0.3,0-0.5,0-0.8,0c-0.1,0-0.2,0-0.3,0c-0.4,0-0.7,0-1.1,0
						c-0.1,0-0.3,0-0.4,0c-0.2,0-0.5,0-0.7,0c-0.2,0-0.3,0-0.5,0c-0.2,0-0.4,0-0.6,0.1c-0.2,0-0.4,0-0.5,0.1c-0.2,0-0.4,0-0.5,0.1
						c-0.2,0-0.4,0.1-0.6,0.1c-0.2,0-0.3,0.1-0.5,0.1c-0.2,0-0.4,0.1-0.6,0.1c-0.2,0-0.3,0.1-0.5,0.1c-0.2,0-0.4,0.1-0.5,0.1
						c-0.2,0-0.3,0.1-0.5,0.1c-0.3,0.1-0.6,0.2-0.9,0.3c-0.2,0.1-0.3,0.1-0.5,0.2c-0.2,0.1-0.3,0.1-0.5,0.2
						c-0.2,0.1-0.3,0.1-0.5,0.2c-0.1,0.1-0.3,0.1-0.4,0.2c-0.2,0.1-0.3,0.1-0.5,0.2c-0.1,0.1-0.3,0.1-0.4,0.2
						c-0.2,0.1-0.3,0.2-0.5,0.2c-0.1,0.1-0.2,0.1-0.3,0.2c-0.2,0.1-0.3,0.2-0.5,0.3c-0.1,0.1-0.2,0.1-0.3,0.2
						c-0.2,0.2-0.5,0.3-0.7,0.5c5.8-4,18.6-3.7,24.6,1c0.4-0.3,0.7-0.6,1-0.8C43.4,45.2,43.5,45.1,43.6,45z"/>
					<path class="st3" d="M44.9,32.1c4.5-0.2,8.7,0.3,12.5,1.5c0,0,0,0,0,0c1-0.1,2.1-0.2,3.1-0.2c7.5-0.1,17.8,3,22.4,9
						c-7.4-15.1-35.2-19.5-51.6-11.1c-1.2,0.6-2.4,1.3-3.5,2.1c-4.2,3-7.7,6.9-10.2,11.8C23.9,37.7,34.1,32.6,44.9,32.1z"/>
					<path class="st3" d="M82.9,42.7c-1.6-1-3.1-1.7-5.4-2.6C79.3,40.9,81.2,41.7,82.9,42.7z"/>
					<path class="st3" d="M64.7,37.1C64.7,37.2,64.7,37.2,64.7,37.1c0.1,0,0.3,0,0.4,0C64.9,37.2,64.8,37.2,64.7,37.1
						C64.7,37.1,64.7,37.1,64.7,37.1z"/>
					<path class="st3" d="M39,42.6c-0.7-0.2-1.4-0.4-2.1-0.6C37.6,42.2,38.3,42.4,39,42.6z"/>
					<path class="st3" d="M42.8,44.5C42.8,44.5,42.8,44.4,42.8,44.5c0.2,0.1,0.4,0.3,0.6,0.4c0,0,0,0,0,0
						C43.2,44.8,43,44.6,42.8,44.5z"/>
					<path class="st3" d="M42,43.9C42,43.9,42,43.9,42,43.9c0.1,0.1,0.3,0.2,0.5,0.3c-0.1-0.1-0.2-0.2-0.4-0.2
						C42.1,44,42.1,44,42,43.9z"/>
					<path class="st12" d="M18.5,44.4c0.2-0.1,0.3-0.2,0.5-0.3c0.1-0.1,0.2-0.1,0.3-0.2c0.1-0.1,0.3-0.2,0.5-0.2
						c0.1-0.1,0.3-0.1,0.4-0.2c0.2-0.1,0.3-0.1,0.5-0.2c0.1-0.1,0.3-0.1,0.4-0.2c0.2-0.1,0.3-0.1,0.5-0.2c0.2-0.1,0.3-0.1,0.5-0.2
						c0.2-0.1,0.3-0.1,0.5-0.2c0.3-0.1,0.6-0.2,0.9-0.3c0.2,0,0.3-0.1,0.5-0.1c0.2,0,0.4-0.1,0.5-0.1c0.2,0,0.3-0.1,0.5-0.1
						c0.2,0,0.4-0.1,0.6-0.1c0.2,0,0.3-0.1,0.5-0.1c0.2,0,0.4-0.1,0.6-0.1c0.2,0,0.4,0,0.5-0.1c0.2,0,0.4,0,0.5-0.1
						c0.2,0,0.4,0,0.6-0.1c0.2,0,0.3,0,0.5,0c0.2,0,0.5,0,0.7,0c0.1,0,0.3,0,0.4,0c0.4,0,0.7,0,1.1,0c0.1,0,0.2,0,0.3,0
						c0.3,0,0.5,0,0.8,0c0.1,0,0.3,0,0.4,0c0.3,0,0.5,0,0.8,0c0.1,0,0.3,0,0.4,0c0.3,0,0.5,0,0.8,0.1c0.1,0,0.2,0,0.3,0
						c0.3,0,0.5,0.1,0.8,0.1c0.1,0,0.2,0,0.3,0c0.3,0.1,0.7,0.1,1,0.2c0,0,0,0,0.1,0c0.7,0.2,1.4,0.3,2.1,0.6c0.1,0,0.1,0,0.2,0.1
						c0.3,0.1,0.5,0.2,0.7,0.3c0.1,0,0.2,0.1,0.3,0.1c0.2,0.1,0.4,0.2,0.6,0.3c0.1,0,0.2,0.1,0.3,0.1c0.2,0.1,0.4,0.2,0.6,0.3
						c0.1,0.1,0.2,0.1,0.3,0.2c0,0,0,0,0.1,0c0,0,0.1,0,0.1,0.1c0.1,0.1,0.2,0.2,0.4,0.2c0.1,0,0.1,0.1,0.2,0.1c0,0,0.1,0,0.1,0.1
						c0,0,0,0,0.1,0c0.2,0.1,0.4,0.3,0.6,0.4c0,0,0,0,0,0c0.1,0,0.1,0.1,0.1,0.1c0,0,0,0,0,0c0.4-0.2,0.7-0.5,1-0.6
						c1.2-0.7,2.1-1,2.1-1c-0.1-0.3-0.1-0.6,0-0.9c0.2-0.8,0.8-1.7,1.6-2.5c0.1-0.1,0.3-0.2,0.4-0.4c0,0,0,0,0,0
						c0.1-0.1,0.2-0.2,0.4-0.3c0.3-0.2,0.6-0.4,0.9-0.6c0.2-0.2,0.5-0.3,0.7-0.4c0,0,0.1,0,0.1-0.1c0.2-0.1,0.4-0.2,0.7-0.3
						c0,0,0.1,0,0.1-0.1c0.2-0.1,0.4-0.2,0.7-0.3c0,0,0.1,0,0.1-0.1c0.2-0.1,0.5-0.2,0.7-0.3c0,0,0.1,0,0.1,0
						c0.3-0.1,0.5-0.2,0.8-0.2c0,0,0.1,0,0.1,0c0.3-0.1,0.6-0.1,0.8-0.2c0,0,0,0,0,0c2.6-0.6,5.5-0.7,8.5-0.5c0,0,0,0,0,0
						c0.1,0,0.2,0,0.3,0c0.4,0,0.8,0.1,1.3,0.1c1,0.1,2,0.3,3,0.5c1.9,0.4,5,1.1,8.2,2.4c2.3,0.8,3.8,1.6,5.4,2.6
						c0.1,0.1,0.2,0.1,0.4,0.2c0.2,0.1,0.4,0.3,0.7,0.4c-4.6-6-14.8-9-22.4-9c-1,0-2.1,0.1-3.1,0.2c0,0,0,0,0,0
						c-3.1,0.3-6.1,1.2-8.7,2.8c-0.4,0.2-0.7,0.5-1.1,0.8c-0.3,0.3-0.7,0.5-1,0.8c-0.3,0.2-0.5,0.5-0.7,0.7c0.1,0,0.2,0,0.3,0.1
						c-8.9-1.9-22.3,0.3-28.6,6.2c0.2-0.2,0.4-0.3,0.7-0.5C18.3,44.5,18.4,44.5,18.5,44.4z"/>
					<path class="st12" d="M44.2,53.2c0.1,0,0.2,0,0.2,0C44.4,53.2,44.4,53.2,44.2,53.2C44.3,53.2,44.3,53.2,44.2,53.2z"/>
					<path class="st12" d="M23.5,81.9c2.7,3.6,8.5,6.5,13.5,6.5c10.4,0,18.8-8.4,18.8-18.8c0-4.5-2-9.7-5.5-13.4
						c-0.1-0.1-0.1-0.1-0.2-0.2c1.6,1.7,2.5,3.9,2.5,6.4c0,1.4-0.3,2.7-0.9,3.9c-0.2,0.5-0.5,0.9-0.7,1.3c-4.8,7-15.1,3.9-20.7-0.2
						c-3.3-2.4-6.1-5.5-8.4-9.1c-2.1-3.3-3.7-6.8-4.7-10.3C16.8,62.5,17.8,73.1,23.5,81.9z"/>
					<path class="st9" d="M42,53.2c0.1,0,0.3,0,0.4,0c-0.1,0-0.2,0-0.3,0C42.1,53.2,42,53.2,42,53.2z"/>
					<path class="st9" d="M36.4,94.2c-2.8-1.9-5.3-3.8-7.3-5.7c0.1,0.1,0.2,0.2,0.3,0.3c-0.2-0.1-0.3-0.3-0.5-0.4
						c0.1,0.1,0.1,0.1,0.2,0.2c-0.4-0.4-0.8-0.8-1.2-1.2c0,0,0,0-0.1-0.1c-1.6-1.7-3-3.4-4.2-5.3c3.4,4.6,8.9,7.5,15,7.5
						c10.4,0,18.8-8.4,18.8-18.8c0-7.1-5.4-16.6-13-17.5c0.1,0,0.1,0,0.2,0c0.2,0,0.4,0.1,0.7,0.1c0.1,0,0.2,0.1,0.3,0.1
						c0.2,0.1,0.4,0.1,0.6,0.2c0.1,0,0.2,0.1,0.3,0.1c0.2,0.1,0.4,0.1,0.6,0.2c0.1,0,0.2,0.1,0.3,0.2c0.2,0.1,0.4,0.2,0.5,0.3
						c0.1,0.1,0.2,0.1,0.3,0.2c0.2,0.1,0.3,0.2,0.5,0.3c0.1,0.1,0.2,0.1,0.3,0.2c0.1,0.1,0.3,0.2,0.4,0.4c0.1,0.1,0.2,0.2,0.3,0.3
						c0.1,0.1,0.2,0.2,0.4,0.4c0.1,0.1,0.1,0.1,0.2,0.2c3.5,3.6,5.5,8.9,5.5,13.4c0,10.4-8.4,18.8-18.8,18.8c-5,0-10.7-2.9-13.5-6.5
						c-5.8-8.8-6.7-19.4-6.4-33.8c-0.6,26.1,2.4,39,30.7,52.4c-4.5-2.1-8.4-4.3-11.7-6.5C36.3,94.1,36.4,94.1,36.4,94.2z"/>
					<path class="st9" d="M40.7,53.6c0.3-0.1,0.7-0.2,1-0.3c-0.4,0.1-0.7,0.1-1,0.2C40.7,53.5,40.7,53.5,40.7,53.6z"/>
					<path class="st3" d="M66,81.4c7.8-20.7-13.6-36-27.8-26.8c0.3-0.2,0.5-0.3,0.8-0.5c0.1,0,0.1-0.1,0.2-0.1
						c0.3-0.1,0.6-0.3,0.8-0.4c0,0,0.1,0,0.1-0.1c0.2-0.1,0.4-0.1,0.6-0.2c0.3-0.1,0.7-0.2,1-0.2c0.1,0,0.1,0,0.2,0c0,0,0.1,0,0.1,0
						c0.1,0,0.2,0,0.3,0c0.1,0,0.2,0,0.2,0c0.2,0,0.4,0,0.6,0c0.3,0,0.6,0,1,0.1c0,0,0.1,0,0.1,0c0,0,0,0,0.1,0
						c7.6,0.9,13,10.4,13,17.5c0,10.3-8.4,18.8-18.8,18.8c-6.2,0-11.6-3-15-7.5c1.2,1.8,2.6,3.6,4.2,5.3c0,0,0,0,0.1,0.1
						c0.4,0.4,0.8,0.8,1.2,1.2c0,0,0,0,0,0c2.1,2,4.5,3.9,7.3,5.7c3.8,2.5,8.2,4.9,13.6,7.3C57.6,97.8,62.9,89.4,66,81.4z"/>
					<path class="st5" d="M56,51.9c-5.3-1.8-13-1.9-17.7,2.6c-0.1,0.1-0.1,0.1-0.2,0.2c14.2-9.2,35.6,6.1,27.8,26.8
						c-3,8-8.3,16.4-16,20.1C75.4,89.3,76.4,58.9,56,51.9z"/>
					<path class="st13" d="M56.1,37.6c-0.3,0.1-0.6,0.1-0.8,0.2"/>
					<path class="st13" d="M50.8,38.2c-0.3,0.1-0.5,0.3-0.7,0.4"/>
					<path class="st13" d="M55.2,37.9c-0.3,0.1-0.5,0.2-0.8,0.2"/>
					<path class="st13" d="M51.6,37.8c-0.2,0.1-0.4,0.2-0.7,0.3"/>
					<path class="st5" d="M56.1,37.6c2.6-0.6,5.5-0.7,8.6-0.5c0,0,0,0,0,0C61.7,36.9,58.7,37,56.1,37.6z"/>
					<path class="st13" d="M52.4,37.5c-0.2,0.1-0.5,0.2-0.7,0.3"/>
					<path class="st13" d="M54.3,38.1c-0.2,0.1-0.5,0.2-0.7,0.3"/>
					<path class="st5" d="M46.2,38.8c-0.1,0-0.2,0-0.3-0.1c0.2-0.3,0.5-0.5,0.7-0.7c0.3-0.3,0.6-0.6,1-0.8c0.4-0.3,0.7-0.5,1.1-0.8
						c2.6-1.6,5.6-2.5,8.7-2.8c-3.8-1.1-8-1.7-12.5-1.5c-10.7,0.5-21,5.5-27.3,13C23.9,39.1,37.2,37,46.2,38.8z"/>
					<path class="st5" d="M48.8,39.6c0.1-0.1,0.2-0.2,0.3-0.3C49.1,39.4,48.9,39.5,48.8,39.6C48.8,39.6,48.8,39.6,48.8,39.6z"/>
					<path class="st5" d="M54,40.6c0,0-4.5,1.6-5.1,2C50.7,44.5,52.6,42,54,40.6z"/>
				</g>
			</g>
		</g>
	</g>
</g>
<g id="_x31_-COLOR_BLK">
</g>
</svg>
