<?xml version="1.0" encoding="utf-8"?>
<!-- Generator: Adobe Illustrator 24.0.1, SVG Export Plug-In . SVG Version: 6.00 Build 0)  -->
<!-- SVG made by yourforcesupport.com -  Powerful Websites for the Modern Force Support Squadron US Forces -->
<svg version="1.1" xmlns="http://www.w3.org/2000/svg" xmlns:xlink="http://www.w3.org/1999/xlink" x="0px" y="0px"
	 viewBox="0 0 101.3 129.6" style="enable-background:new 0 0 101.3 129.6;" xml:space="preserve">
<style type="text/css">
	.st0{fill:#002F87;}
	.st1{fill:none;}
	.st2{fill:#BC2F2C;}
	.st3{fill:#D0CFCD;}
	.st4{clip-path:url(#SVGID_2_);}
	.st5{fill:none;stroke:#002F87;stroke-width:1.1098;stroke-miterlimit:10;}
</style>
<g id="VERT_1_COLOR_BLK">
</g>
<g id="VERT_FULL_COLOR">
	<g>
		<path class="st0" d="M14,16.3H8.6l-1,2.6h-2L9.7,7h3.1L17,18.8h-2L14,16.3z M9.3,14.4h4l-2-5.5L9.3,14.4z"/>
		<path class="st0" d="M18.5,7h2.1v11.9h-2.1V7z"/>
		<path class="st0" d="M30.5,14l2.2,4.9h-2.2l-2.1-4.6H25v4.6h-2.1V7h5.7c2.5,0,4,1.3,4,3.4v0.5C32.7,12.4,31.9,13.5,30.5,14z
			 M30.6,10.3c0-0.9-0.6-1.4-1.8-1.4H25v3.5h3.8c1.2,0,1.8-0.5,1.8-1.4V10.3z"/>
		<path class="st0" d="M41.1,8.9v3.6h6v1.9h-6v4.5H39V7h8.7v1.9H41.1z"/>
		<path class="st0" d="M49.2,15v-4.1c0-2.6,1.8-4.1,5.4-4.1c3.5,0,5.4,1.6,5.4,4.1V15c0,2.5-1.8,4.1-5.4,4.1
			C51,19.1,49.2,17.5,49.2,15z M57.9,14.8v-3.7c0-1.5-1-2.4-3.3-2.4c-2.3,0-3.3,0.9-3.3,2.4v3.7c0,1.5,1,2.4,3.3,2.4
			C56.9,17.2,57.9,16.3,57.9,14.8z"/>
		<path class="st0" d="M69.6,14l2.2,4.9h-2.2l-2.1-4.6h-3.4v4.6h-2.1V7h5.7c2.5,0,4,1.3,4,3.4v0.5C71.8,12.4,71,13.5,69.6,14z
			 M69.7,10.3c0-0.9-0.6-1.4-1.8-1.4h-3.8v3.5h3.8c1.2,0,1.8-0.5,1.8-1.4V10.3z"/>
		<path class="st0" d="M73.4,15v-4.1c0-2.5,1.8-4.1,5.3-4.1c3.5,0,5.3,1.6,5.3,4.1v0.6h-2.2V11c0-1.5-1-2.4-3.1-2.4
			c-2.2,0-3.3,0.9-3.3,2.4v3.7c0,1.5,1,2.4,3.3,2.4c2.2,0,3.1-0.9,3.1-2.4v-0.4h2.2V15c0,2.5-1.8,4.1-5.3,4.1S73.4,17.5,73.4,15z"/>
		<path class="st0" d="M88.3,8.9v3.2h5.9V14h-5.9v2.9h6.6v1.9h-8.7V7h8.7v1.9H88.3z"/>
	</g>
</g>
<g id="REVERSE">
</g>
<g id="FULL_COLOR">
	<g>
		<path class="st1" d="M1.5,8.4v113.7c0,4.1,3.3,7.4,7.4,7.4h85.1c4.1,0,7.4-3.3,7.4-7.4V8.4c0-4.1-3.3-7.4-7.4-7.4H8.8
			C4.8,1,1.5,4.4,1.5,8.4z"/>
		<g>
			<path class="st2" d="M37,73.2c0.9,0.8,2,1.5,3.1,2.2c10.2,5.9,23.4,2.4,29.3-7.9c1.3-2.3,2.2-4.7,2.6-7.2l0,0
				c0.3-1.7,0.5-3.4,0.5-5.1c0-14.4-11.6-26-26-26c-2,0-3.9,0.2-5.7,0.6c1.4-0.6,2.4-2.1,2.4-3.7c0-0.4-0.1-0.8-0.2-1.1
				c1.2-0.3,2.5-0.5,3.7-0.7c0.1,2.1,1.9,3.8,4,3.8c2.2,0,3.9-1.7,4-3.8c1.2,0.1,2.3,0.3,3.4,0.6C58.1,25.2,58,25.6,58,26
				c0,2.2,1.8,4.1,4.1,4.1c1.7,0,3.1-1,3.7-2.4c0.9,0.5,1.8,1,2.7,1.6c-0.5,0.7-0.8,1.5-0.8,2.4c0,2.2,1.8,4.1,4.1,4.1
				c1.2,0,2.2-0.5,2.9-1.3c0.7,0.7,1.3,1.5,1.9,2.3c-1.1,0.7-1.8,2-1.8,3.4c0,2.2,1.8,4.1,4.1,4.1c0.7,0,1.3-0.2,1.8-0.4
				c0.4,1,0.8,2,1.1,3c-1.8,0.4-3.1,2-3.1,3.9c0,2.2,1.8,4.1,4.1,4.1c0.2,0,0.3,0,0.5,0c0,0.6,0.1,1.2,0.1,1.9c0,0.6,0,1.2,0,1.8
				c-0.2,0-0.3,0-0.5,0c-1.9,0-3.6,1.4-4,3.2c-0.6,1.8-1.2,3.5-2.2,5.2c-7.2,12.5-23.1,16.7-35.5,9.5C39.6,75.3,38.2,74.3,37,73.2
				L37,73.2z"/>
			<path class="st0" d="M71.4,60.8c0.2-1.2,0.3-2.5,0.3-3.7c0-11.9-9.6-21.5-21.4-21.5c-2.7,0-5.2,0.5-7.5,1.4l0,0
				c-1.6,0.5-3.2,1.2-4.7,2.1c-12.4,7.2-16.7,23.1-9.5,35.6c1,1.7,2.1,3.2,3.4,4.6c-1.3-0.9-3-1.1-4.4-0.2c-0.3,0.2-0.6,0.4-0.9,0.7
				c-0.9-0.9-1.7-1.9-2.4-2.9c1.8-1.2,2.4-3.5,1.3-5.4c-1.1-1.9-3.4-2.6-5.3-1.6c-0.5-1.1-0.8-2.2-1.2-3.3c0.4-0.1,0.7-0.2,1.1-0.4
				c1.9-1.1,2.6-3.6,1.5-5.5c-0.8-1.4-2.4-2.2-3.9-2c0-1,0-2.1,0-3.1c0.8,0.1,1.7-0.1,2.5-0.5c1.9-1.1,2.6-3.6,1.5-5.5
				c-0.6-1-1.5-1.7-2.6-1.9c0.3-1,0.6-1.9,1-2.8c1.2,0.6,2.6,0.6,3.8-0.1c1.9-1.1,2.6-3.6,1.5-5.5c-0.3-0.6-0.8-1-1.3-1.4
				c0.6-0.9,1.3-1.7,2.1-2.5c1.3,1.3,3.3,1.7,4.9,0.7c1.9-1.1,2.6-3.6,1.5-5.5c-0.1-0.1-0.2-0.3-0.3-0.4c0.5-0.3,1-0.7,1.6-1
				c0.5-0.3,1-0.6,1.6-0.8c0.1,0.1,0.1,0.3,0.2,0.4c1,1.7,3,2.4,4.7,1.8c1.8-0.4,3.7-0.7,5.6-0.7c14.4,0,26,11.7,26,26
				C72,57.4,71.8,59.1,71.4,60.8L71.4,60.8z"/>
			<path class="st3" d="M43.4,37.2c-1.2,0.4-2.3,0.9-3.4,1.6c-10.2,5.9-13.8,19.1-7.8,29.3c1.3,2.3,3,4.3,4.9,5.8l0,0
				c1.3,1.1,2.7,2.1,4.2,3c12.4,7.2,28.3,2.9,35.5-9.5c1-1.7,1.7-3.5,2.3-5.3c-0.2,1.5,0.6,3.1,2,4c0.3,0.2,0.7,0.3,1,0.4
				c-0.3,1.2-0.8,2.4-1.3,3.6c-1.9-1-4.2-0.3-5.3,1.6c-1.1,1.9-0.5,4.2,1.3,5.4c-0.7,0.9-1.5,1.8-2.2,2.7c-0.3-0.3-0.6-0.5-0.9-0.7
				c-1.9-1.1-4.4-0.5-5.5,1.5c-0.8,1.4-0.7,3.2,0.2,4.4c-0.9,0.6-1.8,1.1-2.7,1.5c-0.3-0.8-0.9-1.4-1.7-1.9
				c-1.9-1.1-4.4-0.5-5.5,1.5c-0.6,1-0.7,2.1-0.4,3.2c-1,0.2-2,0.4-3,0.5c-0.1-1.3-0.8-2.5-2-3.2c-1.9-1.1-4.4-0.5-5.5,1.5
				c-0.3,0.6-0.5,1.2-0.5,1.8c-1.1-0.1-2.1-0.3-3.2-0.5c0.5-1.8-0.2-3.7-1.9-4.6c-1.9-1.1-4.4-0.5-5.5,1.5c-0.1,0.1-0.2,0.3-0.2,0.4
				c-0.6-0.3-1.1-0.6-1.6-0.9c-0.5-0.3-1-0.6-1.5-0.9c0.1-0.1,0.2-0.3,0.3-0.4c1-1.7,0.6-3.8-0.8-5c-1.3-1.4-2.4-2.8-3.4-4.5
				c-7.2-12.5-2.9-28.4,9.5-35.6C40.2,38.4,41.8,37.7,43.4,37.2L43.4,37.2z"/>
		</g>
		<g>
			<defs>
				<path id="SVGID_1_" d="M0.5,7.4v113.7c0,4.1,3.3,7.4,7.4,7.4h85.1c4.1,0,7.4-3.3,7.4-7.4V7.4c0-4.1-3.3-7.4-7.4-7.4H7.8
					C3.8,0.1,0.5,3.4,0.5,7.4z"/>
			</defs>
			<clipPath id="SVGID_2_">
				<use xlink:href="#SVGID_1_"  style="overflow:visible;"/>
			</clipPath>
			<g class="st4">
				<path class="st0" d="M166.1,27.1L78,35.8c2.4,3,4.2,6.5,5.5,10.2l69.6-7.8L166.1,27.1z"/>
				<path class="st0" d="M92.8,71.9l16.1-11.2l-24.3,3.5c-0.7,3.4-1.9,6.6-3.6,9.6L92.8,71.9z"/>
				<path class="st0" d="M85.2,60.4l36.2-4.8l15.9-10.8l-52.6,5.6c0.4,2.2,0.7,4.4,0.7,6.7C85.4,58.2,85.3,59.3,85.2,60.4"/>
				<path class="st0" d="M-64.7,27.1l13,11.1L17.8,46c1.3-3.7,3.1-7.2,5.5-10.2L-64.7,27.1z"/>
				<path class="st0" d="M-7.6,60.7L8.6,71.9l11.8,1.9c-1.6-3-2.9-6.2-3.6-9.6L-7.6,60.7z"/>
				<path class="st0" d="M16.7,50.3l-52.6-5.6L-20,55.6l36.2,4.8c-0.1-1.1-0.2-2.2-0.2-3.3C16,54.8,16.2,52.5,16.7,50.3"/>
			</g>
		</g>
		<g>
			<path class="st0" d="M29.9,106.9h-6.1l-0.8,2.5h-3l4.6-14h4.7l4.6,14h-3L29.9,106.9z M26.9,98.1l-2.1,6h4.2L26.9,98.1z"/>
			<path class="st0" d="M36.6,104.7v-9.4h3.1v9.2c0,1.4,1.2,2.4,3.3,2.4c2.1,0,3.3-0.9,3.3-2.4v-9.2h3.1v9.4c0,3-2.4,4.9-6.3,4.9
				C38.9,109.6,36.6,107.7,36.6,104.7z"/>
			<path class="st0" d="M64.2,98.1h-4.4v11.3h-3.1V98.1h-4.4v-2.8h11.9V98.1z"/>
			<path class="st0" d="M67.2,104.7v-4.9c0-3,2.4-4.9,6.6-4.9s6.6,1.9,6.6,4.9v4.9c0,3-2.4,4.9-6.5,4.9
				C69.6,109.6,67.2,107.7,67.2,104.7z M77.3,104.5v-4.3c0-1.4-1.1-2.4-3.5-2.4c-2.4,0-3.5,0.9-3.5,2.4v4.3c0,1.4,1.1,2.4,3.5,2.4
				C76.2,106.9,77.3,105.9,77.3,104.5z"/>
		</g>
		<g>
			<path class="st0" d="M29.8,113v11.1h-1.4v-4.8h-6.3v4.8h-1.4V113h1.4v5h6.3v-5H29.8z"/>
			<path class="st0" d="M33.8,120.5v-3.8c0-2.4,1.6-3.9,4.9-3.9s4.9,1.5,4.9,3.9v3.8c0,2.4-1.5,3.8-4.9,3.8S33.8,122.9,33.8,120.5z
				 M42.1,120.4v-3.5c0-1.8-1-2.7-3.5-2.7c-2.5,0-3.5,1-3.5,2.7v3.5c0,1.7,1,2.7,3.5,2.7C41.1,123,42.1,122.1,42.1,120.4z"/>
			<path class="st0" d="M56.4,120.5v0.8c0,1.7-1.3,2.8-3.2,2.8h-5.7V113h5.3c1.9,0,3.2,0.9,3.2,2.5v0.7c0,0.8-0.4,1.5-1,1.9
				C55.9,118.7,56.4,119.5,56.4,120.5z M48.9,114.3v3.5h4c1.1,0,1.8-0.4,1.8-1.5v-0.7c0-0.9-0.7-1.3-1.8-1.3H48.9z M55,120.5
				c0-1-0.7-1.5-1.8-1.5h-4.3v3.9h4.3c1.2,0,1.8-0.6,1.8-1.5V120.5z"/>
			<path class="st0" d="M69.3,120.5v0.8c0,1.7-1.3,2.8-3.2,2.8h-5.7V113h5.3c1.9,0,3.2,0.9,3.2,2.5v0.7c0,0.8-0.4,1.5-1,1.9
				C68.8,118.7,69.3,119.5,69.3,120.5z M61.7,114.3v3.5h4c1.1,0,1.8-0.4,1.8-1.5v-0.7c0-0.9-0.7-1.3-1.8-1.3H61.7z M67.9,120.5
				c0-1-0.7-1.5-1.8-1.5h-4.3v3.9h4.3c1.2,0,1.8-0.6,1.8-1.5V120.5z"/>
			<path class="st0" d="M77.2,120v4.2h-1.4V120l-4.1-7h1.5l3.2,5.4l3.3-5.4h1.5L77.2,120z"/>
		</g>
		<path class="st5" d="M93,129H7.9c-4.1,0-7.4-3.3-7.4-7.4V7.9c0-4.1,3.3-7.4,7.4-7.4H93c4.1,0,7.4,3.3,7.4,7.4v113.7
			C100.4,125.7,97.1,129,93,129z"/>
		<g>
			<g>
				<path d="M58,64l-0.5-0.5L46.6,52.7l-3.5-3.5c-0.3-0.3-0.7-0.3-1,0c-0.3,0.3-0.3,0.7,0,1l0,0L57,65c0,0,0.1,0.1,0.1,0.1
					c0.1,0.1,0.3,0.1,0.4,0.1c0.2,0,0.3-0.1,0.5-0.2C58.3,64.7,58.3,64.2,58,64z"/>
				<path d="M63.3,72c-0.2-0.1-0.3-0.2-0.4-0.2c0,0-0.1,0-0.1-0.1l0,0c-0.6-0.3-1.3-0.7-1.9-1.1c-0.8-0.6-0.7-1.2-0.5-2.1
					c0,0,0,0,0,0c0.1-0.2,0.1-0.3,0.2-0.5c0.3-0.7,0.8-1.3,1.5-1.5c0.5-0.2,1,0,1.4,0.2c0.6,0.3,1.1,0.7,1.6,1.1
					c0.3,0.2,0.8,0.6,1.1,0.6c0.3,0-0.2-1.2-0.3-1.3c-0.4-0.9-1-1.8-1.8-2.5c-0.9-0.8-1.9-1.3-3.1-1.2c-0.7,0.3-1.3,0.6-1.8,1
					c0.4-0.4,0.8-0.8,1.2-1.1c0,0-0.1,0-0.1,0c-0.8-0.1-1.5-0.4-2.1-0.9c0,0-0.1,0-0.1-0.1c-0.2-0.1-0.3-0.3-0.5-0.4
					c-0.4-0.4-0.8-0.7-1.1-1.1c-0.3-0.3-0.8-0.8-1.3-1.2c0,0-8.3-8.2-8.3-8.2c-0.9-0.9-1.5-1.6-2.4-2.6c-0.2-0.2-0.4-0.5-0.6-0.7
					c-0.1-0.2-0.2-0.3-0.3-0.5c-0.1-0.3-0.3-0.5-0.4-0.8c-0.1-0.2-0.1-0.5-0.2-0.8c-0.1,0.4-0.3,0.7-0.7,1.1
					c0.3-0.6,0.4-1.2,0.5-1.9c-0.1-0.6-0.4-1.7-1.2-2.3c-0.7-0.6-1.7-0.9-2.6-0.9c-0.5,0-1,0-1.5,0c-0.2,0-0.4,0.1-0.6,0.1
					c0,0,0,0-0.1,0c-0.1,0-0.4,0.1-0.2,0.3c0.2,0.2,0.5,0.3,0.7,0.4c0,0,0.1,0,0.1,0.1c0.4,0.2,0.7,0.4,1.1,0.6
					c0.3,0.2,0.5,0.3,0.8,0.5c0.3,0.2,0.4,0.4,0.5,0.7c0.1,0.2,0.1,0.4,0.1,0.5c0.1,1.1-0.9,2.5-2,2.8c-0.5,0.1-0.9-0.2-1.3-0.5
					c-0.4-0.3-0.9-0.6-1.3-0.9c-0.1-0.1-0.2-0.1-0.3-0.2c-0.1,0-0.3-0.2-0.4-0.3c-0.2-0.1-0.4-0.1-0.4,0c-0.1,0.3,0.1,0.8,0.3,1.2
					c0.1,0.2,0.2,0.3,0.3,0.5c0,0,0,0.1,0,0.1c0.4,0.8,1,1.6,1.8,2.1c0.7,0.4,1.4,0.5,1.7,0.5c0.4-0.1,1.4-0.5,2.3-1.5
					c-0.1,0.4-1.1,1.4-1.5,1.7c1.6,0.3,2.9,1.4,4,2.6c0.2,0.2,0.4,0.4,0.6,0.6c0.2,0.2,0.3,0.3,0.5,0.5c0,0,0,0,0,0
					c0.1,0.1,8.6,8.6,8.6,8.6c1,1,2,2,2.7,3.2c0.1,0.2,0.2,0.4,0.3,0.6c0.1,0.2,0.2,0.4,0.3,0.6l0,0c0.1,0.2,0.1,0.3,0.2,0.5
					c0.2-0.6,0.5-1.2,1.1-1.7c-0.7,1.2-0.9,2.2-0.9,2.5c0.1,1,0.3,2,1,2.8l0,0c0,0.1,0.1,0.1,0.1,0.2c0.8,0.8,1.7,1.1,2.8,1.2l0,0
					c0.4,0,0.8,0,1.2,0c0.1,0,0.3,0,0.4,0c0.1,0,0.2,0,0.3,0c0.4,0,0.8-0.1,1.1-0.3C64,72.4,63.6,72.2,63.3,72z M57.6,65.5
					c-0.2,0-0.4,0-0.6-0.2c-0.1,0-0.1-0.1-0.2-0.1L41.9,50.5l0,0c-0.4-0.4-0.4-1.1,0-1.5c0.4-0.4,1.1-0.4,1.5,0l3.5,3.5l10.8,10.7
					l0.5,0.5c0.4,0.4,0.4,1.1,0,1.5C58.1,65.4,57.8,65.5,57.6,65.5z"/>
			</g>
			<g>
				<path d="M59,49.4c-0.3-0.3-0.7-0.3-1,0l0,0l-7.2,6.7l1,0.9l3.5-3.3l3.7-3.4C59.2,50.1,59.2,49.7,59,49.4z"/>
				<path d="M49,57.7l-6.4,5.9c0,0-0.1,0.1-0.1,0.1c-0.1,0.1-0.1,0.3-0.1,0.4c0,0.2,0.1,0.3,0.2,0.5c0.3,0.3,0.7,0.3,1,0l0.5-0.5
					l5.9-5.5L49,57.7z"/>
				<path d="M50.2,59l-5.8,5.4l-0.5,0.5c-0.4,0.4-1.1,0.4-1.5-0.1c-0.2-0.2-0.3-0.4-0.3-0.7c0-0.2,0.1-0.4,0.2-0.6
					c0-0.1,0.1-0.1,0.2-0.2l6.3-5.8l-1-0.3c-1.6,1.5-3,2.7-3,2.7c-1,0.9-2.1,1.9-3.3,2.6c-0.2,0.1-0.4,0.2-0.6,0.3
					c-0.2,0.1-0.4,0.2-0.6,0.3l0,0c-0.2,0.1-0.3,0.1-0.5,0.1c0.5,0.2,1.2,0.5,1.6,1.1c-1.2-0.8-2.2-0.9-2.5-1c-1,0-2,0.2-2.9,0.9
					l0,0c-0.1,0-0.1,0.1-0.2,0.1c-0.8,0.7-1.2,1.7-1.3,2.7l0,0c-0.1,0.4-0.1,0.8-0.1,1.2c0,0.1,0,0.3,0,0.4c0,0.1,0,0.2,0,0.3
					c0,0.4,0.1,0.8,0.2,1.1c0.1,0.2,0.4-0.2,0.6-0.5c0.1-0.2,0.2-0.3,0.2-0.4c0,0,0-0.1,0.1-0.1l0,0c0.4-0.6,0.7-1.3,1.2-1.8
					c0.6-0.7,1.3-0.7,2.1-0.4c0,0,0,0,0,0c0.2,0.1,0.3,0.1,0.5,0.2c0.6,0.3,1.2,0.9,1.5,1.5c0.2,0.5,0,1-0.3,1.4
					c-0.4,0.5-0.8,1.1-1.1,1.6c-0.2,0.2-0.7,0.7-0.6,1.1c0,0.3,1.2-0.1,1.3-0.2c0.9-0.4,1.8-0.9,2.5-1.7c0.8-0.9,1.3-1.9,1.3-3
					c-0.2-0.7-0.6-1.3-1-1.8c0.4,0.4,0.8,0.8,1.1,1.3c0,0,0-0.1,0-0.1c0.2-0.8,0.5-1.5,1-2.1c0,0,0-0.1,0.1-0.1
					c0.1-0.2,0.3-0.3,0.4-0.5c0.4-0.4,0.8-0.7,1.2-1.1c0.3-0.3,0.8-0.8,1.3-1.2c0,0,1.2-1.1,2.7-2.5L50.2,59z"/>
				<path d="M66.4,45.4c0-0.2-0.1-0.4-0.1-0.6c0,0,0,0,0-0.1c0-0.1-0.1-0.4-0.2-0.2c-0.2,0.2-0.3,0.5-0.4,0.7c0,0,0,0.1-0.1,0.1
					c-0.2,0.4-0.4,0.7-0.7,1.1c-0.2,0.3-0.3,0.5-0.5,0.7c-0.2,0.3-0.4,0.4-0.7,0.5c-0.2,0.1-0.4,0.1-0.5,0.1c-1.1,0-2.4-1-2.7-2.1
					c-0.1-0.5,0.3-0.9,0.5-1.3c0.3-0.4,0.6-0.8,0.9-1.3c0.1-0.1,0.1-0.2,0.2-0.3c0-0.1,0.2-0.2,0.3-0.4c0.1-0.2,0.1-0.3,0-0.4
					c-0.3-0.1-0.8,0-1.2,0.2c-0.2,0.1-0.4,0.2-0.5,0.3c0,0-0.1,0-0.1,0c-0.8,0.4-1.7,1-2.2,1.7c-0.4,0.6-0.6,1.4-0.6,1.7
					c0.1,0.4,0.5,1.5,1.4,2.4c-0.4-0.1-1.3-1.1-1.6-1.6c-0.4,1.6-1.5,2.8-2.8,3.9c-0.2,0.2-0.4,0.4-0.7,0.6
					c-0.2,0.2-0.4,0.3-0.5,0.5c0,0,0,0,0,0c0,0-1.7,1.6-3.6,3.3l0.6,0.7l7.1-6.6l0,0c0.4-0.4,1.1-0.4,1.5,0.1
					c0.4,0.4,0.4,1.1-0.1,1.5L55.5,54l-3.5,3.2l0.7,0.6c2-1.8,3.8-3.6,3.8-3.6c1-0.9,1.6-1.5,2.7-2.3c0.2-0.2,0.5-0.4,0.8-0.5
					c0.2-0.1,0.3-0.2,0.5-0.3c0.3-0.1,0.5-0.2,0.8-0.3c0.3-0.1,0.5-0.1,0.8-0.2c-0.4-0.2-0.7-0.4-1.1-0.7c0.6,0.3,1.2,0.5,1.8,0.6
					c0.6-0.1,1.7-0.4,2.4-1.1c0.6-0.7,0.9-1.6,1-2.5C66.4,46.4,66.4,45.9,66.4,45.4z"/>
			</g>
			<g>
				<path d="M63.7,57.2l-1.5-2.6c-0.1-0.1-0.2-0.2-0.3-0.2h-3c-0.1,0-0.2,0.1-0.3,0.2l-1.5,2.6c-0.1,0.1-0.1,0.3,0,0.3l1.5,2.6
					c0.1,0.1,0.2,0.2,0.3,0.2h3c0.1,0,0.2-0.1,0.3-0.2l1.5-2.6C63.7,57.5,63.7,57.3,63.7,57.2z M60.4,60.2c-1.5,0-2.8-1.2-2.8-2.8
					c0-1.5,1.2-2.8,2.8-2.8c1.5,0,2.8,1.2,2.8,2.8C63.2,58.9,61.9,60.2,60.4,60.2z"/>
				<path d="M60.4,54.9c-1.4,0-2.6,1.1-2.6,2.6c0,1.4,1.1,2.6,2.6,2.6c1.4,0,2.6-1.1,2.6-2.6C63,56,61.8,54.9,60.4,54.9z M60.4,59.2
					c-1,0-1.7-0.8-1.7-1.7c0-1,0.8-1.7,1.7-1.7c1,0,1.7,0.8,1.7,1.7C62.1,58.4,61.4,59.2,60.4,59.2z"/>
			</g>
			<g>
				<path d="M37.2,57.6l1.5,2.6c0.1,0.1,0.2,0.2,0.3,0.2h3c0.1,0,0.2-0.1,0.3-0.2l1.5-2.6c0.1-0.1,0.1-0.3,0-0.3l-1.5-2.6
					c-0.1-0.1-0.2-0.2-0.3-0.2h-3c-0.1,0-0.2,0.1-0.3,0.2l-1.5,2.6C37.1,57.3,37.1,57.5,37.2,57.6z M37.7,57.4
					c0-1.5,1.2-2.8,2.8-2.8c1.5,0,2.8,1.2,2.8,2.8c0,1.5-1.2,2.8-2.8,2.8C38.9,60.2,37.7,58.9,37.7,57.4z"/>
				<path d="M37.9,57.4c0,1.4,1.1,2.6,2.6,2.6c1.4,0,2.6-1.1,2.6-2.6c0-1.4-1.1-2.6-2.6-2.6C39,54.9,37.9,56,37.9,57.4z M38.7,57.4
					c0-1,0.8-1.7,1.7-1.7c1,0,1.7,0.8,1.7,1.7c0,1-0.8,1.7-1.7,1.7C39.5,59.2,38.7,58.4,38.7,57.4z"/>
			</g>
			<g>
				<path d="M50.2,44.2l-2.6,1.5c-0.1,0.1-0.2,0.2-0.2,0.3v3c0,0.1,0.1,0.2,0.2,0.3l2.6,1.5c0.1,0.1,0.3,0.1,0.3,0l2.6-1.5
					c0.1-0.1,0.2-0.2,0.2-0.3v-3c0-0.1-0.1-0.2-0.2-0.3l-2.6-1.5C50.5,44.1,50.3,44.1,50.2,44.2z M53.2,47.4c0,1.5-1.2,2.8-2.8,2.8
					c-1.5,0-2.8-1.2-2.8-2.8c0-1.5,1.2-2.8,2.8-2.8C51.9,44.7,53.2,45.9,53.2,47.4z"/>
				<path d="M47.8,47.4c0,1.4,1.1,2.6,2.6,2.6c1.4,0,2.6-1.1,2.6-2.6c0-1.4-1.1-2.6-2.6-2.6C49,44.9,47.8,46,47.8,47.4z M52.1,47.4
					c0,1-0.8,1.7-1.7,1.7c-1,0-1.7-0.8-1.7-1.7c0-1,0.8-1.7,1.7-1.7C51.4,45.7,52.1,46.5,52.1,47.4z"/>
			</g>
			<g>
				<path d="M50.6,70.7l2.6-1.5c0.1-0.1,0.2-0.2,0.2-0.3v-3c0-0.1-0.1-0.2-0.2-0.3l-2.6-1.5c-0.1-0.1-0.3-0.1-0.3,0l-2.6,1.5
					c-0.1,0.1-0.2,0.2-0.2,0.3v3c0,0.1,0.1,0.2,0.2,0.3l2.6,1.5C50.3,70.7,50.5,70.7,50.6,70.7z M50.4,70.2c-1.5,0-2.8-1.2-2.8-2.8
					c0-1.5,1.2-2.8,2.8-2.8c1.5,0,2.8,1.2,2.8,2.8C53.2,68.9,51.9,70.2,50.4,70.2z"/>
				<path d="M50.4,70c1.4,0,2.6-1.1,2.6-2.6c0-1.4-1.1-2.6-2.6-2.6c-1.4,0-2.6,1.1-2.6,2.6C47.8,68.8,49,70,50.4,70z M50.4,69.2
					c-1,0-1.7-0.8-1.7-1.7c0-1,0.8-1.7,1.7-1.7c1,0,1.7,0.8,1.7,1.7C52.1,68.4,51.4,69.2,50.4,69.2z"/>
			</g>
		</g>
	</g>
</g>
</svg>
