<?xml version="1.0" encoding="utf-8"?>
<!-- Generator: Adobe Illustrator 25.2.0, SVG Export Plug-In . SVG Version: 6.00 Build 0)  -->
<!-- SVG made by yourforcesupport.com -  Powerful Websites for the Modern Force Support Squadron US Forces -->
<svg version="1.1" xmlns="http://www.w3.org/2000/svg" xmlns:xlink="http://www.w3.org/1999/xlink" x="0px" y="0px"
	 viewBox="0 0 101.8 130.6" style="enable-background:new 0 0 101.8 130.6;" xml:space="preserve">
<style type="text/css">
	.st0{fill:none;stroke:#000000;stroke-miterlimit:10;}
	.st1{clip-path:url(#SVGID_2_);}
	.st2{fill:#FFFFFF;}
	.st3{fill:none;stroke:#001E61;stroke-miterlimit:10;}
	.st4{fill:#002F87;}
	.st5{fill:#001E61;}
	.st6{clip-path:url(#SVGID_4_);}
	.st7{fill:none;}
	.st8{fill:#FBB03C;}
	.st9{fill:#8DC63F;}
	.st10{fill:#92C0E9;}
	.st11{fill:#231F20;}
</style>
<g id="Page_Guide">
</g>
<g id="VERT_1_COLOR_BLK">
	<g id="LOGO_4_">
		<path class="st0" d="M252.8,130.2h-84c-4.6,0-8.4-3.8-8.4-8.4V9c0-4.6,3.8-8.4,8.4-8.4h84c4.6,0,8.4,3.8,8.4,8.4v112.8
			C261.2,126.4,257.4,130.2,252.8,130.2z"/>
		<g id="ODR_2_">
			<path d="M186.5,118.1v-5.4c0-3.3,2.6-5.4,7.3-5.4c4.7,0,7.3,2.1,7.3,5.4v5.4c0,3.3-2.6,5.4-7.3,5.4
				C189.2,123.5,186.5,121.4,186.5,118.1z M197.7,117.8v-4.8c0-1.6-1.2-2.6-3.9-2.6c-2.7,0-3.9,1-3.9,2.6v4.8c0,1.6,1.2,2.6,3.9,2.6
				C196.5,120.4,197.7,119.4,197.7,117.8z"/>
			<path d="M218.5,113v4.8c0,3.3-2.6,5.4-7,5.4h-7v-15.6h7C215.9,107.5,218.5,109.7,218.5,113z M215.1,113.3c0-1.6-1.2-2.6-3.3-2.6
				h-3.9v9.5h3.8c2.1,0,3.3-1,3.3-2.6V113.3z"/>
			<path d="M232.3,117l2.7,6.1h-3.5l-2.6-5.6h-3.6v5.6h-3.4v-15.6h7.7c3.3,0,5.5,1.8,5.5,4.7v0.6C235,114.8,234.1,116.3,232.3,117z
				 M225.3,114.5h4.5c1.1,0,1.8-0.5,1.8-1.5v-0.9c0-0.9-0.7-1.5-1.8-1.5h-4.5V114.5z"/>
		</g>
		<g>
			<path d="M167.7,16h5.4l1.2,2.9h1.4l-4.2-11.3h-2.1L165.1,19h1.4L167.7,16z M170.4,9l2.2,5.7h-4.3L170.4,9z"/>
			<rect x="178.1" y="7.7" width="1.4" height="11.3"/>
			<polygon points="208.1,9 208.1,7.7 200.1,7.7 200.1,19 201.6,19 201.6,14.4 207.6,14.4 207.6,13.1 201.6,13.1 201.6,9 			"/>
			<path d="M210.7,11.5v3.9c0,2.4,1.6,3.9,4.9,3.9s4.9-1.5,4.9-3.9v-3.9c0-2.5-1.6-4-4.9-4S210.7,9,210.7,11.5z M219.1,11.6v3.5
				c0,1.7-1,2.7-3.5,2.7c-2.5,0-3.5-1-3.5-2.7v-3.5c0-1.8,1-2.8,3.5-2.8C218.2,8.8,219.1,9.8,219.1,11.6z"/>
			<path d="M232.8,11.2v-0.5c0-1.9-1.3-3.1-3.7-3.1h-5.3V19h1.4v-4.7h3.9l2.2,4.7h1.5l-2.2-4.9C232,13.7,232.8,12.7,232.8,11.2z
				 M231.3,11.2c0,1.2-0.7,1.7-2.2,1.7h-4V9h4c1.5,0,2.2,0.6,2.2,1.7V11.2z"/>
			<path d="M245.2,11.8v-0.4c0-2.4-1.6-3.9-4.9-3.9c-3.3,0-4.9,1.5-4.9,3.9v3.9c0,2.4,1.6,3.9,4.9,3.9c3.3,0,4.9-1.5,4.9-3.9v-0.4
				h-1.5v0.3c0,1.8-1,2.7-3.4,2.7c-2.5,0-3.5-0.9-3.5-2.7v-3.6c0-1.8,1-2.7,3.5-2.7c2.4,0,3.4,0.9,3.4,2.7v0.3H245.2z"/>
			<polygon points="256.4,9 256.4,7.7 248.4,7.7 248.4,19 256.4,19 256.4,17.7 249.8,17.7 249.8,14.1 255.7,14.1 255.7,12.8 
				249.8,12.8 249.8,9 			"/>
			<path d="M191.6,11.2v-0.5c0-1.9-1.3-3.1-3.7-3.1h-5.3V19h1.4v-4.7h3.9l2.2,4.7h1.5l-2.2-4.9C190.9,13.7,191.6,12.7,191.6,11.2z
				 M190.2,11.2c0,1.2-0.7,1.7-2.2,1.7h-4V9h4c1.5,0,2.2,0.6,2.2,1.7V11.2z"/>
		</g>
		<g id="LOGO_5_">
			<defs>
				<path id="SVGID_1_" d="M252.8,129.7h-84c-4.6,0-8.4-3.8-8.4-8.4V8.5c0-4.6,3.8-8.4,8.4-8.4h84c4.6,0,8.4,3.8,8.4,8.4v112.8
					C261.2,125.9,257.4,129.7,252.8,129.7z"/>
			</defs>
			<clipPath id="SVGID_2_">
				<use xlink:href="#SVGID_1_"  style="overflow:visible;"/>
			</clipPath>
			<g class="st1">
				<path d="M224.5,86.5c-1.5,1-3.1,1.8-4.8,2.3c-0.3-0.8-0.7-1.4-1.3-2c-1.6-0.8-3.7-1-5.7-1l0,0.1c0.2-0.1,0.4-0.1,0.5,0
					c0.2,0.1,0.4,0.3,0.7,0.6c2.2,0.2,4.3,0.7,5.6,2.3c-5,1.6-11.1,1.6-17.3,0.5c4.7,1.8,9.1,2.4,13.2,2c-2.8,1.9-7,1.5-10.6,0.6
					c2,1.2,4,2.4,6.2,3.3C216.3,93,220.7,90.1,224.5,86.5z"/>
				<path class="st2" d="M242.5,78.6C242.5,78.6,242.5,78.6,242.5,78.6C242.5,78.6,242.5,78.6,242.5,78.6z"/>
				<path d="M224.5,66.1l0-0.5l-0.4-0.8l-1.8-0.7c0,0.1,0,0.2,0.1,0.3l2,3L224.5,66.1z"/>
				<path d="M222.5,56.3c0,0.1,0,0.2,0,0.4c0,0.3,0.2,0.8,0.4,1.1c0.3,0.4,0.7,0.5,1.2,0.3c0.3-0.1,0.6-0.5,0.7-0.8
					c0.1-0.3,0-1-0.1-1.3C224.3,55.1,222.7,55.5,222.5,56.3z"/>
				<path d="M228.1,58.6c-0.1-0.2-0.2-0.5-0.4-0.7l-0.8-1c-0.1-0.1-0.2-0.2-0.3-0.2l-0.8,0.4c-0.1,0.1-0.2,0.2-0.1,0.4l0,0.1
					l-1.1,0.3l0.5,0.1l0.8,0.2l1.2,3.2c0.1,0.2,0.2,0.2,0.3,0.2l1.3-0.6c0.1-0.1,0.2-0.2,0.1-0.4L228.1,58.6z"/>
				<path d="M232.1,40.3l1.4,1l0.2,0.1l0,0l0.2,0.1l0,0l0.2,0.1l0,0l0.2,0.1l0,0l0.2,0.1l0,0l0.2,0.1h0l0.2,0.1l0,0l0.2,0.1l0,0
					l0.2,0.1l0,0l0.2,0.1h0l0.2,0.1l0,0l0.2,0.1l0,0l0.2,0.1l0,0l0.2,0.1h0l0.2,0.1h0l0.2,0.1l0,0l0.2,0.1h0l0.2,0.1h0l0.2,0.1h0
					l0.2,0.1h0l0.2,0.1l0,0l0.2,0.1h0l0.2,0.1h0l0.2,0.1h0l0.2,0.1l0,0l0.2,0.1h0l0.2,0.1h0l0.2,0.1h0l0.2,0.1l0,0l0.2,0.1h0
					l0.2,0.1h0l0.2,0.1h0l0.2,0.1h0l0.2,0.1h0l0.2,0.1h0l0.2,0.1h0l0.2,0.1h0l0.2,0.1h0l0.2,0.1h0l0.2,0.1h0l0.2,0.1h0l0.2,0.1h0
					l0.2,0.1h0l0.2,0.1l0.2,0.1h0l0.2,0.1h0l0.2,0.1l0.2,0.1l0.2,0.1h0l0.2,0.1l0.2,0.1l0.2,0.1l0.2,0.1l0.2,0.1l0.2,0.1l0.2,0.1
					l0.2,0.1l0.2,0.1l0.2,0.1c-0.5,2.6-1.1,5.2-1.7,7.8h0l-4.1-0.2c0.4-1.4,0.7-2.8,1-4.1c0.1-0.4,0.2-0.8,0.3-1.2
					c-1-0.4-2.1-0.8-3.1-1.2l-0.1,0l0,0l-2.4-1.7l-5.6-3.9l0,0l0,0l-3.6-3.3l-8.5-5.3l-0.7,0.5l-0.3,0.2l-0.2-0.3l-5.5-6.3l-7.4,6.8
					l-0.2,0.1l-0.2,0l-2.3-0.6l-3.7,3.6l-0.2,0.2l-0.3-0.2l-1.7-1.1l-6.8,7l0,0l0,0l-3.2,2.2l-2.4,1.7l0,0l0,0
					c-1.4,0.5-2.9,1.1-4.3,1.7c0.1,0.4,0.2,0.8,0.3,1.2l0,0.1l0.1,0.4l0,0.2l0,0c0.2,1.1,0.5,2.2,0.8,3.3l-4,0.2
					c-0.7-2.6-1.2-5.2-1.7-7.8c0,0,0,0,0,0c0,0,0,0,0,0l0.2-0.1l0.2-0.1l0.2-0.1l0.2-0.1l0.2-0.1l0.2-0.1l0.2-0.1l0.2-0.1l0.2-0.1h0
					l0.2-0.1l0.2-0.1l0.2-0.1l0.2-0.1h0l0.2-0.1l0.2-0.1l0.2-0.1h0l0.2-0.1l0.2-0.1l0.2-0.1l0.2-0.1l0.2-0.1l0,0l0.2-0.1l0,0
					l0.2-0.1l0.2-0.1l0.2-0.1l0.2-0.1h0l0.2-0.1h0l0.2-0.1h0l0.2-0.1h0l0.2-0.1l0.2-0.1h0l0.2-0.1l0.2-0.1l0.2-0.1l0.2-0.1h0
					l0.2-0.1h0l0.2-0.1l0.2-0.1l0.2-0.1l0.2-0.1l0.2-0.1h0l0.2-0.1h0l0.2-0.1h0l0.2-0.1h0l0.2-0.1h0l0.2-0.1h0l0.2-0.1h0l0.2-0.1h0
					l0.2-0.1h0l0.2-0.1l0.2-0.1h0l0.2-0.1h0l0.2-0.1h0l0.2-0.1l0,0l0.2-0.1h0l0.2-0.1l0,0l0.2-0.1h0l0.2-0.1h0l0.2-0.1h0l0.2-0.1h0
					l0.1,0l3.6-3.7c-6.9,1.8-13.7,4.2-20.3,7.3c0.6,3.2,10.1,36,10.1,36l5.5,3.7c5.8,7.7,13.4,13.9,23.4,17.8
					c10-3.8,17.6-10.1,23.4-17.8l5.5-3.7c0,0,9.5-32.8,10.1-36c-6.8-3.1-13.8-5.7-21-7.5L232.1,40.3z M191,43.4l5.6-5.6l2.1,1.2
					l4.1-4.3l2.5,0.7l6.8-6.2l5.5,6.4l1.4-1l7.2,4.5l3.6,3.1l8.2,5.7l-12.9-6.4l0.6,5.4l-3-4.7l-2.7-0.1l-2.6,1.5l2.1-2.4l1.9-0.9
					l-2.5-4.4l-3.7,2.5l-2.5-0.7l-1.4,0.8l-0.3,0.2l-0.1,0.1l-3.7,2.1l2.3-4l-0.9-0.5l3.4-6.1l-6.3,6.4l-2.7-0.9l-4.7,5.6l-1.8-2.2
					l-1.5,2.9l1.6,0.8l2.9,0.9l-3.4-0.1l-2.1,0.1l-0.2,0.5l-0.3,0.1l-2.7,3l0.4-1.9l-7.6,3.4L191,43.4z M187.1,80
					c0.7-0.1,1.4,0,2.2,0c-1.4,0.9-2.4,1.8-3.4,2.3C186.3,81.6,186.7,80.8,187.1,80z M210.8,98c-9.6-3.9-16.3-9.3-21.7-16.9
					c0.7-0.7,0.7-0.7,1-0.9c0.1,0,0.2,0,0.3,0c1.2,0.2,2.5,0.5,4,0.8c-4.4-1.3-6.4-2.3-10.2-0.5c0-0.2,7.5-10.1,21.3-7.7
					c8.8,1.6,23,6,32.9,2.5c0.1,0,1.5-0.7,1.4-0.6c-2.3,2.9-4.7,7-15.6,8.4c0.3,0,0.6,0,0.9-0.1c0.5,0,0.9-0.1,1.3-0.1
					c0.9,0.1,1.8,0.2,2.6,0.2c0.6,0,1.2,0,1.8-0.1C225.6,89.4,219.1,94.6,210.8,98z M239.3,77.2C239.3,77.3,239.3,77.3,239.3,77.2
					c-0.2,0.4-3,6-11.6,5.5c4.9-0.8,7.5-2.4,9.6-4.6C238,77.9,238.7,77.6,239.3,77.2C239.3,77.2,239.3,77.2,239.3,77.2z M242.4,63.6
					c-1.4-0.3-7-0.8-7.3-0.1c-0.1,0.3,5.6,0.9,7,1.1c-0.8,2.9-1.6,5.7-2.3,8c0,0,0,0-0.1,0c0,0-4.7-0.4-10.3-0.9
					c1.1-0.4,2-1.4,2.1-2.7c0.2-1.8-1.2-3.3-2.9-3.5c-0.6-0.1-1.3,0.1-1.8,0.4l0.5,0.6c0.4-0.2,0.8-0.3,1.3-0.2
					c1.3,0.1,2.3,1.3,2.2,2.6c-0.1,1.3-1.3,2.3-2.6,2.2c-1.1-0.1-2.1-1-2.2-2.1l1.3,0c0.1,0.5,0.5,0.8,1,0.9
					c0.6,0.1,1.2-0.4,1.3-1.1c0.1-0.6-0.4-1.2-1.1-1.3c-0.2,0-0.4,0-0.6,0.1c-0.6-0.8-1.2-1.5-1.8-2.3c0.4-0.6,0.9-1.4,1-1.9
					c0.1-0.5,0.2-1-0.1-1.5l-1.3-3.2c-0.4-0.8-1.8-0.9-2.3-0.2l-1.3,1.7l-2.1,0.4c-0.2,0-0.4,0-0.6,0c-0.1,0-0.3,0.1-0.4,0.1
					c-0.1,0.1-0.1,0.5-0.1,0.6c0,0.1,0.1,0.1,0.1,0.2c0.1,0.1,0.1,0.1,0.2,0.1c0.1,0,0.2,0.1,0.3,0.1l0.1,0l-0.1,0.2l-0.2,0
					l-0.7,1.6l0.1,0.2l-0.2,0.4c-0.1,0-0.3,0.1-0.3,0.3l-0.7,1.5l-0.2,0.5c-0.6,0-1.1,0.4-1.2,1.1c-0.1,0.6,0.4,1.2,1.1,1.3
					c0.6,0.1,1.2-0.4,1.3-1.1c0-0.3-0.1-0.7-0.3-0.9l0.5-1.2c0.2,0.1,0.3,0.3,0.5,0.4c0.9,1,0.7,2.6-0.3,3.4c-1,0.9-2.6,0.7-3.4-0.3
					c-0.9-1-0.7-2.6,0.3-3.4c0.5-0.4,1.2-0.6,1.9-0.5l0.3-0.7c-1-0.2-2,0-2.7,0.7c-1.4,1.1-1.5,3.2-0.4,4.5c0.3,0.3,0.6,0.6,1,0.8
					c-0.2,0-0.4,0-0.6,0l0.6,0c0,0,0,0,0,0l-0.7-0.1c-2.5-0.2-4.2-0.3-4.3-0.3c-0.1,0,2.4,0.3,5.9,0.7c0.2,0,0.3,0,0.5,0.1
					c8.1,0.9,21.1,2.2,22.5,2.4c0,0.1,0,0.1,0,0.2c-0.2,0.1-0.6,0.4-1.1,0.7c-0.5,0.2-1,0.4-1.5,0.6c-8.7,2-22-1.3-30.2-2.7
					c-0.4-0.1-0.7-0.1-1-0.2c-1-0.2-1.9-0.3-2.8-0.3c-5.3-0.4-9.5,1-12.5,2.7c-3.6,2-5.9,4.4-6.7,5.3c-0.3-0.9-1.6-6.1-3.3-12
					c0.2-0.1,0.5-0.2,0.8-0.3c3.3-1.2,16.1-5.6,16.1-5.6c0.2-0.1,1.4-0.4,2.6-0.7c0,0,0,0,0.1,0c0.1,0,0.3-0.1,0.4-0.1
					c1.2-0.3,2.4-0.6,2.6-0.6c0.1,0,5,0.1,5,0.1s-1.1-1.3,2.2-1.7c0.1,0,2.6-0.3,2.6-0.4c-0.1-0.3,1.3,0.2,1.6,0
					c0.1-0.1,1.1,0.2,1.2,0c0.1-0.2-0.6-0.5-0.4-0.5c0.2,0,3.9-4,4-4.1c0,0,6.2,0.7,6.2,0.5c0,0,10.2,1,10.3,1
					c0.4-0.1,4.6,3.2,5.4,3.4c1.1,0.7,1.4,0.9,2.4,1.5C243.1,61.2,242.8,62.4,242.4,63.6z M218.3,70.7c0.4-0.1,0.7-0.3,1.1-0.6
					c1.4-1.1,1.5-3.2,0.4-4.5c-0.2-0.3-0.5-0.5-0.8-0.7l0.1-0.1c0.1-0.1,0-0.3,0-0.4l0.2-0.4l0.2,0l0.1-0.2l3.6,4.4
					c-0.1,0.1-0.1,0.2-0.1,0.4c0,0.4,0.2,0.7,0.5,0.9l0.4-0.1c0.1,0,0.1-0.1,0.1-0.2l0-1.4c-0.1,0-0.3,0-0.4,0.1l-3.2-4.2l0.1-0.2
					l1.4,0.5v0l1.7,0.6l0,0l0.7,0.3c0.1-0.2,0.2-0.5,0.3-0.7l-0.2-0.1l0.6-0.2c-0.2,0.3-0.6,1.2-0.7,1.7c0,0.2,0,0.3-0.1,0.5
					c-0.1,1.1-0.1,2-0.1,3.1c0,0.1-0.1,0.2-0.2,0.3l-0.8,0.3c-0.1,0-0.2,0.1-0.2,0.1c0,0.1,0,0.2,0,0.3c0,0,0.1,0.1,0.2,0.1l0.3,0
					l0,0.2l1-0.1l0-0.2l0.5,0c0.1,0,0.2-0.1,0.2-0.2c0-0.1,0.1-0.5,0-0.6l0-0.2c0-0.6,0.1-0.9,0.2-1.4c0.1-0.4,0-0.8,0-1.2
					c0-0.1,0-0.3,0.1-0.4c0.1-0.1,0.1-0.2,0.2-0.3l0.4,0.5c-0.2,0.2-0.4,0.5-0.6,0.8c0,0.2,0,0.4,0,0.6c-0.1,0.5-0.2,0.9-0.2,1.4
					c0,0.2,0,0.3,0,0.5c0.2,0.8,0.8,1.4,1.4,1.8L218.3,70.7C218.2,70.7,218.2,70.7,218.3,70.7l7.3,0.6
					C223,71.1,220.5,70.9,218.3,70.7z M224.6,62.4l-2.1,0.9l-2.5-1l0.2-0.5c0,0,0,0,0,0l2-0.2c0.2,0,0.4-0.1,0.6-0.2l1.3-1.5l0,0.1
					l-0.4,0.7C223.8,60.6,224.8,62.2,224.6,62.4z M226.6,66.9l0.8,1c-0.1,0.1-0.2,0.3-0.2,0.5l-1.3,0
					C226,67.8,226.2,67.3,226.6,66.9z M228.4,68.1c-0.1,0-0.1,0-0.2,0l-0.1-0.2c0.1,0,0.2-0.1,0.4-0.1c0.4,0,0.7,0.4,0.6,0.8
					c0,0.4-0.4,0.7-0.8,0.6c-0.3,0-0.5-0.2-0.6-0.5l0.2,0c0.1,0.2,0.2,0.3,0.4,0.3c0.3,0,0.5-0.2,0.6-0.5
					C228.9,68.4,228.7,68.1,228.4,68.1z M227.9,68.5l-0.2,0c0-0.1,0.1-0.2,0.1-0.3l0.1,0.2C227.9,68.4,227.9,68.4,227.9,68.5z
					 M217.2,68.1c0.3,0,0.5-0.2,0.6-0.5c0-0.1,0-0.2,0-0.2l0.1-0.2c0.1,0.1,0.1,0.3,0.1,0.5c0,0.4-0.4,0.7-0.8,0.6
					c-0.4,0-0.7-0.4-0.6-0.8c0-0.3,0.3-0.6,0.6-0.6l-0.1,0.2c-0.2,0.1-0.3,0.2-0.3,0.4C216.7,67.9,216.9,68.1,217.2,68.1z
					 M197.5,60.3l1.7-0.5C198.9,59.8,198.3,60,197.5,60.3l0.4-2.7c0,0,0,0,0,0c0,0,0,0,0,0l0,0c0,0,0-0.1,0-0.1l-0.1-2.3l0.1,0
					c0.1,0,0.2,0,0.2,0l2,1.6l0.1,2.8c0,0,0,0,0,0.1l-0.6,0.2c-0.2,0-0.8,0.2-1.8,0.5l-0.5,0.1L197.5,60.3z M201.7,59.2l-0.1-2.9
					c0,0,0,0,0-0.1c0,0,0,0,0,0c0,0,0-0.1,0-0.1c0,0,0,0,0,0c0,0,0-0.1,0-0.1c0,0,0,0,0,0c0,0-0.1-0.1-0.1-0.1l-2.1-1.7l0.4-2.7
					l0.7,0.7c0,0,0.1,0.1,0.2,0.1c0,0,0,0,0.1,0l0,0c0,0,0.1,0,0.1,0l0.9-0.1l1.6,6.6c0,0,0,0,0,0c-0.3,0.1-0.6,0.2-0.9,0.3
					L201.7,59.2z M207.5,56C207.5,56,207.5,56,207.5,56L207.5,56C207.5,56,207.5,56,207.5,56l-0.4-2.3l0.1,0c0.1,0,0.2,0,0.2,0
					l2.2,1.4l0.4,2.1c-0.6,0.2-1.6,0.5-1.6,0.5c-0.3,0.1-0.7,0.1-1,0.2L207.5,56C207.5,56,207.5,56,207.5,56z M211.5,57l-0.5-2.7
					c0,0,0,0,0-0.1c0,0,0,0,0,0c0,0,0-0.1,0-0.1c0,0,0,0,0,0c0,0,0-0.1-0.1-0.1c0,0,0,0,0,0c0,0-0.1-0.1-0.2-0.1l-2.3-1.4l0-2.7
					l0.8,0.6c0.1,0.1,0.2,0.1,0.2,0.1c0,0,0,0,0,0l0,0c0,0,0.1,0,0.1,0l0.9-0.2l2.3,6.7C212.4,56.9,211.9,57,211.5,57z M243.7,59
					c-0.3-0.2-0.7-0.5-1.2-0.8c0,0,0,0-0.1,0c-0.6-0.4-1.3-0.8-2-1.3c-1.6-1.2-3.5-2.5-3.8-2.5c0,0,0-0.1,0-0.1
					c-0.5-0.3-0.8-0.4-0.8-0.4c-3.1,0-17-1.5-17.2-1.4c-0.3,0.1-4.5,4.3-4.5,4.2c-0.2,0.2-0.7,0.3-0.7,0.3c0,0-0.1,0-0.2,0l-2.3-6.8
					c0.1-0.1,0.1-0.3,0.1-0.5c-0.1-0.3-0.3-0.4-0.4-0.4l-0.2-0.6c0-0.1-0.1-0.1-0.2-0.1c-0.1,0-0.2,0.1-0.1,0.2l0.2,0.5l-0.5,0.1
					l-1.6-1.2c0,0,0,0,0,0c-0.2-0.1-0.5-0.2-0.8-0.2l-0.6,0c-0.6,0-1.2,0.4-1.2,0.8l0,4.1c0,0.1,0,0.1,0,0.2c0,0,0,0,0,0l0.5,3.1
					l0,2c-0.9,0.2-1.7,0.4-2.5,0.6c0,0,0,0,0,0l-1.6-6.6c0.1-0.1,0.2-0.3,0.2-0.5c0-0.3-0.2-0.5-0.4-0.5l0,0l-0.1-0.5
					c0-0.1-0.1-0.1-0.3-0.1c-0.1,0-0.2,0.1-0.2,0.2l0.1,0.4l-0.4,0l-1.5-1.4c0,0,0,0,0,0c-0.2-0.1-0.4-0.3-0.7-0.3l-0.6-0.1
					c-0.6-0.1-1.2,0.2-1.3,0.7l-0.5,4.1c0,0.1,0,0.1,0,0.2c0,0,0,0,0,0l0.1,3.1l-0.4,3.1c0,0.1,0,0.2,0.1,0.3l-1,0.3
					c-5,1.8-12.6,4.6-14.8,5.3l-0.4-1.3c-1-3.5-2-7.1-2.9-10.2c1.5,0,4.2,0,4.6,0c0,0,0,0,0,0c0.1,0,0.2,0,0.3,0
					c-0.3-0.3,7.9-7.3,8-7.3c0.1,0-1.2,4.3-1.2,4.3l3.3-3.3l3.2-3.1l5.4-0.4c0,0,7.2-7.4,7.4-7.3c0.1,0.1-2.3,4.5-2.8,5.2
					c0.1-0.1,3.4-1.2,5.3-2.1c1.6-0.7,3-1.2,3.2-1.2c0.1,0,5.6,0.2,5.6,0.2l-4.5,5.4c0,0,6.9-2.1,7.1-2c0.7,0.6,4.8,7.3,4.8,7.3
					s0.1-5.1,0.6-5.5c0.1-0.1,13.4,5.9,13.6,5.9c0,0-0.8,3.7-0.8,3.7l0.9,0c0,0,0,0,0,0l4.1,0.1C244.5,56.3,244.1,57.5,243.7,59z"/>
				<path d="M208.5,45.5c-0.4-0.6-2.1-0.5-2.1,0.5c0,0.3,0.1,1,0.3,1.3c0.2,0.3,0.6,0.5,1,0.5c0.5,0,0.9-0.2,1-0.7
					c0.1-0.3,0.1-0.9,0-1.2C208.6,45.7,208.5,45.6,208.5,45.5z"/>
				<path d="M205.2,47.8c0-0.2-0.1-0.3-0.3-0.3l-0.9,0c-0.1,0-0.2,0.1-0.3,0.3l-0.4,1.2c-0.1,0.3-0.1,0.5-0.1,0.8l0,2.1
					c0,0.2,0.1,0.3,0.3,0.3l1.4,0c0.1,0,0.3-0.1,0.2-0.3l-0.1-3.4l0.7-0.5l0.4-0.3L205.2,47.8L205.2,47.8z"/>
				<path d="M196.7,49c0-0.2-0.1-0.3-0.2-0.3l-0.9-0.1c-0.1,0-0.2,0.1-0.3,0.3l-0.5,1.1c-0.1,0.3-0.2,0.5-0.2,0.8l-0.2,2.1
					c0,0.2,0.1,0.3,0.2,0.3l1.4,0.2c0.1,0,0.3-0.1,0.3-0.3l0.4-3.4l0.7-0.4l0.5-0.2L196.7,49L196.7,49z"/>
				<path d="M199.7,47c-0.4-0.6-2.1-0.6-2.2,0.4c0,0.3,0.1,1,0.2,1.3c0.2,0.3,0.6,0.5,0.9,0.6c0.5,0,0.9-0.2,1-0.7
					c0.1-0.3,0.1-0.9,0.1-1.2C199.8,47.2,199.8,47.1,199.7,47z"/>
				<g>
					<path d="M212.9,76.5c0,0.1-0.1,0.2-0.1,0.4c0,0.3,0.1,0.9,0.3,1.2c0.2,0.5,0.7,0.6,1.2,0.5c0.4-0.1,0.7-0.4,0.9-0.7
						c0.1-0.3,0.1-1,0-1.3C214.9,75.5,213.2,75.8,212.9,76.5z"/>
					<path d="M207.9,76.5c0.1-0.3,0.1-1,0-1.3c-0.2-1-2-0.7-2.3,0c0,0.1-0.1,0.2-0.1,0.4c0,0.3,0.1,0.9,0.3,1.2
						c0.2,0.5,0.7,0.6,1.2,0.5C207.4,77.1,207.8,76.8,207.9,76.5z"/>
					<path d="M216.4,82.9L216,80c-0.1-0.7-0.8-1.3-1.5-1.2c-0.5,0.1-0.9,0.4-1,0.8l-1.3,1l-2-0.5c-0.3-0.1-0.6,0.1-0.7,0.4
						c-0.1,0.3,0.1,0.6,0.4,0.7l0.5,0.1l0.2,0.5l-1.5-0.3l-0.4-2.9c-0.1-0.7-0.8-1.3-1.5-1.2c-0.5,0.1-0.9,0.4-1,0.8l-1.3,1l-2-0.5
						c-0.3-0.1-0.6,0.1-0.7,0.4c-0.1,0.3,0.1,0.6,0.4,0.7l0.1,0l0.2,0.5l-0.9-0.2c-0.8-0.2-1.5,0.3-1.7,1l-0.1,0.4
						c0,0.1,0,0.1,0,0.2c1.2,1.2,2.6,1.7,4,1.8l0.8,1.8c-0.2,0.1-0.3,0.2-0.3,0.4c-0.2,0.6,0.3,2.3,0.7,2.7c0.4,0.3,2.1-0.4,2.1-0.9
						c0-0.6-1-2.1-1.6-2.4c-0.1-0.1-0.4,0-0.6,0l-2.2-5.3l0.2,0.1l1.5,0.4c0,0,0,0,0.1,0c0.2,0,0.4,0,0.5-0.1l0.8-0.6l0.2,1.3
						l-2.8-0.5l1.3,3.2c1.7,0.1,3.4-0.2,5-0.3c0.4,0,0.9,0,1.4,0l1.1,2.6c-1.9,0-3.8,0.2-5.4,0.2c0.2,0.2,0.3,0.5,0.4,0.7
						c1.4,0,3.1-0.2,4.7-0.2c0.1-0.1,0.2-0.2,0.4-0.4l0.1,0.2c-0.2,0.1-0.3,0.2-0.3,0.4c-0.2,0.6,0.3,2.3,0.7,2.7
						c0.4,0.3,2.1-0.4,2.1-0.9c0-0.6-1-2.1-1.6-2.4c-0.1-0.1-0.4,0-0.6,0l-2.1-4.9l0.2,0.1l1.2,0.3c0,0,0,0,0.1,0
						c0.2,0,0.4,0,0.5-0.1l0.8-0.6l0.2,1.3l-2.5-0.5l0.6,1.5c2.3,0.2,5,0.9,6.9,2.4c0.2-0.2,0.3-0.4,0.3-0.6l0.1-0.4
						c0.1-0.7-0.4-1.4-1.2-1.5L216.4,82.9z"/>
				</g>
				<path d="M204.4,86.6c0-0.3-0.1-0.6-0.1-0.8c-3-0.8-4.4-2.8-5.1-4.2c-0.2-0.3-0.4-0.6-0.6-0.9C198.7,80.6,199.4,85.4,204.4,86.6z
					"/>
				<path d="M203.9,33l-2.5-0.6l-3.6,3.6l-0.5-0.3c-0.2-0.6-0.3-1.3-0.3-2c0-4.2,3.4-7.6,7.6-7.6c1.9,0,3.6,0.7,5,1.8L203.9,33z"/>
				<g>
					<path d="M252.9,43.4l-0.2,1.3c-0.1,0.8-0.7,3-1.6,6.1l71.5-8l14.1-12.1l-92.4,9.1c2.4,1,4.9,2,7.3,3.1L252.9,43.4z"/>
					<path d="M116.2,49.5l17.4,11.8l41.3,5.4c-1.1-3.8-2.2-7.8-3.2-11.4L116.2,49.5z"/>
					<path d="M147.2,66.9l17.6,12.2l14.3,2.3c-0.5-1.6-1.6-5.6-3-10.4L147.2,66.9z"/>
					<path d="M168.7,43.4l1.2-0.5c2.4-1.1,4.8-2.1,7.2-3.1l-92.3-9l14.2,12.1l71.5,8c-0.8-3.1-1.4-5.4-1.6-6.1L168.7,43.4z"/>
					<path d="M287.9,61.2l17.4-11.8l-55.5,5.9c-1,3.6-2.1,7.6-3.2,11.4L287.9,61.2z"/>
					<path d="M256.8,79l17.6-12.2l-29,4.2c-1.4,4.8-2.5,8.8-3,10.4L256.8,79z"/>
				</g>
			</g>
		</g>
	</g>
</g>
<g id="VERT_FULL_COLOR">
	<g id="LOGO_3_">
		<path class="st3" d="M92.9,130.1h-84c-4.6,0-8.4-3.8-8.4-8.4V8.9c0-4.6,3.8-8.4,8.4-8.4h84c4.6,0,8.4,3.8,8.4,8.4v112.8
			C101.3,126.3,97.5,130.1,92.9,130.1z"/>
		<g id="AF_1_">
			<path class="st4" d="M6.7,18.9L7.8,16h5.4l1.2,2.9h1.4L11.5,7.7H9.5L5.3,18.9H6.7z M10.5,9l2.2,5.7H8.3L10.5,9z"/>
			<rect x="18.3" y="7.7" class="st4" width="1.4" height="11.3"/>
			<path class="st4" d="M32.2,11.2v-0.5c0-1.9-1.3-3.1-3.7-3.1h-5.3v11.3h1.4v-4.7h3.9l2.2,4.7h1.5L30,14.1
				C31.4,13.7,32.2,12.7,32.2,11.2z M30.8,11.2c0,1.2-0.7,1.7-2.2,1.7h-4V9h4c1.5,0,2.2,0.6,2.2,1.7V11.2z"/>
			<polygon class="st4" points="48.3,9 48.3,7.7 40.3,7.7 40.3,18.9 41.7,18.9 41.7,14.4 47.7,14.4 47.7,13.1 41.7,13.1 41.7,9 			
				"/>
			<path class="st4" d="M50.8,11.4v3.9c0,2.4,1.6,3.9,4.9,3.9s4.9-1.5,4.9-3.9v-3.9c0-2.5-1.6-4-4.9-4S50.8,8.9,50.8,11.4z
				 M59.3,11.6v3.5c0,1.7-1,2.7-3.5,2.7c-2.5,0-3.5-1-3.5-2.7v-3.5c0-1.8,1-2.8,3.5-2.8C58.3,8.8,59.3,9.8,59.3,11.6z"/>
			<path class="st4" d="M72.9,11.2v-0.5c0-1.9-1.3-3.1-3.7-3.1h-5.3v11.3h1.4v-4.7h3.9l2.2,4.7h1.5l-2.2-4.9
				C72.1,13.7,72.9,12.7,72.9,11.2z M71.5,11.2c0,1.2-0.7,1.7-2.2,1.7h-4V9h4c1.5,0,2.2,0.6,2.2,1.7V11.2z"/>
			<path class="st4" d="M85.3,11.8v-0.4c0-2.4-1.6-3.9-4.9-3.9c-3.3,0-4.9,1.5-4.9,3.9v3.9c0,2.4,1.6,3.9,4.9,3.9
				c3.3,0,4.9-1.5,4.9-3.9v-0.4h-1.5v0.3c0,1.8-1,2.7-3.4,2.7c-2.5,0-3.5-0.9-3.5-2.7v-3.6c0-1.8,1-2.7,3.5-2.7
				c2.4,0,3.4,0.9,3.4,2.7v0.3H85.3z"/>
			<polygon class="st4" points="96.5,9 96.5,7.7 88.5,7.7 88.5,18.9 96.5,18.9 96.5,17.6 89.9,17.6 89.9,14.1 95.8,14.1 95.8,12.7 
				89.9,12.7 89.9,9 			"/>
		</g>
		<g id="ODR_1_">
			<path class="st5" d="M26.6,119v-5.4c0-3.3,2.6-5.4,7.3-5.4c4.7,0,7.3,2.1,7.3,5.4v5.4c0,3.3-2.6,5.4-7.3,5.4
				C29.3,124.4,26.6,122.3,26.6,119z M37.8,118.7v-4.8c0-1.6-1.2-2.6-3.9-2.6c-2.7,0-3.9,1-3.9,2.6v4.8c0,1.6,1.2,2.6,3.9,2.6
				C36.6,121.4,37.8,120.3,37.8,118.7z"/>
			<path class="st5" d="M58.6,113.9v4.8c0,3.3-2.6,5.4-7,5.4h-7v-15.6h7C56,108.5,58.6,110.6,58.6,113.9z M55.2,114.2
				c0-1.6-1.2-2.6-3.3-2.6H48v9.5h3.8c2.1,0,3.3-1,3.3-2.6V114.2z"/>
			<path class="st5" d="M72.5,118l2.7,6.1h-3.5l-2.6-5.6h-3.6v5.6H62v-15.6h7.7c3.3,0,5.5,1.8,5.5,4.7v0.6
				C75.2,115.8,74.2,117.2,72.5,118z M65.4,115.4h4.5c1.1,0,1.8-0.5,1.8-1.5V113c0-0.9-0.7-1.5-1.8-1.5h-4.5V115.4z"/>
		</g>
		<g>
			<defs>
				<path id="SVGID_3_" d="M92.9,129.8h-84c-4.6,0-8.4-3.8-8.4-8.4V8.6c0-4.6,3.8-8.4,8.4-8.4h84c4.6,0,8.4,3.8,8.4,8.4v112.8
					C101.3,126,97.5,129.8,92.9,129.8z"/>
			</defs>
			<clipPath id="SVGID_4_">
				<use xlink:href="#SVGID_3_"  style="overflow:visible;"/>
			</clipPath>
			<g class="st6">
				<path class="st5" d="M-43.7,48.5l17.4,11.8l77.2,10.1l77.1-10.2l17.4-11.8l-94.6,10L-43.7,48.5z M-12.7,65.8L4.9,78.1l46,7.5
					l46-7.6l17.6-12.2L50.9,75L-12.7,65.8z M50.9,42.1l-126-12.3l14.2,12.1L50.9,54.3l111.8-12.6l14.1-12.1L50.9,42.1z"/>
				<g id="BORDER_-_WHITE_1_">
					<path class="st2" d="M91.9,42.5c-7.6-3.5-15.3-6.2-23-8.1l-0.1,0L60,29l-0.9-0.6l-0.4,0.3l-5.1-5.9l-1.1-1.3l-1.3,1.2l-1.8,1.7
						c-0.2-0.1-0.3-0.1-0.4-0.2l-0.1,0c-0.1,0-0.3-0.1-0.4-0.1c-0.2-0.1-0.5-0.2-0.8-0.3c-0.9-0.3-1.8-0.4-2.7-0.4
						c-0.9,0-1.8,0.1-2.6,0.3c-2.1,0.6-4,1.8-5.2,3.5c-0.7,1-1.3,2.1-1.6,3.3c-0.1,0.2-0.1,0.5-0.2,0.8l-0.1-0.1l-0.9,1l-2.6,2.7
						c-7.2,1.8-14.5,4.4-21.7,7.7l-1.2,0.5l0.2,1.3c0.6,3.5,10.4,37.4,10.4,37.4l0.2,0.6l0.5,0.3l5.4,3.7
						c6.6,8.6,14.9,14.9,24.7,18.7l0.6,0.2l0.6-0.2c9.9-3.8,18.2-10.1,24.7-18.7l5.4-3.7l0.5-0.3l0.2-0.6c0,0,9.8-34,10.4-37.4
						l0.2-1.3L91.9,42.5z"/>
				</g>
				<path id="BORDER_-_DK_BLUE_1_" class="st5" d="M68,37.2l0.4,0.3l3.7,3.3l0.4,0.3l0,0l0.2,0.1l0,0l0.2,0.1l0,0l0.2,0.1h0l0.2,0.1
					h0l0.2,0.1h0l0.2,0.1l0,0l0.2,0.1l0,0l0.2,0.1l0,0l0.2,0.1l0,0l0.2,0.1l0,0l0.2,0.1h0l0.2,0.1l0,0l0.2,0.1l0,0l0.2,0.1l0,0
					l0.2,0.1h0l0.2,0.1l0,0l0.2,0.1l0,0l0.2,0.1l0,0l0.2,0.1h0l0.2,0.1h0l0.2,0.1l0,0l0.2,0.1h0l0.2,0.1h0l0.2,0.1h0l0.2,0.1h0
					l0.2,0.1l0,0l0.2,0.1h0l0.2,0.1h0l0.2,0.1h0l0.2,0.1h0l0.2,0.1h0l0.2,0.1h0l0.2,0.1h0l0.2,0.1l0,0l0.2,0.1h0l0.2,0.1h0l0.2,0.1
					h0l0.2,0.1h0l0.2,0.1h0l0.2,0.1h0l0.2,0.1h0l0.2,0.1h0l0.2,0.1h0l0.2,0.1h0l0.2,0.1h0l0.2,0.1h0l0.2,0.1h0l0.2,0.1h0l0.2,0.1
					l0.2,0.1h0l0.2,0.1h0l0.2,0.1l0.2,0.1l0.2,0.1h0l0.2,0.1l0.2,0.1l0.2,0.1l0.2,0.1l0.2,0.1l0.2,0.1l0.2,0.1l0.2,0.1l0.2,0.1
					l0.2,0.1c-0.5,2.6-1.1,5.2-1.7,7.8h0h-2.6h0h-1.1c0.4-1.4,0.7-2.7,1-4.1c0.1-0.5,0.2-1,0.3-1.5c-1.1-0.5-2.3-0.9-3.4-1.4l0,0
					L77,45.6l0,0l-5.6-3.9l-3.7-3.3L59,32.9L58,33.5l-5.7-6.6l-7.7,7l-2.5-0.6L38.3,37l-2-1.2l-7,7.2l-3.2,2.2l0,0l-2.4,1.7
					c-1.5,0.6-3,1.1-4.5,1.7l0,0l0,0l0,0l0,0l0,0l0,0l0,0l0,0l0,0l0,0l0,0l0,0l0,0l0,0l0,0l0,0l0,0l0,0l0,0l0,0.1l0,0l0,0l0,0.1l0,0
					l0,0.1l0,0l0,0l0,0l0,0l0,0l0.1,0.3l0,0l0.1,0.4l0,0l0,0.2l0,0l0,0l0,0l0,0l0,0l0,0l0,0l0,0l0,0l0,0l0,0l0,0l0,0l0,0l0.1,0.4
					l0,0.2l0,0.1l0,0l0,0l0,0l0,0l0,0l0,0l0,0l0,0l0,0l0,0l0,0l0,0.1c0.2,1.1,0.5,2.1,0.8,3.2h-0.1h-1.1h-2.5
					c-0.7-2.6-1.2-5.2-1.7-7.8c0,0,0,0,0,0c0,0,0,0,0,0l0.2-0.1l0.2-0.1l0.2-0.1L16,46l0.2-0.1l0.2-0.1l0.2-0.1l0.2-0.1l0.2-0.1h0
					l0.2-0.1l0.2-0.1l0.2-0.1l0.2-0.1h0l0.2-0.1l0.2-0.1l0.2-0.1h0l0.2-0.1l0.2-0.1l0.2-0.1l0.2-0.1l0.2-0.1h0l0.2-0.1h0l0.2-0.1
					l0.2-0.1l0.2-0.1L21,44h0l0.2-0.1h0l0.2-0.1h0l0.2-0.1h0l0.2-0.1l0.2-0.1h0l0.2-0.1l0.2-0.1l0.2-0.1l0.2-0.1h0l0.2-0.1h0
					l0.2-0.1l0.2-0.1l0.2-0.1l0.2-0.1l0.2-0.1h0l0.2-0.1h0l0.2-0.1h0l0.2-0.1h0l0.2-0.1h0l0.2-0.1h0l0.2-0.1h0l0.2-0.1h0l0.2-0.1h0
					l0.2-0.1l0.2-0.1h0l0.2-0.1h0l0.2-0.1h0l0.2-0.1h0l0.2-0.1h0l0.2-0.1h0l0.2-0.1h0l0.2-0.1h0l0.2-0.1h0l0.2-0.1h0l0.2-0.1h0
					l0.2-0.1h0l0.2-0.1h0l0.2-0.1h0l3.6-3.6c-7.2,1.8-14.3,4.3-21.1,7.5c0.6,3.2,10,36,10,36l5.5,3.7c5.8,7.7,13.4,13.9,23.3,17.7
					c10-3.8,17.5-10.1,23.3-17.7l5.5-3.7c0,0,9.5-32.8,10-36C82.8,41.6,75.5,39,68,37.2z"/>
				<g id="MOUNTAIN_-_WHITE_1_">
					<path class="st7" d="M35.4,41.5L35.4,41.5c0.1,0,0.2,0,0.2-0.1c-0.1,0-0.1-0.1-0.2-0.1C35.5,41.4,35.5,41.4,35.4,41.5z"/>
					<path class="st7" d="M35.2,41.8L35.2,41.8c0,0.1,0,0.1,0,0.2c0.1-0.1,0.2-0.1,0.3-0.2c0,0-0.1,0-0.1,0L35.2,41.8z"/>
					<polygon class="st7" points="36.4,40.5 36.4,40.5 36.4,40.5 					"/>
					<path class="st7" d="M38,39.8C38.1,39.8,38.1,39.8,38,39.8c0.1,0.1,0.2,0.1,0.2,0.1c0-0.1-0.1-0.2-0.1-0.2
						C38.1,39.7,38.1,39.7,38,39.8z"/>
					<path class="st7" d="M31.6,44.9C31.6,44.9,31.7,45,31.6,44.9c0.1,0,0.1,0.1,0.2,0.1l0.1-0.3C31.8,44.8,31.7,44.9,31.6,44.9z"/>
					<path class="st7" d="M33.8,42.3C33.8,42.3,33.8,42.3,33.8,42.3C33.8,42.3,33.8,42.3,33.8,42.3C33.8,42.3,33.8,42.3,33.8,42.3z"
						/>
					<path class="st7" d="M28.6,46.8c-0.1,0.1-0.2,0.1-0.2,0.2c0.1,0,0.1,0.1,0.2,0.1c0,0,0.1,0,0.1,0.1
						C28.6,47.1,28.6,46.9,28.6,46.8C28.6,46.8,28.6,46.8,28.6,46.8z"/>
					<path class="st7" d="M28.3,47.4c-0.1,0.1-0.2,0.2-0.3,0.2c0,0,0,0,0.1,0.1l0.3-0.1C28.3,47.5,28.3,47.5,28.3,47.4
						C28.3,47.5,28.3,47.4,28.3,47.4z"/>
					<path class="st7" d="M26.5,48C26.5,48,26.5,48,26.5,48L26.5,48C26.5,48,26.5,48,26.5,48z"/>
					<path class="st7" d="M34.1,43.1L34.1,43.1c0-0.1,0-0.2,0-0.3l0,0l0,0c0.1,0,0.2,0,0.2,0c0,0,0,0,0,0h-0.2v-0.1l-0.1,0.1
						c-0.1,0.1-0.2,0.1-0.2,0.2C34,43,34,43,34.1,43.1C34.1,43.1,34.1,43.1,34.1,43.1z"/>
					<path class="st7" d="M31.2,44.9C31.1,45,31.1,45,31,45.1c0,0,0,0,0,0c0.1,0,0.3,0,0.4,0.1c0,0,0-0.1,0-0.1
						C31.3,45,31.2,45,31.2,44.9z"/>
					<path class="st7" d="M39.9,39C39.9,39,39.9,39,39.9,39c0,0,0-0.1,0.1-0.1L39.9,39C39.9,39,39.9,39,39.9,39z"/>
					<path class="st7" d="M47.9,34.3L47.9,34.3L47.9,34.3L47.9,34.3L47.9,34.3c-0.1,0.1-0.1,0.1-0.2,0.2c0.1,0,0.2,0,0.3,0
						c0,0,0,0-0.1-0.1L47.9,34.3z"/>
					<path class="st7" d="M51.2,31.4c0.1,0,0.3,0,0.4,0c0-0.1,0-0.1-0.1-0.2C51.5,31.3,51.3,31.4,51.2,31.4z"/>
					<path class="st7" d="M49.6,36.9C49.6,36.9,49.6,36.9,49.6,36.9C49.6,36.9,49.6,36.9,49.6,36.9C49.6,36.9,49.6,36.9,49.6,36.9z"
						/>
					<path class="st7" d="M50.7,37.3c-0.1,0-0.1,0-0.2,0v0c0,0.1,0.1,0.1,0.1,0.2C50.7,37.4,50.7,37.4,50.7,37.3z"/>
					<path class="st7" d="M49.8,37.1L49.8,37.1C49.8,37,49.8,37,49.8,37.1L49.8,37.1z"/>
					<polygon class="st7" points="45.9,37 45.9,37 45.9,37 					"/>
					<path class="st7" d="M43.6,35.7c0,0,0,0.1,0,0.1C43.6,35.8,43.6,35.7,43.6,35.7L43.6,35.7C43.5,35.7,43.5,35.7,43.6,35.7z"/>
					<polygon class="st7" points="45.6,37 45.7,37 45.7,37 					"/>
					<path class="st7" d="M46.7,35.3c0,0.1-0.1,0.1-0.1,0.2c0.1,0,0.3,0,0.4,0c-0.1-0.1-0.1-0.2-0.2-0.3L46.7,35.3z"/>
					<path class="st7" d="M47.2,35.9C47.2,35.9,47.2,35.9,47.2,35.9l0.2-0.1c-0.1,0-0.1,0-0.2,0C47.1,35.8,47.2,35.8,47.2,35.9z"/>
					<path class="st7" d="M41.6,38c0,0.1,0,0.1-0.1,0.2c0.1,0,0.1,0,0.2,0l0.1-0.1C41.7,38.2,41.7,38.1,41.6,38z"/>
					<path class="st7" d="M51.6,39c0,0.1,0,0.2,0,0.3l0.1,0l0-0.1C51.6,39.1,51.6,39.1,51.6,39z"/>
					<path class="st7" d="M75.4,47.2C75.4,47.2,75.5,47.2,75.4,47.2C75.5,47.2,75.5,47.2,75.4,47.2c0-0.1,0-0.1-0.1-0.1
						C75.4,47.1,75.4,47.2,75.4,47.2C75.4,47.2,75.4,47.2,75.4,47.2L75.4,47.2z"/>
					<path class="st7" d="M74.2,46.5C74.1,46.5,74.1,46.5,74.2,46.5C74.1,46.5,74.1,46.5,74.2,46.5C74.1,46.5,74.1,46.5,74.2,46.5z"
						/>
					<path class="st7" d="M74.9,46.8C74.9,46.7,74.9,46.7,74.9,46.8C74.9,46.8,74.9,46.8,74.9,46.8C74.9,46.8,74.9,46.8,74.9,46.8
						C74.9,46.8,74.9,46.8,74.9,46.8z"/>
					<path class="st7" d="M73.4,46.1L73.4,46.1L73.4,46.1L73.4,46.1C73.4,46.1,73.4,46.1,73.4,46.1C73.4,46.1,73.4,46.1,73.4,46.1
						C73.4,46.1,73.4,46.1,73.4,46.1z"/>
					<path class="st7" d="M74,46.4C74,46.4,74,46.4,74,46.4L74,46.4L74,46.4C73.9,46.4,73.9,46.4,74,46.4
						C73.9,46.4,73.9,46.4,74,46.4C74,46.4,74,46.4,74,46.4z"/>
					<path class="st7" d="M49.4,38.4v-0.1V38.4L49.4,38.4C49.3,38.3,49.3,38.4,49.4,38.4z"/>
					<path class="st7" d="M75.7,47.1C75.7,47.2,75.7,47.2,75.7,47.1C75.8,47.2,75.8,47.2,75.7,47.1C75.8,47.2,75.8,47.2,75.7,47.1z"
						/>
					<path class="st7" d="M73.2,45.9C73.2,45.9,73.2,45.9,73.2,45.9C73.2,45.9,73.3,45.9,73.2,45.9C73.3,45.9,73.2,45.9,73.2,45.9z"
						/>
					<path class="st7" d="M50.7,38.6c0-0.1,0-0.1,0.1-0.2c-0.1,0-0.2,0-0.3,0l0,0c0.1,0.1,0.2,0.2,0.3,0.3
						C50.7,38.7,50.7,38.7,50.7,38.6z"/>
					<path class="st7" d="M51.2,39.2L51.2,39.2l0,0.4l0.1-0.1l0-0.1C51.2,39.3,51.2,39.2,51.2,39.2z"/>
					<path class="st7" d="M69.5,43.1h0.3c0,0,0,0,0,0C69.7,43.1,69.6,43.1,69.5,43.1L69.5,43.1L69.5,43.1L69.5,43.1z"/>
					<path class="st7" d="M68,42.3C68,42.3,68,42.3,68,42.3c-0.1-0.1-0.2-0.1-0.3-0.2c0,0.1,0,0.1,0,0.2c0,0,0,0.1,0,0.1
						C67.8,42.4,67.9,42.3,68,42.3z"/>
					<polygon class="st7" points="68.1,41.8 68.1,41.8 68.1,41.8 					"/>
					<path class="st7" d="M67,42.4c0.1-0.1,0.1-0.1,0.2-0.2c0,0,0,0,0.1,0c-0.1-0.1-0.2-0.2-0.3-0.2c0,0,0,0.1,0,0.1
						C67,42.2,67,42.3,67,42.4C67,42.4,67,42.4,67,42.4z"/>
					<path class="st7" d="M26.2,48.3C26.2,48.3,26.2,48.3,26.2,48.3C26.2,48.3,26.2,48.3,26.2,48.3L26.2,48.3z"/>
					<path class="st7" d="M66.4,41.2c0,0-0.1-0.1-0.1-0.1c0,0.1-0.1,0.2-0.1,0.2C66.2,41.3,66.3,41.3,66.4,41.2
						C66.3,41.2,66.4,41.2,66.4,41.2z"/>
					<path class="st7" d="M72.6,45L72.6,45C72.6,45,72.6,45,72.6,45C72.6,45,72.6,45,72.6,45z"/>
					<path class="st7" d="M71.8,45.4C71.8,45.4,71.8,45.4,71.8,45.4C71.8,45.4,71.8,45.4,71.8,45.4L71.8,45.4
						C71.8,45.4,71.8,45.4,71.8,45.4z"/>
					<path class="st7" d="M73,45.3C73,45.3,73,45.3,73,45.3C72.9,45.3,72.9,45.3,73,45.3L73,45.3z"/>
					<path class="st7" d="M69.5,43.5L69.5,43.5C69.5,43.5,69.5,43.5,69.5,43.5C69.5,43.5,69.5,43.5,69.5,43.5z"/>
					<path class="st7" d="M70.8,44.8c0.1,0,0.2,0,0.3-0.1c0,0,0.1-0.1,0.1-0.1c-0.1-0.1-0.2-0.1-0.3-0.2c0,0,0,0,0,0.1
						C70.8,44.7,70.8,44.8,70.8,44.8C70.8,44.8,70.8,44.8,70.8,44.8z"/>
					<path class="st7" d="M70.5,44.3C70.5,44.3,70.5,44.3,70.5,44.3c0.1-0.1,0.2-0.2,0.2-0.2c-0.1-0.1-0.2-0.1-0.2-0.2c0,0,0,0,0,0
						C70.5,44,70.5,44.2,70.5,44.3z"/>
					<path class="st7" d="M52.8,38.2C52.8,38.2,52.9,38.2,52.8,38.2C52.9,38.2,52.8,38.2,52.8,38.2L52.8,38.2z"/>
					<path class="st7" d="M60.4,37.6c0,0,0.1-0.1,0.1-0.1c0,0,0.1,0,0.1,0c0,0-0.1-0.1-0.1-0.1C60.5,37.4,60.4,37.5,60.4,37.6z"/>
					<path class="st7" d="M61.2,38.3c0,0.1,0.1,0.2,0.1,0.3c0,0,0,0,0,0c0.1-0.1,0.1-0.1,0.2-0.2c0,0,0,0,0.1,0
						c-0.1-0.1-0.2-0.2-0.3-0.2C61.2,38.3,61.2,38.3,61.2,38.3z"/>
					<path class="st7" d="M61.7,41.6L61.7,41.6C61.7,41.6,61.7,41.7,61.7,41.6l-0.1,0.1l0,0l-0.1,0.1C61.7,41.8,61.8,41.8,61.7,41.6
						c0.1,0,0.2,0,0.2,0C61.9,41.6,61.8,41.6,61.7,41.6L61.7,41.6z"/>
					<polygon class="st7" points="62.3,38.1 62.3,38.1 62.3,38.1 					"/>
					<path class="st7" d="M65.7,46.4C65.7,46.4,65.6,46.4,65.7,46.4C65.6,46.5,65.7,46.5,65.7,46.4C65.7,46.5,65.7,46.4,65.7,46.4z"
						/>
					<path class="st7" d="M59.9,37.2c0,0,0.1-0.1,0.1-0.1c0,0-0.1,0-0.1,0L59.9,37.2z"/>
					<path class="st7" d="M50.6,39.7c0.1,0,0.1,0,0.2,0c0-0.1-0.1-0.1-0.1-0.2C50.7,39.5,50.7,39.6,50.6,39.7z"/>
					<path class="st7" d="M58.7,36c0,0.1,0,0.2-0.1,0.2l0.1,0.2l0,0C58.7,36.3,58.7,36.1,58.7,36z"/>
					<path class="st7" d="M59,36.4l0,0.1l0.1,0l0-0.3c0,0,0-0.1,0-0.1C59.1,36.2,59.1,36.3,59,36.4z"/>
					<path class="st7" d="M63.4,39.3L63.4,39.3C63.4,39.3,63.4,39.3,63.4,39.3C63.3,39.3,63.4,39.3,63.4,39.3z"/>
					<path class="st7" d="M61.9,37.6L61.9,37.6C61.9,37.6,61.9,37.6,61.9,37.6C61.9,37.6,61.9,37.6,61.9,37.6z"/>
					<path class="st7" d="M60,36.9C60,36.9,60,36.9,60,36.9C60,36.9,60,36.9,60,36.9C60,36.9,60,36.9,60,36.9z"/>
					<path class="st7" d="M65,46.1C65.1,46.1,65.1,46,65,46.1C65.1,46,65,46,65,46.1C65,46.1,65,46.1,65,46.1z"/>
					<path class="st7" d="M63.1,38.9c0.1,0.1,0.2,0.1,0.3,0.2v0c-0.1-0.1-0.1-0.2-0.1-0.3C63.2,38.8,63.2,38.9,63.1,38.9z"/>
					<path class="st7" d="M65.1,43.6L65.1,43.6C65.1,43.6,65.1,43.6,65.1,43.6C65.1,43.6,65.1,43.6,65.1,43.6z"/>
					<path class="st7" d="M64.6,40.1L64.6,40.1l-0.2,0c0,0,0,0.1,0,0.1C64.5,40.2,64.6,40.2,64.6,40.1L64.6,40.1l0.1,0.1
						c0,0.1,0,0.2,0,0.3c0,0,0.1,0,0.1-0.1c0,0,0.1-0.1,0.2-0.1C64.9,40.3,64.8,40.2,64.6,40.1L64.6,40.1z"/>
					<path class="st7" d="M65,39.8C65,39.8,65,39.8,65,39.8C65,39.8,65,39.7,65,39.8C65,39.7,65,39.7,65,39.8z"/>
					<path class="st7" d="M64.7,43.4C64.7,43.4,64.7,43.4,64.7,43.4C64.7,43.4,64.7,43.4,64.7,43.4L64.7,43.4z"/>
					<path class="st7" d="M63.6,42.3C63.6,42.3,63.6,42.3,63.6,42.3C63.6,42.3,63.5,42.3,63.6,42.3C63.5,42.3,63.5,42.3,63.6,42.3z"
						/>
					<path class="st7" d="M64.1,43.4c0-0.1,0.1-0.1,0.2-0.2c-0.1,0-0.1-0.1-0.2-0.1C64.1,43.2,64.1,43.3,64.1,43.4z"/>
					<path class="st7" d="M63.6,42.4l0,0.5c0,0,0,0,0,0c0.1,0,0.2,0.1,0.2,0.1L64,43l0,0l0.1,0l0,0l0,0c0.1,0,0.1,0,0.2,0
						c0,0,0,0,0,0C64.1,42.6,63.9,42.6,63.6,42.4z"/>
					<path class="st7" d="M59.9,42.7C59.9,42.7,59.9,42.7,59.9,42.7C59.9,42.7,59.9,42.7,59.9,42.7C59.9,42.7,59.9,42.7,59.9,42.7z"
						/>
					<polygon class="st7" points="53.2,34 53.2,34 53.2,34 					"/>
					<path class="st7" d="M52.4,34.9c0.1,0.1,0.1,0.1,0.2,0.2c0,0,0,0,0,0c0-0.1,0.1-0.2,0.1-0.3c0,0,0,0,0-0.1c-0.1,0-0.3,0-0.4,0
						C52.3,34.8,52.4,34.8,52.4,34.9z"/>
					<path class="st7" d="M52.6,31.3v0.3l0.2,0v-0.1c-0.1-0.1-0.1-0.3-0.2-0.4C52.6,31.2,52.6,31.3,52.6,31.3z"/>
					<path class="st7" d="M53.2,32.2C53.2,32.1,53.2,32.1,53.2,32.2l0.1-0.2L53.2,32.2c0.1,0,0.1,0,0.1,0c0,0,0,0,0,0v-0.3l-0.1,0
						c0,0-0.1,0-0.1,0V32C53.1,32.1,53.2,32.1,53.2,32.2C53.2,32.1,53.2,32.2,53.2,32.2z"/>
					<polygon class="st7" points="52.8,37 52.8,37 52.8,37 					"/>
					<path class="st7" d="M51.2,35.5l-0.1-0.1c0,0,0,0.1-0.1,0.1l0,0l0,0c0,0-0.1,0-0.1,0l0,0l0,0c0,0-0.1,0-0.1,0
						c0.1,0,0.1,0.1,0.2,0.2c0-0.1,0.1-0.1,0.2-0.2l0,0L51.2,35.5L51.2,35.5c0,0.1,0,0.1,0,0.1V35.5z"/>
					<path class="st7" d="M51.2,37.2C51.2,37.2,51.2,37.2,51.2,37.2C51.2,37.2,51.2,37.2,51.2,37.2L51.2,37.2z"/>
					<path class="st7" d="M53.1,37.2c0,0,0.1-0.1,0.1-0.1c0,0-0.1,0-0.1,0L53.1,37.2z"/>
					<path class="st7" d="M51.3,37.9C51.3,37.9,51.3,37.9,51.3,37.9C51.3,37.9,51.3,37.9,51.3,37.9C51.3,37.9,51.3,37.9,51.3,37.9z"
						/>
					<path class="st7" d="M51.6,37.2L51.6,37.2C51.6,37.2,51.6,37.2,51.6,37.2C51.6,37.2,51.6,37.2,51.6,37.2z"/>
					<path class="st7" d="M51.3,34.7c0-0.1,0-0.1,0.1-0.2c0,0,0-0.1,0.1-0.1c-0.1,0-0.1,0-0.2,0C51.2,34.5,51.3,34.6,51.3,34.7z"/>
					<path class="st7" d="M54.6,37.4c0,0.1,0,0.1,0.1,0.2c0-0.1,0-0.2,0.1-0.3C54.7,37.4,54.6,37.4,54.6,37.4
						C54.6,37.4,54.6,37.4,54.6,37.4z"/>
					<path class="st7" d="M55.3,34.7C55.3,34.7,55.3,34.6,55.3,34.7L55.3,34.7C55.3,34.6,55.3,34.7,55.3,34.7z"/>
					<path class="st7" d="M55,37.6c0-0.1,0-0.1,0.1-0.2c0,0,0-0.1,0.1-0.1c-0.1,0-0.1,0-0.2,0C55,37.4,55,37.5,55,37.6z"/>
					<path class="st7" d="M56.5,36.9C56.5,36.9,56.5,36.9,56.5,36.9C56.5,36.9,56.5,36.9,56.5,36.9C56.5,36.9,56.5,36.9,56.5,36.9z"
						/>
					<path class="st7" d="M56.9,37C56.9,37,56.9,37,56.9,37C56.9,37,56.9,37,56.9,37L56.9,37l-0.1,0L56.9,37
						C56.8,37.1,56.9,37,56.9,37L56.9,37L56.9,37L56.9,37z"/>
					<path class="st7" d="M53.2,36.9C53.2,36.9,53.2,36.9,53.2,36.9C53.2,36.9,53.2,36.9,53.2,36.9C53.2,36.9,53.2,36.9,53.2,36.9z"
						/>
					<path class="st7" d="M58,37.2C58,37.2,58.1,37.2,58,37.2C58.1,37.2,58,37.2,58,37.2L58,37.2z"/>
					<path class="st7" d="M53.3,34.5c-0.1,0-0.2,0-0.3,0c0,0.1,0,0.1,0.1,0.2c0,0,0,0.1,0,0.1C53.2,34.7,53.3,34.6,53.3,34.5
						C53.4,34.5,53.4,34.5,53.3,34.5z"/>
					<path class="st7" d="M53.3,38.2C53.3,38.2,53.3,38.2,53.3,38.2L53.3,38.2C53.3,38.2,53.3,38.2,53.3,38.2z"/>
					<path class="st7" d="M54.3,34.1c0,0.1,0,0.1,0,0.1h0.1v0.1l0,0.1l0.1,0v-0.1C54.4,34.2,54.4,34.2,54.3,34.1z"/>
					<path class="st7" d="M53.5,37.2l0-0.1c0,0-0.1,0-0.1,0C53.4,37.1,53.5,37.1,53.5,37.2z"/>
					<path class="st2" d="M51.5,39.3L51.5,39.3L51.5,39.3L51.5,39.3C51.5,39.3,51.5,39.3,51.5,39.3z"/>
					<polygon class="st2" points="51.2,39.6 51.3,39.5 51.3,39.5 51.2,39.5 					"/>
					<polygon class="st2" points="49.4,38.2 49.3,38.3 49.3,38.3 49.3,38.3 49.4,38.2 					"/>
					<path class="st2" d="M78.3,48.7L70,43l-3.6-3.1l-7.1-4.5l-1.4,1l-5.5-6.4l-6.8,6.2l-2.5-0.7L39,39.8l-2.1-1.2l-5.6,5.6
						l-7.4,5.4l7.6-3.4l-0.4,1.9l2.7-3l0.3-0.1l0.2-0.5l2.1-0.1l3.4,0.1L37,43.5l-1.6-0.8l1.5-2.9l1.8,2.2l4.6-5.6l2.7,0.9l6.3-6.3
						l-3.4,6.1l0.9,0.5l-0.3,0.6v0.1c0,0,0,0,0-0.1l0,0l-1.9,3.3l3.7-2.1l0-0.4h0c0,0.1,0,0.1,0,0.2l0,0.1l0.3-0.1
						c0-0.1,0-0.2,0.1-0.3c0,0,0,0.1,0,0.1l0,0.1l1.4-0.8l2.5,0.7l3.6-2.5l2.5,4.4l-1.9,0.9l-2.1,2.4l2.6-1.5L63,43l3,4.7l-0.6-5.3
						L78.3,48.7z M75.9,47.2C75.9,47.2,76,47.2,75.9,47.2C75.9,47.2,75.9,47.2,75.9,47.2C75.9,47.2,75.9,47.2,75.9,47.2z M75.5,47.2
						c0,0,0.1,0,0.1,0.1c0,0,0,0,0,0c0,0,0,0,0,0L75.5,47.2C75.5,47.3,75.5,47.2,75.5,47.2C75.5,47.2,75.5,47.2,75.5,47.2z
						 M75.1,46.8C75.1,46.8,75.1,46.8,75.1,46.8C75.1,46.8,75.1,46.8,75.1,46.8C75.1,46.8,75.1,46.8,75.1,46.8
						C75.1,46.8,75.1,46.8,75.1,46.8z M74.3,46.5C74.3,46.6,74.3,46.6,74.3,46.5C74.3,46.6,74.3,46.5,74.3,46.5
						C74.3,46.5,74.3,46.5,74.3,46.5z M74.1,46.4L74.1,46.4L74.1,46.4C74.1,46.4,74.1,46.4,74.1,46.4C74.1,46.5,74.1,46.5,74.1,46.4
						C74.1,46.5,74.1,46.5,74.1,46.4C74.1,46.4,74.1,46.4,74.1,46.4z M73.5,46.1L73.5,46.1L73.5,46.1L73.5,46.1
						C73.6,46.2,73.6,46.2,73.5,46.1C73.5,46.2,73.5,46.2,73.5,46.1C73.5,46.1,73.5,46.1,73.5,46.1z M73.4,45.9
						C73.4,46,73.4,46,73.4,45.9C73.4,46,73.4,46,73.4,45.9C73.4,46,73.4,45.9,73.4,45.9z M73.1,45.3L73.1,45.3
						C73.1,45.3,73.1,45.3,73.1,45.3C73.1,45.3,73.1,45.3,73.1,45.3z M72.7,45.1C72.7,45.1,72.7,45.1,72.7,45.1
						C72.7,45.1,72.7,45.1,72.7,45.1L72.7,45.1z M71.9,45.5C71.9,45.5,71.9,45.5,71.9,45.5C71.9,45.5,71.9,45.5,71.9,45.5L71.9,45.5
						C71.9,45.5,71.9,45.5,71.9,45.5z M71,44.5c0.1,0.1,0.2,0.1,0.3,0.2c0,0-0.1,0.1-0.1,0.1c-0.1,0-0.2,0-0.3,0.1c0,0,0,0,0,0
						C70.9,44.8,71,44.7,71,44.5C71,44.6,71,44.6,71,44.5z M70.6,44c0.1,0.1,0.2,0.1,0.2,0.2c-0.1,0-0.1,0.1-0.2,0.1
						c0,0-0.1,0-0.1,0.1C70.6,44.2,70.6,44.1,70.6,44C70.6,43.9,70.6,44,70.6,44z M69.7,43.5C69.7,43.5,69.6,43.6,69.7,43.5
						C69.6,43.5,69.7,43.5,69.7,43.5L69.7,43.5z M69.6,43.1c0.1,0,0.3,0.1,0.4,0c0,0,0,0,0,0L69.6,43.1l0.1,0.1L69.6,43.1L69.6,43.1
						z M68.2,41.9C68.2,41.9,68.2,41.9,68.2,41.9C68.2,41.9,68.2,41.9,68.2,41.9C68.2,41.9,68.2,41.9,68.2,41.9z M67.8,42.4
						c0-0.1,0-0.1,0-0.2c0.1,0.1,0.2,0.1,0.3,0.2c0,0,0,0,0,0c-0.1,0-0.3,0-0.4,0.1C67.8,42.4,67.8,42.4,67.8,42.4z M67.1,42
						c0.1,0.1,0.2,0.2,0.3,0.2c0,0,0,0-0.1,0c-0.1,0-0.2,0.1-0.2,0.2c0,0,0,0,0,0c0-0.1,0-0.2-0.1-0.3C67.1,42.1,67.1,42,67.1,42z
						 M66.4,41.1c0,0,0.1,0.1,0.1,0.1c0,0-0.1,0-0.1,0c-0.1,0-0.1,0.1-0.1,0.1C66.3,41.3,66.3,41.2,66.4,41.1z M26,48.4L26,48.4
						C26,48.3,26,48.3,26,48.4C26,48.3,26,48.4,26,48.4z M26.4,48.1C26.4,48.1,26.4,48.1,26.4,48.1L26.4,48.1
						C26.4,48.1,26.4,48.1,26.4,48.1z M27.8,47.7C27.8,47.7,27.8,47.7,27.8,47.7c0-0.1,0.2-0.2,0.3-0.3c0,0,0,0,0,0.1
						c0,0,0,0.1,0,0.1L27.8,47.7z M28.4,47.2C28.4,47.2,28.4,47.2,28.4,47.2c-0.1-0.1-0.2-0.1-0.2-0.2c0.1-0.1,0.2-0.1,0.2-0.2
						c0,0,0,0,0,0C28.4,47,28.4,47.1,28.4,47.2z M30.8,45.1C30.8,45.1,30.8,45.1,30.8,45.1c0.1-0.1,0.2-0.1,0.3-0.2
						c0,0.1,0,0.1,0.1,0.2c0,0,0,0.1,0,0.1C31.1,45.1,30.9,45.1,30.8,45.1z M34,42.8L34,42.8L34,42.8l0.3,0c0,0,0,0,0,0
						C34.2,42.8,34.1,42.8,34,42.8L34,42.8L34,42.8c0,0.2,0,0.3,0,0.4l0,0c0,0,0,0-0.1-0.1c-0.1,0-0.1-0.1-0.2-0.1
						C33.9,42.9,33.9,42.8,34,42.8z M33.7,42.4C33.7,42.4,33.7,42.4,33.7,42.4C33.7,42.4,33.7,42.4,33.7,42.4
						C33.7,42.4,33.7,42.4,33.7,42.4z M31.6,45C31.5,45,31.5,45,31.6,45c0-0.1,0.1-0.2,0.2-0.2l-0.1,0.3C31.6,45,31.6,45,31.6,45z
						 M35.1,42C35.1,41.9,35.1,41.9,35.1,42l0-0.2l0.2,0c0,0,0.1,0,0.1,0C35.3,41.9,35.2,41.9,35.1,42z M35.4,41.5L35.4,41.5
						c0-0.1,0-0.2,0-0.2c0.1,0.1,0.1,0.1,0.2,0.1C35.5,41.5,35.4,41.5,35.4,41.5z M36.3,40.5C36.3,40.5,36.3,40.5,36.3,40.5
						C36.3,40.5,36.3,40.5,36.3,40.5C36.3,40.5,36.3,40.5,36.3,40.5z M38.1,39.8C38,39.8,38,39.8,38.1,39.8c-0.1-0.1,0-0.1,0-0.1
						c0,0.1,0.1,0.2,0.1,0.2C38.2,39.9,38.1,39.8,38.1,39.8z M39.8,39C39.8,39,39.8,39,39.8,39C39.8,39,39.8,39,39.8,39l0-0.1
						C39.8,38.9,39.8,39,39.8,39z M41.7,38.2c-0.1,0-0.1,0-0.2,0c0-0.1,0-0.1,0.1-0.2C41.6,38.1,41.7,38.1,41.7,38.2L41.7,38.2z
						 M43.5,35.8c0,0,0-0.1,0-0.1c0,0,0,0,0-0.1l0.1,0C43.6,35.7,43.5,35.7,43.5,35.8z M45.6,37C45.6,37,45.6,37,45.6,37
						C45.6,37,45.6,37,45.6,37C45.6,37,45.6,37,45.6,37z M45.8,37C45.8,37,45.8,37,45.8,37C45.9,37,45.9,37,45.8,37
						C45.9,37,45.8,37,45.8,37z M46.6,35.5c0-0.1,0.1-0.1,0.1-0.2l0.1-0.1c0,0.1,0.1,0.2,0.2,0.3C46.9,35.5,46.7,35.5,46.6,35.5z
						 M47.2,35.9C47.2,35.9,47.2,35.9,47.2,35.9c-0.1-0.1-0.1-0.2-0.1-0.2c0.1,0,0.1,0,0.2,0L47.2,35.9z M47.7,34.5
						c0,0,0.1-0.1,0.1-0.1l0,0l0.1,0l0,0l0,0l0.1,0.1c0,0,0,0,0.1,0.1C48,34.5,47.9,34.5,47.7,34.5z M51.2,31.3
						c0.2,0,0.3-0.1,0.4-0.2c0,0.1,0,0.1,0.1,0.2C51.5,31.3,51.3,31.3,51.2,31.3z M49.6,36.9C49.6,36.9,49.6,36.9,49.6,36.9
						C49.6,36.9,49.6,36.9,49.6,36.9C49.6,36.9,49.6,36.9,49.6,36.9z M50.5,37.3c0.1,0,0.1,0,0.2,0c0,0.1,0,0.2,0,0.2
						C50.6,37.4,50.6,37.4,50.5,37.3L50.5,37.3z M49.8,37.1L49.8,37.1C49.7,37,49.8,37,49.8,37.1L49.8,37.1z M50.4,38.4L50.4,38.4
						c0.2,0,0.3,0,0.4,0c0,0.1,0,0.1-0.1,0.2c0,0,0,0.1,0,0.1C50.6,38.6,50.5,38.5,50.4,38.4z M50.6,39.7c0-0.1,0.1-0.1,0.1-0.2
						c0,0.1,0,0.1,0.1,0.2C50.7,39.7,50.7,39.7,50.6,39.7z M51.1,35.5L51.1,35.5L51.1,35.5L51.1,35.5c-0.1,0-0.2,0.1-0.2,0.2
						c0-0.1-0.1-0.1-0.2-0.2c0,0,0.1,0,0.1,0l0,0l0,0c0,0,0.1,0,0.1,0l0,0l0,0c0,0,0.1-0.1,0.1-0.1L51.1,35.5L51.1,35.5
						C51.2,35.5,51.1,35.5,51.1,35.5z M51.2,37.2L51.2,37.2C51.2,37.2,51.2,37.2,51.2,37.2C51.2,37.2,51.2,37.2,51.2,37.2z
						 M51.3,37.9C51.3,37.9,51.3,37.9,51.3,37.9C51.3,37.9,51.3,37.9,51.3,37.9C51.3,37.9,51.3,37.9,51.3,37.9z M51.3,34.5
						c0,0.1,0,0.1-0.1,0.2c0-0.1,0-0.2-0.1-0.3C51.3,34.4,51.3,34.4,51.3,34.5C51.4,34.4,51.3,34.4,51.3,34.5z M51.6,37.2
						C51.6,37.2,51.6,37.2,51.6,37.2C51.6,37.2,51.6,37.2,51.6,37.2L51.6,37.2z M53.1,31.8c0,0,0.1,0,0.1,0l0.1,0v0.3c0,0,0,0,0,0
						c0,0,0,0,0,0l0-0.2l0,0.2c0,0,0,0,0,0c0,0,0,0,0,0c0,0-0.1-0.1-0.1-0.1V31.8z M53.2,34C53.2,34,53.2,34,53.2,34
						C53.2,34,53.2,34,53.2,34C53.2,34,53.2,34,53.2,34z M52.7,34.8c0,0.1-0.1,0.2-0.1,0.3c0,0,0,0,0,0c-0.1-0.1-0.1-0.1-0.2-0.2
						c0,0,0-0.1,0-0.1C52.5,34.7,52.6,34.7,52.7,34.8C52.7,34.8,52.7,34.8,52.7,34.8z M52.8,37C52.8,37,52.8,37,52.8,37
						C52.8,37,52.8,37,52.8,37C52.8,37,52.8,37,52.8,37z M52.8,31.5l-0.2,0v-0.3c0-0.1,0-0.2,0.1-0.2C52.7,31.2,52.7,31.3,52.8,31.5
						L52.8,31.5z M52.8,38.2L52.8,38.2C52.9,38.2,52.9,38.2,52.8,38.2C52.9,38.2,52.9,38.2,52.8,38.2z M53.1,37.2l0-0.1
						c0,0,0.1,0,0.1,0C53.1,37.1,53.1,37.1,53.1,37.2z M53.2,36.9C53.2,36.9,53.2,36.9,53.2,36.9C53.2,36.9,53.2,36.9,53.2,36.9
						C53.2,36.9,53.2,36.9,53.2,36.9z M53.1,34.8c0,0,0-0.1,0-0.1c0-0.1,0-0.1-0.1-0.2c0.1,0,0.2,0,0.3,0c0,0,0,0,0.1,0
						C53.3,34.5,53.2,34.6,53.1,34.8z M53.5,37.2c0,0-0.1-0.1-0.1-0.1c0,0,0.1,0,0.1,0L53.5,37.2z M54.5,34.4L54.5,34.4L54.5,34.4
						l-0.1-0.1h-0.1c0,0,0-0.1,0-0.1c0,0.1,0.1,0.1,0.2,0.1V34.4z M54.7,37.6c0-0.1,0-0.1-0.1-0.2c0,0,0-0.1-0.1-0.1
						c0.1,0,0.1,0,0.2,0C54.7,37.4,54.7,37.5,54.7,37.6z M55.1,37.4c0,0.1,0,0.1-0.1,0.2c0-0.1,0-0.2-0.1-0.3
						C55,37.3,55.1,37.3,55.1,37.4C55.1,37.4,55.1,37.4,55.1,37.4z M55.3,34.6C55.3,34.6,55.3,34.6,55.3,34.6L55.3,34.6
						C55.3,34.6,55.3,34.6,55.3,34.6z M56.5,36.9C56.5,36.9,56.5,36.9,56.5,36.9C56.5,36.9,56.5,36.9,56.5,36.9
						C56.5,36.9,56.5,36.9,56.5,36.9z M56.9,37C56.9,37,56.9,37,56.9,37l-0.1,0L56.9,37L56.9,37C56.9,37,56.9,37,56.9,37
						C56.9,37,56.9,37,56.9,37L56.9,37L56.9,37L56.9,37z M58.1,37.2L58.1,37.2C58.1,37.2,58.1,37.2,58.1,37.2
						C58.1,37.2,58.1,37.2,58.1,37.2z M58.7,36.2c0-0.1,0-0.2,0.1-0.2c0,0.1,0,0.3,0,0.4l0,0L58.7,36.2z M59.1,36.5L59.1,36.5
						l-0.1-0.1c0-0.1,0-0.2,0.1-0.3c0,0,0,0.1,0,0.1L59.1,36.5z M60,42.7C60,42.7,59.9,42.7,60,42.7C59.9,42.7,60,42.7,60,42.7
						C60,42.7,60,42.7,60,42.7z M61.9,37.6C61.9,37.6,61.9,37.6,61.9,37.6C61.9,37.6,61.9,37.6,61.9,37.6L61.9,37.6z M60,37.2l0-0.1
						c0,0,0.1,0,0.1,0C60.1,37.1,60,37.1,60,37.2z M60.1,36.9C60.1,36.9,60.1,36.9,60.1,36.9C60.1,36.9,60.1,36.9,60.1,36.9
						C60.1,36.9,60.1,36.9,60.1,36.9z M60.6,37.4c-0.1,0-0.1,0.1-0.1,0.1c0-0.1,0.1-0.2,0.1-0.3C60.6,37.3,60.7,37.4,60.6,37.4
						C60.7,37.4,60.6,37.4,60.6,37.4z M61.6,38.5c-0.1,0-0.2,0.1-0.2,0.2c0,0,0,0,0,0c0-0.1,0-0.2-0.1-0.3c0,0,0-0.1,0-0.1
						C61.4,38.3,61.5,38.4,61.6,38.5C61.6,38.5,61.6,38.5,61.6,38.5z M61.9,41.7c-0.1,0.1-0.1,0.1-0.2,0.2l0.1-0.1l0,0l0-0.1
						c0,0,0-0.1,0-0.1L61.9,41.7l-0.1-0.1c0.1,0,0.1,0.1,0.2,0.1C62,41.7,61.9,41.7,61.9,41.7z M62.4,38.1
						C62.4,38.1,62.4,38.1,62.4,38.1C62.4,38.1,62.4,38.1,62.4,38.1C62.4,38.1,62.4,38.1,62.4,38.1z M65.8,46.5
						C65.8,46.5,65.8,46.5,65.8,46.5C65.7,46.5,65.7,46.5,65.8,46.5C65.7,46.5,65.8,46.5,65.8,46.5z M63.5,39.3
						C63.5,39.3,63.4,39.3,63.5,39.3C63.4,39.3,63.5,39.3,63.5,39.3L63.5,39.3z M63.5,39.1c-0.1-0.1-0.2-0.1-0.3-0.2
						c0.1,0,0.1-0.1,0.2-0.2C63.4,38.9,63.4,39,63.5,39.1L63.5,39.1z M63.6,42.3C63.6,42.3,63.6,42.3,63.6,42.3
						C63.6,42.3,63.6,42.3,63.6,42.3C63.6,42.3,63.6,42.3,63.6,42.3z M64.2,43.4c0-0.1,0-0.2,0-0.3c0.1,0,0.1,0.1,0.2,0.1
						C64.3,43.3,64.2,43.3,64.2,43.4z M64.3,42.9c-0.1,0-0.1,0-0.2,0l0,0l0,0l-0.1,0l0,0L64,43.1c-0.1,0-0.1-0.1-0.2-0.1
						c0,0,0,0,0,0l0-0.5C64,42.6,64.2,42.7,64.3,42.9C64.4,42.9,64.3,42.9,64.3,42.9z M64.8,43.4L64.8,43.4
						C64.8,43.4,64.8,43.4,64.8,43.4C64.8,43.4,64.8,43.4,64.8,43.4z M64.9,40.5C64.9,40.5,64.8,40.5,64.9,40.5
						c-0.1,0-0.1-0.2-0.1-0.3l0,0l0,0c-0.1,0-0.2,0-0.2,0c0,0,0-0.1,0-0.1h0.2v0l0.1,0.1c0.1,0.1,0.2,0.1,0.2,0.2
						C65,40.4,64.9,40.4,64.9,40.5z M65.1,39.8C65.1,39.7,65.1,39.7,65.1,39.8C65.1,39.7,65.1,39.8,65.1,39.8
						C65.1,39.8,65.1,39.8,65.1,39.8z M65.1,46.1C65.1,46.1,65.1,46.1,65.1,46.1C65.1,46.1,65.1,46.1,65.1,46.1
						C65.2,46.1,65.1,46.1,65.1,46.1z M65.2,43.7C65.2,43.7,65.1,43.6,65.2,43.7C65.2,43.6,65.2,43.6,65.2,43.7L65.2,43.7z"/>
				</g>
				<path id="SUN_2_" class="st8" d="M41.9,32l2.5,0.6l5.7-5.1c-1.3-1.1-3.1-1.8-5-1.8c-4.2,0-7.6,3.4-7.6,7.6c0,0.7,0.1,1.4,0.3,2
					l0.5,0.3L41.9,32z"/>
				<path id="MOUNTAIN_-_WHITE_-_BORDER_1_" class="st2" d="M84.1,47.9c-1.4-0.6-2.9-1.2-4.4-1.7l-7.7-5.4l-3.7-3.3L59,31.6L58.3,32
					l-5.9-6.8l-8.1,7.4L41.8,32l-3.6,3.6l-2-1.2l-7.5,7.7l-5.3,3.6l0,0c-1.8,0.7-3.7,1.4-5.5,2.2c0.4,2.1,0.9,4.2,1.4,6.2h1.1
					c-0.3-1.1-0.6-2.2-0.8-3.4l0,0l0-0.2l0,0l-0.1-0.4l0,0l0,0l0,0c-0.1-0.5-0.2-1-0.3-1.5c1.5-0.6,3-1.2,4.6-1.8l2.4-1.7l0,0
					l3.2-2.2l7-7.2l2,1.2l3.8-3.7l2.5,0.6l7.7-7l5.7,6.6l0.9-0.6l8.7,5.5l3.7,3.3l5.6,3.9l0,0l2.4,1.7l0,0c1.1,0.4,2.3,0.9,3.4,1.4
					c-0.1,0.5-0.2,1-0.3,1.5c-0.3,1.4-0.6,2.8-1,4.1h1.1C83.2,52.1,83.7,50,84.1,47.9z"/>
				<path id="ORANGE_-_BACKGROUND_1_" class="st8" d="M17.3,55.1c0.9,3.1,1.9,6.7,2.9,10.1l0.4,1.2c2.2-0.8,9.8-3.6,14.8-5.3
					l2.9-0.8c1-0.3,1.6-0.5,1.8-0.5l2.5-0.7c1.8-0.6,4.2-1,6.3-1.4c0,0,2-0.7,2-0.6c0.1,0,0.2,0,0.4,0c0.4,0,2.2-0.2,2.5-0.1
					c-0.1,0,0.5-0.2,0.7-0.3c-0.1,0.1,4.2-4.1,4.4-4.2c0.2-0.1,14.1,1.4,17.2,1.4c0,0,0.3,0.1,0.8,0.4c0,0,0,0.1,0,0.1
					c0.3-0.1,2.2,1.3,3.8,2.5c0.7,0.5,1.4,0.9,2,1.3c0,0,0,0,0.1,0c0.5,0.4,0.9,0.6,1.2,0.8c0.4-1.4,0.8-2.7,1.2-4L81,54.9
					c0,0,0,0,0,0l-0.9,0c0,0,0.8-3.7,0.8-3.7c-0.2,0-13.5-6-13.6-5.9c-0.5,0.4,0.1,5.6-0.6,5.5c-0.3,0-4-6.8-4.8-7.3
					c-0.2-0.1-6.4,2.7-6.4,2.7l3.8-6.1c0,0-5.5-0.2-5.6-0.2c-0.1,0-1.6,0.6-3.2,1.2c-1.9,0.9-3.9,1.5-4.3,1.9
					c0.1-0.1,0.1-0.1,0.2-0.3c-0.2,0.1-0.3,0.5-0.4,0.5c0.5-0.7,2.1-5.2,2.1-5.2c-0.2-0.1-7.4,7.3-7.4,7.3l-5.4,0.4l-3.1,3.1
					L30.1,51c0,0,0-0.1,0.1-0.2L28.9,52c0,0,1.4-4.4,1.2-4.3c-0.1,0-8.3,7-8,7.3c-0.1,0-0.1,0-0.3,0c0,0,0,0,0,0
					C21.5,55.1,18.8,55.1,17.3,55.1z M39.5,59.8l-2.7,0.9C38.1,60.2,39,59.9,39.5,59.8z"/>
				<g id="GREEN_FIELD_-_BACKGROUND_1_">
					<path class="st9" d="M75.3,63.6c0.3-0.7,5.8-0.1,7.3,0.1c0.4-1.3,0.7-2.5,1.1-3.7c-1-0.6-1.2-0.8-2.4-1.5
						c-0.7-0.2-5-3.5-5.3-3.4c0,0-10.3-1-10.3-1c0,0.2-6.2-0.5-6.2-0.5c-0.1,0.1-3.8,4.1-4,4.1c-0.2,0,0.5,0.4,0.4,0.5
						c0,0.1-1.1-0.1-1.2,0c-0.3,0.2-1.8-0.3-1.6,0c0.1,0.1-2.5,0.3-2.6,0.4c-3.3,0.4-2.2,1.7-2.2,1.7s-4.9-0.1-5-0.1
						c-0.2,0.1-1.4,0.3-2.6,0.6c-0.1,0.1-0.2,0.1-0.4,0.1c0,0,0,0-0.1,0c-1.3,0.3-2.5,0.6-2.6,0.7c0,0-12.8,4.4-16.1,5.6
						c-0.3,0.1-0.5,0.2-0.8,0.3c1.7,5.9,3.1,11.2,3.3,12c0,0,0.1-0.2,0.1-0.2c0.1,0,0.6-0.6,1.3-0.9c2.5-2.9,8.6-8.2,19.2-6.8
						c8,1.1,24,5.6,33.5,2.9c0.8-0.4,1.3-0.8,1.6-1c0-0.1,0-0.1,0-0.1c-2.1-0.3-29.1-3.1-28.8-3.1c0,0,1.7,0.1,4.3,0.3l11.7,1
						c6.7,0.6,12.9,1.1,13,1.1c0,0,0,0,0.1,0c0.7-2.3,1.5-5.1,2.3-8C80.9,64.5,75.2,63.9,75.3,63.6z M55.4,70.5
						c2.8,0.2,6.6,0.6,10.4,0.9L55.4,70.5z"/>
				</g>
				<g id="BORDER_-_LT_BLUE_-_TOP_1_">
					<path class="st10" d="M87,46.3c-4.7-2.1-9.5-3.9-14.4-5.3l7.2,5.1h0c1.5,0.5,2.9,1.1,4.3,1.7c-0.4,2.1-0.9,4.3-1.5,6.4h2.6
						C85.9,51.6,86.5,49,87,46.3z"/>
					<path class="st10" d="M17.9,47.9c0,0,0-0.1,0-0.1c1.8-0.8,3.7-1.5,5.5-2.2l0,0l5.2-3.6l1-1.1c-5,1.4-9.8,3.3-14.6,5.4
						c0.5,2.6,1.1,5.3,1.7,7.9h2.6C18.8,52.1,18.3,50,17.9,47.9z"/>
				</g>
				<path id="BORDER_-_DK_BLUE_-_OUTLINE_2_" class="st5" d="M68,37.2l0.4,0.3l3.7,3.3l0.4,0.3l0,0l0.2,0.1l0,0l0.2,0.1l0,0l0.2,0.1
					h0l0.2,0.1h0l0.2,0.1h0l0.2,0.1l0,0l0.2,0.1l0,0l0.2,0.1l0,0l0.2,0.1l0,0l0.2,0.1l0,0l0.2,0.1h0l0.2,0.1l0,0l0.2,0.1l0,0
					l0.2,0.1l0,0l0.2,0.1h0l0.2,0.1l0,0l0.2,0.1l0,0l0.2,0.1l0,0l0.2,0.1h0l0.2,0.1h0l0.2,0.1l0,0l0.2,0.1h0l0.2,0.1h0l0.2,0.1h0
					l0.2,0.1h0l0.2,0.1l0,0l0.2,0.1h0l0.2,0.1h0l0.2,0.1h0l0.2,0.1h0l0.2,0.1h0l0.2,0.1h0l0.2,0.1h0l0.2,0.1l0,0l0.2,0.1h0l0.2,0.1
					h0L81,44h0l0.2,0.1h0l0.2,0.1h0l0.2,0.1h0l0.2,0.1h0l0.2,0.1h0l0.2,0.1h0l0.2,0.1h0l0.2,0.1h0l0.2,0.1h0l0.2,0.1h0l0.2,0.1h0
					l0.2,0.1l0.2,0.1h0l0.2,0.1h0l0.2,0.1l0.2,0.1l0.2,0.1h0l0.2,0.1l0.2,0.1l0.2,0.1l0.2,0.1l0.2,0.1l0.2,0.1l0.2,0.1l0.2,0.1
					l0.2,0.1l0.2,0.1c-0.5,2.6-1.1,5.2-1.7,7.8h0h-2.6h0h-1.1c0.4-1.4,0.7-2.7,1-4.1c0.1-0.5,0.2-1,0.3-1.5
					c-1.1-0.5-2.3-0.9-3.4-1.4l0,0L77,45.6l0,0l-5.6-3.9l-3.7-3.3l-8.7-5.5l-0.9,0.6l-5.7-6.6l-7.7,7l-2.5-0.6L38.4,37l-2-1.2
					l-7,7.2l-3.2,2.2l0,0l-2.4,1.7c-1.5,0.6-3,1.1-4.5,1.7l0,0l0,0l0,0l0,0l0,0l0,0l0,0l0,0l0,0l0,0l0,0l0,0l0,0l0,0l0,0l0,0l0,0
					l0,0l0,0l0,0.1l0,0l0,0l0,0.1l0,0l0,0.1l0,0l0,0l0,0l0,0l0,0l0.1,0.3l0,0l0.1,0.4l0,0l0,0.2l0,0l0,0l0,0l0,0l0,0l0,0l0,0l0,0
					l0,0l0,0l0,0l0,0l0,0l0,0l0.1,0.4l0,0.2l0,0.1l0,0l0,0l0,0l0,0l0,0l0,0l0,0l0,0l0,0l0,0l0,0l0,0.1c0.2,1.1,0.5,2.1,0.8,3.2h-0.1
					h-1.1h-2.5c-0.7-2.6-1.2-5.2-1.7-7.8c0,0,0,0,0,0c0,0,0,0,0,0l0.2-0.1l0.2-0.1l0.2-0.1l0.2-0.1l0.2-0.1l0.2-0.1l0.2-0.1l0.2-0.1
					l0.2-0.1h0l0.2-0.1l0.2-0.1l0.2-0.1l0.2-0.1h0l0.2-0.1l0.2-0.1l0.2-0.1h0l0.2-0.1l0.2-0.1l0.2-0.1l0.2-0.1l0.2-0.1h0l0.2-0.1h0
					l0.2-0.1l0.2-0.1l0.2-0.1l0.2-0.1h0l0.2-0.1h0l0.2-0.1h0l0.2-0.1h0l0.2-0.1l0.2-0.1h0l0.2-0.1l0.2-0.1l0.2-0.1l0.2-0.1h0
					l0.2-0.1h0l0.2-0.1l0.2-0.1l0.2-0.1l0.2-0.1l0.2-0.1h0l0.2-0.1h0l0.2-0.1h0l0.2-0.1h0l0.2-0.1h0l0.2-0.1h0l0.2-0.1h0l0.2-0.1h0
					l0.2-0.1h0l0.2-0.1l0.2-0.1h0l0.2-0.1h0l0.2-0.1h0l0.2-0.1h0l0.2-0.1h0l0.2-0.1h0l0.2-0.1h0l0.2-0.1h0l0.2-0.1h0l0.2-0.1h0
					l0.2-0.1h0l0.2-0.1h0l0.2-0.1h0l0.2-0.1h0l3.6-3.6c-7.2,1.8-14.3,4.3-21.1,7.5c0.5,2.9,8.2,29.5,9.8,35c0,0.1,0,0.1,0,0.2
					c0.2,0.5,0.2,0.8,0.2,0.8l5.5,3.7c5.8,7.7,13.4,13.9,23.3,17.7c10-3.8,17.5-10.1,23.3-17.7l5.5-3.7c0,0,9.5-32.8,10-36
					C82.9,41.6,75.6,39,68,37.2z M31.3,44.3l5.6-5.6l2.1,1.2l4.1-4.3l2.4,0.7l6.8-6.2l5.5,6.3l1.4-1l7.1,4.5l3.5,3.1l8.2,5.6
					l-12.8-6.3l0.6,5.3L62.7,43L60,42.9l-2.5,1.4l2.1-2.4l1.9-0.9L59,36.7l-3.6,2.5L53,38.6l-1.4,0.8l0,0l-0.1,0c0,0,0,0,0,0
					l-0.3,0.1l0,0l-0.1,0.1l0,0l-3.7,2.1l1.8-3.3l0,0l0,0l0.1-0.1v0l0.3-0.6l-0.9-0.5l3.4-6.1l-6.2,6.3l-2.6-0.9l-4.6,5.5l-1.8-2.2
					l-1.5,2.9l1.6,0.8l2.9,0.9l-3.4-0.1l-2.1,0.1L34.2,45l-0.3,0.1l-2.7,3l0.3-1.9l-7.6,3.4L31.3,44.3z M21.3,55.2
					c0.1,0,0.5,0,0.5,0c0.5,0.5,7.5-7.2,8.5-7.4c0.1,0-1.4,4.4-1.4,4.4l1.2-1.2l2.1-2.1l3.1-3.1l5.4-0.4c0,0,7.6-7.2,7.8-7
					c-1.2-0.8-2.7,5.5-2.6,5.4c0.1-0.1-0.1-0.4,0.1-0.5c0.9-0.4,3-1.3,4.5-2c1.6-0.7,3-1.2,3.2-1.2c0.1,0,5.6,0.2,5.6,0.2L55,46.6
					c0,0,7-2.6,7.2-2.4c0.7,0.6,4.1,7.5,4.4,7.5c0.7,0.1,0.1-5.8,0.6-6.2c0.1-0.1,13.4,5.8,13.6,5.9c0,0-0.8,3.7-0.8,3.7l0.9,0
					l4.1,0.1c0,0,0,0,0,0c-0.4,1.3-0.8,2.5-1.2,4c0,0,0,0,0,0c-0.3-0.2-0.7-0.5-1.3-0.8c-0.6-0.4-1.3-0.8-2-1.3
					c-1.4-0.9-2.9-1.9-3.8-2.5C76.3,54.2,76,54,75.9,54c-3.1,0-16.9-1.5-17.2-1.4c-0.3,0.1-4.5,4.1-4.4,4.1
					c-0.2,0.2-0.7,0.3-0.7,0.3c-0.3-0.1-2.2,0.3-2.5,0.2c-0.1,0-0.2,0-0.4,0c0-0.1,0-0.1,0-0.2l-2,0.6l-6.3,1.7L40,60l-1.8,0.5
					l-2.9,0.8c-5,1.8-12.5,4.3-14.8,5.1c0,0,0,0.3,0,0.3c-0.1-0.4-0.2-0.8-0.4-1.3c-1-3.4-2-7-2.9-10.1c0,0,0,0,0,0
					C18.2,55.2,20.4,55.2,21.3,55.2z M80,72.8C80,72.8,80,72.8,80,72.8c-0.1,0-6.3-0.6-13-1.2l-11.7-1c-2.5-0.2-4.2-0.3-4.3-0.3
					c-0.2,0.1,26.8,2.9,28.8,3.1c0,0.1,0,0.1,0,0.1c-0.3,0.2-0.8,0.6-1.6,1c-9.5,2.7-25.5-1.8-33.5-2.9c-10.5-1.4-16.6,4-19.2,6.8
					c-0.7,0.3-1.2,0.5-1.3,0.5c0,0-0.1,0-0.1-0.1c-0.2-0.8-1.6-5.5-3.3-11.4c0,0,0,0,0,0c0,0,0.3-0.1,0.8-0.3
					c3.3-1.2,16.1-5.6,16.1-5.6c0.2-0.1,1.4-0.4,2.6-0.7c0,0,0,0,0.1,0c0.1,0,0.3-0.1,0.4-0.1c1.2-0.3,2.4-0.6,2.6-0.6
					c0.1,0,5,0.1,5,0.1s-1.1-1.3,2.2-1.7c0.1,0,2.6-0.3,2.6-0.4c-0.1-0.3,1.3,0.2,1.6,0c0.1-0.1,1.1,0.2,1.2,0
					c0.1-0.2-0.6-0.5-0.4-0.5c0.2,0,3.9-4,4-4.1c0,0,6.2,0.7,6.2,0.5c0,0,10.2,1,10.3,1c0.4-0.1,4.6,3.1,5.3,3.4
					c1.1,0.7,1.4,0.9,2.4,1.5c-0.4,1.3-0.7,2.5-1.1,3.7c-1.4-0.3-7-0.8-7.3-0.1c-0.1,0.3,5.6,0.9,7,1.1C81.5,67.6,80.7,70.4,80,72.8
					z"/>
				<path id="BORDER_-_LT_BLUE_BOTTOM_1_" class="st10" d="M71.1,80.2c-5,7-11.5,12.8-20.1,16.5c-3.4-1.5-6.6-3.4-9.6-5.7
					c-3.1-2.4-6-5.1-8.4-8c-1-1.2-1.9-2.3-2.8-3.5c-0.4,0-0.1,0.8-0.5,0.8l-1.5,1.3c5.5,8.1,12.8,13.7,22.7,17.8
					C61,95.3,68.4,88.6,74,80.5l-1.7-0.2C71.9,80.3,71.5,80.2,71.1,80.2z"/>
				<path id="WATER_-_WHITE_BOTTOM_1_" class="st2" d="M70.2,80.1c-0.4,0.5-0.8,1-1.2,1.5c0.6-1,1.2-2.1,1.6-3.3
					c-11,7-31.7-3.3-41.1-0.4c-0.8,0.3,2.3,3.7,2.4,4c2.5,3.1,5.5,6,8.7,8.6c0.1,0.1,0.3,0.1,0.4,0.2c3,2.4,6.4,4.4,10.2,6.1
					c8.6-3.7,15.2-9.5,20.2-16.5C71,80.2,70.6,80.2,70.2,80.1z M51.3,95.6c-2.4-1.1-4.6-2.3-6.7-3.7c3.6,1,7.9,1.4,10.8-0.6
					c-4.1,0.4-8.5-0.2-13.2-2c8.9,1.7,17.5,1,23.2-3.6C61.5,89.7,56.8,93.1,51.3,95.6z"/>
				<path id="WAVE_-_SHADOW_-_2_1_" class="st11" d="M78.7,77.4c-0.1,0.6-2.9,9.2-17.2,4.1c-25.8-9.2-31-0.9-35,1.2
					c2.2-4.4,5-10.4,16.6-9.3C50.9,74.3,71.2,82.3,78.7,77.4z"/>
				<path id="WAVE_-_BLUE_1_" class="st10" d="M79.5,77.3c0.2-0.6-3.6,9.3-18.9,3.8c-25.7-9.3-30.5-0.6-34.4,1.2
					c2.2-4.4,4.6-10.7,16.2-9.4C50.3,73.8,72,82,79.5,77.3z"/>
				<path id="WAVE_-_SHADOW_1_1_" class="st11" d="M25.8,80.5c0-0.2,7.2-8.1,21-5.5c8.9,1.6,21.7,3.9,33.4,0
					c-3.5,4.2-5.7,7.3-14.9,8.1C40.3,85.4,30.6,78,25.8,80.5z"/>
				<path id="WAVE_-_BLACK_-_BORDER_TOP_2_" class="st11" d="M23.8,79.9c0-0.1,7.9-10.6,22.2-8.1c9.2,1.6,24.5,7.2,34.4,1.5
					c-5.2,8-16.7,8.2-27.1,6.7C27.4,76.3,28.5,76.8,23.8,79.9z"/>
				<path id="WAVE_-_WHITE_-_TOP_1_" class="st2" d="M24.5,80.5c0-0.2,7.5-10.1,21.3-7.7c8.8,1.6,22.9,6,32.9,2.5
					c0.1,0,1.5-0.7,1.4-0.6c-2.8,3.5-5.8,9-25.1,8.9C32.1,83.5,31.7,77.2,24.5,80.5z"/>
				<g>
					<g>
						<path class="st5" d="M50.8,49.5c0.1-0.1,0.1-0.3,0.1-0.5c-0.1-0.3-0.3-0.4-0.4-0.4L50.3,48c0-0.1-0.1-0.1-0.2-0.1
							c-0.1,0-0.2,0.1-0.1,0.2l0.2,0.5l-0.5,0.1L48,47.6c0,0,0,0,0,0c-0.2-0.1-0.5-0.2-0.8-0.2l-0.6,0c-0.6,0-1.2,0.4-1.2,0.8l0,4.1
							c0,0.1,0,0.1,0,0.2c0,0,0,0,0,0l0.5,3.1l0,3.1c0,0.3,0.3,0.6,0.7,0.6c0.4,0,0.7-0.3,0.7-0.6l0-3.2c0,0,0,0,0,0c0,0,0,0,0,0
							l0,0c0,0,0-0.1,0-0.1L47,53.1l0.1,0c0.1,0,0.2,0,0.2,0l2.2,1.4l0.5,2.7c0.1,0.3,0.4,0.5,0.8,0.5c0.4-0.1,0.7-0.4,0.6-0.7
							l-0.5-3.2c0,0,0,0,0-0.1c0,0,0,0,0,0c0,0,0-0.1,0-0.1c0,0,0,0,0,0c0,0,0-0.1-0.1-0.1c0,0,0,0,0,0c0,0-0.1-0.1-0.2-0.1
							l-2.3-1.4l0-2.7l0.8,0.6c0.1,0.1,0.2,0.1,0.2,0.1c0,0,0,0,0,0l0,0c0,0,0.1,0,0.1,0l0.9-0.2l2.4,7.2c0,0.1,0.1,0.1,0.2,0.1
							c0.1,0,0.2-0.1,0.1-0.2L50.8,49.5z"/>
						<path class="st5" d="M47.1,47.2c0.5,0,0.9-0.2,1-0.7c0.1-0.3,0.1-0.9,0-1.2c0-0.1-0.1-0.3-0.1-0.4c-0.4-0.6-2.1-0.5-2.1,0.5
							c0,0.3,0.1,1,0.3,1.2C46.3,47,46.7,47.2,47.1,47.2z"/>
						<path class="st5" d="M45.1,47.8l0.7-0.5l0.4-0.3l-1.1,0.2l0-0.1c0-0.2-0.1-0.3-0.3-0.3l-0.9,0c-0.1,0-0.2,0.1-0.2,0.3
							l-0.4,1.2c-0.1,0.3-0.1,0.5-0.1,0.8l0,2.1c0,0.2,0.1,0.3,0.3,0.3l1.4,0c0.1,0,0.3-0.1,0.2-0.3L45.1,47.8z"/>
					</g>
					<g>
						<path class="st5" d="M41.7,51.6c0-0.3-0.2-0.5-0.4-0.5l0,0l-0.1-0.5c0-0.1-0.1-0.1-0.3-0.1c-0.1,0-0.2,0.1-0.2,0.2l0.1,0.4
							l-0.4,0l-1.5-1.4c0,0,0,0,0,0c-0.2-0.1-0.4-0.3-0.7-0.3l-0.6-0.1c-0.6-0.1-1.2,0.2-1.3,0.7l-0.5,4.1c0,0.1,0,0.1,0,0.2
							c0,0,0,0,0,0l0.1,3.1l-0.4,3.1c0,0.3,0.2,0.6,0.6,0.7c0.4,0.1,0.8-0.2,0.8-0.5l0.4-3.2c0,0,0,0,0,0c0,0,0,0,0,0l0,0
							c0,0,0-0.1,0-0.1l-0.1-2.2l0.1,0c0.1,0,0.2,0,0.2,0l2,1.6l0.1,2.8c0,0.3,0.4,0.6,0.8,0.6c0.4,0,0.7-0.3,0.7-0.6l-0.1-3.2
							c0,0,0,0,0-0.1c0,0,0,0,0,0c0,0,0-0.1,0-0.1c0,0,0,0,0,0c0,0,0-0.1,0-0.1c0,0,0,0,0,0c0,0-0.1-0.1-0.1-0.1l-2.1-1.7l0.4-2.6
							l0.7,0.7c0,0,0.1,0.1,0.2,0.1c0,0,0,0,0.1,0l0,0c0,0,0.1,0,0.1,0l0.9-0.1l1.6,6.6c0,0.1,0.1,0.1,0.3,0.1
							c0.1,0,0.2-0.1,0.2-0.2l-1.6-6.6C41.6,52,41.7,51.8,41.7,51.6z"/>
						<path class="st5" d="M35.7,53.2l0.4-3.4l0.7-0.4l0.5-0.2l-1.1,0l0-0.1c0-0.2-0.1-0.3-0.2-0.3L35,48.7c-0.1,0-0.2,0.1-0.3,0.3
							l-0.5,1.1c-0.1,0.3-0.2,0.5-0.2,0.8L33.8,53c0,0.2,0.1,0.3,0.2,0.3l1.4,0.2C35.5,53.5,35.7,53.4,35.7,53.2z"/>
						<path class="st5" d="M37.9,49.2c0.5,0,0.9-0.2,1-0.7c0.1-0.3,0.1-0.9,0.1-1.2c0-0.1-0.1-0.3-0.1-0.4c-0.4-0.6-2.1-0.6-2.1,0.4
							c0,0.3,0.1,1,0.2,1.3C37.1,49,37.5,49.2,37.9,49.2z"/>
					</g>
				</g>
				<g id="BIKERS_1_">
					<path class="st5" d="M63.9,64.8l-1.8-0.7c0,0.1,0,0.2,0.1,0.3l2,3l0.1-1.3l0-0.5L63.9,64.8z"/>
					<path class="st5" d="M62.7,57.8c0.3,0.4,0.7,0.5,1.2,0.3c0.3-0.1,0.6-0.5,0.7-0.8c0.1-0.3,0-1-0.1-1.3c-0.3-1-2-0.5-2.2,0.2
						c0,0.1,0,0.2,0,0.4C62.3,57,62.5,57.6,62.7,57.8z"/>
					<path class="st5" d="M65.1,58l0.8,0.2l1.2,3.2c0.1,0.2,0.2,0.2,0.3,0.2l1.3-0.6c0.1-0.1,0.2-0.2,0.1-0.4l-0.8-1.9
						c-0.1-0.2-0.2-0.5-0.4-0.7L67,57c-0.1-0.1-0.2-0.2-0.3-0.2l-0.8,0.4c-0.1,0.1-0.2,0.2-0.1,0.4l0,0.1l-1.1,0.3L65.1,58z"/>
					<path class="st5" d="M68.9,65.5c-0.6-0.1-1.3,0.1-1.8,0.4l0.5,0.6c0.4-0.2,0.8-0.3,1.3-0.2c1.3,0.1,2.3,1.3,2.2,2.6
						c-0.1,1.3-1.3,2.3-2.6,2.2c-1.1-0.1-2.1-1-2.2-2.1l1.3,0c0.1,0.5,0.5,0.8,1,0.9c0.6,0.1,1.2-0.4,1.3-1.1
						c0.1-0.6-0.4-1.2-1.1-1.3c-0.2,0-0.4,0-0.6,0.1c-0.6-0.8-1.2-1.5-1.8-2.3c0.4-0.6,0.9-1.4,1-1.9c0.1-0.5,0.2-1-0.1-1.5
						l-1.3-3.2c-0.4-0.8-1.8-0.9-2.3-0.2l-1.3,1.7l-2.1,0.4c-0.2,0-0.4,0-0.6,0c-0.1,0-0.3,0.1-0.4,0.1c-0.1,0.1-0.1,0.5-0.1,0.6
						c0,0.1,0.1,0.1,0.1,0.2c0.1,0.1,0.1,0.1,0.2,0.1c0.1,0,0.2,0.1,0.3,0.1l0.1,0l-0.1,0.2l-0.2,0l-0.7,1.6l0.1,0.2l-0.2,0.4
						c-0.1,0-0.3,0.1-0.3,0.3L57.8,66l-0.2,0.5c-0.6,0-1.1,0.4-1.2,1.1c-0.1,0.6,0.4,1.2,1.1,1.3c0.6,0.1,1.2-0.4,1.3-1.1
						c0-0.3-0.1-0.7-0.3-0.9l0.5-1.2c0.2,0.1,0.3,0.3,0.5,0.4c0.9,1,0.7,2.6-0.3,3.4c-1,0.9-2.6,0.7-3.4-0.3c-0.9-1-0.7-2.6,0.3-3.4
						c0.5-0.4,1.2-0.6,1.9-0.5l0.3-0.7c-1-0.2-2,0-2.7,0.7c-1.4,1.1-1.5,3.2-0.4,4.5c1.1,1.4,3.2,1.5,4.5,0.4
						c1.4-1.1,1.5-3.2,0.4-4.5c-0.2-0.3-0.5-0.5-0.8-0.7l0.1-0.1c0.1-0.1,0-0.3,0-0.4l0.2-0.4l0.2,0l0.1-0.2l3.6,4.4
						c-0.1,0.1-0.1,0.2-0.1,0.4c0,0.4,0.2,0.7,0.5,0.9l0.4-0.1c0.1,0,0.1-0.1,0.1-0.2l0-1.4c-0.1,0-0.3,0-0.4,0.1l-3.2-4.2l0.1-0.2
						l1.4,0.5v0l1.7,0.6l0,0l0.7,0.3c0.1-0.2,0.2-0.5,0.3-0.7l-0.2-0.1l0.6-0.2c-0.2,0.3-0.6,1.2-0.7,1.7c0,0.2,0,0.3-0.1,0.5
						c-0.1,1-0.1,2-0.1,3.1c0,0.1-0.1,0.2-0.2,0.3l-0.8,0.3c-0.1,0-0.2,0.1-0.2,0.1c0,0.1,0,0.2,0,0.3c0,0,0.1,0.1,0.2,0.1l0.3,0
						l0,0.2l1-0.1l0-0.2l0.5,0c0.1,0,0.2-0.1,0.2-0.2c0-0.1,0.1-0.5,0-0.6l0-0.2c0-0.6,0.1-0.9,0.2-1.4c0.1-0.4,0-0.8,0-1.2
						c0-0.1,0-0.3,0.1-0.4c0.1-0.1,0.1-0.2,0.2-0.3l0.4,0.5c-0.2,0.2-0.4,0.5-0.6,0.8c0,0.2,0,0.4,0,0.6c-0.1,0.5-0.2,0.9-0.2,1.4
						c0,0.2,0,0.3,0,0.5c0.4,1.2,1.5,2.1,2.8,2.2c1.8,0.2,3.3-1.1,3.5-2.9C71.9,67.2,70.6,65.6,68.9,65.5z M68.6,68.2
						c-0.1,0-0.1,0-0.2,0L68.3,68c0.1,0,0.2-0.1,0.4-0.1c0.4,0,0.7,0.4,0.6,0.8c0,0.4-0.4,0.7-0.8,0.6c-0.3,0-0.5-0.2-0.6-0.5l0.2,0
						c0.1,0.2,0.2,0.3,0.4,0.3c0.3,0,0.5-0.2,0.6-0.5C69.1,68.4,68.9,68.2,68.6,68.2z M68,68.3l0.1,0.2c0,0,0,0.1,0,0.1l-0.2,0
						C67.9,68.4,67.9,68.3,68,68.3z M57.4,68.4c-0.4,0-0.7-0.4-0.6-0.8c0-0.3,0.3-0.6,0.6-0.6l-0.1,0.2c-0.2,0.1-0.3,0.2-0.3,0.4
						c0,0.3,0.2,0.5,0.5,0.6c0.3,0,0.5-0.2,0.6-0.5c0-0.1,0-0.2,0-0.2l0.1-0.2c0.1,0.1,0.1,0.3,0.1,0.5
						C58.2,68.1,57.8,68.4,57.4,68.4z M64.8,62.4l-2.1,0.9l-2.5-1l0.2-0.5c0,0,0,0,0,0l2-0.2c0.2,0,0.4-0.1,0.6-0.2l1.3-1.5l0,0.1
						L64,60.6C64.1,60.7,65,62.3,64.8,62.4z M66.9,67l0.8,1c-0.1,0.1-0.2,0.3-0.2,0.5l-1.3,0C66.2,67.9,66.5,67.4,66.9,67z"/>
				</g>
				<g>
					<path class="st7" d="M53.5,81l-0.8,0.6c-0.1,0.1-0.3,0.1-0.5,0.1c0,0,0,0-0.1,0L51,81.4l0.2,0.4l2.5,0.5L53.5,81z"/>
					<path class="st7" d="M46.3,80.8l-0.2-1.3l-0.8,0.6c-0.1,0.1-0.3,0.1-0.5,0.1c0,0,0,0-0.1,0l-1.5-0.4l0.2,0.4L46.3,80.8z"/>
					<path class="st5" d="M54.4,78.6c0.4-0.1,0.7-0.4,0.9-0.7c0.1-0.3,0.1-1,0-1.3c-0.2-1-2-0.7-2.3,0c0,0.1-0.1,0.2-0.1,0.4
						c0,0.3,0.1,0.9,0.3,1.2C53.5,78.6,54,78.7,54.4,78.6z"/>
					<path class="st5" d="M47.2,77.1c0.4-0.1,0.7-0.4,0.9-0.7c0.1-0.3,0.1-1,0-1.3c-0.2-1-2-0.7-2.3,0c0,0.1-0.1,0.2-0.1,0.4
						c0,0.3,0.1,0.9,0.3,1.2C46.3,77.1,46.7,77.3,47.2,77.1z"/>
					<path class="st5" d="M52.5,86.1l0.1,0.2c-0.2,0.1-0.3,0.2-0.3,0.4c-0.2,0.6,0.3,2.3,0.7,2.7c0.4,0.3,2.1-0.4,2.1-0.9
						c0-0.6-1-2-1.6-2.3c-0.1-0.1-0.4,0-0.6,0l-2-4.9l0.2,0.1l1.2,0.3c0,0,0,0,0.1,0c0.2,0,0.4,0,0.5-0.1l0.8-0.6l0.2,1.3l-2.5-0.5
						l0.6,1.5c2.3,0.2,5,0.9,6.9,2.4c0.2-0.2,0.3-0.4,0.3-0.6l0.1-0.4c0.1-0.7-0.4-1.4-1.2-1.5l-1.5-0.3l-0.4-2.9
						c-0.1-0.7-0.8-1.3-1.5-1.2c-0.5,0.1-0.8,0.4-1,0.8l-1.3,1l-2-0.5c-0.3-0.1-0.6,0.1-0.7,0.4c-0.1,0.3,0.1,0.6,0.4,0.7l0.5,0.1
						l0.2,0.5l-1.5-0.3l-0.4-2.9c-0.1-0.7-0.8-1.3-1.5-1.2c-0.5,0.1-0.8,0.4-1,0.8l-1.3,1l-2-0.5c-0.3-0.1-0.6,0.1-0.7,0.4
						c-0.1,0.3,0.1,0.6,0.4,0.7l0.1,0l0.2,0.5L42,80c-0.8-0.2-1.5,0.3-1.7,1l-0.1,0.4c0,0.1,0,0.1,0,0.2c1.2,1.2,2.6,1.7,4,1.8
						l0.8,1.8c-0.2,0.1-0.3,0.2-0.3,0.4c-0.2,0.6,0.3,2.3,0.7,2.7c0.4,0.3,2.1-0.4,2.1-0.9c0-0.6-1-2-1.6-2.3c-0.1-0.1-0.4,0-0.6,0
						l-2.2-5.3l0.2,0.1l1.5,0.4c0,0,0,0,0.1,0c0.2,0,0.4,0,0.5-0.1l0.8-0.6l0.2,1.3l-2.8-0.5l1.3,3.2c1.7,0.1,3.4-0.2,5-0.3
						c0.4,0,0.9,0,1.4,0l1.1,2.6c-1.9,0-3.8,0.2-5.4,0.2c0.2,0.2,0.3,0.5,0.4,0.7c1.4,0,3.1-0.2,4.7-0.2
						C52.2,86.3,52.3,86.2,52.5,86.1z"/>
					<path class="st5" d="M39.5,81.5c-0.2-0.3-0.4-0.6-0.6-0.9c0,0,0.7,4.8,5.7,5.9c0-0.3-0.1-0.6-0.1-0.8
						C41.6,84.9,40.1,82.9,39.5,81.5z"/>
					<path class="st5" d="M52.9,85.9c0.2-0.1,0.4-0.1,0.5,0c0.2,0.1,0.4,0.3,0.7,0.6c2.3,0.2,4.5,0.8,5.9,2.6
						c-0.3-0.9-0.8-1.7-1.4-2.3c-1.6-0.8-3.7-1-5.7-1L52.9,85.9z"/>
					<path class="st2" d="M60.7,88.5c-0.4-1.1-1.1-2.1-2-2.8c-1.9-1.5-4.6-2.2-6.9-2.4l-0.6-1.5L51,81.4l-0.2-0.1l2,4.9
						c0.2-0.1,0.5-0.1,0.6,0c0.5,0.3,1.6,1.7,1.6,2.3c0,0.5-1.7,1.3-2.1,0.9c-0.4-0.4-0.9-2.2-0.7-2.7c0-0.1,0.2-0.3,0.3-0.4
						l-0.1-0.2c-0.2,0.1-0.3,0.2-0.3,0.4c0,0,0,0,0,0c-0.2,0.6,0.3,2.6,0.8,3c0.4,0.4,2.3-0.5,2.3-1c0-0.5-0.5-1.4-1.1-2
						c-0.2-0.3-0.5-0.5-0.7-0.6c-0.1-0.1-0.3-0.1-0.5,0l0-0.1c2,0,4.1,0.2,5.7,1C59.4,87.2,60.1,87.7,60.7,88.5z"/>
					<path class="st2" d="M52.4,85.8l-1.1-2.6c-0.5,0-1,0-1.4,0c-1.6,0.1-3.3,0.4-5,0.3l-1.3-3.2l-0.2-0.4l-0.2-0.1l2.2,5.3
						c0.2-0.1,0.5-0.1,0.6,0c0.5,0.3,1.6,1.7,1.6,2.3c0,0.5-1.7,1.3-2.1,0.9c-0.4-0.4-0.9-2.2-0.7-2.7c0-0.1,0.2-0.3,0.3-0.4
						l-0.8-1.8c-1.4-0.2-2.8-0.7-4-1.8c-0.5-0.5-0.9-1-1.3-1.7c0,0,0.1,0.7,0.5,1.7c0.7,1.5,2.1,3.4,5.1,4.2c0,0.2,0,0.5,0.1,0.8
						c0.1,0.8,0.4,1.7,0.8,2c0.4,0.4,2.3-0.5,2.3-1c0-0.2-0.1-0.4-0.2-0.7c-0.1-0.2-0.2-0.4-0.4-0.7C48.5,86,50.4,85.8,52.4,85.8z"
						/>
				</g>
			</g>
		</g>
	</g>
</g>
<g id="_x31_-COLOR_BLK">
</g>
</svg>
