<?xml version="1.0" encoding="utf-8"?>
<!-- Generator: Adobe Illustrator 25.2.0, SVG Export Plug-In . SVG Version: 6.00 Build 0)  -->
<!-- SVG made by yourforcesupport.com -  Powerful Websites for the Modern Force Support Squadron US Forces -->
<svg version="1.1" xmlns="http://www.w3.org/2000/svg" xmlns:xlink="http://www.w3.org/1999/xlink" x="0px" y="0px"
	 viewBox="0 0 101.8 130.6" style="enable-background:new 0 0 101.8 130.6;" xml:space="preserve">
<style type="text/css">
	.st0{fill:#002F87;}
	.st1{fill:none;stroke:#002F87;stroke-miterlimit:10;}
	.st2{clip-path:url(#SVGID_2_);}
	.st3{fill:#FFFFFF;}
	.st4{fill:none;}
	.st5{fill:#BC2F2C;}
</style>
<g id="Page_Guide">
</g>
<g id="VERT_FULL_COLOR">
	<g>
		<g>
			<path class="st0" d="M12.3,14.9H7l-1.2,2.9H4.4L8.6,6.6h2.1l4.2,11.3h-1.4L12.3,14.9z M7.5,13.6h4.3L9.7,7.9L7.5,13.6z"/>
			<path class="st0" d="M17.4,6.6h1.4v11.3h-1.4V6.6z"/>
			<path class="st0" d="M27.7,13.2h-3.9v4.7h-1.4V6.6h5.3c2.4,0,3.7,1.1,3.7,3.1v0.5c0,1.5-0.8,2.5-2.2,2.9l2.2,4.9h-1.5L27.7,13.2z
				 M23.8,11.9h4c1.5,0,2.2-0.6,2.2-1.7V9.7c0-1.1-0.7-1.7-2.2-1.7h-4V11.9z"/>
			<path class="st0" d="M40.9,7.9V12h6v1.3h-6v4.5h-1.4V6.6h8v1.3H40.9z"/>
			<path class="st0" d="M50,14.2v-3.9c0-2.5,1.6-4,4.9-4s4.9,1.5,4.9,4v3.9c0,2.4-1.6,3.9-4.9,3.9S50,16.6,50,14.2z M58.4,14v-3.5
				c0-1.8-1-2.8-3.5-2.8c-2.5,0-3.5,1-3.5,2.8V14c0,1.7,1,2.7,3.5,2.7C57.5,16.8,58.4,15.8,58.4,14z"/>
			<path class="st0" d="M68.4,13.2h-3.9v4.7h-1.4V6.6h5.3c2.4,0,3.7,1.1,3.7,3.1v0.5c0,1.5-0.8,2.5-2.2,2.9l2.2,4.9h-1.5L68.4,13.2z
				 M64.5,11.9h4c1.5,0,2.2-0.6,2.2-1.7V9.7c0-1.1-0.7-1.7-2.2-1.7h-4V11.9z"/>
			<path class="st0" d="M74.7,14.2v-3.9c0-2.4,1.6-3.9,4.9-3.9c3.3,0,4.9,1.5,4.9,3.9v0.4H83v-0.3c0-1.8-1-2.7-3.4-2.7
				c-2.5,0-3.5,0.9-3.5,2.7V14c0,1.8,1,2.7,3.5,2.7c2.4,0,3.4-0.9,3.4-2.7v-0.3h1.5v0.4c0,2.4-1.6,3.9-4.9,3.9
				C76.3,18.1,74.7,16.6,74.7,14.2z"/>
			<path class="st0" d="M89.1,7.9v3.7H95V13h-5.9v3.5h6.6v1.3h-8V6.6h8v1.3H89.1z"/>
		</g>
		<g>
			<path class="st0" d="M15,118.9v2.2H6.4v-11.4h2.5v9.1H15z"/>
			<path class="st0" d="M16.9,109.8h2.5v11.4h-2.5V109.8z"/>
			<path class="st0" d="M31.6,117.4v0.7c0,1.8-1.5,3.2-3.5,3.2h-6.1v-11.4h5.7c2,0,3.5,1.2,3.5,2.8v0.8c0,0.6-0.3,1.3-0.9,1.7
				C31.2,115.7,31.6,116.5,31.6,117.4z M24.5,112v2.4h3.3c0.5,0,1-0.3,1-0.8v-0.8c0-0.4-0.5-0.7-1-0.7H24.5z M29.1,117.3
				c0-0.5-0.4-0.8-1-0.8h-3.6v2.5h3.6c0.6,0,1-0.4,1-0.9V117.3z"/>
			<path class="st0" d="M41.5,116.7l2,4.5h-2.6l-1.9-4.1h-2.6v4.1h-2.5v-11.4h5.6c2.4,0,4,1.3,4,3.4v0.4
				C43.5,115.1,42.8,116.2,41.5,116.7z M36.4,114.8h3.3c0.8,0,1.3-0.4,1.3-1.1v-0.6c0-0.7-0.5-1.1-1.3-1.1h-3.3V114.8z"/>
			<path class="st0" d="M53.1,119.2h-5l-0.7,2H45l3.7-11.4h3.8l3.7,11.4h-2.4L53.1,119.2z M50.7,112.1l-1.7,4.9h3.4L50.7,112.1z"/>
			<path class="st0" d="M65.8,116.7l2,4.5h-2.6l-1.9-4.1h-2.6v4.1h-2.5v-11.4h5.6c2.4,0,4,1.3,4,3.4v0.4
				C67.8,115.1,67,116.2,65.8,116.7z M60.7,114.8h3.3c0.8,0,1.3-0.4,1.3-1.1v-0.6c0-0.7-0.5-1.1-1.3-1.1h-3.3V114.8z"/>
			<path class="st0" d="M70,109.8h2.5v11.4H70V109.8z"/>
			<path class="st0" d="M77.6,112v2.5h5.3v2.2h-5.3v2.2h6v2.2h-8.5v-11.4h8.5v2.2H77.6z"/>
			<path class="st0" d="M85.4,117.5v-0.4h2.5v0.4c0,0.9,1.3,1.6,2.8,1.6c1.1,0,2.3-0.4,2.3-1.4c0-2.2-7.3-0.3-7.3-4.7
				c0-1.8,1.2-3.5,4.7-3.5c3.4,0,4.9,1.6,4.9,3.7v0.4h-2.5v-0.4c0-0.8-1.1-1.4-2.4-1.4c-1.2,0-2.2,0.4-2.2,1.2
				c0,1.7,7.3,0.4,7.3,4.7c0,2-1.7,3.7-4.9,3.7C87.3,121.4,85.4,119.8,85.4,117.5z"/>
		</g>
		<path class="st1" d="M92.9,130.1h-84c-4.6,0-8.4-3.8-8.4-8.4V8.9c0-4.6,3.8-8.4,8.4-8.4h84c4.6,0,8.4,3.8,8.4,8.4v112.8
			C101.3,126.3,97.5,130.1,92.9,130.1z"/>
		<g>
			<defs>
				<path id="SVGID_1_" d="M93.2,130.2h-84c-4.6,0-8.4-3.8-8.4-8.4V9c0-4.6,3.8-8.4,8.4-8.4h84c4.6,0,8.4,3.8,8.4,8.4v112.8
					C101.6,126.4,97.8,130.2,93.2,130.2z"/>
			</defs>
			<clipPath id="SVGID_2_">
				<use xlink:href="#SVGID_1_"  style="overflow:visible;"/>
			</clipPath>
			<g class="st2">
				<polygon class="st0" points="-65.5,33.1 -52.4,44.3 16,52 31.7,42.7 				"/>
				<polygon class="st0" points="168.5,33.1 82.1,41.6 88.1,51.9 155.3,44.3 				"/>
				<path class="st0" d="M92.9,72.4c-0.1,0.1-0.3,0.2-0.4,0.3l-0.1,0l-14.3,8.5l16.1-2.6l16.3-11.3l-15.1,2.2
					C94.9,70.6,94,71.7,92.9,72.4z"/>
				<polygon class="st0" points="-7.6,67.2 8.8,78.5 17.1,79.9 11.2,69.9 				"/>
				<path class="st0" d="M95.1,63.7c0.3,0.6,0.6,1.3,0.7,1.9l27.3-3.6l16.2-11l-48.6,5.1l4.2,7C95,63.3,95.1,63.5,95.1,63.7z"/>
				<path class="st0" d="M7.7,64.1c-1.4-2.8-0.6-6.2,1.8-8.2L-36.3,51l16.2,11l28.9,3.8L8,64.6C7.9,64.4,7.8,64.2,7.7,64.1z"/>
				<path class="st3" d="M37.2,70.7c-1.1-1.4-1.9-3-2.4-4.7v-8.8c0.5-1.7,1.3-3.2,2.4-4.7c-0.1,0.1-0.2,0.2-0.3,0.3
					c-2.2,2.2-3.6,5.4-3.6,8.8c0,3.4,1.4,6.5,3.6,8.8C37,70.5,37.1,70.6,37.2,70.7z"/>
				<path class="st0" d="M75.4,34.6c-0.4-0.7-1-1.1-1.8-1.3c-2.9-0.8-5.9-1.5-8.8-2.3c-0.3-0.1-0.6-0.1-1-0.1c-2,0.1-3.3,2.2-2.5,4
					c0.1,0.3,0.3,0.5,0.4,0.8c5.1,8.7,10.3,17.3,15.4,26c0.1,0.2,0.2,0.3,0.3,0.5c0.4,0.7,0.2,1.6-0.5,2.1c-0.1,0.1-0.3,0.2-0.4,0.3
					c-1.7,1-3.3,2-5,2.9c-13.6,8-27.1,16.1-40.7,24.1c-0.2,0.1-0.4,0.3-0.6,0.4c-0.5,0.2-1,0.3-1.6,0c-0.3-0.2-0.5-0.4-0.7-0.7
					c-0.7-1.1-1.3-2.2-2-3.3c-5.1-8.6-10.2-17.3-15.4-25.9c-0.1-0.1-0.2-0.2-0.2-0.4c-0.4-0.8-0.2-1.6,0.5-2.1
					c0.1-0.1,0.3-0.2,0.4-0.3c10.8-6.4,21.5-12.7,32.3-19.1c0.1-0.1,0.2-0.1,0.3-0.2c0.2-0.1,0.3,0,0.2,0.1c0,0.1,0,0.2,0.1,0.3
					c0.2,0.3,0.3,0.5,0.5,0.8c0.1,0.1,0.2,0.2,0.4,0.1c0.3-0.1,0.6-0.3,0.6-0.6c0-0.1,0-0.1,0-0.2c0.1-0.5,0.1-0.9,0.2-1.4
					c0.1-0.1,0.2-0.2,0.3-0.2c0.1-0.1,0.2-0.1,0.3-0.2c0,0,0.1,0.1,0.1,0.1c0.4,0.7,0.8,1.5,1.2,2.2c0.1,0.1,0.1,0.2,0,0.3
					c0,0.1,0,0.1,0.1,0.2c0.1,0,0.2-0.1,0.3-0.1c0.6-0.3,1.1-0.7,1.7-1c0,0,0-0.1,0.1-0.1c-0.2,0-0.4,0.1-0.6,0.2
					c-0.1,0-0.2,0.1-0.3,0.1c0-0.3,0.1-0.5,0.1-0.7c0.1-0.7,0.3-1.5,0.4-2.2c0-0.3,0.2-0.5,0.4-0.7c1.1-0.9,2.1-1.8,3.1-2.7
					c0.2-0.2,0.4-0.5,0.6-0.7c0-0.1,0-0.2,0.1-0.3c-0.2,0-0.4,0-0.6,0.1c-0.2,0-0.4,0.1-0.6,0.2c-1.3,0.5-2.6,0.9-3.9,1.4
					c-0.2,0.1-0.4,0.1-0.6,0c-0.4-0.1-0.8-0.3-1.2-0.4c-0.6-0.2-1.1-0.4-1.7-0.5c0,0,0,0-0.1-0.1c0.2-0.2,0.5-0.3,0.6-0.6
					c-0.3,0-1,0.4-1.8,0.9c-0.1,0-0.1,0.1-0.2,0.2c0.2,0.1,0.4,0.2,0.5,0.3c0.4,0.7,0.8,1.3,1.2,1.9c0.1,0.1,0.1,0.2,0.1,0.3
					c-0.1,0.1-0.2,0.1-0.3,0.2c-0.2,0.1-0.4,0.1-0.6,0.1c-0.4-0.2-0.8-0.3-1.2-0.5c-0.3-0.1-0.5,0-0.8,0.1c-0.2,0.1-0.2,0.3-0.1,0.5
					c0.1,0.3,0.3,0.5,0.4,0.8c0.1,0.1,0.2,0.2,0.3,0.3c0,0,0.1,0.1,0.1,0.2c-0.2,0.1-0.3,0.2-0.5,0.3c-10.8,6.4-21.6,12.8-32.4,19.2
					c-0.1,0.1-0.2,0.1-0.3,0.2c-1.3,0.8-1.7,2.5-1,3.8c0.1,0.2,0.2,0.3,0.3,0.5c5.7,9.6,11.4,19.3,17.1,28.9
					c0.1,0.2,0.2,0.3,0.3,0.5c0.9,1.3,2.5,1.8,3.9,1.1c0.2-0.1,0.4-0.2,0.5-0.3c6.2-3.7,12.3-7.3,18.5-11c9-5.4,18.1-10.7,27.1-16.1
					c0.2-0.1,0.4-0.2,0.5-0.3c1.3-0.9,1.7-2.5,1-3.9c-0.1-0.2-0.2-0.4-0.3-0.5c-5.1-8.7-10.3-17.3-15.4-26c-0.1-0.2-0.2-0.3-0.3-0.5
					c-0.3-0.6-0.2-1.2,0.2-1.8c0.4-0.5,1-0.7,1.7-0.6c0.1,0,0.2,0.1,0.3,0.1c2.8,0.7,5.5,1.4,8.3,2.1c0.1,0,0.2,0.1,0.3,0.1
					c0.4,0.1,0.7,0.4,1,0.7c0.1,0.1,0.1,0.2,0.2,0.3c6,10.1,11.9,20.1,17.9,30.2c0.1,0.1,0.1,0.2,0.2,0.4c0.4,0.7,0.2,1.7-0.5,2.2
					c-0.2,0.1-0.4,0.2-0.5,0.3c-13.3,7.9-26.6,15.8-39.9,23.6c-2.3,1.4-4.7,2.8-7,4.1c-0.6,0.3-1.1,0.4-1.8,0.3
					c-1.5-0.4-3-0.8-4.5-1.2c-0.1,0-0.3-0.1-0.4-0.1c-0.3,0-0.7,0.2-0.7,0.5c-0.1,0.3,0.1,0.6,0.4,0.8c0.1,0,0.2,0.1,0.3,0.1
					c1.7,0.4,3.3,0.9,5,1.3c0.2,0,0.3,0.1,0.5,0.1c0.6,0,1.2-0.1,1.8-0.5c1-0.6,1.9-1.1,2.9-1.7c14.8-8.8,29.5-17.5,44.3-26.3
					c0.1-0.1,0.3-0.2,0.4-0.2c1.3-0.8,1.7-2.6,1-3.9c-0.1-0.2-0.2-0.3-0.3-0.5c-5.9-10-11.9-20-17.8-30
					C75.5,34.9,75.4,34.7,75.4,34.6z"/>
				<path class="st4" d="M37.2,70.7c-1.1-1.4-1.9-3-2.4-4.7v-8.8c0.5-1.7,1.3-3.2,2.4-4.7c-0.1,0.1-0.2,0.2-0.3,0.3
					c-2.2,2.2-3.6,5.4-3.6,8.8c0,3.4,1.4,6.5,3.6,8.8C37,70.5,37.1,70.6,37.2,70.7z"/>
				<g>
					<path class="st4" d="M37.2,70.7c-1.1-1.4-1.9-3-2.4-4.7v-8.8c0.5-1.7,1.3-3.2,2.4-4.7c-0.1,0.1-0.2,0.2-0.3,0.3
						c-2.2,2.2-3.6,5.4-3.6,8.8c0,3.4,1.4,6.5,3.6,8.8C37,70.5,37.1,70.6,37.2,70.7z"/>
					<path class="st5" d="M56.7,61.6L34.9,49.1v4c-1.9,2.4-3,5.3-3,8.5c0,3.2,1.1,6.2,3,8.6v4L56.7,61.6z M33.3,61.6
						c0-3.4,1.4-6.5,3.6-8.8c0.1-0.1,0.2-0.2,0.3-0.3c-1.1,1.4-1.9,3-2.4,4.7V66c0.5,1.7,1.3,3.2,2.4,4.7c-0.1-0.1-0.2-0.2-0.3-0.3
						C34.7,68.2,33.3,65.1,33.3,61.6z"/>
				</g>
				<path class="st5" d="M38.5,49.9l1.4,0.8c1.7-0.9,3.7-1.4,5.8-1.4c3.4,0,6.5,1.4,8.8,3.6c2.2,2.2,3.6,5.4,3.6,8.8
					c0,3.4-1.4,6.5-3.6,8.8c-2.2,2.2-5.4,3.6-8.8,3.6c-2.1,0-4.1-0.5-5.8-1.4l-1.4,0.8c2.1,1.3,4.6,2,7.2,2c3.8,0,7.3-1.5,9.8-4
					c2.5-2.5,4-6,4-9.8c0-3.8-1.5-7.3-4-9.8c-2.5-2.5-6-4-9.8-4C43.1,47.8,40.6,48.6,38.5,49.9z"/>
			</g>
		</g>
	</g>
</g>
</svg>
