<?xml version="1.0" encoding="UTF-8"?>
<svg width="100%" height="577px" viewBox="0 0 578 577" version="1.1" xmlns="http://www.w3.org/2000/svg" xmlns:xlink="http://www.w3.org/1999/xlink">

    <defs></defs>
    <g id="Page-1" stroke="none" stroke-width="1" fill="none" fill-rule="evenodd">
        <g id="Honor-Guard-Color" transform="translate(1.000000, 0.000000)">
            <polygon id="Fill-1" fill="#FFFFFE" points="0.162 576.5 576.162 576.5 576.162 0.5 0.162 0.5"></polygon>
            <polygon id="Stroke-2" stroke="#FFFFFE" points="0.162 576.5 576.162 576.5 576.162 0.5 0.162 0.5"></polygon>
            <path d="M287.673,543.604 C427.703,543.6 541.225,430.084 541.225,290.052 C541.225,150.02 427.703,36.5 287.673,36.5 C147.644,36.5 34.119,150.02 34.119,290.052 C34.119,430.084 147.644,543.604 287.673,543.604" id="Fill-4" fill="#054279"></path>
            <g id="Group-8" transform="translate(34.000000, 36.000000)">
                <path d="M253.673,507.604 C393.703,507.6 507.225,394.084 507.225,254.052 C507.225,114.02 393.703,0.5 253.673,0.5 C113.644,0.5 0.119,114.02 0.119,254.052 C0.119,394.084 113.644,507.604 253.673,507.604 Z" id="Stroke-5" stroke="#000000" stroke-width="1.174"></path>
                <path d="M31.151,254.049 C31.151,131.159 130.78,31.534 253.673,31.534 C376.565,31.534 476.195,131.159 476.195,254.049 C476.195,376.947 376.565,476.57 253.673,476.57 C130.78,476.57 31.151,376.947 31.151,254.049 Z" id="Stroke-7" stroke="#FFFFFE" stroke-width="38.737"></path>
            </g>
            <polyline id="Fill-9" fill="#000000" points="95.418 375.855 91.54 377.32 88.794 370.047 70.744 376.864 68.808 371.738 86.858 364.921 84.095 357.604 87.972 356.14 95.418 375.855"></polyline>
            <path d="M85.263,399.939 C86.277,401.839 87.712,403.011 89.569,403.454 C91.426,403.896 93.518,403.497 95.844,402.255 C98.161,401.019 99.654,399.504 100.325,397.713 C100.995,395.921 100.823,394.075 99.809,392.176 C98.794,390.275 97.354,389.096 95.489,388.638 C93.624,388.18 91.528,388.571 89.202,389.813 C86.876,391.055 85.384,392.577 84.727,394.383 C84.07,396.187 84.248,398.039 85.263,399.939 Z M98.405,407.053 C94.696,409.032 91.237,409.391 88.029,408.127 C85.497,407.25 83.353,405.17 81.602,401.888 C79.85,398.605 79.314,395.668 79.996,393.075 C80.725,389.696 82.944,387.018 86.653,385.037 C90.437,383.018 93.898,382.665 97.037,383.979 C99.57,384.855 101.712,386.936 103.464,390.218 C105.216,393.5 105.752,396.438 105.071,399.03 C104.411,402.358 102.188,405.033 98.405,407.053 L98.405,407.053 Z" id="Fill-10" fill="#000000"></path>
            <polyline id="Fill-11" fill="#000000" points="109.29 441.976 126.53 426.09 130.184 430.055 123.612 436.11 130.475 443.559 137.046 437.503 140.7 441.469 123.46 457.354 119.806 453.389 127.517 446.283 120.655 438.836 112.944 445.94 109.29 441.976"></polyline>
            <path d="M141.911,469.004 C143.576,470.378 145.354,470.916 147.242,470.62 C149.13,470.323 150.914,469.156 152.593,467.121 C154.265,465.094 155.068,463.123 155.003,461.209 C154.938,459.295 154.072,457.65 152.407,456.276 C150.741,454.903 148.957,454.358 147.055,454.644 C145.152,454.93 143.362,456.09 141.684,458.125 C140.005,460.161 139.207,462.14 139.289,464.061 C139.371,465.982 140.245,467.63 141.911,469.004 Z M156.755,470.554 C154.079,473.799 151.019,475.448 147.573,475.505 C144.898,475.66 142.127,474.556 139.26,472.191 C136.392,469.826 134.78,467.316 134.424,464.661 C133.813,461.261 134.846,457.938 137.521,454.693 C140.25,451.383 143.316,449.737 146.717,449.754 C149.392,449.598 152.163,450.702 155.03,453.067 C157.898,455.432 159.51,457.941 159.866,460.598 C160.521,463.925 159.484,467.244 156.755,470.554 L156.755,470.554 Z" id="Fill-12" fill="#000000"></path>
            <polyline id="Fill-13" fill="#000000" points="168.97 464.778 173.824 467.77 174.051 487.04 182.596 473.177 186.912 475.836 174.625 495.771 169.996 492.918 169.71 473.238 160.999 487.373 156.684 484.713 168.97 464.778"></polyline>
            <path d="M195.459,501.896 C197.43,502.762 199.28,502.797 201.011,502.001 C202.742,501.205 204.137,499.604 205.195,497.197 C206.249,494.8 206.485,492.692 205.904,490.873 C205.322,489.055 204.047,487.713 202.077,486.847 C200.106,485.98 198.247,485.941 196.5,486.73 C194.753,487.52 193.35,489.117 192.292,491.523 C191.234,493.931 191.004,496.044 191.604,497.865 C192.204,499.687 193.489,501.029 195.459,501.896 Z M210.168,499.384 C208.476,503.23 205.98,505.647 202.68,506.636 C200.148,507.512 197.181,507.201 193.778,505.705 C190.375,504.209 188.14,502.232 187.074,499.774 C185.561,496.67 185.65,493.193 187.341,489.347 C189.066,485.423 191.568,483.008 194.846,482.102 C197.377,481.226 200.344,481.536 203.748,483.032 C207.15,484.528 209.385,486.506 210.451,488.963 C211.987,491.985 211.893,495.46 210.168,499.384 L210.168,499.384 Z" id="Fill-14" fill="#000000"></path>
            <path d="M224.526,495.875 L222.811,501.943 L228.446,503.535 C229.565,503.853 230.439,503.967 231.068,503.88 C232.18,503.73 232.915,503.022 233.272,501.756 C233.659,500.388 233.44,499.332 232.615,498.592 C232.152,498.174 231.382,497.813 230.306,497.509 L224.526,495.875 Z M232.511,493.897 C234.214,494.412 235.477,494.979 236.298,495.597 C237.119,496.215 237.752,496.961 238.197,497.836 C238.566,498.558 238.807,499.31 238.919,500.091 C239.033,500.873 238.964,501.707 238.713,502.596 C238.41,503.667 237.811,504.637 236.917,505.502 C236.022,506.368 234.823,506.82 233.317,506.857 C234.355,507.603 235.007,508.427 235.271,509.332 C235.536,510.237 235.444,511.481 234.997,513.063 L234.568,514.579 C234.277,515.61 234.126,516.322 234.115,516.717 C234.09,517.338 234.295,517.858 234.729,518.279 L234.569,518.846 L228.775,517.207 C228.756,516.662 228.755,516.227 228.772,515.9 C228.813,515.229 228.922,514.56 229.099,513.893 L229.657,511.786 C230.042,510.34 230.038,509.303 229.644,508.673 C229.249,508.044 228.323,507.522 226.867,507.111 L221.758,505.667 L219.257,514.518 L214.152,513.074 L220.53,490.511 L232.511,493.897 L232.511,493.897 Z" id="Fill-15" fill="#000000"></path>
            <polyline id="Fill-16" fill="#000000" points="275.121 501.085 278.477 514.518 279.194 518.256 279.977 514.607 282.997 501.138 288.728 501.177 291.723 514.605 292.491 518.345 293.312 514.76 296.886 501.231 302.432 501.269 294.938 524.637 289.734 524.602 286.688 510.887 285.802 506.353 284.854 510.874 281.622 524.548 276.578 524.514 269.348 501.047 275.121 501.085"></polyline>
            <polyline id="Fill-17" fill="#000000" points="314.955 522.975 309.589 523.547 307.104 500.239 312.471 499.667 314.955 522.975"></polyline>
            <polyline id="Fill-18" fill="#000000" points="338.101 495.251 338.896 499.325 331.251 500.818 334.943 519.724 329.577 520.772 325.884 501.867 318.217 503.364 317.421 499.29 338.101 495.251"></polyline>
            <polyline id="Fill-19" fill="#000000" points="350.208 516.226 342.89 493.97 348.016 492.283 350.804 500.762 360.42 497.599 357.632 489.121 362.758 487.436 370.077 509.692 364.951 511.378 361.681 501.433 352.063 504.595 355.334 514.54 350.208 516.226"></polyline>
            <path d="M397.813,474.479 L406.056,487.36 L410.269,484.664 C412.425,483.285 413.313,481.363 412.937,478.899 C412.727,477.549 412.157,476.146 411.226,474.691 C409.94,472.683 408.605,471.364 407.22,470.734 C405.834,470.104 404.103,470.455 402.026,471.783 L397.813,474.479 Z M400.605,467.876 C401.973,467.026 403.192,466.447 404.264,466.138 C406.089,465.611 407.864,465.65 409.591,466.255 C410.98,466.748 412.179,467.478 413.186,468.441 C414.193,469.405 415.028,470.404 415.69,471.438 C417.368,474.061 418.205,476.654 418.201,479.221 C418.188,482.686 416.527,485.477 413.222,487.591 L403.796,493.623 L391.18,473.907 L400.605,467.876 L400.605,467.876 Z" id="Fill-20" fill="#000000"></path>
            <polyline id="Fill-21" fill="#000000" points="432.72 473.55 428.47 476.88 414.018 458.436 418.268 455.105 432.72 473.55"></polyline>
            <path d="M441.571,443.975 C440.164,443.104 438.661,442.992 437.064,443.642 C436.176,444.009 435.336,444.571 434.545,445.33 C433.031,446.782 432.279,448.488 432.29,450.448 C432.301,452.409 433.295,454.42 435.271,456.48 C437.262,458.557 439.198,459.521 441.08,459.372 C442.961,459.224 444.574,458.505 445.917,457.217 C447.235,455.952 447.99,454.578 448.183,453.093 C448.374,451.608 448.041,450.223 447.184,448.937 L442.84,453.104 L440.13,450.277 L447.95,442.777 L456.647,451.847 L454.04,454.347 L451.63,452.601 C451.642,454.127 451.503,455.344 451.214,456.25 C450.726,457.816 449.726,459.325 448.213,460.775 C445.723,463.164 442.939,464.344 439.861,464.315 C436.708,464.346 433.834,463.007 431.238,460.301 C428.613,457.563 427.346,454.566 427.436,451.31 C427.525,448.054 428.946,445.105 431.699,442.466 C434.086,440.177 436.527,438.884 439.021,438.585 C441.516,438.287 443.65,438.851 445.427,440.277 L441.571,443.975" id="Fill-22" fill="#000000"></path>
            <polyline id="Fill-23" fill="#000000" points="444.932 429.886 448.45 425.441 467.741 427.417 454.92 417.268 458.041 413.324 476.398 427.856 473.046 432.092 453.345 430.132 466.41 440.475 463.289 444.418 444.932 429.886"></polyline>
            <polyline id="Fill-24" fill="#000000" points="484.168 415.925 481.233 420.459 461.584 407.746 464.518 403.212 484.168 415.925"></polyline>
            <polyline id="Fill-25" fill="#000000" points="477.18 380.506 480.838 382.446 477.19 389.324 494.211 398.352 491.644 403.192 474.623 394.166 470.964 401.066 467.305 399.126 477.18 380.506"></polyline>
            <polyline id="Fill-26" fill="#000000" points="484.525 361.999 486.74 356.251 497.257 369.63 505.474 372.795 503.516 377.878 495.274 374.703 478.414 377.863 480.719 371.88 492.188 370.495 484.525 361.999"></polyline>
            <path d="M120.781,144.845 L125.25,149.213 L129.183,145.19 C129.885,144.472 130.333,143.815 130.527,143.223 C130.873,142.141 130.531,141.097 129.5,140.088 C128.628,139.236 127.685,139.003 126.671,139.389 C126.105,139.604 125.471,140.063 124.768,140.766 L120.781,144.845 Z M114.297,138.507 L117.999,142.126 L121.928,138.106 C122.63,137.388 123.062,136.67 123.222,135.951 C123.382,135.232 123.11,134.528 122.403,133.837 C121.621,133.073 120.815,132.864 119.986,133.211 C119.312,133.551 118.588,134.117 117.813,134.909 L114.297,138.507 Z M116.008,130.972 C118.016,128.979 120.012,128.126 121.995,128.415 C123.202,128.603 124.302,129.182 125.294,130.151 C126.316,131.15 126.886,132.21 127.005,133.331 C127.073,133.958 126.978,134.692 126.719,135.532 C127.858,134.987 128.975,134.829 130.07,135.056 C131.165,135.284 132.193,135.867 133.154,136.806 C134.145,137.775 134.794,138.891 135.1,140.152 C135.316,140.976 135.372,141.796 135.269,142.614 C135.159,143.543 134.829,144.442 134.277,145.309 C133.725,146.177 133.037,147.032 132.213,147.875 L124.908,155.348 L108.171,138.988 L116.008,130.972 L116.008,130.972 Z" id="Fill-27" fill="#000000"></path>
            <path d="M141.803,126.879 L146.368,123.075 L138.218,117.867 L141.803,126.879 Z M132.722,115.479 L136.933,111.97 L158.22,124.706 L154.183,128.07 L149.922,125.347 L143.367,130.811 L145.242,135.521 L141.347,138.767 L132.722,115.479 L132.722,115.479 Z" id="Fill-28" fill="#000000"></path>
            <path d="M160.94,114.001 C161.663,114.808 162.354,115.309 163.015,115.504 C164.22,115.858 165.631,115.492 167.249,114.405 C168.217,113.754 168.932,113.121 169.395,112.503 C170.269,111.328 170.336,110.191 169.598,109.091 C169.166,108.449 168.556,108.138 167.767,108.157 C166.983,108.186 165.891,108.479 164.491,109.04 L162.091,109.985 C159.729,110.91 157.985,111.363 156.859,111.342 C154.96,111.319 153.371,110.355 152.091,108.451 C150.923,106.713 150.587,104.843 151.083,102.841 C151.58,100.838 153.057,99.011 155.515,97.359 C157.568,95.979 159.684,95.345 161.862,95.456 C164.041,95.567 165.86,96.631 167.318,98.649 L163.484,101.225 C162.627,100.104 161.55,99.624 160.252,99.781 C159.389,99.889 158.478,100.266 157.519,100.909 C156.453,101.626 155.744,102.409 155.391,103.257 C155.039,104.106 155.116,104.908 155.623,105.663 C156.089,106.357 156.751,106.664 157.608,106.585 C158.165,106.543 159.196,106.238 160.704,105.669 L164.616,104.204 C166.33,103.561 167.754,103.286 168.889,103.377 C170.649,103.521 172.111,104.457 173.274,106.187 C174.467,107.961 174.778,109.892 174.207,111.977 C173.636,114.063 172.111,115.939 169.631,117.605 C167.098,119.308 164.717,120.068 162.489,119.886 C160.261,119.704 158.467,118.601 157.107,116.578 L160.94,114.001" id="Fill-29" fill="#000000"></path>
            <polyline id="Fill-30" fill="#000000" points="187.516 84.315 176.891 89.954 179.228 94.357 188.954 89.195 190.861 92.788 181.135 97.95 183.948 103.251 195.077 97.345 197.053 101.069 181.741 109.196 170.765 88.517 185.574 80.657 187.516 84.315"></polyline>
            <polyline id="Fill-31" fill="#000000" points="222.92 90.706 216.656 68.142 221.3 66.853 223.69 75.462 232.365 73.053 229.975 64.444 234.619 63.155 240.884 85.718 236.24 87.007 233.448 76.952 224.773 79.361 227.564 89.416 222.92 90.706"></polyline>
            <path d="M256.699,79.413 C258.599,79.133 260.003,78.204 260.911,76.624 C261.819,75.045 262.081,72.951 261.697,70.34 C261.314,67.741 260.46,65.814 259.135,64.557 C257.81,63.301 256.198,62.813 254.298,63.092 C252.398,63.372 250.986,64.303 250.063,65.884 C249.14,67.466 248.87,69.562 249.254,72.171 C249.638,74.782 250.5,76.711 251.84,77.959 C253.179,79.208 254.799,79.692 256.699,79.413 Z M266.494,69.634 C267.106,73.793 266.417,77.148 264.429,79.699 C262.961,81.756 260.588,83.025 257.309,83.508 C254.03,83.991 251.391,83.459 249.393,81.912 C246.743,80.044 245.112,77.03 244.5,72.871 C243.876,68.628 244.569,65.273 246.581,62.804 C248.048,60.747 250.422,59.478 253.701,58.995 C256.98,58.513 259.619,59.045 261.617,60.592 C264.244,62.377 265.87,65.392 266.494,69.634 L266.494,69.634 Z" id="Fill-32" fill="#000000"></path>
            <polyline id="Fill-33" fill="#000000" points="272.966 57.547 278.044 57.437 287.625 73.522 287.271 57.235 291.783 57.137 292.293 80.533 287.451 80.639 277.626 64.233 277.988 80.845 273.476 80.943 272.966 57.547"></polyline>
            <path d="M309.073,78.339 C310.98,78.536 312.567,77.98 313.834,76.671 C315.102,75.362 315.87,73.394 316.142,70.767 C316.412,68.15 316.061,66.069 315.089,64.523 C314.116,62.978 312.677,62.106 310.77,61.91 C308.863,61.713 307.269,62.268 305.986,63.575 C304.703,64.883 303.927,66.85 303.655,69.478 C303.384,72.105 303.742,74.19 304.731,75.731 C305.72,77.273 307.167,78.143 309.073,78.339 Z M320.961,71.264 C320.529,75.449 319.035,78.534 316.48,80.518 C314.551,82.151 311.939,82.797 308.645,82.457 C305.349,82.117 302.924,80.95 301.369,78.957 C299.263,76.492 298.426,73.167 298.857,68.982 C299.299,64.713 300.797,61.629 303.354,59.731 C305.283,58.097 307.896,57.45 311.19,57.791 C314.486,58.131 316.91,59.298 318.465,61.291 C320.569,63.67 321.401,66.995 320.961,71.264 L320.961,71.264 Z" id="Fill-34" fill="#000000"></path>
            <path d="M334.126,66.194 L332.7,72.328 L337.784,73.51 C338.794,73.745 339.58,73.797 340.144,73.667 C341.138,73.441 341.783,72.688 342.081,71.407 C342.403,70.023 342.187,68.994 341.433,68.318 C341.01,67.937 340.313,67.633 339.342,67.407 L334.126,66.194 Z M341.233,63.69 C342.771,64.081 343.915,64.553 344.664,65.107 C345.412,65.661 345.994,66.356 346.41,67.19 C346.754,67.879 346.984,68.606 347.101,69.371 C347.217,70.137 347.171,70.968 346.963,71.864 C346.711,72.946 346.193,73.947 345.408,74.866 C344.624,75.787 343.558,76.318 342.211,76.46 C343.152,77.125 343.749,77.897 344.001,78.775 C344.253,79.654 344.193,80.895 343.82,82.496 L343.464,84.031 C343.221,85.074 343.098,85.792 343.096,86.184 C343.085,86.802 343.277,87.304 343.675,87.691 L343.541,88.265 L338.331,87.053 C338.308,86.514 338.302,86.082 338.313,85.758 C338.342,85.089 338.429,84.418 338.575,83.744 L339.038,81.613 C339.357,80.152 339.334,79.122 338.968,78.525 C338.602,77.928 337.76,77.476 336.443,77.17 L331.824,76.096 L329.74,85.055 L325.118,83.981 L330.421,61.176 L341.233,63.69 L341.233,63.69 Z" id="Fill-35" fill="#000000"></path>
            <path d="M391.094,90.082 C391.466,88.484 391.15,87.085 390.146,85.885 C389.581,85.22 388.86,84.672 387.981,84.243 C386.301,83.42 384.607,83.382 382.903,84.127 C381.198,84.874 379.72,86.525 378.468,89.085 C377.206,91.663 376.898,93.774 377.546,95.418 C378.192,97.061 379.262,98.248 380.753,98.978 C382.216,99.694 383.62,99.861 384.966,99.48 C386.311,99.097 387.425,98.28 388.307,97.027 L383.476,94.663 L385.191,91.158 L393.866,95.403 L388.346,106.685 L385.476,105.28 L386.324,102.438 C385,103.017 383.904,103.345 383.036,103.423 C381.539,103.567 379.951,103.229 378.272,102.407 C375.509,101.055 373.718,98.983 372.897,96.192 C372.007,93.354 372.384,90.253 374.03,86.89 C375.694,83.488 377.957,81.216 380.817,80.072 C383.679,78.929 386.637,79.104 389.69,80.599 C392.339,81.895 394.136,83.613 395.08,85.753 C396.024,87.894 396.119,90.033 395.365,92.172 L391.094,90.082" id="Fill-36" fill="#000000"></path>
            <path d="M406.473,90.143 L410.613,92.799 L402.843,104.91 C401.974,106.265 401.498,107.356 401.416,108.184 C401.201,109.606 401.924,110.85 403.584,111.915 C405.235,112.974 406.663,113.11 407.866,112.322 C408.585,111.902 409.378,111.015 410.247,109.661 L418.018,97.549 L422.157,100.206 L414.385,112.321 C413.041,114.416 411.672,115.841 410.278,116.596 C407.706,117.965 404.729,117.566 401.35,115.398 C397.97,113.23 396.362,110.688 396.526,107.772 C396.631,106.192 397.355,104.354 398.7,102.258 L406.473,90.143" id="Fill-37" fill="#000000"></path>
            <path d="M425.156,120.732 L429.778,124.444 L433.277,115.423 L425.156,120.732 Z M434.52,109.55 L438.807,112.993 L430.518,136.387 L426.422,133.098 L428.244,128.401 L421.594,123.06 L417.364,125.825 L413.401,122.643 L434.52,109.55 L434.52,109.55 Z" id="Fill-38" fill="#000000"></path>
            <path d="M451.09,129.229 L446.646,133.741 L450.359,137.398 C451.098,138.125 451.74,138.578 452.289,138.76 C453.256,139.083 454.203,138.773 455.131,137.832 C456.133,136.814 456.49,135.819 456.203,134.848 C456.043,134.301 455.608,133.679 454.899,132.98 L451.09,129.229 Z M458.441,130.815 C459.548,131.95 460.275,132.949 460.623,133.812 C460.972,134.675 461.104,135.571 461.021,136.5 C460.954,137.267 460.77,138.007 460.469,138.721 C460.168,139.436 459.693,140.121 459.047,140.778 C458.267,141.57 457.301,142.154 456.151,142.531 C455.001,142.907 453.814,142.805 452.591,142.225 C453.048,143.284 453.154,144.255 452.911,145.137 C452.667,146.019 451.969,147.046 450.815,148.217 L449.711,149.339 C448.959,150.102 448.48,150.649 448.272,150.98 C447.939,151.5 447.837,152.024 447.968,152.555 L447.555,152.974 L443.754,149.231 C444.017,148.761 444.237,148.391 444.417,148.121 C444.79,147.566 445.215,147.04 445.691,146.541 L447.198,144.967 C448.233,143.888 448.75,142.998 448.749,142.298 C448.748,141.598 448.267,140.774 447.304,139.826 L443.928,136.501 L437.479,143.052 L434.104,139.729 L450.542,123.037 L458.441,130.815 L458.441,130.815 Z" id="Fill-39" fill="#000000"></path>
            <path d="M469.564,148.662 L457.778,158.52 L460.647,161.949 C462.115,163.704 464.017,164.193 466.352,163.417 C467.632,162.989 468.938,162.218 470.27,161.104 C472.106,159.567 473.28,158.104 473.789,156.712 C474.299,155.322 473.847,153.781 472.433,152.091 L469.564,148.662 Z M476.04,150.127 C476.945,151.243 477.583,152.269 477.952,153.205 C478.581,154.798 478.666,156.443 478.207,158.141 C477.831,159.507 477.218,160.738 476.366,161.833 C475.515,162.929 474.618,163.871 473.676,164.659 C471.287,166.657 468.867,167.875 466.415,168.312 C463.104,168.893 460.325,167.84 458.077,165.153 L451.667,157.49 L469.63,142.463 L476.04,150.127 L476.04,150.127 Z" id="Fill-40" fill="#000000"></path>
            <path d="M246.046,208.29 L208.956,230.121 L196.9,219.205 L184.847,251.043 L157.957,277.419 L242.336,317.443 L141.265,393.851 L238.63,394.758 L238.63,449.336 C334.141,462.071 397.197,403.855 397.197,403.855 L358.25,362.016 C358.25,362.016 349.903,359.281 374.017,337.455 C398.126,315.624 387.717,269.606 379.577,248.312 C371.23,226.482 352.686,196.468 310.96,189.188 C263.676,180.943 246.046,208.29 246.046,208.29" id="Fill-41" fill="#9E9F9E"></path>
            <path d="M246.046,208.29 L208.956,230.121 L196.9,219.205 L184.847,251.043 L157.957,277.419 L242.336,317.443 L141.265,393.851 L238.63,394.758 L238.63,449.336 C334.141,462.071 397.197,403.855 397.197,403.855 L358.25,362.016 C358.25,362.016 349.903,359.281 374.017,337.455 C398.126,315.624 387.717,269.606 379.577,248.312 C371.23,226.482 352.686,196.468 310.96,189.188 C263.676,180.943 246.046,208.29 246.046,208.29 Z" id="Stroke-42" stroke="#FFDA1A" stroke-width="6.776"></path>
            <path d="M247.664,310.371 C247.664,310.371 185.269,281.188 173.562,275.634 C180.219,269.105 193.347,256.227 193.347,256.227 C193.347,256.227 198.699,242.094 201.844,233.786 C204.228,235.944 206.681,238.165 206.681,238.165 L254.424,280.535" id="Stroke-43" stroke="#FFDA1A" stroke-width="3.388"></path>
            <polyline id="Fill-44" fill="#FFDC19" points="265.657 313.353 267.905 380.325 173.572 383.382 265.657 313.353"></polyline>
            <path d="M386.997,394.758 C330.431,439.327 261.813,434.782 261.813,434.782 L260.885,389.301 C325.794,387.478 355.469,361.104 355.469,361.104 L386.997,394.758" id="Fill-45" fill="#FFDA1A"></path>
            <path d="M290.558,155.534 C364.816,155.534 425.017,214.586 425.017,287.423 C425.017,314.953 416.41,340.5 401.709,361.642 L444.822,389.314 C462.179,361.536 476.945,322.391 476.945,287.423 C476.945,186.451 393.497,104.597 290.558,104.597 C259.456,104.597 230.144,112.079 204.365,125.293 L228.403,170.479 C246.999,160.951 268.127,155.534 290.558,155.534" id="Fill-46" fill="#CE232A"></path>
            <path d="M290.558,155.534 C268.127,155.534 246.999,160.951 228.403,170.479 L247.705,206.768 C260.524,200.197 275.093,196.468 290.558,196.468 C341.771,196.468 383.29,237.191 383.29,287.423 C383.29,309.015 375.606,328.831 362.8,344.427 L401.709,361.642 C416.41,340.5 425.017,314.953 425.017,287.423 C425.017,214.586 364.816,155.534 290.558,155.534" id="Fill-47" fill="#9E9F9E"></path>
            <path d="M248.054,207.919 C260.874,201.352 275.442,197.62 290.907,197.62 C342.119,197.62 383.638,238.343 383.638,288.579 C383.638,310.166 375.956,329.983 363.149,345.579" id="Stroke-48" stroke="#FBCE20" stroke-width="6.776"></path>
            <path d="M372.797,318.954 C372.797,318.954 358.709,248.216 302.028,247.675 C238.099,247.066 248.061,246.017 236.693,234.217" id="Stroke-49" stroke="#FFDA1A" stroke-width="4.018"></path>
            <path d="M253.892,242.228 C252.871,243.653 243.138,249.478 241.836,250.505 C240.53,251.533 240.891,255.637 245.115,254.359 C249.336,253.092 251.761,252.198 255.434,250.282 C259.11,248.368 261.615,246.318 261.854,242.855 C262.094,239.391 263.423,237.211 254.139,226.282 C244.854,215.354 245.241,218.307 247.736,224.988 C250.223,231.662 250.223,231.662 250.223,231.662 C250.223,231.662 254.906,240.803 253.892,242.228" id="Fill-50" fill="#FFDA1A"></path>
            <path d="M253.892,242.228 C252.871,243.653 243.138,249.478 241.836,250.505 C240.53,251.533 240.891,255.637 245.115,254.359 C249.336,253.092 251.761,252.198 255.434,250.282 C259.11,248.368 261.615,246.318 261.854,242.855 C262.094,239.391 263.423,237.211 254.139,226.282 C244.854,215.354 245.241,218.307 247.736,224.988 C250.223,231.662 250.223,231.662 250.223,231.662 C250.223,231.662 254.906,240.803 253.892,242.228 Z" id="Stroke-51" stroke="#FFDA1A" stroke-width="1.268"></path>
            <path d="M286.166,245.18 C285.692,243.439 278.563,234.064 277.689,232.577 C276.815,231.09 278.508,227.42 282.016,230.323 C285.525,233.224 287.481,235.04 290.27,238.315 C293.055,241.595 294.704,244.516 293.785,247.836 C292.86,251.16 293.377,253.726 281.126,260.116 C268.874,266.504 270.207,263.914 274.736,258.718 C279.262,253.516 279.262,253.516 279.262,253.516 C279.262,253.516 286.641,246.918 286.166,245.18" id="Fill-52" fill="#FFDA1A"></path>
            <path d="M286.166,245.18 C285.692,243.439 278.563,234.064 277.689,232.577 C276.815,231.09 278.508,227.42 282.016,230.323 C285.525,233.224 287.481,235.04 290.27,238.315 C293.055,241.595 294.704,244.516 293.785,247.836 C292.86,251.16 293.377,253.726 281.126,260.116 C268.874,266.504 270.207,263.914 274.736,258.718 C279.262,253.516 279.262,253.516 279.262,253.516 C279.262,253.516 286.641,246.918 286.166,245.18 Z" id="Stroke-53" stroke="#FFDA1A" stroke-width="1.268"></path>
            <path d="M304.852,245.962 C304.371,244.249 297.149,235.026 296.266,233.563 C295.381,232.101 297.102,228.482 300.654,231.327 C304.211,234.18 306.201,235.958 309.021,239.182 C311.844,242.406 313.52,245.28 312.577,248.556 C311.636,251.834 312.158,254.359 299.724,260.698 C287.287,267.036 288.642,264.477 293.244,259.341 C297.842,254.203 297.842,254.203 297.842,254.203 C297.842,254.203 305.334,247.675 304.852,245.962" id="Fill-54" fill="#FFDA1A"></path>
            <path d="M304.852,245.962 C304.371,244.249 297.149,235.026 296.266,233.563 C295.381,232.101 297.102,228.482 300.654,231.327 C304.211,234.18 306.201,235.958 309.021,239.182 C311.844,242.406 313.52,245.28 312.577,248.556 C311.636,251.834 312.158,254.359 299.724,260.698 C287.287,267.036 288.642,264.477 293.244,259.341 C297.842,254.203 297.842,254.203 297.842,254.203 C297.842,254.203 305.334,247.675 304.852,245.962 Z" id="Stroke-55" stroke="#FFDA1A" stroke-width="1.268"></path>
            <path d="M322.42,253.263 C321.194,254.513 310.621,258.786 309.168,259.601 C307.715,260.42 307.455,264.5 311.848,263.873 C316.247,263.25 318.792,262.737 322.742,261.4 C326.688,260.064 329.498,258.426 330.259,255.058 C331.02,251.691 332.677,249.751 325.085,237.645 C317.5,225.532 317.438,228.49 318.904,235.417 C320.375,242.345 320.375,242.345 320.375,242.345 C320.375,242.345 323.65,252.013 322.42,253.263" id="Fill-56" fill="#FFDA1A"></path>
            <path d="M322.42,253.263 C321.194,254.513 310.621,258.786 309.168,259.601 C307.715,260.42 307.455,264.5 311.848,263.873 C316.247,263.25 318.792,262.737 322.742,261.4 C326.688,260.064 329.498,258.426 330.259,255.058 C331.02,251.691 332.677,249.751 325.085,237.645 C317.5,225.532 317.438,228.49 318.904,235.417 C320.375,242.345 320.375,242.345 320.375,242.345 C320.375,242.345 323.65,252.013 322.42,253.263 Z" id="Stroke-57" stroke="#FFDA1A" stroke-width="1.268"></path>
            <path d="M353.33,272.603 C354.152,271.034 355.146,259.509 355.495,257.851 C355.849,256.2 359.617,254.699 360.295,259.143 C360.977,263.583 361.221,266.204 361.097,270.432 C360.974,274.659 360.236,277.869 357.279,279.633 C354.324,281.402 352.97,283.598 339.365,279.952 C325.764,276.31 328.532,275.344 335.486,274.651 C342.445,273.96 342.445,273.96 342.445,273.96 C342.445,273.96 352.508,274.175 353.33,272.603" id="Fill-58" fill="#FFDA1A"></path>
            <path d="M353.33,272.603 C354.152,271.034 355.146,259.509 355.495,257.851 C355.849,256.2 359.617,254.699 360.295,259.143 C360.977,263.583 361.221,266.204 361.097,270.432 C360.974,274.659 360.236,277.869 357.279,279.633 C354.324,281.402 352.97,283.598 339.365,279.952 C325.764,276.31 328.532,275.344 335.486,274.651 C342.445,273.96 342.445,273.96 342.445,273.96 C342.445,273.96 352.508,274.175 353.33,272.603 Z" id="Stroke-59" stroke="#FFDA1A" stroke-width="1.268"></path>
            <path d="M270.361,242.457 C269.885,240.716 262.759,231.343 261.889,229.854 C261.015,228.373 262.705,224.7 266.212,227.599 C269.717,230.503 271.677,232.316 274.462,235.595 C277.251,238.87 278.903,241.793 277.981,245.116 C277.055,248.437 277.573,251.002 265.321,257.395 C253.07,263.784 254.406,261.197 258.935,255.997 C263.462,250.797 263.462,250.797 263.462,250.797 C263.462,250.797 270.837,244.197 270.361,242.457" id="Fill-60" fill="#FFDA1A"></path>
            <path d="M270.361,242.457 C269.885,240.716 262.759,231.343 261.889,229.854 C261.015,228.373 262.705,224.7 266.212,227.599 C269.717,230.503 271.677,232.316 274.462,235.595 C277.251,238.87 278.903,241.793 277.981,245.116 C277.055,248.437 277.573,251.002 265.321,257.395 C253.07,263.784 254.406,261.197 258.935,255.997 C263.462,250.797 263.462,250.797 263.462,250.797 C263.462,250.797 270.837,244.197 270.361,242.457 Z" id="Stroke-61" stroke="#FFDA1A" stroke-width="1.268"></path>
            <path d="M338.386,258.372 C338.738,256.639 336.47,245.28 336.351,243.598 C336.224,241.913 339.431,239.453 341.325,243.547 C343.216,247.634 344.188,250.09 345.248,254.191 C346.307,258.29 346.498,261.574 344.148,264.066 C341.798,266.56 341.105,269.033 327.008,269.188 C312.909,269.338 315.301,267.67 321.796,265.134 C328.292,262.595 328.292,262.595 328.292,262.595 C328.292,262.595 338.035,260.098 338.386,258.372" id="Fill-62" fill="#FFDA1A"></path>
            <path d="M338.386,258.372 C338.738,256.639 336.47,245.28 336.351,243.598 C336.224,241.913 339.431,239.453 341.325,243.547 C343.216,247.634 344.188,250.09 345.248,254.191 C346.307,258.29 346.498,261.574 344.148,264.066 C341.798,266.56 341.105,269.033 327.008,269.188 C312.909,269.338 315.301,267.67 321.796,265.134 C328.292,262.595 328.292,262.595 328.292,262.595 C328.292,262.595 338.035,260.098 338.386,258.372 Z" id="Stroke-63" stroke="#FFDA1A" stroke-width="1.268"></path>
            <path d="M362.234,289.346 C363.06,287.774 364.046,276.248 364.399,274.59 C364.753,272.938 368.524,271.435 369.199,275.878 C369.878,280.319 370.124,282.943 370.001,287.17 C369.878,291.394 369.138,294.609 366.181,296.372 C363.227,298.134 361.875,300.334 348.27,296.691 C334.668,293.05 337.438,292.083 344.391,291.392 C351.349,290.7 351.349,290.7 351.349,290.7 C351.349,290.7 361.411,290.92 362.234,289.346" id="Fill-64" fill="#FFDA1A"></path>
            <path d="M362.234,289.346 C363.06,287.774 364.046,276.248 364.399,274.59 C364.753,272.938 368.524,271.435 369.199,275.878 C369.878,280.319 370.124,282.943 370.001,287.17 C369.878,291.394 369.138,294.609 366.181,296.372 C363.227,298.134 361.875,300.334 348.27,296.691 C334.668,293.05 337.438,292.083 344.391,291.392 C351.349,290.7 351.349,290.7 351.349,290.7 C351.349,290.7 361.411,290.92 362.234,289.346 Z" id="Stroke-65" stroke="#FFDA1A" stroke-width="1.268"></path>
            <path d="M247.417,235.284 C249.329,237.534 249.021,240.878 246.725,242.756 C244.43,244.63 241.025,244.325 239.113,242.078 L232.191,233.927 C230.276,231.678 225.747,222.631 228.04,220.756 L228.59,214.785 C230.882,212.907 238.584,224.889 240.496,227.135 L247.417,235.284" id="Fill-66" fill="#FFDA1A"></path>
            <path d="M247.417,235.284 C249.329,237.534 249.021,240.878 246.725,242.756 C244.43,244.63 241.025,244.325 239.113,242.078 L232.191,233.927 C230.276,231.678 225.747,222.631 228.04,220.756 L228.59,214.785 C230.882,212.907 238.584,224.889 240.496,227.135 L247.417,235.284 Z" id="Stroke-67" stroke="#FFDA1A" stroke-width="1.125"></path>
            <polyline id="Fill-68" fill="#000000" points="122.599 207.363 162.831 229.448 163.808 226.341 157.833 219.958 163.037 213.154 177.879 220.377 177.197 225.169 188.5 227.482 205.982 242.194 211.472 237.068 375.688 339.523 374.626 346.979 388.228 348.021 451.014 393.772 421.919 423.51 409.476 406.859 400.959 410.974 283.514 321.828 238.16 283.701 237.812 278.75 218.925 262.729 210.107 268.968 210.587 258.155 199.644 256.987 196.818 261.989 167.6 240.543 162.338 244.071 156.292 238.226 157.339 234.577 122.599 207.363"></polyline>
            <polygon id="Stroke-69" stroke="#000000" stroke-width="0.953" points="122.599 207.363 162.831 229.448 163.808 226.341 157.833 219.958 163.037 213.154 177.879 220.377 177.197 225.169 188.5 227.482 205.982 242.194 211.472 237.068 375.688 339.523 374.626 346.979 388.228 348.021 451.014 393.772 421.919 423.51 409.476 406.859 400.959 410.974 283.514 321.828 238.16 283.701 237.812 278.75 218.925 262.729 210.107 268.968 210.587 258.155 199.644 256.987 196.818 261.989 167.6 240.543 162.338 244.071 156.292 238.226 157.339 234.577"></polygon>
            <path d="M381.961,379.729 C382.917,378.241 382.649,376.259 381.361,375.31 L326.782,334.912 C325.5,333.963 323.682,334.402 322.729,335.889 C321.775,337.376 322.043,339.35 323.332,340.299 L377.915,380.701 C379.197,381.655 381.013,381.215 381.961,379.729" id="Fill-70" fill="#9E9F9E"></path>
            <path d="M313.639,328.879 C314.595,327.393 315.068,325.96 314.69,325.688 L298.906,313.996 C298.533,313.727 297.454,314.709 296.502,316.199 C295.55,317.686 295.077,319.116 295.451,319.39 L311.238,331.078 C311.607,331.359 312.684,330.373 313.639,328.879" id="Fill-71" fill="#9E9F9E"></path>
            <polyline id="Fill-72" fill="#000000" points="451.014 207.363 410.777 229.448 409.805 226.341 415.777 219.958 410.573 213.154 395.733 220.377 396.412 225.169 385.109 227.482 367.63 242.194 362.135 237.068 197.929 339.523 198.987 346.979 185.385 348.021 122.599 393.772 151.693 423.51 164.133 406.859 172.654 410.974 290.093 321.828 335.453 283.701 335.802 278.75 354.679 262.729 363.502 268.968 363.025 258.155 373.969 256.987 376.791 261.989 406.009 240.543 411.271 244.071 417.318 238.226 416.27 234.577 451.014 207.363"></polyline>
            <polygon id="Stroke-73" stroke="#000000" stroke-width="0.953" points="451.014 207.363 410.777 229.448 409.805 226.341 415.777 219.958 410.573 213.154 395.733 220.377 396.412 225.169 385.109 227.482 367.63 242.194 362.135 237.068 197.929 339.523 198.987 346.979 185.385 348.021 122.599 393.772 151.693 423.51 164.133 406.859 172.654 410.974 290.093 321.828 335.453 283.701 335.802 278.75 354.679 262.729 363.502 268.968 363.025 258.155 373.969 256.987 376.791 261.989 406.009 240.543 411.271 244.071 417.318 238.226 416.27 234.577"></polygon>
            <path d="M191.648,379.729 C190.695,378.241 190.963,376.259 192.251,375.31 L246.828,334.912 C248.116,333.963 249.932,334.402 250.884,335.889 C251.836,337.376 251.57,339.35 250.281,340.299 L195.694,380.701 C194.412,381.655 192.601,381.215 191.648,379.729" id="Fill-74" fill="#9E9F9E"></path>
            <path d="M259.97,328.879 C259.018,327.393 258.545,325.96 258.915,325.688 L274.702,313.996 C275.075,313.727 276.155,314.709 277.107,316.199 C278.063,317.686 278.532,319.116 278.162,319.39 L262.372,331.078 C261.999,331.359 260.927,330.373 259.97,328.879" id="Fill-75" fill="#9E9F9E"></path>
        </g>
    </g>
</svg>