<?xml version="1.0" encoding="utf-8"?>
<!-- Generator: Adobe Illustrator 25.2.0, SVG Export Plug-In . SVG Version: 6.00 Build 0)  -->
<!-- SVG made by yourforcesupport.com -  Powerful Websites for the Modern Force Support Squadron US Forces -->
<svg version="1.1" xmlns="http://www.w3.org/2000/svg" xmlns:xlink="http://www.w3.org/1999/xlink" x="0px" y="0px"
	 viewBox="0 0 101.7 101.7" style="enable-background:new 0 0 101.7 101.7;" xml:space="preserve">
<style type="text/css">
	.st0{fill:none;}
	.st1{fill:#C12021;}
	.st2{fill:#A7A8A9;}
	.st3{fill:#263576;}
	.st4{fill:none;stroke:#13110C;stroke-width:0.8819;stroke-miterlimit:10;}
	.st5{fill:none;stroke:#002F87;stroke-width:0.8819;stroke-miterlimit:10;}
	.st6{fill:#293175;}
</style>
<g id="Page_Guide">
</g>
<g id="Full_color_Vert">
	<g>
		<g>
			<path class="st0" d="M44.8,20.9c-6.9,1.7-16.7,2.6-29.3,2.7v24.3c0,12.9,6.2,30.4,35.3,41.2C80,78.2,86.1,60.7,86.1,47.8V23.5
				c-12.5-0.1-22.4-1-29.3-2.7c-2.9-0.7-4.8-1.4-6-2C49.6,19.4,47.7,20.1,44.8,20.9z M82.9,25.3H84v1.5v1.2v1.5v2.7v2.7v2.7v2.7V43
				v2.7v2.7v0.4c0,6.4-1.6,12.4-4.9,17.7C73.8,75,64.5,81.8,51.3,86.5l-0.4,0.2l-0.4-0.2C37.2,81.8,27.8,75,22.5,66.4
				c-3.3-5.3-4.9-11.3-4.9-17.7V28.1v-2.7h1.1c26.4,0,32.2-4.5,32.2-4.5S58.3,25.3,82.9,25.3z"/>
			<path class="st1" d="M17.6,25.5v2.7v20.6c0,6.4,1.6,12.4,4.9,17.7c5.3,8.7,14.7,15.4,27.9,20.2l0.4,0.2l0.4-0.2
				c13.2-4.7,22.6-11.5,27.9-20.2c3.3-5.3,4.9-11.3,4.9-17.7v-0.4v-2.7v-2.7v-2.7v-2.7V35v-2.7v-2.7v-1.5V27v-1.5h-1.1
				c-24.6,0-32-4.5-32-4.5s-5.7,4.5-32.2,4.5H17.6z M20.8,28.2c10.7-0.1,19-0.8,24.9-2.3c2.5-0.6,4.1-1.2,5.1-1.7
				c1,0.5,2.6,1.1,5.1,1.7c5.9,1.4,14.2,2.2,24.9,2.3v20.6c0,11-5.2,25.9-30,35c-24.8-9.1-30-24-30-35V28.2z"/>
			<path class="st2" d="M13.1,20.5h-1.3v27.5c0,7.5,1.9,14.5,5.8,20.8c6.2,10.2,17.3,18.2,32.8,23.7l0.5,0.2l0.5-0.2
				c15.5-5.5,26.6-13.5,32.8-23.7c3.8-6.2,5.8-13.2,5.8-20.8V20.5h-1.3c-29,0-37.7-5.3-37.7-5.3S44.2,20.5,13.1,20.5z M86.1,23.7
				v24.3c0,12.9-6.2,30.4-35.3,41.2C21.7,78.4,15.5,60.8,15.5,47.9V23.7c12.5-0.1,22.4-1,29.3-2.7c2.9-0.7,4.8-1.4,6-2
				c1.2,0.6,3.1,1.3,6,2C63.7,22.7,73.6,23.6,86.1,23.7z"/>
		</g>
		<g>
			<g>
				<polygon class="st3" points="91.3,29.3 91.3,41 101.2,39.8 101.2,28.3 				"/>
				<path class="st3" d="M101.2,66.7v-7.2l-12.1,1.7c-1.2,3.5-2.9,7.1-5.4,10.7l13-2.1L101.2,66.7z"/>
				<path class="st3" d="M91.3,45.9v1.7c0,2.9-0.3,6.1-1,9.4l10.9-1.4V44.8L91.3,45.9z"/>
				<polygon class="st3" points="10.7,29.3 0.4,28.3 0.4,39.8 10.7,41 				"/>
				<path class="st3" d="M4.9,69.8L18.2,72c-2.5-3.6-4.2-7.2-5.4-10.7L0.4,59.5v7.2L4.9,69.8z"/>
				<path class="st3" d="M11.7,57c-0.7-3.3-1-6.4-1-9.4v-1.7L0.4,44.8v10.7L11.7,57z"/>
			</g>
			<path class="st4" d="M92.8,101.2h-84c-4.6,0-8.4-2.9-8.4-6.5V7c0-3.6,3.8-6.5,8.4-6.5h84c4.6,0,8.4,2.9,8.4,6.5v87.7
				C101.2,98.3,97.5,101.2,92.8,101.2z"/>
			<path class="st5" d="M92.8,101.2h-84c-4.6,0-8.4-2.9-8.4-6.5V7c0-3.6,3.8-6.5,8.4-6.5h84c4.6,0,8.4,2.9,8.4,6.5v87.7
				C101.2,98.3,97.5,101.2,92.8,101.2z"/>
		</g>
		<g>
			<path class="st6" d="M31.1,60.3c-1.2-0.5-2.3-1.3-3.2-2.2c-0.9-0.9-1.7-2-2.2-3.2C25.2,53.6,25,52.4,25,51c0-1.4,0.3-2.7,0.8-3.9
				c0.5-1.2,1.3-2.3,2.2-3.2c0.9-0.9,2-1.6,3.2-2.2c1.2-0.5,2.5-0.8,3.9-0.8c0.8,0,1.4,0.1,2.1,0.2c0.6,0.1,1.3,0.4,2,0.7v6
				c-1-1.3-2.3-1.9-4-1.9c-0.7,0-1.3,0.1-1.9,0.4c-0.6,0.3-1.1,0.6-1.6,1.1c-0.5,0.5-0.8,1-1.1,1.6C30.2,49.7,30,50.3,30,51
				c0,0.7,0.1,1.3,0.4,1.9c0.3,0.6,0.6,1.1,1.1,1.6c0.5,0.5,1,0.8,1.6,1.1c0.6,0.3,1.2,0.4,1.9,0.4c1.7,0,3-0.7,4-2.1v6.3
				c-0.8,0.3-1.5,0.5-2,0.7C36.4,61,35.8,61,35,61C33.6,61.1,32.4,60.8,31.1,60.3z"/>
			<path class="st6" d="M60.3,54.9c-0.5,1.2-1.2,2.3-2.2,3.2c-0.9,0.9-2,1.6-3.2,2.2C53.7,60.8,52.4,61,51,61h-8.9V48.5h5V56H51
				c0.7,0,1.3-0.1,1.9-0.4c0.6-0.3,1.2-0.6,1.6-1.1c0.5-0.5,0.8-1,1.1-1.6c0.3-0.6,0.4-1.2,0.4-1.9c0-0.7-0.1-1.3-0.4-1.9
				c-0.3-0.6-0.6-1.1-1.1-1.6c-0.5-0.5-1-0.8-1.6-1.1c-0.6-0.3-1.3-0.4-2-0.4h-8.9v-5H51c1.4,0,2.7,0.3,3.9,0.8
				c1.2,0.5,2.3,1.2,3.2,2.2c0.9,0.9,1.6,2,2.2,3.2c0.5,1.2,0.8,2.5,0.8,3.9C61.1,52.4,60.8,53.7,60.3,54.9z"/>
			<path class="st6" d="M68.8,60.3c-1.2-0.5-2.3-1.3-3.2-2.2c-0.9-0.9-1.7-2-2.2-3.2c-0.5-1.2-0.8-2.5-0.8-3.9
				c0-1.4,0.3-2.7,0.8-3.9c0.5-1.2,1.3-2.3,2.2-3.2c0.9-0.9,2-1.6,3.2-2.2c1.2-0.5,2.5-0.8,3.9-0.8c0.8,0,1.4,0.1,2.1,0.2
				c0.6,0.1,1.3,0.4,2,0.7v6c-1-1.3-2.3-1.9-4-1.9c-0.7,0-1.3,0.1-1.9,0.4c-0.6,0.3-1.1,0.6-1.6,1.1c-0.5,0.5-0.8,1-1.1,1.6
				c-0.3,0.6-0.4,1.2-0.4,1.9c0,0.7,0.1,1.3,0.4,1.9c0.3,0.6,0.6,1.1,1.1,1.6c0.5,0.5,1,0.8,1.6,1.1c0.6,0.3,1.2,0.4,1.9,0.4
				c1.7,0,3-0.7,4-2.1v6.3c-0.8,0.3-1.5,0.5-2,0.7c-0.6,0.1-1.2,0.2-2,0.2C71.3,61.1,70,60.8,68.8,60.3z"/>
		</g>
	</g>
</g>
<g id="Gradient_FULL_COLOR">
</g>
</svg>
