<?xml version="1.0" encoding="UTF-8" standalone="no"?>
<!-- Created with Inkscape (http://www.inkscape.org/) -->
<svg
   xmlns:dc="http://purl.org/dc/elements/1.1/"
   xmlns:cc="http://web.resource.org/cc/"
   xmlns:rdf="http://www.w3.org/1999/02/22-rdf-syntax-ns#"
   xmlns:svg="http://www.w3.org/2000/svg"
   xmlns="http://www.w3.org/2000/svg"
   xmlns:sodipodi="http://sodipodi.sourceforge.net/DTD/sodipodi-0.dtd"
   xmlns:inkscape="http://www.inkscape.org/namespaces/inkscape"
   width="1162.8632"
   height="878.15912"
   id="svg2"
   sodipodi:version="0.32"
   inkscape:version="0.45pre1"
   sodipodi:docbase="C:\Users\steven.williamson.NASW.000\Desktop"
   sodipodi:docname="drawing.svg"
   inkscape:output_extension="org.inkscape.output.svg.inkscape"
   sodipodi:modified="true"
   version="1.0">
  <defs
     id="defs4" />
  <sodipodi:namedview
     id="base"
     pagecolor="#ffffff"
     bordercolor="#666666"
     borderopacity="1.0"
     gridtolerance="10000"
     guidetolerance="10"
     objecttolerance="10"
     inkscape:pageopacity="0.0"
     inkscape:pageshadow="2"
     inkscape:zoom="0.49497475"
     inkscape:cx="492.75282"
     inkscape:cy="467.45838"
     inkscape:document-units="px"
     inkscape:current-layer="layer1"
     inkscape:window-width="1680"
     inkscape:window-height="998"
     inkscape:window-x="-8"
     inkscape:window-y="-8" />
  <metadata
     id="metadata7">
    <rdf:RDF>
      <cc:Work
         rdf:about="">
        <dc:format>image/svg+xml</dc:format>
        <dc:type
           rdf:resource="http://purl.org/dc/dcmitype/StillImage" />
      </cc:Work>
    </rdf:RDF>
  </metadata>
  <g
     inkscape:label="Layer 1"
     inkscape:groupmode="layer"
     id="layer1"
     transform="translate(293.42564,-159.30967)">
    <g
       id="g10143">
      <path
         id="path7074"
         d="M 102.5625,159.3125 C 97.245071,159.31973 92.41619,159.33652 88.375,159.375 C 70.161434,159.54841 68.072967,173.43855 73.25,181.625 C 78.800113,190.4014 214.65625,405.37501 214.65625,405.375 C 214.65625,405.375 214.53145,405.5622 214.53125,405.5625 L 375.59375,405.5625 L 233.84375,180.59375 C 227.52286,171.36961 222.99498,160.73753 202.03125,159.90625 C 202.03125,159.90625 139.7845,159.26188 102.5625,159.3125 z M 242.1875,605.09375 C 233.7943,617.41158 225.9818,628.82801 219.125,638.71875 C 225.98155,628.82788 233.79496,617.4119 242.1875,605.09375 z M 209.59375,652.34375 C 206.74388,656.3909 204.96291,659.39824 203.28125,661.625 C 204.96476,659.39815 206.74388,656.3909 209.59375,652.34375 z "
         style="opacity:1;fill:#8d0400;fill-opacity:1;fill-rule:evenodd;stroke:none;stroke-width:1px;stroke-linecap:butt;stroke-linejoin:miter;stroke-opacity:1" />
      <path
         id="path2170"
         d="M 473.03125,160.3125 C 434.01573,160.36569 384.1875,160.78125 384.1875,160.78125 C 381.50893,160.60268 378.10422,161.17305 372.03125,169 C 367.78789,174.46892 334.10773,225.91829 311.8125,260.0625 L 390.28125,383.96875 C 418.57351,341.35378 523.84096,182.81087 527.03125,177.9375 C 530.80564,172.17183 525.11462,161.86558 518.46875,160.78125 C 515.96506,160.37275 496.44056,160.28059 473.03125,160.3125 z M 388.65625,426.15625 L 304.125,547.21875 C 327.97651,584.96527 371.40194,653.71105 375.71875,660.5625 C 381.28664,669.3996 385.16517,668.9598 387.84375,668.78125 C 387.84375,668.78125 515.47972,669.87056 522.15625,668.78125 C 528.80212,667.69692 534.49317,657.42193 530.71875,651.65625 C 527.47927,646.70774 415.27521,468.44188 388.65625,426.15625 z "
         style="opacity:1;fill:#004580;fill-opacity:1;fill-rule:evenodd;stroke:none;stroke-width:1px;stroke-linecap:butt;stroke-linejoin:miter;stroke-opacity:1" />
      <path
         id="path5131"
         d="M 214.53125,405.5625 C 214.28258,405.93325 58.628298,637.99048 53.53125,645.28125 C 48.489442,652.49302 47.175157,667.14342 60.59375,668.5 C 74.189118,669.87446 107.58968,668.29312 144.96875,668 C 205.86356,667.52246 196.56579,670.84502 209.59375,652.34375 C 256.04043,586.38386 375.78124,405.87499 375.78125,405.875 L 375.59375,405.5625 L 214.53125,405.5625 z "
         style="opacity:1;fill:#c60a2c;fill-opacity:1;fill-rule:evenodd;stroke:none;stroke-width:1px;stroke-linecap:butt;stroke-linejoin:miter;stroke-opacity:1" />
      <path
         id="flowRoot7192"
         d="M 682,792.8125 C 669.07537,792.81273 657.36071,794.69942 646.84375,798.5 C 636.32666,802.30103 627.33993,807.78077 619.90625,814.9375 C 612.47249,822.09443 606.74223,830.80161 602.6875,841.03125 C 598.63273,851.2611 596.59374,862.79829 596.59375,875.65625 C 596.59375,888.10997 598.51112,899.23714 602.3125,909.0625 C 606.11382,918.88798 611.60095,927.22922 618.78125,934.0625 C 625.96152,940.8958 634.71438,946.12018 645.0625,949.71875 C 655.41052,953.31743 667.12516,955.09376 680.21875,955.09375 C 684.69578,955.09375 689.15875,954.90427 693.59375,954.5 C 698.02853,954.09563 702.4307,953.49622 706.78125,952.6875 C 711.13155,951.87887 715.32014,950.91342 719.375,949.78125 C 723.42963,948.6491 726.84817,947.5513 729.59375,946.5 C 732.33902,945.44871 734.14414,944.00697 735.03125,942.1875 C 735.91808,940.36789 736.37483,938.23858 736.375,935.8125 L 736.375,873.34375 C 736.37486,871.7265 736.141,870.2848 735.71875,869.03125 C 735.29623,867.77783 734.7086,866.73331 733.90625,865.84375 C 733.10359,864.95427 732.14953,864.28863 731.09375,863.84375 C 730.03768,863.39907 728.85144,863.15637 727.5,863.15625 L 672.125,863.15625 C 671.36465,863.15636 670.68497,863.39904 670.09375,863.84375 C 669.50235,864.28866 668.98481,864.97635 668.5625,865.90625 C 668.14005,866.83627 667.83611,868.05732 667.625,869.59375 C 667.41373,871.13027 667.31242,873.01698 667.3125,875.28125 C 667.31242,879.64813 667.71771,882.74298 668.5625,884.5625 C 669.40716,886.382 670.60441,887.31247 672.125,887.3125 L 703.15625,887.3125 L 703.15625,923.6875 C 700.0306,925.30487 696.66352,926.53504 693.03125,927.34375 C 689.39876,928.15238 685.71679,928.53126 682,928.53125 C 674.39723,928.53125 667.44951,927.37639 661.15625,925.03125 C 654.86286,922.68611 649.47709,919.20321 645,914.59375 C 640.52281,909.98431 637.05445,904.2709 634.5625,897.4375 C 632.07046,890.6042 630.81246,882.69516 630.8125,873.71875 C 630.81245,865.55117 632.05021,858.09633 634.5,851.34375 C 636.9497,844.5913 640.43836,838.81181 645,834 C 649.56155,829.18855 655.04866,825.47209 661.46875,822.84375 C 667.88871,820.21574 675.09057,818.87513 683.03125,818.875 C 690.46488,818.87511 696.97614,819.60705 702.59375,821.0625 C 708.21117,822.51828 713.03885,824.11437 717.09375,825.8125 C 721.14837,827.51083 724.39384,829.07579 726.84375,830.53125 C 729.29336,831.98703 731.08921,832.71887 732.1875,832.71875 C 732.94762,832.71886 733.60701,832.49825 734.15625,832.09375 C 734.70519,831.68949 735.15099,831.011 735.53125,830 C 735.91124,828.98924 736.22614,827.63581 736.4375,825.9375 C 736.64854,824.23939 736.74983,822.18901 736.75,819.84375 C 736.74985,815.8005 736.47542,812.74976 735.96875,810.6875 C 735.46175,808.62556 734.64023,807.03852 733.5,805.90625 C 732.35945,804.77422 730.37198,803.44288 727.5,801.90625 C 724.62774,800.36985 721.00652,798.92823 716.65625,797.59375 C 712.3057,796.25959 707.20361,795.11765 701.375,794.1875 C 695.54617,793.2576 689.09576,792.81274 682,792.8125 z M 44.40625,792.9375 C 33.171108,792.93773 22.865583,794.73612 13.53125,798.375 C 4.1968099,802.01422 -3.7953267,807.37095 -10.46875,814.40625 C -17.142232,821.44191 -22.345649,830.11787 -26.0625,840.46875 C -29.779374,850.81999 -31.625012,862.68818 -31.625,876.03125 C -31.625012,889.13189 -29.941476,900.60298 -26.5625,910.46875 C -23.183548,920.33466 -18.335583,928.56551 -12,935.15625 C -5.6644754,941.747 2.023715,946.68443 11.0625,950 C 20.101177,953.31559 30.233611,955.00001 41.46875,955 C 47.212906,955 52.558164,954.54587 57.5,953.65625 C 62.441636,952.76677 66.843818,951.64687 70.6875,950.3125 C 74.53096,948.97823 77.77644,947.58056 80.4375,946.125 C 83.098312,944.66934 84.88316,943.49249 85.8125,942.5625 C 86.741588,941.6326 87.421251,940.79025 87.84375,940.0625 C 88.265991,939.33461 88.621444,938.4796 88.875,937.46875 C 89.128292,936.45788 89.310657,935.22771 89.4375,933.8125 C 89.564079,932.39737 89.624871,930.678 89.625,928.65625 C 89.624869,925.74503 89.543816,923.42616 89.375,921.6875 C 89.205921,919.94886 88.962766,918.59543 88.625,917.625 C 88.286974,916.65467 87.850465,916.01102 87.34375,915.6875 C 86.836776,915.36398 86.157115,915.18751 85.3125,915.1875 C 84.214209,915.1875 82.67252,915.86239 80.6875,917.15625 C 78.702237,918.45021 76.17694,919.88274 73.09375,921.5 C 70.01033,923.11737 66.308076,924.60325 62,925.9375 C 57.691717,927.27189 52.600599,927.93752 46.6875,927.9375 C 40.182906,927.9375 34.320087,926.86174 29.125,924.71875 C 23.929772,922.57574 19.487067,919.33577 15.8125,914.96875 C 12.137819,910.60198 9.3288433,905.03379 7.34375,898.28125 C 5.3585625,891.52891 4.3437027,883.53146 4.34375,874.3125 C 4.3437028,865.90237 5.2665216,858.33713 7.125,851.625 C 8.9833841,844.91309 11.722296,839.1997 15.3125,834.46875 C 18.902592,829.73815 23.264246,826.10986 28.375,823.5625 C 33.485614,821.01523 39.276655,819.75011 45.78125,819.75 C 51.694349,819.75011 56.796453,820.42862 61.0625,821.84375 C 65.328339,823.25899 69.010328,824.85522 72.09375,826.59375 C 75.176941,828.33251 77.681978,829.89736 79.625,831.3125 C 81.567783,832.72774 83.170262,833.43761 84.4375,833.4375 C 85.19764,833.43761 85.877301,833.20409 86.46875,832.71875 C 87.059941,832.23364 87.546254,831.45763 87.96875,830.40625 C 88.390991,829.35507 88.705918,827.97961 88.875,826.28125 C 89.043818,824.58314 89.12487,822.51997 89.125,820.09375 C 89.124869,817.82957 89.064078,815.9429 88.9375,814.40625 C 88.810659,812.86996 88.628295,811.53852 88.375,810.40625 C 88.121447,809.27422 87.765991,808.32163 87.34375,807.59375 C 86.92125,806.86609 86.140277,805.96683 85,804.875 C 83.859473,803.78339 81.840749,802.47415 78.96875,800.9375 C 76.096509,799.4011 72.871288,798.04779 69.28125,796.875 C 65.690989,795.70265 61.786106,794.75925 57.5625,794.03125 C 53.338695,793.30359 48.967766,792.93774 44.40625,792.9375 z M -159.625,794.75 C -164.44004,794.75011 -168.13131,794.8605 -170.75,795.0625 C -173.36871,795.26485 -175.18481,795.77605 -176.15625,796.625 C -177.12771,797.47428 -177.33033,798.76147 -176.78125,800.5 C -176.23217,802.23876 -175.20804,804.58888 -173.6875,807.5 L -137.1875,871.90625 L -176.46875,940.4375 C -178.07376,943.26798 -179.11816,945.52052 -179.625,947.21875 C -180.13185,948.91697 -179.96975,950.20416 -179.125,951.09375 C -178.28026,951.98323 -176.65751,952.56981 -174.25,952.8125 C -171.8425,953.05505 -168.45518,953.15623 -164.0625,953.15625 C -160.26119,953.15625 -157.19806,953.09918 -154.875,952.9375 C -152.55198,952.7758 -150.71564,952.48897 -149.40625,952.125 C -148.09694,951.76117 -147.15386,951.27193 -146.5625,950.625 C -145.97122,949.97808 -145.41313,949.15793 -144.90625,948.1875 L -114.25,891.53125 L -83.46875,948.1875 C -83.046477,949.15794 -82.528912,949.97808 -81.9375,950.625 C -81.346277,951.27192 -80.403211,951.76119 -79.09375,952.125 C -77.784513,952.48894 -75.968418,952.77577 -73.6875,952.9375 C -71.406819,953.0992 -68.2829,953.15623 -64.3125,953.15625 C -59.582059,953.15625 -55.911066,953.05503 -53.25,952.8125 C -50.589204,952.56983 -48.732576,951.98323 -47.71875,951.09375 C -46.705195,950.20416 -46.441771,948.91696 -46.90625,947.21875 C -47.370988,945.52053 -48.354596,943.26795 -49.875,940.4375 L -88.78125,871.53125 L -52.28125,807.5 C -50.845316,804.5889 -49.902236,802.26097 -49.4375,800.5625 C -48.973022,798.86439 -49.195913,797.57723 -50.125,796.6875 C -51.054345,795.79813 -52.769133,795.26487 -55.21875,795.0625 C -57.668628,794.86048 -60.995156,794.7501 -65.21875,794.75 C -69.020199,794.75011 -72.002265,794.83839 -74.15625,795 C -76.310446,795.16193 -77.993967,795.41754 -79.21875,795.78125 C -80.44373,796.14542 -81.326018,796.63445 -81.875,797.28125 C -82.424183,797.9284 -82.96201,798.74839 -83.46875,799.71875 L -111.46875,851.625 L -140.21875,799.71875 C -140.72563,798.74842 -141.26346,797.92841 -141.8125,797.28125 C -142.36162,796.63444 -143.30472,796.14543 -144.65625,795.78125 C -146.00788,795.41753 -147.8645,795.16191 -150.1875,795 C -152.51056,794.83841 -155.65473,794.7501 -159.625,794.75 z M 130.3125,794.75 C 127.10245,794.75011 124.40406,794.88254 122.25,795.125 C 120.09588,795.36778 118.39209,795.68963 117.125,796.09375 C 115.85787,796.49823 114.95532,797.00944 114.40625,797.65625 C 113.85715,798.30329 113.56249,799.03521 113.5625,799.84375 L 113.5625,948.0625 C 113.56248,948.87124 113.85715,949.60309 114.40625,950.25 C 114.95531,950.89692 115.85787,951.43937 117.125,951.84375 C 118.39209,952.24812 120.09588,952.56981 122.25,952.8125 C 124.40406,953.05505 127.10245,953.15623 130.3125,953.15625 C 133.60696,953.15625 136.29435,953.05503 138.40625,952.8125 C 140.51806,952.56983 142.20159,952.24811 143.46875,951.84375 C 144.73581,951.43938 145.64936,950.89694 146.15625,950.25 C 146.66304,949.60308 146.9062,948.87123 146.90625,948.0625 L 146.90625,884.625 L 208.21875,884.625 L 208.21875,948.0625 C 208.21864,948.87124 208.5133,949.60309 209.0625,950.25 C 209.61147,950.89692 210.49376,951.43937 211.71875,951.84375 C 212.94351,952.24812 214.62704,952.56981 216.78125,952.8125 C 218.93522,953.05505 221.67413,953.15623 224.96875,953.15625 C 228.17864,953.15625 230.82552,953.05503 232.9375,952.8125 C 235.04922,952.56983 236.73275,952.24811 238,951.84375 C 239.26697,951.43938 240.16952,950.89694 240.71875,950.25 C 241.26769,949.60308 241.56235,948.87123 241.5625,948.0625 L 241.5625,799.84375 C 241.56235,799.03524 241.26768,798.30329 240.71875,797.65625 C 240.16952,797.00944 239.26698,796.49826 238,796.09375 C 236.73275,795.68961 235.04922,795.36776 232.9375,795.125 C 230.82551,794.88256 228.17864,794.7501 224.96875,794.75 C 221.67413,794.75011 218.93522,794.88254 216.78125,795.125 C 214.62704,795.36778 212.94351,795.68963 211.71875,796.09375 C 210.49376,796.49823 209.61147,797.00944 209.0625,797.65625 C 208.5133,798.30329 208.21864,799.03521 208.21875,799.84375 L 208.21875,857.46875 L 146.90625,857.46875 L 146.90625,799.84375 C 146.9062,799.03524 146.66304,798.30329 146.15625,797.65625 C 145.64935,797.00944 144.73581,796.49826 143.46875,796.09375 C 142.20159,795.68961 140.51806,795.36776 138.40625,795.125 C 136.29435,794.88256 133.60696,794.7501 130.3125,794.75 z M 336.71875,794.75 C 332.41049,794.75011 328.93113,794.81635 326.3125,794.9375 C 323.69373,795.059 321.66575,795.33669 320.1875,795.78125 C 318.70915,796.22627 317.61324,796.86979 316.9375,797.71875 C 316.26164,798.56803 315.6943,799.68793 315.1875,801.0625 L 264.625,940.3125 C 263.6113,943.14287 262.97216,945.39553 262.71875,947.09375 C 262.46533,948.79197 262.74899,950.10132 263.59375,951.03125 C 264.43849,951.96127 265.95992,952.56981 268.15625,952.8125 C 270.35257,953.05505 273.39542,953.15623 277.28125,953.15625 C 280.91362,953.15625 283.85515,953.09918 286.09375,952.9375 C 288.33228,952.7758 290.05634,952.47607 291.28125,952.03125 C 292.50609,951.58645 293.38837,950.95569 293.9375,950.1875 C 294.48654,949.4193 294.9433,948.47589 295.28125,947.34375 L 305.65625,916.65625 L 367.25,916.65625 L 378.28125,948.1875 C 378.61903,949.23879 379.0243,950.10308 379.53125,950.75 C 380.03798,951.39692 380.95152,951.88607 382.21875,952.25 C 383.48575,952.61383 385.31112,952.87873 387.71875,953 C 390.12614,953.12128 393.47295,953.15623 397.78125,953.15625 C 401.92035,953.15625 405.16583,953.07713 407.53125,952.875 C 409.89638,952.67276 411.57064,952.13033 412.5,951.28125 C 413.42906,950.43208 413.75326,949.16696 413.5,947.46875 C 413.24642,945.77053 412.60727,943.47374 411.59375,940.5625 L 360.90625,801.40625 C 360.3993,799.86985 359.81169,798.67096 359.09375,797.78125 C 358.37562,796.89188 357.17841,796.22628 355.53125,795.78125 C 353.8839,795.33668 351.58151,795.05902 348.625,794.9375 C 345.66831,794.81634 341.70265,794.7501 336.71875,794.75 z M 555.03125,795 C 551.99004,795.00011 549.50529,795.07924 547.5625,795.28125 C 545.61946,795.48349 544.05751,795.82753 542.875,796.3125 C 541.69224,796.79795 540.85048,797.38444 540.34375,798.03125 C 539.83678,798.67829 539.59363,799.41021 539.59375,800.21875 L 539.59375,873.84375 C 539.59363,879.42374 539.65442,885.29153 539.78125,891.4375 C 539.90784,897.58356 540.09021,903.46425 540.34375,909.125 L 540.21875,909.125 C 538.69809,905.89026 537.13613,902.67234 535.53125,899.4375 C 533.92612,896.20288 532.28313,892.88723 530.59375,889.53125 C 528.90415,886.17524 527.12857,882.82487 525.3125,879.46875 C 523.4962,876.11285 521.67083,872.69614 519.8125,869.21875 L 487.875,811.84375 C 486.26992,808.69009 484.70798,806.04939 483.1875,803.90625 C 481.6669,801.76346 480.04417,800.08821 478.3125,798.875 C 476.58072,797.66212 474.63377,796.77587 472.4375,796.25 C 470.24111,795.72458 467.52247,795.46884 464.3125,795.46875 L 446.4375,795.46875 C 443.05851,795.46886 440.22928,796.41229 437.90625,798.3125 C 435.58319,800.21307 434.40624,803.0743 434.40625,806.875 L 434.40625,947.9375 C 434.40624,948.74613 434.60889,949.47809 435.03125,950.125 C 435.45361,950.77192 436.21431,951.33648 437.3125,951.78125 C 438.41064,952.22605 439.93206,952.56981 441.875,952.8125 C 443.81788,953.05505 446.26213,953.15623 449.21875,953.15625 C 452.25979,953.15625 454.77583,953.05503 456.71875,952.8125 C 458.66161,952.56983 460.20331,952.22607 461.34375,951.78125 C 462.48411,951.33645 463.28534,950.77194 463.75,950.125 C 464.21456,949.47808 464.43746,948.74611 464.4375,947.9375 L 464.4375,865.84375 C 464.43745,859.69791 464.3564,853.71962 464.1875,847.9375 C 464.0185,842.15549 463.77536,836.35389 463.4375,830.53125 L 463.6875,830.53125 C 465.63035,835.30261 467.83144,840.22711 470.28125,845.28125 C 472.73094,850.33559 475.13466,855.03948 477.5,859.40625 L 518.28125,932.78125 C 520.39299,936.82461 522.31043,940.1402 524,942.6875 C 525.68938,945.23489 527.43369,947.25403 529.25,948.75 C 531.06607,950.24609 533.06453,951.27767 535.21875,951.84375 C 537.37272,952.40982 539.91827,952.68748 542.875,952.6875 L 557.0625,952.6875 C 558.66737,952.6875 560.24956,952.47607 561.8125,952.03125 C 563.37512,951.58645 564.73444,950.87672 565.875,949.90625 C 567.01525,948.93592 567.91777,947.70567 568.59375,946.25 C 569.26939,944.79434 569.62485,943.14119 569.625,941.28125 L 569.625,800.21875 C 569.62485,799.41024 569.39095,798.67828 568.96875,798.03125 C 568.54622,797.38444 567.80578,796.79798 566.75,796.3125 C 565.69392,795.8275 564.19274,795.4835 562.25,795.28125 C 560.30695,795.07923 557.90321,795.0001 555.03125,795 z M -283.53125,795.46875 C -286.31892,795.46886 -288.66184,796.26701 -290.5625,797.84375 C -292.4632,799.4208 -293.40625,801.97324 -293.40625,805.53125 L -293.40625,942.375 C -293.40626,945.93314 -292.46318,948.48554 -290.5625,950.0625 C -288.66185,951.63944 -286.31894,952.43748 -283.53125,952.4375 L -201.1875,952.4375 C -200.42734,952.4375 -199.72742,952.22607 -199.09375,951.78125 C -198.46031,951.33645 -197.92248,950.62672 -197.5,949.65625 C -197.07774,948.68581 -196.77381,947.42068 -196.5625,945.84375 C -196.35143,944.26681 -196.21887,942.28274 -196.21875,939.9375 C -196.21887,937.59236 -196.35143,935.63947 -196.5625,934.0625 C -196.77381,932.48556 -197.07773,931.22043 -197.5,930.25 C -197.92249,929.27956 -198.46032,928.56978 -199.09375,928.125 C -199.72741,927.68032 -200.42734,927.43753 -201.1875,927.4375 L -260.21875,927.4375 L -260.21875,883.1875 L -210.6875,883.1875 C -209.92734,883.18761 -209.22741,882.96685 -208.59375,882.5625 C -207.9603,882.15824 -207.42247,881.49261 -207,880.5625 C -206.57773,879.6326 -206.2738,878.41151 -206.0625,876.875 C -205.85143,875.3386 -205.75011,873.37653 -205.75,871.03125 C -205.75011,868.76707 -205.85143,866.8582 -206.0625,865.28125 C -206.2738,863.70442 -206.57773,862.46138 -207,861.53125 C -207.42247,860.60135 -207.96029,859.91363 -208.59375,859.46875 C -209.22741,859.02407 -209.92734,858.78137 -210.6875,858.78125 L -260.21875,858.78125 L -260.21875,820.46875 L -201.6875,820.46875 C -200.92734,820.46886 -200.24768,820.22613 -199.65625,819.78125 C -199.06504,819.33657 -198.54747,818.65803 -198.125,817.6875 C -197.70274,816.71717 -197.39879,815.4208 -197.1875,813.84375 C -196.97643,812.26692 -196.8751,810.35814 -196.875,808.09375 C -196.87511,805.66787 -196.97643,803.67078 -197.1875,802.09375 C -197.3988,800.51692 -197.70273,799.22976 -198.125,798.21875 C -198.54747,797.20799 -199.06504,796.49826 -199.65625,796.09375 C -200.24767,795.68961 -200.92733,795.46884 -201.6875,795.46875 L -283.53125,795.46875 z M 780.34375,795.46875 C 777.55608,795.46886 775.21312,796.26701 773.3125,797.84375 C 771.4118,799.4208 770.43746,801.97324 770.4375,805.53125 L 770.4375,942.375 C 770.43748,945.93314 771.41178,948.48554 773.3125,950.0625 C 775.21315,951.63944 777.55606,952.43748 780.34375,952.4375 L 862.6875,952.4375 C 863.44766,952.4375 864.14757,952.22607 864.78125,951.78125 C 865.4147,951.33645 865.95254,950.62672 866.375,949.65625 C 866.79725,948.68581 867.10118,947.42068 867.3125,945.84375 C 867.52357,944.26681 867.62487,942.28274 867.625,939.9375 C 867.62488,937.59236 867.52355,935.63947 867.3125,934.0625 C 867.1012,932.48556 866.79727,931.22043 866.375,930.25 C 865.95251,929.27956 865.41469,928.56978 864.78125,928.125 C 864.14759,927.68032 863.44767,927.43753 862.6875,927.4375 L 803.65625,927.4375 L 803.65625,883.1875 L 853.1875,883.1875 C 853.94767,883.18761 854.6476,882.96685 855.28125,882.5625 C 855.9147,882.15824 856.45249,881.49261 856.875,880.5625 C 857.29726,879.6326 857.60119,878.41151 857.8125,876.875 C 858.02358,875.3386 858.12488,873.37653 858.125,871.03125 C 858.12489,868.76707 858.02357,866.8582 857.8125,865.28125 C 857.6012,863.70442 857.29723,862.46138 856.875,861.53125 C 856.45251,860.60135 855.9147,859.91363 855.28125,859.46875 C 854.6476,859.02407 853.94769,858.78137 853.1875,858.78125 L 803.65625,858.78125 L 803.65625,820.46875 L 862.1875,820.46875 C 862.94766,820.46886 863.6273,820.22613 864.21875,819.78125 C 864.80996,819.33657 865.32752,818.65803 865.75,817.6875 C 866.17225,816.71717 866.47623,815.4208 866.6875,813.84375 C 866.89857,812.26692 866.99986,810.35814 867,808.09375 C 866.99988,805.66787 866.89859,803.67078 866.6875,802.09375 C 866.4762,800.51692 866.17226,799.22976 865.75,798.21875 C 865.32751,797.20799 864.80993,796.49826 864.21875,796.09375 C 863.62733,795.68961 862.94766,795.46884 862.1875,795.46875 L 780.34375,795.46875 z M 336.21875,825.4375 L 336.34375,825.4375 L 359.53125,892.15625 L 313.03125,892.15625 L 336.21875,825.4375 z M -74.65625,995.71875 C -77.127568,995.71884 -79.237862,995.99761 -81,996.53125 C -82.762155,997.06496 -84.204806,997.78137 -85.34375,998.6875 C -86.482705,999.59372 -87.337774,1000.6677 -87.875,1001.9063 C -88.412248,1003.1448 -88.687506,1004.4654 -88.6875,1005.875 C -88.687509,1006.5396 -88.588915,1007.2004 -88.40625,1007.875 C -88.223593,1008.5497 -87.938576,1009.2549 -87.5625,1010 C -87.186445,1010.7451 -86.725732,1011.5282 -86.15625,1012.3438 C -85.586787,1013.1594 -84.898633,1014.0424 -84.125,1014.9688 C -85.500339,1015.734 -86.707765,1016.5069 -87.75,1017.3125 C -88.792251,1018.1181 -89.665844,1018.9577 -90.375,1019.8438 C -91.084153,1020.7298 -91.614176,1021.6907 -91.96875,1022.6875 C -92.323331,1023.6843 -92.500002,1024.7473 -92.5,1025.875 C -92.5,1027.2041 -92.324317,1028.4024 -91.9375,1029.5 C -91.550693,1030.5976 -91.000166,1031.5816 -90.3125,1032.4375 C -89.62484,1033.2933 -88.810792,1034.032 -87.84375,1034.6563 C -86.876729,1035.2805 -85.796192,1035.8059 -84.625,1036.2188 C -83.453829,1036.6316 -82.20736,1036.9236 -80.875,1037.125 C -79.542656,1037.3263 -78.178089,1037.4375 -76.78125,1037.4375 C -75.362953,1037.4375 -74.02766,1037.3375 -72.78125,1037.1563 C -71.534878,1036.9751 -70.32746,1036.7173 -69.15625,1036.375 C -67.985098,1036.0326 -66.855764,1035.6072 -65.78125,1035.0938 C -64.706802,1034.5803 -63.666285,1034.0195 -62.65625,1033.375 C -61.49584,1034.1806 -60.474866,1034.8301 -59.59375,1035.3438 C -58.71272,1035.8572 -57.947463,1036.2503 -57.28125,1036.5625 C -56.615111,1036.8746 -56.036302,1037.108 -55.53125,1037.2188 C -55.026294,1037.3295 -54.535306,1037.375 -54.0625,1037.375 C -53.46083,1037.375 -52.929841,1037.3294 -52.5,1037.2188 C -52.070255,1037.108 -51.776455,1036.9747 -51.59375,1036.8438 C -51.411131,1036.7129 -51.262759,1036.5451 -51.1875,1036.3438 C -51.112327,1036.1423 -51.063521,1035.8291 -51.03125,1035.4063 C -50.999053,1034.9834 -51.000036,1034.4013 -51,1033.6563 C -51.000038,1032.9514 -51.029318,1032.4249 -51.09375,1032.0625 C -51.158257,1031.7 -51.246107,1031.4535 -51.375,1031.3125 C -51.503986,1031.1715 -51.67089,1031.0937 -51.875,1031.0938 C -52.079197,1031.0938 -52.294915,1031.0937 -52.53125,1031.0938 C -52.703212,1031.0938 -52.92966,1031.0494 -53.1875,1030.9688 C -53.445415,1030.8882 -53.769482,1030.7427 -54.15625,1030.5313 C -54.543104,1030.3198 -55.014556,1030.0499 -55.5625,1029.6875 C -56.110527,1029.325 -56.747897,1028.8562 -57.5,1028.3125 C -56.984283,1027.5674 -56.523579,1026.7621 -56.09375,1025.9063 C -55.663995,1025.0504 -55.29015,1024.1552 -55,1023.2188 C -54.709926,1022.2824 -54.49421,1021.3305 -54.34375,1020.3438 C -54.193356,1019.3569 -54.125038,1018.3729 -54.125,1017.4063 L -54.125,1016.4375 C -54.125038,1016.1757 -54.16309,1015.9524 -54.28125,1015.7813 C -54.399475,1015.6101 -54.616184,1015.4757 -54.90625,1015.375 C -55.1964,1015.2743 -55.599525,1015.2177 -56.09375,1015.1875 C -56.588049,1015.1574 -57.185398,1015.1563 -57.9375,1015.1563 C -58.732653,1015.1563 -59.401286,1015.1685 -59.90625,1015.2188 C -60.411291,1015.2691 -60.79392,1015.3369 -61.0625,1015.4375 C -61.331157,1015.5382 -61.507827,1015.6826 -61.59375,1015.8438 C -61.679741,1016.0049 -61.718789,1016.1848 -61.71875,1016.4063 L -61.71875,1017.3438 C -61.718788,1017.9277 -61.778334,1018.5208 -61.875,1019.125 C -61.971742,1019.7291 -62.088866,1020.3223 -62.25,1020.9063 C -62.411202,1021.4902 -62.618146,1022.039 -62.84375,1022.5625 C -63.06943,1023.0861 -63.314418,1023.566 -63.59375,1023.9688 C -64.324424,1023.3848 -65.070157,1022.7472 -65.84375,1022.0625 C -66.61741,1021.3778 -67.393394,1020.6947 -68.15625,1020 C -68.919159,1019.3053 -69.655127,1018.601 -70.375,1017.9063 C -71.094923,1017.2115 -71.763555,1016.5618 -72.34375,1015.9375 C -70.56014,1015.0716 -68.988625,1014.1996 -67.65625,1013.3438 C -66.323925,1012.4879 -65.204349,1011.6138 -64.3125,1010.6875 C -63.420709,1009.7611 -62.753071,1008.7771 -62.3125,1007.75 C -61.871994,1006.723 -61.656288,1005.6145 -61.65625,1004.4063 C -61.656288,1003.057 -61.921784,1001.8274 -62.4375,1000.75 C -62.953283,999.67268 -63.728298,998.7663 -64.78125,998.03125 C -65.834271,997.29622 -67.179314,996.71533 -68.8125,996.3125 C -70.445726,995.90977 -72.399862,995.71883 -74.65625,995.71875 z M 159.03125,997 C 155.72183,997 152.81603,997.45983 150.3125,998.40625 C 147.80896,999.35277 145.69767,1000.7278 144,1002.5 C 142.30231,1004.2721 141.01583,1006.4103 140.15625,1008.9375 C 139.29667,1011.4648 138.875,1014.3071 138.875,1017.4688 C 138.875,1020.9124 139.28788,1023.8891 140.09375,1026.4063 C 140.89961,1028.9235 142.10703,1030.9939 143.71875,1032.625 C 145.33046,1034.2562 147.33241,1035.4859 149.75,1036.2813 C 152.16756,1037.0767 155.00506,1037.4687 158.25,1037.4688 C 161.53788,1037.4688 164.43394,1036.9989 166.9375,1036.0625 C 169.44101,1035.1261 171.52104,1033.7822 173.21875,1032 C 174.91639,1030.2178 176.20288,1028.0263 177.0625,1025.4688 C 177.92205,1022.9112 178.3437,1020.0235 178.34375,1016.7813 C 178.3437,1013.3981 177.9523,1010.4558 177.125,1007.9688 C 176.29761,1005.4817 175.05991,1003.4125 173.4375,1001.7813 C 171.815,1000.1502 169.79255,998.94168 167.375,998.15625 C 164.9574,997.37084 162.19019,997 159.03125,997 z M 664.65625,997 C 662.74366,997 660.92718,997.22434 659.21875,997.6875 C 657.51031,998.15068 656.00711,998.8448 654.75,999.78125 C 653.49286,1000.7177 652.52262,1001.8928 651.78125,1003.3125 C 651.03985,1004.7323 650.65627,1006.3772 650.65625,1008.25 C 650.65625,1009.8812 650.92177,1011.3008 651.4375,1012.4688 C 651.95325,1013.6367 652.61017,1014.6442 653.4375,1015.5 C 654.26484,1016.3559 655.19698,1017.0734 656.25,1017.6875 C 657.30297,1018.3017 658.41381,1018.8605 659.53125,1019.3438 C 660.6487,1019.8271 661.72827,1020.2858 662.78125,1020.7188 C 663.83422,1021.1517 664.76636,1021.6004 665.59375,1022.0938 C 666.42108,1022.5871 667.10921,1023.1782 667.625,1023.8125 C 668.14073,1024.4469 668.37496,1025.2077 668.375,1026.0938 C 668.37498,1026.859 668.23832,1027.5319 667.9375,1028.1563 C 667.63663,1028.7805 667.19444,1029.3271 666.625,1029.75 C 666.05551,1030.173 665.37905,1030.4871 664.5625,1030.7188 C 663.74587,1030.9503 662.81276,1031.0625 661.78125,1031.0625 C 660.2125,1031.0625 658.81766,1030.8947 657.625,1030.5625 C 656.43232,1030.2302 655.42206,1029.8716 654.5625,1029.4688 C 653.70292,1029.066 652.9855,1028.7073 652.4375,1028.375 C 651.88951,1028.0427 651.45712,1027.875 651.15625,1027.875 C 650.94136,1027.875 650.75493,1027.9205 650.59375,1028.0313 C 650.43258,1028.142 650.31542,1028.332 650.21875,1028.5938 C 650.12205,1028.8555 650.04297,1029.2022 650,1029.625 C 649.95701,1030.0479 649.93746,1030.5631 649.9375,1031.1875 C 649.93749,1032.1138 650.00682,1032.8191 650.125,1033.3125 C 650.2432,1033.8059 650.43935,1034.1756 650.71875,1034.4375 C 650.99811,1034.6993 651.4598,1035.0014 652.09375,1035.3438 C 652.72768,1035.686 653.52322,1036.0317 654.46875,1036.3438 C 655.41429,1036.6559 656.48311,1036.9035 657.71875,1037.125 C 658.95439,1037.3465 660.31021,1037.4687 661.75,1037.4688 C 663.87745,1037.4688 665.88039,1037.2111 667.75,1036.6875 C 669.61957,1036.1639 671.22812,1035.3809 672.625,1034.3438 C 674.02179,1033.3066 675.1521,1032.0194 675.96875,1030.4688 C 676.78533,1028.9182 677.18744,1027.1165 677.1875,1025.0625 C 677.18747,1023.4918 676.922,1022.1267 676.40625,1020.9688 C 675.89048,1019.8108 675.21309,1018.7934 674.375,1017.9375 C 673.53688,1017.0817 672.57445,1016.333 671.5,1015.7188 C 670.4255,1015.1046 669.33618,1014.5771 668.21875,1014.0938 C 667.10127,1013.6104 666.01195,1013.1517 664.9375,1012.7188 C 663.863,1012.2858 662.9113,1011.8059 662.0625,1011.3125 C 661.21365,1010.8192 660.53627,1010.2594 660.03125,1009.625 C 659.52623,1008.9906 659.24995,1008.2409 659.25,1007.375 C 659.24998,1006.791 659.36808,1006.2424 659.59375,1005.7188 C 659.81938,1005.1952 660.16295,1004.7476 660.625,1004.375 C 661.08702,1004.0025 661.65605,1003.7115 662.34375,1003.5 C 663.0314,1003.2886 663.8572,1003.1875 664.78125,1003.1875 C 665.96316,1003.1875 667.04272,1003.3219 668.03125,1003.5938 C 669.01975,1003.8657 669.90407,1004.1678 670.65625,1004.5 C 671.40836,1004.8323 672.01549,1005.1243 672.53125,1005.4063 C 673.04698,1005.6882 673.41982,1005.8438 673.65625,1005.8438 C 673.89261,1005.8438 674.11028,1005.7772 674.25,1005.6563 C 674.38966,1005.5354 674.48727,1005.3556 674.5625,1005.0938 C 674.63768,1004.832 674.68648,1004.4965 674.71875,1004.0938 C 674.75096,1003.691 674.78122,1003.1777 674.78125,1002.5938 C 674.78122,1002.0702 674.77145,1001.6337 674.75,1001.2813 C 674.72848,1000.9288 674.67873,1000.6379 674.625,1000.4063 C 674.57124,1000.1747 674.51266,1000.0161 674.4375,999.875 C 674.36226,999.73413 674.21486,999.54515 674,999.34375 C 673.78508,999.14234 673.32238,998.89581 672.65625,998.59375 C 671.99004,998.29168 671.23453,998.02293 670.375,997.78125 C 669.5154,997.53963 668.61347,997.32858 667.625,997.1875 C 666.63646,997.04654 665.64474,997 664.65625,997 z M 567.8125,997.03125 C 564.52457,997.03134 561.55044,997.49109 558.875,998.4375 C 556.19953,999.38402 553.92232,1000.7491 552.03125,1002.5313 C 550.14016,1004.3135 548.65647,1006.4838 547.625,1009.0313 C 546.5935,1011.5787 546.09378,1014.4543 546.09375,1017.6563 C 546.09375,1020.7575 546.56423,1023.522 547.53125,1025.9688 C 548.49827,1028.4155 549.89212,1030.4858 551.71875,1032.1875 C 553.54536,1033.8891 555.77379,1035.1976 558.40625,1036.0938 C 561.03871,1036.9899 564.04408,1037.4375 567.375,1037.4375 C 568.51392,1037.4375 569.6218,1037.3819 570.75,1037.2813 C 571.87818,1037.1805 573.01824,1037.045 574.125,1036.8438 C 575.23168,1036.6423 576.28099,1036.3758 577.3125,1036.0938 C 578.34396,1035.8118 579.20779,1035.543 579.90625,1035.2813 C 580.60462,1035.0195 581.08683,1034.6719 581.3125,1034.2188 C 581.5381,1033.7656 581.65618,1033.2292 581.65625,1032.625 L 581.65625,1017.0625 C 581.65621,1016.6598 581.57615,1016.3122 581.46875,1016 C 581.36127,1015.6879 581.20412,1015.4403 581,1015.2188 C 580.79581,1014.9973 580.58109,1014.8296 580.3125,1014.7188 C 580.04384,1014.608 579.71877,1014.5313 579.375,1014.5313 L 565.3125,1014.5313 C 565.11907,1014.5313 564.93163,1014.608 564.78125,1014.7188 C 564.6308,1014.8296 564.51369,1014.9872 564.40625,1015.2188 C 564.29878,1015.4504 564.20996,1015.7737 564.15625,1016.1563 C 564.1025,1016.5388 564.06247,1016.9987 564.0625,1017.5625 C 564.06248,1018.65 564.19134,1019.4219 564.40625,1019.875 C 564.62112,1020.3281 564.92565,1020.5625 565.3125,1020.5625 L 573.1875,1020.5625 L 573.1875,1029.625 C 572.39236,1030.0278 571.54901,1030.3299 570.625,1030.5313 C 569.70092,1030.7327 568.758,1030.8125 567.8125,1030.8125 C 565.87842,1030.8125 564.10093,1030.5214 562.5,1029.9375 C 560.89901,1029.3535 559.5452,1028.4917 558.40625,1027.3438 C 557.2673,1026.1959 556.38392,1024.7642 555.75,1023.0625 C 555.11605,1021.3609 554.78124,1019.3916 554.78125,1017.1563 C 554.78124,1015.1223 555.09552,1013.2753 555.71875,1011.5938 C 556.34193,1009.9123 557.24582,1008.4795 558.40625,1007.2813 C 559.56668,1006.0831 560.96052,1005.1545 562.59375,1004.5 C 564.22694,1003.8456 566.04244,1003.5 568.0625,1003.5 C 569.95356,1003.5 571.63344,1003.7001 573.0625,1004.0625 C 574.49153,1004.425 575.71847,1004.8271 576.75,1005.25 C 577.78146,1005.673 578.59551,1006.0438 579.21875,1006.4063 C 579.84191,1006.7688 580.28312,1006.9688 580.5625,1006.9688 C 580.75587,1006.9688 580.9228,1006.9132 581.0625,1006.8125 C 581.20215,1006.7118 581.34074,1006.5331 581.4375,1006.2813 C 581.53417,1006.0296 581.60246,1005.7041 581.65625,1005.2813 C 581.70993,1004.8584 581.74996,1004.334 581.75,1003.75 C 581.74996,1002.7431 581.66016,1001.9823 581.53125,1001.4688 C 581.40227,1000.9553 581.1963,1000.5633 580.90625,1000.2813 C 580.6161,999.99942 580.10558,999.66394 579.375,999.28125 C 578.64432,998.89867 577.73165,998.55103 576.625,998.21875 C 575.51825,997.88654 574.23277,997.60661 572.75,997.375 C 571.26719,997.14345 569.61758,997.03132 567.8125,997.03125 z M 239.9375,997.0625 C 237.07937,997.06259 234.43708,997.50013 232.0625,998.40625 C 229.68789,999.31247 227.66642,1000.6543 225.96875,1002.4063 C 224.27107,1004.1583 222.94554,1006.3287 222,1008.9063 C 221.05446,1011.4839 220.59374,1014.4273 220.59375,1017.75 C 220.59375,1021.0123 221.01541,1023.8557 221.875,1026.3125 C 222.73458,1028.7694 223.98202,1030.8275 225.59375,1032.4688 C 227.20546,1034.11 229.1381,1035.3307 231.4375,1036.1563 C 233.73687,1036.982 236.32936,1037.4063 239.1875,1037.4063 C 240.64877,1037.4063 241.99284,1037.284 243.25,1037.0625 C 244.50711,1036.8409 245.64719,1036.5823 246.625,1036.25 C 247.60275,1035.9177 248.4168,1035.5499 249.09375,1035.1875 C 249.77064,1034.825 250.23233,1034.5441 250.46875,1034.3125 C 250.7051,1034.0809 250.86127,1033.8688 250.96875,1033.6875 C 251.07617,1033.5062 251.1855,1033.2829 251.25,1033.0313 C 251.31444,1032.7796 251.34274,1032.4774 251.375,1032.125 C 251.4072,1031.7726 251.43747,1031.3472 251.4375,1030.8438 C 251.43747,1030.1188 251.41795,1029.5581 251.375,1029.125 C 251.33199,1028.692 251.27342,1028.3354 251.1875,1028.0938 C 251.10151,1027.8521 250.97265,1027.7055 250.84375,1027.625 C 250.71478,1027.5444 250.55861,1027.5 250.34375,1027.5 C 250.06435,1027.5 249.66122,1027.6465 249.15625,1027.9688 C 248.65121,1028.291 248.00309,1028.6598 247.21875,1029.0625 C 246.43435,1029.4652 245.50218,1029.8553 244.40625,1030.1875 C 243.31026,1030.5198 242.00424,1030.6563 240.5,1030.6563 C 238.84528,1030.6563 237.35284,1030.4087 236.03125,1029.875 C 234.70962,1029.3414 233.59103,1028.525 232.65625,1027.4375 C 231.72144,1026.35 231.00499,1024.9628 230.5,1023.2813 C 229.99498,1021.5997 229.74999,1019.6082 229.75,1017.3125 C 229.74999,1015.2181 229.96472,1013.3277 230.4375,1011.6563 C 230.91026,1009.9848 231.61793,1008.5843 232.53125,1007.4063 C 233.44454,1006.2282 234.54361,1005.3219 235.84375,1004.6875 C 237.14385,1004.0531 238.62653,1003.7188 240.28125,1003.7188 C 241.7855,1003.7188 243.071,1003.8975 244.15625,1004.25 C 245.24145,1004.6024 246.18436,1005.0046 246.96875,1005.4375 C 247.75309,1005.8705 248.3807,1006.2726 248.875,1006.625 C 249.36923,1006.9774 249.80263,1007.1251 250.125,1007.125 C 250.31837,1007.1251 250.47454,1007.0897 250.625,1006.9688 C 250.77539,1006.848 250.89253,1006.6369 251,1006.375 C 251.10741,1006.1132 251.20699,1005.7667 251.25,1005.3438 C 251.29295,1004.9209 251.31247,1004.4166 251.3125,1003.8125 C 251.31247,1003.2487 251.2822,1002.7889 251.25,1002.4063 C 251.21773,1002.0237 251.18943,1001.6882 251.125,1001.4063 C 251.0605,1001.1243 250.95116,1000.9 250.84375,1000.7188 C 250.73627,1000.5375 250.54008,1000.3032 250.25,1000.0313 C 249.95986,999.7594 249.44937,999.4139 248.71875,999.03125 C 247.98807,998.64867 247.16328,998.32327 246.25,998.03125 C 245.33667,997.73925 244.3557,997.49384 243.28125,997.3125 C 242.20675,997.13133 241.09792,997.06258 239.9375,997.0625 z M 405.625,997.0625 C 402.76687,997.06259 400.12459,997.50013 397.75,998.40625 C 395.3754,999.31247 393.3539,1000.6543 391.65625,1002.4063 C 389.95856,1004.1583 388.63304,1006.3287 387.6875,1008.9063 C 386.74195,1011.4839 386.28124,1014.4273 386.28125,1017.75 C 386.28125,1021.0123 386.70292,1023.8557 387.5625,1026.3125 C 388.42208,1028.7694 389.63829,1030.8275 391.25,1032.4688 C 392.86171,1034.11 394.8256,1035.3307 397.125,1036.1563 C 399.42437,1036.982 402.01688,1037.4063 404.875,1037.4063 C 406.33627,1037.4063 407.68033,1037.284 408.9375,1037.0625 C 410.19461,1036.8409 411.33471,1036.5823 412.3125,1036.25 C 413.29024,1035.9177 414.1043,1035.5499 414.78125,1035.1875 C 415.45814,1034.825 415.91983,1034.5441 416.15625,1034.3125 C 416.39261,1034.0809 416.54877,1033.8688 416.65625,1033.6875 C 416.76367,1033.5062 416.873,1033.2829 416.9375,1033.0313 C 417.00193,1032.7796 417.03024,1032.4774 417.0625,1032.125 C 417.09471,1031.7726 417.12496,1031.3472 417.125,1030.8438 C 417.12497,1030.1188 417.10545,1029.5581 417.0625,1029.125 C 417.0195,1028.692 416.96092,1028.3354 416.875,1028.0938 C 416.78901,1027.8521 416.66015,1027.7055 416.53125,1027.625 C 416.40228,1027.5444 416.24611,1027.5 416.03125,1027.5 C 415.75186,1027.5 415.34871,1027.6465 414.84375,1027.9688 C 414.33871,1028.291 413.6906,1028.6598 412.90625,1029.0625 C 412.12186,1029.4652 411.18969,1029.8553 410.09375,1030.1875 C 408.99776,1030.5198 407.69175,1030.6563 406.1875,1030.6563 C 404.53278,1030.6563 403.04036,1030.4087 401.71875,1029.875 C 400.39713,1029.3414 399.27852,1028.525 398.34375,1027.4375 C 397.40894,1026.35 396.69247,1024.9628 396.1875,1023.2813 C 395.68248,1021.5997 395.4375,1019.6082 395.4375,1017.3125 C 395.43749,1015.2181 395.65222,1013.3277 396.125,1011.6563 C 396.59776,1009.9848 397.30542,1008.5843 398.21875,1007.4063 C 399.13204,1006.2282 400.23112,1005.3219 401.53125,1004.6875 C 402.83136,1004.0531 404.31403,1003.7188 405.96875,1003.7188 C 407.473,1003.7188 408.7585,1003.8975 409.84375,1004.25 C 410.92895,1004.6024 411.87186,1005.0046 412.65625,1005.4375 C 413.44059,1005.8705 414.06822,1006.2726 414.5625,1006.625 C 415.05672,1006.9774 415.45888,1007.1251 415.78125,1007.125 C 415.97462,1007.1251 416.16205,1007.0897 416.3125,1006.9688 C 416.46289,1006.848 416.58003,1006.6369 416.6875,1006.375 C 416.79492,1006.1132 416.89449,1005.7667 416.9375,1005.3438 C 416.98044,1004.9209 416.99996,1004.4166 417,1003.8125 C 416.99996,1003.2487 416.96971,1002.7889 416.9375,1002.4063 C 416.90523,1002.0237 416.84569,1001.6882 416.78125,1001.4063 C 416.71674,1001.1243 416.63867,1000.9 416.53125,1000.7188 C 416.42377,1000.5375 416.22759,1000.3032 415.9375,1000.0313 C 415.64735,999.7594 415.13687,999.4139 414.40625,999.03125 C 413.67558,998.64867 412.8508,998.32327 411.9375,998.03125 C 411.02417,997.73925 410.0432,997.49384 408.96875,997.3125 C 407.89425,997.13133 406.78542,997.06258 405.625,997.0625 z M 827.09375,997.0625 C 824.23562,997.06259 821.62459,997.50013 819.25,998.40625 C 816.87539,999.31247 814.85391,1000.6543 813.15625,1002.4063 C 811.45857,1004.1583 810.13305,1006.3287 809.1875,1008.9063 C 808.24196,1011.4839 807.78122,1014.4273 807.78125,1017.75 C 807.78124,1021.0123 808.20289,1023.8557 809.0625,1026.3125 C 809.92208,1028.7694 811.1383,1030.8275 812.75,1032.4688 C 814.3617,1034.11 816.32559,1035.3307 818.625,1036.1563 C 820.92437,1036.982 823.51689,1037.4063 826.375,1037.4063 C 827.83626,1037.4063 829.18031,1037.284 830.4375,1037.0625 C 831.69461,1036.8409 832.80344,1036.5823 833.78125,1036.25 C 834.759,1035.9177 835.60428,1035.5499 836.28125,1035.1875 C 836.95814,1034.825 837.41984,1034.5441 837.65625,1034.3125 C 837.8926,1034.0809 838.04878,1033.8688 838.15625,1033.6875 C 838.26367,1033.5062 838.34176,1033.2829 838.40625,1033.0313 C 838.47068,1032.7796 838.53022,1032.4774 838.5625,1032.125 C 838.5947,1031.7726 838.62496,1031.3472 838.625,1030.8438 C 838.62496,1030.1188 838.60543,1029.5581 838.5625,1029.125 C 838.51949,1028.692 838.42967,1028.3354 838.34375,1028.0938 C 838.25776,1027.8521 838.16014,1027.7055 838.03125,1027.625 C 837.90228,1027.5444 837.74609,1027.5 837.53125,1027.5 C 837.25185,1027.5 836.84872,1027.6465 836.34375,1027.9688 C 835.83872,1028.291 835.19061,1028.6598 834.40625,1029.0625 C 833.62185,1029.4652 832.6897,1029.8553 831.59375,1030.1875 C 830.49775,1030.5198 829.19172,1030.6563 827.6875,1030.6563 C 826.03278,1030.6563 824.54033,1030.4087 823.21875,1029.875 C 821.89712,1029.3414 820.77856,1028.525 819.84375,1027.4375 C 818.90894,1026.35 818.19249,1024.9628 817.6875,1023.2813 C 817.18249,1021.5997 816.90624,1019.6082 816.90625,1017.3125 C 816.90624,1015.2181 817.1522,1013.3277 817.625,1011.6563 C 818.09776,1009.9848 818.80543,1008.5843 819.71875,1007.4063 C 820.63204,1006.2282 821.73112,1005.3219 823.03125,1004.6875 C 824.33135,1004.0531 825.81402,1003.7188 827.46875,1003.7188 C 828.97299,1003.7188 830.25851,1003.8975 831.34375,1004.25 C 832.42895,1004.6024 833.37187,1005.0046 834.15625,1005.4375 C 834.9406,1005.8705 835.5682,1006.2726 836.0625,1006.625 C 836.55673,1006.9774 836.95886,1007.1251 837.28125,1007.125 C 837.47462,1007.1251 837.66203,1007.0897 837.8125,1006.9688 C 837.96289,1006.848 838.08003,1006.6369 838.1875,1006.375 C 838.29492,1006.1132 838.36325,1005.7667 838.40625,1005.3438 C 838.4492,1004.9209 838.49999,1004.4166 838.5,1003.8125 C 838.49996,1003.2487 838.46971,1002.7889 838.4375,1002.4063 C 838.40523,1002.0237 838.34566,1001.6882 838.28125,1001.4063 C 838.21675,1001.1243 838.13864,1000.9 838.03125,1000.7188 C 837.92378,1000.5375 837.72759,1000.3032 837.4375,1000.0313 C 837.14736,999.7594 836.63688,999.4139 835.90625,999.03125 C 835.17558,998.64867 834.3508,998.32327 833.4375,998.03125 C 832.52416,997.73925 831.54318,997.49384 830.46875,997.3125 C 829.39425,997.13133 828.25418,997.06258 827.09375,997.0625 z M -274.5625,997.5 C -275.65849,997.50009 -276.55257,997.5323 -277.21875,997.5625 C -277.88494,997.59272 -278.40519,997.63935 -278.78125,997.75 C -279.15733,997.86082 -279.42186,998.0386 -279.59375,998.25 C -279.76568,998.46149 -279.93357,998.72012 -280.0625,999.0625 L -292.90625,1033.75 C -293.16413,1034.4549 -293.34178,1035.0147 -293.40625,1035.4375 C -293.47072,1035.8604 -293.37115,1036.2059 -293.15625,1036.4375 C -292.94136,1036.6691 -292.55872,1036.8146 -292,1036.875 C -291.44128,1036.9354 -290.67603,1036.9688 -289.6875,1036.9688 C -288.76346,1036.9688 -288.00697,1036.9466 -287.4375,1036.9063 C -286.86803,1036.866 -286.43661,1036.7669 -286.125,1036.6563 C -285.8134,1036.5454 -285.57719,1036.41 -285.4375,1036.2188 C -285.29782,1036.0274 -285.17972,1035.7819 -285.09375,1035.5 L -282.46875,1027.875 L -266.8125,1027.875 L -264,1035.7188 C -263.91408,1035.9805 -263.81647,1036.1827 -263.6875,1036.3438 C -263.55859,1036.5049 -263.32236,1036.6282 -263,1036.7188 C -262.67769,1036.8094 -262.20622,1036.876 -261.59375,1036.9063 C -260.98133,1036.9365 -260.12726,1036.9688 -259.03125,1036.9688 C -257.9783,1036.9688 -257.16423,1036.9254 -256.5625,1036.875 C -255.96083,1036.8247 -255.51767,1036.7115 -255.28125,1036.5 C -255.0449,1036.2885 -254.96682,1035.9541 -255.03125,1035.5313 C -255.09576,1035.1084 -255.27341,1034.5374 -255.53125,1033.8125 L -268.40625,999.15625 C -268.53522,998.77367 -268.69238,998.47153 -268.875,998.25 C -269.05769,998.02853 -269.36221,997.86082 -269.78125,997.75 C -270.20032,997.63935 -270.77915,997.59275 -271.53125,997.5625 C -272.28341,997.53228 -273.29465,997.50007 -274.5625,997.5 z M -154.34375,997.5 C -155.52568,997.50009 -156.42757,997.54335 -157.09375,997.59375 C -157.75993,997.64412 -158.22161,997.75735 -158.46875,997.96875 C -158.71588,998.18024 -158.77445,998.49342 -158.65625,998.90625 C -158.53806,999.31906 -158.28331,999.91112 -157.875,1000.6563 L -146.46875,1021.9375 L -146.46875,1035.6875 C -146.46877,1035.8889 -146.4102,1036.0576 -146.28125,1036.2188 C -146.15233,1036.3799 -145.92686,1036.5244 -145.59375,1036.625 C -145.26068,1036.7257 -144.81851,1036.8146 -144.28125,1036.875 C -143.74403,1036.9354 -143.05687,1036.9688 -142.21875,1036.9688 C -141.40217,1036.9688 -140.70426,1036.9354 -140.15625,1036.875 C -139.60829,1036.8146 -139.19735,1036.7257 -138.875,1036.625 C -138.55267,1036.5243 -138.29596,1036.3798 -138.15625,1036.2188 C -138.01659,1036.0576 -137.96878,1035.8889 -137.96875,1035.6875 L -137.96875,1021.9375 L -126.5625,1000.6563 C -126.17571,999.93129 -125.91023,999.3604 -125.78125,998.9375 C -125.65235,998.51462 -125.6904,998.18023 -125.9375,997.96875 C -126.18466,997.75735 -126.66686,997.6441 -127.34375,997.59375 C -128.0207,997.54338 -128.96262,997.50007 -130.1875,997.5 C -131.11158,997.50009 -131.84755,997.5222 -132.40625,997.5625 C -132.965,997.6028 -133.42769,997.69168 -133.75,997.8125 C -134.07237,997.9334 -134.3076,998.09001 -134.46875,998.28125 C -134.62994,998.47259 -134.76758,998.709 -134.875,999.03125 L -139.4375,1008.5938 C -139.84582,1009.5201 -140.25772,1010.5042 -140.6875,1011.5313 C -141.11731,1012.5583 -141.56046,1013.6001 -141.96875,1014.6875 L -142.03125,1014.6875 C -142.48254,1013.5598 -142.90323,1012.4959 -143.34375,1011.4688 C -143.7843,1010.4417 -144.23623,1009.4576 -144.6875,1008.5313 L -149.34375,998.9375 C -149.49419,998.65558 -149.65134,998.40003 -149.8125,998.21875 C -149.97368,998.03758 -150.21868,997.89209 -150.5625,997.78125 C -150.90635,997.67051 -151.3778,997.6028 -151.96875,997.5625 C -152.55972,997.5222 -153.35524,997.50007 -154.34375,997.5 z M 0.96875,997.5 C -0.12723795,997.50009 -0.99008272,997.5323 -1.65625,997.5625 C -2.3224362,997.59272 -2.8739447,997.63935 -3.25,997.75 C -3.6260836,997.86082 -3.890604,998.0386 -4.0625,998.25 C -4.2344339,998.46149 -4.3710804,998.72012 -4.5,999.0625 L -17.375,1033.75 C -17.632877,1034.4549 -17.77928,1035.0147 -17.84375,1035.4375 C -17.908219,1035.8604 -17.839901,1036.2059 -17.625,1036.4375 C -17.410109,1036.6691 -17.027481,1036.8146 -16.46875,1036.875 C -15.910028,1036.9354 -15.144774,1036.9688 -14.15625,1036.9688 C -13.232196,1036.9688 -12.475722,1036.9466 -11.90625,1036.9063 C -11.336777,1036.866 -10.905355,1036.7669 -10.59375,1036.6563 C -10.282164,1036.5454 -10.04594,1036.41 -9.90625,1036.2188 C -9.7665696,1036.0274 -9.6484714,1035.7819 -9.5625,1035.5 L -6.9375,1027.875 L 8.75,1027.875 L 11.53125,1035.7188 C 11.617175,1035.9805 11.746033,1036.1827 11.875,1036.3438 C 12.00391,1036.5049 12.208875,1036.6282 12.53125,1036.7188 C 12.853559,1036.8094 13.325013,1036.876 13.9375,1036.9063 C 14.549921,1036.9365 15.403993,1036.9688 16.5,1036.9688 C 17.552955,1036.9688 18.398255,1036.9254 19,1036.875 C 19.60167,1036.8247 20.013578,1036.7115 20.25,1036.5 C 20.486347,1036.2885 20.564431,1035.9541 20.5,1035.5313 C 20.435493,1035.1084 20.28909,1034.5374 20.03125,1033.8125 L 7.125,999.15625 C 6.9960331,998.77367 6.838888,998.47153 6.65625,998.25 C 6.4735649,998.02853 6.1690224,997.86082 5.75,997.75 C 5.3309305,997.63935 4.7521107,997.59275 4,997.5625 C 3.2478422,997.53228 2.2366153,997.50007 0.96875,997.5 z M 30.09375,997.5 C 29.277132,997.50009 28.599729,997.53338 28.0625,997.59375 C 27.525252,997.6542 27.083079,997.74309 26.75,997.84375 C 26.416902,997.9445 26.17092,998.05775 26.03125,998.21875 C 25.89156,998.37995 25.81249,998.57982 25.8125,998.78125 L 25.8125,1035.6875 C 25.812491,1035.8889 25.891559,1036.0576 26.03125,1036.2188 C 26.170921,1036.3799 26.396403,1036.5244 26.71875,1036.625 C 27.041087,1036.7257 27.483251,1036.8146 28.03125,1036.875 C 28.57922,1036.9354 29.277132,1036.9688 30.09375,1036.9688 C 30.931832,1036.9688 31.618992,1036.9354 32.15625,1036.875 C 32.693479,1036.8146 33.115143,1036.7257 33.4375,1036.625 C 33.759837,1036.5243 33.985302,1036.3798 34.125,1036.2188 C 34.264662,1036.0576 34.34374,1035.8889 34.34375,1035.6875 L 34.34375,998.78125 C 34.343741,998.57984 34.264663,998.37997 34.125,998.21875 C 33.985301,998.05773 33.759836,997.9445 33.4375,997.84375 C 33.115144,997.74309 32.693478,997.65419 32.15625,997.59375 C 31.618993,997.53339 30.931832,997.50007 30.09375,997.5 z M 353.71875,997.5 C 352.49384,997.50009 351.54117,997.54335 350.875,997.59375 C 350.20882,997.64412 349.74713,997.75735 349.5,997.96875 C 349.25287,998.18024 349.20406,998.50465 349.34375,998.9375 C 349.48343,999.37055 349.73819,999.96253 350.125,1000.6875 L 359.40625,1016.7188 L 349.4375,1033.7813 C 349.0292,1034.4861 348.75394,1035.0459 348.625,1035.4688 C 348.49606,1035.8916 348.53511,1036.2161 348.75,1036.4375 C 348.96489,1036.6591 349.38755,1036.8146 350,1036.875 C 350.61245,1036.9354 351.47628,1036.9688 352.59375,1036.9688 C 353.56077,1036.9688 354.31528,1036.9466 354.90625,1036.9063 C 355.49721,1036.866 355.97941,1036.7781 356.3125,1036.6875 C 356.64558,1036.5968 356.88081,1036.4736 357.03125,1036.3125 C 357.18167,1036.1514 357.30856,1035.9604 357.4375,1035.7188 L 365.25,1021.5938 L 373.09375,1035.7188 C 373.20117,1035.9604 373.31831,1036.1513 373.46875,1036.3125 C 373.61915,1036.4736 373.85439,1036.5969 374.1875,1036.6875 C 374.52056,1036.7781 374.98225,1036.866 375.5625,1036.9063 C 376.14269,1036.9465 376.92746,1036.9688 377.9375,1036.9688 C 379.14088,1036.9688 380.1043,1036.9354 380.78125,1036.875 C 381.45813,1036.8146 381.9296,1036.6591 382.1875,1036.4375 C 382.44534,1036.216 382.49316,1035.8916 382.375,1035.4688 C 382.25677,1035.0459 382.01178,1034.4861 381.625,1033.7813 L 371.71875,1016.625 L 381,1000.6875 C 381.36529,999.96254 381.63177,999.39172 381.75,998.96875 C 381.86816,998.54595 381.79883,998.22153 381.5625,998 C 381.32608,997.77853 380.90442,997.6441 380.28125,997.59375 C 379.65802,997.54338 378.7932,997.50007 377.71875,997.5 C 376.75169,997.50009 376.01671,997.5222 375.46875,997.5625 C 374.92074,997.6028 374.46782,997.65941 374.15625,997.75 C 373.84462,997.84067 373.63967,997.9639 373.5,998.125 C 373.36029,998.28611 373.22267,998.5084 373.09375,998.75 L 365.96875,1011.6563 L 358.65625,998.75 C 358.5273,998.50838 358.38966,998.28612 358.25,998.125 C 358.11031,997.96389 357.87507,997.84067 357.53125,997.75 C 357.18741,997.65941 356.71594,997.6028 356.125,997.5625 C 355.53403,997.5222 354.72874,997.50007 353.71875,997.5 z M 427.46875,997.5 C 426.65214,997.50009 425.95424,997.53338 425.40625,997.59375 C 424.85826,997.6542 424.44735,997.74309 424.125,997.84375 C 423.80264,997.9445 423.54592,998.05775 423.40625,998.21875 C 423.26657,998.37995 423.21874,998.57982 423.21875,998.78125 L 423.21875,1035.6875 C 423.21875,1035.8889 423.26656,1036.0576 423.40625,1036.2188 C 423.54593,1036.3799 423.80265,1036.5244 424.125,1036.625 C 424.44734,1036.7257 424.85827,1036.8146 425.40625,1036.875 C 425.95423,1036.9354 426.65213,1036.9688 427.46875,1036.9688 C 428.30684,1036.9688 428.994,1036.9354 429.53125,1036.875 C 430.06848,1036.8146 430.49015,1036.7257 430.8125,1036.625 C 431.13483,1036.5243 431.37104,1036.3798 431.5,1036.2188 C 431.62893,1036.0576 431.6875,1035.8889 431.6875,1035.6875 L 431.6875,1019.875 L 447.28125,1019.875 L 447.28125,1035.6875 C 447.28122,1035.8889 447.36028,1036.0576 447.5,1036.2188 C 447.63965,1036.3799 447.87588,1036.5244 448.1875,1036.625 C 448.49907,1036.7257 448.92074,1036.8146 449.46875,1036.875 C 450.0167,1036.9354 450.69311,1036.9688 451.53125,1036.9688 C 452.34782,1036.9688 453.02522,1036.9354 453.5625,1036.875 C 454.0997,1036.8146 454.55262,1036.7257 454.875,1036.625 C 455.19731,1036.5243 455.42277,1036.3798 455.5625,1036.2188 C 455.70214,1036.0576 455.78122,1035.8889 455.78125,1035.6875 L 455.78125,998.78125 C 455.78121,998.57984 455.70213,998.37997 455.5625,998.21875 C 455.42278,998.05773 455.19732,997.9445 454.875,997.84375 C 454.55262,997.74309 454.0997,997.65419 453.5625,997.59375 C 453.02522,997.53339 452.34781,997.50007 451.53125,997.5 C 450.69312,997.50009 450.01671,997.53338 449.46875,997.59375 C 448.92073,997.6542 448.49907,997.74309 448.1875,997.84375 C 447.87588,997.9445 447.63964,998.05775 447.5,998.21875 C 447.36029,998.37995 447.28122,998.57982 447.28125,998.78125 L 447.28125,1013.125 L 431.6875,1013.125 L 431.6875,998.78125 C 431.68749,998.57984 431.62892,998.37997 431.5,998.21875 C 431.37105,998.05773 431.13484,997.9445 430.8125,997.84375 C 430.49014,997.74309 430.06848,997.65419 429.53125,997.59375 C 428.994,997.53339 428.30683,997.50007 427.46875,997.5 z M 479.96875,997.5 C 478.87277,997.50009 478.00992,997.5323 477.34375,997.5625 C 476.67755,997.59272 476.1573,997.63935 475.78125,997.75 C 475.40517,997.86082 475.10942,998.0386 474.9375,998.25 C 474.76558,998.46149 474.62892,998.72012 474.5,999.0625 L 461.625,1033.75 C 461.36712,1034.4549 461.22072,1035.0147 461.15625,1035.4375 C 461.09178,1035.8604 461.1601,1036.2059 461.375,1036.4375 C 461.5899,1036.6691 461.97252,1036.8146 462.53125,1036.875 C 463.08998,1036.9354 463.85524,1036.9688 464.84375,1036.9688 C 465.76779,1036.9688 466.52427,1036.9466 467.09375,1036.9063 C 467.66321,1036.866 468.09463,1036.7669 468.40625,1036.6563 C 468.71784,1036.5454 468.95406,1036.41 469.09375,1036.2188 C 469.23342,1036.0274 469.35152,1035.7819 469.4375,1035.5 L 472.0625,1027.875 L 487.75,1027.875 L 490.5625,1035.7188 C 490.64843,1035.9805 490.74603,1036.1827 490.875,1036.3438 C 491.0039,1036.5049 491.20888,1036.6282 491.53125,1036.7188 C 491.85357,1036.8094 492.32502,1036.876 492.9375,1036.9063 C 493.54992,1036.9365 494.40399,1036.9688 495.5,1036.9688 C 496.55295,1036.9688 497.39827,1036.9254 498,1036.875 C 498.60167,1036.8247 499.01359,1036.7115 499.25,1036.5 C 499.48635,1036.2885 499.56441,1035.9541 499.5,1035.5313 C 499.43548,1035.1084 499.28908,1034.5374 499.03125,1033.8125 L 486.125,999.15625 C 485.99604,998.77367 485.83887,998.47153 485.65625,998.25 C 485.47356,998.02853 485.16903,997.86082 484.75,997.75 C 484.33093,997.63935 483.7521,997.59275 483,997.5625 C 482.24784,997.53228 481.23662,997.50007 479.96875,997.5 z M 753.6875,997.5 C 752.52706,997.50009 751.61345,997.54335 750.96875,997.59375 C 750.32406,997.64412 749.86236,997.75735 749.59375,997.96875 C 749.32513,998.18024 749.2275,998.51463 749.28125,998.9375 C 749.33498,999.36038 749.49215,999.93127 749.75,1000.6563 L 762.15625,1035.2813 C 762.24219,1035.543 762.34076,1035.7663 762.4375,1035.9375 C 762.53419,1036.1086 762.6611,1036.2541 762.84375,1036.375 C 763.0264,1036.4958 763.26262,1036.6069 763.53125,1036.6875 C 763.79985,1036.768 764.13271,1036.8347 764.5625,1036.875 C 764.99227,1036.9153 765.51256,1036.9274 766.125,1036.9375 C 766.73743,1036.9476 767.48416,1036.9688 768.34375,1036.9688 C 769.41821,1036.9688 770.30252,1036.9365 770.96875,1036.9063 C 771.63491,1036.876 772.14441,1036.7983 772.53125,1036.6875 C 772.91804,1036.5767 773.20307,1036.4301 773.375,1036.2188 C 773.5469,1036.0073 773.67377,1035.7174 773.78125,1035.375 L 786.21875,1000.7188 C 786.47658,1000.0139 786.64351,999.42291 786.71875,999 C 786.79392,998.57712 786.73538,998.26282 786.53125,998.03125 C 786.32706,997.7997 785.95419,997.65419 785.40625,997.59375 C 784.85823,997.53339 784.08222,997.50007 783.09375,997.5 C 782.08371,997.50009 781.29896,997.5222 780.71875,997.5625 C 780.1385,997.6028 779.68657,997.69168 779.375,997.8125 C 779.06338,997.9334 778.84768,998.10112 778.71875,998.3125 C 778.58978,998.52399 778.49219,998.7827 778.40625,999.125 L 768.4375,1029.125 L 768.40625,1029.125 L 758.25,998.96875 C 758.14254,998.66677 758.02443,998.42018 757.90625,998.21875 C 757.78804,998.01743 757.58212,997.88197 757.28125,997.78125 C 756.98039,997.68059 756.55874,997.6028 756,997.5625 C 755.44126,997.5222 754.67601,997.50007 753.6875,997.5 z M 796.34375,997.5 C 795.52713,997.50009 794.84975,997.53338 794.3125,997.59375 C 793.77525,997.6542 793.36434,997.74309 793.03125,997.84375 C 792.69815,997.9445 792.45219,998.05775 792.3125,998.21875 C 792.17281,998.37995 792.09377,998.57982 792.09375,998.78125 L 792.09375,1035.6875 C 792.09374,1035.8889 792.17283,1036.0576 792.3125,1036.2188 C 792.45217,1036.3799 792.67766,1036.5244 793,1036.625 C 793.32234,1036.7257 793.76453,1036.8146 794.3125,1036.875 C 794.86047,1036.9354 795.52715,1036.9688 796.34375,1036.9688 C 797.18183,1036.9688 797.86897,1036.9354 798.40625,1036.875 C 798.94348,1036.8146 799.39638,1036.7257 799.71875,1036.625 C 800.04109,1036.5243 800.26658,1036.3798 800.40625,1036.2188 C 800.54592,1036.0576 800.625,1035.8889 800.625,1035.6875 L 800.625,998.78125 C 800.62498,998.57984 800.54595,998.37997 800.40625,998.21875 C 800.26655,998.05773 800.04106,997.9445 799.71875,997.84375 C 799.3964,997.74309 798.94345,997.65419 798.40625,997.59375 C 797.86899,997.53339 797.18186,997.50007 796.34375,997.5 z M 535.5,997.5625 C 534.72634,997.5625 534.11923,997.57469 533.625,997.625 C 533.13071,997.67537 532.70708,997.78552 532.40625,997.90625 C 532.10536,998.02715 531.91014,998.15138 531.78125,998.3125 C 531.65228,998.47361 531.59371,998.67367 531.59375,998.875 L 531.59375,1017.1875 C 531.59372,1018.577 531.59274,1020.0633 531.625,1021.5938 C 531.65721,1023.1243 531.71673,1024.5903 531.78125,1026 L 531.75,1026 C 531.36316,1025.1944 530.97076,1024.368 530.5625,1023.5625 C 530.15417,1022.7569 529.711,1021.9608 529.28125,1021.125 C 528.85143,1020.2893 528.43072,1019.4295 527.96875,1018.5938 C 527.50669,1017.7581 527.03525,1016.9285 526.5625,1016.0625 L 518.4375,1001.75 C 518.02918,1000.9647 517.6368,1000.315 517.25,999.78125 C 516.86317,999.24763 516.44053,998.83344 516,998.53125 C 515.55945,998.22927 515.05872,998.00587 514.5,997.875 C 513.94126,997.74411 513.25409,997.68752 512.4375,997.6875 L 507.875,997.6875 C 507.01542,997.6875 506.30973,997.93311 505.71875,998.40625 C 505.12778,998.87951 504.81251,999.58483 504.8125,1000.5313 L 504.8125,1035.6563 C 504.8125,1035.8576 504.89254,1036.0264 505,1036.1875 C 505.10745,1036.3486 505.28312,1036.4831 505.5625,1036.5938 C 505.84185,1036.7045 506.22447,1036.8146 506.71875,1036.875 C 507.213,1036.9354 507.84159,1036.9688 508.59375,1036.9688 C 509.36736,1036.9688 510.00572,1036.9354 510.5,1036.875 C 510.99425,1036.8146 511.39738,1036.7045 511.6875,1036.5938 C 511.97759,1036.483 512.16307,1036.3486 512.28125,1036.1875 C 512.39943,1036.0264 512.46875,1035.8576 512.46875,1035.6563 L 512.46875,1015.2188 C 512.46874,1013.6883 512.44921,1012.1899 512.40625,1010.75 C 512.36325,1009.3102 512.3047,1007.8563 512.21875,1006.4063 L 512.28125,1006.4063 C 512.7755,1007.5944 513.31428,1008.8352 513.9375,1010.0938 C 514.56068,1011.3524 515.17954,1012.5062 515.78125,1013.5938 L 526.15625,1031.875 C 526.69346,1032.8819 527.19519,1033.7095 527.625,1034.3438 C 528.05476,1034.9781 528.50666,1035.4712 528.96875,1035.8438 C 529.43075,1036.2163 529.92077,1036.4841 530.46875,1036.625 C 531.01671,1036.766 531.6541,1036.8437 532.40625,1036.8438 L 536.03125,1036.8438 C 536.43952,1036.8438 536.85243,1036.7669 537.25,1036.6563 C 537.64752,1036.5454 537.99113,1036.3667 538.28125,1036.125 C 538.57132,1035.8834 538.79681,1035.5813 538.96875,1035.2188 C 539.14063,1034.8563 539.21873,1034.4632 539.21875,1034 L 539.21875,998.875 C 539.21871,998.67368 539.16988,998.47361 539.0625,998.3125 C 538.95502,998.15139 538.76861,998.02715 538.5,997.90625 C 538.23134,997.78553 537.83796,997.67535 537.34375,997.625 C 536.84945,997.57471 536.23058,997.5625 535.5,997.5625 z M -247.1875,997.6875 C -247.89666,997.6875 -248.51649,997.8886 -249,998.28125 C -249.48352,998.674 -249.71877,999.30142 -249.71875,1000.1875 L -249.71875,1035.6875 C -249.71876,1035.8889 -249.6602,1036.0576 -249.53125,1036.2188 C -249.40232,1036.3799 -249.16609,1036.5244 -248.84375,1036.625 C -248.52141,1036.7257 -248.07924,1036.8146 -247.53125,1036.875 C -246.98328,1036.9354 -246.31662,1036.9688 -245.5,1036.9688 C -244.66192,1036.9688 -243.97474,1036.9354 -243.4375,1036.875 C -242.90027,1036.8146 -242.44734,1036.7257 -242.125,1036.625 C -241.80266,1036.5243 -241.5772,1036.3798 -241.4375,1036.2188 C -241.29783,1036.0576 -241.25002,1035.8889 -241.25,1035.6875 L -241.25,1020.7813 L -238.59375,1020.7813 C -237.69121,1020.7813 -236.90644,1020.9257 -236.21875,1021.1875 C -235.53111,1021.4493 -234.90152,1021.8303 -234.375,1022.3438 C -233.84852,1022.8573 -233.36733,1023.516 -232.9375,1024.2813 C -232.50774,1025.0465 -232.0763,1025.9196 -231.625,1026.9063 L -227.90625,1035.625 C -227.82033,1035.8666 -227.69146,1036.0789 -227.5625,1036.25 C -227.43359,1036.4211 -227.21788,1036.5454 -226.90625,1036.6563 C -226.59468,1036.767 -226.16226,1036.866 -225.625,1036.9063 C -225.08778,1036.9465 -224.37135,1036.9688 -223.46875,1036.9688 C -222.3943,1036.9688 -221.56072,1036.9466 -220.9375,1036.9063 C -220.31434,1036.866 -219.82238,1036.7882 -219.5,1036.6875 C -219.17769,1036.5868 -218.99223,1036.4635 -218.90625,1036.3125 C -218.82033,1036.1615 -218.78129,1035.9715 -218.78125,1035.75 C -218.78129,1035.5486 -218.83009,1035.2587 -218.9375,1034.9063 C -219.04498,1034.5539 -219.24019,1034.0153 -219.5625,1033.25 L -223.09375,1025.5313 C -223.50209,1024.6049 -223.91399,1023.7664 -224.34375,1023.0313 C -224.77357,1022.2962 -225.23527,1021.6677 -225.71875,1021.0938 C -226.2023,1020.5198 -226.70204,1020.0278 -227.25,1019.625 C -227.79801,1019.2223 -228.40808,1018.8758 -229.03125,1018.5938 C -227.7419,1018.2112 -226.57253,1017.6868 -225.5625,1017.0625 C -224.55251,1016.4383 -223.71895,1015.7209 -223.03125,1014.875 C -222.34362,1014.0292 -221.82337,1013.0774 -221.46875,1012 C -221.1142,1010.9226 -220.93753,1009.7152 -220.9375,1008.4063 C -220.93754,1006.8556 -221.16203,1005.4795 -221.65625,1004.2813 C -222.15055,1003.0831 -222.87774,1002.0636 -223.8125,1001.1875 C -224.74732,1000.3116 -225.87568,999.57492 -227.21875,999.03125 C -228.56187,998.48755 -230.07383,998.12781 -231.75,997.90625 C -232.33023,997.84589 -232.97836,997.79041 -233.6875,997.75 C -234.39667,997.70979 -235.3103,997.68752 -236.40625,997.6875 L -247.1875,997.6875 z M -209.375,997.6875 C -210.34204,997.6875 -211.13854,997.95632 -211.71875,998.5 C -212.29897,999.04378 -212.59376,999.81669 -212.59375,1000.8438 L -212.59375,1035.6875 C -212.59376,1035.8889 -212.52445,1036.0576 -212.40625,1036.2188 C -212.28806,1036.3799 -212.06161,1036.5244 -211.75,1036.625 C -211.4384,1036.7257 -211.04701,1036.8146 -210.53125,1036.875 C -210.0155,1036.9354 -209.36738,1036.9688 -208.59375,1036.9688 C -207.79864,1036.9688 -207.13001,1036.9354 -206.625,1036.875 C -206.12001,1036.8146 -205.72861,1036.7257 -205.40625,1036.625 C -205.08392,1036.5243 -204.83695,1036.3798 -204.71875,1036.2188 C -204.60057,1036.0576 -204.56251,1035.8889 -204.5625,1035.6875 L -204.5625,1003.875 L -204.5,1003.875 L -192.8125,1035.6563 C -192.74806,1035.8777 -192.63092,1036.0576 -192.4375,1036.2188 C -192.24412,1036.3799 -191.98936,1036.5143 -191.65625,1036.625 C -191.32319,1036.7357 -190.89077,1036.8248 -190.375,1036.875 C -189.85927,1036.9254 -189.23067,1036.9688 -188.5,1036.9688 C -187.76938,1036.9688 -187.14079,1036.9365 -186.625,1036.9063 C -186.10928,1036.876 -185.67686,1036.8195 -185.34375,1036.7188 C -185.01069,1036.6181 -184.75594,1036.4837 -184.5625,1036.3125 C -184.36913,1036.1413 -184.24224,1035.918 -184.15625,1035.6563 L -172.0625,1003.875 L -172,1003.875 L -172,1035.6875 C -172.00004,1035.8889 -171.94148,1036.0576 -171.8125,1036.2188 C -171.68361,1036.3799 -171.45715,1036.5244 -171.15625,1036.625 C -170.85544,1036.7257 -170.45329,1036.8146 -169.9375,1036.875 C -169.42179,1036.9354 -168.77367,1036.9688 -168,1036.9688 C -167.20494,1036.9688 -166.54706,1036.9354 -166.03125,1036.875 C -165.51555,1036.8146 -165.0929,1036.7257 -164.78125,1036.625 C -164.46971,1036.5243 -164.27449,1036.3798 -164.15625,1036.2188 C -164.03811,1036.0576 -163.9688,1035.8889 -163.96875,1035.6875 L -163.96875,1000.8438 C -163.96881,1000.3403 -164.04788,999.89265 -164.1875,999.5 C -164.32724,999.10734 -164.51268,998.77193 -164.78125,998.5 C -165.04993,998.22824 -165.39351,998.0473 -165.8125,997.90625 C -166.2316,997.76538 -166.73233,997.68752 -167.3125,997.6875 L -173.03125,997.6875 C -173.8264,997.6875 -174.52333,997.75527 -175.125,997.90625 C -175.72675,998.05737 -176.247,998.32507 -176.6875,998.6875 C -177.12807,999.05002 -177.5107,999.50973 -177.84375,1000.0938 C -178.17688,1000.6777 -178.50192,1001.4043 -178.78125,1002.25 L -188.125,1025.4688 L -188.25,1025.4688 L -197.28125,1002.1875 C -197.53915,1001.3417 -197.84368,1000.6364 -198.1875,1000.0625 C -198.53135,999.48858 -198.95302,999.00872 -199.46875,998.65625 C -199.98451,998.30389 -200.60337,998.05735 -201.3125,997.90625 C -202.02167,997.7553 -202.85523,997.68752 -203.84375,997.6875 L -209.375,997.6875 z M 46,997.6875 C 45.290837,997.6875 44.702262,997.8886 44.21875,998.28125 C 43.73523,998.674 43.499991,999.30142 43.5,1000.1875 L 43.5,1035.6875 C 43.499991,1035.8889 43.558562,1036.0576 43.6875,1036.2188 C 43.816439,1036.3799 44.021403,1036.5244 44.34375,1036.625 C 44.666087,1036.7257 45.10826,1036.8146 45.65625,1036.875 C 46.20423,1036.9354 46.902141,1036.9688 47.71875,1036.9688 C 48.556842,1036.9688 49.244002,1036.9354 49.78125,1036.875 C 50.318479,1036.8146 50.740145,1036.7257 51.0625,1036.625 C 51.384837,1036.5243 51.6103,1036.3798 51.75,1036.2188 C 51.889662,1036.0576 51.968741,1035.8889 51.96875,1035.6875 L 51.96875,1020.7813 L 54.625,1020.7813 C 55.527542,1020.7813 56.312321,1020.9257 57,1021.1875 C 57.687651,1021.4493 58.285983,1021.8303 58.8125,1022.3438 C 59.338968,1022.8573 59.820189,1023.516 60.25,1024.2813 C 60.679773,1025.0465 61.111195,1025.9196 61.5625,1026.9063 L 65.3125,1035.625 C 65.398434,1035.8666 65.496034,1036.0789 65.625,1036.25 C 65.75391,1036.4211 65.969624,1036.5454 66.28125,1036.6563 C 66.592827,1036.767 67.025237,1036.866 67.5625,1036.9063 C 68.09971,1036.9465 68.816161,1036.9688 69.71875,1036.9688 C 70.793198,1036.9688 71.658016,1036.9466 72.28125,1036.9063 C 72.904413,1036.866 73.365123,1036.7882 73.6875,1036.6875 C 74.009809,1036.5868 74.226499,1036.4635 74.3125,1036.3125 C 74.398425,1036.1615 74.437463,1035.9715 74.4375,1035.75 C 74.437462,1035.5486 74.388657,1035.2587 74.28125,1034.9063 C 74.173767,1034.5539 73.947306,1034.0153 73.625,1033.25 L 70.125,1025.5313 C 69.716663,1024.6049 69.273511,1023.7664 68.84375,1023.0313 C 68.413929,1022.2962 67.98349,1021.6677 67.5,1021.0938 C 67.016461,1020.5198 66.485454,1020.0278 65.9375,1019.625 C 65.389492,1019.2223 64.810671,1018.8758 64.1875,1018.5938 C 65.476839,1018.2112 66.614961,1017.6868 67.625,1017.0625 C 68.634979,1016.4383 69.499802,1015.7209 70.1875,1014.875 C 70.875132,1014.0292 71.39539,1013.0774 71.75,1012 C 72.104544,1010.9226 72.281216,1009.7152 72.28125,1008.4063 C 72.281212,1006.8556 72.025484,1005.4795 71.53125,1004.2813 C 71.03696,1003.0831 70.309767,1002.0636 69.375,1001.1875 C 68.440176,1000.3116 67.311819,999.57492 65.96875,999.03125 C 64.625626,998.48755 63.113666,998.12781 61.4375,997.90625 C 60.857257,997.84589 60.209133,997.79041 59.5,997.75 C 58.790828,997.70979 57.90845,997.68752 56.8125,997.6875 L 46,997.6875 z M 113.0625,997.6875 C 112.35334,997.6875 111.73351,997.8886 111.25,998.28125 C 110.76648,998.674 110.53124,999.30142 110.53125,1000.1875 L 110.53125,1035.625 C 110.53124,1035.8465 110.61032,1036.0264 110.75,1036.1875 C 110.88968,1036.3486 111.11515,1036.4831 111.4375,1036.5938 C 111.75984,1036.7045 112.20201,1036.8146 112.75,1036.875 C 113.29798,1036.9354 113.96464,1036.9688 114.78125,1036.9688 C 115.61934,1036.9688 116.30651,1036.9354 116.84375,1036.875 C 117.38098,1036.8146 117.82315,1036.7045 118.15625,1036.5938 C 118.48933,1036.483 118.71479,1036.3486 118.84375,1036.1875 C 118.97267,1036.0264 119.03124,1035.8465 119.03125,1035.625 L 119.03125,1021.0625 L 131.84375,1021.0625 C 132.03713,1021.0625 132.1933,1021.017 132.34375,1020.9063 C 132.49415,1020.7955 132.63178,1020.6055 132.75,1020.3438 C 132.86817,1020.0819 132.9775,1019.7466 133.03125,1019.3438 C 133.08495,1018.941 133.09373,1018.448 133.09375,1017.8438 C 133.09372,1017.2397 133.08495,1016.7152 133.03125,1016.3125 C 132.97749,1015.9097 132.86817,1015.5855 132.75,1015.3438 C 132.63178,1015.1021 132.49416,1014.9445 132.34375,1014.8438 C 132.1933,1014.7431 132.03714,1014.6876 131.84375,1014.6875 L 119.03125,1014.6875 L 119.03125,1004.1875 L 132.6875,1004.1875 C 132.88088,1004.1876 133.03704,1004.1209 133.1875,1004 C 133.33789,1003.8793 133.47554,1003.7105 133.59375,1003.4688 C 133.71192,1003.2271 133.79,1002.8816 133.84375,1002.4688 C 133.89745,1002.0559 133.93747,1001.5416 133.9375,1000.9375 C 133.93747,1000.3334 133.89745,999.8292 133.84375,999.40625 C 133.78999,998.98345 133.71192,998.65807 133.59375,998.40625 C 133.47553,998.15455 133.33789,997.95446 133.1875,997.84375 C 133.03704,997.73301 132.88087,997.68752 132.6875,997.6875 L 113.0625,997.6875 z M 187.96875,997.6875 C 187.25959,997.6875 186.67102,997.8886 186.1875,998.28125 C 185.70398,998.674 185.43749,999.30142 185.4375,1000.1875 L 185.4375,1035.6875 C 185.43749,1035.8889 185.5273,1036.0576 185.65625,1036.2188 C 185.78518,1036.3799 185.99015,1036.5244 186.3125,1036.625 C 186.63484,1036.7257 187.077,1036.8146 187.625,1036.875 C 188.17298,1036.9354 188.83963,1036.9688 189.65625,1036.9688 C 190.49433,1036.9688 191.21275,1036.9354 191.75,1036.875 C 192.28723,1036.8146 192.7089,1036.7257 193.03125,1036.625 C 193.35358,1036.5243 193.57906,1036.3798 193.71875,1036.2188 C 193.85842,1036.0576 193.9375,1035.8889 193.9375,1035.6875 L 193.9375,1020.7813 L 196.5625,1020.7813 C 197.46505,1020.7813 198.28107,1020.9257 198.96875,1021.1875 C 199.6564,1021.4493 200.25474,1021.8303 200.78125,1022.3438 C 201.30772,1022.8573 201.78894,1023.516 202.21875,1024.2813 C 202.64852,1025.0465 203.07995,1025.9196 203.53125,1026.9063 L 207.28125,1035.625 C 207.36718,1035.8666 207.46479,1036.0789 207.59375,1036.25 C 207.72266,1036.4211 207.93837,1036.5454 208.25,1036.6563 C 208.56157,1036.767 208.99398,1036.866 209.53125,1036.9063 C 210.06846,1036.9465 210.78491,1036.9688 211.6875,1036.9688 C 212.76195,1036.9688 213.59552,1036.9466 214.21875,1036.9063 C 214.84191,1036.866 215.33388,1036.7882 215.65625,1036.6875 C 215.97856,1036.5868 216.16401,1036.4635 216.25,1036.3125 C 216.33592,1036.1615 216.40622,1035.9715 216.40625,1035.75 C 216.40621,1035.5486 216.32617,1035.2587 216.21875,1034.9063 C 216.11127,1034.5539 215.91606,1034.0153 215.59375,1033.25 L 212.0625,1025.5313 C 211.65417,1024.6049 211.24225,1023.7664 210.8125,1023.0313 C 210.38268,1022.2962 209.92098,1021.6677 209.4375,1021.0938 C 208.95396,1020.5198 208.45421,1020.0278 207.90625,1019.625 C 207.35824,1019.2223 206.77943,1018.8758 206.15625,1018.5938 C 207.4456,1018.2112 208.58371,1017.6868 209.59375,1017.0625 C 210.60373,1016.4383 211.4373,1015.7209 212.125,1014.875 C 212.81263,1014.0292 213.33289,1013.0774 213.6875,1012 C 214.04204,1010.9226 214.21871,1009.7152 214.21875,1008.4063 C 214.21872,1006.8556 213.99423,1005.4795 213.5,1004.2813 C 213.00571,1003.0831 212.27851,1002.0636 211.34375,1001.1875 C 210.40892,1000.3116 209.28057,999.57492 207.9375,999.03125 C 206.59438,998.48755 205.08241,998.12781 203.40625,997.90625 C 202.82601,997.84589 202.17789,997.79041 201.46875,997.75 C 200.75957,997.70979 199.84595,997.68752 198.75,997.6875 L 187.96875,997.6875 z M 260.03125,997.6875 C 259.32209,997.6875 258.73351,997.8886 258.25,998.28125 C 257.76648,998.674 257.53126,999.30142 257.53125,1000.1875 L 257.53125,1034.25 C 257.53125,1035.1361 257.76648,1035.7949 258.25,1036.1875 C 258.73351,1036.5802 259.3221,1036.7813 260.03125,1036.7813 L 281,1036.7813 C 281.19338,1036.7813 281.37004,1036.7045 281.53125,1036.5938 C 281.69239,1036.483 281.83002,1036.3042 281.9375,1036.0625 C 282.04492,1035.8208 282.10249,1035.5177 282.15625,1035.125 C 282.20994,1034.7323 282.24996,1034.2402 282.25,1033.6563 C 282.24997,1033.0723 282.20994,1032.5802 282.15625,1032.1875 C 282.1025,1031.7948 282.04492,1031.4917 281.9375,1031.25 C 281.83002,1031.0084 281.69239,1030.8295 281.53125,1030.7188 C 281.37005,1030.608 281.19336,1030.5625 281,1030.5625 L 265.96875,1030.5625 L 265.96875,1019.5313 L 278.5625,1019.5313 C 278.75588,1019.5313 278.93254,1019.4758 279.09375,1019.375 C 279.2549,1019.2743 279.39252,1019.1066 279.5,1018.875 C 279.60742,1018.6435 279.69624,1018.3513 279.75,1017.9688 C 279.8037,1017.5861 279.84373,1017.0841 279.84375,1016.5 C 279.84372,1015.9362 279.80369,1015.4552 279.75,1015.0625 C 279.69625,1014.6698 279.60742,1014.3566 279.5,1014.125 C 279.39253,1013.8935 279.25488,1013.7357 279.09375,1013.625 C 278.93255,1013.5143 278.75589,1013.4375 278.5625,1013.4375 L 265.96875,1013.4375 L 265.96875,1003.9063 L 280.875,1003.9063 C 281.06838,1003.9063 281.22453,1003.8608 281.375,1003.75 C 281.5254,1003.6393 281.64251,1003.4604 281.75,1003.2188 C 281.85742,1002.9771 281.94624,1002.6428 282,1002.25 C 282.05369,1001.8573 282.09373,1001.3764 282.09375,1000.8125 C 282.09372,1000.2084 282.05368,999.73651 282,999.34375 C 281.94625,998.95109 281.85741,998.6268 281.75,998.375 C 281.64252,998.1233 281.52539,997.9445 281.375,997.84375 C 281.22454,997.74309 281.06836,997.68752 280.875,997.6875 L 260.03125,997.6875 z M 322.1875,997.6875 C 321.47834,997.6875 320.88977,997.8886 320.40625,998.28125 C 319.92273,998.674 319.68751,999.30142 319.6875,1000.1875 L 319.6875,1034.25 C 319.6875,1035.1361 319.92274,1035.7949 320.40625,1036.1875 C 320.88976,1036.5802 321.47835,1036.7813 322.1875,1036.7813 L 343.125,1036.7813 C 343.31838,1036.7813 343.49505,1036.7045 343.65625,1036.5938 C 343.81739,1036.483 343.95503,1036.3042 344.0625,1036.0625 C 344.16992,1035.8208 344.25875,1035.5177 344.3125,1035.125 C 344.36619,1034.7323 344.40621,1034.2402 344.40625,1033.6563 C 344.40622,1033.0723 344.3662,1032.5802 344.3125,1032.1875 C 344.25875,1031.7948 344.16992,1031.4917 344.0625,1031.25 C 343.95502,1031.0084 343.81739,1030.8295 343.65625,1030.7188 C 343.49505,1030.608 343.31837,1030.5625 343.125,1030.5625 L 328.125,1030.5625 L 328.125,1019.5313 L 340.71875,1019.5313 C 340.91213,1019.5313 341.08879,1019.4758 341.25,1019.375 C 341.41115,1019.2743 341.54877,1019.1066 341.65625,1018.875 C 341.76367,1018.6435 341.85249,1018.3513 341.90625,1017.9688 C 341.95995,1017.5861 341.96874,1017.0841 341.96875,1016.5 C 341.96872,1015.9362 341.95994,1015.4552 341.90625,1015.0625 C 341.8525,1014.6698 341.76367,1014.3566 341.65625,1014.125 C 341.54878,1013.8935 341.41114,1013.7357 341.25,1013.625 C 341.0888,1013.5143 340.91215,1013.4375 340.71875,1013.4375 L 328.125,1013.4375 L 328.125,1003.9063 L 343,1003.9063 C 343.19338,1003.9063 343.38079,1003.8608 343.53125,1003.75 C 343.68165,1003.6393 343.79877,1003.4604 343.90625,1003.2188 C 344.01367,1002.9771 344.10249,1002.6428 344.15625,1002.25 C 344.20994,1001.8573 344.24998,1001.3764 344.25,1000.8125 C 344.24997,1000.2084 344.20994,999.73651 344.15625,999.34375 C 344.1025,998.95109 344.01366,998.6268 343.90625,998.375 C 343.79877,998.1233 343.68164,997.9445 343.53125,997.84375 C 343.38079,997.74309 343.19337,997.68752 343,997.6875 L 322.1875,997.6875 z M 592.8125,997.6875 C 592.10334,997.6875 591.51475,997.8886 591.03125,998.28125 C 590.54773,998.674 590.31249,999.30142 590.3125,1000.1875 L 590.3125,1034.25 C 590.3125,1035.1361 590.54772,1035.7949 591.03125,1036.1875 C 591.51476,1036.5802 592.10333,1036.7813 592.8125,1036.7813 L 613.78125,1036.7813 C 613.97463,1036.7813 614.1513,1036.7045 614.3125,1036.5938 C 614.47365,1036.483 614.61126,1036.3042 614.71875,1036.0625 C 614.82617,1035.8208 614.91498,1035.5177 614.96875,1035.125 C 615.02244,1034.7323 615.03122,1034.2402 615.03125,1033.6563 C 615.03121,1033.0723 615.02242,1032.5802 614.96875,1032.1875 C 614.91499,1031.7948 614.82615,1031.4917 614.71875,1031.25 C 614.61128,1031.0084 614.47365,1030.8295 614.3125,1030.7188 C 614.1513,1030.608 613.97463,1030.5625 613.78125,1030.5625 L 598.75,1030.5625 L 598.75,1019.5313 L 611.375,1019.5313 C 611.56838,1019.5313 611.74502,1019.4758 611.90625,1019.375 C 612.0674,1019.2743 612.17378,1019.1066 612.28125,1018.875 C 612.38868,1018.6435 612.4775,1018.3513 612.53125,1017.9688 C 612.58495,1017.5861 612.625,1017.0841 612.625,1016.5 C 612.62497,1015.9362 612.58496,1015.4552 612.53125,1015.0625 C 612.47749,1014.6698 612.38868,1014.3566 612.28125,1014.125 C 612.17378,1013.8935 612.06737,1013.7357 611.90625,1013.625 C 611.74505,1013.5143 611.56841,1013.4375 611.375,1013.4375 L 598.75,1013.4375 L 598.75,1003.9063 L 613.65625,1003.9063 C 613.84963,1003.9063 614.00583,1003.8608 614.15625,1003.75 C 614.30665,1003.6393 614.45503,1003.4604 614.5625,1003.2188 C 614.66992,1002.9771 614.7275,1002.6428 614.78125,1002.25 C 614.83494,1001.8573 614.875,1001.3764 614.875,1000.8125 C 614.87497,1000.2084 614.83495,999.73651 614.78125,999.34375 C 614.72749,998.95109 614.66992,998.6268 614.5625,998.375 C 614.45503,998.1233 614.30668,997.9445 614.15625,997.84375 C 614.0058,997.74309 613.8496,997.68752 613.65625,997.6875 L 592.8125,997.6875 z M 686.1875,997.6875 C 685.47834,997.6875 684.85852,997.8886 684.375,998.28125 C 683.89148,998.674 683.65626,999.30142 683.65625,1000.1875 L 683.65625,1034.25 C 683.65624,1035.1361 683.89149,1035.7949 684.375,1036.1875 C 684.85851,1036.5802 685.47836,1036.7813 686.1875,1036.7813 L 707.125,1036.7813 C 707.31838,1036.7813 707.49502,1036.7045 707.65625,1036.5938 C 707.8174,1036.483 707.95503,1036.3042 708.0625,1036.0625 C 708.16992,1035.8208 708.25874,1035.5177 708.3125,1035.125 C 708.3662,1034.7323 708.37499,1034.2402 708.375,1033.6563 C 708.37497,1033.0723 708.3662,1032.5802 708.3125,1032.1875 C 708.25874,1031.7948 708.16992,1031.4917 708.0625,1031.25 C 707.95503,1031.0084 707.81737,1030.8295 707.65625,1030.7188 C 707.49505,1030.608 707.3184,1030.5625 707.125,1030.5625 L 692.09375,1030.5625 L 692.09375,1019.5313 L 704.71875,1019.5313 C 704.91213,1019.5313 705.08879,1019.4758 705.25,1019.375 C 705.41115,1019.2743 705.54875,1019.1066 705.65625,1018.875 C 705.76367,1018.6435 705.82128,1018.3513 705.875,1017.9688 C 705.9287,1017.5861 705.9687,1017.0841 705.96875,1016.5 C 705.96872,1015.9362 705.92872,1015.4552 705.875,1015.0625 C 705.82125,1014.6698 705.76364,1014.3566 705.65625,1014.125 C 705.54878,1013.8935 705.41114,1013.7357 705.25,1013.625 C 705.0888,1013.5143 704.91212,1013.4375 704.71875,1013.4375 L 692.09375,1013.4375 L 692.09375,1003.9063 L 707,1003.9063 C 707.19338,1003.9063 707.38078,1003.8608 707.53125,1003.75 C 707.68164,1003.6393 707.7988,1003.4604 707.90625,1003.2188 C 708.01368,1002.9771 708.10252,1002.6428 708.15625,1002.25 C 708.20995,1001.8573 708.2187,1001.3764 708.21875,1000.8125 C 708.21872,1000.2084 708.20997,999.73651 708.15625,999.34375 C 708.1025,998.95109 708.0137,998.6268 707.90625,998.375 C 707.79878,998.1233 707.68164,997.9445 707.53125,997.84375 C 707.38079,997.74309 707.19337,997.68752 707,997.6875 L 686.1875,997.6875 z M 718.40625,997.6875 C 717.69709,997.6875 717.10851,997.8886 716.625,998.28125 C 716.14148,998.674 715.90625,999.30142 715.90625,1000.1875 L 715.90625,1035.6875 C 715.90624,1035.8889 715.9648,1036.0576 716.09375,1036.2188 C 716.22268,1036.3799 716.45888,1036.5244 716.78125,1036.625 C 717.10359,1036.7257 717.51449,1036.8146 718.0625,1036.875 C 718.61047,1036.9354 719.30838,1036.9688 720.125,1036.9688 C 720.96308,1036.9688 721.65025,1036.9354 722.1875,1036.875 C 722.72473,1036.8146 723.1464,1036.7257 723.46875,1036.625 C 723.79109,1036.5243 724.01655,1036.3798 724.15625,1036.2188 C 724.29592,1036.0576 724.37497,1035.8889 724.375,1035.6875 L 724.375,1020.7813 L 727.03125,1020.7813 C 727.93379,1020.7813 728.71855,1020.9257 729.40625,1021.1875 C 730.09389,1021.4493 730.69223,1021.8303 731.21875,1022.3438 C 731.74523,1022.8573 732.22641,1023.516 732.65625,1024.2813 C 733.08602,1025.0465 733.51744,1025.9196 733.96875,1026.9063 L 737.71875,1035.625 C 737.80467,1035.8666 737.90229,1036.0789 738.03125,1036.25 C 738.16016,1036.4211 738.4071,1036.5454 738.71875,1036.6563 C 739.03032,1036.767 739.43146,1036.866 739.96875,1036.9063 C 740.50596,1036.9465 741.22242,1036.9688 742.125,1036.9688 C 743.19945,1036.9688 744.06429,1036.9466 744.6875,1036.9063 C 745.31066,1036.866 745.77137,1036.7882 746.09375,1036.6875 C 746.41606,1036.5868 746.63278,1036.4635 746.71875,1036.3125 C 746.80467,1036.1615 746.84371,1035.9715 746.84375,1035.75 C 746.84371,1035.5486 746.79493,1035.2587 746.6875,1034.9063 C 746.58002,1034.5539 746.35354,1034.0153 746.03125,1033.25 L 742.53125,1025.5313 C 742.12291,1024.6049 741.711,1023.7664 741.28125,1023.0313 C 740.85143,1022.2962 740.38976,1021.6677 739.90625,1021.0938 C 739.42271,1020.5198 738.89172,1020.0278 738.34375,1019.625 C 737.79574,1019.2223 737.21694,1018.8758 736.59375,1018.5938 C 737.8831,1018.2112 739.02121,1017.6868 740.03125,1017.0625 C 741.04124,1016.4383 741.90606,1015.7209 742.59375,1014.875 C 743.28138,1014.0292 743.80165,1013.0774 744.15625,1012 C 744.51079,1010.9226 744.68748,1009.7152 744.6875,1008.4063 C 744.68746,1006.8556 744.43175,1005.4795 743.9375,1004.2813 C 743.4432,1003.0831 742.74726,1002.0636 741.8125,1001.1875 C 740.87767,1000.3116 739.71809,999.57492 738.375,999.03125 C 737.03188,998.48755 735.51993,998.12781 733.84375,997.90625 C 733.26352,997.84589 732.61536,997.79041 731.90625,997.75 C 731.19708,997.70979 730.3147,997.68752 729.21875,997.6875 L 718.40625,997.6875 z M 847.21875,997.6875 C 846.50959,997.6875 845.92101,997.8886 845.4375,998.28125 C 844.95398,998.674 844.71875,999.30142 844.71875,1000.1875 L 844.71875,1034.25 C 844.71874,1035.1361 844.95398,1035.7949 845.4375,1036.1875 C 845.92101,1036.5802 846.50959,1036.7813 847.21875,1036.7813 L 868.1875,1036.7813 C 868.38088,1036.7813 868.55757,1036.7045 868.71875,1036.5938 C 868.87989,1036.483 868.98627,1036.3042 869.09375,1036.0625 C 869.20117,1035.8208 869.28999,1035.5177 869.34375,1035.125 C 869.39744,1034.7323 869.43749,1034.2402 869.4375,1033.6563 C 869.43747,1033.0723 869.39743,1032.5802 869.34375,1032.1875 C 869.28999,1031.7948 869.20116,1031.4917 869.09375,1031.25 C 868.98628,1031.0084 868.87991,1030.8295 868.71875,1030.7188 C 868.55755,1030.608 868.38089,1030.5625 868.1875,1030.5625 L 853.15625,1030.5625 L 853.15625,1019.5313 L 865.75,1019.5313 C 865.94339,1019.5313 866.12003,1019.4758 866.28125,1019.375 C 866.4424,1019.2743 866.58005,1019.1066 866.6875,1018.875 C 866.79492,1018.6435 866.88377,1018.3513 866.9375,1017.9688 C 866.9912,1017.5861 866.99995,1017.0841 867,1016.5 C 866.99997,1015.9362 866.99122,1015.4552 866.9375,1015.0625 C 866.88375,1014.6698 866.79494,1014.3566 866.6875,1014.125 C 866.58003,1013.8935 866.44238,1013.7357 866.28125,1013.625 C 866.12005,1013.5143 865.94336,1013.4375 865.75,1013.4375 L 853.15625,1013.4375 L 853.15625,1003.9063 L 868.03125,1003.9063 C 868.22463,1003.9063 868.41203,1003.8608 868.5625,1003.75 C 868.71289,1003.6393 868.83004,1003.4604 868.9375,1003.2188 C 869.04493,1002.9771 869.13376,1002.6428 869.1875,1002.25 C 869.2412,1001.8573 869.2812,1001.3764 869.28125,1000.8125 C 869.28122,1000.2084 869.24121,999.73651 869.1875,999.34375 C 869.13374,998.95109 869.04494,998.6268 868.9375,998.375 C 868.83003,998.1233 868.71288,997.9445 868.5625,997.84375 C 868.41204,997.74309 868.22461,997.68752 868.03125,997.6875 L 847.21875,997.6875 z M -75.0625,1001.625 C -74.24592,1001.6251 -73.539229,1001.6938 -72.9375,1001.875 C -72.335811,1002.0563 -71.845825,1002.3128 -71.4375,1002.625 C -71.029219,1002.9371 -70.724678,1003.2959 -70.53125,1003.7188 C -70.33787,1004.1417 -70.218775,1004.6105 -70.21875,1005.0938 C -70.218778,1005.6375 -70.347629,1006.1428 -70.5625,1006.6563 C -70.77742,1007.1698 -71.140524,1007.7053 -71.65625,1008.2188 C -72.172023,1008.7323 -72.838685,1009.2688 -73.6875,1009.8125 C -74.536352,1010.3563 -75.607134,1010.9494 -76.875,1011.5938 C -77.390764,1010.9494 -77.84172,1010.3351 -78.25,1009.7813 C -78.658318,1009.2276 -79.012652,1008.7121 -79.28125,1008.2188 C -79.549888,1007.7254 -79.755837,1007.2344 -79.90625,1006.7813 C -80.056691,1006.3281 -80.125012,1005.8917 -80.125,1005.4688 C -80.125009,1004.9251 -80.037166,1004.4107 -79.84375,1003.9375 C -79.650361,1003.4642 -79.345821,1003.0712 -78.9375,1002.7188 C -78.52921,1002.3664 -78.008962,1002.0976 -77.375,1001.9063 C -76.741077,1001.7149 -75.965087,1001.6251 -75.0625,1001.625 z M 158.71875,1003.5 C 160.78172,1003.5 162.49964,1003.8455 163.875,1004.5 C 165.2503,1005.1545 166.36013,1006.0831 167.1875,1007.2813 C 168.01481,1008.4796 168.59363,1009.9123 168.9375,1011.5938 C 169.2813,1013.2753 169.46872,1015.1335 169.46875,1017.1875 C 169.46872,1019.0603 169.29204,1020.8386 168.9375,1022.5 C 168.58289,1024.1614 167.9533,1025.6265 167.09375,1026.875 C 166.23414,1028.1235 165.11555,1029.0875 163.71875,1029.8125 C 162.3219,1030.5375 160.58447,1030.9062 158.5,1030.9063 C 156.41549,1030.9063 154.68782,1030.6032 153.3125,1029.9688 C 151.93715,1029.3344 150.84783,1028.3958 150.03125,1027.1875 C 149.21463,1025.9793 148.62507,1024.5454 148.28125,1022.8438 C 147.9374,1021.1421 147.78124,1019.1972 147.78125,1017.0625 C 147.78124,1015.23 147.95792,1013.5163 148.3125,1011.875 C 148.66706,1010.2338 149.26541,1008.791 150.125,1007.5625 C 150.98457,1006.3341 152.10316,1005.3601 153.5,1004.625 C 154.8968,1003.8901 156.63424,1003.5 158.71875,1003.5 z M -241.25,1003.75 L -237.4375,1003.75 C -236.47049,1003.75 -235.70426,1003.7834 -235.15625,1003.8438 C -234.60829,1003.9042 -234.1173,1003.9931 -233.6875,1004.0938 C -232.2692,1004.4563 -231.24822,1005.0827 -230.625,1005.9688 C -230.00182,1006.8549 -229.68752,1007.9299 -229.6875,1009.2188 C -229.68752,1010.0646 -229.85542,1010.8466 -230.15625,1011.5313 C -230.45713,1012.2159 -230.89831,1012.7879 -231.5,1013.2813 C -232.10173,1013.7747 -232.84745,1014.1657 -233.75,1014.4375 C -234.65258,1014.7094 -235.70284,1014.8438 -236.90625,1014.8438 L -241.25,1014.8438 L -241.25,1003.75 z M 51.96875,1003.75 L 55.78125,1003.75 C 56.748262,1003.75 57.48325,1003.7834 58.03125,1003.8438 C 58.57922,1003.9042 59.070188,1003.9931 59.5,1004.0938 C 60.918287,1004.4563 61.939281,1005.0827 62.5625,1005.9688 C 63.185672,1006.8549 63.499982,1007.9299 63.5,1009.2188 C 63.499981,1010.0646 63.363325,1010.8466 63.0625,1011.5313 C 62.761618,1012.2159 62.289189,1012.7879 61.6875,1013.2813 C 61.085774,1013.7747 60.34004,1014.1657 59.4375,1014.4375 C 58.53492,1014.7094 57.484645,1014.8438 56.28125,1014.8438 L 51.96875,1014.8438 L 51.96875,1003.75 z M 193.9375,1003.75 L 197.71875,1003.75 C 198.68576,1003.75 199.452,1003.7834 200,1003.8438 C 200.54796,1003.9042 201.03894,1003.9931 201.46875,1004.0938 C 202.88704,1004.4563 203.90803,1005.0827 204.53125,1005.9688 C 205.15442,1006.8549 205.46872,1007.9299 205.46875,1009.2188 C 205.46873,1010.0646 205.30084,1010.8466 205,1011.5313 C 204.69912,1012.2159 204.25793,1012.7879 203.65625,1013.2813 C 203.05452,1013.7747 202.30879,1014.1657 201.40625,1014.4375 C 200.50367,1014.7094 199.4534,1014.8438 198.25,1014.8438 L 193.9375,1014.8438 L 193.9375,1003.75 z M 724.375,1003.75 L 728.1875,1003.75 C 729.15451,1003.75 729.88949,1003.7834 730.4375,1003.8438 C 730.98546,1003.9042 731.47642,1003.9931 731.90625,1004.0938 C 733.32454,1004.4563 734.34552,1005.0827 734.96875,1005.9688 C 735.59192,1006.8549 735.9062,1007.9299 735.90625,1009.2188 C 735.90623,1010.0646 735.76956,1010.8466 735.46875,1011.5313 C 735.16787,1012.2159 734.72671,1012.7879 734.125,1013.2813 C 733.52327,1013.7747 732.74632,1014.1657 731.84375,1014.4375 C 730.94117,1014.7094 729.8909,1014.8438 728.6875,1014.8438 L 724.375,1014.8438 L 724.375,1003.75 z M -274.6875,1005.1563 L -274.65625,1005.1563 L -268.75,1021.75 L -280.59375,1021.75 L -274.6875,1005.1563 z M 0.84375,1005.1563 L 0.875,1005.1563 L 6.78125,1021.75 L -5.0625,1021.75 L 0.84375,1005.1563 z M 479.84375,1005.1563 L 479.875,1005.1563 L 485.78125,1021.75 L 473.9375,1021.75 L 479.84375,1005.1563 z M -79.6875,1019.625 C -79.021342,1020.35 -78.255113,1021.1219 -77.40625,1021.9375 C -76.557435,1022.7531 -75.674075,1023.5493 -74.75,1024.375 C -73.825965,1025.2007 -72.884041,1026.0281 -71.90625,1026.8438 C -70.928497,1027.6593 -69.935812,1028.4312 -68.96875,1029.1563 C -69.441547,1029.4785 -69.952036,1029.7906 -70.5,1030.0625 C -71.048008,1030.3343 -71.637573,1030.5587 -72.25,1030.75 C -72.862477,1030.9412 -73.491083,1031.0767 -74.125,1031.1875 C -74.75897,1031.2983 -75.386572,1031.375 -76.03125,1031.375 C -77.27766,1031.375 -78.387483,1031.2295 -79.34375,1030.9375 C -80.300058,1030.6455 -81.105326,1030.2423 -81.75,1029.7188 C -82.394703,1029.1951 -82.874926,1028.5687 -83.21875,1027.8438 C -83.56259,1027.1188 -83.750012,1026.3034 -83.75,1025.4375 C -83.750009,1024.914 -83.65044,1024.4096 -83.5,1023.9063 C -83.349587,1023.4028 -83.134855,1022.9208 -82.8125,1022.4375 C -82.490172,1021.9543 -82.067524,1021.4732 -81.5625,1021 C -81.057506,1020.5267 -80.439645,1020.0681 -79.6875,1019.625 z "
         style="fill:#05477c;fill-opacity:1;stroke:none;stroke-opacity:1" />
      <path
         id="flowRoot9160"
         d="M -1647.4395,-484.95356 C -1647.4395,-484.73089 -1647.4512,-484.53753 -1647.4746,-484.37348 C -1647.4981,-484.2094 -1647.5361,-484.07757 -1647.5889,-483.97798 C -1647.6416,-483.87835 -1647.7061,-483.8051 -1647.7822,-483.75825 C -1647.8584,-483.71135 -1647.9434,-483.68792 -1648.0371,-483.68794 L -1654.4355,-483.68794 L -1654.4355,-463.96528 C -1654.4356,-463.87153 -1654.459,-463.7895 -1654.5059,-463.71919 C -1654.5527,-463.64887 -1654.6348,-463.59321 -1654.752,-463.5522 C -1654.8692,-463.51118 -1655.0244,-463.47602 -1655.2178,-463.44673 C -1655.4111,-463.41743 -1655.6543,-463.40278 -1655.9473,-463.40278 C -1656.2285,-463.40278 -1656.4688,-463.41743 -1656.668,-463.44673 C -1656.8672,-463.47602 -1657.0254,-463.51118 -1657.1426,-463.5522 C -1657.2598,-463.59321 -1657.3418,-463.64887 -1657.3887,-463.71919 C -1657.4356,-463.7895 -1657.459,-463.87153 -1657.459,-463.96528 L -1657.459,-483.68794 L -1663.8574,-483.68794 C -1663.9512,-483.68792 -1664.0361,-483.71135 -1664.1123,-483.75825 C -1664.1885,-483.8051 -1664.25,-483.87835 -1664.2969,-483.97798 C -1664.3438,-484.07757 -1664.3818,-484.2094 -1664.4111,-484.37348 C -1664.4404,-484.53753 -1664.4551,-484.73089 -1664.4551,-484.95356 C -1664.4551,-485.1762 -1664.4404,-485.37249 -1664.4111,-485.54243 C -1664.3818,-485.71233 -1664.3438,-485.85002 -1664.2969,-485.95552 C -1664.25,-486.06096 -1664.1885,-486.13713 -1664.1123,-486.18403 C -1664.0361,-486.23088 -1663.9512,-486.25432 -1663.8574,-486.25434 L -1648.0371,-486.25434 C -1647.9434,-486.25432 -1647.8584,-486.23088 -1647.7822,-486.18403 C -1647.7061,-486.13713 -1647.6416,-486.06096 -1647.5889,-485.95552 C -1647.5361,-485.85002 -1647.4981,-485.71233 -1647.4746,-485.54243 C -1647.4512,-485.37249 -1647.4395,-485.1762 -1647.4395,-484.95356 L -1647.4395,-484.95356 z M -1619.3848,-463.96528 C -1619.3848,-463.87153 -1619.4082,-463.7895 -1619.4551,-463.71919 C -1619.502,-463.64887 -1619.584,-463.59321 -1619.7012,-463.5522 C -1619.8184,-463.51118 -1619.9678,-463.47602 -1620.1494,-463.44673 C -1620.3311,-463.41743 -1620.5684,-463.40278 -1620.8613,-463.40278 C -1621.1309,-463.40278 -1621.3623,-463.41743 -1621.5557,-463.44673 C -1621.749,-463.47602 -1621.9014,-463.51118 -1622.0127,-463.5522 C -1622.124,-463.59321 -1622.2031,-463.64887 -1622.25,-463.71919 C -1622.2969,-463.7895 -1622.3203,-463.87153 -1622.3203,-463.96528 L -1622.3203,-483.77583 L -1622.3555,-483.77583 L -1630.459,-463.87739 C -1630.4942,-463.79536 -1630.544,-463.72505 -1630.6084,-463.66645 C -1630.6729,-463.60786 -1630.7666,-463.55805 -1630.8896,-463.51704 C -1631.0127,-463.47602 -1631.1592,-463.44673 -1631.3291,-463.42915 C -1631.499,-463.41157 -1631.7012,-463.40278 -1631.9355,-463.40278 C -1632.1817,-463.40278 -1632.3926,-463.4145 -1632.5684,-463.43794 C -1632.7442,-463.46138 -1632.8906,-463.4936 -1633.0078,-463.53462 C -1633.125,-463.57563 -1633.2158,-463.62544 -1633.2803,-463.68403 C -1633.3447,-463.74262 -1633.3887,-463.80708 -1633.4121,-463.87739 L -1641.1641,-483.77583 L -1641.1816,-483.77583 L -1641.1816,-463.96528 C -1641.1816,-463.87153 -1641.2051,-463.7895 -1641.252,-463.71919 C -1641.2988,-463.64887 -1641.3809,-463.59321 -1641.498,-463.5522 C -1641.6152,-463.51118 -1641.7676,-463.47602 -1641.9551,-463.44673 C -1642.1426,-463.41743 -1642.3828,-463.40278 -1642.6758,-463.40278 C -1642.957,-463.40278 -1643.1914,-463.41743 -1643.3789,-463.44673 C -1643.5664,-463.47602 -1643.7158,-463.51118 -1643.8271,-463.5522 C -1643.9385,-463.59321 -1644.0147,-463.64887 -1644.0557,-463.71919 C -1644.0967,-463.7895 -1644.1172,-463.87153 -1644.1172,-463.96528 L -1644.1172,-484.88325 C -1644.1172,-485.37542 -1643.9883,-485.72698 -1643.7305,-485.93794 C -1643.4727,-486.14885 -1643.1856,-486.25432 -1642.8691,-486.25434 L -1641.041,-486.25434 C -1640.666,-486.25432 -1640.3379,-486.21916 -1640.0566,-486.14887 C -1639.7754,-486.07854 -1639.5293,-485.96721 -1639.3184,-485.81489 C -1639.1074,-485.66252 -1638.9316,-485.46917 -1638.791,-485.23481 C -1638.6504,-485.00042 -1638.5274,-484.72503 -1638.4219,-484.40864 L -1631.8301,-467.93794 L -1631.7422,-467.93794 L -1624.8867,-484.35591 C -1624.7578,-484.70745 -1624.6172,-485.00628 -1624.4648,-485.25239 C -1624.3125,-485.49846 -1624.1455,-485.69475 -1623.9639,-485.84126 C -1623.7822,-485.98772 -1623.5801,-486.09319 -1623.3574,-486.15766 C -1623.1348,-486.22209 -1622.877,-486.25432 -1622.584,-486.25434 L -1620.668,-486.25434 C -1620.4922,-486.25432 -1620.3252,-486.22795 -1620.167,-486.17524 C -1620.0088,-486.12249 -1619.8741,-486.04045 -1619.7627,-485.92915 C -1619.6514,-485.8178 -1619.5606,-485.67717 -1619.4902,-485.50727 C -1619.4199,-485.33733 -1619.3848,-485.12932 -1619.3848,-484.88325 L -1619.3848,-463.96528 z "
         style="fill:#004580;fill-opacity:1;stroke:none"
         transform="translate(2215.0891,1132.9535)" />
      <path
         id="path10141"
         d="M 569.6496,647.99994 C 569.6496,648.22261 569.6379,648.41597 569.6145,648.58002 C 569.591,648.7441 569.553,648.87593 569.5002,648.97552 C 569.4475,649.07515 569.383,649.1484 569.3069,649.19525 C 569.2307,649.24215 569.1457,649.26558 569.052,649.26556 L 562.6536,649.26556 L 562.6536,668.98822 C 562.6535,669.08197 562.6301,669.164 562.5832,669.23431 C 562.5364,669.30463 562.4543,669.36029 562.3371,669.4013 C 562.2199,669.44232 562.0647,669.47748 561.8713,669.50677 C 561.678,669.53607 561.4348,669.55072 561.1418,669.55072 C 560.8606,669.55072 560.6203,669.53607 560.4211,669.50677 C 560.2219,669.47748 560.0637,669.44232 559.9465,669.4013 C 559.8293,669.36029 559.7473,669.30463 559.7004,669.23431 C 559.6535,669.164 559.6301,669.08197 559.6301,668.98822 L 559.6301,649.26556 L 553.2317,649.26556 C 553.1379,649.26558 553.053,649.24215 552.9768,649.19525 C 552.9006,649.1484 552.8391,649.07515 552.7922,648.97552 C 552.7453,648.87593 552.7073,648.7441 552.678,648.58002 C 552.6487,648.41597 552.634,648.22261 552.634,647.99994 C 552.634,647.7773 552.6487,647.58101 552.678,647.41107 C 552.7073,647.24117 552.7453,647.10348 552.7922,646.99798 C 552.8391,646.89254 552.9006,646.81637 552.9768,646.76947 C 553.053,646.72262 553.1379,646.69918 553.2317,646.69916 L 569.052,646.69916 C 569.1457,646.69918 569.2307,646.72262 569.3069,646.76947 C 569.383,646.81637 569.4475,646.89254 569.5002,646.99798 C 569.553,647.10348 569.591,647.24117 569.6145,647.41107 C 569.6379,647.58101 569.6496,647.7773 569.6496,647.99994 L 569.6496,647.99994 z M 597.7043,668.98822 C 597.7043,669.08197 597.6809,669.164 597.634,669.23431 C 597.5871,669.30463 597.5051,669.36029 597.3879,669.4013 C 597.2707,669.44232 597.1213,669.47748 596.9397,669.50677 C 596.758,669.53607 596.5207,669.55072 596.2278,669.55072 C 595.9582,669.55072 595.7268,669.53607 595.5334,669.50677 C 595.3401,669.47748 595.1877,669.44232 595.0764,669.4013 C 594.9651,669.36029 594.886,669.30463 594.8391,669.23431 C 594.7922,669.164 594.7688,669.08197 594.7688,668.98822 L 594.7688,649.17767 L 594.7336,649.17767 L 586.6301,669.07611 C 586.5949,669.15814 586.5451,669.22845 586.4807,669.28705 C 586.4162,669.34564 586.3225,669.39545 586.1995,669.43646 C 586.0764,669.47748 585.9299,669.50677 585.76,669.52435 C 585.5901,669.54193 585.3879,669.55072 585.1536,669.55072 C 584.9074,669.55072 584.6965,669.539 584.5207,669.51556 C 584.3449,669.49212 584.1985,669.4599 584.0813,669.41888 C 583.9641,669.37787 583.8733,669.32806 583.8088,669.26947 C 583.7444,669.21088 583.7004,669.14642 583.677,669.07611 L 575.925,649.17767 L 575.9075,649.17767 L 575.9075,668.98822 C 575.9075,669.08197 575.884,669.164 575.8371,669.23431 C 575.7903,669.30463 575.7082,669.36029 575.5911,669.4013 C 575.4739,669.44232 575.3215,669.47748 575.134,669.50677 C 574.9465,669.53607 574.7063,669.55072 574.4133,669.55072 C 574.1321,669.55072 573.8977,669.53607 573.7102,669.50677 C 573.5227,669.47748 573.3733,669.44232 573.262,669.4013 C 573.1506,669.36029 573.0744,669.30463 573.0334,669.23431 C 572.9924,669.164 572.9719,669.08197 572.9719,668.98822 L 572.9719,648.07025 C 572.9719,647.57808 573.1008,647.22652 573.3586,647.01556 C 573.6164,646.80465 573.9035,646.69918 574.22,646.69916 L 576.0481,646.69916 C 576.4231,646.69918 576.7512,646.73434 577.0325,646.80463 C 577.3137,646.87496 577.5598,646.98629 577.7707,647.13861 C 577.9817,647.29098 578.1575,647.48433 578.2981,647.71869 C 578.4387,647.95308 578.5617,648.22847 578.6672,648.54486 L 585.259,665.01556 L 585.3469,665.01556 L 592.2024,648.59759 C 592.3313,648.24605 592.4719,647.94722 592.6243,647.70111 C 592.7766,647.45504 592.9436,647.25875 593.1252,647.11224 C 593.3069,646.96578 593.509,646.86031 593.7317,646.79584 C 593.9543,646.73141 594.2121,646.69918 594.5051,646.69916 L 596.4211,646.69916 C 596.5969,646.69918 596.7639,646.72555 596.9221,646.77826 C 597.0803,646.83101 597.215,646.91305 597.3264,647.02435 C 597.4377,647.1357 597.5285,647.27633 597.5989,647.44623 C 597.6692,647.61617 597.7043,647.82418 597.7043,648.07025 L 597.7043,668.98822 z "
         style="fill:#004580;fill-opacity:1;stroke:none" />
    </g>
  </g>
</svg>
