<?xml version="1.0" encoding="utf-8"?>
<!-- Generator: Adobe Illustrator 24.0.1, SVG Export Plug-In . SVG Version: 6.00 Build 0)  -->
<!-- SVG made by yourforcesupport.com -  Powerful Websites for the Modern Force Support Squadron US Forces -->
<svg version="1.1" xmlns="http://www.w3.org/2000/svg" xmlns:xlink="http://www.w3.org/1999/xlink" x="0px" y="0px"
	 viewBox="0 0 101.7 130.5" style="enable-background:new 0 0 101.7 130.5;" xml:space="preserve">
<style type="text/css">
	.st0{fill:#001689;}
	.st1{fill:#CE0E2D;}
	.st2{clip-path:url(#Clipping_1_);}
	.st3{fill:none;stroke:#001689;stroke-width:0.9084;stroke-miterlimit:10;}
</style>
<g id="VERT_FULL_COLOR">
	<g>
		<g>
			<path class="st0" d="M47.9,55.4c-0.3,0-0.6,0.2-0.6,0.4l-0.8,18.8c0,0.3-0.4,0.6-0.8,0.6h0c-0.5,0-0.8-0.3-0.8-0.6l0-18.7
				c0-0.3-0.3-0.5-0.7-0.5h0c-0.4,0-0.7,0.2-0.7,0.5c-0.2,3.1-1.7,17.7-2.1,21.7c-0.5,4.1,0.7,5,1.1,5.3c4.1,2.6,5,5.2,5.2,6.5
				c0,0,0,0.1,0,0.1c0,0.2,0,0.9,0.1,1.7c0,0,0,0,0.1,0c0.5,0,1,0,1.5,0.1c0.2,0,0.5,0,0.8,0l0.8,0l0.8,0c0.2,0,0.4,0,0.5,0
				c0-0.9,0-1.6,0.1-1.8c0,0,0-0.1,0-0.1h0c0.2-1.3,1-3.9,5.2-6.5c0.4-0.3,1.6-1.1,1.1-5.3c-0.4-4.1-1.7-18.7-2-21.7
				c0-0.3-0.3-0.5-0.7-0.5l0,0c-0.4,0-0.7,0.2-0.7,0.5l-0.1,18.7c0,0.3-0.4,0.6-0.8,0.6h0c-0.5,0-0.8-0.3-0.8-0.6l-0.7-18.8
				c0-0.2-0.3-0.4-0.6-0.4l0,0c-0.3,0-0.6,0.2-0.6,0.4l-0.7,18.9c0,0.3-0.3,0.5-0.7,0.5h0l-0.1,0c-0.4,0-0.7-0.2-0.7-0.5l-0.5-18.9
				C48.5,55.6,48.2,55.4,47.9,55.4L47.9,55.4z M48.9,79l1-2.9l1,2.9l3,0l-2.4,1.8l0.9,2.9L49.8,82l-2.5,1.7l0.9-2.9L45.9,79L48.9,79
				z"/>
			<path class="st0" d="M79.1,73.9l0.1-0.2c0.6-1.5,1-3,1.3-4.5l0-0.1c0.8-3.7,0.9-7.4,0.3-11.2l0-0.1c-0.2-1.4-0.6-2.8-1-4.2
				l-0.1-0.2l0,0c-1.3-4.2-3.5-7.9-6.5-11.2c-1.2-1.3-2.5-2.5-3.9-3.6c-0.7-0.5-1.4-1-2.1-1.5c-4.9-3.2-10.6-4.9-16.5-4.9
				c-0.6,0-1.2,0-1.8,0.1c1.3,3.3,2.9,9,0.3,11.9c-1.9,2.3,0.5,5.8,0.8,6.3c0.2,0,0.6,0,1-0.4c0.5-0.5,1-1.7,0.5-4.7l0-0.2l0.2,0
				c0.1,0,2.4,0.2,2.6,5c0.1,1.2,0.8,2,1.4,2.3c0.4,0.2,0.7,0.1,1-0.1c0.3-0.2,0.8-1.1,0-3.6c-0.9-2.7,4-8.4,4.2-8.7l0.7-0.8l-0.4,1
				c0,0.1-3.2,7.8,3.2,15.8c3.4,4.3,1.3,8.3-1,10.9c-2.5,3.1,0.5,6.7,0.9,7.2c0.3,0,1.2-0.2,2-1.1c0.8-0.9,1-2.3,0.8-4
				c-0.7-2.2-0.5-4.6,0.4-6.4c0.6-1.1,1.5-1.9,2.5-2.2l0.3-0.1l-0.2,0.3c0,0.1-2.5,5.3,0.8,11.5c1.7,3.1,2.2,8.6,0.2,13.2
				c0.1-0.1,0.1-0.1,0.2-0.2l0,0c1.3-1.2,2.5-2.5,3.5-3.8c0.1-0.1,0.2-0.2,0.2-0.3c0.2-0.3,0.3-0.5,0.4-0.6l0.1-0.1
				C77.1,78.3,78.2,76.1,79.1,73.9z"/>
			<path class="st0" d="M26.7,44.2c-5,6.4-7.1,14.4-6.1,22.4c0.6,4.9,2.5,9.6,5.3,13.6l0.2,0.2c0.1,0.1,0.2,0.2,0.3,0.4l0.2,0.2
				l0.1,0.1c1.2,1.4,3.7,4.3,5.5,5.6c0.1,0.1,0.3,0.2,0.4,0.3c-3-4.3-4.3-9.7-3.6-14.9c0.7-5.3,0.3-7.5-1.8-10.1L27,61.8l0.3,0
				c0.1,0,1.3,0,2.6,1.1c1.2,1,2.6,3.1,2.9,7.7c0.1,1.7,2.4,4.3,3.6,4.7c1.5-1.2,1.1-3.2,0.2-4.7c-0.1-0.2-0.2-0.4-0.4-0.6
				c-1.3-2-4.4-6.6-2.1-12.1c2.7-6.5,4.4-11.8,0.6-15l-0.5-0.5l0.7,0.2c0.1,0,3.4,0.9,5.1,3.6c0.9,1.5,1.1,3.3,0.6,5.3
				c-0.3,1.3-0.2,2.3,0.4,2.7c0.4,0.2,0.9,0.1,1.4-0.2c0.7-0.7,1.2-2.2,0.2-4.4c-0.1-0.3-0.3-0.6-0.4-0.9c-1.2-2.5-2-4.2,2.1-8.1
				c2.3-2.2,3.8-4.4,3.7-8l-0.1,0c-0.3,0-0.6,0-0.8,0.1C38.9,33.6,31.7,37.7,26.7,44.2z"/>
			<path class="st1" d="M80.3,81.4c-0.3-0.2-0.6-0.3-0.9-0.4c-0.5-0.2-1-0.3-1.4-0.4c-0.4-0.1-0.8-0.1-1-0.1c-0.2,0-0.3,0-0.4,0
				c-0.1,0-0.2,0-0.2,0c-0.1,0-0.2,0-0.2,0s0.1,0.1,0.3,0.2c0.1,0.1,0.3,0.1,0.5,0.2c0.5,0.3,1.3,0.7,2.1,1.4
				c0.2,0.2,0.4,0.4,0.6,0.6c0.2,0.2,0.3,0.5,0.3,0.6c0,0.1,0,0.1,0,0.2c0,0,0,0,0,0c0,0.1,0,0.1-0.1,0.2c-0.1,0.1-0.2,0.3-0.4,0.5
				c-0.1,0.2-0.3,0.3-0.5,0.5c-0.3,0.3-0.7,0.6-1.2,0.8c-0.7,0.4-1.4,0.8-2.2,1.2l-0.1,0l0,0c0.1,0,0,0,0,0l0,0l-0.2,0.1
				c-0.1,0-0.2,0.1-0.3,0.1c-0.2,0.1-0.4,0.2-0.7,0.3c-0.1,0-0.2,0.1-0.3,0.1c-0.1,0-0.2,0.1-0.3,0.1c-0.2,0.1-0.4,0.2-0.6,0.2
				c-0.4,0.2-0.9,0.3-1.3,0.5c-0.2,0.1-0.5,0.2-0.7,0.2c-0.2,0.1-0.5,0.1-0.7,0.2c-1.9,0.6-3.9,1.1-6,1.4c-2.1,0.4-4.3,0.9-6.6,1.1
				c-1.1,0.1-2.3,0.2-3.4,0.2c-0.6,0-1.1,0-1.7,0.1c-0.1,0-0.2,0-0.3,0c-0.2,0-0.4,0-0.6,0l-0.8,0l-0.9,0c-0.3,0-0.6,0-0.9,0
				c-0.6,0-1.1,0-1.7-0.1c0,0-0.1,0-0.1,0c-0.5,0-1.1-0.1-1.6-0.1c-0.3,0-0.6,0-0.8-0.1c-0.3,0-0.6-0.1-0.8-0.1
				c-2.2-0.2-4.4-0.7-6.6-1.1c-2.1-0.4-4.1-0.9-6-1.5c-0.2-0.1-0.5-0.1-0.7-0.2c-0.2-0.1-0.5-0.2-0.7-0.2c-0.5-0.2-0.9-0.3-1.3-0.5
				c-0.2-0.1-0.4-0.2-0.7-0.2c-0.2-0.1-0.4-0.2-0.6-0.3c-0.4-0.2-0.8-0.4-1.2-0.5c-0.4-0.2-0.8-0.4-1.2-0.6
				c-0.4-0.2-0.7-0.4-1.1-0.6c-0.4-0.3-0.8-0.5-1.1-0.8c-0.2-0.2-0.4-0.3-0.5-0.5c-0.2-0.2-0.3-0.4-0.4-0.5c0-0.1-0.1-0.1-0.1-0.2
				c0,0,0,0,0,0c0,0,0-0.1,0-0.2c0-0.2,0.2-0.4,0.3-0.6c0.2-0.2,0.4-0.4,0.6-0.6c0.8-0.7,1.6-1.1,2.1-1.4c0.2-0.1,0.3-0.2,0.5-0.2
				c0.2-0.1,0.3-0.2,0.3-0.2s-0.1,0-0.2,0c-0.1,0-0.1,0-0.2,0c-0.1,0-0.3,0-0.4,0c-0.3,0-0.6,0-1.1,0.1c-0.4,0.1-0.9,0.2-1.4,0.4
				c-0.3,0.1-0.6,0.2-0.9,0.4c-0.2,0.2-0.5,0.4-0.7,0.7c-0.1,0.1-0.1,0.2-0.2,0.3c-0.1,0.2-0.3,0.6-0.4,0.9c-0.1,0.4-0.1,0.8,0,1.1
				c0.1,0.7,0.3,1.3,0.6,1.8c0.3,0.5,0.6,0.9,0.9,1.3c0.3,0.4,0.7,0.8,1,1.1c0.3,0.4,0.7,0.7,1.1,1c0.4,0.3,0.8,0.7,1.2,0.9
				c0.8,0.6,1.7,1.2,2.6,1.8c0.4,0.3,0.9,0.5,1.4,0.8c0.2,0.1,0.5,0.3,0.7,0.4c0.2,0.1,0.5,0.2,0.7,0.4c2,1,4.1,1.9,6.4,2.5
				c2.2,0.7,4.6,1.2,7,1.6c0.6,0.1,1.2,0.2,1.8,0.2c0.6,0.1,1.2,0.1,1.8,0.2c0.6,0.1,1.2,0.1,1.9,0.1c0.3,0,0.6,0,0.9,0l0.9,0l0.9,0
				c0.3,0,0.6,0,0.9,0c0.6,0,1.2-0.1,1.8-0.1c0.6,0,1.2-0.1,1.8-0.2c0.3,0,0.6-0.1,0.9-0.1c0.3,0,0.6-0.1,0.9-0.1
				c2.4-0.4,4.7-0.9,7-1.6c2.2-0.7,4.4-1.6,6.4-2.5c0.2-0.1,0.5-0.3,0.7-0.4c0.2-0.1,0.5-0.3,0.7-0.4c0.5-0.3,0.9-0.5,1.4-0.8
				c0.2-0.1,0.5-0.3,0.7-0.4c0.1-0.1,0.2-0.1,0.3-0.2c0.1-0.1,0.2-0.1,0.3-0.2c0.2-0.1,0.4-0.3,0.6-0.4c0.2-0.2,0.4-0.3,0.6-0.5
				c0.8-0.6,1.6-1.3,2.3-2c0.3-0.4,0.7-0.7,1-1.1c0.3-0.4,0.6-0.8,0.9-1.3c0.3-0.5,0.5-1.1,0.6-1.8c0-0.4,0-0.8,0-1.1
				c-0.1-0.4-0.2-0.7-0.4-0.9c-0.1-0.1-0.1-0.2-0.2-0.3C80.8,81.7,80.6,81.5,80.3,81.4z"/>
		</g>
		<g>
			<path class="st0" d="M31.8,110.3v4h7.6v3.1h-7.6v5.5h-3.4v-15.6H40v3.1H31.8z"/>
			<path class="st0" d="M57.5,116.3h-1.7v2.5c0,2.4-1.8,4.1-4.1,4.1h-4.6c-2.3,0-4.1-1.7-4.1-4v-1.5c0-0.9,0.3-1.8,0.9-2.5
				c-0.6-0.7-0.9-1.5-0.9-2.5v-1.1c0-2.3,1.8-4,4.1-4h6.2v3h-6.2c-0.4,0-0.7,0.4-0.7,0.9v1.5c0,0.5,0.3,0.9,0.7,0.9h5.3v-1.8h3.4
				v1.8h1.7V116.3z M52.4,116.3h-5.3c-0.4,0-0.7,0.4-0.7,0.9v1.8c0,0.5,0.3,0.9,0.7,0.9h4.6c0.4,0,0.7-0.4,0.7-0.9V116.3z"/>
			<path class="st0" d="M73.3,117.7v0.9c0,2.5-2,4.3-4.8,4.3h-8.4v-15.6H68c2.8,0,4.8,1.7,4.8,3.9v1.1c0,0.9-0.4,1.7-1.2,2.4
				C72.7,115.4,73.3,116.5,73.3,117.7z M63.6,110.2v3.3H68c0.7,0,1.4-0.4,1.4-1.2v-1.1c0-0.6-0.7-1-1.4-1H63.6z M69.9,117.6
				c0-0.7-0.5-1.2-1.4-1.2h-5v3.5h4.9c0.9,0,1.4-0.5,1.4-1.2V117.6z"/>
		</g>
		<g>
			<path class="st0" d="M13.2,16.3H8l-0.9,2.4H5.1l4-11.3h3L16,18.7h-1.9L13.2,16.3z M8.7,14.5h3.8l-1.9-5.3L8.7,14.5z"/>
			<path class="st0" d="M18.2,7.4h2v11.3h-2V7.4z"/>
			<path class="st0" d="M30.5,14.1l2.1,4.6h-2l-2-4.4h-3.2v4.4h-2V7.4h5.5c2.4,0,3.8,1.2,3.8,3.3v0.4C32.5,12.6,31.8,13.7,30.5,14.1
				z M30.6,10.6c0-0.9-0.6-1.4-1.7-1.4h-3.6v3.3h3.6c1.1,0,1.7-0.5,1.7-1.4V10.6z"/>
			<path class="st0" d="M42.2,9.2v3.4h5.8v1.8h-5.8v4.3h-2V7.4h8.2v1.8H42.2z"/>
			<path class="st0" d="M50.6,15.1v-3.9c0-2.4,1.7-4,5.1-4c3.4,0,5.1,1.5,5.1,4v3.9c0,2.4-1.8,3.9-5.1,3.9
				C52.4,19,50.6,17.5,50.6,15.1z M58.9,14.9v-3.5C58.9,9.9,58,9,55.8,9s-3.2,0.9-3.2,2.3v3.5c0,1.4,0.9,2.3,3.2,2.3
				C58,17.1,58.9,16.3,58.9,14.9z"/>
			<path class="st0" d="M70.9,14.1l2.1,4.6h-2l-2-4.4h-3.2v4.4h-2V7.4h5.5c2.4,0,3.8,1.2,3.8,3.3v0.4C73,12.6,72.3,13.7,70.9,14.1z
				 M71,10.6c0-0.9-0.6-1.4-1.7-1.4h-3.6v3.3h3.6c1.1,0,1.7-0.5,1.7-1.4V10.6z"/>
			<path class="st0" d="M75.4,15.1v-3.9c0-2.4,1.7-3.9,5.1-3.9c3.3,0,5.1,1.5,5.1,3.9v0.6h-2.1v-0.4c0-1.4-0.9-2.3-3-2.3
				c-2.1,0-3.1,0.8-3.1,2.3v3.6c0,1.4,1,2.3,3.1,2.3c2,0,3-0.8,3-2.3v-0.4h2.1v0.6c0,2.4-1.7,3.9-5.1,3.9S75.4,17.5,75.4,15.1z"/>
			<path class="st0" d="M90.3,9.2v3.1h5.6v1.8h-5.6v2.8h6.3v1.8h-8.2V7.4h8.2v1.8H90.3z"/>
		</g>
		<g>
			<defs>
				<path id="Clipping" d="M94.1,130.3H7.6c-3.9,0-7.2-3.2-7.2-7.2V7.8c0-3.9,3.2-7.2,7.2-7.2h86.4c3.9,0,7.2,3.2,7.2,7.2v115.2
					C101.3,127,98,130.3,94.1,130.3z"/>
			</defs>
			<clipPath id="Clipping_1_">
				<use xlink:href="#Clipping"  style="overflow:visible;"/>
			</clipPath>
			<g class="st2">
				<g>
					<path class="st0" d="M154.4,45.4l0.3,0l13.1-11.2l-89.1,8.8c2.3,3.2,4,6.7,5.1,10.4L154.4,45.4L154.4,45.4z"/>
					<path class="st0" d="M84.2,71.9c0,0.2-0.1,0.4-0.1,0.5c-0.1,0.3-0.2,0.7-0.3,1c-0.2,0.6-0.4,1.2-0.6,1.8c0,0.1,0,0.1-0.1,0.2
						c-0.2,0.4-0.3,0.9-0.5,1.3c-0.1,0.2-0.1,0.3-0.2,0.4c-0.1,0.3-0.3,0.7-0.5,1c-0.2,0.4-0.3,0.7-0.5,1.1c0,0,0,0,0,0.1
						C81,80.1,80.5,81,80,81.7l13.3-2.2l0.1,0l0.3-0.1L110,68.2L84.2,71.9C84.2,71.9,84.2,71.9,84.2,71.9z"/>
					<path class="st0" d="M122.3,63l0.3,0l16.1-11l-53.8,5.7c0,0,0,0.1,0,0.1c0.5,3.4,0.6,6.8,0.1,10.2L122.3,63L122.3,63z"/>
				</g>
				<g>
					<path class="st0" d="M-53,45.4l69.6,7.8c0.1-0.2,0.1-0.5,0.2-0.7c0.1-0.3,0.2-0.6,0.3-0.9c0.1-0.2,0.1-0.4,0.2-0.6
						c0.1-0.4,0.3-0.8,0.5-1.2c0-0.1,0.1-0.2,0.1-0.3c0.2-0.5,0.4-0.9,0.6-1.4c0,0,0,0,0,0c0.9-1.9,2-3.7,3.2-5.4l-87.6-8.6l0.2,0.1
						l-0.5-0.1L-53,45.4z"/>
					<path class="st0" d="M16.1,71.6l-24-3.5l0.3,0.2l-0.6-0.1L8,79.6l12.2,2C18.4,78.5,17,75.2,16.1,71.6z"/>
					<path class="st0" d="M-36.6,52l0.2,0.2l-0.6-0.1l16.1,11l36.3,4.8c-0.2-1.5-0.3-3-0.3-4.5c0-2,0.2-3.9,0.5-5.8L-36.6,52z"/>
				</g>
			</g>
		</g>
		<path class="st3" d="M94.1,130.1H7.6c-3.9,0-7.2-3.2-7.2-7.2V7.6c0-3.9,3.2-7.2,7.2-7.2h86.4c3.9,0,7.2,3.2,7.2,7.2v115.2
			C101.3,126.8,98,130.1,94.1,130.1z"/>
	</g>
</g>
<g id="REVERSE">
	<g id="Layer_10">
	</g>
</g>
</svg>
