<svg width="32" height="32" viewBox="0 0 32 32" fill="none" xmlns="http://www.w3.org/2000/svg">
<g clip-path="url(#clip0_4395_18413)">
<path d="M15.9666 27.9316C12.624 27.9316 9.28134 27.9316 5.87187 27.9316C4.80223 27.9985 4 27.1294 4 26.0598C4.06685 23.7199 4 21.3133 4 18.9734C4 17.8369 4.73538 17.1016 5.87187 17.1016C12.624 17.1016 19.376 17.1016 26.0613 17.1016C27.1978 17.1016 27.9331 17.8369 27.9331 18.9734C27.9331 21.3801 27.9331 23.7199 27.9331 26.1266C27.9331 27.2631 27.1978 27.9985 26.1281 27.9985C22.7187 27.9316 19.376 27.9316 15.9666 27.9316ZM16.0334 18.8397C12.6908 18.8397 9.41504 18.8397 6.07242 18.8397C5.80501 18.8397 5.73816 18.9066 5.73816 19.174C5.73816 19.9094 5.73816 20.6447 5.80501 21.3133C5.80501 22.784 5.80501 24.3216 5.80501 25.7924C5.80501 26.1266 5.80501 26.1266 6.13928 26.1266C7.40947 26.1266 8.61281 26.1266 9.88301 26.1266C15.1643 26.1266 20.5125 26.1266 25.7939 26.1266C26.195 26.1266 26.195 26.1266 26.195 25.7255C26.195 23.5194 26.195 21.3801 26.195 19.174C26.195 18.7729 26.195 18.7729 25.7939 18.7729C22.585 18.8397 19.3092 18.8397 16.0334 18.8397Z" fill="#181C32"/>
<path d="M16.0334 4C19.376 4 22.7855 4 26.195 4C27.0641 4 27.7326 4.53482 27.9331 5.4039C27.9331 5.5376 28 5.67131 28 5.80501C28 8.2117 28 10.6852 28 13.0919C28 14.1616 27.2646 14.8969 26.195 14.8969C23.5877 14.8969 20.9136 14.8969 18.3064 14.8969C14.1616 14.8969 10.0167 14.8969 5.87187 14.8969C4.93593 14.8969 4.20056 14.3621 4.06685 13.493C4 13.3593 4 13.1588 4 13.0251C4 10.6184 4 8.2117 4 5.80501C4 4.73538 4.73538 4 5.87187 4C9.21448 4 12.624 4 16.0334 4ZM15.9666 12.8245C19.2423 12.8245 22.5181 12.8245 25.8607 12.8245C26.195 12.8245 26.195 12.8245 26.195 12.4234C26.195 10.2173 26.195 8.01114 26.195 5.80501C26.195 5.5376 26.1281 5.47075 25.8607 5.47075C19.2423 5.47075 12.6908 5.47075 6.07242 5.47075C5.80501 5.47075 5.73816 5.5376 5.73816 5.80501C5.73816 8.01114 5.73816 10.2173 5.73816 12.4234C5.73816 12.8245 5.73816 12.8245 6.13928 12.8245C9.41504 12.8245 12.6908 12.8245 15.9666 12.8245Z" fill="#181C32"/>
<path d="M10.4846 24.1908C10.1504 24.1908 9.88297 24.0571 9.68241 23.8566C9.21445 23.3218 8.67963 22.7201 8.21166 22.1853C7.8774 21.7842 7.8774 21.2493 8.27851 20.9151C8.61277 20.5808 9.21445 20.6477 9.54871 20.9819C9.81612 21.2493 10.0835 21.5836 10.3509 21.9179C10.4846 22.0516 10.5515 22.0516 10.6852 21.9179C10.9526 21.5836 11.22 21.3162 11.4206 21.0488C11.7548 20.6477 12.2897 20.5808 12.6908 20.9151C13.0919 21.2493 13.0919 21.7842 12.7576 22.1853C12.2897 22.7201 11.8217 23.2549 11.3537 23.7897C11.0863 24.0571 10.8189 24.2577 10.4846 24.1908Z" fill="#181C32"/>
<path d="M12.9585 8.27862C12.9585 8.47918 12.8916 8.67974 12.7579 8.88029C12.2899 9.41511 11.822 10.0168 11.2872 10.5516C10.8192 11.0196 10.1507 11.0864 9.74955 10.5516C9.21473 10.0168 8.67991 9.41511 8.21195 8.81344C7.87769 8.41233 7.94454 7.94436 8.2788 7.6101C8.61306 7.27584 9.14788 7.27584 9.48214 7.67695C9.74955 7.94436 10.017 8.27862 10.2844 8.61288C10.4181 8.81344 10.4849 8.74659 10.6186 8.61288C10.886 8.27862 11.1535 8.01121 11.4209 7.67695C11.6883 7.40954 12.0894 7.27584 12.4236 7.47639C12.7579 7.6101 12.9585 7.87751 12.9585 8.27862Z" fill="#181C32"/>
</g>
<defs>
<clipPath id="clip0_4395_18413">
<rect width="24" height="24" fill="white" transform="translate(4 4)"/>
</clipPath>
</defs>
</svg>
