<svg width="32" height="32" viewBox="0 0 32 32" fill="none" xmlns="http://www.w3.org/2000/svg">
<g clip-path="url(#clip0_4394_17711)">
<path d="M28.5603 24.6213C28.387 25.3144 28.1271 26.0076 27.6938 26.5274C26.9141 27.4805 25.8744 28.0004 24.6614 28.0004C18.7697 28.0004 12.878 28.0004 6.89962 28.0004C4.73356 28.0004 3.00071 26.1809 2.91406 24.0148C2.91406 23.0617 3.26063 22.2819 3.69385 21.5022C6.20648 17.0834 8.71912 12.578 11.1451 8.07255C11.5783 7.37941 11.9249 6.59963 12.3581 5.90649C13.9177 3.30721 17.7299 3.30721 19.2029 5.90649C20.2426 7.63934 21.109 9.37219 22.1487 11.1917C23.9682 14.3975 25.7011 17.6899 27.5206 20.8957C27.8671 21.5022 28.3003 22.1953 28.4736 22.8884C28.4736 23.0617 28.5603 23.235 28.5603 23.3216C28.5603 23.8415 28.5603 24.1881 28.5603 24.6213ZM15.8238 26.0076C18.683 26.0076 21.5422 26.0076 24.3148 26.0076C24.5747 26.0076 24.8346 26.0076 25.0946 25.9209C26.3076 25.661 27.0007 24.1881 26.3076 22.9751C24.0549 18.9029 21.8021 14.8307 19.5494 10.6718C18.8563 9.45884 18.2498 8.24584 17.5567 7.03284C17.1234 6.3397 16.3437 5.99313 15.5639 6.07977C14.7841 6.16642 14.3509 6.68627 14.0043 7.29277C12.4447 10.2386 10.7985 13.0978 9.23897 16.0437C7.93933 18.383 6.63969 20.7224 5.4267 23.0617C4.8202 24.1881 5.4267 25.5744 6.63969 25.9209C6.89962 26.0076 7.15955 26.0076 7.41948 26.0076C10.1054 26.0076 12.9646 26.0076 15.8238 26.0076Z" fill="#181C32"/>
<path d="M14.7832 15.0051C14.7832 14.052 14.7832 13.099 14.7832 12.0592C14.7832 11.4527 15.2164 11.0195 15.8229 11.0195C16.4294 11.0195 16.8626 11.4527 16.8626 12.0592C16.8626 14.052 16.8626 15.9582 16.8626 17.9509C16.8626 18.5574 16.4294 18.9906 15.8229 18.9906C15.2164 18.9906 14.7832 18.5574 14.7832 17.9509C14.7832 16.9979 14.7832 15.9582 14.7832 15.0051Z" fill="#181C32"/>
<path d="M15.8229 20.9805C16.4294 20.9805 16.8626 21.4137 16.8626 22.0202C16.8626 22.6267 16.4294 23.0599 15.8229 23.0599C15.2164 23.0599 14.7832 22.6267 14.7832 22.0202C14.7832 21.4137 15.2164 20.9805 15.8229 20.9805Z" fill="#181C32"/>
</g>
<defs>
<clipPath id="clip0_4394_17711">
<rect width="25.5596" height="24" fill="white" transform="translate(3 4)"/>
</clipPath>
</defs>
</svg>
