<svg width="32" height="32" viewBox="0 0 32 32" fill="none" xmlns="http://www.w3.org/2000/svg">
<g clip-path="url(#clip0_4394_17750)">
<path d="M2.99959 12.1745C3.17413 11.68 3.46504 11.2436 3.95959 11.0109C4.2505 10.8655 4.5705 10.8073 4.91959 10.8073C6.08322 10.8073 7.24686 10.8073 8.43959 10.8073C8.64322 10.8073 8.78868 10.7491 8.93413 10.6327C11.5523 8.53818 14.1705 6.44364 16.7887 4.34909C16.9923 4.17455 17.225 4 17.516 4C17.9814 4 18.3305 4.32 18.3887 4.75636C18.4178 4.93091 18.4178 5.10545 18.4178 5.25091C18.4178 12.4364 18.4178 19.5927 18.4178 26.7782C18.4178 26.8945 18.4178 27.0109 18.3887 27.1273C18.2723 27.9418 17.545 28.2327 16.905 27.7382C16.3232 27.3018 15.7705 26.8364 15.1887 26.3709C13.065 24.6836 10.9705 22.9964 8.84686 21.3091C8.70141 21.1927 8.55595 21.1345 8.38141 21.1345C7.18868 21.1345 5.99595 21.1345 4.80322 21.1345C4.04686 21.1345 3.43595 20.8145 3.08686 20.1164C3.02868 20 2.99959 19.8836 2.94141 19.7673C2.99959 17.2655 2.99959 14.7345 2.99959 12.1745ZM16.6723 15.9855C16.6723 13.0473 16.6723 10.08 16.6723 7.14182C16.6723 7.08364 16.6723 6.99636 16.6723 6.93818C16.6723 6.88 16.7014 6.82182 16.6432 6.76364C16.585 6.73455 16.556 6.79273 16.4978 6.82182C16.4687 6.85091 16.4105 6.88 16.3814 6.90909C14.2869 8.59636 12.1923 10.2545 10.0978 11.9418C9.92322 12.0582 9.89413 12.2036 9.89413 12.4073C9.89413 14.7927 9.89413 17.1491 9.89413 19.5345C9.89413 19.7382 9.95232 19.8836 10.1269 20.0291C11.8723 21.4255 13.6178 22.8218 15.3632 24.1891C15.7414 24.48 16.1196 24.7709 16.4687 25.0909C16.5269 25.12 16.585 25.2364 16.6432 25.1782C16.7014 25.1491 16.6723 25.0327 16.6723 24.9745C16.6723 24.9164 16.6723 24.8582 16.6723 24.8C16.6723 21.8618 16.6723 18.9236 16.6723 15.9855ZM8.0905 16.0145C8.0905 14.9673 8.0905 13.9491 8.0905 12.9018C8.0905 12.6691 8.03232 12.5818 7.79959 12.6109C6.86868 12.6109 5.96686 12.6109 5.03595 12.6109C4.80322 12.6109 4.71595 12.6691 4.71595 12.9018C4.71595 14.9673 4.71595 17.0327 4.71595 19.0982C4.71595 19.3018 4.77413 19.3891 5.00686 19.3891C5.93777 19.3891 6.83959 19.3891 7.7705 19.3891C8.00322 19.3891 8.0905 19.3309 8.0905 19.0691C8.0905 18.0509 8.0905 17.0327 8.0905 16.0145Z" fill="#181C32"/>
<path d="M28.6586 17.0019C28.5714 17.7001 28.4841 18.3983 28.2805 19.0674C27.7277 21.1328 26.7095 22.9074 25.2259 24.4201C24.8477 24.8274 24.295 24.8565 23.9168 24.4783C23.5386 24.1292 23.5386 23.6055 23.9459 23.1692C24.7895 22.2965 25.4877 21.3074 25.9823 20.2019C26.5932 18.8346 26.9132 17.4092 26.8841 15.8965C26.855 13.1619 25.8659 10.8346 24.0041 8.88555C23.8005 8.65282 23.6259 8.391 23.655 8.071C23.6841 7.69282 23.8877 7.431 24.2659 7.31464C24.6441 7.19827 24.935 7.31464 25.1968 7.57646C25.6332 8.01282 26.0405 8.50736 26.4186 9.00191C27.6695 10.7765 28.4259 12.7255 28.6295 14.8783C28.6295 14.9074 28.6586 14.9655 28.6586 14.9946C28.6586 15.6637 28.6586 16.3328 28.6586 17.0019Z" fill="#181C32"/>
<path d="M25.2548 16.0155C25.1966 18.3428 24.4111 20.3501 22.782 22.0083C22.5202 22.2701 22.2293 22.3864 21.8802 22.2701C21.5311 22.1537 21.3275 21.921 21.2402 21.5719C21.182 21.281 21.2984 21.0192 21.502 20.7864C22.0839 20.1755 22.5784 19.5064 22.8984 18.721C23.6548 16.8882 23.6548 15.0846 22.8984 13.2519C22.5784 12.4664 22.0839 11.7973 21.502 11.1864C21.2402 10.9246 21.153 10.6337 21.2693 10.2555C21.3857 9.93552 21.6184 9.73189 21.9675 9.6737C22.2584 9.61552 22.5202 9.7028 22.753 9.93552C24.0911 11.2737 24.8766 12.8737 25.1675 14.7355C25.2257 15.1428 25.2548 15.5792 25.2548 16.0155Z" fill="#181C32"/>
</g>
<defs>
<clipPath id="clip0_4394_17750">
<rect width="25.6582" height="24" fill="white" transform="translate(3 4)"/>
</clipPath>
</defs>
</svg>
