<svg width="32" height="32" viewBox="0 0 32 32" fill="none" xmlns="http://www.w3.org/2000/svg">
<g clip-path="url(#clip0_4394_17767)">
<path d="M28.0004 14.0004C27.9122 16.2945 27.471 18.4122 26.2357 20.3533C24.8239 22.5592 22.7945 23.971 20.4122 24.7651C20.1475 24.8533 19.7945 24.9416 19.5298 24.9416C18.5592 24.7651 18.1181 23.7945 18.7357 23.0004C19.0886 22.5592 19.4416 22.118 19.7945 21.5886C20.3239 20.8828 20.7651 20.0886 21.1181 19.2945C21.2063 19.118 21.2063 19.0298 20.9416 18.9416C18.6475 18.4122 16.971 16.3828 16.7945 14.0886C16.5298 11.3533 18.3828 8.44158 21.6475 7.91216C24.2063 7.55922 26.7651 9.14746 27.6475 11.7063C27.7357 12.0592 27.8239 12.4122 27.9122 12.7651C28.0004 13.2945 28.0004 13.6475 28.0004 14.0004ZM21.1181 22.7357C23.0592 21.8533 24.5592 20.4416 25.4416 18.4122C25.971 17.2651 26.2357 16.0298 26.3239 14.7945C26.4122 14.0886 26.4122 13.3828 26.2357 12.6769C25.7063 10.6475 23.6769 9.32393 21.6475 9.76511C19.971 10.118 18.7357 11.4416 18.471 13.2063C18.2945 14.7945 19.0886 16.3828 20.5004 17.1769C20.8533 17.3533 21.2945 17.5298 21.7357 17.618C22.5298 17.7945 22.971 18.4122 22.8828 19.2063C22.8828 19.5592 22.7063 19.9122 22.5298 20.2651C22.1769 21.1475 21.6475 21.9416 21.1181 22.7357Z" fill="#181C32"/>
<path d="M15.2941 13.8243C15.2059 15.942 14.8529 17.9714 13.8824 19.8243C12.7353 21.942 10.8824 23.442 8.67647 24.4125C8.23529 24.589 7.79412 24.7655 7.35294 24.8537C6.82353 25.0302 6.29412 24.8537 5.94118 24.3243C5.67647 23.8831 5.67647 23.2655 6.11765 22.8243C7.08824 21.7655 7.88235 20.6184 8.41176 19.2949C8.41176 19.2067 8.41176 19.1184 8.14706 19.0302C5.76471 18.4125 4 16.2067 4 13.7361C4 11.089 5.85294 8.53019 8.94118 8.08901C11.4118 7.73607 13.7941 9.14784 14.7647 11.442C15.1176 12.2361 15.2941 13.0302 15.2941 13.8243ZM8.32353 22.7361C8.41176 22.7361 8.41176 22.7361 8.41176 22.7361C8.5 22.7361 8.58824 22.6478 8.58824 22.6478C10.8824 21.5008 12.3824 19.6478 13.0882 17.2655C13.4412 15.942 13.7059 14.6184 13.5294 13.2949C13.2647 11.1772 11.3235 9.50078 9.02941 9.85372C6.91176 10.0302 5.23529 12.2361 5.67647 14.3537C6.02941 16.0302 7.08824 17.089 8.76471 17.5302C9.73529 17.7949 10.4412 18.7655 9.91176 19.8243C9.64706 20.5302 9.29412 21.2361 8.85294 21.8537C8.67647 22.1184 8.5 22.3831 8.32353 22.7361Z" fill="#181C32"/>
</g>
<defs>
<clipPath id="clip0_4394_17767">
<rect width="24" height="16.9412" fill="white" transform="translate(4 8)"/>
</clipPath>
</defs>
</svg>
