<svg width="32" height="32" viewBox="0 0 32 32" fill="none" xmlns="http://www.w3.org/2000/svg">
<g clip-path="url(#clip0_4395_18426)">
<path d="M14.1701 16.2398C14.1701 16.5499 14.0461 16.736 13.8601 16.984C11.1314 19.7127 8.40269 22.4414 5.67401 25.1081C5.2399 25.5422 4.61975 25.5422 4.24765 25.1701C3.87556 24.798 3.87556 24.1778 4.37169 23.7437C6.79029 21.3251 9.20889 18.9065 11.5655 16.5499C11.8756 16.2398 11.8756 16.2398 11.5655 15.9298C9.20889 13.5112 6.79029 11.1546 4.37169 8.73597C4.18564 8.54992 3.99959 8.30186 3.99959 7.92977C3.99959 7.55768 4.18564 7.2476 4.49572 7.06155C4.80579 6.87551 5.17789 6.93752 5.48796 7.12357C5.612 7.18558 5.67401 7.30961 5.79804 7.37163C8.46471 10.0383 11.1934 12.705 13.8601 15.4336C14.0461 15.6817 14.1701 15.9298 14.1701 16.2398Z" fill="#181C32"/>
<path d="M21.0541 16.2406C21.0541 16.5507 20.9301 16.7987 20.744 16.9848C18.0153 19.7135 15.2867 22.4421 12.62 25.1088C12.1859 25.5429 11.5657 25.6049 11.1936 25.1708C10.8215 24.7987 10.8215 24.1786 11.2557 23.7445C13.6743 21.3259 16.0929 18.9073 18.5115 16.4887C18.8215 16.1786 18.8215 16.1786 18.5115 15.9305C16.0929 13.5119 13.7363 11.1553 11.3177 8.73672C11.0696 8.48866 10.9456 8.30261 10.9456 7.93052C10.9456 7.55843 11.1316 7.24835 11.4417 7.0623C11.7518 6.87626 12.1239 6.87626 12.434 7.12432C12.558 7.18633 12.682 7.31037 12.744 7.4344C15.4107 10.1011 18.0774 12.7677 20.806 15.4344C20.9301 15.6825 21.1161 15.9305 21.0541 16.2406Z" fill="#181C32"/>
<path d="M27.9381 16.2406C27.9381 16.5507 27.8141 16.7367 27.628 16.9848C24.8994 19.7135 22.1707 22.4421 19.504 25.1088C19.0699 25.5429 18.4497 25.6049 18.0777 25.1708C17.7056 24.7987 17.7056 24.1786 18.1397 23.7445C20.5583 21.3259 22.9769 18.9073 25.3335 16.5507C25.6435 16.2406 25.6435 16.2406 25.3335 15.9305C22.9149 13.5119 20.5583 11.1553 18.1397 8.73672C17.8916 8.48866 17.7676 8.30261 17.7676 7.93052C17.7676 7.55843 17.8916 7.24835 18.2637 7.0623C18.6358 6.87626 18.9459 6.87626 19.2559 7.12432C19.38 7.18633 19.442 7.31037 19.566 7.37238C22.2327 10.039 24.8994 12.7057 27.628 15.3724C27.8141 15.6825 28.0001 15.9305 27.9381 16.2406Z" fill="#181C32"/>
</g>
<defs>
<clipPath id="clip0_4395_18426">
<rect width="24" height="18.4806" fill="white" transform="translate(4 7)"/>
</clipPath>
</defs>
</svg>
