<svg width="32" height="32" viewBox="0 0 32 32" fill="none" xmlns="http://www.w3.org/2000/svg">
<g clip-path="url(#clip0_4395_18375)">
<path d="M20 24.5296C19.8492 24.8656 19.648 25 19.3464 25C13.7654 25 8.23464 25 2.65363 25C2.20112 25 2 24.7312 2 24.1265C2 19.0198 2 13.9802 2 8.87352C2 8.26877 2.20112 8 2.65363 8C8.23464 8 13.7654 8 19.3464 8C19.648 8 19.8492 8.13439 20 8.47036C20 13.8458 20 19.1542 20 24.5296ZM13.514 16.5336C13.514 14.3162 13.514 12.0316 13.514 9.81423C13.514 9.47826 13.514 9.47826 13.2626 9.47826C11.7542 9.47826 10.1955 9.47826 8.68715 9.47826C8.43575 9.47826 8.43575 9.47826 8.43575 9.81423C8.43575 14.3162 8.43575 18.8182 8.43575 23.3202C8.43575 23.6561 8.43575 23.6561 8.68715 23.6561C10.1955 23.6561 11.7542 23.6561 13.2626 23.6561C13.514 23.6561 13.514 23.6561 13.514 23.3202C13.514 21.0356 13.514 18.751 13.514 16.5336ZM7.43017 16.5336C7.43017 14.249 7.43017 12.0316 7.43017 9.74704C7.43017 9.54545 7.37989 9.47826 7.22905 9.47826C5.92179 9.47826 4.61453 9.47826 3.35754 9.47826C3.10615 9.47826 3.10615 9.47826 3.10615 9.81423C3.10615 14.3162 3.10615 18.8182 3.10615 23.3202C3.10615 23.5889 3.15642 23.6561 3.30726 23.6561C4.61453 23.6561 5.87151 23.6561 7.17877 23.6561C7.43017 23.6561 7.43017 23.6561 7.43017 23.3202C7.43017 21.0356 7.43017 18.751 7.43017 16.5336ZM18.9441 16.5336C18.9441 14.249 18.9441 12.0316 18.9441 9.74704C18.9441 9.54545 18.8939 9.47826 18.743 9.47826C17.4358 9.47826 16.1285 9.47826 14.8212 9.47826C14.6201 9.47826 14.6201 9.54545 14.6201 9.81423C14.6201 14.3162 14.6201 18.8182 14.6201 23.3202C14.6201 23.5217 14.6704 23.6561 14.8212 23.6561C16.1285 23.6561 17.4358 23.6561 18.6927 23.6561C18.9441 23.6561 18.9441 23.6561 18.9441 23.3202C18.9441 21.0356 18.9441 18.751 18.9441 16.5336Z" fill="#181C32"/>
</g>
<mask id="path-2-inside-1_4395_18375" fill="white">
<rect x="22" y="8" width="7" height="17" rx="0.5"/>
</mask>
<rect x="22" y="8" width="7" height="17" rx="0.5" stroke="#181C32" stroke-width="2.4" mask="url(#path-2-inside-1_4395_18375)"/>
<defs>
<clipPath id="clip0_4395_18375">
<rect width="18" height="17" fill="white" transform="translate(2 8)"/>
</clipPath>
</defs>
</svg>
