<svg width="32" height="32" viewBox="0 0 32 32" fill="none" xmlns="http://www.w3.org/2000/svg">
<g clip-path="url(#clip0_4395_18364)">
<path d="M28 24.4916C27.7989 24.8268 27.5307 24.9609 27.1285 24.9609C19.6872 24.9609 12.3128 24.9609 4.87151 24.9609C4.26816 24.9609 4 24.6927 4 24.0894C4 18.9944 4 13.9665 4 8.87151C4 8.26816 4.26816 8 4.87151 8C12.3128 8 19.6872 8 27.1285 8C27.5307 8 27.7989 8.13408 28 8.46927C28 13.8324 28 19.1285 28 24.4916ZM19.352 16.514C19.352 14.3017 19.352 12.0223 19.352 9.81006C19.352 9.47486 19.352 9.47486 19.0168 9.47486C17.0056 9.47486 14.9274 9.47486 12.9162 9.47486C12.581 9.47486 12.581 9.47486 12.581 9.81006C12.581 14.3017 12.581 18.7933 12.581 23.2849C12.581 23.6201 12.581 23.6201 12.9162 23.6201C14.9274 23.6201 17.0056 23.6201 19.0168 23.6201C19.352 23.6201 19.352 23.6201 19.352 23.2849C19.352 21.0056 19.352 18.7263 19.352 16.514ZM11.2402 16.514C11.2402 14.2346 11.2402 12.0223 11.2402 9.74302C11.2402 9.5419 11.1732 9.47486 10.9721 9.47486C9.22905 9.47486 7.48603 9.47486 5.81006 9.47486C5.47486 9.47486 5.47486 9.47486 5.47486 9.81006C5.47486 14.3017 5.47486 18.7933 5.47486 23.2849C5.47486 23.5531 5.5419 23.6201 5.74302 23.6201C7.48603 23.6201 9.16201 23.6201 10.905 23.6201C11.2402 23.6201 11.2402 23.6201 11.2402 23.2849C11.2402 21.0056 11.2402 18.7263 11.2402 16.514ZM26.5922 16.514C26.5922 14.2346 26.5922 12.0223 26.5922 9.74302C26.5922 9.5419 26.5251 9.47486 26.324 9.47486C24.581 9.47486 22.838 9.47486 21.095 9.47486C20.8268 9.47486 20.8268 9.5419 20.8268 9.81006C20.8268 14.3017 20.8268 18.7933 20.8268 23.2849C20.8268 23.486 20.8939 23.6201 21.095 23.6201C22.838 23.6201 24.581 23.6201 26.257 23.6201C26.5922 23.6201 26.5922 23.6201 26.5922 23.2849C26.5922 21.0056 26.5922 18.7263 26.5922 16.514Z" fill="#181C32"/>
</g>
<defs>
<clipPath id="clip0_4395_18364">
<rect width="24" height="16.9609" fill="white" transform="translate(4 8)"/>
</clipPath>
</defs>
</svg>
