<svg width="32" height="32" viewBox="0 0 32 32" fill="none" xmlns="http://www.w3.org/2000/svg">
<g clip-path="url(#clip0_4394_17799)">
<path d="M29.694 5.53005C29.235 4.45902 28.3169 4 27.2459 4H4.60109C3.83607 4 3.22404 4.30601 2.76503 4.76503C2.45902 5.07104 2.15301 5.53005 2 6.14208V15.1694C2.30601 16.5464 3.37705 17.1585 4.9071 17.1585C6.28415 17.1585 7.5082 17.1585 8.88525 17.1585H14.3934C14.5464 17.1585 14.5464 17.1585 14.5464 17.1585V17.3115V24.9617C14.5464 25.1148 14.5464 25.1148 14.5464 25.2678C14.5464 25.4208 14.6995 25.5738 14.8525 25.5738C15.0055 25.5738 15.0055 25.5738 15.1585 25.4208L15.9235 24.9617C16.6885 24.6557 17.3005 24.3497 18.0656 23.8907L18.6776 25.4208C18.9836 26.0328 19.2896 26.6448 19.5956 27.4098C19.5956 27.5628 19.7486 27.7158 20.0546 27.7158C20.2077 27.7158 20.2077 27.7158 20.3607 27.5628C21.5847 26.9508 22.8087 26.4918 24.0328 25.8798C24.1858 25.8798 24.3388 25.7268 24.3388 25.5738C24.3388 25.4208 24.3388 25.2678 24.3388 25.1148L23.5738 23.4317C23.2678 22.8197 22.9617 22.2076 22.8087 21.4426C23.4208 21.1366 24.1858 20.8306 24.7978 20.3716L25.4098 20.0656C25.5628 19.9126 25.7158 19.9126 25.7158 19.7596C25.7158 19.6066 25.5628 19.4536 25.4098 19.3005L22.5027 16.8525H27.0929C28.623 16.8525 29.694 15.7814 29.694 14.2514V6.44809C29.8345 5.97632 29.8345 5.97632 29.694 5.53005ZM27.2459 5.53005C27.8579 5.53005 28.3169 6.14208 28.3169 6.60109V14.4044C28.3169 15.0164 28.0109 15.3224 27.3989 15.3224H20.9727C20.8197 15.3224 20.8197 15.3224 20.6667 15.1694C18.8306 13.6393 16.9945 11.9563 15.1585 10.2732C15.1585 10.2732 15.0055 10.1202 14.8525 10.1202H14.6995C14.5464 10.5792 14.5464 10.7322 14.5464 10.8852V15.3224V15.4754H4.7541C4.60109 15.4754 4.44809 15.4754 4.29508 15.4754C3.83607 15.3224 3.68306 15.0164 3.68306 14.5574C3.68306 11.8033 3.68306 9.20219 3.68306 6.44809C3.68306 5.98907 3.98907 5.68306 4.7541 5.53005H27.2459ZM18.8306 21.9016C18.6776 21.9016 18.6776 21.9016 18.5246 22.0546C18.0656 22.2077 17.6066 22.5137 17.3005 22.6667L16.2295 23.1257V13.6393L23.1148 19.6066L21.1257 20.6776C20.6667 20.8306 20.6667 20.9836 20.8197 21.4426L21.1257 22.2077C21.5847 23.1257 21.8907 24.0437 22.3497 24.9617C21.8907 25.1148 21.2787 25.4208 20.8197 25.5738C20.8197 25.5738 19.5956 22.8197 19.2896 22.2077C19.1366 22.2077 18.9836 21.9016 18.8306 21.9016Z" fill="#181C32"/>
</g>
<defs>
<clipPath id="clip0_4394_17799">
<rect width="28" height="23.7158" fill="white" transform="translate(2 4)"/>
</clipPath>
</defs>
</svg>
