<svg width="32" height="32" viewBox="0 0 32 32" fill="none" xmlns="http://www.w3.org/2000/svg">
<g clip-path="url(#clip0_4394_17802)">
<path d="M16.942 21.3652C14.8942 21.3652 12.7645 21.2833 10.7167 21.3652C9.40614 21.3652 8.09556 20.5461 7.93174 18.744C7.84983 17.3515 7.6041 15.8771 7.52218 14.4846C7.35836 13.256 7.27645 12.0273 7.11263 10.7986C6.94881 9.48805 6.78498 8.09556 6.62116 6.70307C6.62116 6.45734 6.53925 6.2116 6.53925 5.96587C6.53925 5.72014 6.45734 5.63823 6.2116 5.63823C5.72014 5.63823 5.31058 5.63823 4.81911 5.63823C4.32765 5.72014 4 5.31058 4 4.81911C4 4.32765 4.32765 4 4.81911 4C5.63823 4 6.45734 4 7.27645 4C7.76792 4 8.09556 4.24573 8.09556 4.7372C8.17747 5.72014 8.3413 6.62116 8.42321 7.6041C8.50512 8.09556 8.50512 8.09556 9.0785 8.09556C14.7304 8.09556 20.3823 8.09556 26.116 8.09556C27.099 8.09556 27.8362 8.75085 27.8362 9.73379C27.8362 10.1433 27.7543 10.5529 27.6724 10.8805C27.099 13.6655 26.4437 16.4505 25.8703 19.3174C25.6246 20.628 24.6416 21.3652 23.3311 21.3652C21.1195 21.3652 19.0717 21.3652 16.942 21.3652ZM17.4334 9.8157C14.6485 9.8157 11.8635 9.8157 9.0785 9.8157C8.75085 9.8157 8.75085 9.8157 8.75085 10.1433C8.75085 10.471 8.83276 10.8805 8.83276 11.2082C8.99659 12.6007 9.16041 14.0751 9.32423 15.4676C9.48805 16.6143 9.56997 17.7611 9.73379 18.9898C9.8157 19.3993 9.97952 19.6451 10.3891 19.727C10.5529 19.727 10.7167 19.727 10.7986 19.727C14.6485 19.727 18.4983 19.727 22.2662 19.727C22.5939 19.727 22.9215 19.727 23.2491 19.727C23.7406 19.727 24.0683 19.4812 24.1502 18.9898C24.8055 16.041 25.3788 13.0922 26.0341 10.1433C26.116 9.8157 26.116 9.8157 25.7884 9.8157C23.0034 9.8157 20.2184 9.8157 17.4334 9.8157Z" fill="#181C32"/>
<path d="M13.9927 25.5432C13.9927 26.9356 12.8459 28.0005 11.4534 28.0005C10.0609 28.0005 8.99609 26.8537 8.99609 25.4612C8.99609 24.0688 10.1429 23.0039 11.5353 23.0039C12.8459 23.0039 13.9927 24.1507 13.9927 25.5432ZM11.4534 24.724C11.0439 24.724 10.6343 25.1336 10.6343 25.5432C10.6343 25.9527 11.0439 26.3623 11.4534 26.3623C11.863 26.3623 12.2725 25.9527 12.2725 25.5432C12.2725 25.1336 11.863 24.724 11.4534 24.724Z" fill="#181C32"/>
<path d="M21.3654 23.0039C22.7579 23.0039 23.8228 24.1507 23.8228 25.5432C23.8228 26.9356 22.676 28.0005 21.2835 28.0005C19.891 28.0005 18.8262 26.8537 18.8262 25.4612C18.9081 24.1507 19.9729 23.0039 21.3654 23.0039ZM22.1845 25.5432C22.1845 25.1336 21.775 24.724 21.3654 24.724C20.9559 24.724 20.5463 25.1336 20.5463 25.5432C20.5463 25.9527 20.9559 26.3623 21.3654 26.3623C21.775 26.3623 22.1845 25.9527 22.1845 25.5432Z" fill="#181C32"/>
</g>
<defs>
<clipPath id="clip0_4394_17802">
<rect width="23.8362" height="24" fill="white" transform="translate(4 4)"/>
</clipPath>
</defs>
</svg>
