<svg width="32" height="32" viewBox="0 0 32 32" fill="none" xmlns="http://www.w3.org/2000/svg">
<g clip-path="url(#clip0_4394_17815)">
<path d="M28.0001 24.7249C27.7891 25.0941 27.5254 25.2524 27.0506 25.2524C21.9869 25.2524 16.9759 25.2524 11.9122 25.2524C11.7012 25.2524 11.4902 25.2524 11.3319 25.0941C11.0682 24.8831 10.91 24.6721 11.0155 24.3029C11.0682 23.9864 11.2792 23.7754 11.5957 23.6699C11.7539 23.6172 11.8594 23.6172 12.0177 23.6172C17.0287 23.6172 22.0396 23.6172 27.0506 23.6172C27.4726 23.6172 27.7891 23.7754 28.0001 24.1447C28.0001 24.4084 28.0001 24.5666 28.0001 24.7249Z" fill="#181C32"/>
<path d="M28.0002 8.79713C27.7893 9.16636 27.4728 9.32461 27.0508 9.32461C22.0398 9.32461 17.0288 9.32461 12.0178 9.32461C11.8596 9.32461 11.7541 9.32461 11.6486 9.27186C11.2794 9.16636 11.0156 8.84988 11.0156 8.48065C11.0156 8.11142 11.3321 7.79493 11.7541 7.74219C11.8596 7.74219 11.9123 7.74219 12.0178 7.74219C17.0288 7.74219 22.0925 7.74219 27.1035 7.74219C27.5255 7.74219 27.842 7.90043 28.053 8.26966C28.0002 8.4279 28.0002 8.58614 28.0002 8.79713Z" fill="#181C32"/>
<path d="M28.0007 16.76C27.8425 17.1292 27.526 17.2875 27.104 17.2875C21.9876 17.2875 16.9238 17.2875 11.8073 17.2875C11.2799 17.2875 10.8051 16.76 11.0161 16.2325C11.1216 15.9161 11.3854 15.7578 11.7018 15.7578C11.7546 15.7578 11.8601 15.7578 11.9128 15.7578C16.9766 15.7578 21.9876 15.7578 27.0513 15.7578C27.4733 15.7578 27.7898 15.9161 27.948 16.2853C28.0007 16.4435 28.0007 16.6018 28.0007 16.76Z" fill="#181C32"/>
<path d="M4 16.4992C4 16.2882 4 16.0772 4 15.8662C4 14.864 4.63297 14.1255 5.63516 14.02C6.21538 13.9673 6.84835 13.9673 7.48132 14.02C8.32527 14.1255 8.95824 14.7057 9.01099 15.5497C9.06374 16.1827 9.06374 16.8684 9.01099 17.5013C8.90549 18.3453 8.32527 18.9255 7.48132 19.031C6.84835 19.0838 6.16264 19.0838 5.52967 19.031C4.63297 18.8728 4 18.1871 4 17.2904C4 17.0266 4 16.7629 4 16.4992ZM7.48132 16.4992C7.48132 16.2882 7.48132 16.0772 7.48132 15.8662C7.48132 15.6552 7.37582 15.5497 7.16484 15.5497C6.74286 15.5497 6.26813 15.5497 5.84615 15.5497C5.63516 15.5497 5.52967 15.6552 5.52967 15.8662C5.52967 16.3409 5.52967 16.7629 5.52967 17.2376C5.52967 17.3959 5.63516 17.5541 5.79341 17.5541C6.26813 17.5541 6.69011 17.5541 7.16484 17.5541C7.32308 17.5541 7.42857 17.4486 7.42857 17.2904C7.48132 16.9739 7.48132 16.7629 7.48132 16.4992Z" fill="#181C32"/>
<path d="M6.58462 6.00147C6.9011 6.00147 7.27033 5.94872 7.69231 6.05422C8.48352 6.2652 9.01099 6.95092 9.06374 7.74213C9.06374 8.2696 9.06374 8.79707 9.06374 9.32455C9.01099 10.2212 8.21978 11.0125 7.32308 11.0652C6.7956 11.0652 6.26813 11.0652 5.74066 11.0652C4.73846 11.0125 4 10.2212 4 9.2718C4 8.74433 4 8.21685 4 7.68938C4 6.79268 4.79121 6.00147 5.74066 6.00147C6.0044 6.00147 6.26813 6.00147 6.58462 6.00147ZM7.48132 8.53334C7.48132 8.32235 7.48132 8.05861 7.48132 7.84762C7.48132 7.63663 7.37582 7.53114 7.16483 7.53114C6.74286 7.53114 6.26813 7.53114 5.84615 7.53114C5.63516 7.53114 5.52967 7.63663 5.52967 7.84762C5.52967 8.32235 5.52967 8.74433 5.52967 9.21905C5.52967 9.43004 5.63516 9.48279 5.84615 9.48279C6.32088 9.48279 6.74286 9.48279 7.21758 9.48279C7.42857 9.48279 7.48132 9.37729 7.48132 9.21905C7.48132 8.95531 7.48132 8.74433 7.48132 8.53334Z" fill="#181C32"/>
<path d="M6.53187 26.9934C6.26813 26.9934 6.0044 26.9934 5.74066 26.9934C4.79121 26.9934 4 26.2022 4 25.2528C4 24.7253 4 24.1978 4 23.6703C4 22.7209 4.73846 21.9297 5.68791 21.9297C6.21538 21.9297 6.74286 21.9297 7.32308 21.9297C8.27253 21.9297 9.01099 22.7209 9.06374 23.6703C9.06374 24.1978 9.06374 24.7253 9.06374 25.2528C9.06374 26.2022 8.27253 26.9934 7.32308 26.9934C7.00659 26.9934 6.74286 26.9934 6.53187 26.9934ZM7.48132 24.5143C7.48132 24.3033 7.48132 24.0396 7.48132 23.8286C7.48132 23.6703 7.42857 23.5649 7.21758 23.5649C6.74286 23.5649 6.32088 23.5649 5.84615 23.5649C5.63516 23.5649 5.52967 23.6703 5.52967 23.8286C5.52967 24.3033 5.52967 24.7253 5.52967 25.2C5.52967 25.411 5.63516 25.5165 5.79341 25.5165C6.26813 25.5165 6.69011 25.5165 7.16483 25.5165C7.32308 25.5165 7.42857 25.411 7.42857 25.2528C7.48132 24.989 7.48132 24.7253 7.48132 24.5143Z" fill="#181C32"/>
</g>
<defs>
<clipPath id="clip0_4394_17815">
<rect width="24" height="20.9934" fill="white" transform="translate(4 6)"/>
</clipPath>
</defs>
</svg>
