<svg width="32" height="32" viewBox="0 0 32 32" fill="none" xmlns="http://www.w3.org/2000/svg">
<g clip-path="url(#clip0_4394_17837)">
<path d="M4.47059 28.0007C4.17647 27.8242 4 27.5889 4 27.236C4 26.883 4.29412 26.5889 4.64706 26.5301C4.70588 26.5301 4.82353 26.5301 4.88235 26.5301C5.41176 26.5301 5.41176 26.5301 5.41176 25.9419C5.41176 24.6477 5.41176 23.3536 5.41176 22.0595C5.41176 21.7066 5.52941 21.4125 5.76471 21.1772C6 20.9419 6.23529 20.883 6.52941 20.883C7.17647 20.883 7.82353 20.883 8.47059 20.883C9.11765 20.883 9.64706 21.4125 9.64706 22.0595C9.64706 23.4125 9.64706 24.7654 9.64706 26.1772C9.64706 26.5301 9.64706 26.5301 10 26.5301C10.2353 26.5301 10.5294 26.5301 10.7647 26.5301C11 26.5301 11.0588 26.4713 11.0588 26.236C11.0588 24.883 11.0588 23.4713 11.0588 22.1183C11.0588 21.5301 11.0588 20.9419 11.0588 20.4125C11.0588 19.7066 11.5882 19.236 12.2353 19.236C12.8824 19.236 13.4706 19.236 14.1176 19.236C14.7647 19.236 15.2941 19.7654 15.2941 20.4125C15.2941 22.3536 15.2941 24.2948 15.2941 26.236C15.2941 26.4713 15.3529 26.5301 15.5882 26.5301C15.8824 26.5301 16.1176 26.5301 16.4118 26.5301C16.6471 26.5301 16.6471 26.4713 16.6471 26.236C16.6471 25.4713 16.6471 24.6477 16.6471 23.883C16.6471 21.883 16.6471 19.883 16.6471 17.883C16.6471 17.0595 17.1176 16.5889 17.9412 16.5889C18.5294 16.5889 19.1176 16.5889 19.6471 16.5889C20.4118 16.5889 20.8824 17.0595 20.8824 17.8242C20.8824 20.5889 20.8824 23.3536 20.8824 26.1772C20.8824 26.4713 20.8824 26.4713 21.1765 26.4713C21.4706 26.4713 21.7647 26.4713 22.0588 26.4713C22.1765 26.4713 22.2353 26.4125 22.2353 26.2948C22.2353 26.236 22.2353 26.1772 22.2353 26.0595C22.2353 21.7654 22.2353 17.4713 22.2353 13.1183C22.2353 12.6477 22.4118 12.2948 22.8235 12.0007C23 11.883 23.1765 11.8242 23.4118 11.8242C24.0588 11.8242 24.6471 11.8242 25.2941 11.8242C26 11.8242 26.5294 12.3536 26.5294 13.0595C26.5294 17.0595 26.5294 21.0595 26.5294 25.0595C26.5294 25.4125 26.5294 25.8242 26.5294 26.1772C26.5294 26.3536 26.5882 26.4713 26.7647 26.4125C26.8824 26.4125 27 26.4125 27.1176 26.4125C27.5294 26.3536 27.8235 26.5301 27.9412 26.883C27.9412 27.1772 27.9412 27.4713 27.9412 27.7066C27.9412 27.7654 27.9412 27.8242 27.8235 27.8242C27.7647 27.8242 27.7647 27.8242 27.7059 27.8242C20 28.0007 12.2353 28.0007 4.47059 28.0007ZM25.1176 20.0007C25.1176 19.3536 25.1176 18.7654 25.1176 18.1183C25.1176 16.6477 25.1176 15.1772 25.1176 13.7066C25.1176 13.5301 25.0588 13.4125 24.8824 13.4125C24.6471 13.4125 24.3529 13.4125 24.0588 13.4125C23.7647 13.4125 23.7647 13.4125 23.7647 13.7066C23.7647 17.4125 23.7647 21.0595 23.7647 24.7654C23.7647 25.2948 23.7647 25.7654 23.7647 26.2948C23.7647 26.4713 23.8235 26.5301 24 26.5301C24.2941 26.5301 24.5882 26.5301 24.8235 26.5301C25.1176 26.5301 25.1176 26.5301 25.1176 26.236C25.1176 24.1772 25.1176 22.0595 25.1176 20.0007ZM19.4706 22.3536C19.4706 21.0595 19.4706 19.7066 19.4706 18.4125C19.4706 18.1772 19.4118 18.1183 19.1765 18.1183C18.9412 18.1183 18.6471 18.1183 18.3529 18.1183C18.1176 18.1183 18.0588 18.1772 18.0588 18.4125C18.0588 19.5889 18.0588 20.7066 18.0588 21.883C18.0588 23.3536 18.0588 24.8242 18.0588 26.2948C18.0588 26.5301 18.1176 26.5889 18.3529 26.5889C18.6471 26.5889 18.8824 26.5889 19.1765 26.5889C19.4118 26.5889 19.4706 26.5301 19.4706 26.2948C19.4706 25.0007 19.4706 23.6477 19.4706 22.3536ZM12.5294 23.5889C12.5294 24.4713 12.5294 25.4125 12.5294 26.2948C12.5294 26.5301 12.5882 26.5889 12.8235 26.5301C13.1176 26.5301 13.4118 26.5301 13.7059 26.5301C13.8824 26.5301 13.9412 26.4713 13.9412 26.2948C13.9412 24.4713 13.9412 22.6477 13.9412 20.8242C13.9412 20.6477 13.8824 20.5889 13.7059 20.6477C13.4118 20.6477 13.1176 20.6477 12.8235 20.6477C12.5882 20.6477 12.5294 20.7066 12.5294 20.9419C12.5294 21.8242 12.5294 22.7066 12.5294 23.5889ZM6.88235 24.4713C6.88235 25.1183 6.88235 25.7066 6.88235 26.3536C6.88235 26.5301 6.94118 26.5889 7.11765 26.5889C7.41176 26.5889 7.76471 26.5889 8.05882 26.5889C8.23529 26.5889 8.23529 26.5301 8.23529 26.3536C8.23529 25.1183 8.23529 23.8242 8.23529 22.5889C8.23529 22.4125 8.17647 22.3536 8 22.3536C7.70588 22.3536 7.41176 22.3536 7.05882 22.3536C6.88235 22.3536 6.82353 22.4125 6.82353 22.5889C6.88235 23.236 6.88235 23.883 6.88235 24.4713Z" fill="#181C32"/>
<path d="M28.0006 9.23441C27.8829 9.4697 27.7064 9.64617 27.4711 9.705C27.1182 9.82264 26.7064 9.58735 26.5888 9.17558C26.4123 8.4697 26.177 7.76382 26.0006 7.05794C26.0006 6.99911 25.9417 6.88147 25.9417 6.82264C25.8829 6.82264 25.8241 6.88147 25.8241 6.94029C24.4711 9.17558 22.7064 11.0579 20.7653 12.7638C18.4123 14.7638 15.8241 16.3521 12.9417 17.5285C11.0594 18.2932 9.05938 18.8226 7.00055 19.0579C6.29467 19.1168 5.52997 19.1756 4.82408 19.1756C4.3535 19.1756 4.05938 18.9403 4.00055 18.5285C3.94173 18.0579 4.29467 17.705 4.76526 17.705C5.76526 17.705 6.76526 17.5873 7.76526 17.4109C9.76526 17.0579 11.7064 16.4697 13.53 15.5873C16.7064 14.1168 19.53 12.1168 21.9417 9.52853C22.9417 8.4697 23.8241 7.35205 24.5888 6.11676C24.6476 6.05794 24.6476 5.99911 24.7064 5.88147C24.2358 5.99911 23.8241 6.11676 23.3535 6.23441C22.8829 6.35205 22.4711 6.4697 22.0006 6.58735C21.5888 6.705 21.177 6.4697 21.1182 6.05794C21.0594 5.64617 21.2358 5.29323 21.6476 5.17558C22.5888 4.88147 23.5888 4.64617 24.53 4.41088C24.9417 4.29323 25.3535 4.17558 25.7653 4.05794C26.2947 3.88147 26.6476 4.11676 26.8241 4.64617C27.177 5.94029 27.53 7.23441 27.8241 8.4697C27.8241 8.58735 27.8829 8.64617 27.9417 8.76382C28.0006 8.94029 28.0006 9.11676 28.0006 9.23441Z" fill="#181C32"/>
</g>
<defs>
<clipPath id="clip0_4394_17837">
<rect width="24" height="24" fill="white" transform="translate(4 4)"/>
</clipPath>
</defs>
</svg>
