<svg width="32" height="32" viewBox="0 0 32 32" fill="none" xmlns="http://www.w3.org/2000/svg">
<g clip-path="url(#clip0_4394_17854)">
<path d="M17.4211 20.2631C15.4474 20.2631 13.4737 20.2631 11.5 20.2631C11.2632 20.2631 11.1842 20.342 11.0263 20.4999C10.7105 20.8157 10.4737 21.0526 10.1579 21.3684C9.92105 21.6052 9.84211 21.921 9.92105 22.2368C10 22.5526 10.3158 22.7105 10.6316 22.7894C10.7895 22.7894 10.8684 22.7894 11.0263 22.7894C15.7632 22.7894 20.5 22.7894 25.2368 22.7894C25.7895 22.7894 26.1842 23.1052 26.1842 23.6578C26.1842 24.1315 25.8684 24.5262 25.3158 24.5262C24.7632 24.5262 24.2105 24.5262 23.6579 24.5262C23.4211 24.5262 23.4211 24.6052 23.5 24.7631C23.8947 26.421 22.7895 27.921 21.0526 27.9999C19.7895 28.0789 18.6842 27.2105 18.4474 25.8684C18.3684 25.4736 18.3684 25.1578 18.4474 24.7631C18.5263 24.6052 18.4474 24.5262 18.2895 24.5262C17.4211 24.5262 16.5526 24.5262 15.6842 24.5262C15.5263 24.5262 15.4474 24.6052 15.5263 24.7631C15.9211 26.0262 15.0526 27.842 13.0789 27.9999C11.7368 28.0789 10.7105 27.1315 10.4737 25.8684C10.3947 25.4736 10.3947 25.1578 10.5526 24.7631C10.5526 24.6052 10.5526 24.5262 10.3947 24.5262C9.28947 24.3684 8.57895 23.8157 8.18421 22.7894C7.78947 21.7631 8.02632 20.8947 8.73684 20.1052C8.97368 19.8684 9.28947 19.5526 9.52632 19.3157C9.68421 19.1578 9.76316 18.9999 9.68421 18.7631C9.21053 16.1578 8.57895 13.4736 7.94737 10.7894C7.63158 9.36835 7.23684 7.9473 6.92105 6.52625C6.76316 5.97362 6.52632 5.73677 5.89474 5.73677C5.57895 5.73677 5.18421 5.73677 4.86842 5.73677C4.39474 5.73677 4 5.42098 4 4.86835C4 4.39467 4.31579 3.99993 4.86842 3.99993C5.42105 3.99993 5.97368 3.92098 6.52632 3.99993C7.63158 4.15783 8.34211 4.86835 8.6579 6.05256C9.21053 8.49993 9.76316 10.8684 10.3158 13.3157C10.7105 14.9736 11.1053 16.6315 11.5 18.2105C11.5789 18.4473 11.6579 18.4473 11.8158 18.4473C15.5263 18.4473 19.2368 18.4473 22.9474 18.4473C23.5789 18.4473 23.8158 18.2105 23.9737 17.6578C24.6842 14.8157 25.3947 11.8947 26.1053 9.05256C26.2632 8.42098 26.6579 8.10519 27.2105 8.26309C27.7632 8.42098 28 8.81572 27.9211 9.36835C27.3684 11.4999 26.8158 13.6315 26.2632 15.7631C26.0263 16.5526 25.8684 17.342 25.6316 18.2105C25.3158 19.4736 24.2105 20.342 22.9474 20.2631C21.1316 20.2631 19.2368 20.2631 17.4211 20.2631ZM21.0526 24.5262C20.5789 24.5262 20.1842 24.921 20.1842 25.3157C20.1842 25.7894 20.5789 26.1841 21.0526 26.1052C21.4474 26.1052 21.8421 25.7105 21.8421 25.3157C21.9211 24.921 21.5263 24.5262 21.0526 24.5262ZM13.9474 25.3157C13.9474 24.842 13.5526 24.5262 13.1579 24.5262C12.6842 24.5262 12.2895 24.921 12.2895 25.3157C12.2895 25.7894 12.6842 26.1841 13.1579 26.1052C13.6316 26.1841 13.9474 25.7894 13.9474 25.3157Z" fill="#181C32"/>
<path d="M11.6582 10C11.6582 6.68421 14.3424 4 17.6582 4C20.974 4 23.7372 6.76316 23.6582 10C23.6582 13.3158 20.974 15.9211 17.6582 15.9211C14.3424 16 11.6582 13.3158 11.6582 10ZM21.9214 10C21.8424 7.63158 20.0266 5.73684 17.6582 5.73684C15.2898 5.73684 13.474 7.55263 13.474 9.92105C13.474 12.3684 15.3687 14.1842 17.7372 14.1842C20.1056 14.1842 21.8424 12.3684 21.9214 10Z" fill="#181C32"/>
<path d="M14.2632 10.08C14.2632 9.68524 14.4211 9.36945 14.7369 9.21155C15.0527 9.05366 15.4474 9.13261 15.6842 9.36945C16 9.68524 16.3158 9.92208 16.5527 10.2379C16.7106 10.3958 16.7895 10.3958 17.0263 10.2379C17.7369 9.52734 18.4474 8.81682 19.079 8.10629C19.3158 7.86945 19.6316 7.7905 19.9474 7.86945C20.2632 7.9484 20.5 8.18524 20.579 8.57998C20.6579 8.89576 20.5 9.13261 20.3421 9.36945C19.3948 10.3168 18.3684 11.3431 17.4211 12.2905C17.0263 12.6852 16.5527 12.6852 16.1579 12.2905C15.6053 11.7379 15.0527 11.1852 14.5 10.6326C14.3421 10.4747 14.1842 10.2379 14.2632 10.08Z" fill="#181C32"/>
</g>
<defs>
<clipPath id="clip0_4394_17854">
<rect width="23.9211" height="24" fill="white" transform="translate(4 4)"/>
</clipPath>
</defs>
</svg>
