<svg width="32" height="32" viewBox="0 0 32 32" fill="none" xmlns="http://www.w3.org/2000/svg">
<g clip-path="url(#clip0_4395_18448)">
<path d="M28 16C28 18.069 28 19.7241 28 21.7931C28 25.1034 25.5172 27.5862 22.2069 28C21.7931 28 21.7931 28 21.3793 28C17.6552 28 13.931 28 10.2069 28C7.31034 28 4.41379 25.931 4 22.6207C4 22.2069 4 21.7931 4 21.7931C4 18.069 4 14.3448 4 10.6207C4 7.72414 5.65517 5.65517 8.13793 4.41379C8.96552 4 9.7931 4 10.2069 4C13.931 4 17.6552 4 21.7931 4C25.1034 4 27.5862 6.48276 28 9.7931C28 10.2069 28 10.2069 28 10.6207C28 12.2759 28 14.3448 28 16ZM16 5.65517C14.3448 5.65517 12.2759 5.65517 10.6207 5.65517C10.2069 5.65517 9.7931 5.65517 9.7931 5.65517C7.31034 6.06897 5.65517 8.13793 5.65517 10.6207C5.65517 14.3448 5.65517 18.069 5.65517 21.3793C5.65517 21.7931 5.65517 21.7931 5.65517 22.2069C6.06897 24.6897 8.13793 26.3448 10.6207 26.3448C14.3448 26.3448 18.069 26.3448 21.7931 26.3448C22.2069 26.3448 22.6207 26.3448 23.4483 25.931C25.5172 25.1034 26.7586 23.4483 26.7586 21.3793C26.7586 18.069 26.7586 14.3448 26.7586 11.0345C26.7586 10.6207 26.7586 10.2069 26.7586 9.7931C26.7586 8.55172 25.931 7.31034 25.1034 6.48276C23.8621 6.06897 22.6207 5.65517 21.3793 5.65517C19.7241 5.65517 18.069 5.65517 16 5.65517Z" fill="#181C32"/>
<path d="M14.7586 20.9643C14.3448 20.9643 14.3448 20.9643 13.931 20.5505C12.6896 18.8953 11.4482 17.2402 10.2068 15.9988C9.79304 15.585 9.79304 15.1712 10.2068 14.7574C10.6206 14.3436 11.0344 14.3436 11.4482 14.7574C12.2758 15.9988 13.5172 17.2402 14.3448 18.4815C14.3448 18.8953 14.3448 18.8953 14.7586 18.4815C16.8275 15.9988 18.4827 13.9298 20.5517 11.4471C20.9654 11.0333 21.3792 11.0333 21.793 11.4471C22.2068 11.8609 22.2068 12.2746 21.793 12.6884C19.7241 15.1712 17.6551 18.0678 15.1723 20.5505L14.7586 20.9643Z" fill="#181C32"/>
</g>
<defs>
<clipPath id="clip0_4395_18448">
<rect width="24" height="24" fill="white" transform="translate(4 4)"/>
</clipPath>
</defs>
</svg>
