<svg width="32" height="32" viewBox="0 0 32 32" fill="none" xmlns="http://www.w3.org/2000/svg">
<g clip-path="url(#clip0_4394_17884)">
<path d="M9 26.5702C9 26.094 9.19048 25.8083 9.57143 25.5226C12.0476 23.0464 14.5238 20.5702 17 18.094C17.5714 17.5226 18.1429 16.9512 18.7143 16.3798C19.0952 15.9988 19.1905 16.094 18.7143 15.6179C15.6667 12.5702 12.619 9.52262 9.57143 6.475C9.19048 6.18929 9 5.90357 9 5.33214C9 4.76072 9.28571 4.37976 9.7619 4.09405C10.2381 3.80833 10.7143 3.90357 11.1905 4.18929C11.2857 4.28453 11.381 4.37976 11.4762 4.475C14.9048 7.99881 18.3333 11.4274 21.7619 14.856C22.619 15.7131 22.619 16.3798 21.7619 17.2369C18.3333 20.6655 14.9048 23.9988 11.4762 27.4274C11.0952 27.9036 10.619 28.094 10.0476 27.9036C9.38095 27.8083 9 27.2369 9 26.5702Z" fill="#181C32"/>
</g>
<defs>
<clipPath id="clip0_4394_17884">
<rect width="24" height="13.3333" fill="white" transform="translate(9 28) rotate(-90)"/>
</clipPath>
</defs>
</svg>
