<svg width="32" height="32" viewBox="0 0 32 32" fill="none" xmlns="http://www.w3.org/2000/svg">
<g clip-path="url(#clip0_4394_17869)">
<path d="M5.42781 9C5.904 9 6.18971 9.19048 6.47543 9.57143C8.95162 12.0476 11.4278 14.5238 13.904 17C14.4754 17.5714 15.0469 18.1429 15.6183 18.7143C15.9992 19.0952 15.904 19.1905 16.3802 18.7143C19.4278 15.6667 22.4754 12.619 25.523 9.57143C25.8088 9.19048 26.0945 9 26.6659 9C27.2373 9 27.6183 9.28571 27.904 9.7619C28.1897 10.2381 28.0945 10.7143 27.8088 11.1905C27.7135 11.2857 27.6183 11.381 27.523 11.4762C23.9992 14.9048 20.5707 18.3333 17.1421 21.7619C16.285 22.619 15.6183 22.619 14.7611 21.7619C11.3326 18.3333 7.99924 14.9048 4.57067 11.4762C4.09448 11.0952 3.904 10.619 4.09448 10.0476C4.18971 9.38095 4.76114 9 5.42781 9Z" fill="#181C32"/>
</g>
<defs>
<clipPath id="clip0_4394_17869">
<rect width="24" height="13.3333" fill="white" transform="translate(4 9)"/>
</clipPath>
</defs>
</svg>
