<svg width="32" height="32" viewBox="0 0 32 32" fill="none" xmlns="http://www.w3.org/2000/svg">
<g clip-path="url(#clip0_4394_17888)">
<path d="M28.0003 15.8699C27.8785 16.2354 27.6348 16.3572 27.3912 16.7227C25.6856 18.5501 23.98 20.2557 22.2744 22.0831C22.0307 22.3267 21.7871 22.4486 21.4216 22.4486C20.6906 22.3267 20.447 21.4739 20.9343 20.8648C21.2998 20.4993 21.6653 20.1338 22.0307 19.7684C23.249 18.4283 24.4673 17.21 25.6856 15.8699C25.9292 15.6262 25.9292 15.6262 25.6856 15.3826C24.1018 13.677 22.6399 12.0932 21.0561 10.5095C20.9343 10.3877 20.9343 10.3877 20.8125 10.2658C20.447 9.90034 20.5688 9.2912 20.9343 9.04755C21.2998 8.68207 21.7871 8.68207 22.1526 9.04755C22.5181 9.41303 22.8835 9.90034 23.3708 10.2658C24.7109 11.6059 25.9292 12.946 27.2693 14.408C27.513 14.6516 27.8785 15.0171 28.0003 15.3826C28.0003 15.5044 28.0003 15.6262 28.0003 15.8699Z" fill="#181C32"/>
<path d="M18.255 6.97462C18.1332 7.58376 18.0113 8.19289 18.0113 8.92386C17.7677 10.8731 17.4022 12.7005 17.1585 14.6497C16.9149 16.3553 16.6712 17.9391 16.4276 19.6447C16.1839 21.1066 15.9403 22.6904 15.6966 24.1523C15.5748 24.6396 15.453 25.0051 14.9656 25.1269C14.3565 25.2487 13.7474 24.7614 13.8692 24.1523C13.991 23.1777 14.1129 22.0812 14.3565 21.1066C14.6002 19.2792 14.9656 17.5736 15.2093 15.7462C15.5748 13.6751 15.8184 11.7259 16.1839 9.65482C16.3057 8.6802 16.4276 7.70558 16.6712 6.85279C16.5494 6.24365 16.9149 6 17.4022 6C17.8895 6 18.255 6.48731 18.255 6.97462Z" fill="#181C32"/>
<path d="M11.4319 9.65563C11.4319 9.89929 11.3101 10.1429 11.1882 10.3866C10.5791 10.9957 9.96997 11.7267 9.36083 12.3358C8.26439 13.3105 7.41159 14.2851 6.43697 15.3815C6.19332 15.5033 6.19332 15.6252 6.43697 15.747C7.8989 17.3308 9.36083 18.9145 10.9446 20.4983C11.0664 20.6201 11.1882 20.7419 11.1882 20.8638C11.5537 21.2292 11.5537 21.8384 11.0664 22.2039C10.7009 22.5693 10.0918 22.5693 9.72631 22.2039C9.11718 21.5947 8.38621 20.8638 7.77708 20.1328C6.80246 19.1582 5.94966 18.1836 4.97505 17.2089C4.85322 16.8435 4.60956 16.5998 4.36591 16.2343C4.00043 15.747 4.00043 15.2597 4.36591 14.8942C5.58418 13.4323 6.92428 12.0922 8.26439 10.6303C8.87352 10.1429 9.239 9.53381 9.84814 9.0465C10.3355 8.55919 11.1882 8.80284 11.3101 9.53381C11.4319 9.53381 11.4319 9.65563 11.4319 9.65563Z" fill="#181C32"/>
</g>
<defs>
<clipPath id="clip0_4394_17888">
<rect width="24" height="19.1269" fill="white" transform="translate(4 6)"/>
</clipPath>
</defs>
</svg>
