<svg width="32" height="32" viewBox="0 0 32 32" fill="none" xmlns="http://www.w3.org/2000/svg">
<g clip-path="url(#clip0_4394_17902)">
<path d="M26.7993 22.944H26.5811C26.4356 22.944 26.3265 22.944 26.1811 22.944C25.9993 22.944 25.8538 22.944 25.7447 22.944C25.7083 22.944 25.7083 22.944 25.7083 22.944H25.672C25.672 22.944 25.672 22.9076 25.672 22.8712C25.672 21.1258 25.672 19.344 25.672 17.5985V15.9985V14.4349C25.672 12.6894 25.672 10.8712 25.672 9.08942C25.672 9.05305 25.672 9.05305 25.672 9.01669C25.672 9.01669 25.672 9.01669 25.7083 9.01669H25.7447C25.8902 9.01669 26.0356 9.01669 26.2174 9.01669C26.3629 9.01669 26.5083 9.01669 26.6538 9.01669H26.8356C27.3447 9.01669 27.5993 8.76214 27.5993 8.25305C27.5993 7.05305 27.5993 5.85305 27.5993 4.68942C27.5993 4.18033 27.3447 3.92578 26.8356 3.92578C26.2538 3.92578 25.6356 3.92578 25.0538 3.92578C24.472 3.92578 23.8902 3.92578 23.272 3.92578C22.7629 3.92578 22.5083 4.18033 22.5083 4.68942V4.76214C22.5083 5.16214 22.5083 5.59851 22.5083 6.03487C20.2174 6.03487 17.9629 6.03487 15.672 6.03487C13.4538 6.03487 11.272 6.03487 9.0538 6.03487C9.0538 5.56214 9.0538 5.12578 9.0538 4.68942C9.0538 4.21669 8.79925 3.92578 8.32653 3.92578C7.74471 3.99851 7.12653 3.99851 6.54471 3.99851C5.92653 3.99851 5.34471 3.99851 4.76289 3.99851C4.2538 3.99851 3.99925 4.25305 3.99925 4.72578C3.99925 5.88942 3.99925 7.08942 3.99925 8.28942C3.99925 8.76214 4.2538 9.01669 4.72653 9.01669C4.83562 9.01669 4.98107 9.01669 5.09016 9.01669H5.59925H5.8538C5.8538 9.05305 5.8538 9.08942 5.8538 9.12578C5.8538 11.3076 5.8538 13.5258 5.8538 15.7076V18.944C5.8538 20.2167 5.8538 21.5621 5.8538 22.8712C5.8538 22.9076 5.8538 22.9076 5.8538 22.9076H5.81744C5.67198 22.9076 5.52653 22.9076 5.34471 22.9076C5.19925 22.9076 5.09016 22.9076 4.94471 22.9076H4.72653C4.18107 22.9076 3.96289 23.1621 3.96289 23.6712C3.96289 24.8349 3.96289 26.0349 3.96289 27.1985C3.99925 27.744 4.2538 27.9985 4.76289 27.9985C5.34471 27.9985 5.92653 27.9985 6.50835 27.9985C7.09016 27.9985 7.67198 27.9985 8.2538 27.9985C8.76289 27.9985 9.01744 27.744 9.01744 27.2349V27.0531C9.01744 26.6894 9.01744 26.2894 9.01744 25.9258C9.70835 25.9258 10.4356 25.9258 11.1265 25.9258H13.1265H16.6902C18.5811 25.9258 20.5083 25.9258 22.3993 25.9258H22.4356C22.4356 26.2894 22.4356 26.6894 22.4356 27.0531V27.2349C22.4356 27.744 22.6902 27.9985 23.1993 27.9985C23.7811 27.9985 24.3629 27.9985 24.9811 27.9985C25.5629 27.9985 26.1811 27.9985 26.7629 27.9985C27.272 27.9985 27.5265 27.744 27.5265 27.2349C27.5265 26.0712 27.5265 24.8712 27.5265 23.6712C27.5629 23.1985 27.3083 22.944 26.7993 22.944ZM22.5083 23.6712V23.7803C22.5083 24.0349 22.5083 24.2894 22.5083 24.5803V24.6167H22.472C21.3083 24.6167 20.1811 24.6167 19.3083 24.6167H16.5083H13.272C12.072 24.6167 10.6174 24.6167 9.12653 24.6167C9.09016 24.6167 9.09016 24.6167 9.09016 24.6167V24.5803C9.12653 24.2894 9.09016 23.9985 9.09016 23.6712C9.09016 23.2349 8.83562 22.9803 8.39925 22.9803C8.21744 22.9803 7.99925 22.9803 7.81744 22.9803C7.63562 22.9803 7.41744 22.9803 7.23562 22.9803C7.23562 22.7985 7.23562 22.6531 7.23562 22.4712C7.23562 22.3985 7.23562 22.3258 7.23562 22.2531V19.9258C7.23562 16.3985 7.23562 12.7621 7.23562 9.16214C7.23562 9.12578 7.23562 9.12578 7.23562 9.08942C7.23562 9.08942 7.23562 9.08942 7.27198 9.08942H7.30835C7.4538 9.08942 7.59925 9.08942 7.78107 9.08942C7.96289 9.08942 8.10835 9.08942 8.29016 9.08942H8.39925C8.87198 9.08942 9.12653 8.83487 9.12653 8.36214V8.28942C9.12653 8.03487 9.12653 7.74396 9.12653 7.48942V7.45305H9.16289C10.3629 7.45305 11.5993 7.45305 12.5083 7.45305H15.3447H18.5811C19.6356 7.45305 21.0538 7.45305 22.472 7.45305C22.5083 7.45305 22.5447 7.45305 22.5447 7.45305C22.5447 7.45305 22.5447 7.48942 22.5447 7.52578C22.5083 7.81669 22.5447 8.1076 22.5447 8.36214V8.39851C22.5447 8.83487 22.7993 9.08942 23.2356 9.08942C23.4538 9.08942 23.6356 9.08942 23.8538 9.08942C24.0356 9.08942 24.2174 9.08942 24.3629 9.08942H24.3993V9.12578C24.3993 10.944 24.3993 12.7621 24.3993 14.544V16.0349V17.5621C24.3993 19.3076 24.3993 21.1258 24.3993 22.8712C24.3993 22.9076 24.3993 22.9076 24.3993 22.944C24.3993 22.944 24.3993 22.944 24.3629 22.944H24.3265C24.1811 22.944 24.0356 22.944 23.8538 22.944C23.672 22.944 23.5265 22.944 23.3447 22.944H23.2356C22.7629 22.944 22.5083 23.1985 22.5083 23.6712ZM5.30835 24.2531C5.70835 24.2531 6.14471 24.2531 6.54471 24.2531C6.94471 24.2531 7.34471 24.2531 7.78107 24.2531C7.78107 25.1621 7.78107 25.9621 7.78107 26.6894C7.59925 26.6894 7.41744 26.6894 7.27198 26.6894C7.16289 26.6894 6.6538 26.6894 6.54471 26.6894C6.43562 26.6894 5.96289 26.6894 5.8538 26.6894C5.67198 26.6894 5.52653 26.6894 5.34471 26.6894C5.30835 25.8167 5.30835 24.9076 5.30835 24.2531ZM5.30835 5.3076C5.49016 5.3076 5.63562 5.3076 5.81744 5.3076H6.54471C6.6538 5.3076 6.76289 5.3076 6.90835 5.3076C7.01744 5.3076 7.12653 5.3076 7.27198 5.3076C7.4538 5.3076 7.63562 5.3076 7.78107 5.3076C7.78107 6.03487 7.78107 6.83487 7.78107 7.74396C7.38107 7.74396 6.94471 7.74396 6.54471 7.74396C6.14471 7.74396 5.74471 7.74396 5.30835 7.74396C5.30835 6.98033 5.30835 6.14396 5.30835 5.3076ZM26.2538 26.6894C25.8538 26.6894 25.4174 26.6894 25.0174 26.6894C24.6174 26.6894 24.2174 26.6894 23.7811 26.6894C23.7811 26.3985 23.7811 26.1076 23.7811 25.8167V25.4531C23.7811 25.344 23.7811 25.1985 23.7811 25.0894C23.7811 24.7985 23.7811 24.5076 23.7811 24.2167C24.1811 24.2167 24.5811 24.2167 24.9811 24.2167C25.3811 24.2167 25.8174 24.2167 26.2174 24.2167C26.2538 25.0167 26.2538 25.8167 26.2538 26.6894ZM25.0174 7.74396C24.9083 7.74396 24.4356 7.74396 24.3265 7.74396C24.1447 7.74396 23.9993 7.74396 23.8174 7.74396C23.8174 6.98033 23.8174 6.18033 23.8174 5.3076C24.2174 5.3076 24.6538 5.3076 25.0538 5.3076C25.4538 5.3076 25.8538 5.3076 26.2902 5.3076C26.2902 6.21669 26.2902 7.01669 26.2902 7.74396C26.1083 7.74396 25.9265 7.74396 25.7447 7.74396C25.5993 7.74396 25.1265 7.74396 25.0174 7.74396Z" fill="#181C32"/>
</g>
<defs>
<clipPath id="clip0_4394_17902">
<rect width="23.5636" height="24" fill="white" transform="translate(4 4)"/>
</clipPath>
</defs>
</svg>
