<svg width="32" height="32" viewBox="0 0 32 32" fill="none" xmlns="http://www.w3.org/2000/svg">
<path d="M4 5.1862C4.17905 4.58937 4.54834 4.17905 5.17128 4.03357C5.29064 4.00746 5.41747 4.00373 5.54057 4C8.17781 4 10.815 4 13.4523 4C14.3662 4 15.0152 4.64532 15.019 5.56295C15.0227 12.5235 15.019 19.484 15.019 26.4445C15.019 27.1943 14.6534 27.668 13.8365 28C10.9493 28 8.05844 28 5.17128 28C4.56699 27.8247 4.17532 27.433 4 26.8287C4 19.6145 4 12.4004 4 5.1862ZM5.03699 15.9963C5.03699 19.4318 5.03699 22.8635 5.03699 26.299C5.03699 26.8548 5.1489 26.9667 5.71215 26.9667C8.24868 26.9667 10.7852 26.9667 13.3217 26.9667C13.8365 26.9667 13.9671 26.8325 13.9671 26.3102C13.9671 19.443 13.9671 12.5757 13.9671 5.70842C13.9671 5.18993 13.8365 5.05564 13.3217 5.05564C10.7777 5.05564 8.23376 5.05564 5.68977 5.05564C5.61144 5.05564 5.53311 5.05564 5.45477 5.05937C5.21604 5.07802 5.0631 5.23096 5.04072 5.46223C5.03326 5.56295 5.03699 5.66366 5.03699 5.76438C5.03699 9.17749 5.03699 12.5869 5.03699 15.9963Z" fill="#181C32"/>
<path d="M18.1451 27.9993C17.5259 27.7978 17.1081 27.4062 16.9887 26.7459C16.9663 26.6303 16.9663 26.5146 16.9626 26.3953C16.9626 23.7991 16.9589 21.1991 16.9626 18.6029C16.9626 17.6256 17.6154 16.9803 18.5927 16.9766C21.1889 16.9766 23.7888 16.9766 26.385 16.9766C27.3586 16.9766 27.9927 17.6144 27.9927 18.5917C27.9927 21.1656 27.9778 23.7394 28.0002 26.3169C28.0077 27.1413 27.5936 27.7717 26.8028 27.9993C23.9231 27.9993 21.036 27.9993 18.1451 27.9993ZM26.9483 22.501C26.9483 21.2141 26.9483 19.9234 26.9483 18.6365C26.9483 18.1814 26.7991 18.0359 26.344 18.0359C23.7776 18.0359 21.2075 18.0359 18.6412 18.0359C18.1786 18.0359 18.022 18.1926 18.022 18.6551C18.022 21.2215 18.022 23.7916 18.022 26.358C18.022 26.8131 18.1712 26.9623 18.6225 26.9623C21.2001 26.9623 23.7739 26.9623 26.3515 26.9623C26.8177 26.9623 26.952 26.828 26.952 26.3617C26.9483 25.0748 26.9483 23.7879 26.9483 22.501Z" fill="#181C32"/>
<path d="M22.4899 4C23.8029 4 25.1122 4 26.4253 4C27.3615 4 27.9957 4.63413 27.9957 5.57414C27.9957 8.20392 27.9957 10.8337 27.9957 13.4672C27.9957 14.3811 27.3466 15.0339 26.4327 15.0376C23.7955 15.0413 21.1545 15.0413 18.5173 15.0376C17.6295 15.0376 16.9618 14.3662 16.9618 13.4784C16.9581 10.8412 16.9581 8.20019 16.9618 5.56295C16.9618 4.64905 17.6183 4.00373 18.5322 4.00373C19.8527 4 21.1732 4 22.4899 4ZM22.4825 5.05191C21.1955 5.05191 19.9049 5.05191 18.618 5.05191C18.1629 5.05191 18.0174 5.20112 18.0174 5.6562C18.0174 8.22257 18.0174 10.7927 18.0174 13.359C18.0174 13.8216 18.1778 13.9782 18.6366 13.9782C21.203 13.9782 23.7731 13.9782 26.3395 13.9782C26.7945 13.9782 26.9438 13.829 26.9438 13.3777C26.9438 10.8001 26.9438 8.2263 26.9438 5.64874C26.9438 5.18247 26.8095 5.04818 26.3432 5.04818C25.0563 5.05191 23.7694 5.05191 22.4825 5.05191Z" fill="#181C32"/>
</svg>
