<svg width="32" height="32" viewBox="0 0 32 32" fill="none" xmlns="http://www.w3.org/2000/svg">
<g clip-path="url(#clip0_4395_18460)">
<path d="M28.0007 6.65138C28.0007 12.5963 28.0007 18.4312 28.0007 24.3761C28.0007 24.4862 28.0007 24.4862 27.8906 24.5963C27.5604 25.4771 26.7897 26.1376 25.7989 26.1376C19.1934 26.1376 12.698 26.1376 6.09246 26.1376C4.88145 26.1376 3.89062 25.2569 3.89062 24.0459C4.00072 18.3211 4.00072 12.7064 4.00072 7.20183C4.00072 6.98165 4.00072 6.87156 4.11081 6.65138C4.33099 5.55046 5.10163 5 6.20255 5C12.698 5 19.3035 5 25.7989 5C25.909 5 25.909 5 26.0191 5C26.4594 5 26.8998 5.22018 27.2301 5.44037C27.5604 5.77064 27.7805 6.21101 28.0007 6.65138ZM16.0007 21.844C19.4136 21.844 22.8264 21.844 26.2393 21.844C26.5695 21.844 26.5695 21.844 26.5695 21.5138C26.5695 17.5505 26.5695 13.5872 26.5695 9.62385C26.5695 9.29358 26.5695 9.29358 26.2393 9.29358C19.4136 9.29358 12.5879 9.29358 5.87228 9.29358C5.542 9.29358 5.542 9.29358 5.542 9.62385C5.542 13.5872 5.542 17.5505 5.542 21.5138C5.542 21.844 5.542 21.844 5.87228 21.844C9.17503 21.844 12.5879 21.844 16.0007 21.844ZM13.1383 7.86239C13.7989 7.86239 14.3493 7.86239 15.0099 7.86239C15.2301 7.86239 15.2301 7.75229 15.2301 7.6422C15.2301 7.31193 15.2301 6.98165 15.2301 6.76147C15.2301 6.65138 15.12 6.54128 15.0099 6.54128C13.7989 6.54128 12.4778 6.54128 11.2668 6.54128C11.1567 6.54128 11.0466 6.65138 11.0466 6.76147C11.0466 7.09174 11.0466 7.31193 11.0466 7.6422C11.0466 7.86239 11.1567 7.97248 11.2668 7.86239C11.9273 7.75229 12.5879 7.86239 13.1383 7.86239ZM18.753 7.86239C19.4136 7.86239 19.964 7.86239 20.6246 7.86239C20.7347 7.86239 20.8448 7.86239 20.8448 7.6422C20.8448 7.31193 20.8448 6.98165 20.8448 6.76147C20.8448 6.65138 20.7347 6.54128 20.6246 6.54128C19.4136 6.54128 18.0925 6.54128 16.8815 6.54128C16.7714 6.54128 16.6613 6.65138 16.6613 6.76147C16.6613 7.09174 16.6613 7.31193 16.6613 7.6422C16.6613 7.86239 16.7714 7.86239 16.8815 7.86239C17.542 7.75229 18.2026 7.86239 18.753 7.86239ZM13.1383 24.7064C13.7989 24.7064 14.3493 24.7064 15.0099 24.7064C15.12 24.7064 15.2301 24.7064 15.2301 24.4862C15.2301 24.156 15.2301 23.8257 15.2301 23.4954C15.2301 23.3853 15.12 23.2752 15.0099 23.2752C13.7989 23.2752 12.4778 23.2752 11.2668 23.2752C11.1567 23.2752 11.0466 23.3853 11.0466 23.4954C11.0466 23.8257 11.0466 24.0459 11.0466 24.3761C11.0466 24.5963 11.1567 24.7064 11.3769 24.7064C12.0374 24.5963 12.5879 24.7064 13.1383 24.7064ZM18.753 24.7064C19.4136 24.7064 19.964 24.7064 20.6246 24.7064C20.8448 24.7064 20.8448 24.5963 20.8448 24.4862C20.8448 24.156 20.8448 23.8257 20.8448 23.6055C20.8448 23.4954 20.7347 23.3853 20.6246 23.3853C19.4136 23.3853 18.0925 23.3853 16.8815 23.3853C16.7714 23.3853 16.6613 23.4954 16.6613 23.6055C16.6613 23.9358 16.6613 24.156 16.6613 24.4862C16.6613 24.7064 16.7714 24.8165 16.8815 24.7064C17.542 24.5963 18.2026 24.7064 18.753 24.7064ZM7.52365 7.86239C8.1842 7.86239 8.73466 7.86239 9.39521 7.86239C9.6154 7.86239 9.72549 7.75229 9.72549 7.53211C9.72549 7.31193 9.72549 6.98165 9.72549 6.76147C9.72549 6.54128 9.6154 6.43119 9.39521 6.43119C8.40439 6.43119 7.52365 6.43119 6.53283 6.43119C5.65209 6.43119 5.43191 6.65138 5.43191 7.53211C5.43191 7.75229 5.542 7.75229 5.65209 7.75229C6.31264 7.75229 6.97319 7.86239 7.52365 7.86239ZM24.4778 7.86239C25.0282 7.86239 25.4686 7.86239 26.0191 7.86239C26.6796 7.86239 26.5695 7.97248 26.5695 7.20183C26.5695 6.76147 26.2392 6.54128 25.7989 6.43119C24.698 6.43119 23.597 6.43119 22.4961 6.43119C22.2759 6.43119 22.2759 6.54128 22.2759 6.65138C22.2759 6.98165 22.2759 7.20183 22.2759 7.53211C22.2759 7.75229 22.386 7.86239 22.6062 7.86239C23.2668 7.75229 23.8172 7.86239 24.4778 7.86239ZM7.52365 23.2752C6.97319 23.2752 6.53283 23.2752 5.98237 23.2752C5.32182 23.2752 5.43191 23.1651 5.43191 23.8257C5.43191 24.2661 5.76218 24.5963 6.20255 24.5963C7.30347 24.5963 8.29429 24.5963 9.39521 24.5963C9.6154 24.5963 9.6154 24.4862 9.6154 24.3761C9.6154 24.0459 9.6154 23.8257 9.6154 23.4954C9.6154 23.2752 9.5053 23.2752 9.39521 23.2752C8.73466 23.2752 8.1842 23.2752 7.52365 23.2752ZM24.4778 23.2752C23.8172 23.2752 23.2668 23.2752 22.6062 23.2752C22.386 23.2752 22.386 23.3853 22.386 23.4954C22.386 23.7156 22.386 24.0459 22.386 24.2661C22.386 24.5963 22.386 24.5963 22.7163 24.5963C23.7071 24.5963 24.5879 24.5963 25.5787 24.5963C26.4594 24.5963 26.6796 24.3761 26.6796 23.4954C26.6796 23.2752 26.5695 23.2752 26.4594 23.2752C25.6888 23.2752 25.0282 23.2752 24.4778 23.2752Z" fill="#181C32"/>
<path d="M12.4773 15.5695C12.4773 14.2484 12.4773 12.8172 12.4773 11.4961C12.4773 11.1659 12.5874 10.9457 12.9176 10.7255C13.1378 10.5053 13.4681 10.6154 13.6883 10.8356C15.5598 12.1567 17.3213 13.5879 19.1929 14.909C19.6332 15.2392 19.6332 15.7897 19.1929 16.12C17.3213 17.4411 15.5598 18.8723 13.6883 20.1934C13.4681 20.4136 13.1378 20.4136 12.8076 20.3035C12.4773 20.1934 12.3672 19.8631 12.3672 19.5328C12.4773 18.3218 12.4773 16.8906 12.4773 15.5695ZM13.9085 15.5695C13.9085 16.4503 13.9085 17.2209 13.9085 18.1016V18.2117C14.0186 18.2117 14.0186 18.2117 14.0186 18.1016C15.1195 17.331 16.2204 16.4503 17.3213 15.6796C17.4314 15.5695 17.5415 15.4594 17.3213 15.3493C16.2204 14.5787 15.1195 13.698 14.0186 12.9273C14.0186 12.9273 13.9085 12.8172 13.7984 12.8172C13.9085 12.9273 13.9085 13.0374 13.9085 13.0374C13.9085 13.9181 13.9085 14.6888 13.9085 15.5695Z" fill="#181C32"/>
</g>
<defs>
<clipPath id="clip0_4395_18460">
<rect width="24" height="21.1376" fill="white" transform="translate(4 5)"/>
</clipPath>
</defs>
</svg>
