<svg width="32" height="32" viewBox="0 0 32 32" fill="none" xmlns="http://www.w3.org/2000/svg">
<g clip-path="url(#clip0_4394_17918)">
<path d="M28 6.4381C28 12.8381 28 19.1619 28 25.5619C28 25.6381 28 25.6381 28 25.7143C27.6952 27.0857 26.4 28.0762 24.9524 28.0762C23.2762 28 21.5238 28.0762 19.8476 28.0762C19.2381 28.0762 19.0095 27.8476 19.0095 27.2381C19.0095 24.4952 19.0095 21.6762 19.0095 18.9333C19.0095 18.3238 19.3143 18.019 19.9238 18.019C20.6095 18.019 21.2952 18.019 21.981 18.019C22.2857 18.019 22.2857 18.019 22.2857 17.7143C22.2857 17.2571 22.2857 16.8 22.2857 16.3429C22.2857 16.0381 22.2857 16.0381 21.981 16.0381C21.2952 16.0381 20.6095 16.0381 19.8476 16.0381C19.3143 16.0381 19.0095 15.7333 19.0095 15.2C19.0095 14.2857 19.0095 13.3714 19.0095 12.5333C19.0095 11.9238 19.3143 11.619 19.9238 11.619C20.6095 11.619 21.2952 11.619 21.981 11.619C22.2095 11.619 22.2857 11.5429 22.2857 11.3143C22.2857 10.8571 22.2857 10.4 22.2857 9.94286C22.2857 9.71429 22.2095 9.6381 21.981 9.6381C21.4476 9.6381 20.9143 9.6381 20.381 9.6381C20 9.6381 19.619 9.6381 19.2381 9.71429C17.8667 9.94286 16.9524 11.0857 16.9524 12.4571C16.9524 13.2952 16.9524 14.2095 16.9524 15.0476C16.9524 15.7333 16.7238 15.9619 16.0381 15.9619C15.3524 15.9619 14.6667 15.9619 14.0571 15.9619C13.8286 15.9619 13.7524 16.0381 13.7524 16.2667C13.7524 16.7238 13.7524 17.181 13.7524 17.6381C13.7524 17.8667 13.8286 17.9429 14.0571 17.9429C14.7429 17.9429 15.4286 17.9429 16.1905 17.9429C16.7238 17.9429 17.0286 18.2476 17.0286 18.781C17.0286 21.6 17.0286 24.419 17.0286 27.1619C17.0286 27.6952 16.7238 28 16.1905 28C13.0667 28 10.019 28 6.89524 28C5.29524 28 4 26.7048 4 25.1048C4 19.0095 4 12.9143 4 6.89524C4 6.3619 4.15238 5.82857 4.45714 5.37143C4.91429 4.60952 5.6 4.15238 6.51429 4C12.9143 4 19.2381 4 25.6381 4C26.019 4.07619 26.3238 4.15238 26.6286 4.38095C27.3143 4.8381 27.7714 5.52381 28 6.4381ZM5.44762 15.9619C5.44762 18.9333 5.44762 21.9048 5.44762 24.8762C5.44762 25.8667 6.20952 26.4762 6.97143 26.4762C9.71429 26.4762 12.4571 26.4762 15.2 26.4762C15.4286 26.4762 15.5048 26.4 15.5048 26.1714C15.5048 23.9619 15.5048 21.8286 15.5048 19.619C15.5048 19.3905 15.4286 19.3143 15.2 19.3143C14.5143 19.3143 13.7524 19.3143 13.0667 19.3143C12.5333 19.3143 12.2286 19.0095 12.2286 18.4762C12.2286 17.4095 12.2286 16.2667 12.2286 15.2C12.2286 14.6667 12.5333 14.3619 13.0667 14.3619C13.7524 14.3619 14.4381 14.3619 15.1238 14.3619C15.5048 14.3619 15.5048 14.3619 15.5048 13.981C15.5048 13.1429 15.4286 12.3048 15.581 11.4667C15.8857 9.79048 17.3333 8.26667 19.0857 8.0381C20.381 7.88571 21.6762 7.9619 22.9714 7.9619C23.5048 7.9619 23.7333 8.26667 23.7333 8.8C23.7333 9.86667 23.7333 10.9333 23.7333 12C23.7333 12.0762 23.7333 12.1524 23.7333 12.2286C23.6571 12.6095 23.3524 12.8381 22.8952 12.8381C22.2095 12.8381 21.5238 12.8381 20.8381 12.8381C20.6095 12.8381 20.5333 12.9143 20.5333 13.1429C20.5333 13.4476 20.5333 13.7524 20.5333 13.981C20.5333 14.2857 20.5333 14.2857 20.8381 14.2857C21.5238 14.2857 22.2095 14.2857 22.8952 14.2857C23.5048 14.2857 23.8095 14.5905 23.8095 15.1238C23.8095 16.1905 23.8095 17.2571 23.8095 18.2476C23.8095 18.8571 23.5048 19.0857 22.8952 19.0857C22.2095 19.0857 21.5238 19.0857 20.8381 19.0857C20.6095 19.0857 20.5333 19.1619 20.5333 19.3905C20.5333 19.6952 20.5333 20 20.5333 20.381C20.5333 22.2095 20.5333 24.1143 20.5333 25.9429C20.5333 26.0952 20.5333 26.2476 20.7619 26.2476C22.2857 26.2476 23.8095 26.2476 25.2571 26.2476C25.7143 26.2476 26.019 26.019 26.3238 25.7143C26.6286 25.4095 26.6286 24.9524 26.6286 24.5714C26.6286 18.7048 26.6286 12.7619 26.6286 6.89524C26.6286 6.81905 26.6286 6.66667 26.6286 6.59048C26.6286 6.05714 26.4 5.67619 25.9429 5.44762C25.6381 5.21905 25.2571 5.21905 24.9524 5.21905C19.0857 5.21905 13.1429 5.21905 7.27619 5.21905C7.2 5.21905 7.04762 5.21905 6.97143 5.21905C6.66667 5.21905 6.4381 5.29524 6.20952 5.52381C5.75238 5.82857 5.6 6.28571 5.6 6.89524C5.44762 10.0952 5.44762 12.9905 5.44762 15.9619Z" fill="#181C32"/>
</g>
<defs>
<clipPath id="clip0_4394_17918">
<rect width="24" height="24" fill="white" transform="translate(4 4)"/>
</clipPath>
</defs>
</svg>
