<svg width="32" height="32" viewBox="0 0 32 32" fill="none" xmlns="http://www.w3.org/2000/svg">
<g clip-path="url(#clip0_4394_17946)">
<path d="M4 25C4 18.8868 4 12.7736 4 6.66038C4.30189 5.60377 5.13208 5 6.33962 5C8.5283 5 10.717 5 12.9057 5C13.3585 5 13.6604 5.15094 13.8868 5.5283C14.0377 5.83019 14.2642 5.90566 14.6415 5.90566C17.6604 5.90566 20.7547 5.90566 23.7736 5.90566C24.8302 5.90566 25.6604 6.58491 25.8868 7.64151C25.9623 8.16981 25.8868 8.77358 25.8868 9.30189C25.8868 9.45283 25.9623 9.5283 26.1132 9.60377C27.2453 9.75472 27.9245 10.5849 27.9245 11.717C27.9245 16.0189 27.9245 20.2453 27.9245 24.5472C27.9245 24.6981 27.9245 24.8491 27.9245 25C27.6981 26.0566 26.8679 26.7358 25.7358 26.7358C19.2453 26.7358 12.6792 26.7358 6.18868 26.7358C5.88679 26.7358 5.58491 26.6604 5.35849 26.5849C4.60377 26.283 4.22642 25.7547 4 25ZM15.9245 25.3019C19.0943 25.3019 22.3396 25.3019 25.5094 25.3019C25.5849 25.3019 25.7358 25.3019 25.8113 25.3019C26.2642 25.3019 26.4906 25 26.4906 24.6226C26.4906 24.3962 26.4906 24.1698 26.4906 23.8679C26.4906 19.8679 26.4906 15.8679 26.4906 11.9434C26.4906 11.7925 26.4906 11.6415 26.4151 11.4906C26.2642 11.1887 26.0377 11.1132 25.6604 11.1132C22.4906 11.1132 19.3208 11.1132 16.0755 11.1132C15.6226 11.1132 15.3962 10.9623 15.1698 10.5849C14.4151 9.30189 13.6604 8.09434 12.8302 6.81132C12.6792 6.58491 12.5283 6.50943 12.3019 6.50943C10.2642 6.50943 8.22642 6.50943 6.18868 6.50943C6.11321 6.50943 6.03774 6.50943 5.88679 6.50943C5.66038 6.50943 5.43396 6.73585 5.43396 7.03774C5.43396 7.11321 5.43396 7.18868 5.43396 7.26415C5.43396 13 5.43396 18.6604 5.43396 24.3962C5.43396 24.4717 5.43396 24.5472 5.43396 24.6226C5.43396 24.9245 5.66038 25.1509 6.03774 25.2264C6.18868 25.2264 6.33962 25.2264 6.41509 25.2264C9.58491 25.3019 12.7547 25.3019 15.9245 25.3019ZM19.4717 7.33962C18.0377 7.33962 16.6038 7.33962 15.2453 7.33962C15.0943 7.33962 15.0189 7.33962 15.0943 7.56604C15.4717 8.16981 15.8491 8.84906 16.2264 9.45283C16.3019 9.60377 16.3774 9.60377 16.5283 9.60377C19.0943 9.60377 21.5849 9.60377 24.1509 9.60377C24.3019 9.60377 24.3774 9.5283 24.3774 9.37736C24.3774 9 24.3774 8.54717 24.3774 8.16981C24.3774 7.64151 24.0755 7.33962 23.5472 7.33962C22.2642 7.33962 20.9057 7.33962 19.4717 7.33962Z" fill="#181C32"/>
</g>
<defs>
<clipPath id="clip0_4394_17946">
<rect width="24" height="21.7358" fill="white" transform="translate(4 5)"/>
</clipPath>
</defs>
</svg>
