<svg width="32" height="32" viewBox="0 0 32 32" fill="none" xmlns="http://www.w3.org/2000/svg">
<g clip-path="url(#clip0_4394_17930)">
<path d="M9.15917 28C8.41176 27.8339 7.7474 27.4187 7.41522 26.7543C7.16609 26.3391 7 25.9239 7 25.5087C7 19.1972 7 12.8028 7 6.49135C7 5.16263 8.16263 4 9.49135 4C12.3979 4 15.3875 4 18.2941 4C18.9585 4 19.4567 4.24913 19.955 4.66436C21.1176 5.74394 22.1972 6.74048 23.2768 7.82007C23.692 8.23529 24.1903 8.65052 24.6055 9.06574C25.1038 9.56401 25.2699 10.2284 25.2699 10.8927C25.2699 15.7093 25.2699 20.526 25.2699 25.3426C25.2699 26.5882 24.5225 27.5848 23.2768 27.917C23.1938 27.917 23.1938 27.917 23.1107 28C18.4602 28 13.8097 28 9.15917 28ZM8.41176 16.0415C8.41176 19.1142 8.41176 22.1869 8.41176 25.2595C8.41176 26.09 8.91003 26.5882 9.74048 26.5882C13.9758 26.5882 18.2941 26.5882 22.5294 26.5882C23.3599 26.5882 23.8581 26.09 23.8581 25.2595C23.8581 20.609 23.8581 15.9585 23.8581 11.391C23.8581 11.1419 23.7751 11.0588 23.609 11.1419C22.2803 11.1419 21.0346 11.1419 19.7059 11.1419C18.7093 11.1419 17.9619 10.4775 17.9619 9.39792C17.9619 8.15225 17.9619 6.98962 17.9619 5.74394C17.9619 5.57785 17.9619 5.49481 17.7128 5.49481C15.0554 5.49481 12.3149 5.49481 9.65744 5.49481C9.32526 5.49481 8.99308 5.57785 8.74394 5.91003C8.49481 6.07612 8.41176 6.4083 8.41176 6.74048C8.41176 9.81315 8.41176 12.8858 8.41176 16.0415ZM23.0277 9.64706C21.782 8.48443 20.6194 7.3218 19.4567 6.24221C19.3737 7.3218 19.3737 8.31834 19.3737 9.39792C19.3737 9.56401 19.5398 9.64706 19.7059 9.64706C20.1211 9.64706 20.6194 9.64706 21.0346 9.64706C21.699 9.64706 22.3633 9.64706 23.0277 9.64706Z" fill="#181C32"/>
<path d="M15.9689 14.7946C14.225 14.7946 12.5641 14.7946 10.8201 14.7946C10.488 14.7946 10.1558 14.5454 10.0727 14.2133C9.98969 13.8811 10.2388 13.5489 10.571 13.3828C10.6541 13.3828 10.7371 13.3828 10.8201 13.3828C14.225 13.3828 17.6298 13.3828 21.0347 13.3828C21.4499 13.3828 21.699 13.6319 21.7821 13.9641C21.8651 14.2963 21.616 14.6285 21.2838 14.7946C21.2008 14.7946 21.0347 14.7946 20.9516 14.7946C19.3738 14.7946 17.6298 14.7946 15.9689 14.7946Z" fill="#181C32"/>
<path d="M15.9694 18.5339C14.3085 18.5339 12.5646 18.5339 10.9037 18.5339C10.4884 18.5339 10.1562 18.2847 10.1562 17.8695C10.1562 17.4543 10.4054 17.0391 10.9037 17.0391C14.3085 17.0391 17.7964 17.0391 21.2012 17.0391C21.6165 17.0391 21.9486 17.3712 21.9486 17.7865C21.9486 18.2017 21.6165 18.4508 21.2012 18.5339C19.4573 18.5339 17.7133 18.5339 15.9694 18.5339Z" fill="#181C32"/>
<path d="M12.5646 22.2682C11.9832 22.2682 11.485 22.2682 10.9037 22.2682C10.4884 22.2682 10.1562 21.9361 10.1562 21.5208C10.1562 21.1056 10.4884 20.7734 10.9037 20.7734C11.9832 20.7734 13.0628 20.7734 14.2255 20.7734C14.7237 20.7734 14.9729 21.1056 14.9729 21.5208C14.9729 21.9361 14.6407 22.2682 14.2255 22.2682C13.6441 22.2682 13.1459 22.2682 12.5646 22.2682Z" fill="#181C32"/>
</g>
<defs>
<clipPath id="clip0_4394_17930">
<rect width="18.2699" height="24" fill="white" transform="translate(7 4)"/>
</clipPath>
</defs>
</svg>
