<svg width="32" height="32" viewBox="0 0 32 32" fill="none" xmlns="http://www.w3.org/2000/svg">
<g clip-path="url(#clip0_4394_17959)">
<path d="M4 20.4178C4.22291 20.0462 4.52012 19.8976 4.89164 19.9719C8.4582 19.9719 12.0991 19.9719 15.6656 19.9719C16.0372 19.9719 16.0372 19.9719 16.1115 19.6747C16.6316 17.4456 18.7121 15.8109 20.9412 15.8852C23.1703 15.9596 25.1022 17.5199 25.6223 19.749C25.6966 19.9719 25.7709 20.0462 25.9938 20.0462C26.3653 20.0462 26.8111 20.0462 27.1827 20.0462C27.6285 20.0462 28 20.3435 28 20.7893C28 21.2351 27.7028 21.5323 27.1827 21.5323C26.7368 21.5323 26.3653 21.5323 25.9195 21.5323C25.6966 21.5323 25.6223 21.6066 25.6223 21.7552C25.1022 24.1329 22.9474 25.7676 20.4954 25.619C18.4149 25.4704 16.483 23.91 16.1115 21.8295C16.0372 21.6066 15.9628 21.5323 15.7399 21.5323C12.0991 21.5323 8.53251 21.5323 4.89164 21.5323C4.52012 21.5323 4.14861 21.3837 4 21.0122C4 20.715 4 20.5664 4 20.4178ZM24.2848 20.6407C24.2848 18.7088 22.7988 17.2227 20.8669 17.2227C19.0093 17.2227 17.4489 18.6345 17.4489 20.6407C17.4489 22.7212 19.1579 24.0586 20.7926 24.0586C22.7245 24.0586 24.2848 22.5726 24.2848 20.6407Z" fill="#181C32"/>
<path d="M4 10.6827C4.14861 10.3111 4.44582 10.1625 4.81734 10.1625C5.18885 10.1625 5.63467 10.1625 6.00619 10.1625C6.1548 10.1625 6.2291 10.0882 6.30341 9.93963C6.82353 7.48761 8.97833 5.85294 11.4303 6.00155C13.5108 6.15015 15.3684 7.71052 15.8142 9.79102C15.8885 10.0139 15.9628 10.0882 16.1858 10.0882C19.7523 10.0882 23.3932 10.0882 26.9598 10.0882C27.1084 10.0882 27.257 10.0882 27.3313 10.0882C27.7028 10.1625 27.9257 10.4598 27.9257 10.8313C27.9257 11.2028 27.6285 11.4257 27.257 11.5C27.1827 11.5 27.0341 11.5 26.9598 11.5C23.3932 11.5 19.7523 11.5 16.1858 11.5C15.9628 11.5 15.8142 11.5743 15.8142 11.7972C15.2941 14.1006 13.2136 15.661 10.9845 15.5867C8.75542 15.5124 6.74923 13.952 6.30341 11.7229C6.30341 11.6486 6.2291 11.5743 6.00619 11.5743C5.63467 11.5743 5.26316 11.5743 4.96594 11.5743C4.52012 11.5743 4.22291 11.5 4 11.1285C4 10.9799 4 10.8313 4 10.6827ZM11.0588 7.48761C9.20124 7.48761 7.71517 8.97368 7.71517 10.8313C7.71517 12.7632 9.20124 14.2492 11.1331 14.2492C13.065 14.2492 14.5511 12.7632 14.5511 10.8313C14.4768 8.82508 12.7678 7.41331 11.0588 7.48761Z" fill="#181C32"/>
</g>
<defs>
<clipPath id="clip0_4394_17959">
<rect width="24" height="19.5418" fill="white" transform="translate(4 6)"/>
</clipPath>
</defs>
</svg>
