<svg width="32" height="32" viewBox="0 0 32 32" fill="none" xmlns="http://www.w3.org/2000/svg">
<g clip-path="url(#clip0_4394_17971)">
<path d="M28 11.1873C28 11.3948 28 11.6023 28 11.8098C28 11.879 28 11.9481 28 12.0173C27.9308 12.9164 27.7925 13.7464 27.7233 14.6455C27.5158 16.3746 27.3084 18.1729 27.1009 19.902C26.8934 21.562 26.755 23.2911 26.5475 24.951C26.4784 25.5735 26.2709 25.781 25.6484 25.781C18.732 25.781 11.8156 25.781 4.89914 25.781C4.48415 25.781 4.20749 25.6427 4 25.2968C4 19.0029 4 12.7781 4 6.48415C4.13833 6.13833 4.48415 6 4.82997 6C5.17579 6 5.59078 6 5.9366 6C7.59654 6 9.32565 6 10.9856 6C11.4697 6 11.7464 6.27666 11.7464 6.76081C11.7464 6.89914 11.7464 6.9683 11.7464 7.10663C11.7464 7.52161 11.7464 7.52161 12.1614 7.52161C15.8963 7.52161 19.6311 7.52161 23.2968 7.52161C23.4352 7.52161 23.5043 7.52161 23.6427 7.52161C24.196 7.52161 24.4726 7.79827 24.4726 8.42075C24.4726 9.11239 24.4726 9.73487 24.4726 10.4265C24.4726 10.634 24.5418 10.7032 24.7493 10.7032C25.5101 10.7032 26.2709 10.7032 27.0317 10.7032C27.5158 10.7032 27.7925 10.8415 28 11.1873ZM15.3429 24.3285C18.5245 24.3285 21.6369 24.3285 24.8184 24.3285C25.0259 24.3285 25.1643 24.2594 25.1643 24.0519C25.2334 23.4986 25.3026 22.8761 25.3718 22.3228C25.5793 20.732 25.7176 19.072 25.9251 17.4813C26.1326 15.8213 26.2709 14.0922 26.4784 12.4323C26.4784 12.2248 26.4784 12.1556 26.2017 12.1556C20.2536 12.1556 14.3746 12.1556 8.42651 12.1556C8.14986 12.0865 8.08069 12.2248 8.01153 12.4323C7.25072 16.3055 6.48991 20.1787 5.65994 23.9827C5.59078 24.3285 5.59078 24.3285 5.9366 24.3285C9.04899 24.3285 12.2305 24.3285 15.3429 24.3285ZM5.45245 17.8963C5.45245 17.8271 5.52161 17.7579 5.52161 17.6888C5.86744 15.6138 6.35158 13.6081 6.76657 11.5331C6.9049 10.8415 7.11239 10.7032 7.80403 10.7032C12.7839 10.7032 17.6945 10.7032 22.6744 10.7032C22.7435 10.7032 22.8127 10.7032 22.8818 10.7032C23.0893 10.7032 23.0893 10.634 23.0893 10.4957C23.0893 10.1499 23.0893 9.73487 23.0893 9.38905C23.0893 9.04323 23.0893 9.04323 22.7435 9.04323C18.9395 9.04323 15.1354 9.04323 11.3314 9.04323C11.2622 9.04323 11.1239 9.04323 11.0548 9.04323C10.7089 9.04323 10.4323 8.76657 10.3631 8.35159C10.3631 8.14409 10.3631 7.9366 10.3631 7.79827C10.3631 7.59078 10.2939 7.52161 10.0865 7.52161C8.63401 7.52161 7.18156 7.52161 5.65994 7.52161C5.45245 7.45245 5.38329 7.52161 5.45245 7.72911C5.45245 8.21326 5.45245 8.69741 5.45245 9.18156C5.45245 12.0173 5.45245 14.9222 5.45245 17.8963Z" fill="#181C32"/>
</g>
<defs>
<clipPath id="clip0_4394_17971">
<rect width="24" height="19.781" fill="white" transform="translate(4 6)"/>
</clipPath>
</defs>
</svg>
