<svg width="32" height="32" viewBox="0 0 32 32" fill="none" xmlns="http://www.w3.org/2000/svg">
<g clip-path="url(#clip0_4395_18474)">
<path d="M28.0262 6.4385C28.0262 5.02674 26.9567 4 25.5449 4C22.208 4 18.9139 4 15.577 4C12.1973 4 8.81766 4 5.48077 4C4.069 4 3.04226 4.98396 2.99948 6.35294C2.9567 7.63636 2.99948 8.96257 2.99948 10.246C2.99948 10.5882 2.99948 10.9733 2.99948 11.3155C2.99948 11.8717 3.34173 12.2567 3.8551 12.2567C3.8551 12.2567 3.8551 12.2567 3.89788 12.2567C4.36847 12.2567 4.71071 11.8717 4.71071 11.3155C4.71071 11.1016 4.71071 10.8449 4.71071 10.631C4.71071 10.5455 4.71071 10.4171 4.71071 10.3316C4.71071 10.2888 4.71071 10.2888 4.71071 10.246C4.75349 10.246 20.3257 10.246 20.3257 10.246C20.3685 10.246 20.454 10.246 20.4968 10.246C20.5396 10.246 20.6252 10.246 20.7107 10.246C21.1385 10.2032 21.438 9.86096 21.4808 9.43315C21.4808 9.00535 21.1385 8.62032 20.7107 8.57754C20.6252 8.57754 20.5824 8.57754 20.4968 8.57754C20.454 8.57754 20.3685 8.57754 20.3257 8.57754H5.05296C5.01018 8.57754 4.9674 8.57754 4.92462 8.57754C4.88184 8.57754 4.83905 8.57754 4.79627 8.57754C4.75349 8.57754 4.75349 8.57754 4.71071 8.57754C4.71071 8.23529 4.71071 7.89305 4.71071 7.59358C4.71071 7.16578 4.71071 6.73797 4.71071 6.35294C4.71071 6.05348 4.88184 5.79679 5.13852 5.71123C5.22408 5.66845 5.30964 5.66845 5.3952 5.66845C5.43799 5.66845 5.43799 5.66845 5.48077 5.66845C5.52355 5.66845 5.56633 5.66845 5.56633 5.66845C7.70537 5.66845 9.8444 5.66845 11.9834 5.66845H24.561C24.6465 5.66845 24.7321 5.66845 24.8604 5.66845C24.946 5.66845 25.0316 5.66845 25.1171 5.66845C25.331 5.66845 25.5022 5.66845 25.6733 5.66845C26.0583 5.66845 26.315 5.92513 26.315 6.31016C26.315 6.73797 26.315 7.20856 26.315 7.63636C26.315 7.93583 26.315 8.27807 26.315 8.57754C26.1011 8.57754 25.8872 8.57754 25.6305 8.57754C25.4594 8.57754 25.2883 8.57754 25.1171 8.57754C24.946 8.57754 24.7749 8.57754 24.6465 8.57754H23.8337C23.6626 8.57754 23.4487 8.57754 23.2776 8.57754C22.5503 8.57754 22.2936 9.00535 22.2936 9.39037C22.2936 9.60428 22.3792 9.81818 22.5075 9.94652C22.6786 10.1176 22.9353 10.2032 23.2776 10.2032H26.2294C26.2722 10.2032 26.2722 10.2032 26.315 10.2032C26.315 10.246 26.315 23.3797 26.315 23.3797C26.315 23.4225 26.315 23.4652 26.315 23.508C26.315 23.5508 26.315 23.5936 26.315 23.6364C26.315 23.8075 26.2294 23.9358 26.1011 24.0642C25.9727 24.1925 25.8016 24.2353 25.5877 24.2353C25.2027 24.2353 24.8177 24.2353 24.4326 24.2353C24.1332 24.2353 22.807 24.2353 22.807 24.2353H22.6786C22.6358 24.2353 22.5503 24.2353 22.5075 24.2353C22.0369 24.2781 21.7375 24.6203 21.7375 25.0909C21.7375 25.5615 22.0797 25.861 22.5503 25.9037C22.6358 25.9037 22.7214 25.9037 22.807 25.9037C23.0637 25.9037 23.3203 25.9037 23.577 25.9037C23.8337 25.9037 24.0904 25.9037 24.3471 25.9037C24.7749 25.9037 25.1599 25.9037 25.4594 25.9037C25.5022 25.9037 25.5022 25.9037 25.5449 25.9037C26.7 25.9037 27.8979 25.0053 27.8979 23.4652C28.0262 17.3048 28.0262 11.7433 28.0262 6.4385Z" fill="#181C32"/>
<path d="M21.4387 25.3041C21.2248 24.8763 21.0109 24.4057 20.7543 23.9779C21.0965 23.8068 21.4387 23.6357 21.781 23.4646C21.9521 23.379 22.0805 23.2934 22.2516 23.2079C22.7649 22.9512 22.8933 22.6089 22.9361 22.395C22.9361 22.1811 22.8505 21.8389 22.3799 21.5394C21.6099 21.026 20.8398 20.5127 20.0698 19.9993L19.428 19.5715C19.1286 19.3576 18.7863 19.1437 18.4869 18.9726C17.674 18.4164 16.8184 17.8603 16.0056 17.3469C15.8345 17.2186 15.6206 17.1758 15.4494 17.1758C15.0216 17.1758 14.6794 17.518 14.6366 18.0314C14.6366 18.2453 14.5938 18.4592 14.5938 18.6731C14.5938 18.8014 14.5938 18.887 14.5938 19.0154C14.5938 19.3148 14.551 19.5715 14.551 19.871C14.5083 20.5127 14.4655 21.1972 14.4227 21.8817C14.3799 22.7801 14.2944 23.6785 14.2516 24.5769L14.166 25.7319C14.166 26.1597 14.2944 26.3736 14.4227 26.502C14.551 26.6303 14.7649 26.7159 14.9788 26.7159C15.15 26.7159 15.3211 26.6731 15.535 26.5875L15.8772 26.4164C16.2623 26.2025 16.6901 26.0314 17.1179 25.8175C17.3318 26.2881 17.5885 26.7587 17.8452 27.2293L17.9307 27.4004C18.0163 27.5287 18.2302 27.9565 18.7008 27.9565C18.8291 27.9565 19.0002 27.9138 19.1714 27.8282C19.642 27.6143 20.0698 27.4432 20.5403 27.2293C20.7543 27.1437 20.9682 27.0154 21.2248 26.9298C21.5243 26.8014 21.7382 26.6303 21.781 26.3736C21.8666 26.1597 21.8238 25.9031 21.6954 25.5608L21.4387 25.3041ZM17.4601 23.8924C17.289 23.8924 17.1607 23.9351 16.9468 24.0207C16.6901 24.149 16.4762 24.2774 16.2195 24.3629C16.0911 24.4057 16.0056 24.4913 15.8772 24.5341L15.92 23.5501C15.9628 22.5662 16.0484 21.5822 16.0911 20.5982C16.0911 20.256 16.1339 19.871 16.1339 19.4859C17.6313 20.4699 19.0002 21.3683 20.3692 22.2667C19.9842 22.4378 19.642 22.6089 19.3425 22.7801C18.7863 23.0795 18.6152 23.5073 18.9147 24.0635L19.0858 24.3629C19.2997 24.7908 19.5136 25.2613 19.7275 25.6892C19.4708 25.7747 19.2141 25.9031 18.9575 26.0314C18.7008 25.5608 18.4869 25.0474 18.2302 24.5769L18.1446 24.4057C18.1874 24.3202 17.9735 23.8924 17.4601 23.8924Z" fill="#181C32"/>
<path d="M13.0109 24.2792C12.9681 24.2792 12.9253 24.2792 12.8398 24.2792C12.797 24.2792 12.7114 24.2792 12.7114 24.2792H8.94671C7.79163 24.2792 6.63655 24.2792 5.52425 24.2792C4.92532 24.2792 4.71142 24.0226 4.71142 23.4664C4.71142 22.4397 4.71142 21.4129 4.71142 20.3434V17.5199C4.71142 16.4076 4.71142 15.2525 4.71142 14.1402C4.71142 13.5413 4.36917 13.1562 3.89858 13.1562C3.38521 13.1562 3.08575 13.5413 3.04297 14.0974C3.04297 14.1402 3.04297 14.1402 3.04297 14.183C3.04297 14.183 3.04297 15.9798 3.04297 16.8782C3.04297 19.06 3.04297 21.2846 3.04297 23.4664C3.04297 24.1509 3.29965 24.7926 3.72746 25.2204C4.19805 25.691 4.79698 25.9477 5.43869 25.9477H5.48147C6.03762 25.9477 6.59377 25.9049 7.32104 25.9049C7.79163 25.9049 8.21944 25.9049 8.69003 25.9049C9.16062 25.9049 9.6312 25.9049 10.059 25.9049H11.4708C11.9414 25.9049 12.4547 25.9049 12.9253 25.9049C13.3959 25.9049 13.7809 25.5627 13.7809 25.0921C13.8237 24.7071 13.4815 24.322 13.0109 24.2792Z" fill="#181C32"/>
<path d="M6.84903 13.5835C7.06294 13.7974 7.3624 13.7974 7.53352 13.7974C8.21802 13.7974 8.85973 13.7974 9.54422 13.7974H11.9399C11.9399 13.7974 14.5923 13.7974 15.3196 13.7974H15.4052C15.4907 13.7974 15.5335 13.7974 15.6191 13.7974C16.0469 13.7546 16.3464 13.3695 16.3464 12.9417C16.3464 12.5139 16.0041 12.1717 15.5763 12.1289C15.4907 12.1289 15.448 12.1289 15.4052 12.1289C15.3624 12.1289 15.2768 12.1289 15.2768 12.1289H7.61909C7.57631 12.1289 7.57631 12.1289 7.53352 12.1289C7.49074 12.1289 7.49074 12.1289 7.44796 12.1289C7.3624 12.1289 7.31962 12.1289 7.23406 12.1289C6.89181 12.1717 6.63513 12.3856 6.54957 12.7278C6.50679 13.0273 6.59235 13.3268 6.84903 13.5835Z" fill="#181C32"/>
<path d="M6.67858 16.9203C6.84971 17.177 7.10639 17.3481 7.44864 17.3481C7.66254 17.3481 7.91923 17.3481 8.21869 17.3481C8.43259 17.3481 8.6465 17.3481 8.81762 17.3481C8.98874 17.3481 9.20265 17.3481 9.37377 17.3481H9.41655C9.58767 17.3481 9.80158 17.3481 9.9727 17.3481C10.1438 17.3481 10.3577 17.3481 10.5289 17.3481C10.8711 17.3481 11.1278 17.3481 11.3845 17.3481C11.8978 17.3481 12.2401 17.0059 12.2401 16.4925C12.2401 16.0219 11.8978 15.6797 11.3845 15.6797C10.7855 15.6797 10.2294 15.6797 9.63046 15.6797H7.36308C7.06361 15.6797 6.80693 15.808 6.6358 16.1075C6.55024 16.3642 6.55024 16.6636 6.67858 16.9203Z" fill="#181C32"/>
</g>
<defs>
<clipPath id="clip0_4395_18474">
<rect width="25.0267" height="24" fill="white" transform="translate(3 4)"/>
</clipPath>
</defs>
</svg>
