<svg width="32" height="32" viewBox="0 0 32 32" fill="none" xmlns="http://www.w3.org/2000/svg">
<g clip-path="url(#clip0_4394_17982)">
<path d="M28 6.33143C28 12.7771 28 19.2229 28 25.7371C27.9314 26.08 27.8629 26.4229 27.6571 26.6971C27.2457 27.4514 26.56 27.8629 25.7371 28C19.2229 28 12.7771 28 6.26286 28C6.19429 28 6.05714 27.9314 5.98857 27.9314C4.82286 27.6571 4 26.56 4 25.3943C4 19.0857 4 12.8457 4 6.60571C4 5.23429 5.16571 4 6.60571 4C12.8457 4 19.0857 4 25.3943 4C25.6686 4 26.0114 4.06857 26.2857 4.13714C27.2457 4.54857 27.7943 5.30286 28 6.33143ZM18.88 16C18.88 15.1086 18.88 14.1486 18.88 13.2571C18.88 12.9829 18.88 12.9143 18.6057 12.9143C16.7543 12.9143 14.9029 12.9143 13.0514 12.9143C12.8457 12.9143 12.7771 12.9829 12.7771 13.1886C12.7771 15.04 12.7771 16.8914 12.7771 18.7429C12.7771 18.9486 12.8457 19.0171 13.0514 19.0171C14.9029 19.0171 16.7543 19.0171 18.6057 19.0171C18.8114 19.0171 18.88 18.9486 18.88 18.7429C18.88 17.8514 18.88 16.8914 18.88 16ZM20.3886 16C20.3886 16.96 20.3886 17.8514 20.3886 18.8114C20.3886 19.0171 20.4571 19.0857 20.6629 19.0857C22.5143 19.0857 24.3657 19.0857 26.2171 19.0857C26.4914 19.0857 26.4914 19.0857 26.4914 18.8114C26.4914 16.96 26.4914 15.1086 26.4914 13.2571C26.4914 12.9829 26.4914 12.9829 26.2171 12.9829C24.3657 12.9829 22.5143 12.9829 20.6629 12.9829C20.4571 12.9829 20.3886 13.0514 20.3886 13.2571C20.3886 14.1486 20.3886 15.04 20.3886 16ZM15.7943 11.4743C16.7543 11.4743 17.6457 11.4743 18.6057 11.4743C18.8114 11.4743 18.88 11.4057 18.88 11.2C18.88 9.41714 18.88 7.56571 18.88 5.78286C18.88 5.57714 18.8114 5.50857 18.6057 5.50857C16.7543 5.50857 14.9029 5.50857 12.9829 5.50857C12.7771 5.50857 12.7086 5.57714 12.7086 5.78286C12.7086 7.56571 12.7086 9.41714 12.7086 11.2C12.7086 11.4057 12.7771 11.4743 12.9829 11.4743C13.9429 11.4057 14.9029 11.4743 15.7943 11.4743ZM15.7943 26.56C16.7543 26.56 17.6457 26.56 18.6057 26.56C18.88 26.56 18.88 26.56 18.88 26.2857C18.88 24.5029 18.88 22.72 18.88 20.9371C18.88 20.6629 18.88 20.5943 18.5371 20.5943C16.6857 20.5943 14.8343 20.5943 12.9829 20.5943C12.7086 20.5943 12.64 20.5943 12.64 20.9371C12.64 22.72 12.64 24.5029 12.64 26.2857C12.64 26.56 12.64 26.56 12.9829 26.56C13.9429 26.56 14.9029 26.56 15.7943 26.56ZM23.4057 11.4743C24.3657 11.4743 25.3257 11.4743 26.2171 11.4743C26.4229 11.4743 26.4914 11.4057 26.4914 11.2C26.4914 9.69143 26.4914 8.11429 26.4914 6.60571C26.4914 6.05714 26.08 5.57714 25.6 5.50857C25.3943 5.44 25.2571 5.44 25.0514 5.44C23.6114 5.44 22.1029 5.44 20.6629 5.44C20.32 5.44 20.32 5.44 20.32 5.78286C20.32 7.56571 20.32 9.34857 20.32 11.1314C20.32 11.4057 20.32 11.4743 20.6629 11.4743C21.6229 11.4743 22.5143 11.4743 23.4057 11.4743ZM23.4743 20.5257C22.5143 20.5257 21.5543 20.5257 20.6629 20.5257C20.4571 20.5257 20.3886 20.5943 20.3886 20.8C20.3886 22.6514 20.3886 24.5029 20.3886 26.3543C20.3886 26.4914 20.4571 26.56 20.5943 26.56C22.1029 26.56 23.68 26.56 25.1886 26.56C26.08 26.56 26.4914 26.08 26.4914 25.1886C26.4914 23.7486 26.4914 22.3086 26.4914 20.8686C26.4914 20.5943 26.4914 20.5257 26.2171 20.5257C25.3257 20.5257 24.3657 20.5257 23.4743 20.5257ZM5.44 16C5.44 16.96 5.44 17.8514 5.44 18.8114C5.44 19.0171 5.50857 19.0857 5.71429 19.0857C7.42857 19.0857 9.21143 19.0857 10.9257 19.0857C11.1314 19.0857 11.2 19.0171 11.2 18.8114C11.2 16.96 11.2 15.1086 11.2 13.2571C11.2 13.0514 11.1314 12.9829 10.9257 12.9829C9.21143 12.9829 7.42857 12.9829 5.71429 12.9829C5.50857 12.9829 5.44 13.0514 5.44 13.2571C5.44 14.1486 5.44 15.04 5.44 16ZM11.2686 8.45714C11.2686 7.56571 11.2686 6.60571 11.2686 5.71429C11.2686 5.50857 11.2 5.44 11.0629 5.44C9.69143 5.44 8.25143 5.44 6.88 5.44C5.98857 5.44 5.50857 5.98857 5.50857 6.81143C5.50857 8.25143 5.50857 9.69143 5.50857 11.1314C5.50857 11.3371 5.57714 11.4057 5.78286 11.4057C7.49714 11.4057 9.28 11.4057 10.9943 11.4057C11.2686 11.4057 11.3371 11.4057 11.3371 11.0629C11.2686 10.24 11.2686 9.34857 11.2686 8.45714ZM11.2686 23.5429C11.2686 22.6514 11.2686 21.6914 11.2686 20.8C11.2686 20.5943 11.2 20.5257 10.9943 20.5257C9.21143 20.5257 7.49714 20.5257 5.71429 20.5257C5.50857 20.5257 5.44 20.5943 5.44 20.8C5.44 22.24 5.44 23.7486 5.44 25.1886C5.44 25.3943 5.50857 25.6686 5.57714 25.8743C5.85143 26.4229 6.33143 26.56 6.88 26.56C8.25143 26.56 9.62286 26.56 10.9943 26.56C11.2 26.56 11.2686 26.4914 11.2686 26.2857C11.2686 25.3943 11.2686 24.4343 11.2686 23.5429Z" fill="#181C32"/>
</g>
<defs>
<clipPath id="clip0_4394_17982">
<rect width="24" height="24" fill="white" transform="translate(4 4)"/>
</clipPath>
</defs>
</svg>
