<svg width="32" height="32" viewBox="0 0 32 32" fill="none" xmlns="http://www.w3.org/2000/svg">
<g clip-path="url(#clip0_4395_18487)">
<path d="M8.31118 28.0019C7.76073 27.8919 7.21027 27.6717 6.7699 27.2313C5.99926 26.3506 5.66898 25.4698 6.10935 24.3689C6.54972 23.0478 7.10018 21.7267 7.54054 20.4056C9.30201 15.6717 11.0635 10.8276 12.935 6.09369C13.3754 4.99277 14.036 4.33222 15.1369 4.11204C16.458 3.89185 17.7791 4.5524 18.3295 5.87351C18.88 7.19461 19.3204 8.6258 19.8708 10.057C21.6323 14.6808 23.3938 19.4148 25.0451 24.0386C25.3754 24.8093 25.4855 25.4698 25.1552 26.2405C24.8249 27.2313 24.1644 27.7818 23.1736 28.112C23.0635 28.112 23.0635 28.112 22.9534 28.2221C22.6231 28.2221 22.2928 28.2221 21.9626 28.2221H21.8525C20.8616 28.0019 20.091 27.3414 19.7607 26.3506C19.4305 25.4698 19.1002 24.6992 18.7699 23.8185C18.6598 23.5983 18.6598 23.5983 18.4396 23.5983C16.5681 23.5983 14.5864 23.5983 12.7149 23.5983C12.4947 23.5983 12.3846 23.7084 12.3846 23.8185C12.0543 24.6992 11.724 25.5799 11.3938 26.4607C11.2837 26.901 10.9534 27.2313 10.7332 27.5616C10.4029 27.6717 9.85247 27.8919 9.30201 28.0019C8.97174 28.0019 8.64146 28.0019 8.31118 28.0019ZM23.9442 25.2497C23.9442 25.0295 23.8341 24.8093 23.8341 24.5891C21.9626 19.5249 20.091 14.5708 18.2194 9.50653C17.7791 8.40562 17.4488 7.41479 17.0084 6.31387C16.7882 5.76341 16.3479 5.54323 15.7974 5.43314C15.3571 5.43314 14.9167 5.54323 14.5864 5.9836C14.4763 6.20378 14.3662 6.42396 14.2561 6.75424C12.6048 11.3781 10.8433 16.0019 9.08183 20.6258C8.53137 21.9469 8.091 23.268 7.54054 24.6992C7.32036 25.1396 7.32036 25.5799 7.65063 26.0203C7.98091 26.4607 8.31118 26.6808 8.86164 26.6808C9.52219 26.6808 9.85247 26.3506 10.0727 25.69C10.513 24.5891 10.8433 23.5983 11.2837 22.4974C11.5038 22.057 11.6139 21.9469 12.1644 21.9469C14.4763 21.9469 16.8983 21.9469 19.2103 21.9469C19.6506 21.9469 19.8708 22.057 20.091 22.4974C20.2011 22.9377 20.4213 23.268 20.5314 23.7084C20.7516 24.3689 21.0818 25.1396 21.302 25.8001C21.5222 26.4607 22.1827 26.7909 22.8433 26.6808C23.5038 26.4607 23.9442 25.9102 23.9442 25.2497Z" fill="#181C32"/>
<path d="M15.6874 19.0842C15.0269 19.0842 14.3663 19.0842 13.7058 19.0842C13.0452 19.0842 12.7149 18.6439 12.9351 17.9833C13.7058 16.2218 14.3663 14.4604 15.0269 12.6989C15.137 12.3686 15.4672 12.1484 15.6874 12.1484C16.0177 12.1484 16.2379 12.3686 16.348 12.6989C17.0085 14.4604 17.6691 16.3319 18.3296 18.0934C18.5498 18.6439 18.2195 19.0842 17.559 19.0842C17.0085 19.0842 16.348 19.0842 15.6874 19.0842ZM15.7975 15.0108C15.6874 15.0108 15.6874 15.0108 15.7975 15.0108C15.4672 15.8916 15.137 16.6622 14.8067 17.5429C14.8067 17.653 14.8067 17.653 14.9168 17.653C15.4672 17.653 16.0177 17.653 16.5681 17.653C16.6782 17.653 16.6782 17.653 16.6782 17.5429C16.5681 17.3227 16.4581 17.1026 16.4581 16.8824C16.2379 16.2218 16.0177 15.6714 15.7975 15.0108Z" fill="#181C32"/>
</g>
<defs>
<clipPath id="clip0_4395_18487">
<rect width="19.3761" height="24" fill="white" transform="translate(6 4)"/>
</clipPath>
</defs>
</svg>
