<svg width="32" height="32" viewBox="0 0 32 32" fill="none" xmlns="http://www.w3.org/2000/svg">
<g clip-path="url(#clip0_4395_18504)">
<path d="M28 17.8064C27.7885 18.1236 27.5771 18.2293 27.1542 18.2293C26.3084 18.2293 25.4626 18.2293 24.511 18.2293C23.9824 18.2293 23.7709 17.9122 23.7709 17.4892C23.7709 16.8549 23.7709 16.8549 23.1366 16.8549C18.2731 16.8549 13.4097 16.8549 8.54626 16.8549C8.22908 16.8549 8.22907 16.8549 8.22907 17.1721C8.22907 18.0179 8.01762 18.2293 7.17181 18.2293C6.43172 18.2293 5.5859 18.2293 4.84582 18.2293C4.31718 18.2293 4 18.0179 4 17.4892C4 16.6434 4 15.6919 4 14.8461C4 14.3174 4.31718 14.0003 4.74009 14.0003C5.5859 14.0003 6.53745 14.0003 7.38326 14.0003C7.91189 14.0003 8.22907 14.3174 8.22907 14.7403C8.22907 15.3747 8.22907 15.3747 8.86344 15.3747C13.7269 15.3747 18.5903 15.3747 23.348 15.3747C23.7709 15.3747 23.7709 15.3747 23.7709 14.9518C23.7709 14.8461 23.7709 14.8461 23.7709 14.7403C23.7709 14.106 23.9824 13.8945 24.6167 13.8945C25.4626 13.8945 26.3084 13.8945 27.1542 13.8945C27.5771 13.8945 27.7885 14.0003 28 14.4232C28 15.5862 28 16.6434 28 17.8064ZM5.48018 16.1148C5.48018 16.3262 5.48018 16.432 5.48018 16.6434C5.48018 16.7492 5.48018 16.8549 5.69163 16.8549C6.00881 16.8549 6.32599 16.8549 6.64317 16.8549C6.7489 16.8549 6.85463 16.8549 6.85463 16.6434C6.85463 16.3262 6.85463 16.0091 6.85463 15.5862C6.85463 15.4804 6.85463 15.3747 6.64317 15.3747C6.43172 15.3747 6.32599 15.3747 6.11454 15.3747C5.48018 15.4804 5.48018 15.4804 5.48018 16.1148ZM25.2511 16.1148C25.2511 16.3262 25.2511 16.432 25.2511 16.6434C25.2511 16.7492 25.2511 16.8549 25.4626 16.8549C25.7797 16.8549 26.2026 16.8549 26.5198 16.8549C26.6256 16.8549 26.6256 16.8549 26.6256 16.7492C26.6256 16.432 26.6256 16.0091 26.6256 15.6919C26.6256 15.5862 26.5198 15.4804 26.4141 15.4804C26.0969 15.4804 25.7797 15.4804 25.3568 15.4804C25.2511 15.4804 25.1454 15.4804 25.1454 15.6919C25.2511 15.7976 25.2511 16.0091 25.2511 16.1148Z" fill="#181C32"/>
</g>
<defs>
<clipPath id="clip0_4395_18504">
<rect width="24" height="4.22907" fill="white" transform="translate(4 14)"/>
</clipPath>
</defs>
</svg>
