<svg width="32" height="32" viewBox="0 0 32 32" fill="none" xmlns="http://www.w3.org/2000/svg">
<g clip-path="url(#clip0_4394_17992)">
<path d="M2 26.045C2 20.4363 2 14.9581 2 9.34935V9.21892C2.3913 8.04501 3.30435 7.39283 4.47826 7.39283C4.73913 7.39283 5 7.39283 5.13043 7.39283C5.26087 7.39283 5.3913 7.2624 5.3913 7.13196C5.3913 6.87109 5.3913 6.61022 5.3913 6.34935C5.3913 5.04501 6.43478 3.87109 7.86956 3.87109C14.2609 3.87109 20.6522 3.87109 27.0435 3.87109C28.3478 3.87109 29.3913 4.91457 29.3913 6.21892C29.3913 11.4363 29.3913 16.6537 29.3913 22.0015C29.3913 23.3059 28.3478 24.3494 27.0435 24.3494C26.7826 24.3494 26.5217 24.3494 26.2609 24.3494C26.1304 24.3494 26 24.4798 26 24.6102C26 24.8711 26 25.132 26 25.3928C26 26.6972 24.9565 27.7407 23.6522 27.7407C17.2609 27.7407 10.7391 27.7407 4.34783 27.7407C3.95652 27.7407 3.69565 27.6102 3.30435 27.4798C2.65217 27.4798 2.26087 26.8276 2 26.045ZM17.5217 22.9146C20.6522 22.9146 23.7826 22.9146 26.913 22.9146C27.5652 22.9146 27.8261 22.6537 27.8261 22.0015C27.8261 20.1754 27.8261 18.2189 27.8261 16.3928C27.8261 16.132 27.6957 16.0015 27.5652 15.8711C26.6522 15.2189 25.7391 14.5667 24.8261 13.9146C24.1739 13.3928 23.5217 13.0015 22.8696 12.4798C22.6087 12.3494 22.4783 12.3494 22.3478 12.4798L22.2174 12.6102C20.2609 14.3059 18.3043 16.0015 16.4783 17.6972C15.9565 18.2189 15.5652 18.2189 15.0435 17.6972C14.1304 17.045 13.3478 16.2624 12.4348 15.6102C12.3043 15.4798 12.1739 15.4798 12.0435 15.6102C10.4783 16.9146 8.91304 18.0885 7.21739 19.3928C7.21739 19.3928 7.08696 19.5233 7.08696 19.6537C7.08696 20.4363 7.08696 21.0885 7.08696 21.8711C7.08696 22.6537 7.34783 22.9146 8.13043 22.9146C11.2609 22.9146 14.3913 22.9146 17.5217 22.9146ZM17.5217 5.69718C14.3913 5.69718 11.2609 5.69718 8.13043 5.69718C7.47826 5.69718 7.08696 5.95805 7.08696 6.61022C7.08696 10.0015 7.08696 13.5233 7.08696 16.9146C7.08696 17.045 7.08696 17.1754 7.08696 17.1754C7.21739 17.1754 7.21739 17.045 7.34783 17.045C8.78261 15.8711 10.2174 14.8276 11.6522 13.6537C12.1739 13.2624 12.5652 13.2624 12.9565 13.6537C13.8696 14.4363 14.6522 15.2189 15.4348 15.8711C15.8261 16.132 15.8261 16.132 16.087 15.8711C18.0435 14.1754 20 12.4798 21.8261 10.7841C22.3478 10.2624 22.6087 10.2624 23.2609 10.6537C24.6956 11.6972 26.1304 12.6102 27.5652 13.6537C27.6957 13.6537 27.6956 13.7841 27.8261 13.7841C27.9565 13.7841 27.8261 13.6537 27.8261 13.5233C27.8261 11.1754 27.8261 8.95805 27.8261 6.61022C27.8261 5.82762 27.5652 5.56675 26.7826 5.56675C23.7826 5.69718 20.6522 5.69718 17.5217 5.69718ZM14 26.3059C17.1304 26.3059 20.1304 26.3059 23.2609 26.3059C23.3913 26.3059 23.5217 26.3059 23.5217 26.3059C24.0435 26.3059 24.3043 25.9146 24.3043 25.5233C24.3043 25.3928 24.3043 25.132 24.3043 25.0015C24.3043 24.6102 24.3043 24.6102 23.913 24.6102C18.5652 24.6102 13.3478 24.6102 8 24.6102C7.73913 24.6102 7.6087 24.6102 7.34783 24.6102C6.17391 24.3494 5.3913 23.4363 5.3913 22.132C5.3913 17.9581 5.3913 13.7841 5.3913 9.61022C5.3913 9.47979 5.3913 9.47979 5.3913 9.34935C5.3913 9.21892 5.26087 9.08849 5.13043 9.08849C5 9.08849 4.73913 9.08849 4.6087 9.08849C3.82609 9.08849 3.56522 9.34935 3.56522 10.132C3.56522 15.2189 3.56522 20.3059 3.56522 25.2624C3.56522 26.045 3.82609 26.3059 4.6087 26.3059C7.73913 26.3059 10.8696 26.3059 14 26.3059Z" fill="#181C32"/>
<path d="M15.6951 12.4815C14.2603 12.4815 13.2168 11.3076 13.2168 9.87279C13.2168 8.43801 14.3907 7.39453 15.8255 7.39453C17.2603 7.39453 18.3038 8.56844 18.3038 10.0032C18.3038 11.438 17.1298 12.4815 15.6951 12.4815ZM16.6081 10.0032C16.6081 9.48149 16.2168 9.09018 15.6951 9.09018C15.1733 9.09018 14.782 9.48149 14.782 10.0032C14.782 10.525 15.1733 10.9163 15.6951 10.9163C16.2168 10.9163 16.6081 10.3945 16.6081 10.0032Z" fill="#181C32"/>
</g>
<defs>
<clipPath id="clip0_4394_17992">
<rect width="27.5217" height="24" fill="white" transform="translate(2 4)"/>
</clipPath>
</defs>
</svg>
