<svg width="28" height="24" viewBox="0 0 28 24" fill="none" xmlns="http://www.w3.org/2000/svg">
<g clip-path="url(#clip0_4092_5140)">
<path d="M0.925781 16.5745C1.48609 14.52 1.99971 12.4655 2.56002 10.3643C2.65341 9.9908 2.74679 9.61726 2.88687 9.24372C3.02695 8.87018 3.3538 8.63672 3.72734 8.63672C4.14757 8.68341 4.42773 8.96357 4.52111 9.3838C4.5678 9.52388 4.52111 9.71065 4.47442 9.85073C3.82072 12.092 3.26041 14.3799 2.65341 16.6678C2.46664 17.3215 2.7001 17.6951 3.3538 17.8352C8.86352 19.3293 14.3266 20.7768 19.8363 22.271C20.49 22.4577 20.8168 22.2243 21.0036 21.6173C21.1904 20.9169 21.3305 20.2165 21.5172 19.5161C21.6573 19.0025 22.0775 18.7223 22.5445 18.8624C23.0114 18.9558 23.2448 19.4227 23.1515 19.9363C22.9647 20.6834 22.7779 21.3838 22.6378 22.1309C22.311 23.5317 20.9102 24.3721 19.5094 23.9519C17.0347 23.2515 14.5133 22.5978 12.0386 21.9441C9.09699 21.1503 6.10866 20.3566 3.16703 19.5628C2.0464 19.2826 1.25263 18.6756 0.925781 17.5083C0.925781 17.1815 0.925781 16.8546 0.925781 16.5745Z" fill="#181C32"/>
<path d="M16.1935 0C18.995 0 21.7966 0 24.5981 0C25.8121 0 26.7927 0.793774 27.0728 2.00778C27.0728 2.19455 27.0728 2.38132 27.0728 2.5214C27.0728 6.63035 27.0728 10.786 27.0728 14.8949C27.0728 16.3891 25.9989 17.463 24.5047 17.463C23.3374 17.463 22.1234 17.463 20.9561 17.463C16.6137 17.463 12.318 17.463 7.97557 17.463C6.76156 17.463 5.92109 16.9027 5.36078 15.8755C5.2207 15.5486 5.2207 15.2218 5.2207 14.8949C5.2207 12.2335 5.2207 9.61868 5.2207 6.9572C5.2207 5.46303 5.2207 3.96887 5.2207 2.47471C5.2207 1.2607 6.06117 0.280156 7.22849 0C7.46195 0 7.64872 0 7.83549 0C10.5904 0 13.3919 0 16.1935 0ZM25.3452 10.9728H25.3919C25.3919 10.8794 25.3919 10.786 25.3919 10.7393C25.3919 8.07782 25.3919 5.41634 25.3919 2.75486C25.3919 2.00778 25.1118 1.68093 24.3647 1.68093C20.5359 1.68093 16.7071 1.68093 12.8316 1.68093C11.1507 1.68093 9.51642 1.68093 7.83549 1.68093C7.22849 1.68093 6.90164 1.96109 6.90164 2.56809C6.90164 6.11673 6.90164 9.66537 6.90164 13.214C6.90164 13.2607 6.85494 13.3541 6.99502 13.4475C7.04171 13.4008 7.08841 13.3074 7.1351 13.2607C8.20903 12.1868 9.28296 11.1128 10.3569 10.0389C11.1974 9.24514 12.318 9.24514 13.1584 10.0389C13.532 10.4125 13.9055 10.7393 14.2324 11.1128C14.3725 11.2529 14.4658 11.2529 14.5592 11.1128C15.8199 9.57198 17.0806 8.03113 18.388 6.53696C19.2285 5.55642 20.5826 5.50973 21.3763 6.49027C22.1234 7.33074 22.8705 8.2179 23.6176 9.10506C24.2246 9.66537 24.7849 10.3191 25.3452 10.9728ZM16.1935 15.7821C18.9483 15.7821 21.7499 15.7821 24.5047 15.7821C25.0651 15.7821 25.3919 15.4553 25.3919 14.8949C25.3919 14.5214 25.3919 14.1479 25.3919 13.7743C25.3919 13.6342 25.3452 13.5875 25.2985 13.4942C23.6176 11.5331 21.9833 9.61868 20.3024 7.65759C20.069 7.37743 19.9289 7.37743 19.6954 7.65759C18.2012 9.43191 16.7538 11.2062 15.2596 12.9805C14.8394 13.4475 14.3258 13.4942 13.9055 13.0272C13.3452 12.4669 12.7382 11.8599 12.1779 11.2996C11.8511 10.9728 11.8511 10.9728 11.5242 11.2996C10.3569 12.4669 9.23627 13.5875 8.06895 14.7549C7.83549 14.9883 7.64872 15.1751 7.41526 15.4086C7.27518 15.5486 7.32187 15.5953 7.46195 15.6887C7.60203 15.7354 7.7421 15.7354 7.92887 15.7354C10.637 15.7821 13.4386 15.7821 16.1935 15.7821Z" fill="#181C32"/>
<path d="M12.9262 5.46408C12.9262 6.67809 11.899 7.70533 10.7317 7.70533C9.51765 7.70533 8.53711 6.67809 8.53711 5.46408C8.53711 4.25008 9.51765 3.26953 10.7317 3.26953C11.9457 3.26953 12.9262 4.25008 12.9262 5.46408ZM11.2453 5.46408C11.2453 5.18393 11.0118 4.95047 10.7784 4.95047C10.4982 4.95047 10.2647 5.18393 10.2647 5.46408C10.2647 5.74424 10.4515 5.9777 10.7317 5.9777C11.0118 5.9777 11.2453 5.74424 11.2453 5.46408Z" fill="#181C32"/>
</g>
<defs>
<clipPath id="clip0_4092_5140">
<rect width="26.1479" height="24" fill="white" transform="translate(0.925781)"/>
</clipPath>
</defs>
</svg>
