<svg width="32" height="32" viewBox="0 0 32 32" fill="none" xmlns="http://www.w3.org/2000/svg">
<g clip-path="url(#clip0_4394_18001)">
<path d="M32.0006 21.619C31.789 21.9153 31.4927 22.0423 31.1117 22.0423C22.6884 22.0423 14.3075 22.0423 5.8842 22.0423C5.41859 22.0423 5.41859 22.0423 5.41859 22.5503C5.41859 23.1005 5.41859 23.6085 5.41859 24.1587C5.41859 24.6667 5.41859 24.6667 5.92652 24.6667C6.77308 24.6667 7.57732 24.6667 8.42388 24.6667C8.55086 24.6667 8.63552 24.6667 8.7625 24.6667C9.14346 24.7513 9.39742 25.0476 9.39742 25.3862C9.3551 25.7672 9.10113 26.0212 8.67785 26.0212C7.95827 26.0212 7.23869 26.0212 6.51912 26.0212C4.61435 26.0212 2.70959 26.0212 0.804831 26.0212C0.508535 26.0212 0.254567 25.9365 0.0852544 25.6825C-0.126386 25.3016 0.0429264 24.836 0.466207 24.709C0.635519 24.6243 0.804831 24.6243 0.974143 24.6243C1.86303 24.6243 2.75192 24.6243 3.64081 24.6243C3.93711 24.6243 3.97943 24.5397 3.97943 24.2434C3.97943 23.6085 3.97943 22.9735 3.97943 22.2963C3.97943 22.0847 3.89478 22 3.68314 22C2.70959 22 1.73605 22 0.762503 22C0.254567 22.0423 0.000598326 21.7884 0.000598326 21.2381C0.000598326 17.7249 0.000598326 14.254 0.000598326 10.7407C0.000598326 10.2328 0.254567 10.0212 0.762503 10.0212C1.73605 10.0212 2.66726 10.0212 3.64081 10.0212C3.93711 10.0212 4.02176 9.93651 4.02176 9.64021C4.02176 9.00529 4.02176 8.37037 4.02176 7.73545C4.02176 7.48148 3.93711 7.39683 3.68314 7.39683C2.75192 7.39683 1.77838 7.39683 0.847159 7.39683C0.296895 7.39683 0.000598326 7.10053 0.000598326 6.63492C0.000598326 6.2963 0.254567 6.04233 0.593191 6C0.635519 6 0.720175 6 0.762503 6C3.38684 6 5.96885 6 8.59319 6C8.88949 6 9.14346 6.04233 9.27044 6.33862C9.52441 6.71958 9.31277 7.22751 8.88949 7.3545C8.72018 7.39683 8.59319 7.39683 8.42388 7.39683C7.53499 7.39683 6.6461 7.39683 5.75721 7.39683C5.50324 7.39683 5.37626 7.48148 5.37626 7.73545C5.37626 8.37037 5.37626 9.00529 5.37626 9.68254C5.37626 9.89418 5.46092 10.0212 5.67256 9.97884C5.75721 9.97884 5.84187 9.97884 5.96885 9.97884C14.3498 9.97884 22.7308 9.97884 31.1117 9.97884C31.4927 9.97884 31.789 10.0635 32.0006 10.4021C32.0006 14.127 32.0006 17.8942 32.0006 21.619ZM17.99 20.6455C22.0535 20.6455 26.117 20.6455 30.1805 20.6455C30.6038 20.6455 30.6038 20.6455 30.6038 20.2222C30.6038 17.4286 30.6038 14.6349 30.6038 11.8413C30.6038 11.418 30.6038 11.418 30.1805 11.418C22.0535 11.418 13.9265 11.418 5.84187 11.418C5.41859 11.418 5.41859 11.418 5.41859 11.8413C5.41859 14.6349 5.41859 17.3862 5.41859 20.1799C5.41859 20.6455 5.41859 20.6455 5.8842 20.6455C9.90536 20.6455 13.9689 20.6455 17.99 20.6455ZM4.02176 16.0317C4.02176 14.5926 4.02176 13.1958 4.02176 11.7566C4.02176 11.5026 3.93711 11.418 3.68314 11.418C3.04822 11.418 2.4133 11.418 1.73605 11.418C1.48208 11.418 1.39742 11.5026 1.39742 11.7566C1.39742 14.6349 1.39742 17.4709 1.39742 20.3492C1.39742 20.6032 1.48208 20.6878 1.73605 20.6878C2.37097 20.6878 3.00589 20.6878 3.64081 20.6878C3.93711 20.6878 4.02176 20.6032 4.02176 20.3069C3.97943 18.8254 4.02176 17.4286 4.02176 16.0317Z" fill="#181C32"/>
</g>
<defs>
<clipPath id="clip0_4394_18001">
<rect width="32" height="20.0212" fill="white" transform="translate(0 6)"/>
</clipPath>
</defs>
</svg>
