<svg width="32" height="32" viewBox="0 0 32 32" fill="none" xmlns="http://www.w3.org/2000/svg">
<g clip-path="url(#clip0_4394_18010)">
<path d="M28 9.74517C28 13.9151 28 18.0849 28 22.2548C27.9073 22.6255 27.9073 22.9035 27.8147 23.2741C27.0734 25.9614 24.4788 28 21.6988 28C17.8996 28 14.1004 28 10.3012 28C9.65251 28 9.00386 27.9073 8.44788 27.6293C5.85328 26.7954 4 24.2934 4 21.4208C4 17.8069 4 14.1931 4 10.5792C4 10.3012 4 9.9305 4.09266 9.65251C4.37066 7.33591 5.66795 5.66795 7.70656 4.64865C8.35521 4.27799 9.09653 4.09266 9.83784 4C14.0077 4 18.1776 4 22.3475 4C22.4402 4 22.5328 4.09266 22.7181 4.09266C24.8494 4.46332 26.4247 5.66795 27.444 7.52124C27.722 8.26255 27.9073 9.00386 28 9.74517ZM26.61 15.583C26.61 14.0077 26.7027 12.0618 26.61 10.1158C26.5174 8.16988 25.4981 6.77992 23.8301 5.94595C23.0888 5.57529 22.1622 5.38996 21.3282 5.38996C18.2703 5.38996 15.2124 5.38996 12.1544 5.38996C11.5058 5.38996 10.8571 5.38996 10.2085 5.38996C8.26255 5.57529 6.96525 6.50193 6.03861 8.16988C5.57529 9.00386 5.48263 9.83784 5.48263 10.7645C5.48263 13.8224 5.48263 16.8803 5.48263 19.9382C5.48263 20.5869 5.48263 21.2355 5.48263 21.8842C5.66795 23.8301 6.59459 25.1274 8.26255 26.0541C9.00386 26.5174 9.83784 26.61 10.7645 26.61C14.0077 26.61 17.3436 26.61 20.5869 26.61C21.0502 26.61 21.4208 26.61 21.8842 26.61C23.8301 26.4247 25.2201 25.4981 26.0541 23.8301C26.4247 23.0888 26.61 22.2548 26.61 21.4208C26.61 19.5676 26.61 17.8069 26.61 15.583Z" fill="#181C32"/>
<path d="M9.4668 16.0461C9.4668 12.3395 12.432 9.37429 16.0459 9.46696C19.6598 9.46696 22.6251 12.4322 22.6251 16.0461C22.6251 19.66 19.6598 22.6253 16.0459 22.6253C12.3394 22.6253 9.4668 19.66 9.4668 16.0461ZM15.768 21.1426C18.5479 21.328 21.1425 19.1967 21.1425 16.1388C21.1425 13.4515 19.1039 11.0422 16.0459 10.9496C13.3587 10.9496 10.9494 12.9882 10.8568 16.0461C10.8568 18.6407 13.0807 21.05 15.768 21.1426Z" fill="#181C32"/>
<path d="M20.7715 9.00454C20.7715 7.89257 21.6981 7.05859 22.7174 7.05859C23.8294 7.05859 24.6634 7.98523 24.6634 9.00454C24.6634 10.1165 23.7367 10.9505 22.6248 10.9505C21.6055 10.9505 20.7715 10.1165 20.7715 9.00454ZM23.2734 9.00454C23.2734 8.72655 23.0881 8.54122 22.8101 8.54122C22.5321 8.54122 22.3468 8.72655 22.3468 9.00454C22.2541 9.3752 22.5321 9.56052 22.7174 9.56052C22.9954 9.56052 23.2734 9.28253 23.2734 9.00454Z" fill="#181C32"/>
</g>
<defs>
<clipPath id="clip0_4394_18010">
<rect width="24" height="24" fill="white" transform="translate(4 4)"/>
</clipPath>
</defs>
</svg>
