<svg width="32" height="32" viewBox="0 0 32 32" fill="none" xmlns="http://www.w3.org/2000/svg">
<g clip-path="url(#clip0_4394_18024)">
<path d="M15.3744 28C11.6209 28 7.92417 28 4.17062 28C4 28 4 27.9431 4 27.8294C4 20.0379 4 12.2464 4 4.51185C4.17062 4.11374 4.45498 4 4.85308 4C6.27488 4 7.69668 4 9.11848 4C11.1659 4 13.1564 4 15.2038 4C15.6588 4 15.9431 4.28436 15.9431 4.79621C15.9431 4.85308 15.9431 4.90995 15.9431 4.96682C15.9431 12.3602 15.9431 19.6967 15.9431 27.09C16 27.545 15.8294 27.8294 15.3744 28ZM9.97156 14.237C10.0284 14.1801 10.0284 14.1232 10.0853 14.0664C11.3934 11.2796 12.7014 8.49289 14.0095 5.70616C14.1232 5.47867 14.1232 5.4218 13.8389 5.4218C11.2796 5.4218 8.72038 5.4218 6.16114 5.4218C5.87678 5.4218 5.87678 5.4218 5.99052 5.64929C5.99052 5.70616 6.04739 5.76303 6.04739 5.81991C7.01422 7.98104 7.98104 10.0853 9.00474 12.1896C9.2891 12.872 9.63033 13.5545 9.97156 14.237ZM9.91469 26.5782C11.1659 26.5782 12.4739 26.5782 13.7251 26.5782C14.0664 26.5782 14.0663 26.5782 13.8957 26.2938C12.872 24.0758 11.8483 21.8578 10.7678 19.6398C10.4834 19.0711 10.2559 18.5592 9.97156 17.9905C9.97156 17.9336 9.91469 17.8768 9.85782 17.8768C9.80095 17.8768 9.80095 17.9336 9.80095 17.9905C9.80095 18.0474 9.74408 18.1043 9.74408 18.1611C8.54976 20.8341 7.24171 23.564 5.99052 26.3507C5.87678 26.5782 5.87678 26.5782 6.16114 26.5782C7.41232 26.5782 8.66351 26.5782 9.91469 26.5782ZM5.4218 23.9621C5.47867 23.9052 5.47867 23.9052 5.47867 23.8483C6.67299 21.2891 7.8673 18.7299 9.06161 16.2275C9.11848 16.0569 9.11848 15.9431 9.06161 15.7725C7.92417 13.2701 6.72986 10.8246 5.59242 8.32227C5.53554 8.2654 5.47867 8.15166 5.4218 8.03791C5.4218 13.3839 5.4218 18.673 5.4218 23.9621ZM14.4645 8.15166C14.4076 8.20853 14.3507 8.32227 14.2938 8.37915C13.1564 10.8246 12.019 13.2133 10.8815 15.6588C10.7678 15.8863 10.7678 16.1137 10.8815 16.3412C11.9621 18.673 13.0427 20.9479 14.1232 23.2796C14.237 23.5071 14.2938 23.6777 14.4076 23.9052C14.4076 23.9052 14.4076 23.9052 14.4645 23.9052C14.4645 18.6161 14.4645 13.3839 14.4645 8.15166Z" fill="#181C32"/>
<path d="M17.763 27.9999C17.3649 27.7724 17.1943 27.4312 17.308 27.0331C17.4218 26.7487 17.5924 26.5781 17.9336 26.5781C17.9905 26.5781 18.0474 26.5781 18.1611 26.5781C21.1753 26.5781 24.1327 26.5781 27.1469 26.5781C27.6019 26.5781 27.8862 26.7487 28 27.09C28.1137 27.4312 27.9431 27.7724 27.545 27.9999C24.3033 27.9999 21.0616 27.9999 17.763 27.9999Z" fill="#181C32"/>
<path d="M28.0005 11.8466C28.0005 14.1784 28.0005 16.5101 28.0005 18.8419C28.0005 19.4675 27.7162 19.695 27.1475 19.695C24.1332 19.695 21.1759 19.695 18.1617 19.695C17.593 19.695 17.3086 19.4106 17.3086 18.8419C17.3086 14.1784 17.3086 9.51487 17.3086 4.79449C17.3086 4.22577 17.593 3.94141 18.1617 3.94141C21.1759 3.94141 24.1901 3.94141 27.2043 3.94141C27.7162 3.94141 28.0005 4.22577 28.0005 4.73761C28.0005 7.18311 28.0005 9.51487 28.0005 11.8466ZM22.7114 5.42008C21.6877 5.42008 20.7209 5.42008 19.6972 5.42008C19.6403 5.42008 19.5266 5.36321 19.4697 5.47695C19.4129 5.53382 19.5266 5.64757 19.5266 5.70444C20.5503 7.23998 21.5171 8.77553 22.5408 10.3679C22.6546 10.5386 22.7114 10.5386 22.8252 10.3679C23.8489 8.8324 24.8157 7.23998 25.8394 5.70444C25.8963 5.64757 25.9531 5.5907 25.8963 5.53382C25.8394 5.47695 25.7825 5.47695 25.7257 5.47695C24.702 5.42008 23.6783 5.42008 22.7114 5.42008ZM22.6546 18.2732C23.6783 18.2732 24.6451 18.2732 25.6688 18.2732C25.7257 18.2732 25.8394 18.33 25.8394 18.2163C25.8963 18.1594 25.7825 18.1025 25.7825 18.0457C24.7588 16.5101 23.792 14.9746 22.7683 13.3822C22.5977 13.1547 22.5977 13.1547 22.4839 13.3822C21.5171 14.9177 20.4934 16.4533 19.5266 17.9888C19.4697 18.0457 19.356 18.1025 19.4129 18.2163C19.4697 18.2732 19.5835 18.2732 19.6403 18.2732C20.664 18.2732 21.6877 18.2732 22.6546 18.2732ZM26.5787 16.5101C26.5787 13.439 26.5787 10.3679 26.5787 7.29686C26.5219 7.29686 26.465 7.4106 26.465 7.4106C25.555 8.8324 24.6451 10.2542 23.6783 11.676C23.5645 11.8466 23.5645 11.9604 23.6783 12.131C24.5882 13.5528 25.4982 14.9177 26.4081 16.3395C26.465 16.3395 26.465 16.4533 26.5787 16.5101ZM18.8441 7.29686C18.7873 10.3679 18.7873 13.3822 18.7873 16.4533C18.7873 16.4533 18.8441 16.4533 18.8441 16.5101C18.8441 16.4533 18.8441 16.4533 18.901 16.3964C19.8678 14.9177 20.7778 13.4959 21.7446 12.0172C21.8015 11.9035 21.8015 11.7897 21.7446 11.676C21.3465 11.0504 20.9484 10.4817 20.5503 9.8561C19.9247 9.00302 19.4129 8.14994 18.8441 7.29686Z" fill="#181C32"/>
<path d="M22.6546 23.9023C24.1901 23.9023 25.7257 23.9023 27.2043 23.9023C27.773 23.9023 28.1143 24.4142 27.9437 24.8692C27.8299 25.0967 27.6593 25.2673 27.4318 25.3241C27.3181 25.3241 27.1475 25.381 27.0337 25.381C24.1332 25.381 21.2328 25.381 18.3323 25.381C18.2185 25.381 18.0479 25.381 17.9342 25.381C17.5361 25.3241 17.3086 25.0398 17.3086 24.6417C17.3086 24.2436 17.593 23.9592 17.9342 23.9592C18.0479 23.9592 18.1048 23.9592 18.2185 23.9592C19.6972 23.9023 21.1759 23.9023 22.6546 23.9023Z" fill="#181C32"/>
<path d="M22.6537 21.1719C24.1324 21.1719 25.6111 21.1719 27.0329 21.1719C27.2035 21.1719 27.3172 21.1719 27.4878 21.2287C27.7722 21.3425 27.9997 21.57 27.9997 21.9112C27.9997 22.2524 27.8291 22.4799 27.4878 22.5937C27.3741 22.6505 27.2604 22.6505 27.0897 22.6505C24.0755 22.6505 21.1182 22.6505 18.104 22.6505C17.8765 22.6505 17.649 22.5937 17.4215 22.4231C17.0234 22.025 17.2509 21.3994 17.7627 21.2287C17.8765 21.1719 18.0471 21.1719 18.1608 21.1719C19.6964 21.1719 21.175 21.1719 22.6537 21.1719Z" fill="#181C32"/>
</g>
<defs>
<clipPath id="clip0_4394_18024">
<rect width="24" height="24" fill="white" transform="translate(4 4)"/>
</clipPath>
</defs>
</svg>
