<svg width="32" height="32" viewBox="0 0 32 32" fill="none" xmlns="http://www.w3.org/2000/svg">
<g clip-path="url(#clip0_4394_18044)">
<path d="M28 15.8662C27.9108 16.0446 27.8215 16.1338 27.6431 16.3123C24.0743 19.881 20.4163 23.539 16.8476 27.1078C15.6877 28.2677 14.0818 28.2677 12.9219 27.1078C10.2453 24.4312 7.47954 21.6654 4.80296 18.9888C3.91077 18.0967 3.73233 17.026 4.17842 15.9554C4.35686 15.6877 4.5353 15.4201 4.71374 15.1524C8.46095 11.4944 12.0297 7.92565 15.6877 4.26766C15.7769 4.17844 15.9554 4 16.1338 4C19.4349 4 22.6468 4 25.9479 4C26.3048 4.08922 26.5725 4.17844 26.8401 4.35688C27.4647 4.80297 27.8215 5.33829 28 6.05204C28 9.35316 28 12.6543 28 15.8662ZM21.1301 5.42751C19.7026 5.42751 18.3643 5.42751 16.9368 5.42751C16.7583 5.42751 16.5799 5.51673 16.4907 5.60595C12.9219 9.0855 9.44236 12.6543 5.87359 16.223C5.33827 16.7584 5.33827 17.4721 5.87359 18.0074C8.63939 20.7732 11.316 23.4498 14.0818 26.2156C14.2602 26.3941 14.4386 26.4833 14.7063 26.5725C15.1524 26.6617 15.5093 26.4833 15.8662 26.1264C19.3457 22.6468 22.9145 19.0781 26.394 15.5985C26.5725 15.4201 26.5725 15.3309 26.5725 15.1524C26.5725 12.3866 26.5725 9.62082 26.5725 6.85502C26.5725 5.96283 26.1264 5.51673 25.2342 5.51673C23.8067 5.42751 22.4684 5.42751 21.1301 5.42751Z" fill="#181C32"/>
<path d="M24.0742 10.1563C24.0742 11.4053 23.0928 12.3867 21.8438 12.3867C20.5947 12.3867 19.6133 11.3161 19.6133 10.1563C19.6133 8.90719 20.5947 7.92578 21.8438 7.92578C23.0928 7.92578 24.0742 8.99641 24.0742 10.1563ZM22.5575 10.1563C22.5575 9.71017 22.2899 9.35329 21.8438 9.35329C21.3977 9.35329 21.0408 9.71017 21.0408 10.1563C21.0408 10.6024 21.3977 10.9592 21.8438 10.9592C22.2006 10.9592 22.5575 10.6024 22.5575 10.1563Z" fill="#181C32"/>
</g>
<defs>
<clipPath id="clip0_4394_18044">
<rect width="24" height="24" fill="white" transform="translate(4 4)"/>
</clipPath>
</defs>
</svg>
