<svg width="32" height="33" viewBox="0 0 32 33" fill="none" xmlns="http://www.w3.org/2000/svg">
<g clip-path="url(#clip0_4395_18519)">
<path d="M16 29.0016C12.3509 29.0016 8.70175 29.0016 5.05263 29.0016C4.31579 29.0016 4 28.6859 4 27.949C4 24.9315 4 21.8788 4 18.8613C4 18.1595 4.31579 17.8438 5.01754 17.8438C12.3509 17.8438 19.6491 17.8438 26.9825 17.8438C27.6842 17.8438 28 18.1595 28 18.8613C28 21.9139 28 24.9315 28 27.9841C28 28.6859 27.6842 29.0016 26.9825 29.0016C23.3333 29.0016 19.6491 29.0016 16 29.0016ZM16.0351 19.5981C12.7368 19.5981 9.40351 19.5981 6.10526 19.5981C5.75439 19.5981 5.75439 19.5981 5.75439 19.949C5.75439 22.2648 5.75439 24.5806 5.75439 26.8964C5.75439 27.2473 5.75439 27.2473 6.10526 27.2473C12.7018 27.2473 19.2982 27.2473 25.9298 27.2473C26.2105 27.2473 26.2807 27.1771 26.2807 26.8964C26.2807 24.5806 26.2807 22.2648 26.2807 19.949C26.2807 19.5981 26.2807 19.563 25.9298 19.563C22.5965 19.5981 19.2982 19.5981 16.0351 19.5981Z" fill="#181C32"/>
<path d="M15.1579 10.5789C15.1579 12.0877 15.1579 13.6316 15.1579 15.1404C15.1579 15.807 14.8421 16.1228 14.1404 16.1228C11.0877 16.1228 8.03509 16.1228 4.98246 16.1228C4.35088 16.1579 4 15.8421 4 15.1754C4 12.1228 4 9.03509 4 5.98246C4 5.31579 4.31579 5 4.98246 5C8.03509 5 11.0877 5 14.1754 5C14.8421 5 15.193 5.31579 15.193 5.98246C15.1579 7.52632 15.1579 9.07018 15.1579 10.5789ZM5.75439 10.5789C5.75439 11.7719 5.75439 12.9649 5.75439 14.1228C5.75439 14.3333 5.82456 14.4035 6.03509 14.4035C8.42105 14.4035 10.7719 14.4035 13.1579 14.4035C13.3684 14.4035 13.4386 14.3333 13.4386 14.1228C13.4386 11.7719 13.4386 9.38596 13.4386 7.03509C13.4035 6.82456 13.3684 6.75439 13.1228 6.75439C10.7719 6.75439 8.42105 6.75439 6.03509 6.75439C5.78947 6.75439 5.75439 6.82456 5.75439 7.03509C5.75439 8.22807 5.75439 9.42105 5.75439 10.5789Z" fill="#181C32"/>
<path d="M22.3869 7.5982C20.843 7.5982 19.2641 7.5982 17.7202 7.5982C17.3693 7.5982 17.0886 7.42277 16.9483 7.14206C16.7728 6.82627 16.8079 6.51049 17.0184 6.22978C17.1939 5.94908 17.4746 5.87891 17.7904 5.87891C19.7904 5.87891 21.8255 5.87891 23.8255 5.87891C24.9132 5.87891 26.036 5.87891 27.1237 5.87891C27.5448 5.87891 27.8605 6.15961 27.9658 6.54557C28.0711 6.93154 27.8956 7.3175 27.5798 7.52803C27.4044 7.63329 27.229 7.63329 27.0535 7.63329C25.4746 7.5982 23.9307 7.5982 22.3869 7.5982Z" fill="#181C32"/>
<path d="M22.4205 13.5981C20.8415 13.5981 19.2977 13.5981 17.7187 13.5981C17.0521 13.5981 16.631 12.9315 16.9468 12.335C17.1222 11.9841 17.4029 11.8438 17.7889 11.8438C19.7187 11.8438 21.6485 11.8438 23.5784 11.8438C24.7713 11.8438 25.9643 11.8438 27.1573 11.8438C27.5784 11.8438 27.8942 12.1245 27.9994 12.5104C28.1047 12.8964 27.9292 13.2823 27.6135 13.4929C27.438 13.5981 27.2626 13.6332 27.0871 13.5981C25.5082 13.5981 23.9643 13.5981 22.4205 13.5981Z" fill="#181C32"/>
</g>
<defs>
<clipPath id="clip0_4395_18519">
<rect width="24" height="24" fill="white" transform="translate(4 5)"/>
</clipPath>
</defs>
</svg>
