<svg width="32" height="33" viewBox="0 0 32 33" fill="none" xmlns="http://www.w3.org/2000/svg">
<g clip-path="url(#clip0_4395_18531)">
<path d="M27.9995 11.262C27.8952 11.8881 27.6865 12.5142 27.4778 13.1403C27.1647 13.662 26.8517 14.1837 26.4343 14.6011C24.7647 16.2707 23.1995 17.9403 21.5299 19.5055C21.1125 19.9229 20.5908 20.3403 19.9647 20.5489C19.756 20.6533 19.6517 20.7576 19.6517 20.862C19.3386 21.4881 19.0256 22.0098 18.5038 22.4272C16.8343 24.0968 15.2691 25.662 13.5995 27.3316C12.3473 28.5837 10.8865 29.1055 9.11254 29.0011C6.60819 28.7924 4.31254 26.7055 3.9995 24.2011C3.7908 22.3229 4.31254 20.6533 5.66906 19.4011C7.23428 17.8359 8.90385 16.1663 10.4691 14.6011C10.9908 14.0794 11.5125 13.7663 12.1386 13.4533C12.243 13.2446 12.3473 13.2446 12.3473 13.1403C12.6604 12.5142 13.0778 11.8881 13.5995 11.4707C15.1647 9.90547 16.6256 8.4446 18.1908 6.87938C19.1299 5.94025 20.2778 5.31416 21.6343 5.10547C21.6343 5.10547 21.6343 5.10547 21.7386 5.10547C22.156 5.10547 22.6778 5.10547 23.0952 5.10547C23.1995 5.10547 23.1995 5.10547 23.3038 5.10547C25.2865 5.41851 26.643 6.56634 27.5821 8.34025C27.8952 8.86199 27.9995 9.48808 28.1038 10.0098C27.9995 10.4272 27.9995 10.8446 27.9995 11.262ZM17.6691 21.0707C17.2517 21.0707 16.7299 21.0707 16.3125 20.9663C16.1038 20.862 15.9995 20.9663 15.7908 21.0707C14.4343 22.4272 13.0778 23.8881 11.6169 25.2446C11.0952 25.7663 10.3647 26.0794 9.52993 26.0794C8.27776 26.0794 7.44298 25.4533 6.92124 24.4098C6.3995 23.262 6.60819 22.2185 7.44298 21.3837C9.11254 19.7142 10.7821 18.0446 12.4517 16.375C13.0778 15.7489 13.8082 15.5403 14.643 15.6446C15.3734 15.7489 15.8952 16.062 16.4169 16.4794C16.8343 16.8968 17.2517 16.8968 17.8778 16.7924C18.1908 16.6881 18.1908 16.6881 17.9821 16.375C16.7299 13.975 13.4952 13.5576 11.6169 15.4359C9.94733 17.1055 8.27776 18.6707 6.71254 20.3403C5.77341 21.2794 5.35602 22.5316 5.56472 23.8881C5.77341 25.5576 6.71254 26.7055 8.27776 27.2272C9.84298 27.7489 11.3038 27.4359 12.556 26.2881C14.3299 24.6185 15.9995 22.9489 17.6691 21.175C17.5647 21.2794 17.6691 21.175 17.6691 21.0707ZM14.3299 12.7229C14.3299 12.8272 14.4343 12.7229 14.4343 12.7229C14.8517 12.7229 15.2691 12.7229 15.5821 12.8272C15.7908 12.9316 15.8952 12.8272 16.1038 12.7229C17.4604 11.3663 18.9212 9.90547 20.2778 8.54895C21.4256 7.50547 23.1995 7.50547 24.243 8.54895C25.2865 9.59243 25.3908 11.3663 24.3473 12.5142C22.6778 14.1837 21.0082 15.8533 19.3386 17.5229C18.8169 18.0446 18.1908 18.2533 17.4604 18.2533C16.6256 18.2533 15.9995 17.9403 15.4778 17.4185C15.0604 17.0011 14.4343 16.8968 13.9125 17.1055C13.8082 17.2098 13.7038 17.2098 13.8082 17.4185C14.643 18.8794 16.1038 19.6098 17.5647 19.6098C18.7125 19.6098 19.756 19.0881 20.4865 18.2533C22.0517 16.6881 23.6169 15.1229 25.1821 13.5576C26.1212 12.6185 26.5386 11.4707 26.4343 10.1142C26.2256 8.13156 24.556 6.35764 22.2604 6.35764C21.1125 6.35764 20.1734 6.77503 19.3386 7.60982C17.6691 9.27938 16.1038 10.8446 14.4343 12.5142C14.4343 12.6185 14.3299 12.6185 14.3299 12.7229ZM9.63428 24.7229C9.94733 24.7229 10.3647 24.6185 10.5734 24.3055C11.8256 23.0533 13.1821 21.6968 14.4343 20.4446C14.5386 20.3403 14.5386 20.2359 14.4343 20.1316C13.8082 19.7142 13.1821 19.1924 12.7647 18.462C12.6604 18.3576 12.556 18.3576 12.4517 18.462C11.1995 19.7142 9.84298 20.9663 8.5908 22.3229C8.27776 22.7403 8.17341 23.262 8.38211 23.7837C8.5908 24.4098 9.00819 24.6185 9.63428 24.7229ZM23.7212 10.5316C23.7212 10.1142 23.4082 9.59243 22.8865 9.38373C22.3647 9.17503 21.843 9.27938 21.4256 9.69677C20.1734 10.9489 18.9212 12.2011 17.5647 13.5576C17.4604 13.662 17.4604 13.7663 17.5647 13.8707C18.1908 14.2881 18.8169 14.8098 19.2343 15.5403C19.3386 15.6446 19.3386 15.6446 19.443 15.5403C20.6952 14.2881 22.0517 12.9316 23.3038 11.6794C23.6169 11.262 23.7212 10.9489 23.7212 10.5316Z" fill="#181C32"/>
</g>
<defs>
<clipPath id="clip0_4395_18531">
<rect width="24" height="24" fill="white" transform="translate(4 5)"/>
</clipPath>
</defs>
</svg>
