<svg width="32" height="24" viewBox="0 0 32 24" fill="none" xmlns="http://www.w3.org/2000/svg">
<g clip-path="url(#clip0_4096_5536)">
<path d="M0.96875 1.60825C1.21617 0.804124 1.71102 0.247423 2.577 0.0618557C2.70071 0 2.88628 0 3.00999 0C5.05122 0 7.15432 0 9.19555 0C10.3708 0 11.2986 0.865979 11.2986 2.10309C11.2986 4.14433 11.2986 6.24742 11.2986 8.28866C11.2986 9.46392 10.4327 10.3299 9.19555 10.3918C7.21617 10.3918 5.23679 10.3299 3.25741 10.3918C2.0203 10.3918 1.21617 9.7732 0.96875 8.78351C0.96875 6.37113 0.96875 3.95876 0.96875 1.60825ZM9.38112 5.19588C9.38112 4.20619 9.38112 3.2165 9.38112 2.28866C9.38112 2.04124 9.31927 1.91753 9.00999 1.91753C7.09246 1.91753 5.11308 1.91753 3.19555 1.91753C2.88628 1.91753 2.82442 2.04124 2.82442 2.28866C2.82442 4.20619 2.82442 6.12371 2.82442 8.04124C2.82442 8.28866 2.88628 8.41237 3.19555 8.41237C5.11308 8.41237 7.03061 8.41237 8.94813 8.41237C9.31927 8.41237 9.31927 8.35052 9.31927 8.04124C9.38112 7.1134 9.38112 6.18557 9.38112 5.19588Z" fill="#181C32"/>
<path d="M0.96875 15.2176C1.21617 14.4135 1.71102 13.8568 2.577 13.6712C2.70071 13.6094 2.88628 13.6094 3.00999 13.6094C5.05122 13.6094 7.15432 13.6094 9.19555 13.6094C10.3708 13.6094 11.2986 14.4754 11.2986 15.7125C11.2986 17.7537 11.2986 19.8568 11.2986 21.898C11.2986 23.0733 10.4327 23.9393 9.19555 24.0011C7.21617 24.0011 5.23679 23.9393 3.25741 24.0011C2.0203 24.0011 1.21617 23.3826 0.96875 22.3929C0.96875 19.9805 0.96875 17.5681 0.96875 15.2176ZM6.16463 15.5269C5.17494 15.5269 4.2471 15.5269 3.25741 15.5269C2.88628 15.5269 2.88628 15.5888 2.88628 15.898C2.88628 17.8156 2.88628 19.7331 2.88628 21.6506C2.88628 22.0217 2.94813 22.0217 3.31927 22.0217C5.23679 22.0217 7.15432 22.0217 9.00999 22.0217C9.38112 22.0217 9.44298 21.9599 9.44298 21.6506C9.44298 19.7331 9.44298 17.8156 9.44298 15.898C9.44298 15.5269 9.38112 15.5269 9.07184 15.5269C8.08215 15.5269 7.09246 15.5269 6.16463 15.5269Z" fill="#181C32"/>
<path d="M22.5569 4.76128C20.0827 4.76128 17.6085 4.76128 15.1342 4.76128C14.5775 4.76128 14.1445 4.39014 14.1445 3.8953C14.0827 3.27674 14.5157 2.84375 15.1342 2.84375C20.1445 2.84375 25.093 2.84375 30.1033 2.84375C30.66 2.84375 31.093 3.21488 31.093 3.77159C31.093 4.32829 30.7219 4.76128 30.1033 4.76128C27.5054 4.76128 25.0311 4.76128 22.5569 4.76128Z" fill="#181C32"/>
<path d="M22.5569 18.1246C20.0827 18.1246 17.6085 18.1246 15.1342 18.1246C14.5775 18.1246 14.1445 17.7534 14.1445 17.2586C14.0827 16.64 14.5157 16.207 15.1342 16.207C20.1445 16.207 25.093 16.207 30.1033 16.207C30.66 16.207 31.093 16.5782 31.093 17.1349C31.093 17.6916 30.7219 18.1246 30.1033 18.1246C27.5054 18.1246 25.0311 18.1246 22.5569 18.1246Z" fill="#181C32"/>
<path d="M19.9579 8.22612C18.2878 8.22612 16.6795 8.22612 15.0094 8.22612C14.5146 8.22612 14.1435 7.85499 14.0816 7.422C14.0198 6.92715 14.2672 6.49416 14.762 6.37045C14.8239 6.37045 14.9476 6.30859 15.0094 6.30859C18.2878 6.30859 21.628 6.30859 24.9064 6.30859C25.3393 6.30859 25.7105 6.61787 25.8342 7.05086C25.9579 7.48385 25.7723 7.91684 25.4012 8.10241C25.2156 8.22612 25.0301 8.22612 24.7826 8.22612C23.1744 8.22612 21.5661 8.22612 19.9579 8.22612Z" fill="#181C32"/>
<path d="M19.9584 21.836C18.3501 21.836 16.68 21.836 15.0718 21.836C14.7006 21.836 14.3914 21.6504 14.2058 21.3411C14.0202 21.0319 14.0821 20.6607 14.2677 20.3514C14.4532 20.0422 14.7625 19.9185 15.1336 19.9803C17.4841 19.9803 19.8347 19.9803 22.1852 19.9803C23.0512 19.9803 23.9171 19.9803 24.845 19.9803C25.4635 19.9803 25.8965 20.3514 25.8965 20.9081C25.8965 21.4648 25.4635 21.8978 24.845 21.8978C23.1749 21.836 21.5666 21.836 19.9584 21.836Z" fill="#181C32"/>
</g>
<defs>
<clipPath id="clip0_4096_5536">
<rect width="30.0619" height="24" fill="white" transform="translate(0.96875)"/>
</clipPath>
</defs>
</svg>
