<svg width="32" height="32" viewBox="0 0 32 32" fill="none" xmlns="http://www.w3.org/2000/svg">
<g clip-path="url(#clip0_4394_18065)">
<path d="M7.7417 4C8.63661 4.48814 9.53153 4.89492 10.5078 5.38305C10.9146 5.54576 11.0773 5.87119 11.0773 6.27797C11.0773 7.09153 11.0773 7.98644 11.0773 8.8C11.0773 9.20678 10.9146 9.45085 10.5892 9.61356C9.85695 9.93898 9.12475 10.3458 8.4739 10.6712C8.31119 10.7525 8.22983 10.8339 8.22983 10.9966C8.22983 11.4847 8.22983 11.9729 8.22983 12.461C8.22983 12.6237 8.31119 12.7864 8.4739 12.8678C9.12475 13.1932 9.85695 13.5186 10.5078 13.9254C10.8332 14.0881 11.0773 14.3322 10.9959 14.739C10.9959 15.6339 10.9959 16.4475 10.9959 17.3424C10.9959 17.6678 10.8332 17.9119 10.5078 18.0746C9.7756 18.4 9.12475 18.8068 8.39255 19.1322C8.22983 19.2136 8.14848 19.2949 8.14848 19.4576C8.14848 19.9458 8.14848 20.4339 8.14848 20.922C8.14848 21.0847 8.22983 21.1661 8.39255 21.2475C9.12475 21.5729 9.7756 21.9797 10.5078 22.3051C10.8332 22.4678 10.9959 22.7119 10.9959 23.1186C10.9959 24.0136 10.9959 24.8271 10.9959 25.722C10.9959 26.0475 10.8332 26.2915 10.5078 26.4542C9.61288 26.9424 8.71797 27.3492 7.82305 27.8373C7.57899 28 7.25356 28 7.00949 27.8373C6.11458 27.3492 5.30102 26.9424 4.4061 26.5356C4.16204 26.4542 3.99932 26.2915 3.91797 26.0475C3.91797 24.9898 3.91797 23.8508 3.91797 22.7932C3.99932 22.5492 4.24339 22.3864 4.48746 22.3051C5.13831 21.9797 5.78916 21.6542 6.52136 21.3288C6.68407 21.2475 6.76543 21.1661 6.76543 21.0034C6.76543 20.5153 6.76543 20.0271 6.76543 19.539C6.76543 19.3763 6.68407 19.2949 6.52136 19.2136C5.87051 18.8881 5.21966 18.5627 4.48746 18.2373C4.24339 18.1559 4.08068 17.9932 3.91797 17.7492C3.91797 16.6915 3.91797 15.5525 3.91797 14.4949C3.99932 14.2508 4.24339 14.0881 4.48746 14.0068C5.13831 13.6814 5.78916 13.3559 6.52136 13.0305C6.68407 12.9492 6.76543 12.8678 6.76543 12.7051C6.76543 12.2169 6.76543 11.7288 6.76543 11.2407C6.76543 11.078 6.68407 10.9966 6.52136 10.9153C5.87051 10.3458 5.21966 10.0203 4.56882 9.69492C4.32475 9.5322 4.08068 9.36949 3.99932 9.12542C3.99932 8.0678 3.99932 6.92881 3.99932 5.87119C4.08068 5.62712 4.32475 5.46441 4.56882 5.38305C5.46373 4.89492 6.35865 4.48814 7.25356 4C7.41627 4 7.57899 4 7.7417 4ZM9.61288 24.4203C9.61288 24.1763 9.61288 23.9322 9.61288 23.6881C9.61288 23.5254 9.61288 23.4441 9.45017 23.3627C8.88068 23.0373 8.22983 22.7932 7.66034 22.4678C7.57899 22.3864 7.49763 22.3864 7.33492 22.4678C6.76543 22.7932 6.11458 23.0373 5.54509 23.3627C5.46373 23.4441 5.38238 23.5254 5.38238 23.6068C5.38238 24.0949 5.38238 24.6644 5.38238 25.1525C5.38238 25.2339 5.38238 25.3153 5.54509 25.3966C6.11458 25.722 6.76543 26.0475 7.33492 26.2915C7.41627 26.3729 7.57899 26.3729 7.66034 26.2915C8.22983 25.9661 8.88068 25.6407 9.45017 25.3966C9.53153 25.3153 9.61288 25.2339 9.61288 25.1525C9.61288 24.9085 9.61288 24.6644 9.61288 24.4203ZM5.38238 7.49831C5.38238 7.74237 5.38238 7.98644 5.38238 8.23051C5.38238 8.39322 5.46373 8.47458 5.54509 8.47458C6.19593 8.88136 6.76543 9.12542 7.33492 9.45085C7.41627 9.5322 7.49763 9.5322 7.66034 9.45085C8.22983 9.12542 8.79932 8.88136 9.45017 8.55593C9.61288 8.47458 9.61288 8.39322 9.61288 8.23051C9.61288 7.74237 9.61288 7.25424 9.61288 6.68475C9.61288 6.52203 9.53153 6.44068 9.45017 6.35932C8.88068 6.19661 8.22983 5.87119 7.66034 5.62712C7.57899 5.54576 7.49763 5.54576 7.33492 5.62712C6.76543 5.87119 6.19593 6.19661 5.62644 6.44068C5.46373 6.52203 5.38238 6.60339 5.38238 6.7661C5.46373 7.01017 5.38238 7.25424 5.38238 7.49831ZM9.61288 16.0407C9.61288 15.7966 9.61288 15.5525 9.61288 15.3085C9.61288 15.1458 9.53153 15.0644 9.45017 14.9831C8.88068 14.739 8.31119 14.4136 7.7417 14.0881C7.66034 14.0068 7.49763 14.0068 7.41627 14.0881C6.84678 14.4136 6.27729 14.6576 5.62644 14.9831C5.46373 15.0644 5.46373 15.1458 5.46373 15.3085C5.46373 15.7966 5.46373 16.2847 5.46373 16.7729C5.46373 16.9356 5.54509 17.0169 5.62644 17.0983C6.19593 17.3424 6.76543 17.6678 7.33492 17.9932C7.41627 18.0746 7.57899 18.0746 7.66034 17.9932C8.22983 17.6678 8.79932 17.4237 9.45017 17.0983C9.61288 17.0169 9.61288 16.9356 9.61288 16.7729C9.61288 16.5288 9.61288 16.2847 9.61288 16.0407Z" fill="#181C32"/>
<path d="M20.1891 5.38281C22.5484 5.38281 24.9077 5.38281 27.1857 5.38281C27.6738 5.38281 27.9992 5.70824 27.9179 6.19637C27.9179 6.5218 27.5925 6.84722 27.267 6.84722C27.1857 6.84722 27.1043 6.84722 27.023 6.84722C22.467 6.84722 17.8298 6.84722 13.2738 6.84722C13.1925 6.84722 13.1111 6.84722 13.0298 6.84722C12.7043 6.84722 12.3789 6.5218 12.3789 6.11502C12.3789 5.78959 12.623 5.46417 13.0298 5.38281C13.1111 5.38281 13.1925 5.38281 13.2738 5.38281C15.6331 5.38281 17.9111 5.38281 20.1891 5.38281Z" fill="#181C32"/>
<path d="M20.1891 15.3088C17.8298 15.3088 15.5518 15.3088 13.1925 15.3088C12.7043 15.3088 12.3789 14.9834 12.3789 14.5766C12.3789 14.1698 12.7043 13.9258 13.0298 13.9258C13.1111 13.9258 13.1111 13.9258 13.1925 13.9258C17.8298 13.9258 22.5484 13.9258 27.1857 13.9258C27.267 13.9258 27.3484 13.9258 27.5111 13.9258C27.8365 14.0071 28.0806 14.3326 27.9992 14.7393C27.9179 15.0648 27.6738 15.3088 27.3484 15.3088C27.267 15.3088 27.1857 15.3088 27.1043 15.3088C24.745 15.3088 22.467 15.3088 20.1891 15.3088Z" fill="#181C32"/>
<path d="M20.1891 23.7698C17.8298 23.7698 15.5518 23.7698 13.1925 23.7698C12.7043 23.7698 12.3789 23.4443 12.3789 23.0376C12.3789 22.7121 12.7043 22.3867 13.0298 22.3867C13.1111 22.3867 13.1925 22.3867 13.2738 22.3867C17.8298 22.3867 22.467 22.3867 27.023 22.3867C27.1043 22.3867 27.1857 22.3867 27.267 22.3867C27.5925 22.3867 27.9179 22.7121 27.9179 23.1189C27.9179 23.4443 27.6738 23.7698 27.267 23.8511C27.1857 23.8511 27.1043 23.8511 27.023 23.8511C24.8264 23.7698 22.467 23.7698 20.1891 23.7698Z" fill="#181C32"/>
<path d="M16.691 9.61284C15.552 9.61284 14.3316 9.61284 13.1927 9.61284C12.8672 9.61284 12.7045 9.45013 12.5418 9.20606C12.3791 8.962 12.4605 8.71793 12.6232 8.47386C12.7859 8.22979 13.03 8.14844 13.274 8.14844C14.9825 8.14844 16.6096 8.14844 18.3181 8.14844C18.8876 8.14844 19.5384 8.14844 20.1079 8.14844C20.6774 8.14844 21.0028 8.39251 21.0028 8.88064C21.0028 9.36878 20.6774 9.61284 20.1079 9.61284C18.8876 9.61284 17.7486 9.61284 16.691 9.61284Z" fill="#181C32"/>
<path d="M16.6096 18.1565C15.4706 18.1565 14.2502 18.1565 13.1113 18.1565C12.7045 18.1565 12.4604 17.9124 12.379 17.587C12.2977 17.2616 12.5418 16.8548 12.8672 16.7734C12.9485 16.7734 13.0299 16.7734 13.1113 16.7734C15.4706 16.7734 17.8299 16.7734 20.1079 16.7734C20.5146 16.7734 20.8401 17.0989 20.8401 17.5056C20.8401 17.9124 20.5146 18.2378 20.1079 18.2378C18.9689 18.1565 17.8299 18.1565 16.6096 18.1565Z" fill="#181C32"/>
<path d="M16.6909 25.1523C17.8299 25.1523 19.0502 25.1523 20.1892 25.1523C20.596 25.1523 20.8401 25.3964 20.9214 25.7218C21.0028 26.0473 20.7587 26.454 20.4333 26.5354C20.3519 26.5354 20.2706 26.5354 20.1892 26.5354C17.8299 26.5354 15.4706 26.5354 13.1113 26.5354C12.7045 26.5354 12.4604 26.2913 12.379 25.9659C12.2977 25.6405 12.5418 25.2337 12.8672 25.1523C12.9485 25.1523 13.1113 25.1523 13.1926 25.1523C14.4129 25.1523 15.5519 25.1523 16.6909 25.1523Z" fill="#181C32"/>
<path d="M7.49783 23.6875C7.90461 23.6875 8.23003 24.0129 8.23003 24.4197C8.23003 24.8265 7.90461 25.1519 7.49783 25.1519C7.09105 25.1519 6.76562 24.8265 6.76562 24.4197C6.76562 24.0129 7.09105 23.6875 7.49783 23.6875Z" fill="#181C32"/>
<path d="M7.49783 8.23003C7.09105 8.23003 6.76562 7.90461 6.76562 7.49783C6.76562 7.09105 7.09105 6.76562 7.49783 6.76562C7.90461 6.76562 8.23003 7.09105 8.23003 7.49783C8.23003 7.90461 7.90461 8.23003 7.49783 8.23003Z" fill="#181C32"/>
<path d="M8.23003 15.9588C8.23003 16.3655 7.90461 16.691 7.49783 16.691C7.09105 16.691 6.76562 16.3655 6.76562 15.9588C6.76562 15.552 7.09105 15.2266 7.49783 15.2266C7.90461 15.3079 8.23003 15.552 8.23003 15.9588Z" fill="#181C32"/>
</g>
<defs>
<clipPath id="clip0_4394_18065">
<rect width="24" height="24" fill="white" transform="translate(4 4)"/>
</clipPath>
</defs>
</svg>
