<svg width="32" height="33" viewBox="0 0 32 33" fill="none" xmlns="http://www.w3.org/2000/svg">
<g clip-path="url(#clip0_4395_18560)">
<path d="M0.000904114 21.6661C0.143337 20.7403 0.428204 19.8144 0.92672 19.0311C2.06619 17.2506 3.70417 16.2536 5.84067 16.04C6.19675 15.9688 6.62405 15.9688 6.98013 15.9688C12.8199 15.9688 18.6597 15.9688 24.5706 15.9688C26.2086 15.9688 27.6329 16.3248 28.9861 17.3219C31.0513 18.8886 32.0484 21.5236 31.4074 24.0874C30.7665 26.58 28.63 28.5029 26.0662 28.9302C25.7101 29.0014 25.354 29.0014 24.9267 29.0014C18.8021 29.0014 12.6775 29.0014 6.55283 29.0014C3.20565 29.0014 0.570637 26.7937 0.000904114 23.4465C0.000904114 23.3753 0.000904114 23.3753 -0.0703125 23.3041C0.000904114 22.7343 0.000904114 22.2358 0.000904114 21.6661ZM15.811 27.0785C18.9445 27.0785 22.1493 27.0785 25.2828 27.0785C28.0602 27.0785 30.1967 24.3723 29.627 21.6661C29.1997 19.3871 27.3481 17.8916 25.0692 17.8916C18.8733 17.8916 12.7487 17.8916 6.55283 17.8916C6.26797 17.8916 6.05432 17.8916 5.76945 17.9628C3.27687 18.3189 1.49645 20.8115 1.92375 23.3041C2.42227 25.583 4.20268 27.0785 6.55283 27.0785C9.61515 27.0785 12.6775 27.0785 15.811 27.0785Z" fill="#181C32"/>
<path d="M24.0721 10.5553C23.9297 10.4841 23.7872 10.4841 23.716 10.4841C21.3659 10.4841 19.0157 10.4841 16.6656 10.4841C16.2383 10.4841 16.2383 10.4841 16.2383 10.0568C16.2383 9.70075 16.2383 9.34467 16.2383 8.91737C16.2383 8.6325 16.3095 8.56128 16.6656 8.56128C18.6596 8.56128 20.7249 8.56128 22.719 8.56128C23.1463 8.56128 23.6448 8.56128 24.0721 8.56128C24.0721 8.41885 23.9297 8.34763 23.8585 8.27642C23.2175 7.63547 22.6478 7.06573 22.0068 6.42478C21.8644 6.28235 21.8644 6.13992 22.0068 5.99748C22.3629 5.71262 22.6478 5.35654 22.9326 5.07167C23.0751 4.92924 23.1463 4.92924 23.2887 5.07167C24.7131 6.496 26.1374 7.92033 27.5617 9.34467C27.7042 9.4871 27.7042 9.55832 27.5617 9.70075C26.1374 11.1251 24.7131 12.5494 23.2887 13.9737C23.1463 14.1162 23.0751 14.1162 22.9326 13.9737C22.5766 13.6177 22.2917 13.3328 21.9356 12.9767C21.7932 12.8343 21.7932 12.6918 21.9356 12.5494C22.5766 11.9797 23.1463 11.3387 23.716 10.769C23.8585 10.6978 23.9297 10.6266 24.0721 10.5553Z" fill="#181C32"/>
<path d="M5.12786 9.48832C5.12786 9.27467 5.12786 9.06102 5.12786 8.84737C5.12786 8.63372 5.19907 8.5625 5.34151 8.5625C5.84002 8.5625 6.26732 8.5625 6.76584 8.5625C6.90827 8.5625 7.05071 8.63372 7.05071 8.84737C7.05071 9.34588 7.05071 9.77318 7.05071 10.2717C7.05071 10.4141 6.97949 10.5566 6.76584 10.5566C6.26732 10.5566 5.84002 10.5566 5.34151 10.5566C5.12786 10.5566 5.05664 10.4853 5.05664 10.2717C5.12786 9.98683 5.12786 9.77318 5.12786 9.48832Z" fill="#181C32"/>
<path d="M9.7568 10.4823C9.54315 10.4823 9.25828 10.4823 9.04463 10.4823C8.83098 10.4823 8.75977 10.4111 8.75977 10.1975C8.75977 9.69896 8.75977 9.27166 8.75977 8.77315C8.75977 8.5595 8.83098 8.48828 9.04463 8.48828C9.54315 8.48828 9.97045 8.48828 10.469 8.48828C10.6826 8.48828 10.7538 8.5595 10.7538 8.77315C10.7538 9.20045 10.7538 9.69896 10.7538 10.1263C10.7538 10.3399 10.6826 10.4111 10.469 10.4111C10.2553 10.4823 9.97045 10.4823 9.7568 10.4823Z" fill="#181C32"/>
<path d="M13.461 10.4844C13.2473 10.4844 13.0337 10.4844 12.82 10.4844C12.6776 10.4844 12.5352 10.4132 12.5352 10.2708C12.5352 9.77228 12.5352 9.27376 12.5352 8.84646C12.5352 8.70403 12.6064 8.63281 12.7488 8.63281C13.2473 8.63281 13.7458 8.63281 14.1731 8.63281C14.3156 8.63281 14.3868 8.70403 14.3868 8.84646C14.3868 9.34498 14.3868 9.8435 14.3868 10.2708C14.3868 10.4132 14.3156 10.4844 14.1731 10.4844C13.9595 10.4844 13.6746 10.4844 13.461 10.4844Z" fill="#181C32"/>
<path d="M13.2463 25.298C11.0386 25.298 8.75962 25.298 6.55191 25.298C5.19879 25.298 4.05932 24.3722 3.77446 23.1615C3.34716 21.3811 4.70027 19.7431 6.62312 19.6719C8.90205 19.6719 11.181 19.6719 13.4599 19.6719C15.6676 19.6719 17.8753 19.6719 20.0831 19.6719C20.5104 19.6719 20.5104 19.6719 20.5104 20.0992C20.5104 21.6659 20.5104 23.3039 20.5104 24.8707C20.5104 25.298 20.5104 25.298 20.0831 25.298C17.7329 25.298 15.454 25.298 13.2463 25.298ZM12.3205 23.3751C12.6053 23.3751 12.9614 23.3751 13.2463 23.3751C14.8842 23.3751 16.5222 23.3751 18.1602 23.3751C18.4451 23.3751 18.5163 23.3039 18.5163 23.0191C18.5163 22.663 18.5163 22.3781 18.5163 22.022C18.5163 21.5947 18.5163 21.5947 18.089 21.5947C14.3145 21.5947 10.4688 21.5947 6.69434 21.5947C6.62312 21.5947 6.48069 21.5947 6.40947 21.5947C5.83974 21.6659 5.48366 22.2357 5.62609 22.7342C5.76852 23.1615 6.05339 23.3751 6.55191 23.3751C8.47475 23.3751 10.3976 23.3751 12.3205 23.3751Z" fill="#181C32"/>
</g>
<defs>
<clipPath id="clip0_4395_18560">
<rect width="31.6202" height="24" fill="white" transform="translate(0 5)"/>
</clipPath>
</defs>
</svg>
