<svg width="32" height="32" viewBox="0 0 32 32" fill="none" xmlns="http://www.w3.org/2000/svg">
<g clip-path="url(#clip0_4395_18546)">
<path d="M15.2394 4.5C15.7465 4.5 16.169 4.5 16.6761 4.5C16.7606 4.5 16.7606 4.5 16.8451 4.5C19.0423 4.83803 20.6479 5.93662 21.5775 7.88028C22.4225 9.65493 22.5915 11.5986 22 13.4577C21.662 14.6408 21.1549 15.7394 20.4789 16.838C20.3944 17.1761 20.3944 17.1761 20.6479 17.1761C21.4085 17.1761 22.0845 17.1761 22.8451 17.1761C23.3521 17.1761 23.6056 17.3451 23.7746 17.7676C24.2817 19.0352 24.8732 20.3028 25.3803 21.5704C26.2254 23.5986 27.0704 25.5423 27.9155 27.5704C27.9155 27.7394 27.9155 27.9085 27.9155 28.0775C27.7465 28.4155 27.493 28.5845 27.0704 28.5845C19.6338 28.5845 12.1972 28.5845 4.76056 28.5845C4.67606 28.5845 4.59155 28.5845 4.59155 28.5845C4.33803 28.4155 4 28.162 4 27.8239C4 27.6549 4.08451 27.4859 4.08451 27.3169C4.33803 26.7254 4.59155 26.1338 4.84507 25.4577C5.94366 22.838 7.04225 20.3028 8.14085 17.6831C8.39437 17.3451 8.64789 17.1761 9.07042 17.1761C9.74648 17.1761 10.507 17.1761 11.1831 17.1761C11.6056 17.1761 11.6056 17.1761 11.4366 16.838C11.0986 16.2465 10.8451 15.6549 10.5915 15.0634C9.74648 13.3732 9.40845 11.5141 9.83099 9.57042C10.338 7.28873 11.6056 5.6831 13.8028 4.83803C14.3099 4.66901 14.7324 4.58451 15.2394 4.5ZM16 5.93662C14.9859 5.93662 13.9718 6.19014 13.1268 6.78169C11.7746 7.88028 11.1831 9.3169 11.0986 11.007C11.0141 12.0211 11.2676 13.0352 11.6901 13.9648C12.7042 16.5 14.2254 18.6972 15.9155 20.8099C16 20.8944 16.0845 20.8944 16.169 20.8099C16.4225 20.4718 16.6761 20.2183 16.8451 19.8803C18.1127 18.1901 19.2958 16.331 20.2254 14.3873C20.8169 12.9507 21.1549 11.5141 20.8169 9.90845C20.2254 7.54225 18.3662 5.93662 16 5.93662ZM16.8451 27.0634C17.3521 26.9789 17.6901 27.0634 18.0282 26.8944C20.1408 25.7958 22.2535 24.6972 24.3662 23.5986C24.5352 23.5141 24.6197 23.4296 24.5352 23.1761C23.9437 21.7394 23.2676 20.3028 22.6761 18.8662C22.5915 18.6972 22.507 18.6127 22.2535 18.6127C21.4085 18.6127 20.6479 18.6127 19.8028 18.6127C19.5493 18.6127 19.4648 18.6972 19.2958 18.8662C18.4507 20.1338 17.6056 21.3169 16.5915 22.5C16.169 22.9225 15.7465 22.9225 15.3239 22.5C15.0704 22.2465 14.9014 21.993 14.6479 21.6549C14.4789 21.4859 14.3944 21.4014 14.2254 21.5704C13.5493 21.9085 12.8732 22.2465 12.1972 22.5845C11.9437 22.669 11.9437 22.669 12.1127 22.9225C13.2958 24.1056 14.4789 25.2887 15.662 26.4718C16.0845 26.8944 16.507 27.1479 16.8451 27.0634ZM14.1408 26.9789C14.0563 26.8944 14.0563 26.8944 14.0563 26.8099C12.9577 25.7113 11.9437 24.6972 10.8451 23.5986C10.6761 23.4296 10.5915 23.4296 10.4225 23.5141C9.15493 24.1901 7.88732 24.7817 6.61972 25.4577C6.53521 25.5423 6.4507 25.6268 6.3662 25.7958C6.28169 26.1338 6.11268 26.3873 5.94366 26.7254C5.77465 27.0634 5.85915 27.0634 6.19718 27.0634C8.73239 27.0634 11.3521 27.0634 13.8873 27.0634C13.9718 26.9789 14.0563 27.0634 14.1408 26.9789ZM13.5493 20.2183C13.5493 20.1338 13.4648 20.1338 13.4648 20.0493C13.2113 19.6268 12.8732 19.2042 12.6197 18.8662C12.5352 18.6972 12.3662 18.6127 12.1972 18.6127C11.3521 18.6127 10.507 18.6127 9.66197 18.6127C9.49296 18.6127 9.32394 18.6972 9.23944 18.8662C8.64789 20.3028 8.05634 21.7394 7.38028 23.1761C7.38028 23.2606 7.29577 23.3451 7.29577 23.4296C7.38028 23.5141 7.46479 23.4296 7.46479 23.3451C8.22535 22.9225 8.98592 22.5845 9.74648 22.162C10.9296 21.5704 12.0282 20.9789 13.2113 20.3873C13.4648 20.3873 13.5493 20.3028 13.5493 20.2183ZM20.9859 26.9789C21.0704 26.9789 21.0704 26.9789 21.0704 26.9789C22.6761 26.9789 24.2817 26.9789 25.8028 26.9789C25.9718 26.9789 26.0563 26.8944 25.9718 26.7254C25.7183 26.1338 25.4648 25.5423 25.2113 25.0352C25.1268 24.7817 25.0423 24.7817 24.8732 24.9507C23.9437 25.4577 23.0141 25.9648 22 26.4718C21.7465 26.5563 21.4085 26.8099 20.9859 26.9789Z" fill="#181C32"/>
<path d="M18.1121 10.8392C18.1121 12.0223 17.1825 12.9519 15.9994 12.9519C14.8163 12.9519 13.8867 12.0223 13.8867 10.8392C13.8867 9.65614 14.8163 8.72656 15.9994 8.72656C17.1825 8.72656 18.1121 9.65614 18.1121 10.8392ZM15.9994 10.1632C15.6614 10.1632 15.3233 10.4167 15.3233 10.8392C15.3233 11.1773 15.6614 11.5153 15.9994 11.5153C16.4219 11.5153 16.6755 11.2618 16.6755 10.8392C16.6755 10.5012 16.3374 10.1632 15.9994 10.1632Z" fill="#181C32"/>
</g>
<defs>
<clipPath id="clip0_4395_18546">
<rect width="24" height="24" fill="white" transform="translate(4 4.5)"/>
</clipPath>
</defs>
</svg>
