<svg width="32" height="32" viewBox="0 0 32 32" fill="none" xmlns="http://www.w3.org/2000/svg">
<g clip-path="url(#clip0_4394_18079)">
<path d="M15.0332 4C15.7156 4 16.3412 4 17.0237 4C17.3081 4.05687 17.6493 4.05687 17.9336 4.11374C20.3223 4.51185 22.4834 5.47867 24.1896 7.18483C27.2607 10.1422 28.455 13.7251 27.8863 17.8768C27.545 20.2654 26.5213 22.3697 24.872 24.1327C21.8578 27.2607 18.218 28.5119 13.8957 27.8294C9.34597 27.09 5.59242 23.6209 4.3981 19.1848C4.22749 18.4455 4.11374 17.7062 4 16.9668C4 16.2844 4 15.6588 4 14.9763C4.05687 14.5782 4.11374 14.237 4.17062 13.8389C4.90995 9.34597 8.37915 5.59242 12.8152 4.3981C13.5545 4.22749 14.2938 4.11374 15.0332 4ZM16 5.76303C10.3128 5.76303 5.76303 10.3128 5.70616 16C5.70616 21.6872 10.2559 26.2938 15.9431 26.2938C21.6303 26.2938 26.237 21.7441 26.237 16.0569C26.237 10.3128 21.6872 5.76303 16 5.76303Z" fill="#181C32"/>
<path d="M15.9991 15.0898C18.1033 15.0898 20.1507 15.0898 22.255 15.0898C22.4256 15.0898 22.5962 15.0898 22.71 15.1467C23.1081 15.2036 23.4493 15.6017 23.4493 15.9998C23.4493 16.3979 23.1649 16.796 22.71 16.8529C22.5962 16.8529 22.4256 16.9097 22.3119 16.9097C18.1033 16.9097 13.8948 16.9097 9.68627 16.9097C9.51565 16.9097 9.40191 16.9097 9.23129 16.8529C8.83319 16.796 8.54883 16.3979 8.54883 15.9998C8.54883 15.6017 8.83319 15.2036 9.23129 15.1467C9.40191 15.0898 9.57253 15.0898 9.74314 15.0898C11.8474 15.0898 13.9517 15.0898 15.9991 15.0898Z" fill="#181C32"/>
</g>
<defs>
<clipPath id="clip0_4394_18079">
<rect width="24" height="24" fill="white" transform="translate(4 4)"/>
</clipPath>
</defs>
</svg>
