<svg width="32" height="32" viewBox="0 0 32 32" fill="none" xmlns="http://www.w3.org/2000/svg">
<g clip-path="url(#clip0_4394_18097)">
<path d="M28 16C28 22.6122 22.6122 28 16 28C9.38776 28 4 22.6122 4 16C4 9.38776 9.38775 4 15.8776 4C22.6122 4 28 9.38776 28 16ZM5.71429 16C5.71429 21.6327 10.3673 26.2857 16 26.2857C21.7551 26.2857 26.2857 21.6327 26.4082 16C26.4082 10.2449 21.7551 5.59184 16.1224 5.59184C10.2449 5.71429 5.59184 10.3673 5.71429 16Z" fill="#181C32"/>
<path d="M16.0005 16.7357C18.0821 16.7357 20.1637 16.7357 22.2454 16.7357C22.4903 16.7357 22.7352 16.7357 22.8576 16.8582C23.1025 17.1031 23.225 17.348 23.225 17.5929C23.225 17.9602 22.9801 18.2051 22.7352 18.3276C22.6127 18.3276 22.4903 18.3276 22.3678 18.3276C18.2046 18.3276 14.0413 18.3276 9.87803 18.3276C9.75558 18.3276 9.75558 18.3276 9.63313 18.3276C9.14334 18.3276 8.89844 17.9602 8.89844 17.4704C8.89844 17.1031 9.26578 16.7357 9.63313 16.6133C9.75558 16.6133 9.87803 16.6133 10.0005 16.6133C11.8372 16.7357 13.9188 16.7357 16.0005 16.7357Z" fill="#181C32"/>
<path d="M15.9999 10.3672C18.0815 10.3672 20.1631 10.3672 22.2448 10.3672C22.4897 10.3672 22.6121 10.3672 22.857 10.4896C23.1019 10.6121 23.3468 10.9794 23.2244 11.2243C23.2244 11.5917 22.9795 11.8366 22.6121 11.959C22.4897 11.959 22.2448 11.959 22.1223 11.959C18.0815 11.959 13.9182 11.959 9.87743 11.959C9.75498 11.959 9.63253 11.959 9.38764 11.959C9.02029 11.8366 8.77539 11.4692 8.77539 11.1019C8.77539 10.7345 9.14274 10.3672 9.51008 10.3672C9.63253 10.3672 9.75498 10.3672 9.87743 10.3672C11.8366 10.3672 13.9182 10.3672 15.9999 10.3672Z" fill="#181C32"/>
<path d="M16.0001 19.918C17.2246 19.918 18.5715 19.918 19.796 19.918C20.2858 19.918 20.6532 20.1629 20.6532 20.6527C20.7756 21.1425 20.4083 21.5098 19.9185 21.6323C19.796 21.6323 19.6736 21.6323 19.6736 21.6323C17.2246 21.6323 14.6532 21.6323 12.2042 21.6323C12.0818 21.6323 12.0818 21.6323 11.9593 21.6323C11.4695 21.6323 11.2246 21.2649 11.2246 20.8976C11.2246 20.4078 11.4695 20.0404 11.9593 20.0404C12.2042 20.0404 12.3266 20.0404 12.5715 20.0404C13.6736 19.918 14.8981 19.918 16.0001 19.918Z" fill="#181C32"/>
<path d="M16.0001 15.2651C14.6532 15.2651 13.4287 15.2651 12.0818 15.2651C11.592 15.2651 11.2246 14.8977 11.2246 14.4079C11.2246 13.9181 11.592 13.5508 12.0818 13.5508C12.4491 13.5508 12.8164 13.5508 13.1838 13.5508C15.3879 13.5508 17.7144 13.5508 19.9185 13.5508C20.5307 13.5508 20.8981 13.9181 20.8981 14.4079C20.8981 14.8977 20.5307 15.2651 20.0409 15.2651C18.5715 15.2651 17.2246 15.2651 16.0001 15.2651Z" fill="#181C32"/>
</g>
<defs>
<clipPath id="clip0_4394_18097">
<rect width="24" height="24" fill="white" transform="translate(4 4)"/>
</clipPath>
</defs>
</svg>
