<svg width="32" height="32" viewBox="0 0 32 32" fill="none" xmlns="http://www.w3.org/2000/svg">
<g clip-path="url(#clip0_4394_18109)">
<path d="M6.72525 9C7.01768 9.04587 7.31011 9.18349 7.47721 9.55046C7.64431 9.9633 7.60254 10.3761 7.31011 10.7431C7.05945 11.0183 6.8088 11.2936 6.55815 11.5688C5.13778 13.1284 3.71742 14.6881 2.29705 16.2018C2.08818 16.4312 2.08818 16.5229 2.29705 16.7523C3.9263 18.4954 5.51376 20.2844 7.10123 22.0734C7.26833 22.2569 7.39366 22.3945 7.47721 22.6239C7.60254 23.0367 7.47721 23.4954 7.18478 23.7248C6.85058 24 6.4746 24 6.14039 23.7248C6.05684 23.633 5.93152 23.5413 5.84797 23.4495C4.05162 21.5229 2.2135 19.5046 0.417158 17.5321C-0.167698 16.8899 -0.167698 16.156 0.417158 15.5138C2.25528 13.4954 4.05162 11.4771 5.88974 9.41284C6.09862 9.18349 6.34927 9 6.72525 9Z" fill="#181C32"/>
<path d="M24.4383 23.0371C24.4383 22.6243 24.6054 22.3491 24.8143 22.1197C26.4436 20.3307 28.0728 18.5417 29.702 16.7527C29.9109 16.5234 29.9109 16.4316 29.702 16.2023C28.031 14.4133 26.4018 12.5784 24.7725 10.7894C24.1877 10.1472 24.3966 9.22979 25.1485 9.00043C25.5245 8.90868 25.8587 9.09217 26.1093 9.3674C27.1955 10.5601 28.2399 11.7527 29.3261 12.9454C30.078 13.7711 30.83 14.5968 31.5819 15.4683C32.1668 16.1105 32.125 16.7986 31.5819 17.4408C29.7438 19.4591 27.9057 21.5234 26.0676 23.5417C25.6498 24.0004 25.2321 24.0922 24.8561 23.7711C24.5637 23.6335 24.4383 23.3582 24.4383 23.0371Z" fill="#181C32"/>
<path d="M16.1672 18.0831C15.3317 18.0831 14.7051 17.3492 14.7051 16.4776C14.7051 15.606 15.3735 14.918 16.1672 14.918C16.961 14.918 17.6294 15.6519 17.6294 16.5235C17.6294 17.395 16.961 18.0831 16.1672 18.0831Z" fill="#181C32"/>
<path d="M21.8899 18.0831C21.0544 18.0831 20.4277 17.3492 20.4277 16.4776C20.4277 15.606 21.0961 14.918 21.8899 14.918C22.6836 14.918 23.352 15.6519 23.352 16.5235C23.352 17.395 22.6836 18.0831 21.8899 18.0831Z" fill="#181C32"/>
<path d="M10.5696 18.0831C9.77583 18.0831 9.10742 17.395 9.10742 16.5235C9.10742 15.6519 9.73405 14.918 10.5278 14.918C11.3633 14.918 11.9899 15.606 11.9899 16.4776C11.9899 17.395 11.3633 18.0831 10.5696 18.0831Z" fill="#181C32"/>
</g>
<defs>
<clipPath id="clip0_4394_18109">
<rect width="32" height="15" fill="white" transform="translate(0 9)"/>
</clipPath>
</defs>
</svg>
