<svg width="32" height="32" viewBox="0 0 32 32" fill="none" xmlns="http://www.w3.org/2000/svg">
<g clip-path="url(#clip0_4394_18125)">
<path d="M4 24.1678C4 18.4497 4 12.7315 4 7.09396C4 7.01342 4.08054 6.93289 4.08054 6.85235C4.40268 5.72483 5.36913 5 6.49664 5C12.8591 5 19.1409 5 25.5034 5C26.8725 5 28 6.12752 28 7.49664C28 12.8926 28 18.2886 28 23.7651C28 25.1342 26.8725 26.2617 25.5034 26.2617C19.1409 26.2617 12.7785 26.2617 6.49664 26.2617C6.01342 26.2617 5.61074 26.1007 5.20805 25.8591C4.56376 25.4564 4.16107 24.8926 4 24.1678ZM16 11.604C12.6174 11.604 9.15436 11.604 5.77181 11.604C5.44966 11.604 5.44966 11.604 5.44966 11.9262C5.44966 14.745 5.44966 17.5638 5.44966 20.3826C5.44966 21.4295 5.44966 22.4765 5.44966 23.5235C5.44966 24.0872 5.69128 24.4899 6.1745 24.651C6.33557 24.7315 6.57718 24.7315 6.81879 24.7315C12.8591 24.7315 18.8993 24.7315 24.9396 24.7315C25.1007 24.7315 25.2617 24.7315 25.4228 24.7315C25.745 24.7315 26.0671 24.5705 26.3087 24.3289C26.5503 24.0872 26.5503 23.7651 26.5503 23.5235C26.5503 19.6577 26.5503 15.8725 26.5503 12.0067C26.5503 11.604 26.5503 11.604 26.2282 11.604C22.8456 11.604 19.3826 11.604 16 11.604ZM16 10.1544C19.4631 10.1544 22.8456 10.1544 26.3087 10.1544C26.5503 10.1544 26.5503 10.1544 26.5503 9.83221C26.5503 9.10738 26.5503 8.38255 26.5503 7.65772C26.5503 6.85235 26.0671 6.36913 25.3423 6.36913C19.1409 6.36913 12.9396 6.36913 6.65772 6.36913C5.85235 6.36913 5.36913 6.85235 5.36913 7.65772C5.36913 8.38255 5.36913 9.02685 5.36913 9.75168C5.36913 10.0738 5.36913 10.0738 5.69128 10.0738C9.15436 10.1544 12.6174 10.1544 16 10.1544Z" fill="#181C32"/>
<path d="M21.6369 9.02779C21.2343 9.02779 20.9121 8.70564 20.9121 8.30296C20.9121 7.90027 21.2343 7.57812 21.6369 7.57812C22.0396 7.57812 22.3618 7.90027 22.3618 8.30296C22.3618 8.70564 22.0396 9.02779 21.6369 9.02779Z" fill="#181C32"/>
<path d="M25.1821 8.30296C25.1821 8.70564 24.8599 9.02779 24.4573 9.02779C24.0546 9.02779 23.7324 8.70564 23.7324 8.30296C23.7324 7.90027 24.0546 7.57812 24.4573 7.57812C24.8599 7.57812 25.1821 7.90027 25.1821 8.30296Z" fill="#181C32"/>
</g>
<defs>
<clipPath id="clip0_4394_18125">
<rect width="24" height="21.1812" fill="white" transform="translate(4 5)"/>
</clipPath>
</defs>
</svg>
