<svg width="32" height="32" viewBox="0 0 32 32" fill="none" xmlns="http://www.w3.org/2000/svg">
<g clip-path="url(#clip0_4395_18144)">
<path d="M13.1242 28.4876C12.43 28.1901 12.1325 27.6942 12.1325 27C12.1325 24.719 12.1325 22.438 12.1325 20.157C12.1325 19.9587 12.0333 19.8595 11.8349 19.8595C8.46303 19.6612 5.48783 17.281 4.39692 14.1074C2.81014 9.14876 5.9837 3.89256 11.1407 3.09917C11.4382 3 11.8349 3 12.3308 3C17.0911 3 21.9506 3 26.711 3C27.5044 3 28.0002 3.39669 28.0002 4.19008C28.0994 4.98347 28.0994 5.77686 28.0002 6.66942C27.901 7.26446 27.4052 7.76033 26.711 7.76033C26.0168 7.76033 25.3225 7.76033 24.6283 7.76033C24.3308 7.76033 24.3308 7.76033 24.3308 8.05785C24.3308 14.405 24.3308 20.7521 24.3308 27.0992C24.3308 27.8926 24.1325 28.2893 23.3391 28.5868C22.4465 28.5868 21.4548 28.5868 20.5622 28.5868C20.3639 28.4876 20.0663 28.3884 19.9672 28.1901C19.6696 27.8926 19.6696 27.595 19.6696 27.1983C19.6696 20.8512 19.6696 14.5041 19.6696 8.15702C19.6696 7.8595 19.6696 7.8595 19.3721 7.8595C18.6779 7.8595 18.0829 7.8595 17.3887 7.8595C16.992 7.8595 16.992 7.8595 16.992 8.2562C16.992 14.5041 16.992 20.8512 16.992 27.0992C16.992 27.7934 16.6944 28.3884 16.0002 28.5868C15.0085 28.4876 14.0168 28.4876 13.1242 28.4876ZM15.306 16.8843C15.306 13.6116 15.306 10.3388 15.306 7.06612C15.306 6.57025 15.6035 6.17355 16.0994 6.17355C17.4878 6.17355 18.8763 6.17355 20.2647 6.17355C20.6614 6.17355 20.9589 6.47107 21.0581 6.86777C21.0581 6.96694 21.0581 7.16529 21.0581 7.26446C21.0581 13.7107 21.0581 20.157 21.0581 26.6033C21.0581 26.7025 21.0581 26.8017 21.0581 26.9008C21.0581 27.0992 21.1572 27.0992 21.2564 27.0992C21.6531 27.0992 21.9506 27.0992 22.3473 27.0992C22.5457 27.0992 22.6448 27 22.6448 26.8017C22.6448 25.9091 22.6448 25.1157 22.6448 24.2231C22.6448 18.5702 22.6448 12.9174 22.6448 7.26446C22.6448 6.47107 22.9424 6.17355 23.7358 6.17355C24.5291 6.17355 25.3225 6.17355 26.1159 6.17355C26.3143 6.17355 26.4134 6.07438 26.4134 5.87603C26.4134 5.57851 26.4134 5.18182 26.4134 4.8843C26.4134 4.58678 26.4134 4.58678 26.1159 4.58678C21.6531 4.58678 17.0911 4.58678 12.6283 4.58678C12.2316 4.58678 11.7358 4.58678 11.3391 4.68595C7.76882 5.28099 5.19031 8.65289 5.68617 12.3223C5.9837 15 7.57047 16.8843 10.149 17.876C11.0415 18.1736 11.9341 18.2727 12.9258 18.2727C13.4217 18.2727 13.7192 18.5702 13.7192 19.0661C13.7192 19.1653 13.7192 19.2645 13.7192 19.3636C13.7192 21.843 13.7192 24.2231 13.7192 26.7025C13.7192 27.0992 13.7192 27.0992 14.1159 27.0992C14.4134 27.0992 14.711 27.0992 15.0085 27.0992C15.4052 27.0992 15.4052 27.0992 15.4052 26.7025C15.306 23.3306 15.306 20.157 15.306 16.8843Z" fill="#181C32"/>
<path d="M13.7189 11.4309C13.7189 12.8193 13.7189 14.3069 13.7189 15.6953C13.7189 16.3895 13.4214 16.5879 12.7272 16.6871C11.3388 16.6871 10.0495 16.2904 8.95859 15.3978C6.87595 13.6127 6.57843 10.2408 8.36355 8.05895C9.55363 6.67052 11.1404 6.07548 12.9255 6.17465C13.4214 6.17465 13.7189 6.57135 13.7189 6.96804C13.7189 8.45564 13.7189 9.94325 13.7189 11.4309ZM12.1321 11.4309C12.1321 10.3399 12.1321 9.34821 12.1321 8.2573C12.1321 7.66226 12.2313 7.66226 11.5371 7.8606C9.95033 8.15812 8.5619 9.7449 8.66107 11.7284C8.76025 13.4143 10.0495 14.8028 11.7355 15.1003C12.033 15.1994 12.033 15.1003 12.033 14.8028C12.1321 13.7118 12.1321 12.5218 12.1321 11.4309Z" fill="#181C32"/>
</g>
<defs>
<clipPath id="clip0_4395_18144">
<rect width="24" height="25.4876" fill="white" transform="translate(4 3)"/>
</clipPath>
</defs>
</svg>
