<svg width="32" height="32" viewBox="0 0 32 32" fill="none" xmlns="http://www.w3.org/2000/svg">
<g clip-path="url(#clip0_4395_18158)">
<path d="M9.33333 3.9986C10.4 3.9986 11.3778 3.9986 12.4444 3.9986C12.6222 3.9986 12.7111 3.9986 12.8889 3.9986C14.8444 3.9986 16.8 3.90971 18.6667 4.17638C19.8222 4.26526 20.9778 4.53193 22.0444 5.06526C23.2 5.5986 24.0889 6.30971 24.6222 7.46526C24.8 7.73193 24.9778 7.90971 25.2444 8.08749C27.0222 9.06526 27.9111 10.5764 28 12.6208C28 13.5097 27.9111 14.4875 27.6444 15.3764C26.9333 18.1319 25.4222 20.2653 22.8444 21.5986C21.8667 22.1319 20.8 22.3986 19.6444 22.3986C18.5778 22.3986 17.4222 22.3986 16.2667 22.3986C16.0889 22.3986 16 22.4875 15.9111 22.6653C15.6444 23.9097 15.3778 25.1542 15.2 26.3986C15.0222 27.3764 14.3111 27.9986 13.2444 27.9986C11.6444 27.9986 10.1333 27.9986 8.53333 27.9986C7.55556 27.9986 6.84444 27.2875 6.75556 26.3097C6.75556 25.9542 6.75556 25.6875 6.84444 25.4208C6.84444 25.243 6.84444 25.1542 6.66667 25.1542C6.4 25.1542 6.13333 25.1542 5.86667 25.1542C5.42222 25.1542 5.06667 25.0653 4.8 24.7986C4.35556 24.5319 4.08889 24.0875 4 23.643C4 23.3764 4 23.1097 4 22.843C4 22.7542 4.08889 22.6653 4.08889 22.5764C5.33333 16.9764 6.57778 11.3764 7.82222 5.77638C8 4.88749 8.44444 4.26526 9.33333 3.9986ZM13.4222 5.50971C13.0667 5.42082 12.7111 5.50971 12.3556 5.42082C11.5556 5.42082 10.7556 5.42082 9.95556 5.42082C9.42222 5.42082 9.33333 5.50971 9.24444 5.95415C8.71111 8.44304 8.17778 10.843 7.64444 13.243C6.93333 16.5319 6.22222 19.7319 5.51111 23.0208C5.42222 23.5542 5.51111 23.7319 6.04444 23.7319C7.46667 23.7319 8.88889 23.7319 10.3111 23.7319C10.8444 23.7319 10.9333 23.643 11.0222 23.1097C11.2889 21.7764 11.5556 20.443 11.8222 19.1097C11.9111 18.4875 12.4444 18.043 13.0667 18.043C14.3111 17.9542 15.6444 18.043 16.8889 17.9542C17.0667 17.9542 17.2444 17.9542 17.5111 17.9542C18.8444 17.7764 20.0889 17.1542 21.0667 16.2653C22.0444 15.3764 22.7556 14.3097 23.1111 13.1542C23.5556 11.9097 23.8222 10.6653 23.6444 9.42082C23.5556 8.44304 23.1111 7.64304 22.3111 7.02082C21.5111 6.3986 20.5333 6.04304 19.5556 5.86526C18.4889 5.5986 17.3333 5.5986 16.1778 5.5986C15.2889 5.50971 14.4 5.50971 13.4222 5.50971ZM11.0222 26.5764C11.7333 26.5764 12.4444 26.5764 13.2444 26.5764C13.6889 26.5764 13.7778 26.4875 13.8667 26.043C14.1333 24.6208 14.4 23.2875 14.6667 21.8653C14.7556 21.4208 15.0222 21.0653 15.4667 20.8875C15.6444 20.7986 15.9111 20.7986 16.0889 20.7986C17.4222 20.7986 18.7556 20.7986 20.1778 20.7097C20.2667 20.7097 20.3556 20.7097 20.4444 20.7097C21.9556 20.443 23.2889 19.643 24.3556 18.4875C25.9556 16.7097 26.5778 14.5764 26.4889 12.2653C26.4889 11.3764 26.0444 10.4875 25.3333 9.86526C25.2444 9.86526 25.2444 9.77637 25.1556 9.77637C25.0667 9.77637 25.0667 9.86526 25.0667 9.95415C24.9778 10.9319 24.8889 11.9986 24.5333 12.9764C23.6444 15.7319 22.0444 17.6875 19.3778 18.843C18.7556 19.1097 18.0444 19.3764 17.4222 19.3764C16.0889 19.3764 14.7556 19.3764 13.5111 19.4653C13.1556 19.4653 13.1556 19.4653 13.0667 19.8208C12.8 21.0653 12.5333 22.3097 12.3556 23.5542C12.1778 24.443 11.5556 24.9764 10.6667 25.0653C10.1333 25.1542 9.6 25.0653 9.06667 25.0653C8.17778 25.0653 8.44444 24.8875 8.17778 25.7764C8.08889 26.2208 8.26667 26.4875 8.71111 26.4875C9.6 26.5764 10.3111 26.5764 11.0222 26.5764Z" fill="#181C32"/>
</g>
<defs>
<clipPath id="clip0_4395_18158">
<rect width="24.0889" height="24" fill="white" transform="translate(4 4)"/>
</clipPath>
</defs>
</svg>
