<svg width="28" height="24" viewBox="0 0 28 24" fill="none" xmlns="http://www.w3.org/2000/svg">
<g clip-path="url(#clip0_4092_5152)">
<path d="M11.5544 5.54348C11.4892 6.26087 11.6197 7.17391 11.4892 8.15217C11.2283 9.58696 10.3153 10.5 8.8153 10.5652C7.05443 10.6957 5.29356 10.6957 3.53269 10.5652C2.09791 10.5 1.05443 9.45652 0.923998 7.95652C0.793563 6.19565 0.793563 4.5 0.923998 2.73913C1.11965 1.04348 2.16313 0.0652174 3.98922 0C5.48922 0 7.05443 0 8.61965 0C9.59791 0 10.4457 0.326087 11.0327 1.1087C11.424 1.69565 11.5544 2.28261 11.6196 3C11.6196 3.78261 11.5544 4.56522 11.5544 5.54348ZM6.33704 2.21739C5.55443 2.21739 4.77182 2.21739 4.05443 2.21739C3.40226 2.21739 3.20661 2.41304 3.20661 3.06522C3.20661 3.78261 3.20661 4.5 3.20661 5.21739C3.20661 6 3.20661 6.78261 3.20661 7.56522C3.20661 8.15217 3.40226 8.41304 3.98922 8.41304C5.55443 8.41304 7.11965 8.41304 8.68487 8.41304C9.20661 8.41304 9.40226 8.21739 9.40226 7.69565C9.40226 6.13043 9.40226 4.5 9.40226 2.93478C9.40226 2.41304 9.20661 2.21739 8.68487 2.21739C7.83704 2.21739 7.11965 2.21739 6.33704 2.21739Z" fill="#181C32"/>
<path d="M14.0331 14.8047C18.207 14.8047 22.3809 14.8047 26.4896 14.8047C27.2722 14.8047 27.7288 15.2612 27.7288 15.9786C27.7288 16.4351 27.4027 16.8264 26.9462 16.9569C26.7505 17.0221 26.4896 17.0221 26.294 17.0221C18.0766 17.0221 9.92442 17.0221 1.70703 17.0221C1.51138 17.0221 1.31573 17.0221 1.05486 16.9569C0.533118 16.8264 0.207031 16.3699 0.207031 15.7829C0.272249 15.2612 0.663553 14.8699 1.18529 14.8047C1.31573 14.8047 1.44616 14.8047 1.5766 14.8047C5.75051 14.8047 9.92442 14.8047 14.0331 14.8047Z" fill="#181C32"/>
<path d="M14.0324 23.9998C9.85844 23.9998 5.61931 23.9998 1.4454 23.9998C0.728006 23.9998 0.271484 23.5433 0.271484 22.8259C0.271484 22.3042 0.728006 21.8477 1.24975 21.8477C1.38018 21.8477 1.4454 21.8477 1.57583 21.8477C9.85844 21.8477 18.2063 21.8477 26.4889 21.8477C26.6845 21.8477 26.815 21.8477 27.0106 21.9129C27.5324 22.0433 27.8584 22.565 27.7932 23.0868C27.728 23.6085 27.2715 23.9998 26.815 23.9998C25.9671 23.9998 25.1845 23.9998 24.3367 23.9998C20.815 23.9998 17.4237 23.9998 14.0324 23.9998Z" fill="#181C32"/>
<path d="M21.7279 9.97911C20.0975 9.97911 18.5323 9.97911 16.9018 9.97911C16.4453 9.97911 16.054 9.78346 15.8584 9.39215C15.6627 9.00085 15.7279 8.67476 15.9236 8.28346C16.1845 7.89215 16.5758 7.76172 17.0323 7.76172C18.5323 7.76172 20.0323 7.76172 21.5975 7.76172C23.2279 7.76172 24.7932 7.76172 26.4236 7.76172C26.554 7.76172 26.7497 7.76172 26.8801 7.76172C27.4671 7.89215 27.8584 8.34868 27.7932 8.93563C27.7279 9.45737 27.2714 9.91389 26.6845 9.91389C25.9018 9.91389 25.1192 9.91389 24.4018 9.91389C23.4888 9.97911 22.5758 9.97911 21.7279 9.97911Z" fill="#181C32"/>
<path d="M21.7286 2.87092C20.0982 2.87092 18.4677 2.87092 16.7721 2.87092C16.2503 2.87092 15.859 2.54484 15.7286 2.08832C15.5982 1.69701 15.7286 1.17527 16.1199 0.914402C16.3156 0.783967 16.5112 0.71875 16.7721 0.71875C20.0329 0.71875 23.359 0.71875 26.6199 0.71875C27.2721 0.71875 27.7286 1.17527 27.6634 1.82745C27.6634 2.4144 27.2069 2.87092 26.6199 2.87092C24.9895 2.87092 23.359 2.87092 21.7286 2.87092Z" fill="#181C32"/>
</g>
<defs>
<clipPath id="clip0_4092_5152">
<rect width="27.4565" height="24" fill="white" transform="translate(0.271484)"/>
</clipPath>
</defs>
</svg>
