<svg width="32" height="32" viewBox="0 0 32 32" fill="none" xmlns="http://www.w3.org/2000/svg">
<g clip-path="url(#clip0_4395_18173)">
<path d="M11.3091 4C14.3636 4 17.5273 4 20.5818 4C20.8 4 21.1273 4.10909 21.3455 4.10909C25.1636 4.76364 28 8.25455 28 12.0727C28 14.6909 28 17.4182 28 20.0364C28 20.5818 27.8909 21.0182 27.7818 21.5636C26.9091 25.4909 23.4182 28.1091 19.7091 28.1091C17.2 28.1091 14.6909 28.1091 12.1818 28.1091C11.8545 28.1091 11.5273 28.1091 11.2 28.1091C8.03636 27.6727 5.74545 25.9273 4.54545 23.0909C4.21818 22.2182 4.10909 21.4545 4 20.6909C4 17.6364 4 14.4727 4 11.4182C4 11.3091 4 11.0909 4.10909 10.9818C4.65455 8.03636 6.29091 5.85455 9.12727 4.65455C9.78182 4.21818 10.5455 4.10909 11.3091 4ZM16 5.41818C14.8 5.41818 13.6 5.41818 12.4 5.41818C12.0727 5.41818 11.7455 5.41818 11.4182 5.41818C9.12727 5.74545 7.49091 6.94545 6.29091 8.90909C5.63636 10 5.41818 11.0909 5.41818 12.4C5.41818 14.8 5.41818 17.3091 5.41818 19.7091C5.41818 20.0364 5.41818 20.2545 5.41818 20.5818C5.74545 22.6545 6.72727 24.2909 8.47273 25.4909C9.67273 26.2545 10.8727 26.5818 12.2909 26.5818C14.5818 26.5818 16.8727 26.5818 19.1636 26.5818C19.4909 26.5818 19.8182 26.5818 20.2545 26.5818C22.4364 26.4727 24.0727 25.4909 25.3818 23.7455C26.2545 22.5455 26.5818 21.2364 26.5818 19.7091C26.5818 17.5273 26.5818 15.3455 26.5818 13.1636C26.5818 12.7273 26.5818 12.2909 26.5818 11.8545C26.4727 10 25.7091 8.47273 24.2909 7.27273C22.9818 6.07273 21.4545 5.52727 19.7091 5.52727C18.5091 5.41818 17.2 5.41818 16 5.41818Z" fill="#181C32"/>
<path d="M11.7461 16.0006C11.7461 14.6915 11.7461 13.4915 11.7461 12.1824C11.7461 11.5279 12.0734 10.9824 12.6188 10.6552C13.2734 10.3279 13.8188 10.3279 14.3643 10.7643C16.3279 12.0733 18.1825 13.2733 20.1461 14.5824C21.237 15.3461 21.237 16.7643 20.1461 17.4188C18.1825 18.7279 16.3279 20.037 14.3643 21.237C13.3825 21.8915 12.0734 21.3461 11.8552 20.2552C11.8552 20.1461 11.8552 19.9279 11.8552 19.8188C11.7461 18.5097 11.7461 17.3097 11.7461 16.0006ZM13.1643 16.0006C13.1643 17.2006 13.1643 18.5097 13.1643 19.7097C13.1643 19.8188 13.1643 20.037 13.2734 20.037C13.3825 20.1461 13.4915 20.037 13.7097 19.9279C15.5643 18.7279 17.4188 17.5279 19.1643 16.2188C19.4915 16.0006 19.4915 15.8915 19.1643 15.6733C17.3097 14.4733 15.4552 13.2733 13.7097 11.9643C13.6006 11.9643 13.4915 11.8552 13.2734 11.9643C13.1643 12.0733 13.1643 12.1824 13.1643 12.2915C13.1643 13.6006 13.1643 14.8006 13.1643 16.0006Z" fill="#181C32"/>
</g>
<defs>
<clipPath id="clip0_4395_18173">
<rect width="24" height="24" fill="white" transform="translate(4 4)"/>
</clipPath>
</defs>
</svg>
