<svg width="32" height="32" viewBox="0 0 32 32" fill="none" xmlns="http://www.w3.org/2000/svg">
<g clip-path="url(#clip0_4395_18185)">
<path d="M28.0004 15.0185C28.0004 15.6722 28.0004 16.3259 28.0004 16.9796C27.907 17.3531 27.907 17.7267 27.8136 18.1002C26.7864 22.8629 23.9848 26.038 19.3156 27.5321C18.5685 27.8123 17.728 27.9057 16.9809 27.9991C16.3272 27.9991 15.6735 27.9991 15.0198 27.9991C14.5529 27.9057 14.1794 27.9057 13.7124 27.8123C7.17548 26.5983 2.97315 20.2481 4.18715 13.7111C5.40116 7.26754 11.658 2.97182 18.1016 4.18583C22.8642 5.11968 25.9459 7.92124 27.5335 12.5905C27.8136 13.3376 27.907 14.178 28.0004 15.0185ZM15.9537 26.3181C21.6502 26.3181 26.3194 21.7422 26.3194 15.9524C26.3194 10.2559 21.6502 5.58661 15.9537 5.58661C10.3506 5.67999 5.68132 10.2559 5.68132 15.9524C5.68132 21.7422 10.2572 26.3181 15.9537 26.3181Z" fill="#181C32"/>
<path d="M19.2216 15.2043C19.9687 15.2043 20.7158 15.2043 21.3695 15.2043C21.743 15.2043 22.1165 15.4845 22.1165 15.9514C22.2099 16.325 21.9298 16.6985 21.5562 16.7919C21.4628 16.7919 21.2761 16.7919 21.1827 16.7919C19.7819 16.7919 18.4745 16.7919 17.0737 16.7919C16.7002 16.7919 16.7002 16.7919 16.7002 17.1654C16.7002 18.5662 16.7002 19.967 16.7002 21.3678C16.7002 21.7413 16.5134 22.1148 16.1399 22.2082C15.5796 22.395 15.1126 22.0215 15.1126 21.4611C15.1126 20.6207 15.1126 19.7802 15.1126 18.9397C15.1126 18.286 15.1126 17.7257 15.1126 17.072C15.1126 16.8853 15.0193 16.7919 14.8325 16.7919C13.4317 16.7919 12.0309 16.7919 10.6302 16.7919C10.2566 16.7919 9.88308 16.6051 9.78969 16.2316C9.69631 15.7646 10.0698 15.2043 10.6302 15.2043C11.6574 15.2043 12.5912 15.2043 13.6185 15.2043C14.0854 15.2043 14.459 15.2043 14.9259 15.2043C15.206 15.2043 15.2994 15.2043 15.2994 14.9242C15.2994 13.5234 15.2994 12.216 15.2994 10.8152C15.2994 10.7218 15.2994 10.5351 15.2994 10.4417C15.3928 10.0682 15.7663 9.788 16.1399 9.88138C16.6068 9.97477 16.887 10.2549 16.887 10.7218C16.887 12.1226 16.887 13.5234 16.887 14.9242C16.887 15.2977 16.887 15.2977 17.2605 15.2977C17.9142 15.2043 18.5679 15.2043 19.2216 15.2043Z" fill="#181C32"/>
</g>
<defs>
<clipPath id="clip0_4395_18185">
<rect width="24" height="24" fill="white" transform="translate(4 4)"/>
</clipPath>
</defs>
</svg>
