<svg width="32" height="32" viewBox="0 0 32 32" fill="none" xmlns="http://www.w3.org/2000/svg">
<g clip-path="url(#clip0_4395_18198)">
<path d="M16.0443 27.9102C15.7786 27.9102 15.6015 27.9102 15.3358 27.9102C15.0701 27.8216 14.893 27.733 14.7159 27.6445C13.6531 27.1131 12.5904 26.4932 11.5277 25.9618C9.31365 24.8105 7.18819 23.6592 4.97417 22.5079C4.35424 22.1537 4 21.6223 4 20.8253C4 17.5485 4 14.3603 4 11.0836C4 10.9065 4 10.8179 4 10.6408C4.08856 10.1094 4.4428 9.66661 4.97417 9.40093C8.25092 7.62971 11.5277 5.94706 14.8044 4.17584C15.4244 3.8216 16.0443 3.8216 16.6642 4.17584C20.0295 5.8585 23.4834 7.62971 26.8487 9.31237C27.3801 9.57805 27.8229 9.9323 28 10.5522C28 14.0947 28 17.6371 28 21.1795C27.8229 21.7995 27.4686 22.1537 26.8487 22.4194C23.8376 23.9249 20.9151 25.4305 17.9041 26.936C17.2841 27.3788 16.7528 27.733 16.0443 27.9102ZM16.4871 21.3567C16.4871 22.8622 16.4871 24.3677 16.4871 25.7847C16.4871 26.0504 16.4871 26.0504 16.7528 25.9618C19.941 24.3677 23.1292 22.7736 26.2288 21.1795C26.4059 21.091 26.4945 20.9138 26.4945 20.6482C26.4945 17.7257 26.4945 14.8031 26.4945 11.8806C26.4945 11.615 26.4945 11.615 26.2288 11.7035C25.0775 12.3234 23.8376 12.8548 22.6863 13.4747C22.5092 13.5633 22.4207 13.7404 22.4207 13.9175C22.4207 14.8031 22.4207 15.7773 22.4207 16.6629C22.4207 17.1057 22.155 17.3714 21.7122 17.3714C21.3579 17.3714 21.0037 17.1057 20.9151 16.7515C20.9151 16.6629 20.9151 16.4858 20.9151 16.3972C20.9151 15.7773 20.9151 15.2459 20.9151 14.626C20.9151 14.3603 20.9151 14.3603 20.6494 14.4489C19.321 15.0688 17.9926 15.7773 16.6642 16.3972C16.4871 16.4858 16.3985 16.5744 16.3985 16.84C16.4871 18.4341 16.4871 19.9397 16.4871 21.3567ZM14.9815 21.3567C14.9815 19.8511 14.9815 18.4341 14.9815 16.9286C14.9815 16.6629 14.893 16.5744 14.7159 16.4858C11.7048 14.8917 8.69373 13.3862 5.68266 11.7921C5.41697 11.7035 5.41697 11.7035 5.41697 11.9692C5.41697 14.8917 5.41697 17.8142 5.41697 20.6482C5.41697 20.9138 5.50554 21.091 5.77122 21.1795C8.78229 22.7736 11.7934 24.3677 14.7159 25.9618C14.9816 26.0504 14.9815 26.0504 14.9815 25.7847C14.9815 24.3677 14.9815 22.8622 14.9815 21.3567ZM20.2066 13.1205C20.1181 13.1205 20.1181 13.0319 20.0295 13.0319C17.0185 11.4378 13.9188 9.84374 10.9077 8.24964C10.7306 8.16108 10.6421 8.16108 10.4649 8.24964C9.13653 8.95813 7.80812 9.66661 6.4797 10.3751C6.39114 10.3751 6.30258 10.3751 6.30258 10.4637C6.30258 10.5522 6.39114 10.5522 6.4797 10.5522C9.49077 12.1463 12.5018 13.7404 15.5129 15.3345C15.69 15.4231 15.7786 15.4231 15.8672 15.3345C16.4871 14.9803 17.1956 14.7146 17.8155 14.3603C18.524 14.0061 19.2325 13.6519 20.0295 13.2976C20.1181 13.209 20.2066 13.209 20.2066 13.1205ZM15.7786 5.41569C15.69 5.41569 15.6015 5.41569 15.6015 5.50425C14.5387 6.03562 13.5646 6.56698 12.5904 7.09835C12.5018 7.09835 12.4133 7.09835 12.5018 7.18691C12.5018 7.27547 12.5904 7.27547 12.679 7.27547C13.1218 7.54115 13.5646 7.80684 14.0959 7.98396C16.6642 9.31237 19.2325 10.7293 21.8893 12.0578C22.0664 12.1463 22.155 12.1463 22.3321 12.0578C23.2177 11.7035 24.369 11.0836 25.4317 10.5522C25.5203 10.5522 25.6089 10.5522 25.6089 10.4637C25.6089 10.3751 25.5203 10.3751 25.4317 10.3751C22.2435 8.781 19.1439 7.18691 15.9557 5.59281C15.9557 5.50425 15.8672 5.50425 15.7786 5.41569Z" fill="#181C32"/>
</g>
<defs>
<clipPath id="clip0_4395_18198">
<rect width="24" height="23.9114" fill="white" transform="translate(4 4)"/>
</clipPath>
</defs>
</svg>
