<svg width="32" height="32" viewBox="0 0 32 32" fill="none" xmlns="http://www.w3.org/2000/svg">
<g clip-path="url(#clip0_4395_18209)">
<path d="M4 18.4328C4.08541 18.1766 4.25623 18.0912 4.51246 17.9203C6.04982 17.0662 7.58719 16.1267 9.12455 15.2726C9.46619 15.1018 9.80783 15.1018 10.1495 15.2726C11.6014 16.1267 13.0534 16.9808 14.5053 17.8349C14.5907 17.9203 14.6762 17.9203 14.7616 18.0057C15.1032 18.1766 15.1886 18.4328 15.1886 18.7744C15.1886 20.568 15.1886 22.3616 15.1886 24.2406C15.1886 24.5823 15.0178 24.8385 14.7616 25.0093C13.2242 25.8634 11.6868 26.7175 10.2349 27.657C9.80783 27.9132 9.46619 27.9132 9.03915 27.657C7.50178 26.8029 6.04982 25.8634 4.51246 25.0093C4.25623 24.8385 4.08541 24.7531 4 24.4968C4 22.447 4 20.4826 4 18.4328ZM8.86833 23.8136C8.86833 23.2157 8.86833 22.6178 8.86833 22.1054C8.86833 21.9346 8.78292 21.8492 8.6121 21.7637C7.58719 21.1659 6.64769 20.6534 5.62278 20.0556C5.36655 19.9702 5.36655 19.9702 5.36655 20.141C5.36655 21.3367 5.36655 22.447 5.36655 23.6428C5.36655 23.8136 5.45196 23.899 5.62278 23.9844C6.64769 24.5823 7.6726 25.1801 8.6121 25.6926C8.78292 25.778 8.78292 25.778 8.78292 25.6072C8.86833 25.0093 8.86833 24.4114 8.86833 23.8136ZM9.63701 20.568C9.72242 20.568 9.80783 20.4826 9.80783 20.4826C10.8327 19.8847 11.7722 19.3723 12.7972 18.7744C13.0534 18.6036 13.0534 18.6036 12.7972 18.5182C11.7722 17.9203 10.8327 17.4079 9.80783 16.81C9.63701 16.7246 9.46619 16.7246 9.29537 16.81C8.27046 17.4079 7.33096 18.0057 6.30605 18.5182C6.13523 18.6036 6.13523 18.689 6.30605 18.7744C7.33096 19.3723 8.35587 19.9702 9.38078 20.4826C9.46619 20.568 9.5516 20.568 9.63701 20.568ZM10.3203 23.8136C10.3203 24.4114 10.3203 25.0093 10.3203 25.6072C10.3203 25.778 10.3203 25.778 10.4911 25.6926C11.516 25.0947 12.5409 24.4968 13.5658 23.899C13.7367 23.8136 13.7367 23.7282 13.7367 23.5573C13.7367 22.3616 13.7367 21.2513 13.7367 20.0556C13.7367 19.8847 13.7367 19.7993 13.5658 19.9702C12.5409 20.568 11.6014 21.1659 10.5765 21.6783C10.4057 21.7637 10.4057 21.8492 10.4057 22.02C10.3203 22.7033 10.3203 23.3011 10.3203 23.8136Z" fill="#181C32"/>
<path d="M4 11.6023C4.17082 11.2607 4.42705 11.0898 4.85409 11.0898C6.04982 11.0898 7.16014 11.0898 8.35587 11.0898C8.95374 11.0898 9.20996 11.4315 9.20996 11.8585C9.12456 12.2856 8.86833 12.5418 8.44128 12.5418C7.50178 12.5418 6.64769 12.5418 5.70819 12.5418C5.45196 12.5418 5.36655 12.6272 5.45196 12.8834C5.45196 13.7375 5.45196 14.5916 5.45196 15.4457C5.45196 15.9582 5.28114 16.2144 4.9395 16.2998C4.59786 16.3852 4.25623 16.2144 4.08541 15.8728C4 14.4208 4 12.9688 4 11.6023Z" fill="#181C32"/>
<path d="M10.4062 10.4054C10.4062 9.46593 10.4062 8.61184 10.4062 7.67233C10.4062 7.3307 10.5771 6.98906 10.9187 6.81824C12.4561 5.87874 14.0788 5.02465 15.6162 4.08515C15.8724 3.91433 16.2141 3.91433 16.4703 4.08515C18.0931 5.02465 19.6305 5.96415 21.2532 6.81824C21.5095 6.98906 21.6803 7.24529 21.6803 7.58692C21.6803 9.38052 21.6803 11.2595 21.6803 13.0531C21.6803 13.3948 21.5095 13.651 21.2532 13.8218C19.6305 14.7613 18.0931 15.6154 16.4703 16.5549C16.1287 16.7257 15.8724 16.7257 15.6162 16.5549C14.0788 15.6154 12.4561 14.7613 10.9187 13.8218C10.5771 13.651 10.4062 13.3948 10.4062 12.9677C10.4062 12.199 10.4062 11.2595 10.4062 10.4054ZM15.2746 12.7969C15.2746 12.199 15.2746 11.6012 15.2746 11.0033C15.2746 10.9179 15.2746 10.7471 15.1892 10.7471C14.1643 10.1492 13.0539 9.55134 12.029 8.95347C11.8582 8.86806 11.8582 8.95347 11.8582 9.03888C11.8582 10.2346 11.8582 11.4303 11.8582 12.6261C11.8582 12.7115 11.8582 12.7969 12.029 12.8823C13.0539 13.4802 14.1643 14.078 15.1892 14.6759C15.36 14.7613 15.36 14.6759 15.36 14.5905C15.2746 13.9926 15.2746 13.3948 15.2746 12.7969ZM16.7265 12.7969C16.7265 13.3093 16.7265 13.9072 16.7265 14.4197C16.7265 14.7613 16.7265 14.7613 16.9828 14.5905C18.0077 13.9926 18.9472 13.4802 19.9721 12.8823C20.1429 12.7969 20.1429 12.7115 20.1429 12.5407C20.1429 11.4303 20.1429 10.2346 20.1429 9.12429C20.1429 8.86806 20.1429 8.86806 19.8867 8.95347C18.8618 9.55134 17.8369 10.1492 16.8974 10.6617C16.7265 10.7471 16.7265 10.8325 16.7265 11.0033C16.7265 11.6012 16.7265 12.199 16.7265 12.7969ZM15.9579 9.55134C16.0433 9.55134 16.0433 9.46593 16.1287 9.46593C17.1536 8.86806 18.1785 8.2702 19.2034 7.67233C19.4596 7.50152 19.4596 7.50152 19.2034 7.41611C18.1785 6.81824 17.1536 6.22038 16.2141 5.70792C16.1287 5.62251 15.9579 5.62251 15.8724 5.70792C14.8475 6.30579 13.8226 6.90365 12.7977 7.50152C12.5415 7.67233 12.5415 7.67233 12.7977 7.75774C13.8226 8.35561 14.8475 8.95347 15.8724 9.55134C15.8724 9.46593 15.9579 9.46593 15.9579 9.55134Z" fill="#181C32"/>
<path d="M28.0006 21.5075C28.0006 22.447 28.0006 23.3011 28.0006 24.2406C28.0006 24.5823 27.8298 24.8385 27.5735 25.0093C25.9508 25.9488 24.4134 26.8029 22.7906 27.7424C22.5344 27.9132 22.1928 27.9132 21.9365 27.7424C20.3138 26.8029 18.7764 25.8634 17.1536 25.0093C16.8974 24.8385 16.7266 24.6677 16.7266 24.326C16.7266 22.447 16.7266 20.568 16.7266 18.7744C16.7266 18.4328 16.8974 18.1766 17.1536 18.0057C18.6056 17.1516 20.0575 16.383 21.5095 15.5289C22.3636 15.0164 22.3636 15.0164 23.2177 15.5289C24.6696 16.383 26.0362 17.1516 27.4881 18.0057C27.8298 18.1766 28.0006 18.4328 28.0006 18.8598C28.0006 19.7139 28.0006 20.568 28.0006 21.5075ZM26.5486 21.9346C26.5486 21.3367 26.5486 20.7388 26.5486 20.141C26.5486 19.9702 26.5486 19.8847 26.3778 19.9702C25.3529 20.568 24.328 21.1659 23.3031 21.7637C23.1323 21.8492 23.1323 21.9346 23.1323 22.1054C23.1323 23.3011 23.1323 24.4114 23.1323 25.6072C23.1323 25.778 23.1323 25.8634 23.3031 25.778C24.328 25.1801 25.3529 24.5823 26.3778 23.9844C26.5486 23.899 26.5486 23.8136 26.5486 23.6428C26.5486 23.0449 26.5486 22.447 26.5486 21.9346ZM22.3636 16.6392C22.2782 16.6392 22.1928 16.7246 22.1928 16.7246C21.1678 17.3225 20.1429 17.9203 19.2034 18.4328C19.0326 18.5182 19.0326 18.6036 19.2034 18.689C20.2283 19.2869 21.2533 19.8847 22.2782 20.4826C22.3636 20.568 22.5344 20.568 22.6198 20.4826C23.6447 19.8847 24.6696 19.2869 25.6945 18.689C25.8654 18.6036 25.8654 18.5182 25.6945 18.4328C24.6696 17.8349 23.6447 17.2371 22.6198 16.6392C22.5344 16.7246 22.449 16.7246 22.3636 16.6392ZM21.6803 23.8136C21.6803 23.2157 21.6803 22.6178 21.6803 22.1054C21.6803 21.9346 21.5949 21.8492 21.4241 21.7637C20.3992 21.1659 19.4597 20.6534 18.4347 20.0556C18.2639 19.9702 18.1785 19.9702 18.1785 20.141C18.1785 21.3367 18.1785 22.447 18.1785 23.6428C18.1785 23.8136 18.2639 23.899 18.3493 23.9844C19.3742 24.5823 20.3138 25.0947 21.3387 25.6926C21.5095 25.778 21.5095 25.6926 21.5095 25.5218C21.6803 25.0093 21.6803 24.4114 21.6803 23.8136Z" fill="#181C32"/>
<path d="M28.0009 13.7381C28.0009 14.3359 28.0009 14.8484 28.0009 15.4462C28.0009 16.0441 27.7447 16.3857 27.3176 16.3857C26.8906 16.3857 26.6344 16.0441 26.6344 15.5317C26.6344 14.6776 26.6344 13.8235 26.6344 12.9694C26.6344 12.6277 26.6344 12.6277 26.2927 12.6277C25.4386 12.6277 24.4991 12.6277 23.645 12.6277C23.1326 12.6277 22.791 12.2007 22.8764 11.7736C22.9618 11.5174 23.1326 11.3466 23.3888 11.2612C23.4742 11.2612 23.645 11.1758 23.7305 11.1758C24.9262 11.1758 26.1219 11.1758 27.2322 11.1758C27.3176 11.1758 27.4031 11.1758 27.4031 11.1758C27.8301 11.2612 28.0009 11.5174 28.0009 11.9445C28.0009 12.4569 28.0009 13.0548 28.0009 13.7381Z" fill="#181C32"/>
</g>
<defs>
<clipPath id="clip0_4395_18209">
<rect width="24" height="23.8292" fill="white" transform="translate(4 4)"/>
</clipPath>
</defs>
</svg>
