<svg width="32" height="24" viewBox="0 0 32 24" fill="none" xmlns="http://www.w3.org/2000/svg">
<g clip-path="url(#clip0_4099_5616)">
<path d="M0.190357 16.6661C0.33279 15.7403 0.617657 14.8144 1.11617 14.0311C2.25564 12.2506 3.89362 11.2536 6.03012 11.04C6.3862 10.9688 6.8135 10.9688 7.16959 10.9688C13.0093 10.9688 18.8491 10.9688 24.7601 10.9688C26.3981 10.9688 27.8224 11.3248 29.1755 12.3219C31.2408 13.8886 32.2378 16.5236 31.5969 19.0874C30.9559 21.58 28.8194 23.5029 26.2556 23.9302C25.8996 24.0014 25.5435 24.0014 25.1162 24.0014C18.9915 24.0014 12.8669 24.0014 6.74229 24.0014C3.39511 24.0014 0.76009 21.7937 0.190357 18.4465C0.190357 18.3753 0.190357 18.3753 0.119141 18.3041C0.190357 17.7343 0.190357 17.2358 0.190357 16.6661ZM16.0004 22.0785C19.134 22.0785 22.3387 22.0785 25.4723 22.0785C28.2497 22.0785 30.3862 19.3723 29.8165 16.6661C29.3892 14.3871 27.5375 12.8916 25.2586 12.8916C19.0628 12.8916 12.9381 12.8916 6.74229 12.8916C6.45742 12.8916 6.24377 12.8916 5.9589 12.9628C3.46632 13.3189 1.68591 15.8115 2.11321 18.3041C2.61172 20.583 4.39214 22.0785 6.74229 22.0785C9.8046 22.0785 12.8669 22.0785 16.0004 22.0785Z" fill="#181C32"/>
<path d="M24.2616 5.55535C24.1191 5.48413 23.9767 5.48413 23.9055 5.48413C21.5553 5.48413 19.2052 5.48413 16.855 5.48413C16.4277 5.48413 16.4277 5.48413 16.4277 5.05683C16.4277 4.70075 16.4277 4.34467 16.4277 3.91737C16.4277 3.6325 16.499 3.56128 16.855 3.56128C18.8491 3.56128 20.9144 3.56128 22.9084 3.56128C23.3357 3.56128 23.8343 3.56128 24.2616 3.56128C24.2616 3.41885 24.1191 3.34763 24.0479 3.27642C23.407 2.63547 22.8372 2.06573 22.1963 1.42478C22.0538 1.28235 22.0538 1.13992 22.1963 0.997485C22.5524 0.712618 22.8372 0.356535 23.1221 0.0716687C23.2645 -0.0707646 23.3357 -0.0707646 23.4782 0.0716687C24.9025 1.496 26.3268 2.92033 27.7512 4.34467C27.8936 4.4871 27.8936 4.55832 27.7512 4.70075C26.3268 6.12508 24.9025 7.54941 23.4782 8.97375C23.3357 9.11618 23.2645 9.11618 23.1221 8.97375C22.766 8.61766 22.4811 8.3328 22.1251 7.97671C21.9826 7.83428 21.9826 7.69185 22.1251 7.54941C22.766 6.97968 23.3357 6.33873 23.9055 5.769C24.0479 5.69778 24.1191 5.62656 24.2616 5.55535Z" fill="#181C32"/>
<path d="M5.31731 4.48832C5.31731 4.27467 5.31731 4.06102 5.31731 3.84737C5.31731 3.63372 5.38853 3.5625 5.53096 3.5625C6.02948 3.5625 6.45678 3.5625 6.95529 3.5625C7.09773 3.5625 7.24016 3.63372 7.24016 3.84737C7.24016 4.34588 7.24016 4.77318 7.24016 5.2717C7.24016 5.41413 7.16894 5.55657 6.95529 5.55657C6.45678 5.55657 6.02948 5.55657 5.53096 5.55657C5.31731 5.55657 5.24609 5.48535 5.24609 5.2717C5.31731 4.98683 5.31731 4.77318 5.31731 4.48832Z" fill="#181C32"/>
<path d="M9.94625 5.48235C9.7326 5.48235 9.44773 5.48235 9.23408 5.48235C9.02044 5.48235 8.94922 5.41113 8.94922 5.19748C8.94922 4.69896 8.94922 4.27166 8.94922 3.77315C8.94922 3.5595 9.02044 3.48828 9.23408 3.48828C9.7326 3.48828 10.1599 3.48828 10.6584 3.48828C10.8721 3.48828 10.9433 3.5595 10.9433 3.77315C10.9433 4.20045 10.9433 4.69896 10.9433 5.12626C10.9433 5.33991 10.8721 5.41113 10.6584 5.41113C10.4448 5.48235 10.1599 5.48235 9.94625 5.48235Z" fill="#181C32"/>
<path d="M13.6504 5.48444C13.4368 5.48444 13.2231 5.48444 13.0095 5.48444C12.867 5.48444 12.7246 5.41323 12.7246 5.27079C12.7246 4.77228 12.7246 4.27376 12.7246 3.84646C12.7246 3.70403 12.7958 3.63281 12.9383 3.63281C13.4368 3.63281 13.9353 3.63281 14.3626 3.63281C14.505 3.63281 14.5762 3.70403 14.5762 3.84646C14.5762 4.34498 14.5762 4.8435 14.5762 5.27079C14.5762 5.41323 14.505 5.48444 14.3626 5.48444C14.1489 5.48444 13.8641 5.48444 13.6504 5.48444Z" fill="#181C32"/>
<path d="M13.4357 20.298C11.228 20.298 8.94907 20.298 6.74136 20.298C5.38824 20.298 4.24878 19.3722 3.96391 18.1615C3.53661 16.3811 4.88973 14.7431 6.81258 14.6719C9.09151 14.6719 11.3704 14.6719 13.6494 14.6719C15.8571 14.6719 18.0648 14.6719 20.2725 14.6719C20.6998 14.6719 20.6998 14.6719 20.6998 15.0992C20.6998 16.6659 20.6998 18.3039 20.6998 19.8707C20.6998 20.298 20.6998 20.298 20.2725 20.298C17.9224 20.298 15.6434 20.298 13.4357 20.298ZM12.5099 18.3751C12.7948 18.3751 13.1509 18.3751 13.4357 18.3751C15.0737 18.3751 16.7117 18.3751 18.3497 18.3751C18.6345 18.3751 18.7058 18.3039 18.7058 18.0191C18.7058 17.663 18.7058 17.3781 18.7058 17.022C18.7058 16.5947 18.7058 16.5947 18.2785 16.5947C14.504 16.5947 10.6583 16.5947 6.88379 16.5947C6.81258 16.5947 6.67014 16.5947 6.59893 16.5947C6.02919 16.6659 5.67311 17.2357 5.81554 17.7342C5.95798 18.1615 6.24284 18.3751 6.74136 18.3751C8.66421 18.3751 10.5871 18.3751 12.5099 18.3751Z" fill="#181C32"/>
</g>
<defs>
<clipPath id="clip0_4099_5616">
<rect width="31.6202" height="24" fill="white" transform="translate(0.189453)"/>
</clipPath>
</defs>
</svg>
