<svg width="32" height="32" viewBox="0 0 32 32" fill="none" xmlns="http://www.w3.org/2000/svg">
<g clip-path="url(#clip0_4395_18576)">
<path d="M3 9.12977C3 6.32061 5.32061 4 8.19084 4C11.0611 4 13.3206 6.32061 13.3206 9.25191C13.3206 12.0611 10.9389 14.3817 8.12977 14.3817C5.32061 14.3206 3 12 3 9.12977ZM8.12977 6.1374C6.41985 6.1374 5.07634 7.48092 5.07634 9.19084C5.07634 11.145 6.66412 12.2443 8.12977 12.2443C9.77863 12.2443 11.1832 10.8397 11.1832 9.19084C11.1832 7.48092 9.83969 6.1374 8.12977 6.1374Z" fill="#181C32"/>
<path d="M3 22.8705C3 20.0003 5.32061 17.6797 8.12977 17.6797C11 17.6797 13.3206 20.0003 13.2595 22.9316C13.2595 25.7408 10.9389 28.0614 8.0687 28.0614C5.32061 28.0003 3 25.6797 3 22.8705ZM8.19084 25.8629C9.90076 25.8629 11.2443 24.5194 11.2443 22.8095C11.2443 21.1606 9.83969 19.756 8.19084 19.756C6.54198 19.756 5.1374 21.0995 5.1374 22.8095C5.1374 24.7026 6.66412 25.924 8.19084 25.8629Z" fill="#181C32"/>
<path d="M23.2147 23.9094C21.3826 23.9094 19.6116 23.9094 17.7796 23.9094C17.3521 23.9094 16.9857 23.7262 16.8025 23.2987C16.6193 22.9323 16.6193 22.5659 16.8635 22.1995C17.1078 21.8331 17.4742 21.772 17.8406 21.7109C18.2681 21.7109 18.6345 21.7109 19.062 21.7109C22.1765 21.7109 25.291 21.7109 28.3445 21.7109C28.4666 21.7109 28.6498 21.7109 28.7719 21.7109C29.3826 21.8331 29.749 22.2606 29.688 22.8712C29.6269 23.4209 29.1994 23.7873 28.6498 23.8483C27.917 23.8483 27.1841 23.8483 26.4513 23.8483C25.3521 23.9094 24.3139 23.9094 23.2147 23.9094Z" fill="#181C32"/>
<path d="M23.2128 8.08984C24.9838 8.08984 26.8159 8.08984 28.5869 8.08984C29.3197 8.08984 29.7472 8.57839 29.6861 9.25015C29.6861 9.67763 29.3808 10.044 28.9533 10.1662C28.7701 10.2272 28.648 10.2272 28.4647 10.2272C24.9838 10.2272 21.5029 10.2272 17.9609 10.2272C17.8388 10.2272 17.7167 10.2272 17.5945 10.2272C16.9838 10.1051 16.6174 9.67763 16.6785 9.12801C16.7396 8.57839 17.167 8.15091 17.7777 8.15091C18.2052 8.15091 18.6327 8.15091 18.9991 8.15091C20.4037 8.08984 21.8083 8.08984 23.2128 8.08984Z" fill="#181C32"/>
<path d="M8.12919 7.78516C8.92308 7.78516 9.53377 8.39584 9.53377 9.18974C9.53377 9.92256 8.86201 10.5943 8.12919 10.5943C7.39636 10.5943 6.72461 9.92256 6.72461 9.18974C6.72461 8.39584 7.39636 7.78516 8.12919 7.78516Z" fill="#181C32"/>
</g>
<defs>
<clipPath id="clip0_4395_18576">
<rect width="26.7481" height="24" fill="white" transform="translate(3 4)"/>
</clipPath>
</defs>
</svg>
