<svg width="32" height="32" viewBox="0 0 32 32" fill="none" xmlns="http://www.w3.org/2000/svg">
<g clip-path="url(#clip0_4395_18267)">
<path d="M26.8247 27.9998C26.6288 27.9019 26.4329 27.7059 26.237 27.51C24.4737 25.7467 22.6125 23.8855 20.8492 22.1223C20.6533 21.9263 20.6533 21.9263 20.3594 22.1223C18.988 23.1998 17.4207 23.8855 15.7554 24.0814C13.0125 24.4733 10.4656 23.8855 8.2125 22.3182C6.25332 20.8488 4.97985 19.0855 4.39209 16.7345C3.60842 13.6978 4.09822 10.857 5.95944 8.21206C7.42883 6.15492 9.48597 4.78349 12.0329 4.19573C14.9717 3.60798 17.7145 4.09777 20.1635 5.959C22.4166 7.6243 23.788 9.7794 24.1798 12.5223C24.5717 15.3631 23.9839 17.91 22.3186 20.1631C22.0247 20.6529 22.0247 20.457 22.3186 20.8488C24.0819 22.6121 25.8452 24.3753 27.6084 26.1386C27.8043 26.3345 28.0003 26.5304 28.0982 26.7263C28.0982 27.1182 28.0982 27.4121 28.0982 27.8039C28.0982 27.9019 28.0982 27.9019 28.0003 27.9019C27.5105 27.9998 27.1186 27.9998 26.8247 27.9998ZM5.95944 14.0896C5.95944 18.5957 9.58393 22.3182 14.188 22.3182C18.6941 22.3182 22.4166 18.6937 22.4166 14.1876C22.3186 9.58349 18.6941 5.959 14.0901 5.959C9.58393 5.959 5.95944 9.58349 5.95944 14.0896Z" fill="#181C32"/>
</g>
<defs>
<clipPath id="clip0_4395_18267">
<rect width="24" height="24" fill="white" transform="translate(4 4)"/>
</clipPath>
</defs>
</svg>
