<svg width="32" height="32" viewBox="0 0 32 32" fill="none" xmlns="http://www.w3.org/2000/svg">
<g clip-path="url(#clip0_4395_18281)">
<path d="M28.5917 13.3061C28.4692 13.6735 28.3468 14.1633 27.9794 14.4082C27.4896 14.898 26.8774 15.1429 26.2651 15.1429C21.4896 15.1429 16.7141 15.1429 11.8162 15.1429C10.4692 15.1429 9.36719 14.1633 9.36719 12.8163C9.36719 10.6122 9.36719 8.53061 9.36719 6.32653C9.36719 4.97959 10.4692 4 11.8162 4C16.5917 4 21.3672 4 26.1427 4C27.3672 4 28.3468 4.85714 28.5917 5.83673V5.95918C28.5917 8.40816 28.5917 10.8571 28.5917 13.3061ZM19.0407 13.6735C21.3672 13.6735 23.8162 13.6735 26.1427 13.6735C26.7549 13.6735 27.1223 13.3061 27.1223 12.6939C27.1223 12.2041 27.1223 11.7143 27.1223 11.2245C27.1223 9.63265 27.1223 8.16327 27.1223 6.57143C27.1223 5.95918 26.7549 5.59184 26.1427 5.59184H26.0202C21.3672 5.59184 16.7141 5.59184 12.1835 5.59184C12.0611 5.59184 11.9386 5.59184 11.8162 5.59184C11.2039 5.59184 10.959 5.95918 10.959 6.44898C10.959 8.53061 10.959 10.6122 10.959 12.8163C10.959 13.1837 11.2039 13.551 11.4488 13.6735C11.5713 13.6735 11.8162 13.6735 11.9386 13.6735C14.2651 13.6735 16.7141 13.6735 19.0407 13.6735Z" fill="#181C32"/>
<path d="M28.5917 26.0405C28.4692 26.5303 28.2243 27.0201 27.857 27.265C27.3672 27.6323 26.8774 27.8772 26.2651 27.8772C21.3672 27.8772 16.5917 27.8772 11.6937 27.8772C10.4692 27.8772 9.36719 26.8976 9.36719 25.5507C9.36719 23.3466 9.36719 21.265 9.36719 19.0609C9.36719 17.714 10.4692 16.7344 11.8162 16.7344C16.5917 16.7344 21.3672 16.7344 26.1427 16.7344C27.3672 16.7344 28.2243 17.3466 28.5917 18.4487V18.5711C28.5917 21.1425 28.5917 23.5915 28.5917 26.0405ZM19.0407 18.4487C16.7141 18.4487 14.3876 18.4487 12.0611 18.4487C11.3264 18.4487 11.0815 18.6936 11.0815 19.4283C11.0815 21.5099 11.0815 23.4691 11.0815 25.5507C11.0815 26.2854 11.4488 26.5303 12.0611 26.5303C16.7141 26.5303 21.3672 26.5303 26.1427 26.5303C26.8774 26.5303 27.2447 26.1629 27.2447 25.4283C27.2447 23.4691 27.2447 21.3874 27.2447 19.4283C27.2447 18.6936 26.9998 18.4487 26.2651 18.4487C23.6937 18.4487 21.3672 18.4487 19.0407 18.4487Z" fill="#181C32"/>
<path d="M5.69452 24.4503C6.06186 24.4503 6.30676 24.4503 6.67411 24.4503C6.79656 24.4503 6.919 24.4503 7.1639 24.4503C7.53125 24.5727 7.77615 24.8176 7.77615 25.3074C7.77615 25.6747 7.53125 26.0421 7.04145 26.0421C5.93941 26.0421 4.83737 26.0421 3.73533 26.0421C3.49043 26.0421 3.24554 25.9196 3.12309 25.5523C3.00064 25.3074 3.00064 25.0625 3.12309 24.8176C3.24554 24.6952 3.36798 24.4503 3.61288 24.3278C4.34758 23.5931 5.08227 22.8584 5.69452 22.2462C5.93941 22.0013 6.06186 21.7564 6.18431 21.5115C6.30676 21.0217 6.06186 20.5319 5.57207 20.5319C5.08227 20.4094 4.71492 20.6543 4.59247 21.1441C4.59247 21.2666 4.59247 21.2666 4.59247 21.389C4.59247 21.7564 4.22513 22.1237 3.85778 22.1237C3.36798 22.1237 3.12309 21.7564 3.12309 21.389C3.12309 20.1645 4.10268 19.0625 5.44962 19.0625C6.67411 19.0625 7.77615 19.7972 7.8986 21.1441C8.02105 22.0013 7.77615 22.736 7.1639 23.3482C6.55166 23.5931 6.18431 23.9605 5.69452 24.4503Z" fill="#181C32"/>
<path d="M4.59184 8.77726C4.46939 8.77726 4.34694 8.89971 4.22449 9.02216C3.97959 9.26706 3.4898 9.26706 3.2449 8.89971C3 8.65482 3 8.16502 3.2449 7.79767C3.73469 7.30788 4.22449 6.81808 4.83673 6.20584C5.08163 5.96094 5.32653 5.96094 5.69388 5.96094C5.93878 6.20584 6.06122 6.45073 6.18367 6.69563C6.18367 6.81808 6.18367 6.94053 6.18367 7.06298C6.18367 8.40992 6.18367 9.75686 6.18367 11.2262C6.18367 11.4711 6.30612 11.5936 6.55102 11.5936C6.79592 11.5936 6.91837 11.5936 7.16327 11.5936C7.65306 11.716 7.89796 11.9609 7.77551 12.4507C7.77551 12.8181 7.40816 13.1854 7.04082 13.1854C6.67347 13.1854 6.18367 13.1854 5.81633 13.1854C5.20408 13.1854 4.46939 13.1854 3.85714 13.1854C3.36735 13.1854 3 12.9405 3 12.4507C3 11.9609 3.2449 11.716 3.61224 11.5936C3.73469 11.5936 3.97959 11.5936 4.10204 11.5936C4.59184 11.5936 4.59184 11.5936 4.59184 11.1038C4.59184 10.3691 4.59184 9.63441 4.59184 8.89971V8.77726Z" fill="#181C32"/>
<path d="M19.0412 7.18359C20.8779 7.18359 22.7146 7.18359 24.5514 7.18359C25.0412 7.18359 25.2861 7.30604 25.4085 7.67339C25.531 8.16319 25.2861 8.53053 24.7963 8.65298C24.6738 8.65298 24.5514 8.65298 24.4289 8.65298C20.8779 8.65298 17.2044 8.65298 13.6534 8.65298C13.531 8.65298 13.4085 8.65298 13.2861 8.65298C12.7963 8.65298 12.6738 8.40808 12.6738 7.91829C12.6738 7.55094 12.9187 7.30604 13.2861 7.18359C13.4085 7.18359 13.531 7.18359 13.531 7.18359C15.3677 7.18359 17.2044 7.18359 19.0412 7.18359Z" fill="#181C32"/>
<path d="M17.4493 11.959C16.1024 11.959 14.8779 11.959 13.531 11.959C12.9187 11.959 12.6738 11.5917 12.6738 11.1019C12.6738 10.7345 12.9187 10.4896 13.2861 10.3672C13.4085 10.3672 13.531 10.3672 13.6534 10.3672C16.1024 10.3672 18.6738 10.3672 21.1228 10.3672C21.2453 10.3672 21.3677 10.3672 21.4902 10.3672C21.8575 10.4896 22.2248 10.7345 22.1024 11.1019C22.1024 11.4692 21.7351 11.8366 21.3677 11.8366C21.2453 11.8366 21.1228 11.8366 21.0004 11.8366C19.8983 11.959 18.6738 11.959 17.4493 11.959Z" fill="#181C32"/>
<path d="M19.0412 20.0391C20.8779 20.0391 22.7146 20.0391 24.5514 20.0391C24.9187 20.0391 25.1636 20.1615 25.4085 20.5289C25.6534 21.0187 25.4085 21.5084 24.9187 21.6309C24.7963 21.6309 24.6738 21.6309 24.5514 21.6309C20.8779 21.6309 17.3269 21.6309 13.6534 21.6309C13.0412 21.6309 12.6738 21.386 12.6738 20.7738C12.6738 20.284 13.0412 20.0391 13.531 20.0391C14.1432 20.0391 14.633 20.0391 15.2453 20.0391C16.4697 20.0391 17.6942 20.0391 19.0412 20.0391Z" fill="#181C32"/>
<path d="M17.4493 24.817C16.1024 24.817 14.8779 24.817 13.531 24.817C12.9187 24.817 12.6738 24.4497 12.6738 23.9599C12.6738 23.5926 12.9187 23.3477 13.1636 23.3477C13.2861 23.3477 13.4085 23.3477 13.6534 23.3477C16.2248 23.3477 18.6738 23.3477 21.2453 23.3477C21.3677 23.3477 21.4902 23.3477 21.6126 23.3477C21.9799 23.4701 22.3473 23.715 22.2248 24.2048C22.2248 24.5721 21.8575 24.9395 21.4902 24.9395C21.3677 24.9395 21.3677 24.9395 21.2453 24.9395C19.8983 24.817 18.6738 24.817 17.4493 24.817Z" fill="#181C32"/>
</g>
<defs>
<clipPath id="clip0_4395_18281">
<rect width="25.5918" height="24" fill="white" transform="translate(3 4)"/>
</clipPath>
</defs>
</svg>
