<svg width="32" height="32" viewBox="0 0 32 32" fill="none" xmlns="http://www.w3.org/2000/svg">
<g clip-path="url(#clip0_4395_18596)">
<path d="M32 22.3976C31.8222 23.4819 31.2889 24.1325 30.5778 24.7831C30.2222 25 29.8667 25 29.5111 25C20.6222 25 11.7333 25 2.66667 25C1.24444 25 0 23.4819 0 21.747C0 17.8434 0 14.1566 0 10.253C0 8.51807 1.24444 7 2.48889 7C2.66667 7 2.84444 7 3.02222 7C11.5556 7 20.2667 7 28.8 7C30.4 7 31.4667 7.86747 32 9.60241C32 13.9398 32 18.0602 32 22.3976ZM10.4889 23.2651C12.9778 23.2651 15.6444 23.2651 18.1333 23.2651C18.6667 23.2651 18.6667 23.2651 18.6667 22.6145C18.6667 18.0602 18.6667 13.7229 18.6667 9.16867C18.6667 8.51807 18.6667 8.51807 18.3111 8.51807C13.1556 8.51807 8.17778 8.51807 3.02222 8.51807C2.31111 8.51807 1.6 9.16867 1.6 10.253C1.6 13.9398 1.6 17.6265 1.6 21.3133C1.6 22.3976 2.13333 23.0482 3.02222 23.0482C5.33333 23.2651 8 23.2651 10.4889 23.2651ZM20.0889 15.8916C20.0889 18.0602 20.0889 20.4458 20.0889 22.6145C20.0889 23.0482 20.0889 23.0482 20.4444 23.0482C23.4667 23.0482 26.3111 23.0482 29.3333 23.0482C30.2222 23.0482 30.7556 22.3976 30.7556 21.3133C30.7556 17.6265 30.7556 13.9398 30.7556 10.253C30.7556 9.16867 30.2222 8.51807 29.3333 8.51807C26.4889 8.51807 23.4667 8.51807 20.6222 8.51807C20.2667 8.51807 20.2667 8.51807 20.2667 8.95181C20.0889 11.5542 20.0889 13.7229 20.0889 15.8916Z" fill="#181C32"/>
<path d="M9.42092 16.3237C9.42092 16.9744 9.42092 17.4081 9.42092 18.0587C9.42092 18.2756 9.42092 18.4924 9.5987 18.4924C9.95425 18.7093 10.132 19.143 9.95425 19.3599C9.95425 19.7936 9.5987 20.0105 9.42092 20.0105C8.53203 20.0105 7.64314 20.0105 6.75425 20.0105C5.86536 20.0105 5.33203 19.3599 5.33203 18.4924C5.33203 17.8418 5.33203 17.4081 5.33203 16.7575C5.33203 15.89 5.86536 15.2394 6.57648 15.2394C6.93203 15.2394 7.28759 15.2394 7.64314 15.2394C7.82092 15.2394 7.9987 15.2394 7.9987 14.8057C7.9987 14.5888 7.9987 14.5888 7.9987 14.3719C7.9987 13.9382 7.64314 13.7213 7.28759 13.7213C6.93203 13.5045 6.57648 13.5045 6.04314 13.5045C5.68759 13.5045 5.33203 13.2876 5.33203 12.637C5.33203 12.2033 5.68759 11.7695 6.04314 11.7695C6.3987 11.7695 6.75425 11.7695 7.10981 11.7695C8.35425 11.7695 9.24314 12.8539 9.24314 14.3719C9.42092 15.0225 9.42092 15.6731 9.42092 16.3237ZM7.28759 18.2756C7.9987 18.2756 7.9987 18.2756 7.9987 17.625C7.9987 16.7575 8.17648 16.7575 7.28759 16.7575C6.57648 16.7575 6.57648 16.7575 6.57648 17.625C6.75425 18.4924 6.57648 18.2756 7.28759 18.2756Z" fill="#181C32"/>
<path d="M25.2448 15.2409C25.9559 15.2409 26.8448 15.2409 27.5559 15.2409H27.7337C27.7337 15.4578 27.7337 15.4578 27.5559 15.4578C26.8448 16.3253 25.9559 17.1927 25.2448 18.2771C25.067 18.4939 24.8892 18.4939 24.8892 18.2771C24.1781 17.4096 23.467 16.5421 22.7559 15.4578L22.5781 15.2409C22.5781 15.024 22.7559 15.2409 22.7559 15.2409C23.8226 15.2409 24.5337 15.2409 25.2448 15.2409Z" fill="#181C32"/>
</g>
<defs>
<clipPath id="clip0_4395_18596">
<rect width="32" height="18" fill="white" transform="translate(0 7)"/>
</clipPath>
</defs>
</svg>
