<svg width="32" height="32" viewBox="0 0 32 32" fill="none" xmlns="http://www.w3.org/2000/svg">
<g clip-path="url(#clip0_4395_18611)">
<path d="M30.8605 7.39535C30.8605 6.4186 30.1163 5.5814 29.093 5.39535C28.8605 5.34884 28.5814 5.34884 28.3954 5.34884C28.3023 5.34884 28.2558 5.34884 28.1628 5.34884C28.0698 5.34884 28.0233 5.34884 27.9302 5.34884C27.8837 5.34884 27.7907 5.34884 27.7442 5.34884C27.6047 5.34884 27.5581 5.34884 27.5581 5.25581C27.1395 4.4186 26.4419 4 25.4186 4C23.3256 4 21.2791 4 19.186 4H9.69768C8.53488 4 7.37209 4 6.2093 4C5.4186 4 4.81395 4.32558 4.48837 4.93023C4.30233 5.25581 4.11628 5.34884 3.83721 5.34884C3.7907 5.34884 3.74419 5.34884 3.65116 5.34884C3.60465 5.34884 3.51163 5.34884 3.4186 5.34884C3.32558 5.34884 3.27907 5.34884 3.18605 5.34884H3.13953C2.72093 5.34884 2.39535 5.44186 2.06977 5.62791C1.55814 5.90698 1.23256 6.32558 1 7.02326V18.6512L1.04651 18.7442C1.04651 18.7907 1.09302 18.7907 1.09302 18.8372C1.4186 19.7674 2.16279 20.3256 3.18605 20.3256C3.32558 20.3256 3.51163 20.3256 3.65116 20.3256C3.7907 20.3256 3.97674 20.3256 4.11628 20.3256C4.2093 20.3256 4.25581 20.3721 4.30233 20.4651C4.72093 21.2558 5.4186 21.6744 6.34884 21.6744C7.32558 21.6744 8.25581 21.6744 9.23256 21.6744H13.1395C13.2326 21.6744 13.3256 21.6744 13.3721 21.6744C13.6977 21.6279 13.9302 21.3488 13.9767 20.9767C13.9767 20.6047 13.7442 20.3256 13.3721 20.2791C13.2791 20.2791 13.186 20.2791 13.093 20.2791H6.48837C5.7907 20.2791 5.55814 20.0465 5.55814 19.3488C5.55814 15.0698 5.55814 10.7907 5.55814 6.46512C5.55814 5.76744 5.7907 5.53488 6.48837 5.53488H25.3721C26.1163 5.53488 26.3023 5.76744 26.3023 6.51163C26.3023 10.7907 26.3023 15.0698 26.3023 19.3488C26.3023 20.093 26.0698 20.2791 25.3256 20.2791H18.907H18.7674C18.6744 20.2791 18.6279 20.2791 18.5349 20.2791C18.2093 20.3256 17.9302 20.6512 17.9302 20.9767C17.9302 21.3488 18.1628 21.6279 18.5349 21.6744C18.6279 21.6744 18.6744 21.6744 18.7674 21.6744H22.6279C23.6047 21.6744 24.5349 21.6744 25.5116 21.6744C26.4419 21.6744 27.093 21.2558 27.5116 20.4651C27.5581 20.3721 27.6047 20.3256 27.7442 20.3256C27.8837 20.3256 28.0698 20.3256 28.2093 20.3256C28.3488 20.3256 28.5349 20.3256 28.6744 20.3256C29.8837 20.2791 30.814 19.3953 30.814 18.2791C30.8605 14.7907 30.8605 11.2558 30.8605 7.39535ZM27.9302 18.8372C27.8372 18.8372 27.7907 18.8372 27.7907 18.7907C27.7907 18.7907 27.7442 18.7442 27.7442 18.6047C27.7442 17.8605 27.7442 17.0698 27.7442 16.3256V15.4884V11.3488C27.7442 9.95349 27.7442 8.46512 27.7442 7.02326C27.7442 6.93023 27.7442 6.83721 27.7907 6.7907C27.7907 6.7907 27.8372 6.74419 27.9302 6.74419C27.9302 6.74419 27.9767 6.74419 28.0233 6.74419C28.1163 6.74419 28.1628 6.74419 28.3023 6.74419C28.3488 6.74419 28.4419 6.74419 28.4884 6.74419C28.5349 6.74419 28.6279 6.74419 28.6744 6.74419H28.7209C29.1395 6.74419 29.3721 6.97674 29.4651 7.39535C29.4651 7.48837 29.4651 7.5814 29.4651 7.67442C29.4651 7.67442 29.4651 14.4186 29.4651 17.7674C29.4651 17.907 29.4651 18.093 29.4186 18.2326C29.3256 18.5581 29.1395 18.7442 28.814 18.7442C28.7674 18.7442 28.6744 18.7442 28.6279 18.7442C28.5814 18.7442 28.3488 18.7442 28.2558 18.7442C28.1163 18.7907 28.0233 18.8372 27.9302 18.8372ZM3.93023 18.8372H3.88372C3.7907 18.8372 3.69767 18.8372 3.60465 18.8372C3.55814 18.8372 3.46512 18.8372 3.4186 18.8372C3.37209 18.8372 3.27907 18.8372 3.23256 18.8372C3.18605 18.8372 3.13953 18.8372 3.09302 18.8372C2.76744 18.8372 2.53488 18.6512 2.44186 18.3256C2.44186 18.2326 2.39535 18.093 2.39535 17.9535C2.39535 14.5581 2.39535 11.1628 2.39535 7.76744C2.39535 7.62791 2.39535 7.48837 2.44186 7.34884C2.48837 7.06977 2.72093 6.88372 3.04651 6.83721C3.09302 6.83721 3.18605 6.83721 3.23256 6.83721C3.27907 6.83721 3.51163 6.83721 3.60465 6.83721C3.69767 6.83721 3.7907 6.83721 3.88372 6.83721H3.93023C3.97674 6.83721 4.02326 6.83721 4.06977 6.88372C4.06977 6.88372 4.11628 6.93023 4.11628 7.06977C4.11628 8.55814 4.11628 10.0465 4.11628 11.4884V14.2791C4.11628 15.7209 4.11628 17.1628 4.11628 18.6047C4.11628 18.6977 4.11628 18.7907 4.06977 18.7907C4.02326 18.7907 4.02326 18.8372 3.93023 18.8372Z" fill="#181C32"/>
<path d="M15.9298 23.5352C14.674 23.5352 13.6973 24.5119 13.6973 25.7212C13.6973 26.977 14.674 27.9538 15.8833 27.9538C17.1391 27.9538 18.1159 26.977 18.1159 25.7212C18.1624 24.5584 17.1856 23.5352 15.9298 23.5352ZM15.9298 26.5584C15.5112 26.5584 15.1856 26.1863 15.1856 25.8142C15.1856 25.3956 15.5112 25.07 15.9298 25.0235C16.1159 25.0235 16.3019 25.1166 16.4415 25.2561C16.581 25.3956 16.674 25.5817 16.674 25.8142C16.674 26.1863 16.3484 26.5584 15.9298 26.5584Z" fill="#181C32"/>
<path d="M8.72084 23.5352C8.11619 23.5352 7.55805 23.7677 7.13944 24.1863C6.72084 24.6049 6.48828 25.1631 6.48828 25.7677C6.48828 26.977 7.51154 27.9538 8.72084 27.9538C9.93014 27.9538 10.9534 26.977 10.9534 25.7677C10.9534 25.2096 10.7208 24.6514 10.3022 24.1863C9.88363 23.8142 9.32549 23.5352 8.72084 23.5352ZM7.97665 25.7677C7.97665 25.3491 8.30223 25.0235 8.72084 25.0235H8.76735C9.18596 25.0235 9.51154 25.3956 9.51154 25.8142C9.51154 26.2328 9.18596 26.5584 8.76735 26.5584H8.72084C8.25572 26.5119 7.97665 26.1863 7.97665 25.7677Z" fill="#181C32"/>
<path d="M23.1388 23.5352C22.5342 23.5352 21.976 23.7677 21.5574 24.1863C21.1388 24.6049 20.9062 25.1631 20.9062 25.7677C20.9062 26.977 21.9295 28.0003 23.1388 28.0003C23.7435 28.0003 24.3016 27.7677 24.7202 27.3491C25.1388 26.9305 25.3714 26.3724 25.3714 25.7677C25.3714 24.5584 24.3481 23.5352 23.1388 23.5352ZM23.1388 25.0235C23.5574 25.0235 23.883 25.3956 23.883 25.8142C23.883 26.2328 23.5574 26.5584 23.1388 26.5584C22.7202 26.5584 22.3946 26.2328 22.3946 25.8142C22.3946 25.6282 22.4876 25.3956 22.6272 25.2561C22.7202 25.07 22.9062 25.0235 23.1388 25.0235Z" fill="#181C32"/>
<path d="M8.02416 12.6964C8.21021 12.5104 8.39626 12.3243 8.5823 12.1383C8.90788 11.8127 8.9544 11.3476 8.62882 11.0685C8.48928 10.929 8.30323 10.8359 8.11719 10.8359C7.93114 10.8359 7.69858 10.929 7.51254 11.115C7.14044 11.4871 6.76835 11.8127 6.44277 12.1848L6.39626 12.2313C6.25672 12.3708 6.11719 12.5569 6.11719 12.7894C6.11719 13.0685 6.25672 13.2545 6.39626 13.3941L6.67533 13.6731C6.9544 13.9522 7.23347 14.2313 7.51254 14.5104C7.69858 14.6964 7.88463 14.7894 8.07068 14.7894C8.25672 14.7894 8.39626 14.6964 8.5823 14.5569C8.86137 14.2778 8.86137 13.8127 8.53579 13.4871C8.34975 13.3011 8.1637 13.0685 7.93114 12.929C7.97765 12.8824 7.97765 12.8359 7.97765 12.8359C7.97765 12.8359 7.97765 12.7894 8.02416 12.6964Z" fill="#181C32"/>
<path d="M23.7909 12.9297C23.6049 13.0692 23.4188 13.3018 23.2328 13.5343C22.9072 13.8599 22.9072 14.2785 23.2328 14.6041C23.3723 14.7436 23.5583 14.8367 23.7444 14.8367C23.9304 14.8367 24.1165 14.7436 24.3025 14.6041C24.6746 14.2785 25.0002 13.9064 25.3258 13.5809L25.4653 13.4413C25.6048 13.3018 25.6979 13.1157 25.6979 12.9297C25.6979 12.7436 25.6514 12.5576 25.4653 12.3715L25.4188 12.325C25.0467 11.9529 24.6746 11.5343 24.256 11.1622C24.1165 11.0227 23.8839 10.9297 23.6979 10.9297C23.5118 10.9297 23.3258 11.0227 23.1862 11.1622C22.9072 11.4413 22.9072 11.8599 23.2328 12.232C23.4188 12.4181 23.6048 12.6041 23.8374 12.7902C23.9304 12.8367 23.9304 12.8832 23.9304 12.8832C23.8839 12.8367 23.8839 12.8832 23.7909 12.9297Z" fill="#181C32"/>
<path d="M15.9301 21.6294C16.3022 21.6294 16.6278 21.3503 16.6278 20.9317C16.6278 20.7456 16.5813 20.5596 16.4417 20.4201C16.3022 20.2805 16.1161 20.1875 15.9301 20.1875C15.558 20.1875 15.2324 20.4666 15.2324 20.8852C15.2324 21.0712 15.2789 21.2573 15.4185 21.3968C15.5115 21.5363 15.6975 21.6294 15.9301 21.6294Z" fill="#181C32"/>
</g>
<defs>
<clipPath id="clip0_4395_18611">
<rect width="29.8605" height="24" fill="white" transform="translate(1 4)"/>
</clipPath>
</defs>
</svg>
