<svg width="26" height="24" viewBox="0 0 26 24" fill="none" xmlns="http://www.w3.org/2000/svg">
<g clip-path="url(#clip0_4096_5556)">
<path d="M0.486099 9.16201C0.754255 8.44693 1.24588 8.17877 2.00565 8.08939C3.16766 8 4.32967 7.86592 5.49169 7.77654C6.47493 7.68715 7.45817 7.59777 8.44141 7.50838C8.75426 7.46369 8.97772 7.41899 9.1118 7.06145C9.96096 5.00559 10.8548 2.94972 11.7487 0.893855C11.9721 0.357542 12.3744 0 13.0001 0C13.6258 0 14.0727 0.312849 14.2962 0.893855C15.19 2.99441 16.0839 5.09497 16.9777 7.19553C17.0671 7.41899 17.2012 7.50838 17.4246 7.55307C18.2291 7.59777 19.0336 7.68715 19.7934 7.77654C21.0001 7.86592 22.1621 8 23.3688 8.08939C23.7263 8.13408 24.0839 8.13408 24.3967 8.17877C24.933 8.26816 25.2906 8.6257 25.4693 9.11732C25.6034 9.65363 25.514 10.1453 25.0671 10.5028C24.352 11.1732 23.6369 11.7989 22.8772 12.4246C21.8492 13.3631 20.7766 14.257 19.7487 15.1955C19.6146 15.2849 19.6146 15.419 19.6593 15.5531C20.1062 17.5642 20.5531 19.5307 21.0001 21.5419C21.0448 21.8547 21.1341 22.1229 21.1788 22.4358C21.3129 23.0168 21.1341 23.4637 20.6425 23.8212C20.1956 24.1788 19.6593 24.1788 19.1677 23.9106C18.3632 23.4637 17.5587 22.9274 16.7543 22.4804C15.5476 21.7654 14.3408 21.0503 13.1788 20.3352C13.0001 20.2458 12.866 20.2458 12.7319 20.3352C10.7654 21.4972 8.79895 22.7039 6.83247 23.8659C5.93861 24.4022 4.91068 23.9553 4.73191 22.9274C4.68722 22.7486 4.73191 22.5251 4.7766 22.3464C5.26822 20.1117 5.80453 17.8771 6.29615 15.6425C6.34085 15.4637 6.29615 15.3296 6.16208 15.1955C4.46375 13.7207 2.76543 12.2011 1.02241 10.7263C0.754255 10.5028 0.575484 10.2346 0.441406 9.92179C0.486099 9.60894 0.486099 9.38548 0.486099 9.16201ZM2.45258 9.69833C2.54196 9.78771 2.63135 9.8324 2.67604 9.92179C4.24029 11.2626 5.75984 12.648 7.32409 13.9888C7.90509 14.4804 8.08386 15.0168 7.90509 15.7765C7.41347 17.7877 6.96655 19.7989 6.51962 21.8547C6.51962 21.9441 6.43023 22.0335 6.51962 22.0782C6.609 22.1229 6.6537 22.0335 6.74308 21.9888C8.53079 20.9162 10.3632 19.8436 12.1509 18.7263C12.6872 18.4134 13.2235 18.4134 13.7598 18.7263C15.5476 19.7989 17.38 20.8715 19.1677 21.9888C19.257 22.0335 19.3017 22.1229 19.3911 22.0782C19.4805 22.0335 19.3911 21.8994 19.3911 21.8547C18.9442 19.7989 18.4973 17.7877 18.0057 15.7318C17.8716 15.0615 18.0057 14.5698 18.4973 14.1229C19.8827 12.9162 21.2682 11.7095 22.609 10.5028C22.8772 10.2793 23.1453 10.0559 23.4135 9.78771C23.3241 9.74302 23.2347 9.74302 23.19 9.74302C22.4749 9.65363 21.7151 9.60894 21.0001 9.56425C19.6593 9.43017 18.3185 9.34078 16.933 9.2067C16.2179 9.16201 15.771 8.80447 15.5029 8.13408C14.6984 6.21229 13.8939 4.2905 13.0448 2.36872C13.0895 2.23464 13.0895 2.10056 13.0001 2.10056C12.9107 2.10056 12.9107 2.18994 12.9107 2.23464C12.5084 3.17318 12.1062 4.11173 11.704 5.00559C11.257 6.03352 10.8101 7.10615 10.3632 8.13408C10.1397 8.67039 9.7375 8.98324 9.15649 9.02793C8.79895 9.07263 8.39671 9.11732 8.03917 9.11732C6.6537 9.2514 5.26822 9.38548 3.88275 9.51955C3.43582 9.60894 2.98889 9.65363 2.45258 9.69833Z" fill="#181C32"/>
</g>
<defs>
<clipPath id="clip0_4096_5556">
<rect width="25.0279" height="24" fill="white" transform="translate(0.486328)"/>
</clipPath>
</defs>
</svg>
