<svg width="32" height="32" viewBox="0 0 32 32" fill="none" xmlns="http://www.w3.org/2000/svg">
<g clip-path="url(#clip0_4395_18628)">
<path d="M2.99977 13.162C3.26793 12.4469 3.75955 12.1788 4.51932 12.0894C5.68134 12 6.84335 11.8659 8.00536 11.7765C8.9886 11.6872 9.97184 11.5978 10.9551 11.5084C11.2679 11.4637 11.4914 11.419 11.6255 11.0615C12.4746 9.00559 13.3685 6.94972 14.2623 4.89385C14.4858 4.35754 14.888 4 15.5137 4C16.1394 4 16.5864 4.31285 16.8098 4.89385C17.7037 6.99441 18.5975 9.09497 19.4914 11.1955C19.5808 11.419 19.7149 11.5084 19.9383 11.5531C20.7428 11.5978 21.5473 11.6872 22.307 11.7765C23.5137 11.8659 24.6757 12 25.8825 12.0894C26.24 12.1341 26.5975 12.1341 26.9104 12.1788C27.4467 12.2682 27.8042 12.6257 27.983 13.1173C28.1171 13.6536 28.0277 14.1453 27.5808 14.5028C26.8657 15.1732 26.1506 15.7989 25.3908 16.4246C24.3629 17.3631 23.2903 18.257 22.2623 19.1955C22.1283 19.2849 22.1283 19.419 22.173 19.5531C22.6199 21.5642 23.0668 23.5307 23.5137 25.5419C23.5584 25.8548 23.6478 26.1229 23.6925 26.4358C23.8266 27.0168 23.6478 27.4637 23.1562 27.8212C22.7093 28.1788 22.173 28.1788 21.6813 27.9106C20.8769 27.4637 20.0724 26.9274 19.2679 26.4804C18.0612 25.7654 16.8545 25.0503 15.6925 24.3352C15.5137 24.2458 15.3797 24.2458 15.2456 24.3352C13.2791 25.4972 11.3126 26.7039 9.34614 27.8659C8.45228 28.4022 7.42435 27.9553 7.24558 26.9274C7.20089 26.7486 7.24558 26.5251 7.29027 26.3464C7.78189 24.1117 8.31821 21.8771 8.80983 19.6425C8.85452 19.4637 8.80983 19.3296 8.67575 19.1955C6.97742 17.7207 5.2791 16.2011 3.53608 14.7263C3.26793 14.5028 3.08916 14.2346 2.95508 13.9218C2.99977 13.6089 2.99977 13.3855 2.99977 13.162ZM4.96625 13.6983C5.05564 13.7877 5.14502 13.8324 5.18971 13.9218C6.75396 15.2626 8.27351 16.648 9.83776 17.9888C10.4188 18.4804 10.5975 19.0168 10.4188 19.7765C9.92715 21.7877 9.48022 23.7989 9.03329 25.8548C9.03329 25.9441 8.94391 26.0335 9.03329 26.0782C9.12268 26.1229 9.16737 26.0335 9.25675 25.9888C11.0445 24.9162 12.8769 23.8436 14.6646 22.7263C15.2009 22.4134 15.7372 22.4134 16.2735 22.7263C18.0612 23.7989 19.8936 24.8715 21.6813 25.9888C21.7707 26.0335 21.8154 26.1229 21.9048 26.0782C21.9942 26.0335 21.9048 25.8994 21.9048 25.8548C21.4579 23.7989 21.0109 21.7877 20.5193 19.7318C20.3852 19.0615 20.5193 18.5698 21.0109 18.1229C22.3964 16.9162 23.7819 15.7095 25.1227 14.5028C25.3908 14.2793 25.659 14.0559 25.9271 13.7877C25.8378 13.743 25.7484 13.743 25.7037 13.743C24.9886 13.6536 24.2288 13.6089 23.5137 13.5642C22.173 13.4302 20.8322 13.3408 19.4467 13.2067C18.7316 13.162 18.2847 12.8045 18.0165 12.1341C17.2121 10.2123 16.4076 8.2905 15.5584 6.36872C15.6031 6.23464 15.6031 6.10056 15.5137 6.10056C15.4244 6.10056 15.4244 6.18994 15.4244 6.23464C15.0221 7.17318 14.6199 8.11173 14.2176 9.00559C13.7707 10.0335 13.3238 11.1061 12.8769 12.1341C12.6534 12.6704 12.2512 12.9832 11.6702 13.0279C11.3126 13.0726 10.9104 13.1173 10.5528 13.1173C9.16737 13.2514 7.78189 13.3855 6.39642 13.5196C5.94949 13.6089 5.50256 13.6536 4.96625 13.6983Z" fill="#181C32"/>
</g>
<defs>
<clipPath id="clip0_4395_18628">
<rect width="25.0279" height="24" fill="white" transform="translate(3 4)"/>
</clipPath>
</defs>
</svg>
