<svg width="32" height="32" viewBox="0 0 32 32" fill="none" xmlns="http://www.w3.org/2000/svg">
<g clip-path="url(#clip0_4395_18643)">
<path d="M28 7.68798C28 13.1816 28 18.6752 28 24.1688C27.6317 25.3043 26.9258 25.8568 25.8824 25.8568C19.3146 25.8568 12.7161 25.8568 6.14834 25.8568C4.92072 25.8568 4.03069 24.9361 4.03069 23.7084C4 18.5524 4 13.335 4 8.14834C4 6.92072 4.92072 6 6.14834 6C12.7161 6 19.3146 6 25.8824 6C26.0665 6 26.2813 6.03069 26.4655 6.06138C27.2634 6.30691 27.7545 6.89003 28 7.68798ZM15.9693 11.5243C19.376 11.5243 22.7826 11.5243 26.1893 11.5243C26.5575 11.5243 26.5575 11.5243 26.5575 11.156C26.5575 10.1739 26.5575 9.19182 26.5575 8.24041C26.5575 7.68798 26.312 7.44246 25.7596 7.44246C19.2532 7.44246 12.7468 7.44246 6.20972 7.44246C5.65729 7.44246 5.41176 7.68798 5.41176 8.20972C5.41176 9.19182 5.41176 10.1739 5.41176 11.156C5.41176 11.5243 5.41176 11.5243 5.78005 11.5243C9.1867 11.5243 12.5934 11.5243 15.9693 11.5243ZM7.59079 15.821C8.23529 15.821 8.84911 15.821 9.49361 15.821C9.70844 15.821 9.80051 15.7596 9.76982 15.5448C9.76982 14.7775 9.76982 14.0102 9.76982 13.243C9.76982 13.0281 9.70844 12.9668 9.49361 12.9668C8.23529 12.9668 6.97698 12.9668 5.71867 12.9668C5.53453 12.9668 5.44246 13.0281 5.44246 13.243C5.44246 14.0102 5.44246 14.8082 5.44246 15.5754C5.44246 15.7903 5.50384 15.8517 5.71867 15.8517C6.33248 15.821 6.94629 15.821 7.59079 15.821ZM13.3299 15.821C13.9744 15.821 14.6189 15.821 15.2634 15.821C15.4476 15.821 15.5396 15.7596 15.5396 15.5754C15.5396 14.7775 15.5396 14.0102 15.5396 13.2123C15.5396 13.0281 15.4783 12.9668 15.2634 12.9668C14.0051 12.9668 12.7468 12.9668 11.4885 12.9668C11.2737 12.9668 11.2123 13.0281 11.2123 13.243C11.2123 14.0102 11.2123 14.8082 11.2123 15.5754C11.2123 15.7903 11.3043 15.8517 11.4885 15.8517C12.1023 15.821 12.7161 15.821 13.3299 15.821ZM19.0997 15.821C19.7442 15.821 20.3581 15.821 21.0026 15.821C21.2174 15.821 21.3095 15.7596 21.2788 15.5448C21.2788 14.7775 21.2788 14.0102 21.2788 13.243C21.2788 13.0281 21.2174 12.9668 21.0026 12.9668C19.7442 12.9668 18.4859 12.9668 17.2276 12.9668C17.0435 12.9668 16.9514 13.0281 16.9514 13.243C16.9514 14.0102 16.9514 14.8082 16.9514 15.5754C16.9514 15.7903 17.0128 15.8517 17.2276 15.8517C17.8414 15.821 18.4859 15.821 19.0997 15.821ZM7.62148 17.2634C6.97698 17.2634 6.33248 17.2634 5.68798 17.2634C5.50384 17.2634 5.44246 17.3248 5.44246 17.509C5.44246 18.3069 5.44246 19.0742 5.44246 19.8721C5.44246 20.0563 5.50384 20.1483 5.68798 20.1483C6.94629 20.1483 8.23529 20.1483 9.49361 20.1483C9.67775 20.1483 9.73913 20.087 9.73913 19.9028C9.73913 19.1356 9.73913 18.3376 9.73913 17.5703C9.73913 17.3555 9.64706 17.2941 9.43223 17.2941C8.84911 17.2634 8.23529 17.2634 7.62148 17.2634ZM13.3299 20.1483C13.9744 20.1483 14.5882 20.1483 15.2327 20.1483C15.4476 20.1483 15.5396 20.087 15.5396 19.8721C15.5396 19.1049 15.5396 18.3069 15.5396 17.5396C15.5396 17.3555 15.4783 17.2634 15.2941 17.2634C14.0358 17.2634 12.7468 17.2634 11.4885 17.2634C11.3043 17.2634 11.243 17.3248 11.243 17.5396C11.243 18.3069 11.243 19.1049 11.243 19.8721C11.243 20.087 11.3043 20.1483 11.5192 20.1483C12.0716 20.1176 12.7161 20.1483 13.3299 20.1483ZM19.0997 20.1483C19.7442 20.1483 20.3887 20.1483 21.0332 20.1483C21.2174 20.1483 21.2788 20.087 21.2788 19.9028C21.2788 19.1049 21.2788 18.3069 21.2788 17.509C21.2788 17.3248 21.2174 17.2634 21.0332 17.2634C19.7749 17.2634 18.4859 17.2634 17.2276 17.2634C17.0435 17.2634 16.9514 17.3248 16.9514 17.509C16.9514 18.3069 16.9514 19.0742 16.9514 19.8721C16.9514 20.0563 17.0128 20.1176 17.2276 20.1176C17.8414 20.1176 18.4859 20.1483 19.0997 20.1483ZM13.3606 21.5601C12.7161 21.5601 12.1023 21.5601 11.4578 21.5601C11.243 21.5601 11.1816 21.6215 11.1816 21.8363C11.1816 22.6036 11.1816 23.4015 11.1816 24.1688C11.1816 24.3529 11.243 24.445 11.4271 24.445C12.6854 24.445 13.9744 24.445 15.2327 24.445C15.4169 24.445 15.509 24.3836 15.509 24.1995C15.509 23.4322 15.509 22.6343 15.509 21.867C15.509 21.6522 15.4169 21.5908 15.2327 21.5908C14.6189 21.5908 13.9744 21.5601 13.3606 21.5601ZM19.1304 21.5601C18.4859 21.5601 17.8414 21.5601 17.2276 21.5601C17.0435 21.5601 16.9821 21.6215 16.9821 21.8056C16.9821 22.6036 16.9821 23.4015 16.9821 24.1995C16.9821 24.3836 17.0435 24.445 17.2276 24.445C18.4859 24.445 19.7749 24.445 21.0332 24.445C21.2174 24.445 21.3095 24.3836 21.3095 24.1995C21.3095 23.4015 21.3095 22.6343 21.3095 21.8363C21.3095 21.6522 21.2481 21.5908 21.0332 21.5908C20.3887 21.5908 19.7442 21.5601 19.1304 21.5601ZM7.59079 21.5601C6.94629 21.5601 6.33248 21.5601 5.68798 21.5601C5.47315 21.5601 5.41176 21.6215 5.41176 21.8363C5.41176 22.4501 5.41176 23.0946 5.41176 23.7084C5.41176 24.1688 5.68798 24.445 6.14834 24.445C7.2532 24.445 8.38875 24.445 9.49361 24.445C9.67775 24.445 9.73913 24.3836 9.73913 24.1688C9.73913 23.4015 9.73913 22.6036 9.73913 21.8363C9.73913 21.6215 9.67775 21.5601 9.46292 21.5601C8.8491 21.5908 8.23529 21.5601 7.59079 21.5601ZM24.624 15.821C25.1765 15.821 25.7596 15.821 26.312 15.821C26.4962 15.821 26.5575 15.7596 26.5575 15.5754C26.5575 14.7775 26.5575 14.0102 26.5575 13.2123C26.5575 13.0281 26.4962 12.9361 26.312 12.9361C25.2072 12.9361 24.0716 12.9361 22.9668 12.9361C22.7826 12.9361 22.7212 12.9974 22.7212 13.1816C22.7212 13.9488 22.7212 14.7468 22.7212 15.5141C22.7212 15.7289 22.8133 15.7903 23.0281 15.7903C23.5499 15.821 24.1023 15.821 24.624 15.821ZM24.624 20.1483C25.1765 20.1483 25.7596 20.1483 26.312 20.1483C26.4962 20.1483 26.5575 20.087 26.5575 19.9028C26.5575 19.1049 26.5575 18.3069 26.5575 17.509C26.5575 17.3248 26.4962 17.2634 26.312 17.2634C25.2072 17.2634 24.0716 17.2634 22.9668 17.2634C22.7826 17.2634 22.6905 17.3248 22.6905 17.509C22.6905 18.3069 22.6905 19.0742 22.6905 19.8721C22.6905 20.0563 22.7519 20.1176 22.9668 20.1176C23.5192 20.1176 24.0716 20.1483 24.624 20.1483ZM24.6547 21.5601C24.1023 21.5601 23.5192 21.5601 22.9668 21.5601C22.7826 21.5601 22.6905 21.6215 22.6905 21.8056C22.6905 22.6036 22.6905 23.4015 22.6905 24.1995C22.6905 24.3529 22.7519 24.445 22.9361 24.445C23.9182 24.445 24.8696 24.445 25.8517 24.445C26.2813 24.445 26.5575 24.1688 26.5575 23.7391C26.5575 23.0946 26.5575 22.4808 26.5575 21.8363C26.5575 21.6215 26.4962 21.5601 26.2813 21.5601C25.7596 21.5908 25.2072 21.5601 24.6547 21.5601Z" fill="#181C32"/>
</g>
<defs>
<clipPath id="clip0_4395_18643">
<rect width="24" height="19.8875" fill="white" transform="translate(4 6)"/>
</clipPath>
</defs>
</svg>
