<svg width="32" height="32" viewBox="0 0 32 32" fill="none" xmlns="http://www.w3.org/2000/svg">
<g clip-path="url(#clip0_4395_18654)">
<path d="M16 28.0006C12.4324 28.0006 8.86486 28.0006 5.2973 28.0006C4.38919 28.0006 4 27.6114 4 26.7682C4 22.9412 4 19.1141 4 15.2871C4 14.379 4.38919 14.0547 5.2973 14.0547C12.4324 14.0547 19.5676 14.0547 26.7027 14.0547C27.6108 14.0547 28 14.4439 28 15.352C28 19.179 28 23.006 28 26.8331C28 27.7412 27.6108 28.1304 26.7676 28.1304C23.1351 28.0006 19.5676 28.0006 16 28.0006ZM15.9351 25.925C19.1135 25.925 22.2919 25.925 25.4703 25.925C25.9243 25.925 25.9243 25.925 25.9243 25.4709C25.9243 22.4871 25.9243 19.4385 25.9243 16.4547C25.9243 16.0006 25.9243 16.0006 25.4703 16.0006C19.1784 16.0006 12.8216 16.0006 6.52973 16.0006C6.07568 16.0006 6.07568 16.0006 6.07568 16.4547C6.07568 19.4385 6.07568 22.4871 6.07568 25.4709C6.07568 25.925 6.07568 25.925 6.52973 25.925C9.64324 25.925 12.8216 25.925 15.9351 25.925Z" fill="#181C32"/>
<path d="M15.999 8.99301C18.6585 8.99301 21.2531 8.99301 23.9126 8.99301C24.3666 8.99301 24.6909 9.18761 24.8855 9.57679C25.0801 9.96598 25.0153 10.2903 24.7558 10.6146C24.5612 10.8741 24.3018 11.0038 23.9774 11.0038C23.8477 11.0038 23.718 11.0038 23.5234 11.0038C18.4639 11.0038 13.4693 11.0038 8.40986 11.0038C8.21527 11.0038 8.02067 11.0038 7.82608 10.939C7.30716 10.8741 6.91797 10.3552 6.91797 9.83625C6.98283 9.31734 7.37202 8.86328 7.95581 8.86328C9.38283 8.86328 10.8747 8.86328 12.3018 8.86328C13.599 8.99301 14.7666 8.99301 15.999 8.99301Z" fill="#181C32"/>
<path d="M15.9351 6.07568C14.054 6.07568 12.2378 6.07568 10.3567 6.07568C10.1621 6.07568 10.0324 6.07568 9.8378 6.01081C9.25401 5.94595 8.92969 5.49189 8.92969 4.97297C8.99455 4.38919 9.38374 4 9.96753 4C11.3946 4 12.7567 4 14.1837 4C16.7135 4 19.3081 4 21.8378 4C22.4216 4 22.8756 4.38919 22.9405 4.97297C23.0054 5.49189 22.5513 5.94595 21.9675 6.07568C21.8378 6.07568 21.7081 6.07568 21.5135 6.07568C20.2162 6.07568 18.9189 6.07568 17.6216 6.07568C17.1027 6.07568 16.5189 6.07568 15.9351 6.07568Z" fill="#181C32"/>
</g>
<defs>
<clipPath id="clip0_4395_18654">
<rect width="24" height="24" fill="white" transform="translate(4 4)"/>
</clipPath>
</defs>
</svg>
