<svg width="32" height="32" viewBox="0 0 32 32" fill="none" xmlns="http://www.w3.org/2000/svg">
<g clip-path="url(#clip0_4395_18305)">
<path d="M28 22.6029C28 24.3254 28 26.1627 28 27.8852C28 28 28 28 27.8852 28C26.1627 28 24.3254 28 22.6029 28C22.2584 27.8852 22.1435 27.5407 22.1435 27.1962C22.1435 26.8517 22.1435 26.5072 22.1435 26.1627C22.1435 25.8182 22.1435 25.8182 21.799 25.8182C19.9617 25.8182 18.0096 25.8182 16.1722 25.8182C14.2201 25.8182 12.3828 25.8182 10.4306 25.8182C10.201 25.8182 10.0861 25.933 10.0861 26.1627C10.0861 26.5072 10.0861 26.8517 10.0861 27.311C10.0861 27.6555 9.97129 28 9.62679 28.1148C7.90431 28.1148 6.29665 28.1148 4.57416 28.1148C4.11483 27.8852 4 27.6555 4 27.1962C4 25.7034 4 24.3254 4 22.8325C4 22.3732 4.22967 22.0287 4.80383 22.0287C5.26316 22.0287 5.60766 22.0287 6.06699 22.0287C6.29665 22.0287 6.29665 21.9139 6.29665 21.6842C6.29665 21.11 6.29665 20.5359 6.29665 19.8469C6.29665 16.6316 6.29665 13.4163 6.29665 10.201C6.29665 9.85646 6.29665 9.85646 5.95215 9.85646C5.60766 9.85646 5.14833 9.85646 4.80383 9.85646C4.3445 9.97129 4 9.74163 4 9.2823C4 7.78947 4 6.29665 4 4.80383C4 4.3445 4.3445 4 4.80383 4C6.29665 4 7.78947 4 9.2823 4C9.74163 4 9.97129 4.3445 9.97129 4.80383C9.97129 5.26316 9.97129 5.60766 9.97129 6.06699C9.97129 6.18182 10.0861 6.29665 10.3158 6.29665C10.6603 6.29665 11.1196 6.29665 11.4641 6.29665C14.9091 6.29665 18.3541 6.29665 21.799 6.29665C22.1435 6.29665 22.1435 6.29665 22.1435 5.95215C22.1435 5.60766 22.1435 5.26316 22.1435 4.80383C22.0287 4.22967 22.3732 4 22.9474 4C24.3254 4 25.8182 4 27.1962 4C27.5407 4 27.8852 4.11483 28 4.45933C28 6.18182 28 7.78947 28 9.51196C27.8852 9.85646 27.5407 9.97129 27.1962 9.97129C26.8517 9.97129 26.5072 9.97129 26.1627 9.97129C25.8182 9.97129 25.8182 9.97129 25.8182 10.3158C25.8182 12.1531 25.8182 14.1053 25.8182 15.9426C25.8182 17.8947 25.8182 19.8469 25.8182 21.799C25.8182 22.0287 25.933 22.1435 26.1627 22.1435C26.5072 22.1435 26.8517 22.1435 27.311 22.1435C27.6555 22.0287 27.8852 22.1435 28 22.6029ZM16.0574 7.78947C14.1053 7.78947 12.2679 7.78947 10.3158 7.78947C9.97129 7.78947 9.97129 7.78947 9.97129 8.13397C9.97129 8.47847 9.97129 8.9378 9.97129 9.2823C9.97129 9.74163 9.74163 9.97129 9.2823 9.97129C8.82297 9.97129 8.47847 9.97129 8.01914 9.97129C7.78947 9.97129 7.78947 9.97129 7.78947 10.201C7.78947 14.1053 7.78947 17.8947 7.78947 21.799C7.78947 22.0287 7.90431 22.0287 8.01914 22.0287C8.47847 22.0287 8.82297 22.0287 9.2823 22.0287C9.74163 22.0287 10.0861 22.3732 10.0861 22.8325C10.0861 23.2919 10.0861 23.6364 10.0861 24.0957C10.0861 24.3254 10.0861 24.3254 10.3158 24.3254C14.2201 24.3254 18.0096 24.3254 21.9139 24.3254C22.1435 24.3254 22.1435 24.2105 22.1435 24.0957C22.1435 23.6364 22.1435 23.2919 22.1435 22.8325C22.1435 22.3732 22.3732 22.0287 22.9474 22.0287C23.4067 22.0287 23.7512 22.0287 24.2105 22.0287C24.4402 22.0287 24.4402 22.0287 24.4402 21.799C24.4402 17.8947 24.4402 14.1053 24.4402 10.201C24.4402 9.97129 24.3254 9.97129 24.2105 9.97129C23.7512 9.97129 23.4067 9.97129 22.9474 9.97129C22.488 9.97129 22.2584 9.62679 22.2584 9.2823C22.2584 8.9378 22.2584 8.47847 22.2584 8.13397C22.2584 7.78947 22.2584 7.78947 21.9139 7.78947C19.8469 7.78947 18.0096 7.78947 16.0574 7.78947ZM8.5933 6.98565C8.5933 6.52632 8.5933 6.18182 8.5933 5.72249C8.5933 5.49282 8.5933 5.49282 8.36364 5.49282C7.44498 5.49282 6.64115 5.49282 5.72249 5.49282C5.60766 5.49282 5.49282 5.60766 5.49282 5.72249C5.49282 6.64115 5.49282 7.44498 5.49282 8.36364C5.49282 8.47847 5.49282 8.5933 5.72249 8.5933C6.52632 8.5933 7.44498 8.5933 8.36364 8.5933C8.47847 8.5933 8.5933 8.47847 8.5933 8.36364C8.5933 7.90431 8.5933 7.44498 8.5933 6.98565ZM25.0144 8.5933C25.4737 8.5933 25.933 8.5933 26.2775 8.5933C26.5072 8.5933 26.5072 8.5933 26.5072 8.36364C26.5072 7.44498 26.5072 6.64115 26.5072 5.72249C26.5072 5.60766 26.3923 5.49282 26.2775 5.49282C25.3589 5.49282 24.555 5.49282 23.6364 5.49282C23.5215 5.49282 23.5215 5.49282 23.5215 5.72249C23.5215 6.64115 23.5215 7.44498 23.5215 8.36364C23.5215 8.47847 23.6364 8.5933 23.7512 8.5933C24.2105 8.5933 24.6699 8.5933 25.0144 8.5933ZM8.5933 25.1292C8.5933 24.6699 8.5933 24.3254 8.5933 23.866C8.5933 23.6364 8.5933 23.6364 8.36364 23.6364C7.44498 23.6364 6.64115 23.6364 5.72249 23.6364C5.60766 23.6364 5.49282 23.7512 5.49282 23.866C5.49282 24.7847 5.49282 25.5885 5.49282 26.5072C5.49282 26.7368 5.60766 26.7368 5.72249 26.7368C6.64115 26.7368 7.44498 26.7368 8.36364 26.7368C8.5933 26.7368 8.5933 26.622 8.5933 26.5072C8.5933 25.933 8.5933 25.4737 8.5933 25.1292ZM26.622 25.1292C26.622 24.6699 26.622 24.2105 26.622 23.7512C26.622 23.5215 26.5072 23.5215 26.3923 23.5215C25.4737 23.5215 24.6699 23.5215 23.7512 23.5215C23.6364 23.5215 23.5215 23.5215 23.5215 23.7512C23.5215 24.6699 23.5215 25.4737 23.5215 26.3923C23.5215 26.622 23.6364 26.622 23.7512 26.622C24.6699 26.622 25.4737 26.622 26.3923 26.622C26.622 26.622 26.622 26.5072 26.622 26.3923C26.622 25.933 26.622 25.4737 26.622 25.1292Z" fill="#181C32"/>
<path d="M15.139 16.4017C15.139 14.9089 15.139 13.3012 15.139 11.8084C15.139 11.4639 15.139 11.4639 14.7945 11.4639C13.9907 11.4639 13.3017 11.4639 12.4979 11.4639C12.2682 11.4639 12.1534 11.5788 12.1534 11.6936C12.1534 11.9233 12.1534 12.2678 12.1534 12.4974C12.1534 12.9568 11.8089 13.1864 11.4644 13.1864C11.1199 13.1864 10.7754 12.8419 10.7754 12.4974C10.7754 11.9233 10.7754 11.3491 10.7754 10.7749C10.7754 10.4304 11.0051 10.0859 11.4644 10.0859C11.5792 10.0859 11.8089 10.0859 11.9237 10.0859C14.6797 10.0859 17.4357 10.0859 20.3065 10.0859C20.9955 10.0859 21.4548 10.2008 21.4548 11.2343C21.4548 11.6936 21.4548 12.0381 21.4548 12.4974C21.4548 12.9568 21.2252 13.3012 20.7658 13.3012C20.3065 13.3012 20.0768 13.0716 19.962 12.6123C19.962 12.3826 19.962 12.1529 19.962 11.8084C19.962 11.5788 19.8472 11.5788 19.7323 11.5788C18.8137 11.5788 17.895 11.5788 17.0912 11.5788C16.8615 11.5788 16.8615 11.6936 16.8615 11.8084C16.8615 12.2678 16.8615 12.7271 16.8615 13.1864C16.8615 15.8276 16.8615 18.3539 16.8615 20.995C16.8615 21.3395 16.8615 21.3395 17.206 21.3395C17.6653 21.3395 18.0098 21.3395 18.4692 21.3395C18.9285 21.3395 19.1582 21.5692 19.273 22.0285C19.273 22.4879 19.0433 22.7175 18.584 22.8323C18.2395 22.8323 17.7802 22.8323 17.4357 22.8323C16.2874 22.8323 15.139 22.8323 14.1055 22.8323C13.9907 22.8323 13.761 22.8323 13.6462 22.8323C13.3017 22.8323 12.9572 22.4879 12.9572 22.1434C12.9572 21.7989 13.3017 21.4544 13.6462 21.4544C14.1055 21.4544 14.5649 21.4544 15.0242 21.4544C15.3687 21.4544 15.3687 21.4544 15.3687 21.1099C15.139 19.5022 15.139 17.8946 15.139 16.4017Z" fill="#181C32"/>
</g>
<defs>
<clipPath id="clip0_4395_18305">
<rect width="24" height="24" fill="white" transform="translate(4 4)"/>
</clipPath>
</defs>
</svg>
