<svg width="32" height="32" viewBox="0 0 32 32" fill="none" xmlns="http://www.w3.org/2000/svg">
<g clip-path="url(#clip0_4395_18328)">
<path d="M28 9.40025C27.7085 9.78891 27.3198 10.0804 27.0283 10.3719C26.6397 10.7606 26.3482 11.0521 25.9595 11.4407C25.8623 11.5379 25.7652 11.7322 25.7652 11.9266C25.668 15.716 24.2105 18.9225 21.4899 21.6432C19.3522 23.6837 16.8259 24.9468 13.9109 25.3355C10.6073 25.8213 7.40081 25.1411 4.48583 23.4893C4.19433 23.1978 4 23.0035 4 22.712C4 22.2262 4.2915 21.9347 4.77733 21.9347C5.26316 21.9347 5.65182 21.9347 6.13765 21.9347C7.30364 21.8375 8.37247 21.6432 9.4413 21.1573C9.4413 21.1573 9.53846 21.1573 9.53846 21.0602C9.53846 20.963 9.4413 20.963 9.34413 20.963C7.98381 20.38 7.10931 19.3112 6.52632 17.9509C6.42915 17.6594 6.42915 17.465 6.62348 17.1735C6.72065 17.0764 6.72065 16.9792 6.62348 16.9792C5.55466 16.0075 5.06883 14.8415 4.87449 13.4812C4.68016 12.8011 4.87449 12.6067 5.36032 12.4124C5.45749 12.4124 5.45749 12.3152 5.45749 12.2181C5.06883 11.6351 4.87449 11.0521 4.77733 10.3719C4.68016 9.20592 4.97166 8.13709 5.55466 7.16543C5.84615 6.77677 6.33198 6.6796 6.72065 7.06827C7.10931 7.5541 7.49798 7.94276 7.88664 8.33142C9.82996 10.0804 12.1619 11.1492 14.6883 11.4407C14.9798 11.4407 14.9798 11.4407 14.9798 11.1492C14.9798 10.0804 15.2713 9.20592 15.8543 8.33142C16.8259 6.9711 18.1862 6.19377 19.9352 6.09661C21.3927 5.99944 22.6559 6.3881 23.8219 7.2626C23.919 7.35976 24.1134 7.35976 24.2105 7.35976C24.8907 7.06827 25.668 6.87393 26.3482 6.58244C26.6397 6.48527 26.9312 6.48527 27.2227 6.77677C27.417 6.9711 27.5142 7.2626 27.3198 7.5541C27.3198 7.74843 27.2227 7.94276 27.0283 8.13709C26.9312 8.33142 27.0283 8.33142 27.1255 8.33142C27.5142 8.33142 27.8057 8.52576 28 8.81725C28 9.01159 28 9.20592 28 9.40025ZM7.69231 23.1007C7.78947 23.1978 7.78947 23.1978 7.69231 23.1007C7.78947 23.1978 7.88664 23.1978 7.88664 23.1978C10.1215 23.878 12.3563 23.9751 14.5911 23.4893C17.3117 22.9063 19.5466 21.546 21.3927 19.5055C23.2389 17.2707 24.2105 14.7444 24.3077 11.8294C24.3077 11.1492 24.502 10.5662 24.9879 10.1776L25.085 10.0804C24.6964 10.0804 24.4049 9.98325 24.3077 9.69175C24.1134 9.30308 24.2105 9.01159 24.5992 8.62292C23.919 8.81725 23.4332 8.62292 22.9474 8.23426C21.7814 7.35976 20.4211 7.06827 19.0607 7.65126C17.6032 8.23426 16.7287 9.30308 16.5344 10.8577C16.5344 11.2464 16.5344 11.7322 16.4372 12.1209C16.4372 12.6067 16.0486 12.8982 15.5628 12.8011C15.1741 12.8011 14.7854 12.7039 14.4939 12.7039C11.7733 12.5096 9.4413 11.4407 7.40081 9.78891C7.01215 9.49742 6.72065 9.20592 6.42915 8.91442C6.33198 8.91442 6.33198 9.01159 6.33198 9.10875C6.13765 10.0804 6.33198 10.9549 6.81781 11.7322C7.10931 12.3152 7.59514 12.7039 8.17814 13.0926C8.5668 13.3841 8.66397 13.6756 8.46964 14.0642C8.2753 14.4529 7.98381 14.55 7.49798 14.4529C7.20648 14.2585 6.91498 14.2585 6.72065 14.1614C6.62348 14.1614 6.52632 14.0642 6.52632 14.1614C6.42915 14.2585 6.52632 14.3557 6.52632 14.3557C6.72065 14.9387 7.10931 15.5217 7.59514 15.9104C8.08097 16.299 8.5668 16.5905 9.1498 16.7849C9.4413 16.882 9.63563 17.0764 9.63563 17.3679C9.73279 17.8537 9.34413 18.1452 8.95547 18.2424C8.76113 18.2424 8.5668 18.2424 8.2753 18.2424C8.5668 18.631 8.95547 19.0197 9.34413 19.214C9.92713 19.6027 10.6073 19.797 11.2874 19.8942C11.6761 19.8942 11.9676 20.0885 12.0648 20.4772C12.1619 20.8658 11.9676 21.0602 11.6761 21.3517C11.1903 21.6432 10.7045 22.0318 10.1215 22.2262C9.4413 22.712 8.5668 22.9063 7.69231 23.1007Z" fill="#181C32"/>
</g>
<defs>
<clipPath id="clip0_4395_18328">
<rect width="24" height="19.336" fill="white" transform="translate(4 6)"/>
</clipPath>
</defs>
</svg>
