<svg width="32" height="32" viewBox="0 0 32 32" fill="none" xmlns="http://www.w3.org/2000/svg">
<path d="M16.5434 4C16.9451 4.10042 17.4472 4.10042 17.8489 4.30126C19.9576 5.20502 21.2631 6.81172 21.5643 9.12134C21.8656 11.5314 20.5602 13.9414 18.351 14.9456C16.1417 16.0502 13.4305 15.5481 11.6229 13.7406C9.81539 11.9331 9.51413 9.02092 10.92 6.7113C11.9242 5.20502 13.2296 4.30126 15.0371 4H15.1376C15.6397 4 16.1417 4 16.5434 4ZM20.2589 9.82427C20.3593 7.71548 18.4514 5.50628 15.9409 5.50628C13.5309 5.50628 11.6229 7.41423 11.6229 9.82427C11.6229 12.3347 13.7317 14.1423 15.9409 14.1423C18.2505 14.1423 20.2589 12.1339 20.2589 9.82427Z" fill="#181C32"/>
<path d="M16.0412 27.9998C14.0329 27.9998 12.0245 27.9998 10.0161 27.9998C9.11236 27.9998 8.2086 27.6986 7.50567 27.0961C6.6019 26.3931 6.20023 25.3889 6.09981 24.2843C5.99939 22.7781 6.20023 21.1714 6.6019 19.6651C6.90316 18.5605 7.40525 17.5563 8.2086 16.753C9.11236 15.8492 10.1165 15.5479 11.422 15.5479C11.7232 15.5479 11.9241 15.6484 12.2253 15.8492C12.4262 16.05 12.7274 16.2509 13.0287 16.4517C14.0329 17.0542 15.1375 17.4559 16.2421 17.3555C17.2463 17.3555 18.15 16.9538 18.9534 16.4517C19.2546 16.2509 19.5559 16.1504 19.7567 15.9496C20.3592 15.5479 20.9617 15.4475 21.5642 15.5479C23.0705 15.8492 24.0747 16.6525 24.7776 17.958C25.4806 19.163 25.6814 20.4684 25.8822 21.7739C25.9827 22.5772 25.9827 23.2802 25.9827 24.0835C25.9827 26.0919 24.4764 27.6986 22.468 27.8994C22.1668 27.8994 21.8655 27.8994 21.5642 27.8994C19.7567 27.9998 17.9492 27.9998 16.0412 27.9998ZM16.0412 26.594C17.9492 26.594 19.7567 26.594 21.6647 26.594C22.1668 26.594 22.5684 26.594 23.0705 26.3931C24.0747 25.9915 24.5768 25.1881 24.5768 23.9831C24.5768 23.2802 24.5768 22.4768 24.4764 21.7739C24.2755 20.7697 24.0747 19.7655 23.5726 18.8617C23.0705 17.958 22.3676 17.2551 21.263 17.1546C21.0622 17.1546 20.7609 17.1546 20.5601 17.2551C20.2588 17.4559 20.058 17.6567 19.7567 17.7571C17.7483 18.9622 15.74 19.2634 13.5308 18.3597C12.8278 18.0584 12.1249 17.6567 11.5224 17.2551C11.3216 17.0542 11.1207 17.0542 10.9199 17.0542C10.3174 17.1546 9.81529 17.2551 9.41362 17.6567C8.81111 18.1588 8.50985 18.7613 8.2086 19.3638C7.60609 20.9705 7.40525 22.5772 7.50567 24.2843C7.50567 25.2885 8.2086 26.0919 9.11236 26.3931C9.51403 26.594 10.0161 26.594 10.5182 26.594C12.3258 26.594 14.1333 26.594 16.0412 26.594Z" fill="#181C32"/>
</svg>
