<svg width="32" height="32" viewBox="0 0 32 32" fill="none" xmlns="http://www.w3.org/2000/svg">
<g clip-path="url(#clip0_4395_18351)">
<path d="M27.9993 18.7951C27.9993 19.2019 27.918 19.6087 27.918 20.0155C27.918 20.829 27.7553 21.6426 27.5112 22.4561C27.0231 23.9206 26.0468 24.7341 24.501 24.9782C23.6875 25.0595 22.9553 25.1409 22.1417 25.1409C19.701 25.2222 17.3417 25.3036 14.901 25.3036C13.1925 25.3036 11.5654 25.2222 9.85695 25.1409C8.96204 25.1409 8.14848 25.0595 7.25356 24.8968C5.62644 24.5714 4.65017 23.5951 4.24339 22.0494C3.99932 21.2358 3.99932 20.3409 3.91797 19.446C3.99932 17.5748 3.99932 15.785 3.99932 13.9138C3.99932 12.6934 4.08068 11.4731 4.32475 10.2528C4.81288 8.70699 5.7078 7.73072 7.25356 7.32394C7.7417 7.24258 8.22983 7.16123 8.71797 7.16123C10.1824 7.07987 11.5654 6.99852 13.0298 6.99852C14.657 6.91716 16.2841 6.91716 17.9112 6.99852C19.3756 6.99852 20.84 7.07987 22.3044 7.16123C23.118 7.16123 23.9315 7.16123 24.7451 7.32394C26.2908 7.64936 27.2671 8.62564 27.6739 10.1714C27.918 11.1477 27.918 12.1239 27.9993 13.1002C27.9993 13.1816 27.9993 13.3443 27.9993 13.4256C27.9993 15.2155 27.9993 17.0053 27.9993 18.7951ZM16.6095 23.7578C18.318 23.7578 20.3519 23.6765 22.3858 23.5951C23.0366 23.5951 23.6875 23.5951 24.3383 23.4324C25.0705 23.3511 25.64 23.0256 25.9654 22.3748C26.2095 21.8867 26.3722 21.3172 26.4536 20.7477C26.6163 19.3646 26.6163 18.0629 26.6163 16.6799C26.6163 15.2968 26.6163 13.9138 26.5349 12.5307C26.5349 11.7985 26.4536 11.1477 26.2908 10.4155C25.9654 9.35784 25.3959 8.78835 24.3383 8.70699C23.4434 8.62564 22.5485 8.62564 21.7349 8.62564C19.6197 8.54428 17.5858 8.46292 15.4705 8.46292C13.518 8.46292 11.4841 8.54428 9.53153 8.62564C8.88068 8.62564 8.31119 8.62564 7.7417 8.78835C7.00949 8.8697 6.44 9.19513 6.11458 9.84597C5.87051 10.3341 5.7078 10.9036 5.62644 11.4731C5.46373 12.8561 5.46373 14.1578 5.46373 15.5409C5.46373 16.9239 5.46373 18.307 5.54509 19.69C5.54509 20.4222 5.62644 21.0731 5.78916 21.8053C5.95187 22.2121 6.03322 22.5375 6.35865 22.8629C6.76543 23.2697 7.17221 23.4324 7.7417 23.5138C8.71797 23.6765 9.7756 23.6765 10.8332 23.7578C12.6231 23.6765 14.4942 23.7578 16.6095 23.7578Z" fill="#181C32"/>
<path d="M12.9492 15.8654C12.9492 14.9705 12.9492 13.9943 12.9492 13.0993C12.9492 12.3671 13.6814 11.7163 14.495 12.2044C16.2035 13.1807 17.9933 14.0756 19.7018 15.0519C20.5153 15.4587 20.434 16.4349 19.6204 16.8417C18.5628 17.4112 17.4238 17.9807 16.3662 18.6315C15.7153 18.957 15.0645 19.3637 14.4136 19.6892C13.8441 20.0146 13.1119 19.6892 12.9492 19.1197C12.9492 18.957 12.9492 18.8756 12.9492 18.7129C12.9492 17.6553 12.9492 16.7604 12.9492 15.8654ZM14.4136 15.8654C14.4136 16.5163 14.4136 17.0858 14.4136 17.7366C14.4136 17.8993 14.495 17.9807 14.6577 17.8993C15.7967 17.2485 16.9357 16.679 18.156 16.0282C18.2374 16.0282 18.3187 15.9468 18.3187 15.9468C18.3187 15.8654 18.2374 15.8654 18.156 15.8654C17.017 15.2146 15.878 14.6451 14.739 13.9943C14.495 13.9129 14.495 13.9129 14.495 14.157C14.4136 14.6451 14.4136 15.2959 14.4136 15.8654Z" fill="#181C32"/>
</g>
<defs>
<clipPath id="clip0_4395_18351">
<rect width="24" height="18.2237" fill="white" transform="translate(4 7)"/>
</clipPath>
</defs>
</svg>
