<svg width="32" height="24" viewBox="0 0 32 24" fill="none" xmlns="http://www.w3.org/2000/svg">
<g clip-path="url(#clip0_4092_5163)">
<path d="M0.275391 3.88966C0.523667 2.89655 0.93746 1.98621 1.68229 1.24138C2.50987 0.496552 3.58574 0 4.82712 0C12.2754 0 19.7237 0 27.1719 0C29.6547 0 31.7237 2.06897 31.7237 4.55172C31.7237 9.51724 31.7237 14.4828 31.7237 19.4483C31.7237 21.931 29.6547 24 27.1719 24C19.8064 24 12.3581 24 4.99263 24C3.00642 24 0.93746 22.6759 0.358149 20.3586C0.358149 20.2759 0.275391 20.1931 0.275391 20.1103C0.275391 14.731 0.275391 9.26897 0.275391 3.88966ZM15.9168 22.0966C19.5581 22.0966 23.1168 22.0966 26.7582 22.0966C27.0892 22.0966 27.4202 22.0966 27.6685 22.0138C28.9099 21.6828 29.7375 20.6069 29.7375 19.1172C29.7375 14.3172 29.7375 9.6 29.7375 4.8C29.7375 4.46897 29.7375 4.22069 29.6547 3.88966C29.3237 2.64828 28.2478 1.82069 26.9237 1.82069C19.6409 1.82069 12.2754 1.82069 4.99263 1.82069C3.33746 1.82069 2.09608 2.97931 2.09608 4.71724C2.09608 9.51724 2.09608 14.4 2.09608 19.2C2.09608 20.1103 2.42711 20.8552 3.17194 21.4345C3.75125 21.8483 4.41332 22.0138 5.07539 22.0138C8.71677 22.0966 12.3581 22.0966 15.9168 22.0966Z" fill="#181C32"/>
<path d="M12.2754 12.0015C12.2754 10.5119 12.2754 9.0222 12.2754 7.53254C12.2754 7.11875 12.3581 6.78772 12.7719 6.53944C13.103 6.37392 13.5168 6.45668 13.8478 6.6222C16.2478 8.11185 18.6478 9.60151 20.965 11.0912C21.7099 11.5877 21.7099 12.3325 20.965 12.8291C18.565 14.3187 16.165 15.8084 13.8478 17.2981C13.5168 17.5463 13.1857 17.5463 12.7719 17.3808C12.4409 17.2153 12.2754 16.8015 12.2754 16.3877C12.2754 14.9808 12.2754 13.4912 12.2754 12.0015ZM14.1788 12.0015C14.1788 12.8291 14.1788 13.7394 14.1788 14.567C14.1788 14.6498 14.0961 14.7325 14.2616 14.8153C14.3444 14.8981 14.4271 14.7325 14.5099 14.7325C15.834 13.905 17.2409 13.0774 18.565 12.167C18.8133 12.0015 18.8133 12.0015 18.565 11.836C17.2409 11.0084 15.834 10.1808 14.5099 9.27047C14.4271 9.18772 14.3444 9.10496 14.2616 9.18772C14.1788 9.27047 14.2616 9.35323 14.2616 9.43599C14.1788 10.2636 14.1788 11.1739 14.1788 12.0015Z" fill="#181C32"/>
</g>
<defs>
<clipPath id="clip0_4092_5163">
<rect width="31.4483" height="24" fill="white" transform="translate(0.275391)"/>
</clipPath>
</defs>
</svg>
