<?xml version="1.0" encoding="utf-8"?>
<!-- Generator: Adobe Illustrator 20.1.0, SVG Export Plug-In . SVG Version: 6.00 Build 0)  -->
<svg version="1.1" id="Layer_1" xmlns="http://www.w3.org/2000/svg" xmlns:xlink="http://www.w3.org/1999/xlink" x="0px" y="0px"
	 viewBox="0 0 572 200" style="enable-background:new 0 0 572 200;" xml:space="preserve">
<style type="text/css">
	.st0{fill-rule:evenodd;clip-rule:evenodd;fill:#002F87;}
	.st1{fill-rule:evenodd;clip-rule:evenodd;fill:#E8AE10;}
	.st2{fill:#E8AE10;}
	.st3{fill:#002F87;}
</style>
<polygon class="st0" points="13,46.2 562.2,46.2 558.1,52.3 20.2,52.3 13,46.2 "/>
<polygon class="st1" points="144.6,118.4 433.7,118.4 443.4,110.7 134.9,110.7 144.6,118.4 "/>
<polygon class="st1" points="237.2,163.4 251.1,131.2 260.9,131.2 253.2,168.5 237.2,163.4 "/>
<polygon class="st1" points="213.1,151.5 231.6,129.2 241.2,131.1 228,158.5 213.1,151.5 "/>
<polygon class="st1" points="342.1,163.4 328.2,131.2 318.5,131.2 326.2,169 342.1,163.4 "/>
<polygon class="st1" points="366.3,151.5 347,129.7 337.5,131.9 351.8,159.4 366.3,151.5 "/>
<polygon class="st1" points="259.8,170.1 270.1,131.2 278.9,131.2 276.3,175.2 259.8,170.1 "/>
<polygon class="st1" points="320,171.1 310.2,131.2 301.5,131.2 304.6,176.2 320,171.1 "/>
<polygon class="st1" points="296.4,176.7 293.8,131.2 285.6,131.2 283.5,176.7 296.4,176.7 "/>
<polygon class="st1" points="261,33 261.9,31.3 262.4,28.7 262.4,26.7 261.9,24.6 261.4,23.1 260.4,21.1 259.3,19 257.8,17.5 
	254.7,14.4 251.1,12.4 247,10.8 243.4,10.3 242.9,10.3 242.4,10.3 241.8,10.3 241.3,10.8 240.8,10.8 240.8,11.3 240.3,11.8 
	240.3,12.4 240.3,12.9 239.8,12.9 239.8,13.4 238.2,9.8 238.2,9.3 237.7,9.3 237.7,8.8 237.7,8.3 237.2,7.7 237.2,7.2 237.2,6.7 
	237.7,5.7 238.8,5.2 240.3,4.7 242.4,4.2 244.4,3.7 247,3.1 249,3.1 251.1,2.6 256.8,1.6 262.4,1.1 268.1,1.1 272.7,2.1 277.8,3.1 
	282.5,4.7 287.1,6.7 290.7,9.3 298.9,14.9 306.6,21.1 313.8,27.2 320.2,33 261,33 "/>
<g>
	<path class="st2" d="M209.7,163.6l-5.2,6.1l-0.5,0.6c-1.5,1.8-1.4,3.5,0.2,4.8c1.7,1.4,3.3,1.3,4.7-0.3l0.7-0.8l5.2-6.1l2.5,2.1
		l-5.1,6c-0.4,0.4-0.7,0.8-1,1.1c-0.5,0.5-1,0.9-1.6,1.2c-1,0.5-2.2,0.5-3.5,0.2c-1.1-0.3-2.2-0.9-3.2-1.7c-1.1-0.9-1.9-1.9-2.4-3
		c-0.6-1.3-0.6-2.4-0.2-3.6c0.3-0.7,0.7-1.4,1.2-2l0.5-0.6l5.1-6L209.7,163.6z"/>
	<path class="st2" d="M218.4,181l-0.2,0.6c-0.4,1.3,0.3,2.3,1.9,3c0.7,0.3,1.4,0.5,2,0.4c0.8,0,1.3-0.4,1.6-1
		c0.2-0.4,0.1-0.9-0.4-1.4c-0.4-0.4-0.8-0.8-1.2-1.1l-2-1.6c-0.5-0.4-0.9-0.8-1.3-1.2c-1.2-1.2-1.4-2.5-0.8-3.9
		c0.6-1.3,1.6-2.1,3.1-2.3c1.3-0.2,2.7,0,4.3,0.7c1,0.4,1.8,1,2.5,1.6c0.4,0.4,0.8,0.9,1,1.3c0.4,0.9,0.4,1.9,0.1,2.9l-0.2,0.3
		l-3-1.3c0.4-1.3,0-2.3-1.4-2.9c-0.6-0.3-1.2-0.4-1.8-0.3c-0.7,0.1-1.2,0.4-1.4,0.9c-0.2,0.6-0.1,1.1,0.5,1.7
		c0.3,0.3,0.6,0.6,0.9,0.9l2.5,2c0.6,0.5,1.1,1.1,1.5,1.6c0.6,1,0.7,2,0.2,3.1c-0.2,0.5-0.5,0.9-0.9,1.3s-0.9,0.6-1.4,0.8
		c-0.7,0.2-1.4,0.3-2.1,0.3c-1.1-0.1-2.1-0.4-3.1-0.8c-3.7-1.6-5.1-3.8-4-6.6l0.1-0.4L218.4,181z"/>
	<path class="st2" d="M238,178l4,1.1l1.9,15.2l-3.4-0.9l-0.4-3.3l0,0l-6.4-1.8l0,0l-1.9,2.6l-3.3-0.9L238,178z M235,186.5L235,186.5
		l4.9,1.4l0,0l-0.7-7.2l0,0L235,186.5z"/>
	<path class="st2" d="M250,181l10.1,1.8l-0.4,2.2l-6.9-1.2l-0.6,3.6l6.5,1.1l-0.4,2.2l-6.5-1.1l-1.1,6l-3.2-0.6L250,181z"/>
	<path class="st2" d="M272.9,193.9l0,0.6c0.1,1.3,1.1,2,2.9,2.1c0.8,0.1,1.5,0,2-0.3c0.7-0.3,1.1-0.8,1.1-1.5c0-0.5-0.2-0.9-0.8-1.2
		c-0.5-0.3-1-0.5-1.5-0.7l-2.4-0.8c-0.6-0.2-1.2-0.4-1.6-0.7c-1.5-0.7-2.2-1.8-2.1-3.3c0.1-1.4,0.8-2.5,2.1-3.3
		c1.1-0.6,2.6-0.9,4.2-0.8c1,0.1,2,0.3,2.9,0.7c0.5,0.2,1,0.5,1.4,0.9c0.7,0.7,1.1,1.6,1,2.7l0,0.4l-3.2-0.2
		c-0.1-1.4-0.8-2.2-2.3-2.3c-0.7,0-1.3,0.1-1.8,0.3c-0.7,0.3-1,0.7-1,1.3c0,0.6,0.3,1.1,1.1,1.5c0.4,0.2,0.8,0.4,1.2,0.5l3.1,1
		c0.8,0.3,1.4,0.6,2,1c0.9,0.7,1.3,1.7,1.2,2.9c0,0.6-0.2,1.1-0.4,1.5c-0.2,0.5-0.6,0.9-1.1,1.2c-0.6,0.5-1.2,0.8-1.9,1
		c-1,0.3-2.1,0.4-3.2,0.3c-4.1-0.2-6.1-1.8-6-4.8l0-0.4L272.9,193.9z"/>
	<path class="st2" d="M296.3,184.8l0,2.2l-7.2,0l0,3.6l6.8,0l0,2.2l-6.8,0l0,4l7.4,0l0,2.2l-10.7,0l0-14.2L296.3,184.8z"/>
	<path class="st2" d="M303.7,184.5l1.3-0.1c1.6-0.1,2.8-0.1,3.5,0.1c1.3,0.3,2.2,0.9,2.7,1.8c0.2,0.4,0.4,0.9,0.4,1.4
		c0.1,0.9-0.2,1.7-0.8,2.4c-0.4,0.5-1.2,0.9-2.4,1.3l0,0c1.5,0.1,2.4,0.6,2.7,1.6c0.2,0.5,0.3,1,0.5,1.7c0.2,0.9,0.3,1.6,0.5,2.2
		c0.1,0.4,0.2,0.7,0.4,1l0.2,0.4l-3.5,0.2l-0.2-0.4c-0.2-0.5-0.3-1.2-0.5-2.1c-0.3-1.6-0.7-2.5-1.1-2.8c-0.3-0.2-0.8-0.3-1.6-0.2
		l-1.2,0.1l-1.7,0.1l0.4,5.8l-3.2,0.2l-0.9-14.1L303.7,184.5z M303,190.7l2-0.1l0.7-0.1c1.9-0.3,2.8-1,2.7-2.3
		c0-0.2-0.1-0.4-0.1-0.6c-0.4-0.9-1.3-1.2-2.9-1.1l-1.1,0.1l-1.6,0.1L303,190.7z"/>
	<path class="st2" d="M316.8,183.3l5.9,10.2l0,0l2.7-11.5l3.2-0.5l-3.9,14.9l-3.4,0.5l-8-13.2L316.8,183.3z"/>
	<path class="st2" d="M330.9,181l3.2-0.7l3,13.9l-3.2,0.7L330.9,181z"/>
	<path class="st2" d="M348.1,180.8c-0.7-1.3-2-1.7-3.7-1.2c-2.5,0.8-3.3,2.7-2.3,5.8c0.4,1.5,1,2.6,1.7,3.3c0.9,1,2.1,1.3,3.7,0.8
		c0.8-0.2,1.4-0.6,1.9-1.2c0.5-0.6,0.6-1.2,0.5-2l-0.1-0.4l3.1-0.9l0.1,0.4c0.2,1,0,2-0.5,3c-0.5,0.9-1.3,1.7-2.3,2.3
		c-0.7,0.4-1.4,0.7-2.1,0.9c-2.3,0.7-4.2,0.5-5.9-0.5c-1.4-0.8-2.4-2.3-3.1-4.5c-0.3-1.1-0.5-2.2-0.5-3.3c0-1.4,0.5-2.7,1.5-3.7
		c1-1,2.2-1.7,3.7-2.2c0.9-0.3,1.8-0.4,2.7-0.4c0.9,0,1.8,0.2,2.5,0.5c0.5,0.2,1,0.6,1.3,1c0.4,0.4,0.7,0.8,0.8,1.3l0.1,0.4
		l-3.1,0.9L348.1,180.8z"/>
	<path class="st2" d="M362.1,170.5l0.9,2l-6.6,3l1.5,3.2l6.1-2.8l0.9,2l-6.1,2.8l1.7,3.7l6.8-3.1l0.9,2l-9.7,4.5l-6-12.9
		L362.1,170.5z"/>
	<path class="st2" d="M372.6,175.2l0.5,0.5c1,0.9,2.2,0.7,3.6-0.4c0.6-0.5,1-1,1.3-1.6c0.3-0.7,0.2-1.3-0.2-1.9
		c-0.3-0.4-0.8-0.5-1.4-0.3c-0.5,0.2-1.1,0.4-1.6,0.6l-2.3,1.1c-0.6,0.3-1.1,0.5-1.6,0.6c-1.6,0.5-2.9,0.2-3.9-1
		c-0.9-1.1-1.2-2.4-0.7-3.8c0.4-1.3,1.2-2.4,2.5-3.5c0.8-0.7,1.7-1.2,2.6-1.5c0.6-0.2,1.1-0.3,1.6-0.3c1,0,1.9,0.4,2.6,1.2l0.2,0.3
		l-2.5,2.1c-1-1-2.1-1-3.2,0c-0.5,0.4-0.9,0.9-1.1,1.5c-0.3,0.7-0.2,1.2,0.2,1.7c0.4,0.5,1,0.6,1.8,0.3c0.4-0.1,0.8-0.3,1.2-0.4
		l2.9-1.4c0.8-0.3,1.5-0.6,2.1-0.6c1.2-0.1,2.1,0.3,2.9,1.2c0.4,0.4,0.6,0.9,0.8,1.4c0.1,0.5,0.2,1,0.1,1.6c-0.1,0.8-0.3,1.4-0.7,2
		c-0.5,0.9-1.2,1.7-2.1,2.4c-3.1,2.6-5.7,2.9-7.7,0.7l-0.3-0.3L372.6,175.2z"/>
</g>
<polygon class="st0" points="151,126.3 426.7,126.3 436,121 141.6,121 151,126.3 "/>
<path class="st1" d="M458.6,33.9l-12.9,0.4l-23.9,0.5l-20.4,0.7l-13.4,0.1c-36.9,0-77.1,0.7-103.2,0.7c-31.5,0-53.8,0.1-73.3,0
	c-6.2,0-12.1-0.1-18-0.2c-0.8,0-7.4-0.1-20.8-0.5c-2.7-0.1-4.3-0.1-13.8-0.5c-14.3-0.6-24.9-0.8-24.4-0.8c14.7,0.4-23.2-1-38.7-1.6
	c-14.3-0.6-25.8-1.3-38.7-2c-5.3-0.3-23.8-1.7-28.6-2C17.5,28.1,0.2,27,0.2,27l12.7,16.3l549.2,0l10-16.7l-34.2,2.6l-24.8,2
	l-15.7,0.8c-6,0-12,0.8-18,0.8C473.4,33.1,466.3,33.8,458.6,33.9z"/>
<g>
	<path class="st3" d="M29.9,89.5c-0.2,0.5-0.4,1.1-0.7,1.8c-0.2,0.6-0.5,1.3-0.7,2c-0.2,0.7-0.4,1.3-0.6,1.9
		c-0.2,0.6-0.2,1.1-0.2,1.5c0,1.3,0.5,2.1,1.4,2.4c0.9,0.3,2.2,0.5,3.8,0.5v2.9H18.2v-2.9c1.4-0.1,2.5-0.4,3.2-1.1
		c0.7-0.6,1.4-1.7,1.9-3.2l11.1-27.2c0.5-1.2,1-2.5,1.5-3.7c0.5-1.2,0.9-2.5,1.2-3.7h6c0.2,0.7,0.5,1.7,1,3.2c0.4,1.5,1.1,3.2,2,5.3
		l10,23.2c0.6,1.4,1.2,2.5,1.6,3.4c0.5,0.9,1,1.6,1.5,2.1c0.5,0.5,1,0.9,1.6,1.2c0.6,0.2,1.2,0.4,1.9,0.5v2.9H42.2v-2.9
		c1.7,0,3-0.1,3.9-0.5c0.9-0.3,1.4-1.1,1.4-2.3c0-0.6-0.1-1.2-0.3-1.8c-0.2-0.7-0.4-1.3-0.7-2c-0.3-0.6-0.5-1.3-0.8-1.9
		c-0.3-0.6-0.5-1.2-0.7-1.6H29.9z M43.6,86.2l-6.1-14.8c-0.1-0.2-0.1-0.3-0.2-0.4c0-0.1-0.1-0.1-0.2-0.1c-0.1,0-0.1,0-0.2,0.1
		c0,0.1-0.1,0.2-0.2,0.4l-5.6,14.8H43.6z"/>
	<path class="st3" d="M72.5,70.3c0-1.2-0.1-2.2-0.2-2.9c-0.2-0.7-0.5-1.3-0.9-1.7c-0.4-0.4-1-0.7-1.7-0.9c-0.7-0.2-1.7-0.3-2.9-0.4
		v-2.9h21.7v2.9c-1.2,0.1-2.1,0.2-2.9,0.4c-0.7,0.2-1.3,0.5-1.7,0.9c-0.4,0.4-0.7,1-0.9,1.7c-0.2,0.7-0.2,1.7-0.2,2.9v23.4
		c0,1.2,0.1,2.2,0.2,2.9c0.2,0.7,0.5,1.3,0.9,1.7c0.4,0.4,1,0.7,1.7,0.9c0.7,0.2,1.7,0.3,2.9,0.4v2.9H66.8v-2.9
		c1.2-0.1,2.1-0.2,2.9-0.4c0.7-0.2,1.3-0.5,1.7-0.9c0.4-0.4,0.7-1,0.9-1.7c0.2-0.7,0.2-1.7,0.2-2.9V70.3z"/>
	<path class="st3" d="M92.6,102.4v-2.9c1.2-0.1,2.1-0.2,2.9-0.4c0.7-0.2,1.3-0.5,1.7-0.9c0.4-0.4,0.7-1,0.9-1.7
		c0.2-0.7,0.2-1.7,0.2-2.9V70.3c0-1.2-0.1-2.2-0.2-2.9c-0.2-0.7-0.5-1.3-0.9-1.7c-0.4-0.4-1-0.7-1.7-0.9c-0.7-0.2-1.7-0.3-2.9-0.4
		v-2.9h21.5c3.4,0,6.3,0.2,8.7,0.6c2.4,0.4,4.3,1.1,5.7,1.9c1.4,0.8,2.5,1.8,3.1,3c0.7,1.2,1,2.5,1,4c0,2.1-0.7,4-2.2,5.5
		c-1.5,1.5-3.6,2.6-6.5,3.4c-0.8,0.2-1.4,0.3-2,0.4c-0.5,0.1-1,0.2-1.3,0.2c-0.3,0.1-0.6,0.1-0.7,0.2c-0.1,0.1-0.2,0.2-0.2,0.3
		c0,0.2,0.2,0.4,0.5,0.4c0.3,0,0.8,0.2,1.4,0.4c0.6,0.2,1.2,0.6,2,1.2c0.7,0.5,1.5,1.4,2.2,2.6l6,9.8c0.4,0.7,0.8,1.3,1.1,1.8
		c0.3,0.5,0.7,0.9,1.1,1.2c0.4,0.3,0.8,0.5,1.3,0.7c0.5,0.2,1.1,0.3,1.8,0.3v2.9c-1.7,0.1-3.5,0.1-5.5,0.2c-1.9,0.1-3.7,0.1-5.3,0.1
		c-0.6,0-1-0.2-1.4-0.6c-0.3-0.4-0.7-0.9-1.1-1.5l-7-12.1c-0.8-1.4-1.6-2.4-2.3-3.2c-0.7-0.8-1.4-1.4-2-1.8c-0.7-0.4-1.3-0.6-2-0.7
		c-0.7-0.1-1.4-0.1-2.2-0.1v11c0,1.2,0.1,2.2,0.2,2.9c0.2,0.7,0.5,1.3,0.9,1.7c0.4,0.4,1,0.7,1.7,0.9c0.7,0.2,1.7,0.3,2.9,0.4v2.9
		H92.6z M108.5,79.7c0.9,0.1,1.7,0.2,2.4,0.2c3.3,0,5.9-0.7,7.8-2c1.9-1.3,2.9-3.3,2.9-5.8c0-2.5-0.9-4.4-2.7-5.7
		c-1.8-1.3-4.3-1.9-7.6-1.9h-2.6c-0.1,0.4-0.2,1.2-0.2,2.4c-0.1,1.2-0.1,2.5-0.1,3.8V79.7z"/>
	<path class="st3" d="M156.4,102.4v-2.9c1.2-0.1,2.1-0.2,2.9-0.4c0.7-0.2,1.3-0.5,1.7-0.9c0.4-0.4,0.7-1,0.9-1.7
		c0.2-0.7,0.2-1.7,0.2-2.9V70.3c0-1.2-0.1-2.2-0.2-2.9c-0.2-0.7-0.5-1.3-0.9-1.7c-0.4-0.4-1-0.7-1.7-0.9c-0.7-0.2-1.7-0.3-2.9-0.4
		v-2.9h29c1.2,0,2.2,0,3.1,0c0.9,0,1.7-0.1,2.4-0.1c0.7,0,1.3-0.1,1.9-0.2c0.5-0.1,1.1-0.1,1.7-0.2l0.2,13.4h-3.1
		c-0.4-1.8-0.8-3.3-1.4-4.6c-0.6-1.3-1.4-2.3-2.6-3.1c-1.2-0.8-2.7-1.4-4.7-1.8c-1.9-0.4-4.5-0.6-7.5-0.6h-2.6
		c-0.1,0.4-0.2,1.2-0.2,2.4c-0.1,1.2-0.1,2.5-0.1,3.8v9.1c1.9,0,3.4-0.2,4.5-0.5c1.1-0.4,2-0.9,2.6-1.5c0.6-0.6,1-1.4,1.3-2.3
		c0.2-0.9,0.4-1.9,0.5-2.9h3v17.8h-3c-0.1-1.1-0.3-2-0.5-2.9c-0.2-0.9-0.7-1.6-1.3-2.3c-0.6-0.6-1.5-1.1-2.6-1.5
		c-1.1-0.4-2.6-0.5-4.5-0.5v10.6c0,1.2,0.1,2.2,0.2,2.9c0.2,0.7,0.5,1.3,0.9,1.7c0.4,0.4,1,0.7,1.7,0.9c0.7,0.2,1.7,0.3,2.9,0.4v2.9
		H156.4z"/>
	<path class="st3" d="M219.7,103.3c-2.9,0-5.6-0.5-8.1-1.4c-2.5-1-4.7-2.4-6.6-4.2c-1.9-1.8-3.3-4.1-4.4-6.7c-1.1-2.6-1.6-5.6-1.6-9
		c0-3.4,0.5-6.4,1.6-9c1.1-2.6,2.5-4.9,4.4-6.7c1.9-1.8,4-3.2,6.6-4.2c2.5-1,5.2-1.4,8.1-1.4c2.9,0,5.6,0.5,8.1,1.4
		c2.5,1,4.7,2.4,6.6,4.2c1.9,1.8,3.3,4.1,4.4,6.7c1.1,2.6,1.6,5.6,1.6,9c0,3.4-0.5,6.4-1.6,9c-1.1,2.6-2.5,4.9-4.4,6.7
		c-1.9,1.8-4.1,3.2-6.6,4.2C225.3,102.9,222.6,103.3,219.7,103.3z M219.7,100.5c3.5,0,6-1.6,7.4-4.8c1.4-3.2,2.2-7.8,2.2-13.7
		c0-5.9-0.7-10.5-2.2-13.7c-1.4-3.2-3.9-4.8-7.4-4.8c-3.5,0-6,1.6-7.4,4.8c-1.4,3.2-2.2,7.8-2.2,13.7c0,5.9,0.7,10.5,2.2,13.7
		C213.8,98.9,216.2,100.5,219.7,100.5z"/>
	<path class="st3" d="M244.7,102.4v-2.9c1.2-0.1,2.1-0.2,2.9-0.4c0.7-0.2,1.3-0.5,1.7-0.9c0.4-0.4,0.7-1,0.9-1.7
		c0.2-0.7,0.2-1.7,0.2-2.9V70.3c0-1.2-0.1-2.2-0.2-2.9c-0.2-0.7-0.5-1.3-0.9-1.7c-0.4-0.4-1-0.7-1.7-0.9c-0.7-0.2-1.7-0.3-2.9-0.4
		v-2.9h21.5c3.4,0,6.3,0.2,8.7,0.6c2.4,0.4,4.3,1.1,5.7,1.9c1.4,0.8,2.5,1.8,3.1,3c0.7,1.2,1,2.5,1,4c0,2.1-0.7,4-2.2,5.5
		c-1.5,1.5-3.6,2.6-6.5,3.4c-0.8,0.2-1.4,0.3-2,0.4c-0.5,0.1-1,0.2-1.3,0.2s-0.6,0.1-0.7,0.2c-0.1,0.1-0.2,0.2-0.2,0.3
		c0,0.2,0.2,0.4,0.5,0.4c0.3,0,0.8,0.2,1.4,0.4c0.6,0.2,1.2,0.6,2,1.2c0.7,0.5,1.5,1.4,2.2,2.6l6,9.8c0.4,0.7,0.8,1.3,1.1,1.8
		c0.3,0.5,0.7,0.9,1.1,1.2c0.4,0.3,0.8,0.5,1.3,0.7c0.5,0.2,1.1,0.3,1.8,0.3v2.9c-1.7,0.1-3.5,0.1-5.5,0.2c-1.9,0.1-3.7,0.1-5.3,0.1
		c-0.6,0-1-0.2-1.4-0.6c-0.3-0.4-0.7-0.9-1.1-1.5l-7-12.1c-0.8-1.4-1.6-2.4-2.3-3.2c-0.7-0.8-1.4-1.4-2-1.8c-0.7-0.4-1.3-0.6-2-0.7
		c-0.7-0.1-1.4-0.1-2.2-0.1v11c0,1.2,0.1,2.2,0.2,2.9c0.2,0.7,0.5,1.3,0.9,1.7c0.4,0.4,1,0.7,1.7,0.9c0.7,0.2,1.7,0.3,2.9,0.4v2.9
		H244.7z M260.7,79.7c0.9,0.1,1.7,0.2,2.4,0.2c3.3,0,5.9-0.7,7.8-2c1.9-1.3,2.9-3.3,2.9-5.8c0-2.5-0.9-4.4-2.7-5.7
		c-1.8-1.3-4.3-1.9-7.6-1.9H261c-0.1,0.4-0.2,1.2-0.2,2.4c-0.1,1.2-0.1,2.5-0.1,3.8V79.7z"/>
	<path class="st3" d="M331,75.1h-3.6c-0.1-1.1-0.3-2.4-0.6-3.7c-0.3-1.3-0.8-2.6-1.5-3.7c-0.7-1.1-1.7-2.1-3-2.9
		c-1.3-0.8-3.1-1.2-5.3-1.2c-2.1,0-3.9,0.5-5.5,1.4c-1.6,1-2.9,2.3-3.9,3.9c-1.1,1.6-1.9,3.5-2.4,5.5c-0.5,2.1-0.8,4.2-0.8,6.5
		c0,2.4,0.2,4.7,0.6,6.8c0.4,2.2,1.2,4.1,2.2,5.8c1.1,1.7,2.5,3.1,4.3,4.1c1.8,1,4,1.5,6.7,1.5c1.5,0,2.8-0.2,4-0.6
		c1.2-0.4,2.4-0.9,3.3-1.4c1-0.6,1.9-1.2,2.7-1.9c0.8-0.7,1.6-1.3,2.3-1.9l2.6,2.4c-0.7,0.8-1.6,1.6-2.6,2.5c-1,0.9-2.3,1.7-3.7,2.5
		c-1.4,0.8-3,1.4-4.8,1.9c-1.8,0.5-3.8,0.8-6,0.8c-3.2,0-6.3-0.5-9-1.4c-2.8-0.9-5.2-2.3-7.2-4.1c-2-1.8-3.6-4-4.8-6.7
		c-1.2-2.7-1.8-5.7-1.8-9.2c0-3.6,0.6-6.8,1.9-9.4c1.2-2.7,2.9-4.9,5.1-6.6c2.2-1.8,4.7-3.1,7.6-4s6-1.3,9.3-1.3
		c1.2,0,2.5,0,3.8,0.1c1.3,0.1,2.6,0.2,3.8,0.3c1.3,0.1,2.4,0.3,3.5,0.4c1.1,0.2,2.1,0.4,2.9,0.5V75.1z"/>
	<path class="st3" d="M374.6,102.4h-39v-2.9c1.2-0.1,2.1-0.2,2.9-0.4c0.7-0.2,1.3-0.5,1.7-0.9c0.4-0.4,0.7-1,0.9-1.7
		c0.2-0.7,0.2-1.7,0.2-2.9V70.3c0-1.2-0.1-2.2-0.2-2.9c-0.2-0.7-0.5-1.3-0.9-1.7c-0.4-0.4-1-0.7-1.7-0.9c-0.7-0.2-1.7-0.3-2.9-0.4
		v-2.9h29c1.2,0,2.2,0,3.1,0c0.9,0,1.7-0.1,2.4-0.1c0.7,0,1.3-0.1,1.9-0.2c0.5-0.1,1.1-0.1,1.7-0.2l0.2,13.4h-3.1
		c-0.4-1.8-0.8-3.3-1.4-4.6c-0.6-1.3-1.4-2.3-2.6-3.1c-1.2-0.8-2.7-1.4-4.7-1.8c-1.9-0.4-4.5-0.6-7.5-0.6h-2.6
		c-0.1,0.4-0.2,1.2-0.2,2.4c-0.1,1.2-0.1,2.5-0.1,3.8v9.1c1.9,0,3.4-0.2,4.5-0.5c1.1-0.4,2-0.9,2.6-1.5c0.6-0.6,1-1.4,1.3-2.3
		c0.2-0.9,0.4-1.9,0.5-2.9h3v17.8h-3c-0.1-1.1-0.3-2-0.5-2.9c-0.2-0.9-0.7-1.6-1.3-2.3c-0.6-0.6-1.5-1.1-2.6-1.5
		c-1.1-0.4-2.6-0.5-4.5-0.5v12.1c0,0.8,0,1.4,0.1,1.9c0.1,0.5,0.3,1,0.6,1.4c0.3,0.4,0.8,0.6,1.3,0.8c0.6,0.2,1.4,0.3,2.3,0.3
		c2.8,0,5.1-0.2,7-0.7c1.8-0.5,3.4-1.1,4.6-2c1.2-0.9,2.3-2.1,3-3.4c0.8-1.4,1.5-3,2.2-4.9h3.3L374.6,102.4z"/>
	<path class="st3" d="M403.8,70.3c0-1.2-0.1-2.2-0.2-2.9c-0.2-0.7-0.5-1.3-0.9-1.7c-0.4-0.4-1-0.7-1.7-0.9c-0.7-0.2-1.7-0.3-2.9-0.4
		v-2.9h21.7v2.9c-1.2,0.1-2.1,0.2-2.9,0.4c-0.7,0.2-1.3,0.5-1.7,0.9c-0.4,0.4-0.7,1-0.9,1.7c-0.2,0.7-0.2,1.7-0.2,2.9v23.4
		c0,1.2,0.1,2.2,0.2,2.9c0.2,0.7,0.5,1.3,0.9,1.7c0.4,0.4,1,0.7,1.7,0.9c0.7,0.2,1.7,0.3,2.9,0.4v2.9h-21.7v-2.9
		c1.2-0.1,2.1-0.2,2.9-0.4c0.7-0.2,1.3-0.5,1.7-0.9c0.4-0.4,0.7-1,0.9-1.7c0.2-0.7,0.2-1.7,0.2-2.9V70.3z"/>
	<path class="st3" d="M440.3,61.6c0.8,1.1,1.4,2.1,2,2.9c0.6,0.8,1.1,1.5,1.5,2.1c0.4,0.6,0.8,1.1,1.1,1.6c0.3,0.4,0.6,0.8,0.9,1.2
		l14.5,18.4c0.3,0.4,0.5,0.6,0.7,0.6c0.2,0,0.3-0.2,0.3-0.7V73.3c0-2-0.1-3.5-0.4-4.7c-0.2-1.2-0.6-2.1-1.1-2.7
		c-0.5-0.6-1.1-1-1.8-1.2c-0.7-0.2-1.6-0.3-2.6-0.3v-2.9h15.2v2.9c-1,0-1.8,0.1-2.6,0.3c-0.7,0.2-1.3,0.6-1.8,1.2
		c-0.5,0.6-0.9,1.5-1.1,2.7c-0.2,1.2-0.4,2.7-0.4,4.7v17.4c0,1.9,0.1,4,0.2,6.1c0.1,2.1,0.2,4.3,0.3,6.6H461L434.5,69
		c-0.2-0.2-0.4-0.4-0.5-0.6c-0.1-0.1-0.2-0.2-0.3-0.2c-0.2,0-0.3,0.1-0.3,0.2c0,0.1,0,0.2,0,0.3v22c0,2,0.1,3.6,0.4,4.7
		c0.2,1.1,0.6,2,1.1,2.7c0.5,0.6,1.1,1,1.8,1.2c0.7,0.2,1.6,0.3,2.6,0.3v2.9h-15.2v-2.9c1,0,1.8-0.1,2.6-0.3
		c0.7-0.2,1.3-0.6,1.8-1.2c0.5-0.6,0.9-1.5,1.1-2.7c0.2-1.1,0.4-2.7,0.4-4.7V70.3c0-1.2-0.1-2.2-0.2-2.9c-0.2-0.7-0.5-1.3-0.9-1.7
		c-0.4-0.4-1-0.7-1.7-0.9c-0.7-0.2-1.7-0.3-2.9-0.4v-2.9H440.3z"/>
	<path class="st3" d="M491,61.6c0.8,1.1,1.4,2.1,2,2.9c0.6,0.8,1.1,1.5,1.5,2.1c0.4,0.6,0.8,1.1,1.1,1.6c0.3,0.4,0.6,0.8,0.9,1.2
		L511,87.8c0.3,0.4,0.5,0.6,0.7,0.6c0.2,0,0.3-0.2,0.3-0.7V73.3c0-2-0.1-3.5-0.4-4.7c-0.2-1.2-0.6-2.1-1.1-2.7
		c-0.5-0.6-1.1-1-1.8-1.2c-0.7-0.2-1.6-0.3-2.6-0.3v-2.9h15.2v2.9c-1,0-1.8,0.1-2.6,0.3c-0.7,0.2-1.3,0.6-1.8,1.2
		c-0.5,0.6-0.9,1.5-1.1,2.7c-0.2,1.2-0.4,2.7-0.4,4.7v17.4c0,1.9,0.1,4,0.2,6.1c0.1,2.1,0.2,4.3,0.3,6.6h-4.4L485.1,69
		c-0.2-0.2-0.4-0.4-0.5-0.6c-0.1-0.1-0.2-0.2-0.3-0.2c-0.2,0-0.3,0.1-0.3,0.2c0,0.1,0,0.2,0,0.3v22c0,2,0.1,3.6,0.4,4.7
		c0.2,1.1,0.6,2,1.1,2.7c0.5,0.6,1.1,1,1.8,1.2c0.7,0.2,1.6,0.3,2.6,0.3v2.9h-15.2v-2.9c1,0,1.8-0.1,2.6-0.3
		c0.7-0.2,1.3-0.6,1.8-1.2c0.5-0.6,0.9-1.5,1.1-2.7c0.2-1.1,0.4-2.7,0.4-4.7V70.3c0-1.2-0.1-2.2-0.2-2.9c-0.2-0.7-0.5-1.3-0.9-1.7
		c-0.4-0.4-1-0.7-1.7-0.9c-0.7-0.2-1.7-0.3-2.9-0.4v-2.9H491z"/>
	<path class="st3" d="M555.9,73.4h-3.6c-0.2-1.1-0.4-2.2-0.9-3.3c-0.4-1.2-1-2.2-1.8-3.2c-0.8-1-1.8-1.8-3-2.4
		c-1.2-0.6-2.7-0.9-4.5-0.9c-1.2,0-2.2,0.2-3.1,0.5c-0.8,0.3-1.5,0.8-2,1.3c-0.5,0.5-0.9,1.1-1.2,1.8c-0.2,0.7-0.4,1.4-0.4,2.1
		c0,1.6,0.6,2.8,1.7,3.8c1.1,0.9,2.5,1.8,4.2,2.5c1.7,0.7,3.5,1.4,5.4,2.1c2,0.7,3.8,1.5,5.4,2.5c1.7,1,3.1,2.3,4.2,3.9
		c1.1,1.6,1.7,3.6,1.7,6c0,2.3-0.4,4.3-1.3,6c-0.9,1.7-2.1,3.1-3.7,4.1c-1.6,1.1-3.4,1.9-5.6,2.4c-2.2,0.5-4.5,0.8-7,0.8
		c-2.3,0-4.6-0.1-7-0.4c-2.4-0.3-4.4-0.7-6-1.2l-0.7-12.8h3.7c0.3,1.1,0.7,2.3,1.1,3.6c0.5,1.3,1.1,2.6,2,3.8
		c0.8,1.2,1.9,2.1,3.3,2.9c1.3,0.8,3.1,1.2,5.2,1.2c1.4,0,2.7-0.2,3.7-0.6c1-0.4,1.9-0.9,2.6-1.5c0.7-0.6,1.2-1.4,1.5-2.2
		c0.3-0.8,0.5-1.7,0.5-2.6c0-1.7-0.6-3-1.7-4c-1.1-1-2.5-1.9-4.2-2.6c-1.7-0.7-3.5-1.4-5.4-2.1c-2-0.7-3.8-1.5-5.4-2.5
		c-1.7-1-3.1-2.2-4.2-3.7c-1.1-1.5-1.7-3.4-1.7-5.8c0-1.7,0.3-3.3,1-4.8c0.7-1.5,1.7-2.8,3-3.8c1.3-1.1,3-1.9,4.9-2.6
		c1.9-0.6,4.2-0.9,6.7-0.9c2.2,0,4.3,0.1,6.2,0.4c1.9,0.3,4.1,0.7,6.4,1.3V73.4z"/>
</g>
</svg>
